<?xml version="1.0" encoding="UTF-8" standalone="no"?>
<!-- Created with Inkscape (http://www.inkscape.org/) -->

<svg
   xmlns:dc="http://purl.org/dc/elements/1.1/"
   xmlns:cc="http://creativecommons.org/ns#"
   xmlns:rdf="http://www.w3.org/1999/02/22-rdf-syntax-ns#"
   xmlns:svg="http://www.w3.org/2000/svg"
   xmlns="http://www.w3.org/2000/svg"
   xmlns:sodipodi="http://sodipodi.sourceforge.net/DTD/sodipodi-0.dtd"
   xmlns:inkscape="http://www.inkscape.org/namespaces/inkscape"
   height="200"
   width="200"
   version="1.0"
   id="svg4232"
   inkscape:version="0.91 r13725"
   sodipodi:docname="ISO_7010_F004_B_.svg">
  <defs
     id="defs4262" />
  <sodipodi:namedview
     pagecolor="#ffffff"
     bordercolor="#666666"
     borderopacity="1"
     objecttolerance="10"
     gridtolerance="10"
     guidetolerance="10"
     inkscape:pageopacity="0"
     inkscape:pageshadow="2"
     inkscape:window-width="1920"
     inkscape:window-height="1116"
     id="namedview4260"
     showgrid="false"
     inkscape:zoom="2.6862019"
     inkscape:cx="71.544508"
     inkscape:cy="130.15264"
     inkscape:window-x="-8"
     inkscape:window-y="72"
     inkscape:window-maximized="1"
     inkscape:current-layer="layer2" />
  <metadata
     id="metadata4234">
    <rdf:RDF>
      <cc:Work
         rdf:about="">
        <dc:format>image/svg+xml</dc:format>
        <dc:type
           rdf:resource="http://purl.org/dc/dcmitype/StillImage" />
        <dc:title />
      </cc:Work>
    </rdf:RDF>
  </metadata>
  <g
     inkscape:groupmode="layer"
     id="layer2"
     inkscape:label="svg"
     style="display:inline">
    <g
       inkscape:groupmode="layer"
       id="layer3"
       inkscape:label="BCKGR"
       style="display:inline">
      <rect
         style="fill:#a02128;fill-opacity:1;stroke:none;stroke-width:3.50438309;stroke-opacity:1"
         id="rect4881"
         width="211.507"
         height="212.0381"
         x="-11.447357"
         y="2.5085239" />
    </g>
    <g
       transform="matrix(0.77750819,0,0,0.77750819,259.89103,-4.3918035)"
       id="g4240"
       style="fill:#ffffff;fill-opacity:1;stroke:none;stroke-opacity:1">
      <path
         d="m -149.44,95.107 48.177,0 0,-5.9823 -98.848,0 c 0.13822,2.0808 -0.39792,4.359 0.5722,6.2639 2.94,0.06043 6.1231,-0.18707 9.1562,-0.1348 13.647,-0.12318 27.295,-0.14145 40.943,-0.14679 z"
         id="path4242"
         inkscape:connector-curvature="0"
         style="fill:#ffffff;fill-opacity:1;stroke:none;stroke-opacity:1" />
      <path
         d="m -101.97,86.908 c -3.5454,-2.7624 -9.1182,-2.0785 -12.664,-5.363 -8.8984,-6.5299 -10.51,-18.226 -16.535,-26.859 -4.9118,-7.2072 -12.272,-13.644 -21.323,-14.338 -8.1339,-1.2282 -16.54,1.5859 -22.591,7.0903 -2.3624,2.5007 -5.5405,4.4178 -7.4206,7.2295 -2.0504,5.3846 -3.9567,10.868 -5.186,16.503 1.4105,3.8396 -0.5572,7.977 -3.2991,10.855 -1.5814,3.3941 -7.8841,1.9846 -8.2993,5.4098 17.591,0.65826 35.208,0.40487 52.81,0.49345 14.17,-0.09064 28.352,0.2035 42.513,-0.36038 0.57245,-0.16718 1.8373,0.08671 1.9945,-0.65997 z"
         id="path4244"
         inkscape:connector-curvature="0"
         style="fill:#ffffff;fill-opacity:1;stroke:none;stroke-opacity:1" />
      <path
         d="m -106.65,82.356 c -1.6188,-2.0634 -4.5144,-2.9015 -6.0351,-5.2164 -3.6756,-3.7677 -4.7464,-9.0461 -6.384,-13.855 -2.8801,-7.7542 -6.751,-15.354 -12.491,-21.393 -5.2072,-4.796 -12.153,-7.0494 -18.826,-8.9979 -6.1089,-1.9376 -12.559,-1.3817 -18.868,-1.4971 -0.26509,3.2238 -0.91518,6.4538 -0.68186,9.6884 3.3812,-0.35325 6.4896,-2.1155 9.917,-2.3889 8.7196,-1.25 17.7,1.8621 24.504,7.2662 5.8482,5.7303 9.6058,13.22 12.44,20.812 2.732,6.2903 6.4855,13.104 13.315,15.587 0.76769,0.01396 3.156,1.5817 3.1101,-0.0055 z"
         id="path4246"
         inkscape:connector-curvature="0"
         style="fill:#ffffff;fill-opacity:1;stroke:none;stroke-opacity:1" />
    </g>
    <g
       transform="matrix(1.0608638,0,0,1.0608638,-6.557983,16.045856)"
       id="g4248"
       style="fill:#ffffff;fill-opacity:1;stroke:none;stroke-opacity:1">
      <path
         d="m 172.35,162.06 c -0.039,-3.0293 0.0251,-6.0776 -0.35956,-9.087 -1.3585,-0.30939 -3.2139,0.46252 -4.761,0.61697 -6.9924,1.4677 -14.383,1.3563 -21.186,-0.95033 -5.0575,-1.5843 -10.018,-3.8616 -13.922,-7.5208 -0.64792,-0.69537 -2.1747,-1.3599 -1.605,0.23184 0.92456,4.1458 2.4315,8.173 4.3571,11.957 2.3411,3.996 5.6212,7.502 9.5677,9.9446 3.5588,1.8594 7.5229,2.7908 11.411,3.6967 5.4855,0.42892 10.998,0.29277 16.497,0.38763 l 0,-9.2764 z"
         id="path4250"
         style="fill:#ffffff;fill-opacity:1;stroke:none;stroke-opacity:1"
         inkscape:connector-curvature="0" />
      <path
         d="m 163.65,148.54 c 2.9984,-1.0326 5.8895,-2.5061 8.4269,-4.4126 0.0246,-1.431 -3.3212,-1.599 -4.7084,-2.3219 -5.3819,-1.5254 -10.565,-3.9469 -14.777,-7.6831 -5.0197,-4.0819 -9.1504,-9.383 -14.97,-12.404 -4.1378,-1.9613 -8.8746,-1.6006 -13.319,-1.422 -2.6854,0.22908 -5.1475,1.5786 -7.2604,3.1786 -0.69761,1.8803 3.1103,1.8883 4.3301,2.8162 6.2324,2.8753 10.628,8.3835 15.104,13.388 3.4066,4.2633 8.0445,7.6926 13.467,8.795 4.4941,0.79195 9.2231,1.0039 13.708,0.066 z"
         id="path4252"
         style="fill:#ffffff;fill-opacity:1;stroke:none;stroke-opacity:1"
         inkscape:connector-curvature="0" />
      <path
         d="m 172.35,124.65 0,-10.174 c -2.9746,0.13951 -5.9477,-0.28844 -8.743,-1.3389 -7.7865,-2.7243 -15.094,-6.951 -21.04,-12.703 -3.8454,-3.5579 -7.5204,-7.3436 -10.506,-11.663 -0.65081,-1.2881 -2.4343,-2.1606 -2.303,0.0097 -0.15931,5.0129 1.1478,9.9646 2.6838,14.698 2.9724,8.2184 8.8429,15.112 15.567,20.559 3.6876,3.0483 7.9808,5.231 12.474,6.8172 3.7741,1.3908 7.5197,2.9187 11.417,3.9282 0.5706,-3.3062 0.35939,-6.7752 0.44994,-10.132 z"
         id="path4254"
         style="fill:#ffffff;fill-opacity:1;stroke:none;stroke-opacity:1"
         inkscape:connector-curvature="0" />
      <path
         d="m 171.27,105.57 c 2.0147,-0.97016 -2.129,-2.0186 -2.7345,-2.8924 -9.0158,-6.1797 -14.454,-16.056 -18.839,-25.791 -2.1163,-4.8628 -4.2278,-10.011 -8.4907,-13.422 -3.423,-3.2464 -7.9435,-5.7506 -12.802,-5.3187 -1.2625,-0.06654 -3.9337,0.10088 -1.7925,1.5869 3.2189,2.4167 5.1342,6.0884 6.2338,9.8863 2.0945,7.3481 3.9542,14.939 8.1715,21.427 4.2686,6.8643 10.573,13.111 18.717,14.866 3.7804,0.65859 7.8242,0.70718 11.536,-0.34185 z"
         id="path4256"
         style="fill:#ffffff;fill-opacity:1;stroke:none;stroke-opacity:1"
         inkscape:connector-curvature="0" />
      <path
         d="m 172.35,86.34 0,-9.5831 c -2.6272,-1.658 -5.3206,-3.2779 -7.433,-5.6 -2.9871,-3.0884 -4.757,-7.0927 -6.7125,-10.859 -1.4989,-3.0112 -2.7645,-6.1326 -3.7909,-9.3333 -0.29,-1.6932 -1.4602,-0.88294 -1.5202,0.37721 -1.1582,4.9805 -1.4283,10.158 -1.1036,15.253 0.4059,6.3085 2.7952,12.438 6.7447,17.372 3.4001,4.2652 7.4128,8.0579 11.842,11.239 1.2857,1.3363 1.9407,0.23907 1.7686,-1.1918 0.16716,-2.5536 0.19977,-5.1145 0.20532,-7.6728 z"
         id="path4258"
         style="fill:#ffffff;fill-opacity:1;stroke:none;stroke-opacity:1"
         inkscape:connector-curvature="0" />
    </g>
    <path
       style="fill:#ffffff;fill-opacity:1;stroke:none;stroke-opacity:1"
       d="m 54.294647,13.101562 0,11.582032 -4.21289,0 0,8.162109 -35.93164,0 0,149.253907 35.93164,0 0,9.47656 4.21289,0 0,11.58203 4.73828,0 0,-11.58203 4.21094,0 0,-9.47656 35.14258,0 0,-149.253907 -35.14258,0 0,-8.162109 -4.21094,0 0,-11.582032 -4.73828,0 z m -31.19336,27.376954 66.59766,0 0,133.988284 -66.59766,0 0,-133.988284 z"
       id="rect4828"
       inkscape:connector-curvature="0" />
    <circle
       style="fill:#ffffff;fill-opacity:1;stroke:none;stroke-width:1.25478172;stroke-opacity:1"
       id="path4847"
       cx="56.936249"
       cy="60.352959"
       r="9.7439833" />
    <path
       style="fill:#ffffff;fill-opacity:1;fill-rule:evenodd;stroke:none;stroke-width:1px;stroke-linecap:butt;stroke-linejoin:miter;stroke-opacity:1"
       d="m 48.087617,70.363281 -11.5625,3.941407 -8.94922,47.382812 8.16016,-0.26367 6.58008,-30.535158 2.89648,20.005858 -10.00391,56.85938 12.10938,0.26367 8.95117,-45.01367 0.66797,-2.1836 0.66601,2.1836 8.95118,45.01367 12.10937,-0.26367 -10.00391,-56.85938 2.89649,-20.005858 6.58008,30.535158 8.16015,0.26367 -8.94922,-47.382812 -11.55859,-3.941407 a 13.082706,13.082706 0 0 1 -8.85156,3.466797 13.082706,13.082706 0 0 1 -8.84961,-3.466797 z"
       id="path4849"
       inkscape:connector-curvature="0" />
    <path
       style="fill:#ffffff;fill-opacity:1;stroke:none;stroke-width:0.99761772;stroke-opacity:1"
       d="m -14.901853,-1.8477651 0,219.4759051 219.475913,0 0,-219.4759051 -219.475913,0 z m 5.3466,5.4596193 208.774913,0 0,209.0360058 -208.774913,0 0,-209.0360058 z"
       id="rect4857"
       inkscape:connector-curvature="0" />
  </g>
</svg>
