<?xml version="1.0" encoding="UTF-8" standalone="no"?>
<!DOCTYPE svg PUBLIC "-//W3C//DTD SVG 1.1//EN" "http://www.w3.org/Graphics/SVG/1.1/DTD/svg11.dtd">
<svg
   xmlns:svg="http://www.w3.org/2000/svg"
   xmlns="http://www.w3.org/2000/svg"
   id="svg3964"
   viewBox="0 0 15000 15000"
   height="15000"
   width="15000"
   version="1.1">
<defs
   id="defs3966"/>
<rect style="fill:#F4F8F4" y="500" x="500" height="14000" width="14000" />
<path
   style="fill:#0F8558;" 
   d="M 2518,14307 L 8005,14307 C 8005,14307 8503,13836 8753,13599 8947,13434 8964,13322 9297,13329 9659,13335 10022,13342 10384,13348 L 9362,14307 10884,14307 11700,13487 11700,7680 10200,7680 C 9965,7680 9932,7648 9780,7496 L 8911,6469 C 8670,6996 8443,7444 8203,7953 8176,8005 8112,8122 8160,8213 L 10548,13035 9672,13032 C 9214,13042 9023,12726 8862,12443 8216,11141 7567,9840 6920,8538 L 6798,10855 C 6766,11256 6495,11358 6140,11369 L 2128,11378 C 2128,10917 2585,10308 3329,10279 3329,10279 4762,10295 5511,10298 5606,10298 5632,10245 5643,10166 5678,9570 5711,8970 5748,8374 5771,8078 5797,7873 5883,7649 6163,7049 6443,6452 6723,5854 L 5698,5842 C 5671,5841 5650,5847 5636,5871 L 4894,7171 C 4588,7729 3761,7322 4038,6730 L 4948,5208 C 5108,4970 5181,4888 5597,4875 5597,4875 7540,4872 8513,4872 8829,4865 8865,4964 9016,5125 9422,5626 9866,6160 10262,6627 10317,6693 10348,6720 10479,6720 L 11700,6720 11700,2147 3334,2155 C 3334,2155 3347,7474 3340,10077 2487,10104 1900,10749 1868,11580 2348,11586 2842,11563 3334,11569 L 3334,13487 2518,14307 Z M 500,14500 L 500,500 14500,500 14500,14500 500,14500 Z M 8632,2650 C 9189,2650 9616,3078 9616,3638 9616,4199 9189,4627 8632,4627 8075,4627 7647,4199 7647,3638 7647,3078 8075,2650 8632,2650 Z"
/>
</svg>