<?xml version="1.0" encoding="UTF-8" standalone="no"?>
<svg id="Nederlands_verkeersbord_A1-60-ZH" width="240" height="300" viewBox="0 0 240 300" xmlns="http://www.w3.org/2000/svg" version="1.1">
	<g>
	  <path
		 id="wit_vlak"
		 style="fill:#f7fbf5;stroke:none"
		 d="m 0.24756664,299.75244 240.00000336,0 0,-300 -240.00000336,0 0,300 z m 240.00000336,0 0,0 z" />
		<text x="30" y="270" font-family="Open Sans" font-size="36" font-weight="bold" fill="black" >
			herhaling
		</text>

	  <path
		 id="zwarte_rand"
		 style="fill:none;stroke:#2a2d2f;stroke-width:0.49513328"
		 d="M 0.24756664,299.75244 L 239.7525,299.75244 L 239.7525,0.24756664 L 0.24756664,0.24756664 L 0.24756664,299.75244 z M 239.7525,299.75244 L 239.7525,299.75244 z " />
	  <path
		 id="zwarte_bies"
		 style="fill:none;stroke:#2a2d2f;stroke-width:4.95133305"
		 d="M 210.5602,291.86796 C 221.31649,291.86796 230.01308,284.81341 230.01308,276.10711 L 230.01308,23.901037 C 230.01308,15.186607 221.31649,8.1320466 210.5602,8.1320466 L 29.442379,8.1320466 C 18.686924,8.1320466 9.9576883,15.186607 9.9576883,23.901037 L 9.9576883,276.10711 C 9.9576883,284.81341 18.686924,291.86796 29.442379,291.86796 L 210.5602,291.86796 z " />
	  <g
		 id="tekst_ZONE">
		<path
		   id="letter_Z_zwart"
		   style="fill:#2a2d2f;stroke:none"
		   d="M 98.391618,43.510567 L 83.516768,43.510567 L 83.516768,40.109407 L 93.356616,27.652067 L 83.777892,27.652067 L 83.777892,24.218367 L 98.326338,24.218367 L 98.326338,27.391687 L 88.387731,40.109407 L 98.391618,40.109407 L 98.391618,43.510567 z " />
		<path
		   id="letter_Z_contour"
		   style="fill:none;stroke:#f7fbf5;stroke-width:0.10727888"
		   d="M 98.391618,43.510567 L 83.516768,43.510567 L 83.516768,40.109407 L 93.356616,27.652067 L 83.777892,27.652067 L 83.777892,24.218367 L 98.326338,24.218367 L 98.326338,27.391687 L 88.387731,40.109407 L 98.391618,40.109407 L 98.391618,43.510567 z " />
		<path
		   id="letter_O_zwart"
		   style="fill:#2a2d2f;stroke:none"
		   d="M 118.07298,33.689517 C 118.46467,47.131397 101.30164,47.066307 101.49749,33.754617 C 101.56276,20.499887 118.30147,21.199647 118.07298,33.689517 z M 114.31264,32.639887 C 113.62635,25.422607 104.08027,25.837587 105.32227,35.406377 C 105.91064,42.208677 115.52285,42.078487 114.31264,32.639887 z " />
		<path
		   id="letter_O_contour"
		   style="fill:none;stroke:#f7fbf5;stroke-width:0.10727888"
		   d="M 118.07298,33.689517 C 118.46467,47.131397 101.30164,47.066307 101.49749,33.754617 C 101.56276,20.499887 118.30147,21.199647 118.07298,33.689517 z M 114.31264,32.639887 C 113.62635,25.422607 104.08027,25.837587 105.32227,35.406377 C 105.91064,42.208677 115.52285,42.078487 114.31264,32.639887 z " />
		<path
		   id="letter_N_zwart"
		   style="fill:#2a2d2f;stroke:none"
		   d="M 138.30925,24.405517 L 138.30925,43.575657 L 134.64766,43.575657 L 126.18038,31.403097 L 126.18038,43.575657 L 122.42087,43.575657 L 122.42087,24.405517 L 125.82049,24.405517 L 134.64766,36.862847 L 134.64766,24.405517 L 138.30925,24.405517 z " />
		<path
		   id="letter_N_contour"
		   style="fill:none;stroke:#f7fbf5;stroke-width:0.10727888"
		   d="M 138.30925,24.405517 L 138.30925,43.575657 L 134.64766,43.575657 L 126.18038,31.403097 L 126.18038,43.575657 L 122.42087,43.575657 L 122.42087,24.405517 L 125.82049,24.405517 L 134.64766,36.862847 L 134.64766,24.405517 L 138.30925,24.405517 z " />
		<path
		   id="letter_E_zwart"
		   style="fill:#2a2d2f;stroke:none"
		   d="M 156.45401,24.307887 L 156.45401,27.554427 L 147.00585,27.554427 L 147.00585,31.907587 L 152.72713,31.907587 L 152.72713,35.023947 L 147.00585,35.023947 L 147.00585,40.556927 L 156.42136,40.556927 L 156.42136,43.762797 L 143.80205,43.762797 L 143.80205,24.307887 L 156.45401,24.307887 z " />
		<path
		   id="letter_E_contour"
		   style="fill:none;stroke:#f7fbf5;stroke-width:0.10727888"
		   d="M 156.45401,24.307887 L 156.45401,27.554427 L 147.00585,27.554427 L 147.00585,31.907587 L 152.72713,31.907587 L 152.72713,35.023947 L 147.00585,35.023947 L 147.00585,40.556927 L 156.42136,40.556927 L 156.42136,43.762797 L 143.80205,43.762797 L 143.80205,24.307887 L 156.45401,24.307887 z " />
	  </g>
	  <path
		 id="path37"
		 style="fill:none;stroke:#2a2d2f;stroke-width:4.95718098;stroke-opacity:1"
		 d="M 210.67168,292.01651 C 221.43954,292.01651 230.14601,284.95399 230.14601,276.2297 L 230.14601,23.738624 C 230.14601,15.022484 221.43954,7.9599636 210.67168,7.9599636 L 29.293888,7.9599636 C 18.559544,7.9599636 9.8195456,15.022484 9.8195456,23.738624 L 9.8195456,276.2297 C 9.8195456,284.95399 18.559544,292.01651 29.293888,292.01651 L 210.67168,292.01651 z " />

		 <g transform="scale(0.55) translate(65,100)">
			<circle id="witte cirkel met rode rand" cx="150" cy="150" r="130.5" fill="#f7fbf5" stroke="#c1121c" stroke-width="39" />

			<text x="60" y="210" font-family="sans-serif" font-size="160" font-weight="bold" fill="black" >
				60
			</text>
		</g>
	</g>
</svg>
