<?xml version="1.0" encoding="UTF-8" standalone="no"?>
<svg id="Nederlands_verkeersbord_A4-40" width="100" height="100" viewBox="0 0 100 100" xmlns="http://www.w3.org/2000/svg" version="1.1" >
	<g>
		 <rect
		 id="blauw vlak"
		 width="100"
		 height="100"
		 fill="#0e518d" />
	  <path
		 id="witte tekst k"
		 style="fill:#f7fbf5;stroke:none"
		 d="M 15.39835,89.417715 L 12.12591,89.417715 L 12.12591,70.987235 L 15.39835,69.367775 L 15.39835,80.432245 L 19.51409,74.937825 L 23.54019,74.937825 L 19.14146,80.541495 L 23.66066,89.417715 L 19.72142,89.417715 L 16.75719,83.211625 L 15.39835,84.842295 L 15.39835,89.417715" />
	  <path
		 id="witte tekst m"
		 style="fill:#f7fbf5;stroke:none"
		 d="M 33.86179,76.843085 L 33.66567,76.843085 C 34.50899,74.982635 36.15922,74.523145 37.59371,74.444705 C 39.49889,74.357835 41.4461,75.660705 41.63381,76.952355 C 41.42367,75.484175 44.58684,74.444705 46.23987,74.444705 C 47.95731,74.444705 50.9776,75.615885 50.9776,79.087335 L 50.9776,89.526955 L 47.70516,89.526955 L 47.70516,80.760045 C 47.54267,79.359115 48.03578,77.325005 44.99308,77.325005 C 44.18338,77.325005 43.06549,77.795685 42.90299,78.725905 C 42.66204,80.115615 42.61722,81.558555 42.61722,81.919985 L 42.61722,89.526955 L 39.52128,89.526955 L 39.52128,80.760045 C 39.52128,78.199155 38.27172,77.411855 36.82883,77.411855 C 35.51481,77.411855 34.55101,78.134725 34.02708,79.381525 C 33.7189,80.157645 33.91781,81.558555 33.91781,81.919985 L 33.91781,89.526955 L 30.99561,89.526955 L 30.99561,74.895795 L 33.86179,74.895795 L 33.86179,76.843085" />
	  <path
		 id="witte tekst schuine streep"
		 style="fill:#f7fbf5;stroke:none"
		 d="M 69.35418,67.179545 L 67.96453,67.179545 L 56.30931,94.091145 L 57.71017,94.091145 L 69.35418,67.179545" />
	  <path
		 id="witte tekst h"
		 style="fill:#f7fbf5;stroke:none"
		 d="M 78.39538,76.394785 C 79.32557,74.775335 80.3426,74.534345 81.75467,74.534345 C 82.73807,74.534345 87.00792,74.433495 87.00792,79.283465 L 87.00792,89.526955 L 83.99886,89.526955 L 83.99886,80.737615 C 83.99886,78.647455 83.43852,77.313785 81.53613,77.313785 C 81.53613,77.313785 80.11285,77.005565 78.98656,78.187935 C 78.5915,78.594225 78.39538,79.106945 78.39538,82.009645 L 78.39538,89.526955 L 75.19861,89.526955 L 75.19861,70.998445 L 78.39538,69.378995 L 78.39538,76.394785" />

		<text x="12" y="60" font-family="sans-serif" font-size="66" font-weight="bold" fill="#f7fbf5" >
			40
		</text>

	  <path
		 id="witte bies"
		 style="fill:none;stroke:#f7fbf5;stroke-width:2.2554369"
		 d="M 92.09587,97.374905 C 95.00688,97.374905 97.36034,95.010155 97.36034,92.110265 L 97.36034,7.901165 C 97.36034,4.990059 95.00688,2.636519 92.09587,2.636519 L 7.9009,2.636519 C 4.9899,2.636519 2.63924,4.990059 2.63924,7.901165 L 2.63924,92.110265 C 2.63924,95.010155 4.9899,97.374905 7.9009,97.374905 L 92.09587,97.374905 z " />
	</g>	 
</svg>
