<?xml version="1.0" encoding="UTF-8" standalone="no"?>
<svg id="Nederlands_verkeersbord_B7-F" width="1000" height="1000" viewBox="0 0 1000 1000" xmlns="http://www.w3.org/2000/svg" version="1.1">
<g>
  <g
     id="layer1"
     transform="translate(1402.1878,1871.318)">
    <rect
       style="fill:#f0ca00;fill-rule:evenodd;stroke:#000000;stroke-width:1.04490376000000000px;stroke-linecap:butt;stroke-linejoin:miter;stroke-opacity:1;fill-opacity:1"
       id="rect2992"
       width="998.95514"
       height="998.95508"
       x="-1401.6655"
       y="-1870.3956" />
    <rect
       style="color:#000000;fill:#000000;fill-opacity:1;fill-rule:nonzero;stroke:none;stroke-width:0.8735441;marker:none;visibility:visible;display:inline;overflow:visible"
       id="rect3653"
       width="0"
       height="27.202072"
       x="578.73834"
       y="298.1684"
       rx="249.48199"
       ry="27.202072" />
    <path
       style="fill:#c1121c;fill-opacity:1;stroke:none"
       d="m -1109.0945,-871.11783 -292.8933,-292.89317 1e-4,-414.2135 292.8931,-292.8935 414.2135,3e-4 292.8933,292.8932 -2e-4,414.2136 -292.8931,292.89317 z"
       id="path3032" />
    <path
       id="path3046"
       d="m -1105.5323,-879.71786 -287.8555,-287.85534 10e-5,-407.0891 287.8553,-287.8557 407.08905,4e-4 287.85555,287.8553 -2e-4,407.0892 -287.85535,287.85534 z"
       style="fill:#ffffff;fill-opacity:1;stroke:none" />
    <path
       style="fill:#c1121c;fill-opacity:1;stroke:none"
       d="m -1363.9878,-1179.7512 0,-382.7332 270.6332,-270.6333 382.73362,-3e-4 270.6331,270.6336 8e-5,382.7333 -270.6336,270.63334 -382.7331,-1.5e-4 z"
       id="path3048" />
    <path
       id="letter_S"
       d="m -1298.8384,-1286.0149 c 13.928,32.4345 41.5113,45.4246 67.9225,45.4246 33.6342,0 57.8105,-22.5489 57.8105,-57.7611 0,-32.4616 -14.1732,-34.259 -43.6645,-52.9953 l -37.0412,-20.7243 c -16.708,-10.3212 -63.3434,-36.601 -68.6857,-75.762 -6.8958,-50.1903 26.3023,-94.4438 85.3938,-94.4438 57.2926,0 82.9407,29.0303 92.0988,59.9942 l -31.6173,19.4715 c -12.456,-28.6218 -38.1041,-38.8342 -60.4815,-38.8342 -20.742,0 -51.6233,16.2853 -42.7923,54.0302 3.7341,16.1764 28.2102,26.8244 42.5742,36.6011 l 46.8535,25.844 c 28.5373,18.3005 58.4646,34.5858 58.4646,86.165 0,77.0148 -56.7475,99.0462 -98.5858,99.0462 -45.2726,0 -65.1696,-15.8496 -76.0448,-28.9213 -10.3029,-12.4727 -18.8341,-22.4673 -22.4592,-36.1927 l 30.2544,-20.9421"
       style="fill:#ffffff;stroke:none" />
    <path
       id="letter_T"
       d="m -1127.8601,-1533.6712 183.24364,0 0,43.5182 -69.85774,0 0,281.5886 -43.5282,0 0,-281.5886 -69.8577,0 0,-43.5182"
       style="fill:#ffffff;stroke:none" />
    <path
       id="letter_O"
       d="m -831.01246,-1199.9588 c -79.0158,0 -103.1648,-100.9525 -103.1648,-171.159 0,-70.2065 24.149,-171.159 103.1648,-171.159 78.8795,0 103.0558,100.9525 103.0558,171.159 0,70.2065 -24.1763,171.159 -103.0558,171.159 z m 0,-304.8727 c -46.0085,0 -64.5428,57.2164 -64.5428,133.7137 0,76.579 18.5343,133.8227 64.5428,133.8227 45.8722,0 64.8426,-56.1816 64.8426,-132.6517 0,-76.6062 -18.9704,-134.8847 -64.8426,-134.8847"
       style="fill:#ffffff;stroke:none" />
    <path
       id="letter_P"
       d="m -637.02986,-1208.5644 -39.8214,0 0,-325.1068 117.12,0 c 42.16542,0 84.84865,38.9431 84.84865,91.4755 0,45.3428 -32.78925,99.8087 -84.84865,100.2171 l -77.2986,0 0,133.4142 z m 0,-177.0141 65.3604,0 c 31.5354,0 57.61965,-22.8756 57.51065,-56.1815 -0.10903,-32.1349 -27.06545,-49.0466 -56.12065,-49.0466 l -66.7504,0 0,105.2281"
       style="fill:#ffffff;stroke:none" />
  </g>
  </g>
</svg>
