<?xml version="1.0" encoding="UTF-8" standalone="no"?>
<svg id="Nederlands_verkeersbord_BW207-R" width="240" height="300" viewBox="0 0 240 300" xmlns="http://www.w3.org/2000/svg" version="1.1">
	<g>
	  <path
		 id="blauw_vlak"
		 style="fill:#0e518d;stroke:none"
		 d="m 0,300 240,0 0,-300 -240,0 0,300 z m 240,0 0,0 z" />
	  <path
		 id="witte bies"
		 style="fill:none;stroke:#f7fbf5;stroke-width:4.95718098;stroke-opacity:1"
		 d="M 210.67168,292.01651 C 221.43954,292.01651 230.14601,284.95399 230.14601,276.2297 L 230.14601,23.738624 C 230.14601,15.022484 221.43954,7.9599636 210.67168,7.9599636 L 29.293888,7.9599636 C 18.559544,7.9599636 9.8195456,15.022484 9.8195456,23.738624 L 9.8195456,276.2297 C 9.8195456,284.95399 18.559544,292.01651 29.293888,292.01651 L 210.67168,292.01651 z " />

		 <text x="50" y="120" font-family="sans-serif" font-size="66" font-weight="bold" fill="#f7fbf5" >
			Uxx
		</text>
		
		<path
			id="witte pijl rechts"
			style="fill:#f7fbf5;stroke:#f7fbf5;stroke-width:4.95718098;stroke-opacity:1"
			d="M 150,190 150,220 40,220 40,230 150,230 150,260 200,225 z" />

	 </g>
</svg>
