<?xml version="1.0" encoding="UTF-8" standalone="no"?>
<svg id="Nederlands_verkeersbord_C06-ZB.svg" width="240" height="300" viewBox="0 0 240 300" version="1.1" xmlns="http://www.w3.org/2000/svg">
  <g id="g3">
    <path
       id="wit_vlak"
       style="fill:#f7fbf5;stroke:none"
       d="m 0.24756664,299.75244 240.00000336,0 0,-300 -240.00000336,0 0,300 z m 240.00000336,0 0,0 z" />
    <path
       id="zwarte_rand"
       style="fill:none;stroke:#2a2d2f;stroke-width:0.49513328"
       d="m 0.24756664,299.75244 239.50493336,0 0,-299.50487336 -239.50493336,0 0,299.50487336 z m 239.50493336,0 0,0 z" />
    <path
       id="zwarte_bies"
       style="fill:none;stroke:#2a2d2f;stroke-width:4.95133305"
       d="m 210.5602,291.86796 c 10.75629,0 19.45288,-7.05455 19.45288,-15.76085 l 0,-252.206073 c 0,-8.71443 -8.69659,-15.7689904 -19.45288,-15.7689904 l -181.117821,0 c -10.755455,0 -19.4846907,7.0545604 -19.4846907,15.7689904 l 0,252.206073 c 0,8.7063 8.7292357,15.76085 19.4846907,15.76085 l 181.117821,0 z" />
    <g
       id="tekst_ZONE">
      <path
         id="letter_Z_zwart"
         style="fill:#2a2d2f;stroke:none"
         d="m 98.391618,43.510567 -14.87485,0 0,-3.40116 9.839848,-12.45734 -9.578724,0 0,-3.4337 14.548446,0 0,3.17332 -9.938607,12.71772 10.003887,0 0,3.40116 z" />
      <path
         id="letter_Z_contour"
         style="fill:none;stroke:#f7fbf5;stroke-width:0.10727888"
         d="m 98.391618,43.510567 -14.87485,0 0,-3.40116 9.839848,-12.45734 -9.578724,0 0,-3.4337 14.548446,0 0,3.17332 -9.938607,12.71772 10.003887,0 0,3.40116 z" />
      <path
         id="letter_O_zwart"
         style="fill:#2a2d2f;stroke:none"
         d="m 118.07298,33.689517 c 0.39169,13.44188 -16.77134,13.37679 -16.57549,0.0651 0.0653,-13.25473 16.80398,-12.55497 16.57549,-0.0651 z m -3.76034,-1.04963 c -0.68629,-7.21728 -10.23237,-6.8023 -8.99037,2.76649 0.58837,6.8023 10.20058,6.67211 8.99037,-2.76649 z" />
      <path
         id="letter_O_contour"
         style="fill:none;stroke:#f7fbf5;stroke-width:0.10727888"
         d="m 118.07298,33.689517 c 0.39169,13.44188 -16.77134,13.37679 -16.57549,0.0651 0.0653,-13.25473 16.80398,-12.55497 16.57549,-0.0651 z m -3.76034,-1.04963 c -0.68629,-7.21728 -10.23237,-6.8023 -8.99037,2.76649 0.58837,6.8023 10.20058,6.67211 8.99037,-2.76649 z" />
      <path
         id="letter_N_zwart"
         style="fill:#2a2d2f;stroke:none"
         d="m 138.30925,24.405517 0,19.17014 -3.66159,0 -8.46728,-12.17256 0,12.17256 -3.75951,0 0,-19.17014 3.39962,0 8.82717,12.45733 0,-12.45733 3.66159,0 z" />
      <path
         id="letter_N_contour"
         style="fill:none;stroke:#f7fbf5;stroke-width:0.10727888"
         d="m 138.30925,24.405517 0,19.17014 -3.66159,0 -8.46728,-12.17256 0,12.17256 -3.75951,0 0,-19.17014 3.39962,0 8.82717,12.45733 0,-12.45733 3.66159,0 z" />
      <path
         id="letter_E_zwart"
         style="fill:#2a2d2f;stroke:none"
         d="m 156.45401,24.307887 0,3.24654 -9.44816,0 0,4.35316 5.72128,0 0,3.11636 -5.72128,0 0,5.53298 9.41551,0 0,3.20587 -12.61931,0 0,-19.45491 12.65196,0 z" />
      <path
         id="letter_E_contour"
         style="fill:none;stroke:#f7fbf5;stroke-width:0.10727888"
         d="m 156.45401,24.307887 0,3.24654 -9.44816,0 0,4.35316 5.72128,0 0,3.11636 -5.72128,0 0,5.53298 9.41551,0 0,3.20587 -12.61931,0 0,-19.45491 12.65196,0 z" />
    </g>
    <path
       id="path37"
       style="fill:none;stroke:#2a2d2f;stroke-width:4.95718098;stroke-opacity:1"
       d="m 210.67168,292.01651 c 10.76786,0 19.47433,-7.06252 19.47433,-15.78681 l 0,-252.491076 c 0,-8.71614 -8.70647,-15.7786604 -19.47433,-15.7786604 l -181.377792,0 c -10.734344,0 -19.4743424,7.0625204 -19.4743424,15.7786604 l 0,252.491076 c 0,8.72429 8.7399984,15.78681 19.4743424,15.78681 l 181.377792,0 z" />
    <g
       transform="matrix(0.55,0,0,0.55,35.75,55)"
       id="g18">
      <circle
         id="witte cirkel met rode rand"
         cx="150"
         cy="150"
         r="130.5"
         style="fill:#f7fbf5;stroke:#c1121c;stroke-width:39" />
    </g>
  <g
     id="g3798"
     transform="matrix(0.61783823,0,0,0.63762809,28.000731,103.81922)">
    <path
       d="m 145.16337,81.316888 44.34733,0 0,20.651902 c 0,4.01928 2.90802,3.8559 2.90802,3.8559 l 13.39651,0 c 0,0 2.90802,0.16338 2.90802,-3.8559 l 0,-20.651902 1.27429,0 9.02631,-10.33413 0,-32.90581 -9.02631,-6.76415 -13.05342,-33.0610199 C 167.74955,-5.6367919 145,-5.9554019 145,-5.8001819 c 0,-0.15522 -22.71688,0.16339 -51.91145,4.05196 l -13.0861,33.0610199 -9.03447,6.76415 0,32.90581 9.03447,10.33413 1.30698,0 0,20.651902 c 0,4.01928 2.90802,3.8559 2.90802,3.8559 l 13.36383,0 c 0,0 2.90802,0.16338 2.90802,-3.8559 l 0,-20.651902 44.67407,0"
       id="auto"
       style="fill:#2a2d2f" />
    <path
       d="m 145,27.270074 c 0,-0.16338 38.22904,0.95581 56.92697,2.42628 l 0.1552,-0.0654 -9.98202,-25.2757104 C 162.8974,0.4993936 145,0.1726136 145,0.3360036 c 0,-0.16339 -17.8974,0.16339 -47.100145,4.01928 l -9.98203,25.2757104 0.15521,0.0654 C 106.77095,28.225884 145,27.106694 145,27.270074"
       id="voorruit"
       style="fill:#f7fbf5" />
    <path
       style="fill:#f7fbf5"
       id="koplamp_rechts"
       d="m 178.9673,59.603056 24.85063,0 c 2.68214,0 2.8048,-2.74487 2.8048,-2.74487 l 0,-12.82575 c 0,0 -0.12266,-2.74487 -2.8048,-2.74487 l -20.57393,0 c -2.68214,0 -3.60616,1.84625 -3.95779,2.64684 -0.58059,1.30708 -3.23001,12.92378 -3.23001,12.92378 0,2.54881 2.9111,2.74487 2.9111,2.74487" />
    <path
       style="fill:#f7fbf5"
       id="koplamp_links"
       d="m 112.34275,59.603056 -24.82437,0 c -2.64664,0 -2.80183,-2.74487 -2.80183,-2.74487 l 0,-12.82575 c 0,0 0.15519,-2.74487 2.80183,-2.74487 l 20.58486,0 c 2.64663,0 3.56968,1.84625 3.92093,2.64684 0.57998,1.30708 3.25928,12.92378 3.25928,12.92378 0,2.54881 -2.9407,2.74487 -2.9407,2.74487" />
  </g>
  </g>
</svg>
