<?xml version="1.0" standalone="no"?>
<svg id="Nederlands_verkeersbord_C4-L" width="300" height="200" viewBox="0 0 300 200" xmlns="http://www.w3.org/2000/svg" version="1.1">
<g>
<rect id="blauw vlak"
width="300" height="200" fill="#0e518d" />

<path id="witte_bies" style="fill:none;stroke:#f7fbf5;stroke-width:6.76430559"
	d="M 276.30572,192.10324 C 285.02726,192.10324 292.09611,185.04066 292.09611,176.32687 L 292.09611,23.65008 C 292.09611,14.93628 285.02726,7.87951 276.30572,7.87951 L 23.671083,7.87951 C 14.949549,7.87951 7.8806944,14.93628 7.8806944,23.65008 L 7.8806944,176.32687 C 7.8806944,185.04066 14.949549,192.10324 23.671083,192.10324 L 276.30572,192.10324" />

<path id="witte_pijl" fill="#f7fbf5"
     d="M 261.09331,114.05832 L 115.86609,114.05832 L 123.52397,146.97219 C 126.68905,154.92458 122.56943,161.19899 114.8613,156.71727 L 42.63884,106.46449 C 36.19387,101.92538 36.19387,98.08902 42.63884,93.55708 L 114.8613,43.33299 C 122.56943,38.85126 126.68905,45.09699 123.52397,53.07806 L 115.86609,85.99192 L 261.09331,85.99192 L 261.09331,114.05832" />
</g>
</svg>