<?xml version="1.0" encoding="UTF-8" standalone="no"?>
<svg id="Nederlands_verkeersbord_D5-L" width="300" height="300" viewBox="0 0 300 300" xmlns="http://www.w3.org/2000/svg" version="1.1">
<g>
  <circle
     id="blauwe_cirkel"
     cx="150"
     cy="150"
     r="150"
     transform="matrix(-1,0,0,1,300,0)"
     style="fill:#0e518d" />
  <circle
     id="doorzichtige_cirkel_met_witte_rand"
     cx="150"
     cy="150"
     r="141.942"
     transform="matrix(-1,0,0,1,300,0)"
     style="fill:none;stroke:#f7fbf5;stroke-width:6.73600006" />
  <path
     id="witte_pijl"
     d="m 149.52128,116.98343 -32.4086,0 7.34842,31.52593 c 2.98135,7.60852 -0.949,13.61306 -8.33101,9.31336 L 47.07182,109.76123 c -6.16428,-4.35856 -6.16428,-8.03686 0,-12.361823 l 69.05827,-48.095091 c 7.38201,-4.291283 11.31236,1.704846 8.33101,9.321786 l -8.03708,30.37539 32.90409,0 c 55.70519,0.0336 55.47003,55.863168 55.47003,55.863168 l 0,110.09711 -27.84838,0 0,-110.09711 c 0,-27.39412 -27.42848,-27.88123 -27.42848,-27.88123"
     style="fill:#f7fbf5" />
	 </g>
</svg>
