<?xml version="1.0" encoding="UTF-8" standalone="no"?>
<svg id="Nederlands_verkeersbord_D6-L" width="300" height="300" viewBox="0 0 300 300" xmlns="http://www.w3.org/2000/svg" version="1.1">
<g>
  <circle
     id="blauwe_cirkel"
     cx="150"
     cy="150"
     r="150"
     transform="matrix(-1,0,0,1,300,0)"
     style="fill:#0e518d" />
  <circle
     id="doorzichtige_cirkel_met_witte_rand"
     cx="150"
     cy="150"
     r="141.942"
     transform="matrix(-1,0,0,1,300,0)"
     style="fill:none;stroke:#f7fbf5;stroke-width:6.73600006" />
  <path
     id="witte_pijlen"
     d="m 172.81784,205.26493 0,56.29353 21.4238,0 0,-166.563092 25.16095,5.869482 c 6.09708,2.39317 10.89245,-0.75572 7.44078,-6.625192 L 188.46368,39.130046 c -3.44327,-4.95422 -6.39943,-4.95422 -9.87628,0 l -38.34611,55.109612 c -3.44326,5.869472 1.34372,9.018362 7.44919,6.625192 l 25.12736,-5.869482 0,77.999852 -0.0336,0.22673 c 0,0 -4.76179,-8.95126 -21.25582,-8.95126 l -57.44359,0 5.83674,-25.15746 c 2.39349,-6.07103 -0.75583,-10.85729 -6.62616,-7.41449 l -55.1089,38.34075 c -4.92134,3.47629 -4.92134,6.39844 0,9.87484 l 55.1089,38.37432 c 5.87033,3.44282 9.01965,-1.37712 6.62616,-7.43974 l -5.83674,-25.1658 57.44359,0 c 18.10651,0 21.25582,20.04362 21.25582,20.04362 l 0.0336,-0.4618"
     style="fill:#f7fbf5" />
</g>
</svg>
