<?xml version="1.0" encoding="utf-8"?>
<!-- Generator: Adobe Illustrator 20.1.0, SVG Export Plug-In . SVG Version: 6.00 Build 0)  -->
<svg version="1.1" xmlns="http://www.w3.org/2000/svg" xmlns:xlink="http://www.w3.org/1999/xlink" x="0px" y="0px"
	 width="240" height="370.6" viewBox="0 0 240 370.6" style="enable-background:new 0 0 240 370.6;" xml:space="preserve"
	 id="Nederlands_verkeersbord_E8g">
<style type="text/css">
	.st0{fill:#0374B9;}
	.st1{fill:#FDFDFD;}
</style>
<g>
	<path class="st0" d="M0.3,0.3c80,0,160,0,240,0c0,123.5,0,247,0,370.6c-80,0-160,0-240,0C0.3,247.4,0.3,123.8,0.3,0.3z
		 M234.7,185.6c0-52.1,0-104.1,0-156.2c0-0.8,0-1.7-0.1-2.5c-1.5-12.2-11.4-21.1-23.7-21.1c-60.5,0-120.9,0-181.4,0
		C16.4,5.9,5.9,16.5,5.9,29.7c0,30.8,0,61.6,0,92.4c0,73.1,0,146.3,0,219.4c0,13.3,10.5,23.8,23.8,23.8c60.4,0,120.7,0,181.1,0
		c13.7,0,24-10.3,24-23.9C234.8,289.4,234.8,237.5,234.7,185.6z"/>
	<path class="st1" d="M234.8,185.6c0,51.9,0,103.8,0,155.7c0,13.6-10.3,23.9-24,23.9c-60.4,0-120.7,0-181.1,0
		c-13.3,0-23.8-10.5-23.8-23.8c0-73.1,0-146.3,0-219.4c0-30.8,0-61.6,0-92.4c0-13.2,10.5-23.8,23.7-23.8c60.5,0,120.9,0,181.4,0
		c12.4,0,22.2,8.8,23.7,21.1c0.1,0.8,0.1,1.6,0.1,2.5C234.8,81.5,234.7,133.6,234.8,185.6z M14.2,185.6c0,36.9,0,73.9,0,110.8
		c0,14.9,0,29.8,0,44.8c0,8.8,6.6,15.8,14.9,15.8c60.8,0,121.7,0,182.5,0c1.4,0,2.9-0.2,4.3-0.7c6.7-2.3,10.6-8,10.6-15.1
		c0-103.7,0-207.4,0-311.1c0-9.1-6.6-15.9-15.8-15.9c-60.2,0-120.4,0-180.6,0c-1.2,0-2.3,0-3.5,0.3c-7.5,1.5-12.4,7.7-12.4,15.7
		C14.2,82,14.2,133.8,14.2,185.6z"/>
	<path class="st0" d="M14.2,185.6c0-51.8,0-103.6,0-155.4c0-8,4.9-14.2,12.4-15.7c1.1-0.2,2.3-0.3,3.5-0.3c60.2,0,120.4,0,180.6,0
		c9.1,0,15.8,6.7,15.8,15.9c0,103.7,0,207.4,0,311.1c0,7.1-4,12.8-10.6,15.1c-1.4,0.5-2.9,0.7-4.3,0.7c-60.8,0-121.7,0-182.5,0
		c-8.3,0-14.9-7-14.9-15.8c0-14.9,0-29.8,0-44.8C14.2,259.5,14.2,222.5,14.2,185.6z M64,41.4c0,56.5,0,112.7,0,169
		c9.8,0,19.5,0,29.4,0c0-22.3,0-44.5,0-66.9c0.7,0,1.3,0,1.9,0c11.6,0,23.2,0,34.8,0c2.4,0,4.8-0.1,7.1-0.3
		c18.4-1.9,31.7-11.1,39.1-28.1c5.5-12.4,6.1-25.4,2.8-38.5c-2.3-9.4-7-17.4-14.4-23.8c-9.2-7.8-20.1-11.3-32-11.4
		c-21.9-0.1-43.8,0-65.7,0C66.1,41.4,65.1,41.4,64,41.4z M96.1,244.4c-4.1-0.9-8-0.8-11.7,0.7c-8.4,3.3-13.3,12.1-11.6,20.8
		c2,9.8,9.9,15.2,18.8,15.5c0.9,0,1.9-0.3,2.8-0.5c7.1-1.4,12-5.5,14.4-12.3c2.9-8.3-0.1-16.8-7.4-21.8c-0.4-0.3-0.9-0.9-0.8-1.3
		c0.3-1.1,0.7-2.2,1.3-3.7c0.3,0.5,0.4,0.7,0.6,0.9c6.1,6.9,12.3,13.8,18.3,20.7c0.9,1,1.7,1.4,3,1.3c2.4-0.1,4.7,0,7,0
		c0.1,0.3,0.1,0.4,0.1,0.5c1.2,7.6,6.6,13.5,14.4,15.4c7,1.8,14.8-1.2,19.3-7.3c4.3-5.9,4.7-14.2,0.8-20.6
		c-4.2-6.9-12.2-10.3-20.2-8.5c-1,0.2-1.4,0-1.7-0.9c-0.8-1.8-1.5-3.7-2.6-5.4c-1.6-2.6-1.8-5.1,0.1-7.6c0.3-0.4,0.9-0.8,1.4-0.9
		c1.2-0.1,2.5,0,3.7,0c0-1.4,0-2.5,0-3.6c-0.3,0-0.5-0.1-0.8-0.1c-4.9,0-9.8,0-14.7,0c-1.5,0-2.4,0.7-2.4,1.8c0,1.2,0.8,1.9,2.4,1.9
		c1.8,0,3.6,0,5.5,0c-1,3-1,3-3.8,3c-8.5,0-16.9,0-25.4,0c-0.5,0-1,0-1.7,0c0.5-1.4,1-2.7,1.4-3.9c0.8-2.2,1.4-2.6,3.7-2.6
		c1.7,0,3.4,0,5,0c0-1.7,0-3.1,0-4.7c-2.2,0-4.3,0-6.5,0c-3.8,0-5,0.9-6.3,4.5C100.5,231.9,98.3,238,96.1,244.4z M102.1,306.1
		c0.4,0.5,0.6,0.8,0.8,1.2c3.9,6.3,7.7,12.6,11.6,18.8c1.5,2.5,3.6,3.9,6.7,3.8c3.7-0.1,7.4,0,11.1-0.1c0.9,0,1.3,0.1,1.6,1.2
		c2.2,9.4,12.1,15.3,21.3,12.7c9.7-2.7,15.2-12.7,12.2-22.1c-2.5-7.8-9.5-12.4-18.1-12c-7.1,0.3-13.8,6.1-15.4,13.3
		c-0.2,0.8-0.5,1.2-1.4,1.2c-2.4-0.1-4.8,0-7.1,0c-4.9,0-4.9,0-7.6-4c-0.3-0.5-0.4-1.3-0.2-1.8c1-3.2,2.2-6.4,3.2-9.6
		c0.1-0.5,0.1-1.1-0.2-1.5c-1-1.7-2.2-3.2-3-5c-1.1-2.2-2.6-3-5-2.8c-2.4,0.2-4.8,0-7.4,0c0.8-2,1.7-3.4,2.1-5
		c0.5-1.8,1.5-2.2,3.2-2c1.9,0.1,3.7,0,5.6,0c0-2.2,0-4,0-6.1c-2.3,0-4.5,0-6.7,0c-3.5,0-5.6,1.4-6.9,4.7
		c-2.3,5.4-4.5,10.7-6.7,16.1c-1.2,2.9-1.2,2.9-4.3,2.5c-0.1,0-0.2-0.1-0.2-0.2c0.1-0.9,0.1-1.9,0.2-2.9c-2.8-0.1-5.5-0.4-8.2,0.9
		c0.3,1.2,0.6,2.2,1,3.3c-0.3,0.1-0.5,0.2-0.7,0.3c-7.7,3.7-11.4,10.7-10.1,19.1c1.1,7.5,8.1,13.8,15.7,14.2
		c8.5,0.5,16-4.7,18.1-12.4c2-7.5-0.3-14.3-6.5-19.1c-0.3-0.3-0.7-1-0.5-1.3C100.5,309.6,101.3,307.9,102.1,306.1z M163.1,299.1
		c-0.6,0-0.9-0.1-1.3-0.1c-8.8,0-17.6,0-26.4,0c-0.4,0-0.9,0-1.3,0c-2.4,0.2-3.2,1.6-2,3.8c1.1,2,2.3,4.1,3.3,6.1
		c1.2,2.5,3.5,2.9,5.3,0.9c1.4-1.6,3.2-2.5,5.3-2.8c2.7-0.3,5.4-0.4,8.1-0.6c3-0.2,6.1-0.3,9-0.5
		C163.1,303.6,163.1,301.4,163.1,299.1z"/>
	<path class="st1" d="M64,41.4c1.1,0,2.1,0,3,0c21.9,0,43.8-0.1,65.7,0c11.9,0.1,22.8,3.5,32,11.4c7.4,6.3,12.1,14.4,14.4,23.8
		c3.3,13.1,2.7,26.1-2.8,38.5c-7.5,17-20.7,26.3-39.1,28.1c-2.4,0.2-4.8,0.3-7.1,0.3c-11.6,0-23.2,0-34.8,0c-0.6,0-1.1,0-1.9,0
		c0,22.4,0,44.6,0,66.9c-9.9,0-19.6,0-29.4,0C64,154.2,64,97.9,64,41.4z M93.1,115.7c0.4,0,0.6,0,0.9,0c10.2,0,20.4,0.1,30.6,0
		c4.5,0,9-0.6,13.3-2c5.9-1.9,10.9-5,13.8-10.8c2.3-4.6,2.6-9.5,2-14.5c-0.8-6.9-4.2-12.2-10.5-15.4c-5.5-2.8-11.4-3.8-17.5-3.9
		c-10.5-0.2-21.1-0.1-31.6-0.1c-0.3,0-0.6,0.1-1,0.1C93.1,84.7,93.1,100.1,93.1,115.7z"/>
	<path class="st1" d="M96.1,244.4c2.2-6.3,4.4-12.5,6.6-18.7c1.3-3.6,2.5-4.5,6.3-4.5c2.1,0,4.3,0,6.5,0c0,1.6,0,3,0,4.7
		c-1.7,0-3.3,0-5,0c-2.4,0-3,0.4-3.7,2.6c-0.4,1.2-0.9,2.4-1.4,3.9c0.7,0,1.2,0,1.7,0c8.5,0,16.9,0,25.4,0c2.8,0,2.8,0,3.8-3
		c-1.9,0-3.7,0-5.5,0c-1.6,0-2.4-0.7-2.4-1.9c0-1.1,0.9-1.8,2.4-1.8c4.9,0,9.8,0,14.7,0c0.2,0,0.5,0.1,0.8,0.1c0,1.2,0,2.3,0,3.6
		c-1.2,0-2.4-0.1-3.7,0c-0.5,0.1-1.1,0.5-1.4,0.9c-1.9,2.5-1.7,5-0.1,7.6c1.1,1.7,1.8,3.6,2.6,5.4c0.4,0.9,0.8,1.1,1.7,0.9
		c8-1.8,16,1.6,20.2,8.5c3.9,6.4,3.5,14.7-0.8,20.6c-4.5,6.1-12.3,9.1-19.3,7.3c-7.8-2-13.2-7.8-14.4-15.4c0-0.1,0-0.2-0.1-0.5
		c-2.3,0-4.7-0.1-7,0c-1.3,0-2.1-0.3-3-1.3c-6.1-6.9-12.2-13.8-18.3-20.7c-0.2-0.2-0.3-0.4-0.6-0.9c-0.5,1.5-1,2.6-1.3,3.7
		c-0.1,0.3,0.4,1,0.8,1.3c7.2,4.9,10.2,13.5,7.4,21.8c-2.4,6.8-7.3,10.9-14.4,12.3c-0.9,0.2-1.9,0.6-2.8,0.5
		c-8.9-0.4-16.8-5.7-18.8-15.5c-1.7-8.6,3.2-17.5,11.6-20.8C88.1,243.5,92,243.4,96.1,244.4z M98.7,250.8c-1.5,4.2-3,8.4-4.6,12.5
		c-0.2,0.6-0.6,1.5-1.1,1.6c-0.8,0.2-1.9,0.2-2.7-0.2c-0.9-0.4-1.1-1.4-0.7-2.4c1.6-4.5,3.2-9,4.7-13.4c-4.4-1.7-12.9,0.2-16.3,7.9
		c-3.1,7,0.1,15.3,7.2,18.5c7,3.2,15.4,0,18.6-6.9C106.9,261.9,104.4,253.4,98.7,250.8z M146.1,248.9c0.1,0.3,0.2,0.5,0.3,0.8
		c1.6,3.5,3.3,7,4.9,10.5c1.4,3,0.5,4.6-2.9,4.6c-2.7,0-5.4,0-8.2,0c-1.5,0-3.1,0-4.6,0c0.7,7,8.3,12.7,15.4,11.6
		c8.5-1.3,13.7-8.8,11.9-17.2C161.4,251.8,153.4,246.9,146.1,248.9z M122.6,258.6c3.4-7.3,6.7-14.3,10.1-21.4c-9.7,0-19.2,0-29.1,0
		C109.9,244.4,116.2,251.4,122.6,258.6z M130.8,260.1c0.9-6,4-10.5,9-13.8c-1.1-2.3-2.1-4.4-3.2-6.8c-3.3,7-6.4,13.7-9.7,20.6
		C128.4,260.1,129.5,260.1,130.8,260.1z M141.8,250.6c-3.5,2.3-5.5,5.4-6.3,9.4c3.6,0,7.1,0,10.7,0
		C144.8,256.8,143.4,253.8,141.8,250.6z"/>
	<path class="st1" d="M102.1,306.1c-0.8,1.9-1.6,3.5-2.2,5.2c-0.1,0.3,0.2,1.1,0.5,1.3c6.2,4.9,8.5,11.7,6.5,19.1
		c-2,7.7-9.6,12.9-18.1,12.4c-7.7-0.4-14.6-6.7-15.7-14.2c-1.2-8.4,2.4-15.3,10.1-19.1c0.2-0.1,0.4-0.2,0.7-0.3
		c-0.3-1.1-0.6-2.2-1-3.3c2.6-1.3,5.3-0.9,8.2-0.9c-0.1,1.1-0.1,2-0.2,2.9c0.1,0.1,0.2,0.1,0.2,0.2c3.1,0.3,3.1,0.3,4.3-2.5
		c2.2-5.4,4.5-10.7,6.7-16.1c1.4-3.3,3.4-4.7,6.9-4.7c2.2,0,4.4,0,6.7,0c0,2,0,3.9,0,6.1c-1.9,0-3.7,0.1-5.6,0
		c-1.7-0.1-2.7,0.3-3.2,2c-0.4,1.6-1.3,3-2.1,5c2.7,0,5.1,0.2,7.4,0c2.4-0.2,4,0.6,5,2.8c0.8,1.7,2,3.3,3,5c0.2,0.4,0.3,1.1,0.2,1.5
		c-1,3.2-2.2,6.4-3.2,9.6c-0.2,0.5-0.1,1.4,0.2,1.8c2.7,4,2.7,4,7.6,4c2.4,0,4.8-0.1,7.1,0c1,0,1.2-0.4,1.4-1.2
		c1.7-7.3,8.3-13,15.4-13.3c8.6-0.4,15.5,4.3,18.1,12c3.1,9.4-2.4,19.4-12.2,22.1c-9.2,2.6-19.2-3.3-21.3-12.7
		c-0.2-1-0.7-1.2-1.6-1.2c-3.7,0.1-7.4-0.1-11.1,0.1c-3.1,0.1-5.2-1.3-6.7-3.8c-3.9-6.3-7.7-12.6-11.6-18.8
		C102.7,306.9,102.5,306.6,102.1,306.1z M92,315.4c-6.2-0.7-11.6,3-12.9,8.6c-1.4,5.9,1.8,11.7,7.3,13.7c5.6,2,11.8-0.5,14.4-6
		c2.3-4.8,0.7-11.3-3.7-14.1c-1.2,2.9-2.3,5.8-3.7,8.5c-0.6,1.3-1.5,2.5-2.6,3.3c-0.6,0.4-2.1,0.3-2.7-0.2c-0.6-0.4-0.7-1.7-0.7-2.6
		c0-0.6,0.4-1.3,0.7-1.9C89.4,321.7,90.6,318.6,92,315.4z M139.7,329.7c0.9,5.3,6.7,9.2,12.5,8.6c5.8-0.7,10.6-6.3,10.1-11.9
		c-0.6-6.8-5.6-11.4-12.3-11.1c-5,0.2-10.3,4.6-10.3,8.7c0.5,0,1,0,1.4,0c3.4,0,6.8-0.1,10.2,0.1c0.9,0,2.1,0.7,2.4,1.4
		c0.3,0.8,0.2,2.2-0.4,2.9c-0.5,0.7-1.8,1.2-2.7,1.3C147.1,329.8,143.4,329.7,139.7,329.7z"/>
	<path class="st1" d="M163.1,299.1c0,2.3,0,4.5,0,6.9c-2.9,0.2-5.9,0.3-9,0.5c-2.7,0.2-5.4,0.3-8.1,0.6c-2.1,0.2-3.8,1.2-5.3,2.8
		c-1.9,2-4.1,1.6-5.3-0.9c-1-2.1-2.2-4.1-3.3-6.1c-1.2-2.2-0.4-3.6,2-3.8c0.4,0,0.9,0,1.3,0c8.8,0,17.6,0,26.4,0
		C162.1,299,162.5,299.1,163.1,299.1z"/>
	<path class="st0" d="M93.1,115.7c0-15.6,0-31,0-46.5c0.4,0,0.7-0.1,1-0.1c10.5,0,21.1-0.1,31.6,0.1c6,0.1,12,1.1,17.5,3.9
		c6.3,3.2,9.7,8.5,10.5,15.4c0.6,5,0.3,9.9-2,14.5c-2.9,5.8-7.9,8.9-13.8,10.8c-4.3,1.4-8.8,2-13.3,2c-10.2,0.1-20.4,0-30.6,0
		C93.7,115.8,93.4,115.7,93.1,115.7z"/>
	<path class="st0" d="M98.7,250.8c5.7,2.6,8.1,11.2,5.2,17.6c-3.2,7-11.6,10.1-18.6,6.9c-7.1-3.2-10.3-11.5-7.2-18.5
		c3.4-7.8,11.9-9.6,16.3-7.9c-1.6,4.5-3.1,9-4.7,13.4c-0.4,1-0.2,2,0.7,2.4c0.8,0.3,1.8,0.4,2.7,0.2c0.5-0.1,0.8-1,1.1-1.6
		C95.7,259.1,97.2,255,98.7,250.8z"/>
	<path class="st0" d="M146.1,248.9c7.4-2,15.4,2.9,17,10.3c1.8,8.3-3.4,15.8-11.9,17.2c-7.1,1.1-14.8-4.6-15.4-11.6
		c1.5,0,3.1,0,4.6,0c2.7,0,5.4,0,8.2,0c3.3,0,4.3-1.5,2.9-4.6c-1.6-3.5-3.3-7-4.9-10.5C146.3,249.4,146.2,249.2,146.1,248.9z"/>
	<path class="st0" d="M122.6,258.6c-6.4-7.2-12.6-14.2-19-21.4c9.8,0,19.4,0,29.1,0C129.3,244.3,126,251.3,122.6,258.6z"/>
	<path class="st0" d="M130.8,260.1c-1.3,0-2.4,0-3.9,0c3.2-6.9,6.4-13.6,9.7-20.6c1.1,2.4,2.1,4.5,3.2,6.8
		C134.8,249.6,131.7,254.1,130.8,260.1z"/>
	<path class="st0" d="M141.8,250.6c1.5,3.2,2.9,6.2,4.4,9.4c-3.6,0-7.1,0-10.7,0C136.3,256,138.4,253,141.8,250.6z"/>
	<path class="st0" d="M92,315.4c-1.3,3.2-2.6,6.3-3.9,9.4c-0.3,0.6-0.7,1.3-0.7,1.9c0,0.9,0.1,2.1,0.7,2.6c0.7,0.5,2.2,0.6,2.7,0.2
		c1.1-0.8,2-2.1,2.6-3.3c1.4-2.8,2.5-5.7,3.7-8.5c4.3,2.8,6,9.3,3.7,14.1c-2.7,5.5-8.8,8.1-14.4,6c-5.6-2-8.7-7.8-7.3-13.7
		C80.3,318.3,85.8,314.6,92,315.4z"/>
	<path class="st0" d="M139.7,329.7c3.7,0,7.4,0.1,11.1-0.1c0.9,0,2.2-0.6,2.7-1.3c0.5-0.7,0.7-2.1,0.4-2.9c-0.3-0.7-1.5-1.4-2.4-1.4
		c-3.4-0.2-6.8-0.1-10.2-0.1c-0.5,0-1,0-1.4,0c0-4.1,5.3-8.5,10.3-8.7c6.7-0.3,11.7,4.3,12.3,11.1c0.5,5.7-4.3,11.3-10.1,11.9
		C146.4,338.9,140.6,335,139.7,329.7z"/>
</g>
</svg>
