<?xml version="1.0" standalone="no"?>
<svg id="Nederlands_verkeersbord_F14" width="300" height="300" viewBox="0 0 300 300" xmlns="http://www.w3.org/2000/svg" version="1.1">
<g>
<circle id="blauwe cirkel" cx="150" cy="150" r="150" fill="#0e518d" />

<path id="symbool_bus_wit" fill="#ffffff"
     d="m 95.53125,109.46875 c -15.900955,0.004 -26.931475,0.008 -28.03125,0.0312 -1.323525,0.0254 -1.552048,3.07442 -1.84375,3.6875 0.611263,1.32468 1.6875,3.9375 1.6875,3.9375 l -9.03125,22.8125 c 0,0 2.65913,5.4329 3.875,7.0625 1.62117,2.17 1.37909,15.41462 0.90625,21.15625 -0.14354,1.62116 -2.125,2.625 -2.125,2.625 l 0,4.4375 24.625,0.0312 c 0.543625,-7.88245 7.07322,-14.125 15.09375,-14.125 8.02052,0 14.58138,6.24255 15.125,14.125 l 59.78125,0.0312 c 0.52863,-7.89701 7.06278,-14.15625 15.09375,-14.15625 8.01009,0 14.56644,6.22586 15.125,14.09375 4.09392,-0.2067 27.68888,-1.46697 31.71875,-3.625 4.39066,-2.34731 0,-5.0625 0,-5.0625 l 0,-24.71875 -3.75,-25 c 0,0 2.72807,-1.85716 2.8125,-4.5 0.076,-2.24599 -1.6875,-2.8125 -1.6875,-2.8125 0,0 -91.67213,-0.0443 -139.375,-0.0312 z m -29.875,3.71875 c -0.326261,-0.70705 -0.561189,-1.16142 -0.34375,-0.40625 0.156207,0.5425 0.246516,0.61061 0.34375,0.40625 z m 29,3.625 24.59375,0 0,25 -24.59375,0 0,-25 z m 30.21875,0 26.3125,0 0,25 -26.3125,0 0,-25 z m 31.53125,0 27.75,0 0,25 -27.75,0 0,-25 z m 32.65625,0 22.375,0 0,25 -22.375,0 0,-25 z m 28.21875,0 9.875,0 3.75,25 -13.625,0 0,-25 z M 72.625,119.5 l 15.5,0 0,25.84375 -23.8125,0 -0.6875,-5.40625 9,-20.4375 z m 28.0625,43.46875 c -7.363613,0 -13.3125,5.98014 -13.3125,13.34375 0,7.36361 5.948887,13.3125 13.3125,13.3125 7.36361,0 13.34375,-5.94889 13.34375,-13.3125 0,-7.36361 -5.98014,-13.34375 -13.34375,-13.34375 z m 90,0 c -7.36361,0 -13.3125,5.98014 -13.3125,13.34375 0,7.36361 5.94889,13.3125 13.3125,13.3125 7.36361,0 13.34375,-5.94889 13.34375,-13.3125 0,-7.36361 -5.98014,-13.34375 -13.34375,-13.34375" />

  <path
     id="rode_streep"
     d="M 236.20126,37.451253 37.437771,236.18776 c 10.361454,12.85673 15.970744,18.04062 26.172932,26.58965 L 262.37423,64.040877"
     style="fill:#c1121c;stroke:#ffffff;stroke-opacity:1;stroke-width:6;stroke-miterlimit:4;stroke-dasharray:none" />
	 <circle id="witte bies" cx="150" cy="150" r="141.942"
	fill="none" stroke="#f7fbf5" stroke-width="6.736" />
</g>
</svg>