<?xml version="1.0" encoding="UTF-8" standalone="no"?>
<svg id="Nederlands_verkeersbord_F15" width="300" height="300" viewBox="0 0 300 300" xmlns="http://www.w3.org/2000/svg" version="1.1">
<g>
  <circle
     id="blauwe cirkel"
     cx="150"
     cy="150"
     r="150"
     fill="#0e518d" />
  <path
     id="tram_wit"
     d="m 116.13913,92.136653 -37.214575,25.479397 30.699205,21.02943 -55.840631,0 1.032694,6.53414 -5.858196,22.40009 0,28.59626 17.743576,0 1.539654,-6.89089 59.952633,0 1.53966,6.89089 48.93096,0 1.53965,-6.89089 59.95263,0 1.53966,6.89089 17.74357,0 0,-28.59626 -5.85819,-22.40009 1.05147,-6.53414 -131.97841,0 30.68043,-21.02943 -37.19579,-25.479397 z m 0,5.858196 28.61503,19.602431 0,0.0563 -28.61503,19.6212 -28.615044,-19.6212 0,-0.0563 28.615044,-19.602431 z m -57.718263,47.184771 15.847173,0 0,22.40009 -21.686593,0 5.83942,-22.40009 z m 19.996728,0 26.868845,0 0,22.40009 -26.868845,0 0,-22.40009 z m 30.999625,0 26.86884,0 0,22.40009 -26.86884,0 0,-22.40009 z m 30.99962,0 27.56357,0 0,22.40009 -27.56357,0 0,-22.40009 z m 31.69435,0 26.86884,0 0,22.40009 -26.86884,0 0,-22.40009 z m 31.0184,0 26.86884,0 0,22.40009 -26.86884,0 0,-22.40009 z m 30.99962,0 15.84717,0 5.83942,22.40009 -21.68659,0 0,-22.40009 z m -160.405682,48.57421 0,2.34704 c 0,5.12691 4.148564,9.27548 9.275477,9.27548 4.117838,0 7.611918,-2.68239 8.824847,-6.40271 l 12.955628,0 c 1.21293,3.72032 4.70701,6.40271 8.82485,6.40271 5.12691,0 9.27548,-4.14857 9.27548,-9.27548 l -0.0376,-2.34704 -49.118722,0 z m 111.831472,0 -0.0376,2.34704 c 0,5.12691 4.14857,9.27548 9.27548,9.27548 4.11784,0 7.61192,-2.68239 8.82485,-6.40271 l 12.95563,0 c 1.21293,3.72032 4.70701,6.40271 8.82484,6.40271 5.12692,0 9.27548,-4.14857 9.27548,-9.27548 l 0,-2.34704 -49.11872,0 z"
     style="fill:#f7fbf5" />
  <circle
     id="witte bies"
     cx="150"
     cy="150"
     r="141.942"
     fill="none"
     stroke="#f7fbf5"
     stroke-width="6.736" />
</g>
</svg>
