<?xml version="1.0" standalone="no"?>
<svg xmlns="http://www.w3.org/2000/svg" id="Nederlands_verkeersbord_J2_F" width="350" height="300" viewBox="0 0 350 300" version="1.1">
	<rect id="yellow" width="350" height="300" fill="#f0ca00"/>
	<rect id="border" x="1" y="1" rx="10" ry="10" width="348" height="298" stroke="gray" stroke-width="2px" fill="none"/>
	<g id="sign" transform="translate(30, 30) scale(0.8)">
		<path id="rode_driehoek" fill="#c1121c" d="M 11,300 C 11,300 28,300 11,300 C -4,300 4,284 4,284 L 165,8 C 165,8 161,14 165,8 C 171,-3 179,-2 185,8 L 346,284 C 346,284 354,300 339,300 C 322,300 339,300 339,300 L 11,300"/>
		<path id="witte_driehoek" fill="#f7fbf5" d="M 175,74 L 283,260 L 66,260 L 175,74"/>
		<path id="zwart_symbool" fill="#2a2d2f" d="M 188,163 L 203,136 C 203,136 172,136 172,136 C 172,136 120,160 120,210 L 120,256 L 136,241 L 151,256 L 151,210 C 151,179 188,163 188,163"/>
	</g>
</svg>
