<?xml version="1.0" standalone="no"?>
<svg id="Nederlands_verkeersbord_L14" width="300" height="300" viewBox="0 0 300 300" xmlns="http://www.w3.org/2000/svg" version="1.1">
<g>
<rect id="blauw_vlak" width="300" height="300" fill="#0e518d" />

<path id="witte_bies" style="fill:none;stroke:#f7fbf5;stroke-width:6.75"
     d="M 276.33521,292.12448 C 285.0442,292.12448 292.12448,285.03576 292.12448,276.33521 L 292.12448,23.664791 C 292.12448,14.922045 285.0442,7.8755274 276.33521,7.8755274 L 23.66479,7.8755274 C 14.930481,7.8755274 7.8755248,14.922045 7.8755248,23.664791 L 7.8755248,276.33521 C 7.8755248,285.03576 14.930481,292.12448 23.66479,292.12448 L 276.33521,292.12448" />

<path id="wit_symbool" fill="#f7fbf5"
     d="M 93.53125 25.84375 L 93.53125 69.75 L 115.75 69.75 L 115.75 25.84375 L 93.53125 25.84375 z M 138.625 25.84375 L 138.625 76.15625 L 218.125 106.65625 L 218.21875 144.21875 L 218.125 181.8125 L 138.625 212.28125 L 138.625 262.625 L 160.8125 262.625 L 160.8125 231.65625 L 243.9375 197.75 L 243.90625 144.21875 L 243.9375 90.6875 L 160.8125 56.75 L 160.8125 25.84375 L 138.625 25.84375 z M 93.53125 90.09375 L 93.53125 133.96875 L 115.75 133.96875 L 115.75 90.09375 L 93.53125 90.09375 z M 93.53125 154.3125 L 93.53125 198.21875 L 115.75 198.21875 L 115.75 154.3125 L 93.53125 154.3125 z M 93.53125 218.5625 L 93.53125 262.46875 L 115.75 262.46875 L 115.75 218.5625 L 93.53125 218.5625" />
</g>
</svg>