<?xml version="1.0" encoding="UTF-8" standalone="no"?>
<svg id="Nederlands_verkeersbord_L1030" width="100" height="100" viewBox="0 0 100 100" xmlns="http://www.w3.org/2000/svg" version="1.1">
<g>
  <circle
     id="witte cirkel met rode rand"
     cx="50"
     cy="50"
     r="43.5"
     stroke-width="13"
     stroke="#c1121c"
     fill="#f7fbf5" />
  <g
     id="g3807"
     transform="matrix(-0.14087275,0,0,0.17737118,80.380406,26.87694)">
	<g
		 id="g3811">
		<path
		   id="path3813"
		   d="m 83.089,155.907 c -0.274,5.527 -1.093,7.653 -2.458,9.922 -5.189,10.635 -7.92,15.03 -20.208,22.826 -6.962,4.68 -26.896,5.669 -34.815,2.126 -6.827,-1.561 -18.295,-7.796 -23.347,-14.174 -1.366,-1.56 -3.277,0.28 -1.093,2.834 4.369,6.521 11.333,12.053 14.746,13.471 19.387,9.922 39.048,6.944 58.436,-3.691 0.683,-0.847 1.911,-1.555 3.003,-2.692 0.136,-2.406 16.99329,-13.34995 18.35929,-14.90995 C 95.98529,169.35005 84.181,158.176 83.089,155.907 z"
		   style="fill-rule:evenodd" />
		<path
		   id="path3815"
		   d="m 75.579,213.041 c 1.911,10.063 2.185,23.111 3.14,30.483 0.684,5.247 0.955,8.505 6.417,8.361 2.185,-0.137 3.96,-0.28 5.597,-0.423 1.775,0 5.462,0.143 6.691,-0.851 1.365,0.565 2.048,0.565 2.729,-0.144 0.957,0.429 1.775,0.57 2.595,0.285 0.137,-2.834 -0.546,-2.554 -1.092,-4.823 -3.414,-5.669 -8.738,-2.549 -11.196,-4.674 -2.457,-5.813 -3.003,-16.872 -2.867,-28.215 0,-3.258 -0.18399,-9.73789 0.90801,-12.85789 -3.413,2.699 -9.09901,9.60089 -12.92201,12.85889 z"
		   style="fill-rule:evenodd" />
		<path
		   id="path3817"
		   d="m 140.16,120.76104 c -5.599,4.252 -6.964,24.37296 -8.466,30.89396 -1.092,5.384 -4.78,14.602 -9.286,17.58 1.503,-5.532 1.913,-10.07 2.323,-16.728 3.55,-8.51 6.81806,-21.54598 8.45506,-26.64898 2.049,-1.843 3.83294,-3.39698 6.97394,-5.09698 z"
		   style="fill-rule:evenodd" />
		<path
		   id="path3819"
		   d="m 288.56702,156.48804 c 0,15.596 -7.78102,33.58996 -5.59602,50.73996 1.777,15.597 -1.091,38.423 8.058,49.762 2.592,0 4.505,0.57 6.278,1.56 3.006,0.571 4.644,2.411 5.054,4.822 -2.186,-0.427 -2.458,1.132 -4.37,1.703 -2.868,1.132 -4.095,-0.284 -6.689,-0.142 -3.141,-1.418 -5.83196,-5.01201 -6.65196,-9.40701 -1.09,-1.846 -2.13999,-5.246 -2.68499,-7.377 -2.868,-8.505 -3.09301,-21.21599 -2.82101,-30.85699 -0.41,-12.333 1.86401,-31.615 3.50401,-43.097 0.682,-4.109 1.59499,-8.60099 2.41199,-12.85299 l 0.092,-2.927 c 0.817,-0.142 2.45998,-1.35697 3.41498,-1.92697 z"
		   style="fill-rule:evenodd" />
		<path
		   id="path3821"
		   d="m 328.85,16.542 c -9.285,8.081 -38.232,29.347 -51.477,45.366 -4.505,3.972 -6.553,3.972 -13.104,2.411 -11.47,-2.834 -28.809,-1.983 -41.645,1.418 -22.391,2.836 -46.693,1.277 -70.996,2.836 -46.285,1.132 -59.12,21.409 -67.857,34.167 -16.521,22.966 1.775,46.782 1.775,69.613 -1.775,2.121 -8.97594,11.89096 -8.97594,14.72596 -9.693,7.795 -20.10606,19.43904 -27.47906,28.65304 -4.095,7.515 2.048,17.156 3.003,49.057 0.547,2.978 1.093,5.532 3.55,5.812 4.506,0.709 12.426,0.28 16.249,-2.269 1.773,-0.286 1.912,0.428 3.96,0.144 0.136,-1.275 0,-3.121 -1.094,-3.974 -0.819,-3.257 -2.457,-4.536 -5.325,-4.96 -4.641,-1.274 -4.778,0.566 -6.689,-1.84 -2.594,-10.778 -3.685,-29.775 2.869,-36.863 9.42,-6.949 18.431,-14.464 26.213,-22.259 7.919,-3.972 17.749,-12.904 23.346,-19.14 7.92,-6.60285 10.02691,-15.596 10.84691,-26.654 3.958,-10.207 5.12809,-16.729 7.85909,-26.511 12.697,-13.044 20.89,-6.949 45.602,-2.977 14.745,4.535 27.989,20.274 37.41,24.099 14.064,5.674 27.852,8.932 42.733,6.383 0,1.417 -1.638,4.96 -2.185,5.812 0,4.109 1.64,6.949 2.731,10.492 5.188,14.316 3.415,34.874 6.28,50.613 1.23,7.087 -2.865,17.014 -0.547,23.392 2.867,7.938 8.602,15.738 11.469,23.534 -1.365,6.239 4.507,1.841 7.92,8.504 2.729,1.279 7.782,1.846 12.697,-0.137 3.549,-0.709 4.232,-2.698 6.145,-1.984 0.272,-3.548 -4.505,-5.674 -7.918,-6.525 -5.188,-3.544 -8.057,-1.982 -10.924,-11.197 0,-1.421 -1.638,-3.686 -1.638,-4.965 -8.054,-24.243 -2.595,-65.643 1.912,-89.886 v -2.835 c 10.103,-2.692 23.617,-35.3 31.675,-56.568 3.413,-10.631 11.332,-19.14 16.52,-29.913 1.912,-1.277 2.869,-2.269 2.869,-5.669 6.006,-5.246 10.375,-20.985 12.968,-19.283 5.6,2.695 14.747,-0.568 17.888,0.566 1.64,2.269 3.276,3.261 8.874,2.269 3.823,-0.708 12.152,1.417 15.292,0.992 3.141,-0.283 8.465,-2.552 11.605,-6.095 2.867,-0.992 4.917,-1.134 5.324,-6.095 -2.185,-1.561 -3.822,-2.552 -9.147,-3.972 -6.554,-3.26 -17.75,-5.952 -22.39,-13.893 -2.869,-8.647 -13.109,-8.647 -17.067,-13.611 -2.049,-2.269 -2.185,-4.82 -2.597,-6.806 -4.367,-0.991 -8.327,0 -10.649,4.255 -2.865,-1.278 -5.185,-4.255 -8.6,-2.126 -1.365,1.984 -3.003,3.403 -7.101,4.535 -1.365,2.98 -1.773,5.389 -2.18,9.358 z"
		   style="fill-rule:evenodd" />
	</g>
  </g>
  </g>
</svg>
