<?xml version="1.0" standalone="no"?>
<svg id="Nederlands_verkeersbord_L1" width="300" height="300" viewBox="0 0 300 300" xmlns="http://www.w3.org/2000/svg" version="1.1">
<g>
<rect id="blauw_vlak" width="300" height="300" fill="#0e518d" />

<path id="witte_bies" style="fill:none;stroke:#f7fbf5;stroke-width:6.75"
     d="M 276.33521,292.12448 C 285.0442,292.12448 292.12448,285.03576 292.12448,276.33521 L 292.12448,23.664791 C 292.12448,14.922045 285.0442,7.8755274 276.33521,7.8755274 L 23.66479,7.8755274 C 14.930481,7.8755274 7.8755248,14.922045 7.8755248,23.664791 L 7.8755248,276.33521 C 7.8755248,285.03576 14.930481,292.12448 23.66479,292.12448 L 276.33521,292.12448 z " />

<g id="witte_tekst">

<path id="cijfer_4" fill="#f7fbf5"
       d="M 117.93278,170.17016 L 97.13402,170.17016 L 97.13402,199.11124 L 79.70187,199.11124 L 79.70187,170.17016 L 23.70131,169.67234 L 23.70131,152.67051 L 73.60146,81.743777 L 97.13402,81.743777 L 97.13402,152.73801 L 117.93278,152.73801 L 117.93278,170.17016 z M 79.70187,152.73801 C 79.70187,121.02939 79.86219,106.26354 79.86219,102.20503 L 43.57193,152.73801 L 79.70187,152.73801" />

<path id="komma" fill="#f7fbf5"
       d="M 131.11236,196.20869 C 127.45887,207.1523 119.38405,208.1395 119.38405,208.1395 L 118.03403,204.61257 C 119.47687,203.1613 122.01659,201.71003 122.51441,198.81592 C 122.51441,198.81592 118.0931,200.98439 115.13149,196.63901 C 112.16144,192.28519 113.02208,186.64885 116.21994,183.61974 C 119.4178,180.54845 126.49698,181.14752 129.96484,185.03727 C 133.78709,189.32358 131.11236,196.20869 131.11236,196.20869" />
	   
<path id="cijfer_2" fill="#f7fbf5"
       d="M 145.11883,124.126 C 160.55126,110.84517 170.70173,110.27985 182.59879,110.27985 C 201.51596,110.27985 213.44677,120.33751 213.44677,135.22993 C 213.44677,150.68767 198.3856,154.2146 181.21502,164.2385 C 167.66418,172.14456 163.35255,178.05091 162.98973,187.01167 L 215.52243,187.01167 L 215.19336,199.04374 L 143.37224,199.04374 C 144.06413,188.4967 144.03881,173.03895 165.42821,158.79623 C 183.22318,147.03417 198.02278,143.37224 198.71467,134.41148 C 199.4403,125.47602 189.25608,121.94909 179.7975,121.94909 C 166.1876,121.94909 160.55126,126.82604 155.64056,133.32302 L 145.11883,124.126" />

<path id="letter_m" fill="#f7fbf5"
       d="M 237.4434,161.36971 L 236.87808,161.36971 C 239.15624,155.83462 243.63662,154.45085 247.49262,154.24835 C 252.63957,153.98678 257.91309,157.84278 258.36872,161.69878 C 257.84559,157.34496 266.35072,154.24835 270.79736,154.24835 C 275.44649,154.24835 283.58881,157.70778 283.58881,168.06075 L 283.58881,199.20405 L 274.78836,199.20405 L 274.78836,173.0727 C 274.32429,168.88764 275.64056,162.82098 267.43918,162.82098 C 265.26227,162.82098 262.25847,164.2385 261.80284,166.9723 C 261.13627,171.12361 261.04345,175.44368 261.04345,176.49838 L 261.04345,199.20405 L 252.69864,199.20405 L 252.69864,173.0727 C 252.69864,165.42821 249.34046,163.08255 245.41696,163.08255 C 241.89003,163.08255 239.29124,165.19196 237.90747,168.9467 C 237.04683,171.25861 237.56996,175.44368 237.56996,176.49838 L 237.56996,199.20405 L 229.69765,199.20405 L 229.69765,155.57306 L 237.4434,155.57306 L 237.4434,161.36971" />

</g>

<path id="witte_driehoek_boven" fill="#f7fbf5"
     d="M 94.62804,17.010266 L 150.00422,72.344255 L 205.30446,17.010266 L 94.62804,17.010266" />

<path id="witte_driehoek_beneden" fill="#f7fbf5"
     d="M 150.00422,228.97202 L 94.62804,284.306 L 205.30446,284.306 L 150.00422,228.97202" />
</g>
</svg>