<?xml version="1.0" standalone="no"?>
<svg id="Nederlands_verkeersbord_L5" width="320" height="300" viewBox="0 0 320 300" xmlns="http://www.w3.org/2000/svg" version="1.1">
<g>
<rect id="blauw_vlak" width="320" height="300" fill="#0e518d" />

<path id="witte_bies" style="fill:none;stroke:#f7fbf5;stroke-width:6.73558187"
     d="M 296.46102,292.0956 C 305.13762,292.0956 312.15343,285.02773 312.15343,276.29534 L 312.15343,23.670512 C 312.15343,14.972258 305.13762,7.9043961 296.46102,7.9043961 L 23.504706,7.9043961 C 14.828126,7.9043961 7.8123033,14.972258 7.8123033,23.670512 L 7.8123033,276.29534 C 7.8123033,285.02773 14.828126,292.0956 23.504706,292.0956 L 296.46102,292.0956" />

<path id="witte_pijl_links" fill="#f7fbf5"
     d="M 92.680082,158.31841 L 75.428607,147.51176 C 70.700554,145.44603 69.802387,140.98165 74.971058,139.60733 L 126.96275,130.24329 C 131.63149,129.40676 133.25834,131.0713 132.46186,135.77465 L 123.12435,188.16048 C 121.76864,193.35895 117.37104,192.46267 115.31204,187.69098 L 104.59342,170.32012 L 77.979042,197.13187 L 78.046819,197.19162 L 78.046819,265.25822 L 61.202069,265.25822 L 61.202069,189.96159 L 92.680082,158.31841" />

<path id="witte_pijl_midden" fill="#f7fbf5"
     d="M 173.14179,265.25822 L 173.14179,101.52798 L 192.90132,106.16305 C 197.69718,108.0666 201.46777,105.56552 198.75631,100.93044 L 168.57472,57.251382 C 165.8548,53.350401 163.54162,53.350401 160.8302,57.251382 L 130.64012,100.93044 C 127.92869,105.56552 131.69927,108.0666 136.49511,106.16305 L 156.26312,101.52798 L 156.26312,265.25822 L 173.14179,265.25822" />

<path id="witte_pijl_rechts" fill="#f7fbf5"
     d="M 262.2038,265.25822 L 262.2038,101.52798 L 281.99726,106.16305 C 286.80156,108.0666 290.53825,105.56552 287.86072,100.93044 L 257.67064,57.251382 C 254.95919,53.350401 252.64601,53.350401 249.89221,57.251382 L 219.74449,100.93044 C 217.0246,105.56552 220.80366,108.0666 225.5995,106.16305 L 245.35903,101.52798 L 245.35903,265.25822 L 262.2038,265.25822" />
</g>
</svg>