<?xml version="1.0" standalone="no"?>
<svg id="Nederlands_verkeersbord_L10" width="300" height="300" viewBox="0 0 300 300" xmlns="http://www.w3.org/2000/svg" version="1.1">
<g>
<rect id="blauw_vlak" width="300" height="300" fill="#0e518d" />

<path id="witte_bies" style="fill:none;stroke:#f7fbf5;stroke-width:6.3"
     d="M 277.96065,292.10439 C 286.05778,292.10439 292.66717,285.02466 292.66717,276.29733 L 292.66717,23.67796 C 292.66717,14.9751 286.05778,7.90353 277.96065,7.90353 L 22.03947,7.90353 C 13.90982,7.90353 7.33295,14.9751 7.33295,23.67796 L 7.33295,276.29733 C 7.33295,285.02466 13.90982,292.10439 22.03947,292.10439 L 277.96065,292.10439" />

<path id="witte_pijl_links" fill="#f7fbf5"
     d="M 87.58066,258.96503 L 87.58066,153.63355 L 102.66928,153.63355 L 102.66928,138.50346 L 87.58066,138.50346 L 87.58066,77.33063 L 106.12437,81.66167 C 110.60381,83.4479 114.13208,81.11519 111.62002,76.75152 L 83.32885,35.96963 C 80.75175,32.34003 78.5974,32.34003 76.02031,35.96963 L 47.76166,76.75152 C 45.21708,81.11519 48.74536,83.4479 53.22478,81.66167 L 71.76851,77.33063 L 71.76851,258.96503 L 87.58066,258.96503" />

<path id="witte_pijl_rechts" fill="#f7fbf5"
     d="M 193.81071,138.18536 L 214.22424,138.18536 L 209.9074,119.57251 C 208.127,115.0865 210.44396,111.51401 214.80145,114.06695 L 255.44967,142.48378 C 259.06736,145.02857 259.06736,147.19816 255.44967,149.77558 L 214.80145,178.16793 C 210.44396,180.68826 208.127,177.14839 209.9074,172.65422 L 214.22424,154.04952 L 193.81071,154.04952 L 193.81071,138.18536" />

<path id="rode_rand" fill="#c1121c"
     d="M 149.09767,188.20028 C 171.95823,188.20028 190.50194,169.64921 190.50194,146.77958 C 190.50194,123.90182 171.95823,105.38328 149.09767,105.38328 C 126.22898,105.38328 107.68526,123.90182 107.68526,146.77958 C 107.68526,169.64921 126.22898,188.20028 149.09767,188.20028" />

<path id="witte_cirkel" fill="#f7fbf5"
     d="M 149.06516,177.36861 C 165.99107,177.36861 179.70577,163.68638 179.70577,146.76043 C 179.70577,129.83447 165.99107,116.11161 149.06516,116.11161 C 132.17175,116.11161 118.44892,129.83447 118.44892,146.76043 C 118.44892,163.68638 132.17175,177.36861 149.06516,177.36861" />

<path id="zwarte_vrachtauto" fill="#2a2d2f"
     d="M 173.83618,135.34695 L 136.17153,135.34695 L 136.07397,147.86699 C 136.07397,147.86699 135.69188,148.08721 135.62684,147.64677 C 135.40735,145.9584 134.96022,141.33373 134.61064,138.43821 L 127.18015,138.43821 L 123.847,146.14599 L 124.61119,151.94518 L 123.66001,151.94518 L 123.66001,153.79668 L 128.4565,153.79668 C 128.51341,149.04966 136.07397,149.13938 136.17153,153.6988 L 152.30075,153.60092 C 152.86983,149.30251 158.2679,150.00396 160.74745,150.00396 C 163.19446,150.00396 167.79586,149.23726 168.17795,153.66617 L 173.83618,153.66617 L 173.83618,135.34695 z M 156.31202,157.64649 C 158.26142,157.64649 159.85192,156.05599 159.85192,154.11477 C 159.85192,152.1654 158.26142,150.60753 156.31202,150.60753 C 154.40342,150.60753 152.81292,152.1654 152.81292,154.11477 C 152.81292,156.05599 154.40342,157.64649 156.31202,157.64649 z M 132.33374,157.71174 C 134.27273,157.71174 135.83695,156.12124 135.83695,154.18002 C 135.83695,152.23065 134.27273,150.67278 132.33374,150.67278 C 130.39476,150.67278 128.79795,152.23065 128.79795,154.18002 C 128.79795,156.12124 130.39476,157.71174 132.33374,157.71174 z M 164.35226,157.64649 C 166.29349,157.64649 167.884,156.05599 167.884,154.11477 C 167.884,152.1654 166.29349,150.60753 164.35226,150.60753 C 162.40288,150.60753 160.845,152.1654 160.845,154.11477 C 160.845,156.05599 162.40288,157.64649 164.35226,157.64649" />
  
<path id="wit_ruit_vrachtauto" fill="#f7fbf5"
     d="M 133.15544,140.41206 L 133.40746,145.54242 L 126.22898,145.54242 L 128.39147,140.15921 L 133.0904,140.15921" />
</g>
</svg>