<?xml version="1.0" standalone="no"?>
<svg id="Nederlands_verkeersbord_L4" width="440" height="300" viewBox="0 0 440 300" xmlns="http://www.w3.org/2000/svg" version="1.1">
<g>
<rect id="blauw_vlak" width="440" height="300" fill="#0e518d" />

<path id="witte_bies" style="fill:none;stroke:#f7fbf5;stroke-width:6.76"   
     d="M 405.22672,288.14845 C 418.04281,288.14845 428.40107,277.56431 428.40107,264.50052 L 428.40107,35.499651 C 428.40107,22.435852 418.04281,11.82003 405.22672,11.82003 L 34.708066,11.82003 C 21.926883,11.82003 11.569354,22.435852 11.569354,35.499651 L 11.569354,264.50052 C 11.569354,277.56431 21.926883,288.14845 34.708066,288.14845 L 405.22672,288.14845" />

<path id="witte_pijl_links" fill="#f7fbf5"
     d="M 133.89502,263.26466 L 133.95551,148.66915 L 82.802072,94.663088 L 97.551792,85.291057 C 101.5796,83.492708 102.36654,79.626647 97.944883,78.446226 L 53.455356,70.310055 C 49.457018,69.597064 48.063754,71.023066 48.760782,75.110956 L 56.72566,120.5372 C 57.907257,125.08458 61.662138,124.28444 63.41902,120.13316 L 72.625969,105.09672 L 119.62986,153.15316 L 119.69034,263.29635 L 133.89502,263.26466" />

<path id="witte_pijl_midden" fill="#f7fbf5"
     d="M 227.29652,263.26466 L 227.29652,80.426797 L 244.22645,84.451296 C 248.3155,86.091218 251.52531,83.928427 249.22417,79.872236 L 223.38966,41.995904 C 221.0575,38.589323 219.08896,38.589323 216.75756,41.995904 L 190.9533,79.872236 C 188.62111,83.928427 191.86197,86.091218 195.95102,84.451296 L 212.88094,80.426797 L 212.88094,263.26466 L 227.29652,263.26466" />
  <path
     id="witte_pijl_rechts" fill="#f7fbf5"
     d="M 320.39874,195.52139 L 320.39874,263.26466 L 305.94673,263.26466 L 305.94673,80.426797 L 289.05248,84.451296 C 284.93087,86.091218 281.72102,83.928427 284.02219,79.872236 L 309.85434,41.995904 C 312.18808,38.589323 314.15739,38.589323 316.4911,41.995904 L 342.29383,79.872236 C 344.62755,83.928427 341.41771,86.091218 337.30075,84.451296 L 320.39874,80.426797 L 320.39874,174.53532 L 320.39874,174.53532 L 357.01721,137.12641 L 342.2318,127.74647 C 338.20787,125.95604 337.41705,122.08203 341.8674,120.90955 L 386.33212,112.76546 C 390.32503,112.06038 391.72061,113.47847 391.02282,117.56634 L 383.06027,163.02427 C 381.91279,167.54788 378.12145,166.73983 376.36923,162.62024 L 367.18944,147.5521 L 320.3057,195.45802 L 320.39874,195.52139" />
</g>
</svg>