<?xml version="1.0" standalone="no"?>
<svg id="Nederlands_verkeersbord_L17" width="300" height="300" viewBox="0 0 300 300" xmlns="http://www.w3.org/2000/svg" version="1.1">
<g>
<rect id="wit_vlak_met_blauwe_rand" style="fill:#f7fbf5;stroke:#0e518d;stroke-width:45"
     width="255" height="255" x="22.5" y="22.5" />

<path id="witte_bies" style="fill:none;stroke:#f7fbf5;stroke-width:6.75"
     d="M 276.33521,292.12448 C 285.0442,292.12448 292.12448,285.03576 292.12448,276.33521 L 292.12448,23.664791 C 292.12448,14.922045 285.0442,7.8755274 276.33521,7.8755274 L 23.66479,7.8755274 C 14.930481,7.8755274 7.8755248,14.922045 7.8755248,23.664791 L 7.8755248,276.33521 C 7.8755248,285.03576 14.930481,292.12448 23.66479,292.12448 L 276.33521,292.12448" />

<path id="rode_brandblusser" fill="#c1121c"
     d="M 141.96875 58.875 L 141.96875 64.875 L 129.09375 64.875 L 105.375 81.8125 L 105.375 101.53125 L 109.875 101.53125 L 112.65625 91.1875 L 132.46875 79.15625 L 139.25 79.40625 L 141.96875 79.40625 L 141.96875 90.78125 L 123.4375 90.78125 C 120.72228 90.78125 118.5 92.994577 118.5 95.71875 L 118.53125 240.15625 L 180.9375 240.28125 L 180.8125 95.71875 C 180.8125 92.994575 178.59022 90.781253 175.875 90.78125 L 156.53125 90.78125 L 156.53125 79.40625 L 161.5625 79.40625 C 168.68206 79.406247 174.46875 76.147483 174.46875 72.15625 C 174.46875 68.133337 168.68207 64.875 161.5625 64.875 L 156.53125 64.875 L 156.53125 58.875 L 141.96875 58.875" />
</g>
</svg>