<?xml version="1.0" standalone="no"?>
<svg id="Nederlands_verkeersbord_L6" width="480" height="300" viewBox="0 0 480 300" xmlns="http://www.w3.org/2000/svg" version="1.1">
<g>
<rect id="blauw_vlak" width="480" height="300" fill="#0e518d" />

<path id="witte_bies" style="fill:none;stroke:#f7fbf5;stroke-width:6.74"
     d="M 444.73659,292.11142 C 457.7089,292.11142 468.25407,285.04856 468.25407,276.31799 L 468.25407,23.681782 C 468.25407,14.951207 457.7089,7.8800284 444.73659,7.8800284 L 35.272098,7.8800284 C 22.266651,7.8800284 11.746325,14.951207 11.746325,23.681782 L 11.746325,276.31799 C 11.746325,285.04856 22.266651,292.11142 35.272098,292.11142 L 444.73659,292.11142" />

<path id="eerste_witte_pijl" fill="#f7fbf5"
     d="M 102.02235,257.4226 L 102.02235,93.676441 L 121.82873,98.337748 C 126.61673,100.22228 130.36926,97.745698 127.68532,93.092731 L 97.466306,49.406533 C 94.749236,45.504025 92.413235,45.504025 89.696173,49.406533 L 59.51028,93.092731 C 56.79321,97.745698 60.578883,100.22228 65.366861,98.337748 L 85.16497,93.676441 L 85.16497,257.4226 L 102.02235,257.4226" />

<path id="tweede_witte_pijl" fill="#f7fbf5"
     d="M 190.98126,257.33087 L 190.98126,93.609731 L 210.74624,98.237678 C 215.56735,100.15557 219.32816,97.653978 216.60282,92.992671 L 186.41693,49.314802 C 183.69987,45.437315 181.37214,45.437315 178.64681,49.314802 L 148.4609,92.992671 C 145.74385,97.653978 149.52952,100.15557 154.31751,98.237678 L 174.09075,93.609731 L 174.09075,257.33087 L 190.98126,257.33087" />

<path id="derde_witte_pijl" fill="#f7fbf5"
     d="M 282.03595,257.4226 L 282.03595,93.676441 L 301.84234,98.337748 C 306.63034,100.22228 310.41599,97.745698 307.69893,93.092731 L 277.47163,49.406533 C 274.75456,45.504025 272.45997,45.504025 269.70977,49.406533 L 239.51561,93.092731 C 236.79854,97.745698 240.58419,100.22228 245.37219,98.337748 L 265.17859,93.676441 L 265.17859,257.4226 L 282.03595,257.4226" />

<path id="vierde_witte_pijl" fill="#f7fbf5"
     d="M 387.42979,98.137618 L 370.14992,87.355745 C 365.41992,85.271087 364.51699,80.843261 369.69431,79.475711 L 421.7244,70.094718 C 426.42127,69.244188 428.0366,70.911907 427.22479,75.598244 L 417.90561,127.97333 C 416.54707,133.21835 412.14842,132.30942 410.07748,127.52303 L 399.33349,110.16197 L 372.70132,136.96239 L 372.80072,137.06246 L 372.80072,257.4226 L 355.9102,257.4226 L 355.9102,129.79949 L 387.42979,98.137618" />
</g>
</svg>