<?xml version="1.0" standalone="no"?>
<svg id="Nederlands_verkeersbord_L12" width="200" height="300" viewBox="0 0 200 300" xmlns="http://www.w3.org/2000/svg" version="1.1">
<g>
<rect id="blauw_vlak" width="200" height="300" fill="#0e518d" />

<path id="witte_bies" style="fill:none;stroke:#f7fbf5;stroke-width:6.81569338"
     d="M 177.3542,292.09148 C 184.60108,292.27918 191.00647,285.01547 191.00647,276.30716 L 191.00647,23.65198 C 191.00647,14.95185 186.02393,7.67996 174.99216,7.87584 L 21.029139,7.87584 C 10.384955,7.67996 8.314423,14.95185 8.314423,23.65198 L 8.314423,276.30716 C 8.314423,285.01547 11.808651,292.27918 21.029139,292.09148 L 177.3542,292.09148" />

<circle id="witte_cirkel_met_rode_rand" cx="100" cy="100" r="65.25"
fill="#f7fbf5" stroke="#c1121c" stroke-width="19.5" />

<path id="zwart_symbool" fill="#2a2d2f"
     d="M 59.840491,99.361141 L 48.191724,109.05215 C 47.077929,103.18294 47.077929,93.901413 48.191724,90.20004 L 59.840491,99.361141 z M 72.953393,83.487788 C 79.76406,76.02081 84.251822,75.707679 89.534773,75.707679 C 97.873952,75.707679 103.15693,81.352072 103.15693,89.758445 C 103.15693,98.445833 96.505135,100.42097 88.898441,106.07339 C 82.91477,110.52146 81.005774,113.84547 80.846069,118.89572 L 104.08005,118.89572 L 103.92118,125.64009 L 72.189122,125.64009 C 72.47595,119.71468 72.47595,111.02729 81.928079,103.0304 C 89.789805,96.374349 96.346256,94.34301 96.664024,89.292762 C 96.950822,84.274631 92.463062,82.26738 88.293885,82.26738 C 82.278429,82.26738 79.76406,85.021329 77.600042,88.690587 L 72.953393,83.487788 z M 114.67858,111.7499 L 114.48711,111.7499 C 115.28313,109.74265 116.93795,109.23683 118.33853,109.17259 C 120.1848,109.08427 122.12559,110.45723 122.28527,111.83822 C 122.09381,110.30468 125.18098,109.17259 126.80481,109.17259 C 128.49138,109.17259 131.45143,110.42512 131.45143,114.12649 L 131.45143,125.29484 L 128.23636,125.29484 L 128.23636,115.91695 C 128.07748,114.41554 128.55493,112.2477 125.59487,112.2477 C 124.76787,112.2477 123.68507,112.75353 123.52618,113.75715 C 123.30375,115.22647 123.27196,116.76803 123.27196,117.13737 L 123.27196,125.29484 L 120.21657,125.29484 L 120.21657,115.91695 C 120.21657,113.1871 119.00664,112.34405 117.57428,112.34405 C 116.30161,112.34405 115.3467,113.09877 114.83747,114.43962 C 114.51889,115.25858 114.74214,116.76803 114.74214,117.13737 L 114.74214,125.29484 L 111.84562,125.29484 L 111.84562,109.6463 L 114.67858,109.6463 L 114.67858,111.7499 z M 140.04482,99.361141 L 151.69278,109.05215 C 152.7756,103.18294 152.7756,93.901413 151.69278,90.20004 L 140.04482,99.361141" />

<path id="witte_pijl" fill="#f7fbf5"
     d="M 87.02689,205.02473 L 87.02689,224.66127 L 46.74844,220.10716 C 37.69028,218.22186 30.57263,220.67846 35.68435,225.29787 L 92.65625,268.46397 C 97.80028,272.32435 102.16744,272.32435 107.31147,268.46397 L 164.28337,225.29787 C 169.39509,220.67846 162.27827,218.22186 153.25158,220.10716 L 112.94083,224.66127 L 112.94083,205.02473 L 87.02689,205.02473" />
</g>
</svg>