<?xml version="1.0" standalone="no"?>
<svg id="Nederlands_verkeersbord_L11" width="300" height="300" viewBox="0 0 300 300" xmlns="http://www.w3.org/2000/svg" version="1.1">
<g>
<rect id="blauw_vlak" width="300" height="300" fill="#0e518d" />

<path id="witte_bies" style="fill:none;stroke:#f7fbf5;stroke-width:6.76"
     d="M 277.93052,292.09624 C 286.05929,292.09624 292.63546,285.02466 292.63546,276.32996 L 292.63546,23.66981 C 292.63546,14.9751 286.05929,7.90352 277.93052,7.90352 L 22.03707,7.90352 C 13.9327,7.90352 7.36465,14.9751 7.36465,23.66981 L 7.36465,276.32996 C 7.36465,285.02466 13.9327,292.09624 22.03707,292.09624 L 277.93052,292.09624" />

<path id="witte_pijl_midden" fill="#f7fbf5"
     d="M 157.90122,258.96503 L 157.90122,77.32247 L 176.45105,81.66167 C 180.92187,83.43975 184.44974,81.11519 181.91358,76.75152 L 153.64987,36.00225 C 151.08118,32.34004 148.91893,32.34004 146.35025,36.00225 L 118.08654,76.75152 C 115.54224,81.11519 119.07012,83.43975 123.54907,81.66167 L 142.09077,77.32247 L 142.09077,258.96503 L 157.90122,258.96503" />

<path id="witte_pijl_links_onder" fill="#f7fbf5"
     d="M 58.80346,259.0629 L 74.5814,259.0629 L 74.5814,221.5925 L 58.80346,221.5925 L 58.80346,259.0629" />

<path id="witte_pijl_links_boven" fill="#f7fbf5"
     d="M 58.80346,107.46844 L 58.80346,77.38772 L 40.26177,81.71876 C 35.7503,83.50501 32.22241,81.18044 34.76672,76.81677 L 63.05482,36.0675 C 65.59912,32.39714 67.76137,32.39714 70.33005,36.0675 L 98.61815,76.81677 C 101.16245,81.18044 97.60206,83.50501 93.13123,81.71876 L 74.5814,77.38772 L 74.5814,107.46844 L 58.80346,107.46844" />

<path id="witte_pijl_rechts" fill="#f7fbf5"
     d="M 243.19633,259.0629 L 243.19633,77.38772 L 261.73803,81.71876 C 266.21699,83.50501 269.73675,81.18044 267.23308,76.81677 L 238.90433,36.0675 C 236.36816,32.39714 234.20591,32.39714 231.63722,36.0675 L 203.341,76.81677 C 200.83735,81.18044 204.3571,83.50501 208.83604,81.71876 L 227.37775,77.38772 L 227.37775,259.0629 L 243.19633,259.0629" />

<path id="rode_rand" fill="#c1121c"
     d="M 67.21674,212.70205 C 93.73277,212.70205 115.22521,191.20327 115.22521,164.69761 C 115.22521,138.18382 93.73277,116.68505 67.21674,116.68505 C 40.70071,116.68505 19.20827,138.18382 19.20827,164.69761 C 19.20827,191.20327 40.70071,212.70205 67.21674,212.70205" />

<path id="witte_cirkel" fill="#f7fbf5"
     d="M 67.18423,200.14938 C 86.80706,200.14938 102.68253,184.24142 102.68253,164.61863 C 102.68253,145.02834 86.80706,129.12038 67.18423,129.12038 C 47.56139,129.12038 31.65339,145.02834 31.65339,164.61863 C 31.65339,184.24142 47.56139,200.14938 67.18423,200.14938" />

<path fill="#2a2d2f"
     d="M 41.46482,163.54355 L 34.00261,169.88106 C 33.30353,166.05572 33.30353,159.97106 34.00261,157.58124 L 41.46482,163.54355" />

<path fill="#2a2d2f"
     d="M 49.87809,153.21757 C 54.22697,148.34006 57.12081,148.15246 60.48612,148.15246 C 65.8186,148.15246 69.1839,151.81468 69.1839,157.29576 C 69.1839,162.96445 64.93255,164.245 60.07156,167.93984 C 56.25916,170.83535 55.02359,173.00495 54.92604,176.28381 L 69.79355,176.28381 L 69.69602,180.6801 L 49.3741,180.6801 C 49.59359,176.82213 49.56107,171.15345 55.62512,165.93337 C 60.67309,161.6268 64.83502,160.25653 65.03011,157.01029 C 65.24958,153.72327 62.35574,152.41825 59.6895,152.41825 C 55.85272,152.41825 54.22697,154.2045 52.86948,156.59431 L 49.87809,153.21757" />

<path fill="#2a2d2f"
     d="M 76.58107,171.63468 L 76.45914,171.63468 C 76.96312,170.32966 78.01174,170.01156 78.93841,169.97893 C 80.10896,169.91368 81.34453,170.80273 81.44207,171.69993 C 81.32014,170.68038 83.31981,169.97893 84.33591,169.97893 C 85.40891,169.97893 87.31918,170.7701 87.31918,173.19255 L 87.31918,180.45988 L 85.28698,180.45988 L 85.28698,174.3426 C 85.15691,173.3883 85.47393,171.95278 83.57181,171.95278 C 83.05969,171.95278 82.36062,172.3035 82.2712,172.9397 C 82.10863,173.894 82.07611,174.91354 82.07611,175.13376 L 82.07611,180.45988 L 80.14147,180.45988 L 80.14147,174.3426 C 80.14147,172.55635 79.34485,172.01803 78.45882,172.01803 C 77.62969,172.01803 76.99564,172.52372 76.67861,173.3883 C 76.49166,173.92662 76.61359,174.91354 76.61359,175.13376 L 76.61359,180.45988 L 74.77649,180.45988 L 74.77649,170.26441 L 76.58107,170.26441 L 76.58107,171.63468" />

<path fill="#2a2d2f"
     d="M 92.81421,163.54355 L 100.27642,169.88106 C 100.96737,166.05572 100.96737,159.97106 100.27642,157.58124 L 92.81421,163.54355" />
</g>
</svg>