<?xml version="1.0" standalone="no"?>
<svg id="Nederlands_verkeersbord_L16" width="300" height="300" viewBox="0 0 300 300" xmlns="http://www.w3.org/2000/svg" version="1.1">
<g>
<rect id="wit_vlak_met_blauwe_rand" style="fill:#f7fbf5;stroke:#0e518d;stroke-width:45"
     width="255" height="255" x="22.5" y="22.5" />

<path id="witte_bies" style="fill:none;stroke:#f7fbf5;stroke-width:6.75"
     d="M 276.33521,292.12448 C 285.0442,292.12448 292.12448,285.03576 292.12448,276.33521 L 292.12448,23.664791 C 292.12448,14.922045 285.0442,7.8755274 276.33521,7.8755274 L 23.66479,7.8755274 C 14.930481,7.8755274 7.8755248,14.922045 7.8755248,23.664791 L 7.8755248,276.33521 C 7.8755248,285.03576 14.930481,292.12448 23.66479,292.12448 L 276.33521,292.12448" />

<path id="zwarte_telefoonhoorn" fill="#2a2d2f"
     d="M 182.66243,117.45629 C 159.84837,93.271314 122.14483,70.717681 105.18839,70.717681 C 88.201951,70.717681 83.238521,76.839153 76.610631,83.49121 C 69.951181,90.174941 65.141651,100.93702 68.409831,104.21553 C 71.646431,107.47029 120.4488,135.1555 120.4488,135.1555 L 135.15438,117.55132 C 135.15438,117.55132 152.14161,131.47312 158.64638,137.99847 C 165.15116,144.52382 182.10681,163.83061 182.10681,163.83061 L 164.87336,178.30675 L 187.99521,221.98857 C 193.94516,231.38857 194.99403,231.60238 205.32101,227.39733 C 220.98235,220.99868 229.02926,206.45919 229.02926,197.66898 C 229.02926,188.88668 221.26016,172.30406 216.04971,162.65066 C 211.54877,154.20888 206.77002,143.04294 182.66243,117.45629" />

<path id="zwarte_tekst_S.O.S." fill="#2a2d2f"
     d="M 106.53125 194.59375 C 102.86295 194.59375 99.874459 196.51175 97.53125 200.28125 C 94.9726 204.2408 93.812503 209.38176 93.8125 215.84375 C 93.8125 222.33742 94.971653 227.50919 97.46875 231.46875 C 99.87351 235.17491 102.86295 237.06249 106.53125 237.0625 C 110.26191 237.0625 113.31398 235.24491 115.71875 231.5625 C 118.24662 227.6663 119.46875 222.40078 119.46875 215.84375 C 119.40721 209.3184 118.12164 204.14706 115.59375 200.1875 C 113.15821 196.50511 110.26191 194.59375 106.53125 194.59375 z M 67 194.71875 C 62.83844 194.71875 55.874998 197.1321 55.875 206.46875 C 55.875 215.22729 60.87499 217.05038 65.4375 218.53125 C 70.8634 220.26554 73.375003 220.41628 73.375 224.3125 C 73.375 227.53558 69.767689 229.40088 66.46875 229.21875 C 62.862 228.99701 59.70386 225.72851 58.625 223.84375 L 54.125 228.53125 C 57.36239 233.90833 61.945177 236.93749 67.0625 236.9375 C 72.21139 236.9375 79.124999 233.37581 79.125 224.03125 C 79.125 213.70473 71.979871 212.48325 68.25 211.40625 C 63.40971 210.04416 61.6875 209.69504 61.6875 206.8125 C 61.6875 203.59734 64.721637 202.41161 67.21875 202.59375 C 71.1033 202.87092 73.506747 206.286 74 207.09375 L 78.3125 201.9375 C 77.17208 200.17946 73.381649 194.71875 67 194.71875 z M 147 194.71875 C 142.86921 194.71875 135.875 197.1321 135.875 206.46875 C 135.875 215.22729 140.87548 217.05038 145.46875 218.53125 C 150.86388 220.26554 153.37501 220.41628 153.375 224.3125 C 153.375 227.53558 149.79894 229.40088 146.5 229.21875 C 142.89326 228.99701 139.70434 225.72851 138.65625 223.84375 L 134.125 228.53125 C 137.3624 233.90833 141.97646 236.93749 147.09375 236.9375 C 152.21186 236.9375 159.125 233.37581 159.125 224.03125 C 159.125 213.70473 151.97988 212.48325 148.25 211.40625 C 143.44049 210.04416 141.6875 209.69504 141.6875 206.8125 C 141.6875 203.59734 144.72165 202.41161 147.21875 202.59375 C 151.1033 202.87092 153.5072 206.286 154.03125 207.09375 L 158.34375 201.9375 C 157.20333 200.17946 153.38164 194.71875 147 194.71875 z M 106.53125 202.46875 C 108.7821 202.46875 110.20427 203.3965 111.40625 205.28125 C 112.88605 207.50653 113.6875 211.05269 113.6875 215.84375 C 113.6875 220.66648 112.88605 224.24435 111.40625 226.40625 C 110.20427 228.32268 108.7821 229.21875 106.53125 229.21875 C 104.37351 229.21875 102.92106 228.2606 101.6875 226.3125 C 100.23849 224.08723 99.437497 220.57938 99.4375 215.84375 C 99.4375 211.20315 100.23801 207.72611 101.65625 205.4375 C 102.92058 203.42603 104.37351 202.46875 106.53125 202.46875 z M 83 226.875 C 80.93462 226.875 79.281249 229.12664 79.28125 231.90625 C 79.28125 234.66211 80.934618 237 83 237 C 85.0662 237 86.6875 234.66212 86.6875 231.90625 C 86.6875 229.12663 85.066198 226.87501 83 226.875 z M 123.9375 226.875 C 121.90287 226.875 120.25 229.12664 120.25 231.90625 C 120.25 234.66211 121.90287 237 123.9375 237 C 126.00368 237 127.65625 234.66212 127.65625 231.90625 C 127.65625 229.12663 126.00368 226.87501 123.9375 226.875 z M 163 226.875 C 160.96537 226.875 159.28125 229.12664 159.28125 231.90625 C 159.28125 234.66211 160.96538 237 163 237 C 165.06539 237 166.71875 234.66212 166.71875 231.90625 C 166.71875 229.12663 165.0654 226.87501 163 226.875" />
</g>
</svg>