<?xml version="1.0" standalone="no"?>
<svg id="Nederlands_verkeersbord_L13" width="225" height="300" viewBox="0 0 225 300" xmlns="http://www.w3.org/2000/svg" version="1.1">
<g>
<rect id="blauw_vlak" width="225" height="300" fill="#0e518d" />

<path id="witte_bies" style="fill:none;stroke:#f7fbf5;stroke-width:6.8"
     d="M 203.37987,292.11455 C 210.59993,292.2662 216.99714,285.03478 216.99714,276.30279 L 216.99714,23.66577 C 216.99714,14.93377 212.01167,7.70235 201.01621,7.88593 L 21.86994,7.88593 C 11.25362,7.70235 9.20457,14.93377 9.20457,23.66577 L 9.20457,276.30279 C 9.20457,285.03478 12.67343,292.2662 21.86994,292.11455 L 203.37987,292.11455" />

<path id="wit_vlak" fill="#f7fbf5"
     d="M 32.08289,188.72749 L 192.88456,188.72749 L 192.88456,29.588193 L 32.08289,29.588193 L 32.08289,188.72749" />

<path id="tekst_17_km" fill="#f7fbf5"
     d="M 50.03125 218.21875 C 49.21645 221.42739 47.67107 224.26106 45.46875 226.6875 C 43.23416 229.08999 41.16997 230.74699 39.25 231.625 L 39.25 240.84375 C 42.87212 239.15961 46.009211 236.62099 48.6875 233.125 L 48.6875 271.5 L 56 271.5 L 56 218.21875 L 50.03125 218.21875 z M 112.4375 218.375 L 112.4375 271.5 L 119.75 271.5 L 119.75 259.1875 L 123.15625 254.21875 L 130.09375 271.5 L 137.9375 271.5 L 127.84375 247.09375 L 137.3125 233.03125 L 128.3125 233.03125 L 119.75 246.59375 L 119.75 218.375 L 112.4375 218.375 z M 66.84375 219.09375 L 66.84375 228.53125 L 83.40625 228.53125 C 80.00192 234.54947 77.2678 241.39276 75.21875 249.03125 C 73.17778 256.66975 72.097813 264.17281 71.96875 271.5 L 78.96875 271.5 C 78.96875 266.82272 79.495598 261.4856 80.625 255.53125 C 81.73019 249.57688 83.386408 243.95611 85.5 238.65625 C 87.64584 233.35641 89.700951 229.31024 91.75 226.46875 L 91.75 219.09375 L 66.84375 219.09375 z M 157.03125 232.15625 C 153.69146 232.15625 150.83343 234.19463 148.4375 238.28125 L 148.4375 233.03125 L 141.6875 233.03125 L 141.6875 271.5 L 149 271.5 L 149 252.84375 C 149 249.13225 149.18234 246.49529 149.59375 244.875 C 149.9729 243.28663 150.62068 242.05684 151.5 241.21875 C 152.41965 240.37269 153.43309 239.96875 154.5625 239.96875 C 155.48217 239.96875 156.24076 240.22321 156.78125 240.75 C 157.31367 241.28477 157.71868 242.09401 157.96875 243.1875 C 158.2511 244.281 158.37499 246.69408 158.375 250.4375 L 158.375 271.5 L 165.6875 271.5 L 165.6875 253.03125 C 165.6875 249.41554 165.86984 246.74597 166.28125 245.09375 C 166.65234 243.40961 167.33033 242.12002 168.25 241.25 C 169.12931 240.37202 170.11662 239.96875 171.125 239.96875 C 172.5448 239.96875 173.55724 240.68828 174.21875 242.125 C 174.71891 243.25043 175 245.72399 175 249.53125 L 175 271.5 L 182.3125 271.5 L 182.3125 246.90625 C 182.3125 243.22669 182.03948 240.58971 181.53125 238.9375 C 180.83748 236.71859 179.818 235.02438 178.40625 233.875 C 177.01871 232.71766 175.26678 232.15625 173.25 232.15625 C 171.64465 232.15625 170.16982 232.66585 168.75 233.6875 C 167.33018 234.68522 166.03768 236.25322 164.84375 238.3125 C 163.98863 236.25322 162.92378 234.68521 161.625 233.6875 C 160.33425 232.66586 158.79793 232.15625 157.03125 232.15625" />

<g id="zwart_symbool">

<path fill="#2a2d2f"
       d="M 147.41834,150.78245 L 147.66842,113.52383 C 147.66842,94.311863 131.91335,78.723588 112.47163,78.723588 C 93.0541,78.723588 77.29903,94.311863 77.29903,113.52383 L 77.29903,150.55896 L 147.41834,150.78245" />

<path style="fill:none;stroke:#2a2d2f;stroke-width:3.7553699"
       d="M 147.41834,150.78245 L 147.66842,113.52383 C 147.66842,94.311863 131.91335,78.723588 112.47163,78.723588 C 93.0541,78.723588 77.29903,94.311863 77.29903,113.52383 L 77.29903,150.55896 L 147.41834,150.78245 z M 139.85138,91.82157 L 158.66389,76.640361 M 131.12278,84.933357 L 144.42544,62.480812 M 144.89333,101.0165 L 172.05529,89.762289 M 172.34569,109.4372 L 147.41834,109.4372 M 172.34569,122.96619 L 147.41834,122.96619 M 172.34569,137.2774 L 147.41834,137.2774 M 121.28897,61.762457 L 121.28897,80.288002 M 84.61591,91.82157 L 66.23902,76.480727 M 93.34452,84.933357 L 80.04186,62.480812 M 79.54169,101.0165 L 52.40394,89.762289 M 52.1216,109.4372 L 77.08122,109.4372 M 52.1216,122.96619 L 77.08122,122.96619 M 52.1216,137.2774 L 77.08122,137.2774 M 103.17025,61.610805 L 103.17025,80.128367" />

<path style="fill:none;stroke:#2a2d2f;stroke-width:3.7553699"
       d="M 172.05529,151.37309 L 172.05529,89.762289 L 144.11083,60.517311 L 80.35647,60.517311 L 52.40394,89.762289 L 52.40394,151.37309 L 172.05529,151.37309" />

</g>
</g>
</svg>