<?xml version="1.0" standalone="no"?>
<svg id="Nederlands_verkeersbord_L19_(links)" width="275" height="100" viewBox="0 0 275 100" xmlns="http://www.w3.org/2000/svg" version="1.1">
<g>
<path id="groen_bord_met_zwarte_rand"
     d="M 273.54297,98.542971 L 1.457031,98.542971 L 1.457031,1.457031 L 273.54297,1.457031 L 273.54297,98.542971 z "
     style="fill:#008754;stroke:#2a2d2f;stroke-width:2.91406202" />

<rect id="witte_deur" fill="#f7fbf5"
     width="38.162" height="72.6" x="16.341" y="12.957" />

<path id="tekst_50m" fill="#f7fbf5"
     d="M 90.771021,24.511481 L 79.391271,24.511481 L 79.261771,30.551881 C 79.925461,30.462331 80.807671,30.266951 81.948881,30.266951 C 86.125241,30.266951 91.499451,32.147451 91.499451,39.522921 C 91.499451,44.830651 87.574011,49.128951 79.957831,49.128951 C 77.683501,49.128951 75.020681,48.778901 73.062001,48.331161 L 73.191501,43.243221 C 74.648371,43.813071 76.671791,44.675981 79.261771,44.675981 C 82.329281,44.675981 85.550581,43.275781 85.550581,39.677601 C 85.550581,36.022431 82.167411,34.752471 78.784251,34.752471 C 76.955071,34.752471 75.214931,35.004841 73.474771,35.517711 L 73.790431,20.310881 L 90.771021,20.310881 L 90.771021,24.511481 z M 109.71028,34.557101 C 109.71028,30.901931 109.71028,24.031181 105.28303,24.031181 C 100.98527,24.031181 100.98527,30.901931 100.98527,34.557101 C 100.98527,38.122731 100.92052,44.895781 105.28303,44.895781 C 109.74265,44.895781 109.71028,38.122731 109.71028,34.557101 z M 95.036401,34.557101 C 95.036401,27.433991 97.278351,19.806161 105.28303,19.806161 C 113.94328,19.806161 115.61868,27.979421 115.61868,34.557101 C 115.61868,41.110361 113.84615,49.128951 105.28303,49.128951 C 96.177611,49.128951 95.036401,40.475391 95.036401,34.557101 z M 131.70895,27.727061 L 137.02652,27.727061 L 137.02652,30.649571 L 137.08317,30.649571 C 138.88807,28.101531 141.45377,27.246761 143.56622,27.246761 C 146.63374,27.246761 148.78666,28.329471 150.0169,30.934491 C 151.31189,28.427161 154.16088,27.246761 156.84799,27.246761 C 162.2222,27.246761 163.73572,30.779821 163.73572,35.452581 L 163.73572,48.648651 L 158.04586,48.648651 L 158.04586,36.185241 C 158.04586,34.207051 158.04586,31.479921 154.79219,31.479921 C 151.02862,31.479921 150.55918,35.770071 150.55918,38.505341 L 150.55918,48.648651 L 144.8936,48.648651 L 144.8936,36.185241 C 144.8936,34.207051 144.8936,31.479921 141.63992,31.479921 C 137.84398,31.479921 137.40692,35.770071 137.40692,38.505341 L 137.40692,48.648651 L 131.70895,48.648651 L 131.70895,27.727061" />

<path id="witte_pijl" fill="#f7fbf5"
     d="M 111.53125 52.09375 L 76.59375 69.9375 L 111.53125 87.8125 L 111.53125 78.375 L 163.1875 78.375 L 163.1875 61.4375 L 111.53125 61.4375 L 111.53125 52.09375" />

<path id="wit_vluchtend_persoon" fill="#f7fbf5"
     d="M 213.1875 12.40625 C 207.49764 12.40625 202.875 17.027101 202.875 22.75 C 202.875 28.44035 207.49764 33.09375 213.1875 33.09375 L 211.21875 36.65625 L 213.0625 40.21875 L 197.40625 55.03125 L 203.375 61.40625 L 217.21875 48.25 L 220.375 54.28125 L 202.6875 71.0625 L 202.6875 94.5 L 211.375 94.5 C 211.37499 94.500001 211.375 77.95481 211.375 74.8125 C 213.36534 72.91745 222.06216 64.683824 224.53125 62.34375 L 231.03125 74.875 L 266.5625 74.875 L 266.5625 63.9375 C 251.8431 63.9375 250.89261 63.9375 246.84375 63.9375 L 232.9375 37.59375 C 235.26563 37.59375 237.0438 37.59375 238.28125 37.59375 C 240.0214 41.020979 245.09375 50.9375 245.09375 50.9375 L 252.84375 46.96875 L 243.59375 28.8125 L 221.46875 28.8125 C 222.70032 27.107267 223.46875 25.009747 223.46875 22.75 C 223.46875 17.0271 218.845 12.40625 213.1875 12.40625" />
</g>
</svg>