<?xml version="1.0" standalone="no"?>
<svg id="Nederlands_verkeersbord_L7" width="320" height="300" viewBox="0 0 320 300" xmlns="http://www.w3.org/2000/svg" version="1.1">
<g>
<rect id="blauw_vlak" width="320" height="300" fill="#0e518d" />

<path id="witte_bies" style="fill:none;stroke:#f7fbf5;stroke-width:6.73691463"
     d="M 296.4931,292.09179 C 305.15702,292.09179 312.15108,285.04512 312.15108,276.31599 L 312.15108,23.659609 C 312.15108,14.954887 305.15702,7.8757008 296.4931,7.8757008 L 23.507133,7.8757008 C 14.875477,7.8757008 7.8491474,14.954887 7.8491474,23.659609 L 7.8491474,276.31599 C 7.8491474,285.04512 14.875477,292.09179 23.507133,292.09179 L 296.4931,292.09179" />

<path id="eerste_witte_pijl" fill="#f7fbf5"
     d="M 79.564448,257.39481 L 79.564448,93.695654 L 99.352692,98.328415 C 104.14448,100.23028 107.89561,97.726965 105.21738,93.061693 L 75.030811,49.408038 C 72.288042,45.498637 69.98895,45.498637 67.278458,49.408038 L 37.091878,93.061693 C 34.381397,97.726965 38.156722,100.23028 42.948496,98.328415 L 62.704482,93.695654 L 62.704482,257.39481 L 79.564448,257.39481" />

<path id="tweede_witte_pijl" fill="#f7fbf5"
     d="M 168.4301,257.32979 L 168.4301,93.598114 L 188.21836,98.230885 C 193.01014,100.14088 196.76128,97.661945 194.08305,92.996673 L 163.88839,49.343007 C 161.14563,45.401097 158.84654,45.401097 156.13605,49.343007 L 125.94947,92.996673 C 123.23897,97.661945 127.02237,100.14088 131.81416,98.230885 L 151.60242,93.598114 L 151.60242,257.32979 L 168.4301,257.32979" />
  
<path id="derde_witte_pijl" fill="#f7fbf5"
     d="M 259.40123,257.39481 L 259.40123,93.695654 L 279.18947,98.328415 C 283.98124,100.23028 287.76465,97.726965 285.05416,93.061693 L 254.86757,49.408038 C 252.15708,45.498637 249.82573,45.498637 247.11524,49.408038 L 216.92867,93.061693 C 214.21817,97.726965 217.9935,100.23028 222.78529,98.328415 L 242.57354,93.695654 L 242.57354,257.39481 L 259.40123,257.39481" />
</g>
</svg>