<?xml version="1.0" encoding="utf-8"?>
<!-- Generator: Adobe Illustrator 20.1.0, SVG Export Plug-In . SVG Version: 6.00 Build 0)  -->
<svg version="1.1" id="Nederlands_verkeersbord_L1002" xmlns="http://www.w3.org/2000/svg" xmlns:xlink="http://www.w3.org/1999/xlink" x="0px" y="0px"
	 width="240" height="370.2" viewBox="0 0 240 370.2" style="enable-background:new 0 0 240 370.2;" xml:space="preserve">

<g>
	<path fill="#0474B9" d="M0,185C0,123.8,0,62.6,0,1.3C0,0.3,0.2,0,1.3,0c79.1,0,158.2,0,237.3,0c1.2,0,1.4,0.3,1.4,1.4
		c0,122.5,0,244.9,0,367.4c0,1.1-0.2,1.4-1.4,1.4c-79.1,0-158.1,0-237.2,0c-1.3,0-1.4-0.4-1.4-1.5C0,307.5,0,246.2,0,185z M5.8,185
		c0,51.8,0,103.7,0,155.5c0,13.6,10.2,23.9,23.8,23.9c60.2,0,120.5,0,180.7,0c2.3,0,4.6-0.3,6.8-0.9c10.4-3.2,16.9-12.1,16.9-23
		c0-103.7,0-207.4,0-311.1c0-13.1-10.4-23.5-23.6-23.5c-60.3,0-120.7,0-181,0c-2.1,0-4.2,0.2-6.3,0.8c-10.6,3-17.4,12-17.4,23.1
		C5.8,81.5,5.8,133.3,5.8,185z"/>
	<path fill="#FAFCFC" d="M5.8,185c0-51.8,0-103.6,0-155.3c0-11.1,6.7-20,17.4-23.1c2-0.6,4.1-0.8,6.3-0.8c60.3,0,120.7,0,181,0
		c13.2,0,23.6,10.4,23.6,23.5c0,103.7,0,207.4,0,311.1c0,11-6.5,19.9-16.9,23c-2.2,0.7-4.5,0.9-6.8,0.9c-60.2,0-120.5,0-180.7,0
		c-13.6,0-23.8-10.3-23.8-23.9C5.8,288.7,5.8,236.9,5.8,185z M226.2,185.3c0-51.7,0-103.5,0-155.2c0-9.7-6.7-16.4-16.4-16.4
		c-59.8,0-119.6,0-179.5,0c-1.4,0-2.8,0.1-4.2,0.4c-7.6,1.6-12.4,7.9-12.4,16.2c0,103.3,0,206.6,0,310c0,1.3,0.1,2.7,0.4,4
		c1.7,7.6,7.9,12.4,16.1,12.4c59.9,0,119.8,0,179.7,0c1.6,0,3.3-0.1,4.9-0.6c7-2,11.4-8,11.4-15.4
		C226.2,288.8,226.2,237,226.2,185.3z"/>
	<path fill="#0474B9" d="M226.2,185.3c0,51.8,0,103.6,0,155.3c0,7.4-4.4,13.3-11.4,15.4c-1.6,0.5-3.2,0.6-4.9,0.6
		c-59.9,0-119.8,0-179.7,0c-8.2,0-14.4-4.8-16.1-12.4c-0.3-1.3-0.4-2.7-0.4-4c0-103.3,0-206.6,0-310c0-8.2,4.9-14.5,12.4-16.2
		c1.4-0.3,2.8-0.4,4.2-0.4c59.8,0,119.6,0,179.5,0c9.7,0,16.4,6.7,16.4,16.4C226.2,81.8,226.2,133.5,226.2,185.3z M73.9,113.4
		c-6.3,1.2-11.8,3.7-16.6,7.6c-8.6,6.9-12.6,16.1-13.4,26.8c-0.5,7.3-0.7,14.6-0.9,21.9c0,1.6-0.7,2.9-1.2,4.3
		c-0.1,0.3-0.3,0.6-0.8,0.5c-1.2-0.2-1.3,0.5-1.3,1.4c0,1.2,0,2.3,0,3.5c0,0.3,0,0.8,0.1,0.8c1.2,0.4,0.6,1.2,0.4,1.8
		c-2.7,6.8-5.4,13.7-8.1,20.5c-0.3,0.7-0.7,1.2-1.4,1.6c-2.6,1.7-5,3.7-7.1,6.1c-4.3,4.8-6.9,10.1-6.8,16.8
		c0.1,9.6,1.1,19.1,2.3,28.6c0.2,1.2,0.1,2.3,1.1,3.4c3.8,4.2,7.5,8.5,11.2,12.8c0.2,0.2,0.5,0.7,0.7,0.7c1.3,0,1,0.9,1,1.6
		c0,8.2,0,16.4,0,24.5c0,0.9,0.1,1.7,0.2,2.6c0.5,2.6,2.4,4.1,5,4.1c5.9,0,11.8,0,17.8,0c2.2,0,3.6-1,4.5-3c0.6-1.4,0.6-2.9,0.6-4.4
		c0-7.9,0-15.8,0-23.7c0-1.3,0.4-1.7,1.7-1.7c4.3,0.1,8.7,0,13,0c0.9,0,1.2,0.2,1.1,1.1c-0.1,2.6,0,5.2,0,7.8c0,7,0,14.1,0,21.1
		c0,2.3,1.1,4.1,3.2,5c2.1,0.9,4,0.5,5.8-0.9c1.4-1.2,1.8-2.9,1.8-4.7c0-9,0-18,0-27c0-2.4,0-2.4,2.3-2.4c1.7,0,1.9,0.2,1.3,1.8
		c-0.5,1.5-1.1,3-1.3,4.6c-0.4,2.5,0.7,4.2,3.1,4.9c3.4,0.9,6.9,0.7,10.3,0.2c2.8-0.4,3-0.7,2.2-3.5c-0.7-2.3-1-4.6-0.7-7
		c0.1-0.8,0.4-1.1,1.3-1.1c23.4,0,46.8,0,70.2,0c1.2,0,1.3,0.4,1.3,1.4c0,5.6,0,11.2,0,16.7c0,2.7,0,5.5,0,8.2c0,4.4,2,6.3,6.3,6.3
		c5.3,0,10.7,0,16,0c3.6,0,5.4-1.7,5.7-5.3c0.1-1,0.1-1.9,0.1-2.9c0-7.7,0-15.4,0-23.1c0-0.5-0.4-1.2,0.4-1.3
		c0.9-0.1,1.2-0.8,1.6-1.3c3.5-4,6.9-8,10.5-11.9c0.9-1,1.3-2.1,1.4-3.3c0.6-7.1,1.3-14.3,1.5-21.4c0.2-4.9,0.4-9.9-0.5-14.7
		c-1.3-7.2-5.9-12.1-12.1-15.6c-1.2-0.6-1.8-1.4-2.2-2.6c-5.4-13.9-10.9-27.7-16.4-41.5c-0.3-0.8-0.7-1.1-1.5-1.2
		c-8.9-1.1-17.8-2.1-26.7-2.9c-13.3-1.2-26.7-2.1-40-2.4c-1.2,0-1.5-0.3-1.6-1.5c-0.5-10.2-3.7-19.6-9.7-27.9
		c-4-5.5-9.3-9.2-16.2-10.4c-1.5-0.3-3-0.4-4.7-0.5c7-4.6,9.1-12,7.1-18.7c-1.9-6.4-8.2-11.1-14.8-11.2c-7.3-0.1-13.6,4.3-15.8,11
		C64.5,100.5,66,108.5,73.9,113.4z M172.3,44.9C172.3,44.9,172.3,44.9,172.3,44.9c0-1.9,0-3.7,0-5.6c0-1.8-0.9-3.1-2.4-4
		c-2.6-1.6-7.5-1.3-10,0.6c-0.4,0.3-0.5,0.5-0.3,0.9c0.2,0.4,0.5,0.8,0.7,1.3c0.3,0.9,0.8,1,1.6,0.5c1.2-0.7,2.6-0.8,3.9-0.8
		c1.5,0,2.6,0.9,2.7,2.1c0.1,0.8-0.1,1.1-1,0.8c-1.7-0.7-3.5-0.6-5.2-0.1c-2.4,0.7-4.1,2.8-4.3,5.2c-0.2,2.1,1.3,4.2,3.5,5.3
		c1.9,0.9,3.9,0.9,5.9,0.3c0.3-0.1,0.9-0.4,0.9-0.3c0.8,1.1,1.9,0.4,2.8,0.6c1.1,0.2,1.4-0.4,1.3-1.4
		C172.2,48.4,172.3,46.6,172.3,44.9z M193.4,44.7c0-1.6,0-3.2,0-4.8c0-3-1.7-5-4.6-5.5c-2.3-0.4-4.5-0.2-6.6,0.8
		c-1.9,0.9-1.8,0.8-0.9,2.7c0.5,1,0.9,1,1.8,0.6c1.3-0.7,2.7-0.9,4.2-0.7c1.1,0.2,2.1,0.6,2.2,1.9c0.1,0.8,0,1.3-1.1,0.9
		c-1.3-0.6-2.7-0.6-4.1-0.4c-2.4,0.5-4.2,1.6-5.1,4c-0.7,1.9-0.2,3.7,1.1,5.2c1.7,2,5.1,2.8,8,1.9c0.3-0.1,0.8-0.5,1-0.3
		c0.9,1,2.1,0.3,3.1,0.5c0.8,0.1,1-0.3,1-1C193.4,48.6,193.4,46.6,193.4,44.7z M159.6,334.5c0-2.4,0-4.7,0-7.1
		c0-0.9-0.3-1.1-1.2-1.2c-1,0-2,0.5-2.9,0.3c-4.5-1.2-7.7,0.7-8.7,5.4c-1.2,6.1,3.2,11.4,8.7,9.2c0.8-0.3,0.6,0.3,0.6,0.7
		c-0.1,1.5-1.4,3.1-2.9,3.2c-1.4,0.2-1.4,0.7-0.8,1.7c0.1,0.3,0.3,0.5,0.3,0.8c0.3,1.2,1,1.3,2,0.8c2.9-1.2,4.7-3.8,4.8-6.9
		C159.7,339.2,159.6,336.8,159.6,334.5z M61.3,44.1C61.3,44.1,61.3,44.1,61.3,44.1c1.5,0,3,0,4.5,0c0.8,0,1.1-0.3,1.1-1.1
		c0-1.6-0.3-3.1-0.9-4.5c-1.3-2.7-3.4-4.2-6.3-4.3c-2.9-0.1-5.2,1.3-6.5,4c-1.5,3.1-1.5,6.2-0.1,9.3c1.9,4,6.4,5.4,10.4,3.3
		c2.4-1.3,2.4-1.6,0.2-3.3c-0.5-0.4-0.9-0.7-1.7-0.2c-2.3,1.7-4.9,0.6-5.6-2.3c-0.2-0.8,0-1,0.8-1C58.5,44.1,59.9,44.1,61.3,44.1z
		 M95.1,34.4c-0.5,0-1,0-1.4,0c-2.6,0.2-4.9,2.1-5.2,4.4c-0.3,2,1,3.8,3.7,4.9c1.4,0.5,2.8,1,4.2,1.5c0.7,0.3,1.5,0.6,1.4,1.6
		c-0.2,1-1,1.2-1.9,1.2c-1.5,0.1-3-0.2-4.3-0.8c-2.3-1-2.3-1-3.5,1.3c-0.5,0.9-0.2,1.3,0.6,1.6c2.7,1.3,5.5,1.8,8.4,1.5
		c2.1-0.2,3.9-1.3,4.7-3.4c1-2.5-0.1-4.6-3.2-5.8c-1.5-0.6-3.1-1.1-4.6-1.7c-0.7-0.3-1.4-0.7-1.3-1.5c0.1-0.9,0.9-1.2,1.7-1.3
		c1.4-0.1,2.7,0.2,3.9,0.7c2,0.9,2,0.9,3-1c0-0.1,0.1-0.2,0.1-0.2c0.5-0.7,0.2-1-0.4-1.4C99.1,34.9,97.2,34.3,95.1,34.4z M114,51.8
		c0.5,0,1.1,0,1.6-0.1c2.6-0.3,4.8-2.1,5.1-4.2c0.4-2.4-0.6-3.9-3.6-5.1c-1.5-0.6-3-1.1-4.5-1.6c-0.7-0.3-1.3-0.7-1.2-1.6
		c0.1-0.9,0.8-1.1,1.6-1.3c1.5-0.2,3,0.2,4.3,0.9c1.6,0.8,1.6,0.8,2.5-0.8c0.1-0.2,0.2-0.3,0.3-0.5c0.5-0.7,0.2-1.1-0.5-1.6
		c-2.3-1.4-4.9-1.7-7.5-1.4c-2.8,0.3-4.7,2.4-4.7,4.8c0,2,1.1,3.3,2.8,4c1.6,0.7,3.3,1.2,5,1.9c0.7,0.3,1.7,0.6,1.5,1.6
		c-0.2,1-1.1,1.2-2,1.2c-1.5,0-2.9-0.2-4.2-0.8c-2.4-1-2.4-1-3.6,1.4c-0.3,0.7-0.3,1,0.4,1.4C109.4,51.2,111.6,51.7,114,51.8z
		 M178.4,335.6c0-1.5,0-3.1,0-4.6c0-2.4-1.5-4.2-3.8-4.6c-2.4-0.5-4.8-0.2-7,1c-0.6,0.4-1,0.7-0.4,1.3c0.6,0.5,0.2,2.2,1.7,1.4
		c1.1-0.6,2.4-0.8,3.6-0.8c1,0,1.9,0.5,2.3,1.4c0.1,0.3,0.2,0.8,0,1.1c-0.3,0.3-0.6,0-0.9-0.1c-0.5-0.1-1-0.3-1.5-0.4
		c-3.1-0.5-6.3,1.6-6.8,4.4c-0.5,2.6,1.6,5.2,4.7,5.7c0.4,0.1,0.9,0.2,1.3,0.1c1.9-0.5,3.9-0.2,5.8-0.1c0.8,0,1-0.3,1-1
		C178.3,338.9,178.4,337.2,178.4,335.6z M38.3,335.5c0-0.8,0-1.5,0-2.3c0-0.8,0-1.5,0-2.3c0-2.3-1-3.6-3.1-4.3
		c-2.7-0.9-5.3-0.5-7.8,0.9c-0.8,0.4-0.5,0.9-0.1,1.3c0.5,0.4,0.1,1.9,1.5,1.4c1.2-0.5,2.4-0.9,3.8-0.8c1.1,0,2.1,0.5,2.3,1.7
		c0.1,0.6,0.1,1.2-0.9,0.8c-1.4-0.6-2.8-0.6-4.2-0.2c-3.1,0.7-4.9,3.6-4,6.4c0.7,2.3,3.3,4,6.1,3.6c1.8-0.2,3.6-0.2,5.4,0
		c0.9,0.1,1.1-0.3,1.1-1.1C38.3,338.8,38.3,337.2,38.3,335.5z M210.9,46.9c-0.4,0.2-0.7,0.4-0.9,0.5c-2.1,1.2-3.3,0.4-3.3-2
		c0-1.9,0.1-3.8,0-5.6c-0.1-1.2,0.3-1.6,1.5-1.5c3,0.1,2.9,0,2.7-2.9c0-0.7-0.3-0.9-0.9-0.9c-1.1-0.1-2.5,0.6-3.1-0.3
		c-0.5-0.8-0.2-2.1-0.2-3.2c0-0.1,0-0.2,0-0.3c0-1.9,0-1.9-1.7-1.1c-1.1,0.5-2.6,0.7-2.2,2.6c0.1,0.7,0.2,1.6-0.1,2.1
		c-0.4,0.7-1.4,0.2-2.1,0.4c-1.5,0.3-0.6,1.5-0.7,2.2c-0.3,1.3,0.2,1.9,1.6,1.6c1.2-0.2,1.4,0.3,1.4,1.4c-0.1,2.5-0.1,5.1,0,7.6
		c0.1,4.1,3.9,5.1,6.9,3.8c0.3-0.1,0.5-0.3,0.6-0.7C210.5,49.3,210.9,48.2,210.9,46.9z M82.6,47c-0.4,0.2-0.6,0.3-0.8,0.4
		c-2.2,1.2-3.4,0.5-3.4-2c0-1.6,0-3.3,0-4.9c0-2.5-0.3-2.2,2.2-2.2c2.3,0,1.9,0.1,2-1.9c0-2.2,0.4-2-2-2c-0.4,0-0.8,0-1.2,0
		c-0.8,0.1-1.1-0.3-1.1-1.1c0-1.2,0-2.5,0-3.7c0-0.4,0.1-0.9-0.7-0.6c-2.8,0.8-3.3,1.2-3.2,4c0,1.3-0.5,1.6-1.6,1.4
		c-0.4,0-1.2-0.2-1.3,0.2c-0.3,1.1-0.3,2.2,0,3.3c0.2,0.7,1.1,0.3,1.7,0.3c1-0.1,1.2,0.3,1.2,1.2c0,2.6,0,5.2,0,7.8
		c0,4.1,3.8,5.1,6.8,3.9c0.3-0.1,0.6-0.3,0.7-0.7C82.2,49.5,82.7,48.4,82.6,47z M128.3,334.9C128.3,334.9,128.3,334.9,128.3,334.9
		c0.8,0,1.6,0,2.5,0c2.3,0,2.3,0,2.1-2.4c0,0,0-0.1,0-0.1c-0.3-3.1-2.5-5.6-5.1-6.1c-2.9-0.5-5.6,0.7-6.9,3.3
		c-1.3,2.7-1.4,5.5-0.2,8.2c1.8,4.1,6.8,5.2,10.3,2.3c0.3-0.2,0.7-0.4,0.7-0.9c0-0.7-2.4-1.8-3-1.4c-2.1,1.3-4.4,0.4-4.9-2
		c-0.1-0.7,0-1,0.7-1C125.7,334.9,127,334.9,128.3,334.9z M136.5,46.8c-0.5,0.3-0.7,0.5-0.9,0.6c-2.2,1.3-3.5,0.6-3.5-1.9
		c0-1.2,0-2.4,0-3.6c0-1.1-0.3-2.4,0.2-3.1c0.6-0.9,2.1-0.2,3.1-0.3c0.1,0,0.2,0,0.3,0c0.5,0,0.6-0.2,0.7-0.7
		c0.4-2.9,0.2-3.2-2.7-3.2c-0.1,0-0.2,0-0.3,0c-1,0.1-1.4-0.2-1.3-1.3c0.1-1.2,0-2.4,0-3.6c0-0.6-0.1-0.7-0.8-0.5c-3,1-3.1,1-3,4.1
		c0,1.2-0.4,1.4-1.4,1.3c-0.5,0-1.4-0.3-1.5,0.3c-0.2,1-0.3,2.1,0,3.1c0.2,0.8,1.2,0.4,1.8,0.4c1-0.1,1.2,0.4,1.2,1.2
		c0,2.6,0,5.2,0,7.8c0,4.3,4.1,5.1,6.8,3.9c0.4-0.2,0.6-0.4,0.7-0.8C135.9,49.3,136.2,48.3,136.5,46.8z M26.9,44.9
		c0,1.4,0,2.8,0,4.2c0,2.5,0,2.4,2.5,2.5c1.2,0,1.4-0.4,1.4-1.5c-0.1-3.5,0-6.9,0-10.4c0-1.1,0.3-1.5,1.4-1.4
		c0.6,0.1,1.5,0.4,1.7-0.3c0.3-1,0.3-2.2,0-3.3c-0.2-0.8-1.2-0.3-1.8-0.4c-1.2-0.1-1.7-0.6-1.2-1.7c0.4-0.8,1.1-0.9,2-0.8
		c0.4,0,1.1,0.5,1.1-0.3c-0.1-0.9,0.7-2.2-0.6-2.7c-3.6-1.2-7.3,0.3-6.5,4.2c0.2,0.9-0.2,1.4-1.2,1.2c-1-0.2-1.3,0.3-1.2,1.2
		c0,0.5,0.1,1,0,1.4c-0.1,1,0.2,1.5,1.2,1.3c1-0.2,1.2,0.3,1.2,1.2C26.8,41.4,26.9,43.2,26.9,44.9z M59,334c0-2.1-0.1-4.2,0-6.3
		c0.1-1.6-0.9-1.2-1.8-1.2c-0.9,0-1.8-0.2-1.7,1.3c0.1,2.5,0.1,5,0,7.5c0,1.5-1.1,2.7-2.5,2.9c-1.3,0.2-2.8-0.5-3.3-1.8
		c-0.3-0.6-0.3-1.3-0.3-2c0-2.1-0.1-4.2,0-6.3c0.1-1.2-0.3-1.7-1.6-1.6c-1.8,0.1-1.9,0-1.9,1.9c0,2.4,0.1,4.7,0,7.1
		c-0.4,5.3,5,8,8.8,5.4c0.2-0.1,0.6-0.5,0.7-0.1c0.4,1.7,1.6,0.6,2.5,0.9c0.8,0.2,1.1-0.2,1.1-1C58.9,338.3,59,336.1,59,334z
		 M92.1,333.6c0-0.6,0-1.4-0.3-2.3c-0.8-2.6-2.2-4.6-5.1-5.1c-2.7-0.5-5.2,0.5-6.5,2.9c-1.8,3.2-1.8,6.6,0.2,9.7
		c2.4,3.7,7.7,3.7,10.2,0.1C91.8,337.5,92.1,335.8,92.1,333.6z M190.8,326.3c-0.5,0-1,0-1.4,0c-2.2,0.2-4.2,1.8-4.5,3.6
		c-0.3,2.1,0.7,3.6,3.3,4.6c1.2,0.4,2.3,0.8,3.5,1.3c0.7,0.3,1.5,0.5,1.3,1.4c-0.2,0.9-1,1.1-1.8,1.1c-1.4,0-2.9-0.2-4-0.9
		c-1.4-1-2.1-0.5-2.5,0.9c-0.1,0.2-0.2,0.4-0.3,0.6c-0.3,0.4-0.3,0.8,0.3,1c2.8,1.4,5.8,2.1,8.9,1.2c1.8-0.5,3.1-2.1,3.2-3.8
		c0.1-1.9-0.7-3-2.8-3.9c-1.3-0.6-2.7-1-4-1.5c-0.7-0.3-1.6-0.6-1.4-1.6c0.2-0.9,1.1-1.1,1.8-1.1c1.4-0.1,2.7,0.3,3.8,1.1
		c0.8,0.5,1.2,0.3,1.5-0.5c0.1-0.3,0.2-0.5,0.4-0.8c0.7-0.8,0.3-1.3-0.5-1.7C194,326.7,192.4,326.2,190.8,326.3z M74.5,337.3
		c-0.3,0.2-0.5,0.4-0.7,0.5c-2,1.1-3.1,0.5-3.2-1.8c0-1.4,0-2.9,0-4.3c0-1.9,0-1.9,1.9-1.9c1.9,0,1.8,0,1.9-1.8
		c0.1-1.2-0.3-1.8-1.6-1.6c-0.4,0.1-0.8,0-1.2,0c-0.8,0.1-1.1-0.2-1.1-1c0.1-1,0-2,0-3c0-0.6-0.1-0.8-0.8-0.6
		c-2.5,0.8-2.6,0.8-2.5,3.5c0,0.9-0.2,1.4-1.2,1.2c-1.4-0.3-1.6,0.4-1.5,1.6c0.1,0.9-0.3,2.2,1.4,1.8c1-0.2,1.3,0.2,1.3,1.2
		c-0.1,2.4-0.1,4.8,0,7.2c0.1,2.9,3.7,4.5,6.1,2.9c0.2-0.2,0.5-0.4,0.5-0.7C74.1,339.5,74.3,338.5,74.5,337.3z M210.5,337.3
		c-0.4,0.2-0.6,0.4-0.8,0.5c-2,1.1-3,0.4-3-1.8c0-1.3,0-2.7,0-4c0-2.2,0-2.3,2.1-2.2c1.4,0.1,1.6-0.5,1.6-1.7c0.1-1.5-0.4-2-1.8-1.8
		c-0.3,0.1-0.7,0-1,0c-0.8,0.1-1-0.3-1-1c0-1.1,0-2.1,0-3.2c0-0.7-0.2-0.8-0.9-0.5c-2.5,0.9-2.6,0.9-2.5,3.4c0,1-0.3,1.4-1.3,1.3
		c-1.7-0.3-1.4,0.9-1.4,1.8c-0.1,1.1,0,1.9,1.5,1.6c1.1-0.2,1.3,0.3,1.2,1.3c-0.1,2.3,0,4.6,0,6.9c0,2,1.3,3.5,3.2,3.6
		c2.6,0.2,3.3-0.3,3.8-2.8C210.3,338.4,210.4,338,210.5,337.3z M115.3,337.3c-0.5,0.3-0.7,0.5-1,0.6c-1.8,0.9-2.8,0.3-2.9-1.8
		c0-1.3,0-2.7,0-4c0-2.3,0-2.3,2.3-2.3c0.9,0,1.6,0,1.4-1.3c-0.2-0.9,0.6-2.3-1.4-2.2c-2.4,0.1-2.4,0-2.4-2.3c0-2.9,0-2.9-2.6-1.6
		c-1.4,0.6-0.7,1.7-0.8,2.6c0,0.9-0.1,1.5-1.2,1.3c-1.6-0.3-1.5,0.8-1.5,1.8c0,1.1,0.1,1.9,1.5,1.6c0.9-0.2,1.2,0.2,1.2,1.2
		c-0.1,2.3,0,4.6,0,6.9c0,2.1,1.4,3.7,3.2,3.7c2.4,0,3.5,0.1,3.7-2.8C115,338.3,115.2,337.9,115.3,337.3z M147.2,36.1
		c0.6-1.9-0.4-1.7-1.3-1.7c-0.3,0-0.7,0.1-1,0c-1.1-0.2-1.4,0.3-1.3,1.3c0.1,4.4,0,8.7,0,13.1c0,2.9,0,2.8,2.9,2.7c0.8,0,1-0.3,1-1
		c0-2.6,0-5.2,0-7.8c0-0.7,0-1.4,0.3-2.1c0.6-1.8,2.7-3.1,4.2-2.2c2.1,1.3,1.9-0.2,2.2-1.3c0.1-0.3,0.1-0.7,0.3-1
		c0.5-1.1-0.1-1.5-1-1.8C151.1,33.8,149.3,34.5,147.2,36.1z M45,43.1c0-2,0-4,0-6.1c0-2.6,0-2.5-2.6-2.6c-1.1,0-1.4,0.2-1.4,1.4
		c0.1,4.4,0,8.8,0,13.1c0,2.8,0,2.7,2.7,2.7c1.1,0,1.3-0.4,1.2-1.4C45,47.9,45,45.5,45,43.1z M43.1,28.9c-1.2,0-2.2,1-2.2,2.1
		c0,1.3,1,2.2,2.3,2.2c1.3,0,2.2-1,2.2-2.2C45.2,29.8,44.3,28.9,43.1,28.9z"/>
	<path fill="#FAFCFC" d="M73.9,113.4c-7.9-4.9-9.5-12.9-7.5-19.1c2.1-6.7,8.4-11.1,15.8-11C88.8,83.3,95.1,88,97,94.4
		c2,6.7-0.1,14.1-7.1,18.7c1.7,0.2,3.2,0.3,4.7,0.5c6.8,1.2,12.2,4.9,16.2,10.4c6,8.3,9.2,17.7,9.7,27.9c0.1,1.2,0.4,1.5,1.6,1.5
		c13.4,0.3,26.7,1.2,40,2.4c8.9,0.8,17.8,1.8,26.7,2.9c0.9,0.1,1.2,0.4,1.5,1.2c5.4,13.8,10.9,27.7,16.4,41.5c0.5,1.2,1.1,2,2.2,2.6
		c6.2,3.5,10.8,8.4,12.1,15.6c0.9,4.8,0.7,9.8,0.5,14.7c-0.3,7.2-0.9,14.3-1.5,21.4c-0.1,1.3-0.5,2.3-1.4,3.3
		c-3.6,3.9-7,7.9-10.5,11.9c-0.5,0.5-0.8,1.1-1.6,1.3c-0.7,0.1-0.4,0.9-0.4,1.3c0,7.7,0,15.4,0,23.1c0,1,0,1.9-0.1,2.9
		c-0.3,3.6-2.1,5.3-5.7,5.3c-5.3,0-10.7,0-16,0c-4.3,0-6.3-2-6.3-6.3c0-2.7,0-5.5,0-8.2c0-5.6,0-11.2,0-16.7c0-1-0.1-1.4-1.3-1.4
		c-23.4,0-46.8,0-70.2,0c-0.9,0-1.1,0.2-1.3,1.1c-0.4,2.4,0,4.7,0.7,7c0.8,2.7,0.6,3.1-2.2,3.5c-3.4,0.5-6.9,0.7-10.3-0.2
		c-2.4-0.7-3.5-2.4-3.1-4.9c0.3-1.6,0.8-3.1,1.3-4.6c0.6-1.6,0.4-1.8-1.3-1.8c-2.3,0-2.3,0-2.3,2.4c0,9,0,18,0,27
		c0,1.8-0.3,3.5-1.8,4.7c-1.7,1.5-3.7,1.9-5.8,0.9c-2.1-1-3.2-2.7-3.2-5c0-7,0-14.1,0-21.1c0-2.6,0-5.2,0-7.8c0-0.9-0.3-1.1-1.1-1.1
		c-4.3,0-8.7,0.1-13,0c-1.3,0-1.7,0.3-1.7,1.7c0.1,7.9,0,15.8,0,23.7c0,1.5,0,3-0.6,4.4c-0.9,2-2.3,3-4.5,3c-5.9,0-11.8,0-17.8,0
		c-2.6,0-4.5-1.5-5-4.1c-0.2-0.8-0.2-1.7-0.2-2.6c0-8.2,0-16.4,0-24.5c0-0.7,0.3-1.6-1-1.6c-0.2,0-0.5-0.4-0.7-0.7
		c-3.7-4.3-7.5-8.6-11.2-12.8c-0.9-1-0.9-2.2-1.1-3.4c-1.2-9.5-2.2-19-2.3-28.6c-0.1-6.6,2.5-12,6.8-16.8c2.1-2.3,4.5-4.4,7.1-6.1
		c0.6-0.4,1.1-0.9,1.4-1.6c2.7-6.8,5.4-13.7,8.1-20.5c0.3-0.6,0.8-1.4-0.4-1.8c-0.1,0-0.1-0.5-0.1-0.8c0-1.2,0-2.3,0-3.5
		c0-0.9,0-1.6,1.3-1.4c0.4,0.1,0.6-0.2,0.8-0.5c0.5-1.4,1.2-2.7,1.2-4.3c0.2-7.3,0.4-14.6,0.9-21.9c0.8-10.7,4.8-19.9,13.4-26.8
		C62.2,117.1,67.7,114.6,73.9,113.4z M171.9,196.6c0-0.2-0.1-0.3-0.1-0.5c0.8-0.7,1.7-1.4,2.5-2.1c3.5-3.1,4.7-8.2,3-12.6
		c-1.7-4.4-6-7.4-10.7-7.4c-4.6,0-8.9,2.9-10.6,6.9c-1.9,4.5-0.9,9.3,2.4,12.7c0.8,0.8,1.7,1.6,2.5,2.4c0,0.1-0.1,0.3-0.1,0.4
		c-2.9,0-5.9-0.2-8.8,0c-5.7,0.4-11,1.6-15.3,5.8c-0.4,0.4-0.8,0.5-1.3,0.4c-8.2-0.3-16.3-0.3-24.5,0c-1.2,0-1.5,0.3-1.5,1.5
		c0.1,8.1-0.1,16.3-0.5,24.4c-0.5,13.3-1.5,26.6-3.1,39.8c-0.2,1.3,0,1.7,1.4,1.7c23.8,0,47.6,0,71.5-0.1c1.4,0,1.6,0.4,1.6,1.7
		c-0.1,8.8,0,17.5,0,26.3c0,0.8,0,1.5,0.1,2.3c0.3,1.7,1.3,2.5,3,2.5c5.7,0,11.4,0,17,0c1.7,0,2.4-0.6,2.9-2.2c0.3-1,0.2-2,0.2-3
		c0-8.7,0-17.4,0-26.1c0-1.1,0.3-1.5,1.4-1.3c0.8,0.1,1.2-0.3,1.7-0.8c3.1-3.6,6.2-7.2,9.4-10.7c1.1-1.2,1.5-2.5,1.6-4
		c0.5-6,1.1-12.1,1.3-18.1c0.2-5.1,0.5-10.2-0.2-15.3c-1-7.3-5.7-12-11.9-15.2c-1-0.5-1.5-1.1-1.9-2.1
		c-5.4-13.8-10.9-27.6-16.3-41.4c-0.3-0.7-0.6-1.1-1.5-1.2c-8.3-1.2-16.8-1.9-25.1-2.8c-5.5-0.6-10.9-0.9-16.4-1.3
		c-7.9-0.6-15.8-1-23.8-1.1c-1,0-1.2,0.3-1.1,1.2c0.1,1.9,0.2,3.8,0.2,5.8c0,1,0.3,1.2,1.3,1.2c7.8,0.1,15.6,0.7,23.3,1.3
		c6.1,0.5,12.1,1.1,18.2,1.8c6.1,0.7,12.2,1.5,18.3,2.1c0.9,0.1,1.5,0.5,1.9,1.4c1.9,5,3.9,9.9,5.9,14.9c2.2,5.4,4.3,10.9,6.5,16.3
		c0.2,0.5,0.6,1.1-0.3,1.4c-0.7,0.2-1.3,1.1-2-0.1c-0.9-1.5-2.3-2.4-3.8-3.3c-3.7-2.1-7.7-3-11.9-3.2
		C176.3,196.5,174.1,196.6,171.9,196.6z M59,285.2c0-4.6,0-9.2,0-13.9c0-1.1,0.3-1.5,1.4-1.5c5.1,0.1,10.1,0,15.2,0.1
		c1.3,0,1.7-0.3,1.7-1.6c-0.1-14.5,0-29.1,0-43.6c0-1.6,0.2-3.4,1.5-4.2c1.9-1.2,1.7-2.8,1.6-4.5c0-1.2-0.1-2.3,0-3.5
		c0.1-1-0.2-1.5-1.3-1.3c-1,0.2-1.3-0.3-1.3-1.3c0.1-1.7,0-3.4,0-5.1c0-0.9-0.3-1.2-1.1-1.1c-1,0.1-2,0.2-3,0.1
		c-1.2-0.1-1.4,0.4-1.4,1.5c0,7.7,0,15.3,0,23c0,1.5,0.3,3,1.2,4.2c1.5,2.1,1.6,4.4,1.5,6.8c0,0.8-0.4,1.1-1.1,1c-4.5,0-9,0-13.4,0
		c-1,0-1.5-0.5-1.5-1.5c0-1.7,0.4-3.3,1.6-4.5c0.8-0.8,1-1.6,0.8-2.6c-1.5-8.6-2.9-17.2-4.6-25.8c-0.2-0.8-0.4-1.2-1.4-1.1
		c-3.7,0.3-7.5,0.5-11.2,0.7c-1.9,0.1-2.2-0.3-1.5-2.1c2.9-7.4,5.8-14.7,8.7-22.1c0.3-0.8,0.5-1.2-0.7-1c-1.3,0.2-2.7-0.2-4.1,0
		c-1.2,0.2-2.6-0.8-3.4,1.3c-2.8,7.5-5.8,14.8-8.7,22.3c-0.3,0.8-0.7,1.3-1.4,1.7c-1.7,1-3.2,2.1-4.6,3.4
		c-5.5,4.9-9.1,10.6-8.9,18.4c0.3,9.5,1.2,18.9,2.4,28.3c0.1,0.6,0.3,1.2,0.8,1.7c3.4,3.9,6.8,7.8,10.2,11.7
		c0.4,0.5,0.9,0.9,1.6,0.8c1.3-0.2,1.5,0.4,1.4,1.5c0,8.8,0,17.5,0,26.3c0,0.8,0,1.5,0.1,2.3c0.2,1.7,1.2,2.6,2.9,2.6
		c5.7,0,11.5,0,17.2,0c1.6,0,2.4-0.8,2.8-2.1c0.3-0.8,0.2-1.6,0.2-2.4C59,293.8,59,289.5,59,285.2z M192,198c0-0.3,0-0.5,0-0.6
		c-3.3-8.3-6.7-16.7-10-25c-0.2-0.6-0.6-0.8-1.2-0.8c-4.1-0.5-8.1-1-12.2-1.5c-10.9-1.3-21.9-2.3-32.9-3c-4.5-0.3-8.9-0.5-13.4-0.7
		c-0.4,0-1.1-0.2-1.1,0.5c-0.1,2.4-0.1,4.9,1.2,7.1c0.2,0.3,0.4,0.3,0.7,0.4c0.7,0.1,1.7-0.4,2,0.3c0.3,0.6,0.1,1.5,0.1,2.3
		c0,0.6-0.1,1.2,0,1.7c0.2,1.3-0.3,1.7-1.7,1.7c-4.3-0.1-8.7,0-13,0c-1.3,0-1.7,0.5-1.6,1.8c0.2,5.6,0.3,11.2,0.4,16.7
		c0,1,0.2,1.3,1.3,1.3c4.5-0.1,9-0.2,13.6-0.2c3.4,0,6.7,0.1,10.1,0.2c0.6,0,1.1-0.1,1.6-0.5c3.6-3.2,8-4.7,12.7-5.3
		c2.2-0.3,4.3-0.4,6.6-0.7c-4.8-7.7-1.9-15.1,2.4-18.8c4.7-4,11.9-4.4,17-0.8c2.6,1.8,4.4,4.3,5.3,7.3c1.3,4.5,0.5,8.7-2.3,12.7
		C182.8,194.6,187.6,195.5,192,198z M87.9,246.4c0,7,0,14,0,21.1c0,2.5,0,2.4,2.4,2.5c1.1,0,1.5-0.2,1.5-1.4
		c-0.1-7.6-0.1-15.3,0-22.9c0-6.9,0-13.7-0.7-20.6c-0.3-2.8-0.8-5.6-0.9-8.4c-0.1-4.1-0.6-8.2-0.8-12.4c0-0.4,0.1-1-0.7-1
		c-0.8,0-0.7,0.6-0.7,1.1c0,1.7-0.1,3.5,0,5.2c0.1,1.2-0.2,2-1.6,1.7c-0.9-0.2-1.2,0.2-1.2,1.2c0.1,2,0,4,0,6.1c0,0.5,0,0.9,0.5,1.2
		c1.8,1.3,2.3,3.1,2.3,5.2C87.9,232.1,87.9,239.3,87.9,246.4z M53.8,181.8c-0.3,0.4-0.4,0.5-0.5,0.6c-2.6,6.5-5.2,13.1-7.8,19.6
		c-0.4,0.9-0.1,1.1,0.8,1c2.8-0.2,5.6-0.4,8.3-0.5c1,0,1-0.3,0.9-1.2c-0.8-4.1-1.3-8.3-1.2-12.6C54.4,186.6,54,184.3,53.8,181.8z
		 M60.2,138.7c-0.3,0-0.4,0-0.4,0c-2.4,6.1-4.2,12.3-5.5,18.8c-0.1,0.6,0.1,0.9,0.7,0.8c1.4-0.2,2.8-0.4,4.1-0.5
		c0.9,0,1.1-0.4,1.1-1.2c-0.1-2.1-0.1-4.1-0.1-6.2C60.2,146.4,60.2,142.6,60.2,138.7z M77.7,194.3C77.7,194.3,77.7,194.3,77.7,194.3
		c0-2,0-4,0-6c0-0.4,0.1-0.8-0.4-1c-0.5-0.2-0.7,0.3-0.9,0.6c-1.3,1.9-2.6,3.8-3.9,5.7c-0.3,0.4-0.4,0.8-0.4,1.3c0,1.9,0,3.8,0,5.8
		c0,0.7,0.1,1,1,1c1.2-0.1,2.4-0.2,3.6-0.2c0.9,0,1-0.3,1-1.1C77.7,198.3,77.7,196.3,77.7,194.3z M54.8,172.1
		c0.3-2.1,1.4-3.1,3.4-2.9c0.3,0,0.4-0.2,0.5-0.4c0.6-1.8,1.8-3.5,1.6-5.6c-0.2-3.2-0.2-3.2-3.4-2.8c-3.1,0.5-3.1,0.5-3.4,3.6
		C53.4,166.7,53.6,169.5,54.8,172.1z M103.5,159.7c0.1,1.5-0.2,2.8,0.1,4.1c0.1,0.7,0.4,0.8,1,0.8c1.5-0.1,3.1-0.3,4.6-0.3
		c0.9,0,1.2-0.4,1.1-1.2c-0.2-1.6-0.3-3.1-0.6-4.7c-0.4-2.4-0.4-2.4-2.8-2.3C103.3,156.3,103.3,156.3,103.5,159.7z M103.2,137.7
		c0,0.6-0.1,0.7-0.1,0.9c0.1,4.8,0.2,9.7,0.3,14.5c0,0.8,0.4,0.9,1,0.8c1.1-0.1,2.3-0.2,3.4-0.2c0.8,0,0.9-0.3,0.7-1
		c-0.4-1.4-0.7-2.8-1.2-4.1C106.2,145,104.9,141.5,103.2,137.7z M110.3,168.2c-0.1-0.6,0.5-1.6-0.9-1.5c-1.5,0.1-3.1,0.2-4.6,0.3
		c-0.8,0-0.9,0.3-0.5,0.9c1.2,2,2.4,4,3.3,6.2c0.1,0.3,0.2,0.8,0.6,0.9c0.5,0.1,0.7-0.5,0.9-0.8
		C109.9,172.3,110.1,170.3,110.3,168.2z M88,196.1c0,1.5,0,2.8,0,4.2c0,0.3,0,0.6,0.4,0.6c0.4,0,0.5-0.2,0.4-0.6
		C88.5,199,88.6,197.5,88,196.1z"/>
	<path fill="#FAFCFC" d="M172.3,44.9c0,1.8-0.1,3.6,0,5.3c0,1-0.2,1.6-1.3,1.4c-0.9-0.2-2,0.5-2.8-0.6c-0.1-0.1-0.6,0.2-0.9,0.3
		c-2,0.6-4,0.6-5.9-0.3c-2.3-1.1-3.7-3.2-3.5-5.3c0.2-2.4,1.9-4.5,4.3-5.2c1.8-0.5,3.5-0.6,5.2,0.1c0.9,0.4,1.1,0.1,1-0.8
		c-0.1-1.2-1.2-2.1-2.7-2.1c-1.4,0-2.7,0.1-3.9,0.8c-0.8,0.5-1.3,0.4-1.6-0.5c-0.2-0.4-0.4-0.8-0.7-1.3c-0.2-0.4-0.1-0.7,0.3-0.9
		c2.5-1.8,7.4-2.2,10-0.6c1.5,0.9,2.4,2.2,2.4,4C172.2,41.1,172.2,43,172.3,44.9C172.3,44.9,172.3,44.9,172.3,44.9z M168.4,45.9
		c0.4-1.4-0.4-2-1.6-2.3c-0.8-0.3-1.7-0.4-2.5-0.2c-1.3,0.2-2.2,0.9-2.2,2.2c-0.1,1.3,0.7,2.1,1.9,2.5c1,0.3,2,0,3-0.2
		C167.9,47.7,168.7,47.2,168.4,45.9z"/>
	<path fill="#FAFCFC" d="M193.4,44.7c0,2,0,3.9,0,5.9c0,0.7-0.2,1.1-1,1c-1-0.2-2.2,0.5-3.1-0.5c-0.3-0.3-0.7,0.1-1,0.3
		c-2.9,0.9-6.3,0.2-8-1.9c-1.3-1.5-1.8-3.3-1.1-5.2c0.9-2.3,2.7-3.5,5.1-4c1.4-0.3,2.8-0.2,4.1,0.4c1.1,0.5,1.1-0.1,1.1-0.9
		c-0.1-1.3-1.1-1.7-2.2-1.9c-1.5-0.2-2.9,0-4.2,0.7c-0.9,0.5-1.4,0.4-1.8-0.6c-0.9-1.9-1-1.8,0.9-2.7c2.1-1,4.3-1.2,6.6-0.8
		c2.9,0.5,4.6,2.5,4.6,5.5C193.4,41.5,193.4,43.1,193.4,44.7z M189.5,45.8c-0.1-0.6,0.2-1.4-0.7-1.8c-1.1-0.5-2.3-0.8-3.5-0.6
		c-1.3,0.2-2.1,0.9-2.3,2.2c-0.2,1.1,0.7,2.1,1.9,2.5c1,0.3,1.9,0,2.8-0.1C189.1,47.7,189.8,47.2,189.5,45.8z"/>
	<path fill="#FAFCFC" d="M159.6,334.5c0,2.3,0,4.6,0,6.9c0,3.1-1.9,5.8-4.8,6.9c-1.1,0.4-1.7,0.3-2-0.8c-0.1-0.3-0.2-0.5-0.3-0.8
		c-0.5-1-0.6-1.5,0.8-1.7c1.5-0.2,2.8-1.8,2.9-3.2c0-0.4,0.2-1-0.6-0.7c-5.5,2.2-9.9-3.1-8.7-9.2c1-4.7,4.2-6.6,8.7-5.4
		c0.9,0.2,1.9-0.3,2.9-0.3c0.9,0,1.2,0.3,1.2,1.2C159.6,329.8,159.6,332.2,159.6,334.5z M156.2,333.9c0-0.5-0.1-1,0-1.4
		c0.2-1.4-0.3-2.3-1.6-2.6c-1.3-0.3-2.5,0-3.3,1.2c-1.1,1.8-1.1,3.7-0.1,5.6c0.7,1.2,2,1.6,3.4,1.3c1.4-0.4,1.8-1.3,1.6-2.6
		C156.2,334.8,156.2,334.4,156.2,333.9z"/>
	<path fill="#FAFCFC" d="M61.3,44.1c-1.4,0-2.8,0-4.2,0c-0.8,0-1,0.2-0.8,1c0.7,2.9,3.2,4,5.6,2.3c0.8-0.6,1.1-0.2,1.7,0.2
		c2.2,1.6,2.2,1.9-0.2,3.3c-3.9,2.2-8.5,0.8-10.4-3.3c-1.5-3.1-1.4-6.3,0.1-9.3c1.3-2.7,3.6-4,6.5-4c2.9,0.1,5.1,1.6,6.3,4.3
		c0.7,1.4,0.9,2.9,0.9,4.5c0,0.8-0.2,1.1-1.1,1.1C64.2,44,62.7,44.1,61.3,44.1C61.3,44.1,61.3,44.1,61.3,44.1z M59.2,41
		c0.8,0,1.6,0,2.4,0c0.6,0,0.8-0.2,0.6-0.8c-0.5-1.1-1.1-2-2.4-2.2c-1.1-0.2-2.1,0.2-2.8,1.1c-0.4,0.5-0.9,1.1-0.6,1.7
		c0.2,0.5,1,0.2,1.5,0.2C58.4,41,58.8,41,59.2,41z"/>
	<path fill="#FAFCFC" d="M95.1,34.4c2.1-0.1,4,0.5,5.8,1.5c0.7,0.4,1,0.8,0.4,1.4c-0.1,0.1-0.1,0.2-0.1,0.2c-1,1.9-1,1.9-3,1
		c-1.2-0.6-2.5-0.9-3.9-0.7c-0.8,0.1-1.6,0.4-1.7,1.3c-0.1,0.9,0.6,1.3,1.3,1.5c1.5,0.6,3.1,1.1,4.6,1.7c3,1.2,4.1,3.3,3.2,5.8
		c-0.8,2.1-2.6,3.1-4.7,3.4c-2.9,0.3-5.7-0.2-8.4-1.5c-0.8-0.4-1.1-0.7-0.6-1.6c1.2-2.3,1.2-2.3,3.5-1.3c1.4,0.6,2.8,0.8,4.3,0.8
		c0.8,0,1.7-0.2,1.9-1.2c0.2-1-0.6-1.3-1.4-1.6c-1.4-0.5-2.8-1-4.2-1.5c-2.7-1.1-4-2.9-3.7-4.9c0.4-2.3,2.6-4.2,5.2-4.4
		C94.2,34.4,94.6,34.4,95.1,34.4z"/>
	<path fill="#FAFCFC" d="M114,51.8c-2.4-0.1-4.6-0.6-6.8-1.7c-0.8-0.4-0.8-0.7-0.4-1.4c1.2-2.4,1.1-2.4,3.6-1.4
		c1.3,0.6,2.8,0.8,4.2,0.8c0.9,0,1.8-0.2,2-1.2c0.2-1-0.8-1.3-1.5-1.6c-1.6-0.7-3.4-1.2-5-1.9c-1.7-0.8-2.8-2-2.8-4
		c0-2.4,2-4.4,4.7-4.8c2.6-0.3,5.2,0,7.5,1.4c0.7,0.4,1,0.8,0.5,1.6c-0.1,0.2-0.2,0.3-0.3,0.5c-0.9,1.7-0.9,1.7-2.5,0.8
		c-1.4-0.7-2.8-1.1-4.3-0.9c-0.7,0.1-1.4,0.4-1.6,1.3c-0.1,0.9,0.5,1.3,1.2,1.6c1.5,0.6,3,1,4.5,1.6c2.9,1.2,4,2.7,3.6,5.1
		c-0.3,2.1-2.5,3.9-5.1,4.2C115.1,51.7,114.5,51.7,114,51.8z"/>
	<path fill="#FAFCFC" d="M178.4,335.6c0,1.6,0,3.3,0,4.9c0,0.7-0.2,1-1,1c-1.9-0.1-3.9-0.4-5.8,0.1c-0.4,0.1-0.9,0-1.3-0.1
		c-3.1-0.6-5.1-3.1-4.7-5.7c0.5-2.9,3.6-4.9,6.8-4.4c0.5,0.1,1,0.2,1.5,0.4c0.3,0.1,0.7,0.4,0.9,0.1c0.3-0.3,0.2-0.8,0-1.1
		c-0.4-1-1.3-1.4-2.3-1.4c-1.3,0-2.5,0.2-3.6,0.8c-1.6,0.8-1.2-0.9-1.7-1.4c-0.6-0.5-0.2-0.9,0.4-1.3c2.2-1.2,4.6-1.5,7-1
		c2.3,0.4,3.7,2.2,3.8,4.6C178.4,332.5,178.4,334,178.4,335.6z M171.9,338.4c2.4,0,3.2-0.7,3.1-2.5c-0.1-1.1-1.1-1.7-2.9-1.9
		c-1.5-0.1-2.7,0.8-2.8,2C169.1,337.5,170.2,338.5,171.9,338.4z"/>
	<path fill="#FAFCFC" d="M38.3,335.5c0,1.6,0,3.3,0,4.9c0,0.8-0.2,1.1-1.1,1.1c-1.8-0.1-3.6-0.2-5.4,0c-2.8,0.4-5.3-1.4-6.1-3.6
		c-0.9-2.8,0.9-5.7,4-6.4c1.4-0.3,2.9-0.3,4.2,0.2c1,0.4,1-0.2,0.9-0.8c-0.3-1.2-1.2-1.7-2.3-1.7c-1.3-0.1-2.6,0.3-3.8,0.8
		c-1.4,0.6-1-0.9-1.5-1.4c-0.3-0.3-0.6-0.8,0.1-1.3c2.5-1.3,5.1-1.8,7.8-0.9c2.2,0.7,3.1,2.1,3.1,4.3c0,0.8,0,1.5,0,2.3
		C38.3,334,38.3,334.7,38.3,335.5z M34.9,336.4c0-1.5-1.1-2.3-3.2-2.3c-1.4,0-2.6,1-2.6,2.2c0,1.3,1.1,2.2,2.7,2.2
		C34.1,338.4,34.9,337.9,34.9,336.4z"/>
	<path fill="#FAFCFC" d="M210.9,46.9c0,1.3-0.4,2.4-0.6,3.6c-0.1,0.4-0.3,0.6-0.6,0.7c-3,1.3-6.8,0.3-6.9-3.8c-0.1-2.5-0.1-5.1,0-7.6
		c0-1.1-0.2-1.7-1.4-1.4c-1.4,0.2-1.9-0.4-1.6-1.6c0.2-0.8-0.7-1.9,0.7-2.2c0.7-0.1,1.7,0.4,2.1-0.4c0.3-0.5,0.2-1.4,0.1-2.1
		c-0.4-1.9,1.1-2.1,2.2-2.6c1.7-0.8,1.7-0.7,1.7,1.1c0,0.1,0,0.2,0,0.3c0,1.1-0.3,2.5,0.2,3.2c0.6,0.9,2,0.3,3.1,0.3
		c0.7,0,0.9,0.2,0.9,0.9c0.2,2.9,0.2,3-2.7,2.9c-1.2,0-1.6,0.3-1.5,1.5c0.1,1.9,0,3.7,0,5.6c0,2.4,1.2,3.1,3.3,2
		C210.2,47.3,210.5,47.1,210.9,46.9z"/>
	<path fill="#FAFCFC" d="M82.6,47c0,1.4-0.5,2.4-0.6,3.6c0,0.4-0.4,0.6-0.7,0.7c-3,1.3-6.8,0.2-6.8-3.9c0-2.6,0-5.2,0-7.8
		c0-0.9-0.2-1.3-1.2-1.2c-0.6,0-1.5,0.4-1.7-0.3c-0.3-1-0.3-2.2,0-3.3c0.1-0.5,0.9-0.3,1.3-0.2c1.1,0.1,1.6-0.2,1.6-1.4
		c-0.1-2.9,0.4-3.3,3.2-4c0.8-0.2,0.7,0.2,0.7,0.6c0,1.2,0,2.5,0,3.7c0,0.8,0.2,1.2,1.1,1.1c0.4,0,0.8,0,1.2,0c2.3,0,2-0.2,2,2
		c0,2,0.4,1.9-2,1.9c-2.6,0-2.2-0.4-2.2,2.2c0,1.6,0,3.3,0,4.9c0,2.5,1.2,3.1,3.4,2C82.1,47.3,82.3,47.2,82.6,47z"/>
	<path fill="#FAFCFC" d="M128.3,334.9c-1.3,0-2.6,0-3.9,0c-0.7,0-0.9,0.3-0.7,1c0.5,2.4,2.8,3.3,4.9,2c0.6-0.4,3,0.7,3,1.4
		c0,0.4-0.4,0.6-0.7,0.9c-3.5,2.8-8.5,1.7-10.3-2.3c-1.2-2.7-1.1-5.5,0.2-8.2c1.3-2.6,4-3.8,6.9-3.3c2.7,0.5,4.8,3,5.1,6.1
		c0,0,0,0.1,0,0.1c0.2,2.4,0.2,2.4-2.1,2.4C129.9,334.9,129.1,334.9,128.3,334.9C128.3,334.9,128.3,334.9,128.3,334.9z M129.1,332.1
		c-0.7-2-1.4-2.6-2.7-2.6c-1.3,0-2,0.7-2.5,1.8c-0.2,0.5-0.3,0.9,0.5,0.9C125.9,332.1,127.4,332.1,129.1,332.1z"/>
	<path fill="#FAFCFC" d="M136.5,46.8c-0.3,1.5-0.6,2.5-0.8,3.6c-0.1,0.4-0.3,0.7-0.7,0.8c-2.7,1.2-6.8,0.4-6.8-3.9c0-2.6,0-5.2,0-7.8
		c0-0.9-0.1-1.3-1.2-1.2c-0.6,0-1.6,0.4-1.8-0.4c-0.2-1-0.2-2.1,0-3.1c0.1-0.7,1-0.3,1.5-0.3c1,0,1.4-0.2,1.4-1.3c0-3.1,0-3.1,3-4.1
		c0.6-0.2,0.8,0,0.8,0.5c0,1.2,0.1,2.4,0,3.6c-0.1,1,0.3,1.4,1.3,1.3c0.1,0,0.2,0,0.3,0c2.9,0,3.1,0.2,2.7,3.2
		c-0.1,0.5-0.2,0.7-0.7,0.7c-0.1,0-0.2,0-0.3,0c-1.1,0.2-2.5-0.5-3.1,0.3c-0.5,0.7-0.2,2-0.2,3.1c0,1.2,0,2.4,0,3.6
		c0,2.5,1.3,3.2,3.5,1.9C135.8,47.3,136,47.1,136.5,46.8z"/>
	<path fill="#FAFCFC" d="M26.9,44.9c0-1.8,0-3.6,0-5.3c0-0.9-0.2-1.4-1.2-1.2c-1.1,0.2-1.3-0.3-1.2-1.3c0.1-0.5,0-1,0-1.4
		c-0.1-0.9,0.2-1.4,1.2-1.2c1,0.2,1.4-0.3,1.2-1.2c-0.8-3.9,2.9-5.4,6.5-4.2c1.3,0.4,0.5,1.8,0.6,2.7c0.1,0.8-0.7,0.3-1.1,0.3
		c-0.8-0.1-1.6,0-2,0.8c-0.5,1.1-0.1,1.6,1.2,1.7c0.6,0,1.6-0.4,1.8,0.4c0.3,1,0.3,2.2,0,3.3c-0.2,0.7-1.1,0.3-1.7,0.3
		c-1.1-0.1-1.4,0.3-1.4,1.4c0.1,3.5,0,6.9,0,10.4c0,1.1-0.2,1.5-1.4,1.5c-2.5-0.1-2.5,0-2.5-2.5C26.9,47.7,26.9,46.3,26.9,44.9z"/>
	<path fill="#FAFCFC" d="M59,334c0,2.2,0,4.3,0,6.5c0,0.8-0.3,1.3-1.1,1c-0.8-0.2-2.1,0.8-2.5-0.9c-0.1-0.4-0.5,0-0.7,0.1
		c-3.8,2.6-9.2-0.1-8.8-5.4c0.2-2.3,0-4.7,0-7.1c0-1.9,0-1.8,1.9-1.9c1.3-0.1,1.6,0.4,1.6,1.6c-0.1,2.1,0,4.2,0,6.3
		c0,0.7,0.1,1.3,0.3,2c0.5,1.3,1.9,2,3.3,1.8c1.4-0.2,2.5-1.4,2.5-2.9c0.1-2.5,0.1-5,0-7.5c-0.1-1.5,0.8-1.3,1.7-1.3
		c0.9,0,1.9-0.3,1.8,1.2C58.9,329.7,59,331.8,59,334z"/>
	<path fill="#FAFCFC" d="M92.1,333.6c0,2.1-0.4,3.8-1.4,5.4c-2.5,3.6-7.9,3.6-10.2-0.1c-2-3.1-2-6.5-0.2-9.7c1.3-2.4,3.8-3.4,6.5-2.9
		c2.8,0.5,4.3,2.5,5.1,5.1C92.1,332.2,92.2,333.1,92.1,333.6z M88.5,334c0-1.1,0-2.2-0.7-3.2c-0.5-0.8-1.2-1.3-2.2-1.3
		c-1.1,0-1.9,0.5-2.3,1.5c-0.9,2-0.9,4,0,6c0.4,0.9,1.2,1.5,2.3,1.5c1.1,0,1.8-0.5,2.3-1.4C88.4,336.1,88.4,335.1,88.5,334z"/>
	<path fill="#FAFCFC" d="M190.8,326.3c1.7-0.1,3.2,0.4,4.7,1.2c0.8,0.5,1.2,0.9,0.5,1.7c-0.2,0.2-0.3,0.5-0.4,0.8
		c-0.3,0.8-0.7,1-1.5,0.5c-1.1-0.8-2.4-1.1-3.8-1.1c-0.8,0-1.7,0.2-1.8,1.1c-0.2,0.9,0.7,1.3,1.4,1.6c1.3,0.5,2.7,0.9,4,1.5
		c2.1,0.9,2.9,2.1,2.8,3.9c-0.1,1.7-1.4,3.3-3.2,3.8c-3.1,0.8-6.1,0.2-8.9-1.2c-0.5-0.3-0.5-0.6-0.3-1c0.1-0.2,0.3-0.4,0.3-0.6
		c0.5-1.4,1.1-1.9,2.5-0.9c1.2,0.8,2.6,1,4,0.9c0.8,0,1.6-0.2,1.8-1.1c0.2-1-0.6-1.2-1.3-1.4c-1.2-0.5-2.3-0.8-3.5-1.3
		c-2.6-1-3.6-2.4-3.3-4.6c0.3-1.8,2.3-3.4,4.5-3.6C189.8,326.3,190.3,326.3,190.8,326.3z"/>
	<path fill="#FAFCFC" d="M74.5,337.3c-0.2,1.2-0.4,2.2-0.6,3.2c-0.1,0.3-0.3,0.5-0.5,0.7c-2.4,1.6-5.9-0.1-6.1-2.9
		c-0.1-2.4-0.1-4.8,0-7.2c0-1-0.3-1.4-1.3-1.2c-1.8,0.4-1.3-0.9-1.4-1.8c-0.1-1.2,0.1-1.9,1.5-1.6c1,0.2,1.2-0.3,1.2-1.2
		c0-2.6,0-2.6,2.5-3.5c0.7-0.2,0.8,0,0.8,0.6c0,1,0,2,0,3c0,0.8,0.3,1.1,1.1,1c0.4,0,0.8,0.1,1.2,0c1.3-0.2,1.6,0.4,1.6,1.6
		c-0.1,1.8,0,1.8-1.9,1.8c-1.9,0-1.9,0-1.9,1.9c0,1.4,0,2.9,0,4.3c0,2.2,1.2,2.9,3.2,1.8C74,337.6,74.2,337.5,74.5,337.3z"/>
	<path fill="#FAFCFC" d="M210.5,337.3c-0.1,0.6-0.2,1.1-0.3,1.5c-0.5,2.5-1.2,3.1-3.8,2.8c-1.8-0.2-3.2-1.7-3.2-3.6c0-2.3,0-4.6,0-6.9
		c0-1-0.2-1.5-1.2-1.3c-1.4,0.3-1.6-0.5-1.5-1.6c0.1-1-0.2-2.1,1.4-1.8c1,0.2,1.3-0.3,1.3-1.3c0-2.6,0-2.6,2.5-3.4
		c0.6-0.2,0.9-0.2,0.9,0.5c0,1.1,0,2.1,0,3.2c0,0.7,0.2,1.1,1,1c0.3,0,0.7,0,1,0c1.5-0.3,1.9,0.3,1.8,1.8c0,1.2-0.3,1.8-1.6,1.7
		c-2.1-0.1-2.1,0-2.1,2.2c0,1.3,0,2.7,0,4c0,2.2,1,2.8,3,1.8C209.9,337.7,210.1,337.6,210.5,337.3z"/>
	<path fill="#FAFCFC" d="M115.3,337.3c-0.1,0.6-0.2,1-0.3,1.4c-0.2,3-1.3,2.9-3.7,2.8c-1.9,0-3.2-1.6-3.2-3.7c0-2.3-0.1-4.6,0-6.9
		c0-0.9-0.3-1.4-1.2-1.2c-1.4,0.3-1.6-0.5-1.5-1.6c0-1-0.1-2.1,1.5-1.8c1.1,0.2,1.2-0.4,1.2-1.3c0-0.9-0.6-2,0.8-2.6
		c2.7-1.2,2.6-1.3,2.6,1.6c0,2.3,0,2.4,2.4,2.3c2-0.1,1.2,1.3,1.4,2.2c0.2,1.2-0.5,1.3-1.4,1.3c-2.3,0-2.3,0-2.3,2.3
		c0,1.3,0,2.7,0,4c0,2,1,2.7,2.9,1.8C114.6,337.8,114.8,337.6,115.3,337.3z"/>
	<path fill="#FAFCFC" d="M147.2,36.1c2.1-1.7,3.9-2.4,6.1-1.7c0.9,0.3,1.5,0.7,1,1.8c-0.1,0.3-0.2,0.6-0.3,1c-0.3,1.1-0.1,2.6-2.2,1.3
		c-1.5-0.9-3.6,0.4-4.2,2.2c-0.2,0.7-0.3,1.4-0.3,2.1c0,2.6,0,5.2,0,7.8c0,0.7-0.2,1-1,1c-2.9,0.1-2.9,0.2-2.9-2.7
		c0-4.4,0-8.7,0-13.1c0-1,0.2-1.5,1.3-1.3c0.3,0.1,0.7,0,1,0C146.7,34.4,147.8,34.2,147.2,36.1z"/>
	<path fill="#FAFCFC" d="M45,43.1c0,2.4,0,4.8,0,7.2c0,0.9-0.2,1.4-1.2,1.4c-2.7,0-2.7,0-2.7-2.7c0-4.4,0-8.8,0-13.1
		c0-1.1,0.3-1.4,1.4-1.4c2.6,0.1,2.6,0,2.6,2.6C45,39,45,41,45,43.1z"/>
	<path fill="#FAFCFC" d="M43.1,28.9c1.2,0,2.2,0.9,2.2,2.2c0,1.2-0.9,2.2-2.2,2.2c-1.3,0-2.3-0.9-2.3-2.2
		C40.8,29.8,41.8,28.9,43.1,28.9z"/>
	<path fill="#C10117" d="M171.9,196.6c2.2,0,4.4-0.1,6.6,0c4.2,0.3,8.2,1.2,11.9,3.2c1.5,0.8,2.9,1.8,3.8,3.3c0.7,1.2,1.4,0.4,2,0.1
		c0.9-0.3,0.5-0.9,0.3-1.4c-2.2-5.4-4.3-10.9-6.5-16.3c-2-4.9-4-9.9-5.9-14.9c-0.4-1-0.9-1.3-1.9-1.4c-6.1-0.7-12.2-1.5-18.3-2.1
		c-6.1-0.7-12.1-1.3-18.2-1.8c-7.8-0.6-15.5-1.2-23.3-1.3c-1,0-1.3-0.2-1.3-1.2c0-1.9-0.1-3.8-0.2-5.8c-0.1-0.9,0.1-1.2,1.1-1.2
		c7.9,0.1,15.9,0.5,23.8,1.1c5.5,0.4,10.9,0.8,16.4,1.3c8.4,0.9,16.8,1.5,25.1,2.8c0.9,0.1,1.2,0.5,1.5,1.2
		c5.4,13.8,10.9,27.6,16.3,41.4c0.4,1,0.9,1.6,1.9,2.1c6.3,3.3,10.9,7.9,11.9,15.2c0.7,5.1,0.5,10.2,0.2,15.3
		c-0.3,6.1-0.8,12.1-1.3,18.1c-0.1,1.5-0.5,2.8-1.6,4c-3.2,3.5-6.3,7.1-9.4,10.7c-0.5,0.5-0.9,1-1.7,0.8c-1.1-0.2-1.4,0.3-1.4,1.3
		c0,8.7,0,17.4,0,26.1c0,1,0,2-0.2,3c-0.5,1.6-1.2,2.2-2.9,2.2c-5.7,0-11.4,0-17,0c-1.7,0-2.7-0.8-3-2.5c-0.1-0.8-0.1-1.5-0.1-2.3
		c0-8.8,0-17.5,0-26.3c0-1.3-0.3-1.7-1.6-1.7c-23.8,0-47.6,0-71.5,0.1c-1.4,0-1.6-0.4-1.4-1.7c1.6-13.2,2.6-26.5,3.1-39.8
		c0.3-8.1,0.5-16.2,0.5-24.4c0-1.2,0.3-1.5,1.5-1.5c8.2-0.3,16.4-0.3,24.5,0c0.5,0,0.9-0.1,1.3-0.4c4.3-4.1,9.6-5.4,15.3-5.8
		c2.9-0.2,5.9,0,8.8,0c0-0.1,0.1-0.3,0.1-0.4c-0.8-0.8-1.7-1.6-2.5-2.4c-3.4-3.4-4.3-8.2-2.4-12.7c1.7-4.1,6.1-6.9,10.6-6.9
		c4.7,0,9,3,10.7,7.4c1.7,4.5,0.5,9.5-3,12.6c-0.8,0.7-1.7,1.4-2.5,2.1C171.8,196.3,171.9,196.5,171.9,196.6z M198.6,245.5
		c8.4,0,14.8-6.6,14.7-15.2c-0.1-8.3-7.3-14.6-15.1-14.3c-7.9,0.2-14.5,6.8-14.4,14.9C183.8,239,190.4,245.6,198.6,245.5z"/>
	<path fill="#C10117" d="M59,285.2c0,4.3,0,8.6,0,12.8c0,0.8,0,1.6-0.2,2.4c-0.4,1.4-1.3,2.2-2.8,2.1c-5.7,0-11.5,0-17.2,0
		c-1.7,0-2.7-0.9-2.9-2.6c-0.1-0.8-0.1-1.5-0.1-2.3c0-8.8,0-17.5,0-26.3c0-1.1-0.2-1.8-1.4-1.5c-0.7,0.1-1.1-0.3-1.6-0.8
		c-3.4-3.9-6.8-7.8-10.2-11.7c-0.4-0.5-0.7-1-0.8-1.7c-1.2-9.4-2.1-18.8-2.4-28.3c-0.2-7.8,3.4-13.5,8.9-18.4
		c1.4-1.3,2.9-2.5,4.6-3.4c0.7-0.4,1.1-1,1.4-1.7c2.9-7.4,5.9-14.8,8.7-22.3c0.8-2.1,2.2-1.1,3.4-1.3c1.3-0.2,2.7,0.2,4.1,0
		c1.2-0.2,1,0.2,0.7,1c-2.9,7.4-5.8,14.7-8.7,22.1c-0.7,1.7-0.4,2.2,1.5,2.1c3.7-0.2,7.5-0.4,11.2-0.7c1-0.1,1.2,0.3,1.4,1.1
		c1.7,8.6,3.1,17.2,4.6,25.8c0.2,1,0,1.8-0.8,2.6c-1.2,1.2-1.6,2.8-1.6,4.5c0,1,0.5,1.5,1.5,1.5c4.5,0,9,0,13.4,0
		c0.8,0,1.1-0.2,1.1-1c0.1-2.4,0-4.7-1.5-6.8c-0.9-1.2-1.2-2.7-1.2-4.2c0-7.7,0-15.3,0-23c0-1.1,0.2-1.6,1.4-1.5c1,0.1,2,0,3-0.1
		c0.9-0.1,1.2,0.2,1.1,1.1c-0.1,1.7,0,3.4,0,5.1c0,1,0.3,1.5,1.3,1.3c1.1-0.2,1.4,0.3,1.3,1.3c-0.1,1.1,0,2.3,0,3.5
		c0,1.7,0.2,3.3-1.6,4.5c-1.3,0.8-1.5,2.6-1.5,4.2c0,14.5,0,29.1,0,43.6c0,1.4-0.4,1.7-1.7,1.6c-5.1-0.1-10.1,0-15.2-0.1
		c-1.2,0-1.4,0.3-1.4,1.5C59,276,59,280.6,59,285.2z M42,245.5c7.7,0.3,15.1-6.7,14.9-14.5c-0.2-9.2-5.3-14.3-14-15
		c-7.6-0.6-15.7,5.3-15.6,14.7C27.5,239.4,32.5,245.1,42,245.5z"/>
	<path fill="#0474B9" d="M192,198c-4.4-2.6-9.2-3.4-14.4-3.9c2.8-4,3.6-8.2,2.3-12.7c-0.9-3.1-2.7-5.5-5.3-7.3
		c-5.1-3.6-12.3-3.2-17,0.8c-4.3,3.7-7.2,11.1-2.4,18.8c-2.2,0.2-4.4,0.4-6.6,0.7c-4.7,0.6-9.1,2.1-12.7,5.3c-0.5,0.4-1,0.5-1.6,0.5
		c-3.4-0.1-6.7-0.2-10.1-0.2c-4.5,0-9,0.1-13.6,0.2c-1,0-1.3-0.3-1.3-1.3c-0.1-5.6-0.2-11.2-0.4-16.7c0-1.3,0.4-1.8,1.6-1.8
		c4.3,0,8.7-0.1,13,0c1.3,0,1.8-0.4,1.7-1.7c-0.1-0.6,0-1.2,0-1.7c0-0.8,0.2-1.7-0.1-2.3c-0.4-0.6-1.3-0.2-2-0.3
		c-0.3,0-0.5-0.1-0.7-0.4c-1.3-2.2-1.3-4.7-1.2-7.1c0-0.7,0.7-0.5,1.1-0.5c4.5,0.2,8.9,0.4,13.4,0.7c11,0.7,22,1.8,32.9,3
		c4.1,0.5,8.1,1,12.2,1.5c0.6,0.1,1,0.2,1.2,0.8c3.3,8.3,6.6,16.7,10,25C192,197.5,192,197.7,192,198z"/>
	<path fill="#C10117" d="M87.9,246.4c0-7.2,0-14.3,0-21.5c0-2.1-0.5-3.9-2.3-5.2c-0.5-0.3-0.5-0.7-0.5-1.2c0-2,0.1-4,0-6.1
		c0-1,0.3-1.3,1.2-1.2c1.4,0.3,1.7-0.5,1.6-1.7c-0.1-1.7,0-3.5,0-5.2c0-0.5-0.1-1.1,0.7-1.1c0.8,0,0.7,0.6,0.7,1
		c0.2,4.1,0.7,8.2,0.8,12.4c0.1,2.8,0.6,5.6,0.9,8.4c0.7,6.8,0.8,13.7,0.7,20.6c0,7.6,0,15.3,0,22.9c0,1.2-0.4,1.4-1.5,1.4
		c-2.4-0.1-2.4,0-2.4-2.5C87.9,260.5,87.9,253.4,87.9,246.4z"/>
	<path fill="#0474B9" d="M53.8,181.8c0.2,2.5,0.6,4.7,0.6,6.9c-0.1,4.3,0.4,8.4,1.2,12.6c0.2,0.9,0.1,1.1-0.9,1.2
		c-2.8,0.1-5.6,0.3-8.3,0.5c-0.8,0.1-1.1-0.1-0.8-1c2.6-6.5,5.2-13.1,7.8-19.6C53.4,182.3,53.5,182.2,53.8,181.8z"/>
	<path fill="#0474B9" d="M60.2,138.7c0,3.9,0,7.8,0,11.6c0,2.1,0,4.1,0.1,6.2c0,0.8-0.2,1.2-1.1,1.2c-1.4,0.1-2.8,0.3-4.1,0.5
		c-0.7,0.1-0.9-0.1-0.7-0.8c1.3-6.4,3.1-12.7,5.5-18.8C59.8,138.7,59.9,138.7,60.2,138.7z"/>
	<path fill="#0474B9" d="M77.7,194.3c0,2,0,4,0,6c0,0.8-0.2,1.1-1,1.1c-1.2,0-2.4,0-3.6,0.2c-0.8,0.1-1-0.3-1-1c0-1.9,0-3.8,0-5.8
		c0-0.5,0.1-0.9,0.4-1.3c1.3-1.9,2.6-3.8,3.9-5.7c0.2-0.3,0.4-0.8,0.9-0.6c0.5,0.2,0.4,0.6,0.4,1C77.8,190.2,77.7,192.2,77.7,194.3
		C77.7,194.3,77.7,194.3,77.7,194.3z"/>
	<path fill="#C10117" d="M54.8,172.1c-1.2-2.7-1.4-5.4-1.2-8.1c0.2-3.1,0.3-3.1,3.4-3.6c3.2-0.5,3.2-0.5,3.4,2.8c0.2,2.1-1,3.8-1.6,5.6
		c-0.1,0.2-0.2,0.4-0.5,0.4C56.2,169.1,55.1,170,54.8,172.1z"/>
	<path fill="#C10117" d="M103.5,159.7c-0.2-3.4-0.2-3.4,3.4-3.5c2.4-0.1,2.4-0.1,2.8,2.3c0.2,1.6,0.4,3.1,0.6,4.7
		c0.1,0.8-0.1,1.2-1.1,1.2c-1.5,0-3.1,0.1-4.6,0.3c-0.6,0-0.9-0.1-1-0.8C103.3,162.5,103.6,161.2,103.5,159.7z"/>
	<path fill="#0474B9" d="M103.2,137.7c1.7,3.8,3,7.3,4.1,10.9c0.4,1.4,0.8,2.8,1.2,4.1c0.2,0.7,0.1,1-0.7,1c-1.1,0-2.3,0.1-3.4,0.2
		c-0.6,0.1-1,0-1-0.8c-0.1-4.8-0.2-9.7-0.3-14.5C103.1,138.4,103.1,138.3,103.2,137.7z"/>
	<path fill="#0474B9" d="M110.3,168.2c-0.2,2-0.4,4.1-1.2,5.9c-0.2,0.4-0.3,0.9-0.9,0.8c-0.4-0.1-0.5-0.6-0.6-0.9
		c-0.9-2.2-2.1-4.2-3.3-6.2c-0.4-0.7-0.3-0.9,0.5-0.9c1.5-0.1,3.1-0.1,4.6-0.3C110.8,166.6,110.2,167.6,110.3,168.2z"/>
	<path fill="#0474B9" d="M88,196.1c0.6,1.4,0.6,2.8,0.9,4.2c0.1,0.3,0,0.6-0.4,0.6c-0.4,0-0.4-0.3-0.4-0.6C88,199,88,197.6,88,196.1z"
		/>
	<path fill="#0474B9" d="M168.4,45.9c0.4,1.3-0.4,1.8-1.5,2c-1,0.2-2,0.5-3,0.2c-1.3-0.4-2-1.2-1.9-2.5c0.1-1.3,1-2.1,2.2-2.2
		c0.8-0.1,1.7,0,2.5,0.2C168,43.9,168.8,44.5,168.4,45.9z"/>
	<path fill="#0474B9" d="M189.5,45.8c0.3,1.4-0.5,2-1.7,2.2c-0.9,0.2-1.9,0.4-2.8,0.1c-1.2-0.4-2.1-1.4-1.9-2.5c0.2-1.3,1-2,2.3-2.2
		c1.2-0.2,2.4,0.1,3.5,0.6C189.8,44.3,189.5,45.1,189.5,45.8z"/>
	<path fill="#0474B9" d="M156.2,333.9c0,0.5,0,1,0,1.4c0.1,1.3-0.2,2.2-1.6,2.6c-1.3,0.4-2.7-0.1-3.4-1.3c-1-1.9-1-3.8,0.1-5.6
		c0.7-1.2,1.9-1.5,3.3-1.2c1.3,0.3,1.8,1.2,1.6,2.6C156.2,332.9,156.2,333.4,156.2,333.9z"/>
	<path fill="#0474B9" d="M59.2,41c-0.4,0-0.9,0-1.3,0c-0.5-0.1-1.2,0.3-1.5-0.2c-0.3-0.6,0.3-1.2,0.6-1.7c0.7-0.9,1.6-1.3,2.8-1.1
		c1.3,0.2,1.9,1.1,2.4,2.2c0.2,0.6,0,0.8-0.6,0.8C60.9,41,60,41,59.2,41z"/>
	<path fill="#0474B9" d="M171.9,338.4c-1.6,0-2.8-1-2.7-2.3c0.1-1.2,1.3-2.1,2.8-2c1.8,0.1,2.8,0.8,2.9,1.9
		C175.1,337.8,174.3,338.4,171.9,338.4z"/>
	<path fill="#0474B9" d="M34.9,336.4c0,1.5-0.8,2-3,2c-1.6,0-2.7-0.9-2.7-2.2c0-1.2,1.1-2.2,2.6-2.2C33.8,334.1,34.9,334.9,34.9,336.4z
		"/>
	<path fill="#0474B9" d="M129.1,332.1c-1.6,0-3.2,0-4.7,0c-0.8,0-0.7-0.3-0.5-0.9c0.5-1.1,1.2-1.8,2.5-1.8
		C127.7,329.5,128.4,330.1,129.1,332.1z"/>
	<path fill="#0474B9" d="M88.5,334c-0.1,1.1-0.1,2.1-0.6,3c-0.5,0.9-1.3,1.4-2.3,1.4c-1.1,0-1.8-0.6-2.3-1.5c-0.9-2-0.9-4,0-6
		c0.4-0.9,1.2-1.4,2.3-1.5c1,0,1.7,0.5,2.2,1.3C88.5,331.8,88.5,332.9,88.5,334z"/>
	<path fill="#FAFCFC" d="M198.6,245.5c-8.2,0-14.8-6.5-14.9-14.7c-0.1-8,6.5-14.6,14.4-14.9c7.8-0.2,15,6,15.1,14.3
		C213.4,238.9,207,245.5,198.6,245.5z"/>
	<path fill="#FAFCFC" d="M42,245.5c-9.5-0.4-14.5-6.1-14.6-14.8c-0.1-9.5,8-15.3,15.6-14.7c8.7,0.7,13.7,5.8,14,15
		C57.1,238.9,49.7,245.8,42,245.5z"/>
</g>
</svg>
