<?xml version="1.0" encoding="UTF-8" standalone="no"?>
<svg version="1.1" xmlns="http://www.w3.org/2000/svg" id="Nederlands_verkeersbord_OB411-1,5km" width="300" height="100" viewBox="0 0 300 100"> 
	<g> 
		<rect id="wit_vlak" width="300" height="100" fill="#f7fbf5"> </rect>
		
		<text x="150" y="70" font-family="sans-serif" font-size="48" fill="black" font-weight="bold" text-anchor="middle">1,5 km</text>
		
		<path id="pijl_naar_beneden" style="fill:black;stroke:black;stroke-width:3" d="M 40,45 L 25,50 45,15 65,50 50,45 50,85 40,85 40,45"> </path>

		<path id="pijl_naar_boven" style="fill:black;stroke:black;stroke-width:3" d="M 250,45 L 235,50 255,15 275,50 260,45 260,85 250,85 250,45"> </path>

		
		<path id="zwarte_bies" style="fill:none;stroke:#808080;stroke-width:3" d="M 280,95 C 290,95 295,90 295,80 L 295,25 C 295,15 290,5 280,5 L 25,5 C 15,5 5,15 5,25 L 5,80 C 5,90 15,95 25,95 L 280,95 z"> </path>
	</g>
</svg>
