<?xml version="1.0" encoding="UTF-8" standalone="no"?>
<svg xmlns="http://www.w3.org/2000/svg" id="Netherlands_traffic_sign_OB55" width="300" height="150" viewBox="0 0 300 150" version="1.1">
<g>
	<rect id="surface" width="300" height="150" fill="#f7fbf5"/>
	<text x="150" y="40" font-family="sans-serif" font-size="32" font-weight="bold" fill="black" text-anchor="middle" lengthAdjust="spacingAndGlyphs">uitgezonderd</text>
	<rect id="border" x="5" y="5" rx="10" ry="10" width="290" height="140" stroke="gray" stroke-width="3px" fill="none"/>
	<g id="tractor" transform="scale(0.74) translate(60, -22)">
		<path style="fill:#2a2d2f" d="m 99,211 c 10,0 19,-8 19,-19 0,-10 -8,-19 -19,-19 -10,0 -19,8 -19,19 0,10 8,19 19,19"/>
		<path style="fill:#f7fbf5" d="m 99,200 c 4,0 8,-4 8,-8 0,-4 -4,-8 -8,-8 -4,0 -8,4 -8,8 0,4 4,8 8,8"/>
		<path style="fill:#2a2d2f" d="m 189,211 c 19,0 35,-16 35,-35 0,-19 -16,-35 -35,-35 -19,0 -35,16 -35,35 0,19 15,35 35,35"/>
		<path style="fill:#f7fbf5" d="m 189,196 c 11,0 20,-9 20,-20 0,-11 -9,-20 -20,-20 -11,0 -20,9 -20,20 0,11 9,20 20,20"/>
		<path style="fill:#2a2d2f" d="m 189,191 c 8,0 15,-7 15,-15 0,-8 -7,-15 -15,-15 -8,0 -15,7 -15,15 0,8 7,15 15,15"/>
		<path style="fill:#2a2d2f" d="m 216,149 c -7,-7 -16,-11 -27,-11 -21,0 -38,17 -38,38 0,3 0,5 1,8 l -33,0 c -3,-8 -11,-14 -20,-14 -6,0 -11,2 -15,6 l -8,0 0,-35 c 0,-4 4,-4 4,-4 l 59,0 9,-40 -1,-9 60,0 0,41 14,15 -5,5"/>
		<path style="fill:#f7fbf5" d="m 145,137 9,-40 c 0,0 44,0 44,0 l 0,32 -36,0 -6,8 -11,0"/>
	</g>
</g>
</svg>
