<?xml version="1.0" encoding="UTF-8" standalone="no"?>
<svg xmlns="http://www.w3.org/2000/svg" version="1.1" id="Netherlands_traffic_sign_OB54" width="300" height="150" viewBox="0 0 300 150">
<g>
	<rect id="surface" width="300" height="150" fill="#f7fbf5"> </rect>
	<rect id="border" x="5" y="5" rx="10" ry="10" width="290" height="140" stroke="gray" stroke-width="3px" fill="none"/>
	<text x="150" y="40" font-family="sans-serif" font-size="32" font-weight="bold" fill="black" text-anchor="middle" lengthAdjust="spacingAndGlyphs">uitgezonderd</text>
	<g id="bicycle" transform="scale(0.75) translate(-45, -20)">
		<circle cx="96" cy="168" r="30" stroke="black" stroke-width="8" fill="#f7fbf5"/>
		<circle cx="206" cy="168" r="30" stroke="black" stroke-width="8" fill="#f7fbf5"/>
		<path fill="#2a2d2f" d="M 142,98 L 142,90 L 127,90 C 120,90 118,98 118,98 C 114,112 94,166 94,166 C 92,171 100,174 102,169 C 104,164 126,102 126,102 C 127,98 132,98 132,98 L 142,98"/>
		<polyline points="206,168 182,115 117,115 " style="stroke-linecap:round;fill:none;stroke:black;stroke-width:8"/>
		<polyline points="206,168 156,168 116,126 " style="stroke-linecap:round;fill:none;stroke:black;stroke-width:8"/>
		<polyline points="156,168 184,103" style="stroke-linecap:round;fill:none;stroke:black;stroke-width:8"/>
		<polyline points="168,103 194,103" style="stroke-linecap:round;fill:none;stroke:black;stroke-width:8"/>
	</g>
	<g id="moped" transform="scale(0.75) translate(145, -17)">
		<path fill="#2a2d2f" d="M 207,199 C 224,199 239,185 239,167 C 239,149 224,135 207,135 C 189,135 175,149 175,167 C 175,185 189,199 207,199"/>
		<path fill="#f7fbf5" d="M 207,188 C 218,188 228,179 228,167 C 228,155 218,146 207,146 C 195,146 185,155 185,167 C 185,179 195,188 207,188"/>
		<path fill="#2a2d2f" d="M 95,199 C 113,199 127,185 127,167 C 127,149 113,135 95,135 C 77,135 63,149 63,167 C 63,185 77,199 95,199"/>
		<path fill="#f7fbf5" d="M 95,188 C 107,188 116,179 116,167 C 116,155 107,146 95,146 C 83,146 73,155 73,167 C 73,179 83,188 95,188"/>
		<path fill="#2a2d2f" d="M 142,92 L 128,92 C 128,92 121,91 117,101 L 90,166 C 90,166 88,171 92,172 C 96,174 100,168 100,168 L 128,103 L 142,103 L 142,92"/>
		<path fill="#2a2d2f" d="M 118,115 L 142,116 L 152,131 L 144,153 L 150,162 L 208,162 C 208,162 213,162 213,166 C 213,171 208,172 208,172 L 151,172 C 151,172 144,174 139,165 C 139,165 116,126 115,126 C 115,126 118,115 118,115"/>
		<path fill="#2a2d2f" d="M 229,116 L 230,128 L 199,130 C 199,130 192,131 188,135 C 185,140 180,138 179,135 C 177,131 171,121 171,121 C 171,121 169,116 176,116 L 229,116"/>
		<path fill="#2a2d2f" d="M 96,136 L 96,129 C 96,129 86,128 81,131 L 84,137 L 96,136"/>
	</g>
</g>
</svg>
