<?xml version="1.0" encoding="UTF-8" standalone="no"?>
<svg version="1.1" xmlns="http://www.w3.org/2000/svg" id="Nederlands_verkeersbord_OB505" width="300" height="100" viewBox="0 0 300 100"> 
	<g> 
		<rect id="wit_vlak" width="300" height="100" fill="#f7fbf5"> </rect>

		<path id="pijl_naar_beneden" style="fill:black;stroke:black;stroke-width:3" d="M 70,55 L 50,50 75,85 100,50 80,55 80,15 70,15 70,55"> </path>
		
		<path id="pijl_naar_boven" style="fill:black;stroke:black;stroke-width:3" d="M 220,45 L 200,50 225,15 250,50 230,45 230,85 220,85 220,45"> </path>
		
		<path id="zwarte_bies" style="fill:none;stroke:#808080;stroke-width:3" d="M 280,95 C 290,95 295,90 295,80 L 295,25 C 295,15 290,5 280,5 L 25,5 C 15,5 5,15 5,25 L 5,80 C 5,90 15,95 25,95 L 280,95 z"> </path>
	</g>
</svg>
