<?xml version="1.0" encoding="UTF-8" standalone="no"?>
<svg xmlns="http://www.w3.org/2000/svg" version="1" id="Netherlands_traffic_sign_OB52" width="300" height="150" viewBox="0 0 300 150"> 
<g>
	<rect id="white_surface" width="300" height="150" fill="#f7fbf5"> </rect>
	<rect id="border" x="5" y="5" rx="10" ry="10" width="290" height="140" stroke="gray" stroke-width="3px" fill="none"/>
	<text x="150" y="40" font-family="sans-serif" font-size="32" font-weight="bold" fill="black" text-anchor="middle" lengthAdjust="spacingAndGlyphs">uitgezonderd</text>
	<g id="fiets" transform="scale(0.8) translate(40, -30)">
		<circle cx="96" cy="168" r="30" stroke="black" stroke-width="8" fill="#f7fbf5"/>
		<circle cx="206" cy="168" r="30" stroke="black" stroke-width="8" fill="#f7fbf5"/>
		<path d="M 142,98 L 142,90 L 127,90 C 120,90 118,98 118,98 C 114,112 94,166 94,166 C 92,171 100,174 102,169 C 104,164 126,102 126,102 C 127,98 132,98 132,98 L 142,98"/>
		<polyline points="206,168 182,115 117,115 " style="stroke-linecap:round;fill:none;stroke:black;stroke-width:8"/>
		<polyline points="206,168 156,168 116,126 " style="stroke-linecap:round;fill:none;stroke:black;stroke-width:8"/>
		<polyline points="156,168 184,103" style="stroke-linecap:round;fill:none;stroke:black;stroke-width:8"/>
		<polyline points="168,103 194,103" style="stroke-linecap:round;fill:none;stroke:black;stroke-width:8"/>
	</g>
</g>
</svg>
