<?xml version="1.0" encoding="UTF-8" standalone="no"?>
<svg xmlns="http://www.w3.org/2000/svg" version="1.1" id="Netherlands_traffic_sign_OB57" width="300" height="150" viewBox="0 0 300 150"> 
<g>
	<rect id="surface" width="300" height="150" fill="#f7fbf5"> </rect>
	<rect id="border" x="5" y="5" rx="10" ry="10" width="290" height="140" stroke="gray" stroke-width="3px" fill="none"/>
	<text x="150" y="40" font-family="sans-serif" font-size="32" font-weight="bold" fill="black" text-anchor="middle" lengthAdjust="spacingAndGlyphs">uitgezonderd</text>
	<g id="motor_cycle" transform="scale(0.5) translate(-20, 50)">
		<circle cx="96" cy="178" r="26" stroke="black" stroke-width="12" fill="#f7fbf5"/>
		<circle cx="206" cy="178" r="26" stroke="black" stroke-width="12" fill="#f7fbf5"/>
		<path style="fill:#2a2d2f" d="m 107,128 31,-34 c 6,-7 17,-9 22,-2 5,7 25,33 25,33 9,14 -1,24 -6,24 -12,0 -32,0 -32,0 l 23,26 -6,10 -34,-35 c -4,-3 -3,-13 3,-14 6,-1 26,-7 26,-7 l -18,-19 -26,23 -6,-6"/>
		<path style="fill:#2a2d2f" d="m 152,85 c -5,0 -10,2 -14,6 l -1,1 -12,0 0,-9 10,0 0,-6 -10,0 c 0,-23 30,-22 30,0 0,3 -3,8 -3,8"/>
	</g>
	<g id="car" transform="scale(0.75) translate(110, -40)">
		<circle cx="88" cy="200" r="14" stroke="black fill:none"/>
		<circle cx="224" cy="200" r="14" stroke="black fill:none"/>
		<path id="frame" fill="#2a2d2f" d="M45,190 L70,200 a18,18 0 0,1 36,0 h100 a18,18 0 0,1 36,0 L270,190 v-22 l-25,-10 l-15,-30 h-90 l-30,30 l-60,10 z"/>
		<path id="windowFront" fill="#f7fbf5" d="M120,160 h60 v-27 h-35 z"/>
		<path id="windowRear" fill="#f7fbf5" d="M186,160 h50 l-12,-27 h-38 z"/>
	</g>
</g>
</svg>
