<?xml version="1.0" encoding="UTF-8" standalone="no"?>
<svg version="1.1" xmlns="http://www.w3.org/2000/svg" id="Nederlands_verkeersbord_OB701" width="200" height="200" viewBox="0 0 200 200"> 
	<g> 
		<rect id="wit_vlak" width="200" height="200" fill="#f7fbf5"> </rect>

		<path id="zwarte_hoek" style="fill:black;stroke:black;stroke-width:3" d="M 15,80 L 15,100 70,100 C 100,100  100,100 100,130  L 100,185 120,185 120,100 C 120,100 120,80 90,80 z"> </path>
  
		<path id="zwarte_streep_verticaal" style="fill:black;stroke:black;stroke-width:3" d="M 105,15 L 105,60 115,60 115,15 z"> </path>
  
		<path id="zwarte_hoek_streep_horizontaal" style="fill:black;stroke:black;stroke-width:3" d="M 140,85 L 140,95 185,95 185,85 z"> </path>		
		
		<path id="zwarte_bies" style="fill:none;stroke:black;stroke-width:3" d="M 175,195 L 25,195Q 5,195 5,175 L 5,25 Q 5,5 25,5 L 175,5Q 195,5 195,25 L 195,175Q 195,195 175,195 z"> </path>

	</g>
	
</svg>
