<?xml version="1.0" encoding="UTF-8" standalone="no"?>
<svg version="1.1" xmlns="http://www.w3.org/2000/svg" id="Nederlands_verkeersbord_OB503" width="300" height="100" viewBox="0 0 300 100"> 
	<g> 
		<rect id="wit_vlak" width="300" height="100" fill="#f7fbf5"> </rect>

		<path id="pijl_naar_rechts" style="fill:black;stroke:black;stroke-width:3" d="M 105,45 L 40,45 40,55 105,55 100,75 140,50 100,25 105,45"> </path>
		<path id="pijl_naar_links" style="fill:black;stroke:black;stroke-width:3" d="M 195,45 L 260,45 260,55 195,55 200,75 160,50 200,25 195,45"> </path>
		
		<path id="zwarte_bies" style="fill:none;stroke:#808080;stroke-width:3" d="M 280,95 C 290,95 295,90 295,80 L 295,25 C 295,15 290,5 280,5 L 25,5 C 15,5 5,15 5,25 L 5,80 C 5,90 15,95 25,95 L 280,95 z"> </path>
	</g>
</svg>
