<?xml version="1.0" standalone="no"?>
<svg id="Collage_Nederlandse_verkeersborden_by_Bouwe_Brouwer" width="480" height="480" viewBox="0 0 480 480"
xmlns="http://www.w3.org/2000/svg" version="1.1">

<g id="verkeersbord_B1" transform="translate(180,0)">

<path id="wit_vlak_met_zwarte_rand"
	style="fill:#f7fbf5;stroke:#2a2d2f;stroke-width:8.38;fill-opacity:1"
	d="M 292.43043,158.12034 C 296.93833,153.65636 296.93833,146.33474 292.43043,141.86189 L 158.14285,7.5699063 C 153.63495,3.0615563 146.35841,3.0615563 141.85051,7.5699063 L 7.5629237,141.86189 C 3.0638949,146.33474 3.0638949,153.65636 7.5629237,158.12034 L 141.85051,292.45669 C 146.35841,296.92954 153.63495,296.92954 158.14285,292.45669 L 292.43043,158.12034" />
	
<path id="geel_vlak" style="fill:#f0ca00;stroke:none;fill-opacity:1"
	d="M 248,150 L 150,52 L 52,150 L 150,248 L 248,150" />

</g>

<g id="verkeersbord_J16" transform="translate(0,0)">

<path id="rode_driehoek" fill="#c1121c"
     d="M 11,300 C 11,300 27.820331,300 11,300 C -3.9165388,300 3.7804912,283.85305 3.7804912,283.85305 L 164.90679,8.074496 C 164.90679,8.074496 161.40064,14.190767 164.90679,8.074496 C 171.16011,-2.85324 179.31089,-2.372093 185.11873,7.601505 L 346.21203,283.85305 C 346.21203,283.85305 353.91732,300 339,300 C 322.17219,300 339,300 339,300 L 11,300" />

<path id="witte_driehoek" fill="#f7fbf5"
     d="M 175.483,73.698 L 283.20852,259.57553 L 66.297261,259.57553 L 175.483,73.698" />

<g id="symbool_werk_in_uitvoering">

<path fill="#2a2d2f"
       d="M 261.23527,250.91189 L 220.82909,202.89056 C 216.02385,196.73996 210.26599,195.30649 204.00231,206.24089 L 195.84183,221.4507 C 195.84183,221.4507 193.43078,225.2594 189.57816,225.70944 C 189.57816,225.70944 186.7203,222.39246 180.45662,233.81857 L 171.30137,250.91189 L 261.23527,250.91189" />

<path fill="#2a2d2f"
       d="M 169.39615,251.17025 L 171.30137,219.30049 C 171.30137,219.30049 171.07376,214.09165 169.39615,210.02459 L 165.04614,197.90674 L 197.2834,215.97516 L 198.0084,214.55003 L 177.32901,202.17382 L 177.32901,168.90392 C 177.32901,156.79441 171.79876,153.44409 158.32723,154.41918 L 146.04436,155.81932 C 146.04436,155.81932 142.68912,156.53605 140.77545,159.62802 L 128.03735,178.41318 L 140.05045,185.08049 L 116.01581,251.39527 L 122.49868,251.39527 L 149.66936,205.26579 L 160.73828,219.07547 L 163.36852,251.17025 L 169.39615,251.17025" />

<path fill="#2a2d2f"
       d="M 179.24268,136.74246 C 173.64499,136.74246 169.10108,141.2679 169.10108,146.80177 C 169.10108,152.33564 173.64499,156.86108 179.24268,156.86108 C 184.87408,156.86108 189.41798,152.33564 189.41798,146.80177 C 189.41798,141.2679 184.87408,136.74246 179.24268,136.74246" />

<path fill="#f7fbf5"
       d="M 168.44353,197.19834 L 160.96589,192.6729 L 167.94615,183.38866 L 168.44353,197.19834" />

<path fill="#f7fbf5"
       d="M 141.7365,182.44691 L 136.19783,179.12992 L 144.86412,166.52869 L 151.34699,166.29533 L 141.7365,182.44691" />

</g>

</g>

<g id="verkeersbord_G11" transform="translate(180,180)">

<circle id="blauwe_cirkel" cx="150" cy="150" r="150" fill="#0e518d" />

<g id="fiets">
<path fill="#f7fbf5"
	d="M 40.13024,168.25261 C 40.13024,144.4042 59.47123,125.06102 83.31697,125.06102 C 107.16273,125.06102 126.47002,144.4042 126.47002,168.25261 C 126.47002,192.10103 107.16273,211.4105 83.31697,211.4105 C 59.47123,211.4105 40.13024,192.10103 40.13024,168.25261 z M 83.24961,200.78318 C 101.24339,200.78318 115.84386,186.18106 115.84386,168.18523 C 115.84386,150.18948 101.24339,135.58738 83.24961,135.58738 C 65.25585,135.58738 50.65537,150.18948 50.65537,168.18523 C 50.65537,186.18106 65.25585,200.78318 83.24961,200.78318" />
<path fill="#f7fbf5"
	d="M 139.52961,83.418936 L 139.52961,72.858975 L 120.77803,72.858975 C 112.35793,72.858975 109.92452,83.418936 109.92452,83.418936 C 104.07254,100.12626 80.0584,168.0253 80.0584,168.0253 C 77.625,174.13897 87.35863,177.59154 89.66573,171.73897 C 91.93076,165.8863 119.36345,88.547344 119.36345,88.547344 C 121.24115,82.694764 126.6637,83.418936 126.6637,83.418936 L 139.52961,83.418936" />
<path fill="#f7fbf5"
	d="M 222.37504,162.92214 C 218.13973,153.77683 202.41099,120.12632 192.44999,98.745219 L 110.64865,98.745219 L 104.07254,116.14311 L 154.78685,173.4484 L 216.39678,173.4484 C 228.39543,173.4484 222.37504,162.92214 222.37504,162.92214" />
<path fill="#0e518d"
	d="M 210.93213,162.85475 C 203.89293,148.05893 193.43515,125.49049 185.96651,109.56627 L 111.92851,109.43995 L 159.35898,162.85475 L 210.93213,162.85475" />
<path fill="#f7fbf5"
	d="M 210.24168,83.418936 L 210.24168,91.839986 L 173.79945,91.705217 C 167.51806,91.705217 167.38334,83.418936 173.79945,83.418936 C 177.09172,83.418936 210.24168,83.418936 210.24168,83.418936" />
<path fill="#f7fbf5"
	d="M 175.01195,168.25261 C 175.01195,144.4042 194.35294,125.06102 218.19869,125.06102 C 242.01917,125.06102 261.35175,144.4042 261.35175,168.25261 C 261.35175,192.10103 242.01917,211.4105 218.19869,211.4105 C 194.35294,211.4105 175.01195,192.10103 175.01195,168.25261 z M 218.13973,200.78318 C 236.12509,200.78318 250.73399,186.18106 250.73399,168.18523 C 250.73399,150.18948 236.12509,135.58738 218.13973,135.58738 C 200.14597,135.58738 185.53708,150.18948 185.53708,168.18523 C 185.53708,186.18106 200.14597,200.78318 218.13973,200.78318" />
<path fill="#f7fbf5"
	d="M 162.18812,171.14948 L 200.21333,90.290476 L 190.67336,85.818943 L 152.52184,167.13266 L 162.18812,171.14948" />
</g>

<circle id="witte_bies" cx="150" cy="150" r="141.942"
	fill="none" stroke="#f7fbf5" stroke-width="6.736" />

</g>

</svg>