<svg xmlns="http://www.w3.org/2000/svg" width="240" height="370.63" viewBox="0 0 240 370.63"
 id="Nederlands_verkeersbord_E8f">
<defs>
<style>.cls-1{fill:#0374b9;}.cls-2{fill:#fdfdfd;}</style>
</defs>
<title>Middel 1</title>
<g id="Laag_2" data-name="Laag 2">
<g id="Laag_1-2" data-name="Laag 1">
<path class="cls-1" d="M0,0H240V370.63H0ZM234.48,185.42q0-78.16,0-156.31a19.57,19.57,0,0,0-.09-2.47,23.57,23.57,0,0,0-23.78-21q-90.62,0-181.25,0a22.17,22.17,0,0,0-4.2.37A23.6,23.6,0,0,0,5.59,29.71q0,108.56,0,217.12,0,47.17,0,94.34A23.59,23.59,0,0,0,29.46,365h181.1a23.47,23.47,0,0,0,23.92-23.86Q234.48,263.28,234.48,185.42Z"/>
<path class="cls-2" d="M234.48,185.42q0,77.87,0,155.73A23.47,23.47,0,0,1,210.56,365H29.46A23.59,23.59,0,0,1,5.6,341.17q0-47.17,0-94.34,0-108.56,0-217.12A23.6,23.6,0,0,1,25.15,6a22.17,22.17,0,0,1,4.2-.37q90.62,0,181.25,0a23.57,23.57,0,0,1,23.78,21,19.57,19.57,0,0,1,.09,2.47Q234.48,107.26,234.48,185.42Zm-220.59-.24q0,58,0,116.06,0,19.83,0,39.66c0,8.78,6.58,15.81,14.91,15.81q91.28,0,182.55,0a13.53,13.53,0,0,0,4.28-.7,15.3,15.3,0,0,0,10.63-15.09q0-155.58,0-311.15c0-9.14-6.64-15.85-15.79-15.86q-90.33,0-180.66,0a17.66,17.66,0,0,0-3.48.27C18.79,15.7,13.9,21.9,13.9,29.89Q13.89,107.54,13.89,185.18Z"/>
<path class="cls-1" d="M13.89,185.18q0-77.64,0-155.28c0-8,4.89-14.19,12.44-15.72a17.66,17.66,0,0,1,3.48-.27q90.33,0,180.66,0c9.15,0,15.79,6.72,15.79,15.86q0,155.58,0,311.15A15.3,15.3,0,0,1,215.63,356a13.53,13.53,0,0,1-4.28.7q-91.28.05-182.55,0c-8.33,0-14.91-7-14.91-15.81q0-19.83,0-39.66Q13.89,243.21,13.89,185.18Zm79.24-41.93h1.8q17.64,0,35.28,0c2.23,0,4.47-.07,6.69-.3,18.55-1.88,31.86-11.18,39.31-28.35,5.37-12.36,6-25.23,2.73-38.23a44.73,44.73,0,0,0-14.5-23.88c-9.22-7.83-20.09-11.24-32-11.31-22.4-.14-44.81,0-67.21,0-.51,0-1,.05-1.53.08v169H93.14Zm52.3,105.23c-.61,1.33-1.16,2.35-1.53,3.43s-1,1.39-2.17,1.38c-14.63,0-29.26,0-43.89,0-.5,0-1,0-1.66-.08.9-2.52,1.7-4.86,2.57-7.16a4.53,4.53,0,0,1,4.84-3.17q3.86.07,7.73,0c.38,0,1.06-.37,1.07-.58.08-2.21,0-4.43,0-6.77-4.05,0-7.89.13-11.71,0-4.24-.19-6.77,2.09-8,5.48-3,8.2-5.83,16.45-8.73,24.68-.78,2.22-1.58,4.44-2.38,6.69a30.64,30.64,0,0,0-13.8-.43c-18.11,3.63-28.54,23.46-21.33,40.51,5.78,13.66,20.19,20.78,34.82,17.21s24.51-18.78,21.76-33.59a29.78,29.78,0,0,0-13.73-20.39c-.35-.22-.76-.87-.66-1.17.6-2,1.34-3.9,2.09-6,.41.43.68.7.93,1q15.22,17.16,30.47,34.31a2.58,2.58,0,0,0,1.7.76c3.94.06,7.87.05,11.81,0,.9,0,1.26.24,1.4,1.17A29.64,29.64,0,1,0,159,272.22c-1,.25-1.43.08-1.86-.87-1.73-3.85-3.38-7.75-5.4-11.44-1.48-2.69-1.75-5.06,0-7.63a13.88,13.88,0,0,0,1.32-2.76,1.35,1.35,0,0,1,1.54-1c2.07.08,4.15,0,6.26,0v-5.65a1.65,1.65,0,0,0-.46-.17c-8.31,0-16.62-.07-24.93.05a3.73,3.73,0,0,0-2.61,1.69c-1.07,1.84.38,3.87,2.73,3.93C138.77,248.54,141.93,248.48,145.44,248.48Z"/>
<path class="cls-2" d="M93.14,143.25v66.9H63.71V41.2c.5,0,1-.08,1.53-.08,22.4,0,44.81-.09,67.21,0,11.91.07,22.78,3.48,32,11.31A44.73,44.73,0,0,1,179,76.36c3.25,13,2.64,25.87-2.73,38.23-7.45,17.17-20.76,26.47-39.31,28.35-2.22.23-4.46.29-6.69.3q-17.64,0-35.28,0Zm-.32-27.81c.33,0,.52,0,.71,0,10.25,0,20.5.05,30.75,0a45.1,45.1,0,0,0,13.34-2c5.94-1.88,10.92-5,13.81-10.8,2.3-4.6,2.56-9.52,1.94-14.5-.86-6.92-4.25-12.17-10.55-15.39a38.79,38.79,0,0,0-17.32-3.9c-10.59-.17-21.18-.07-31.77-.08-.28,0-.56,0-.91,0Z"/>
<path class="cls-2" d="M145.44,248.48c-3.51,0-6.67.07-9.82,0-2.35-.06-3.8-2.1-2.73-3.93a3.73,3.73,0,0,1,2.61-1.69c8.31-.12,16.62-.07,24.93-.05a1.65,1.65,0,0,1,.46.17v5.65c-2.11,0-4.19.05-6.26,0a1.35,1.35,0,0,0-1.54,1,13.88,13.88,0,0,1-1.32,2.76c-1.79,2.57-1.53,4.93,0,7.63,2,3.69,3.67,7.59,5.4,11.44.43,1,.85,1.12,1.86.87a29.66,29.66,0,1,1-21.9,33.45c-.14-.93-.5-1.18-1.4-1.17-3.94,0-7.87.06-11.81,0a2.58,2.58,0,0,1-1.7-.76Q106.9,286.6,91.7,269.42c-.25-.28-.52-.55-.93-1-.75,2.11-1.49,4-2.09,6-.09.3.32.95.66,1.17A29.78,29.78,0,0,1,103.08,296c2.74,14.81-7.07,30-21.76,33.59s-29-3.55-34.82-17.21c-7.21-17.05,3.22-36.88,21.33-40.51a30.64,30.64,0,0,1,13.8.43c.8-2.25,1.6-4.47,2.38-6.69,2.9-8.23,5.75-16.48,8.73-24.68,1.23-3.39,3.76-5.67,8-5.48,3.82.17,7.66,0,11.71,0,0,2.34,0,4.56,0,6.77,0,.22-.69.57-1.07.58q-3.86.06-7.73,0A4.53,4.53,0,0,0,98.76,246c-.87,2.3-1.67,4.64-2.57,7.16.66,0,1.16.08,1.66.08,14.63,0,29.26,0,43.89,0,1.14,0,1.79-.27,2.17-1.38S144.83,249.81,145.44,248.48ZM79.18,279.24C68.49,276.07,56,283,52.56,293.8,48.83,305.54,55,318.24,66.23,322c12.11,4,24.57-1.89,28.71-13.68,4-11.45-2.19-22.4-9.08-26-.12.32-.25.63-.36.95-2.38,6.61-4.74,13.23-7.14,19.83a3.37,3.37,0,0,1-4.71,2.08,3.2,3.2,0,0,1-2-4.44c.87-2.57,1.8-5.12,2.71-7.68Zm65.29,25.29c.43,6.08,5.71,15.07,16,17.9a22.32,22.32,0,0,0,22.06-36.85c-6.45-6.77-16.28-8.16-21.53-6.07,1.88,4,3.79,8.07,5.64,12.12,1.22,2.68,2.5,5.36,3.48,8.13.78,2.23-.33,3.93-2.62,4.5a11.68,11.68,0,0,1-2.74.25c-6.22,0-12.44,0-18.66,0Zm-20.71-9.73,16-34.08H93.5Zm6.88,2.5c2.06,0,3.89,0,5.71,0,.25,0,.63-.65.69-1a28.19,28.19,0,0,1,7.3-15.11c2-2.13,4.37-3.93,6.68-6l-5-10.6Zm30.75-.07-7.12-15.11a22.47,22.47,0,0,0-10,15.11Z"/>
<path class="cls-1" d="M92.82,115.44V68.83c.35,0,.63,0,.91,0,10.59,0,21.18-.09,31.77.08a38.79,38.79,0,0,1,17.32,3.9c6.31,3.22,9.69,8.47,10.55,15.39.62,5,.36,9.9-1.94,14.5-2.89,5.78-7.87,8.92-13.81,10.8a45.1,45.1,0,0,1-13.34,2c-10.25.07-20.5,0-30.75,0C93.34,115.48,93.15,115.46,92.82,115.44Z"/>
<path class="cls-1" d="M79.18,279.24,74.33,293c-.9,2.56-1.83,5.11-2.71,7.68a3.2,3.2,0,0,0,2,4.44,3.37,3.37,0,0,0,4.71-2.08c2.41-6.6,4.76-13.22,7.14-19.83.11-.32.24-.63.36-.95,6.88,3.61,13.11,14.56,9.08,26C90.79,320.07,78.34,326,66.23,322,55,318.24,48.83,305.54,52.56,293.8,56,283,68.49,276.07,79.18,279.24Z"/>
<path class="cls-1" d="M144.47,304.53H146c6.22,0,12.44,0,18.66,0a11.68,11.68,0,0,0,2.74-.25c2.3-.57,3.41-2.26,2.62-4.5-1-2.78-2.26-5.45-3.48-8.13-1.85-4.05-3.75-8.08-5.64-12.12,5.26-2.09,15.08-.7,21.53,6.07a22.32,22.32,0,0,1-22.06,36.85C150.17,319.6,144.9,310.6,144.47,304.53Z"/>
<path class="cls-1" d="M123.75,294.79,93.5,260.71h46.25Z"/>
<path class="cls-1" d="M130.63,297.3,146,264.53l5,10.6c-2.31,2.05-4.67,3.86-6.68,6a28.19,28.19,0,0,0-7.3,15.11c-.06.39-.44,1-.69,1C134.52,297.34,132.69,297.3,130.63,297.3Z"/>
<path class="cls-1" d="M161.38,297.23H144.3a22.47,22.47,0,0,1,10-15.11Z"/>
</g>
</g>
</svg>