<?xml version="1.0" encoding="utf-8"?>
<!-- Generator: Adobe Illustrator 20.1.0, SVG Export Plug-In . SVG Version: 6.00 Build 0)  -->
<svg version="1.1" id="Laag_1" xmlns="http://www.w3.org/2000/svg" xmlns:xlink="http://www.w3.org/1999/xlink" x="0px" y="0px"
	 viewBox="0 0 960 560" style="enable-background:new 0 0 960 560;" xml:space="preserve">
<style type="text/css">
	.st0{fill:#0474B9;}
	.st1{fill:#FAFCFC;}
	.st2{fill:#C10117;}
</style>
<g>
	<path class="st0" d="M322.2,332.8c0-53,0-106,0-159.1c0-0.9,0.2-1.2,1.1-1.2c68.5,0,137,0,205.6,0c1.1,0,1.2,0.3,1.2,1.2
		c0,106.1,0,212.2,0,318.2c0,1-0.2,1.2-1.2,1.2c-68.5,0-137,0-205.4,0c-1.1,0-1.2-0.3-1.2-1.3C322.2,438.9,322.2,385.9,322.2,332.8z
		 M327.2,332.9c0,44.9,0,89.8,0,134.7c0,11.7,8.9,20.7,20.6,20.7c52.2,0,104.4,0,156.6,0c2,0,4-0.2,5.9-0.8c9-2.7,14.6-10.5,14.6-20
		c0-89.8,0-179.7,0-269.5c0-11.3-9-20.4-20.4-20.4c-52.3,0-104.5,0-156.8,0c-1.8,0-3.7,0.2-5.4,0.7c-9.2,2.6-15.1,10.4-15.1,20
		C327.2,243.2,327.2,288,327.2,332.9z"/>
	<path class="st1" d="M327.2,332.9c0-44.9,0-89.7,0-134.6c0-9.6,5.8-17.4,15.1-20c1.8-0.5,3.6-0.7,5.4-0.7c52.3,0,104.5,0,156.8,0
		c11.4,0,20.4,9,20.4,20.4c0,89.8,0,179.7,0,269.5c0,9.5-5.7,17.2-14.6,20c-1.9,0.6-3.9,0.8-5.9,0.8c-52.2,0-104.4,0-156.6,0
		c-11.7,0-20.6-9-20.6-20.7C327.2,422.7,327.2,377.8,327.2,332.9z M518.1,333.1c0-44.8,0-89.6,0-134.4c0-8.4-5.8-14.2-14.2-14.2
		c-51.8,0-103.6,0-155.4,0c-1.2,0-2.4,0.1-3.6,0.3c-6.6,1.4-10.8,6.9-10.8,14c0,89.5,0,179,0,268.5c0,1.2,0.1,2.3,0.3,3.5
		c1.4,6.6,6.8,10.7,13.9,10.7c51.9,0,103.8,0,155.7,0c1.4,0,2.8-0.1,4.2-0.5c6.1-1.8,9.9-6.9,9.9-13.3
		C518.1,422.8,518.1,377.9,518.1,333.1z"/>
	<path class="st0" d="M518.1,333.1c0,44.9,0,89.7,0,134.6c0,6.4-3.9,11.5-9.9,13.3c-1.4,0.4-2.8,0.5-4.2,0.5
		c-51.9,0-103.8,0-155.7,0c-7.1,0-12.5-4.2-13.9-10.7c-0.2-1.1-0.3-2.3-0.3-3.5c0-89.5,0-179,0-268.5c0-7.1,4.2-12.6,10.8-14
		c1.2-0.3,2.4-0.3,3.6-0.3c51.8,0,103.6,0,155.4,0c8.4,0,14.2,5.8,14.2,14.2C518.1,243.5,518.1,288.3,518.1,333.1z M386.2,270.8
		c-5.4,1-10.2,3.2-14.4,6.5c-7.4,5.9-10.9,13.9-11.6,23.2c-0.4,6.3-0.6,12.6-0.8,19c0,1.4-0.6,2.5-1,3.7c-0.1,0.3-0.3,0.5-0.7,0.5
		c-1.1-0.2-1.1,0.4-1.1,1.2c0,1,0,2,0,3c0,0.2,0,0.7,0.1,0.7c1,0.4,0.5,1,0.3,1.6c-2.3,5.9-4.7,11.8-7,17.8c-0.2,0.6-0.6,1-1.2,1.4
		c-2.3,1.5-4.3,3.2-6.2,5.2c-3.7,4.1-6,8.8-5.9,14.5c0.1,8.3,0.9,16.5,2,24.8c0.1,1,0.1,2,0.9,2.9c3.3,3.6,6.5,7.4,9.7,11.1
		c0.2,0.2,0.4,0.6,0.6,0.6c1.1,0,0.9,0.7,0.9,1.4c0,7.1,0,14.2,0,21.3c0,0.7,0.1,1.5,0.2,2.2c0.5,2.2,2.1,3.5,4.3,3.5
		c5.1,0,10.3,0,15.4,0c1.9,0,3.1-0.9,3.9-2.6c0.5-1.2,0.5-2.5,0.5-3.8c0-6.8,0-13.7,0-20.5c0-1.2,0.3-1.5,1.5-1.4
		c3.7,0.1,7.5,0,11.3,0c0.8,0,1,0.2,1,1c0,2.2,0,4.5,0,6.8c0,6.1,0,12.2,0,18.3c0,2,0.9,3.5,2.8,4.4c1.8,0.8,3.5,0.5,5-0.8
		c1.3-1.1,1.5-2.5,1.5-4.1c0-7.8,0-15.6,0-23.4c0-2.1,0-2.1,2-2.1c1.4,0,1.6,0.2,1.1,1.6c-0.5,1.3-0.9,2.6-1.1,3.9
		c-0.4,2.1,0.6,3.7,2.7,4.2c3,0.8,6,0.6,8.9,0.2c2.4-0.3,2.6-0.6,1.9-3c-0.6-2-0.9-4-0.6-6c0.1-0.7,0.4-0.9,1.1-0.9
		c20.3,0,40.5,0,60.8,0c1,0,1.1,0.4,1.1,1.2c0,4.8,0,9.7,0,14.5c0,2.4,0,4.8,0,7.1c0,3.8,1.7,5.5,5.5,5.5c4.6,0,9.3,0,13.9,0
		c3.1,0,4.6-1.5,4.9-4.6c0.1-0.8,0.1-1.7,0.1-2.5c0-6.7,0-13.3,0-20c0-0.4-0.3-1.1,0.3-1.2c0.8-0.1,1-0.7,1.4-1.1
		c3-3.4,6-6.9,9.1-10.3c0.8-0.9,1.1-1.8,1.2-2.9c0.6-6.2,1.1-12.4,1.3-18.6c0.2-4.3,0.3-8.5-0.4-12.7c-1.1-6.3-5.1-10.5-10.5-13.5
		c-1-0.6-1.5-1.2-1.9-2.2c-4.7-12-9.5-24-14.2-36c-0.3-0.7-0.6-0.9-1.3-1c-7.7-1-15.4-1.8-23.1-2.6c-11.5-1.1-23.1-1.8-34.7-2.1
		c-1,0-1.3-0.3-1.4-1.3c-0.5-8.9-3.2-17-8.4-24.2c-3.5-4.8-8.1-8-14-9c-1.3-0.2-2.6-0.3-4.1-0.5c6.1-3.9,7.9-10.4,6.1-16.2
		c-1.7-5.5-7.1-9.6-12.8-9.7c-6.4-0.1-11.8,3.7-13.6,9.5C378,259.7,379.4,266.6,386.2,270.8z M471.4,211.5
		C471.4,211.5,471.4,211.5,471.4,211.5c0-1.6,0-3.2,0-4.9c0-1.6-0.8-2.7-2.1-3.5c-2.3-1.4-6.5-1.1-8.7,0.5c-0.3,0.2-0.4,0.5-0.2,0.8
		c0.2,0.4,0.4,0.7,0.6,1.1c0.3,0.8,0.7,0.9,1.4,0.4c1-0.6,2.2-0.7,3.4-0.7c1.3,0,2.2,0.8,2.3,1.8c0.1,0.7-0.1,1-0.9,0.7
		c-1.5-0.6-3-0.5-4.5-0.1c-2.1,0.6-3.6,2.4-3.7,4.5c-0.1,1.8,1.1,3.7,3.1,4.6c1.7,0.8,3.4,0.8,5.1,0.3c0.3-0.1,0.8-0.3,0.8-0.3
		c0.7,0.9,1.6,0.3,2.4,0.5c1,0.2,1.2-0.3,1.2-1.2C471.4,214.6,471.4,213,471.4,211.5z M489.8,211.3c0-1.4,0-2.7,0-4.1
		c0-2.6-1.5-4.3-4-4.8c-2-0.3-3.9-0.1-5.7,0.7c-1.6,0.7-1.6,0.7-0.8,2.3c0.4,0.9,0.8,0.9,1.6,0.5c1.1-0.6,2.4-0.8,3.6-0.6
		c0.9,0.2,1.8,0.5,1.9,1.6c0.1,0.7,0,1.2-0.9,0.8c-1.1-0.5-2.4-0.5-3.6-0.3c-2,0.4-3.6,1.4-4.4,3.5c-0.6,1.7-0.2,3.2,0.9,4.5
		c1.5,1.8,4.4,2.4,6.9,1.6c0.3-0.1,0.7-0.5,0.9-0.2c0.8,0.9,1.8,0.3,2.7,0.4c0.6,0.1,0.9-0.3,0.8-0.9
		C489.7,214.7,489.8,213,489.8,211.3z M460.5,462.4c0-2,0-4.1,0-6.1c0-0.8-0.3-1-1-1c-0.9,0-1.7,0.4-2.5,0.2c-3.9-1-6.7,0.6-7.5,4.7
		c-1.1,5.3,2.8,9.9,7.5,7.9c0.7-0.3,0.5,0.2,0.5,0.6c-0.1,1.3-1.2,2.6-2.5,2.8c-1.3,0.1-1.2,0.6-0.7,1.5c0.1,0.2,0.2,0.5,0.3,0.7
		c0.3,1,0.8,1.1,1.8,0.7c2.5-1,4.1-3.3,4.1-6C460.5,466.4,460.5,464.4,460.5,462.4z M375.3,210.8
		C375.3,210.8,375.3,210.8,375.3,210.8c1.3,0,2.6,0,3.9,0c0.7,0,0.9-0.3,0.9-1c0-1.3-0.2-2.7-0.8-3.9c-1.1-2.3-2.9-3.6-5.5-3.7
		c-2.5-0.1-4.5,1.1-5.6,3.4c-1.3,2.6-1.3,5.4-0.1,8.1c1.6,3.5,5.6,4.7,9,2.8c2.1-1.1,2.1-1.4,0.2-2.8c-0.5-0.4-0.8-0.6-1.5-0.1
		c-2,1.5-4.3,0.5-4.8-2c-0.2-0.7,0-0.9,0.7-0.9C372.8,210.8,374,210.8,375.3,210.8z M404.6,202.4c-0.4,0-0.8,0-1.2,0
		c-2.2,0.2-4.2,1.8-4.5,3.8c-0.3,1.7,0.9,3.3,3.2,4.2c1.2,0.5,2.4,0.9,3.6,1.3c0.6,0.2,1.3,0.5,1.2,1.4c-0.1,0.9-0.9,1-1.6,1.1
		c-1.3,0.1-2.6-0.1-3.8-0.7c-2-0.9-2-0.9-3,1.1c-0.4,0.8-0.2,1.1,0.5,1.4c2.3,1.1,4.7,1.6,7.3,1.3c1.8-0.2,3.3-1.1,4-2.9
		c0.9-2.2-0.1-4-2.7-5c-1.3-0.5-2.7-1-4-1.5c-0.6-0.2-1.2-0.6-1.1-1.3c0.1-0.8,0.8-1.1,1.4-1.1c1.2-0.1,2.3,0.1,3.4,0.6
		c1.7,0.8,1.7,0.8,2.6-0.9c0-0.1,0.1-0.2,0.1-0.2c0.5-0.6,0.2-0.9-0.4-1.2C408,202.8,406.4,202.3,404.6,202.4z M420.9,217.5
		c0.5,0,0.9,0,1.4-0.1c2.2-0.2,4.1-1.8,4.4-3.6c0.3-2.1-0.5-3.4-3.1-4.5c-1.3-0.5-2.6-0.9-3.9-1.4c-0.6-0.2-1.2-0.6-1-1.4
		c0.1-0.8,0.7-1,1.4-1.1c1.3-0.2,2.6,0.2,3.7,0.8c1.4,0.7,1.4,0.7,2.2-0.7c0.1-0.1,0.1-0.3,0.2-0.4c0.4-0.6,0.2-1-0.4-1.4
		c-2-1.2-4.2-1.5-6.5-1.2c-2.4,0.3-4.1,2.1-4.1,4.1c0,1.8,0.9,2.8,2.4,3.5c1.4,0.6,2.9,1.1,4.3,1.6c0.6,0.3,1.5,0.5,1.3,1.4
		c-0.2,0.9-1,1.1-1.8,1.1c-1.3,0-2.5-0.2-3.7-0.7c-2.1-0.9-2.1-0.9-3.1,1.2c-0.3,0.6-0.3,0.9,0.4,1.2
		C416.9,216.9,418.9,217.4,420.9,217.5z M476.7,463.3c0-1.3,0-2.7,0-4c0-2.1-1.3-3.6-3.2-4c-2.1-0.4-4.1-0.2-6,0.9
		c-0.5,0.3-0.9,0.6-0.3,1.1c0.5,0.4,0.1,1.9,1.5,1.2c1-0.5,2-0.7,3.1-0.7c0.9,0,1.6,0.4,2,1.3c0.1,0.3,0.2,0.7,0,1
		c-0.2,0.3-0.5,0-0.8-0.1c-0.4-0.1-0.9-0.2-1.3-0.3c-2.7-0.4-5.4,1.4-5.9,3.8c-0.4,2.3,1.4,4.5,4,5c0.4,0.1,0.8,0.2,1.1,0.1
		c1.7-0.5,3.4-0.1,5-0.1c0.7,0,0.9-0.2,0.9-0.9C476.7,466.1,476.7,464.7,476.7,463.3z M355.4,463.2c0-0.7,0-1.3,0-2c0-0.7,0-1.3,0-2
		c0-2-0.8-3.1-2.7-3.8c-2.3-0.8-4.6-0.4-6.7,0.8c-0.7,0.4-0.4,0.8-0.1,1.1c0.4,0.4,0.1,1.7,1.3,1.2c1-0.5,2.1-0.8,3.3-0.7
		c1,0,1.8,0.4,2,1.5c0.1,0.5,0.1,1-0.8,0.7c-1.2-0.5-2.4-0.5-3.7-0.2c-2.7,0.6-4.2,3.2-3.5,5.5c0.6,2,2.8,3.5,5.3,3.1
		c1.6-0.2,3.1-0.2,4.7,0c0.7,0.1,0.9-0.2,0.9-0.9C355.3,466.1,355.4,464.7,355.4,463.2z M504.9,213.2c-0.3,0.2-0.6,0.3-0.8,0.5
		c-1.8,1-2.9,0.4-2.9-1.7c0-1.6,0.1-3.2,0-4.9c-0.1-1,0.3-1.3,1.3-1.3c2.6,0.1,2.5,0,2.4-2.5c0-0.6-0.2-0.8-0.8-0.8
		c-0.9-0.1-2.2,0.5-2.7-0.3c-0.4-0.7-0.1-1.9-0.2-2.8c0-0.1,0-0.2,0-0.2c0-1.6,0-1.6-1.5-1c-1,0.4-2.2,0.6-1.9,2.2
		c0.1,0.6,0.2,1.4-0.1,1.8c-0.4,0.6-1.2,0.2-1.8,0.3c-1.3,0.3-0.5,1.3-0.6,1.9c-0.3,1.1,0.2,1.6,1.4,1.4c1-0.2,1.2,0.3,1.2,1.2
		c-0.1,2.2-0.1,4.4,0,6.6c0.1,3.6,3.4,4.4,6,3.3c0.3-0.1,0.5-0.3,0.5-0.6C504.5,215.3,504.9,214.4,504.9,213.2z M393.8,213.3
		c-0.3,0.2-0.5,0.3-0.7,0.4c-1.9,1-2.9,0.5-2.9-1.7c0-1.4,0-2.8,0-4.2c0-2.2-0.3-1.9,1.9-1.9c2,0,1.7,0.1,1.7-1.6
		c0-1.9,0.3-1.7-1.7-1.7c-0.3,0-0.7,0-1,0c-0.7,0.1-1-0.2-0.9-0.9c0-1.1,0-2.2,0-3.2c0-0.4,0.1-0.7-0.6-0.6c-2.4,0.7-2.8,1-2.8,3.5
		c0,1.1-0.4,1.3-1.4,1.3c-0.4,0-1-0.2-1.1,0.2c-0.3,0.9-0.3,1.9,0,2.8c0.2,0.6,1,0.3,1.5,0.3c0.9-0.1,1,0.3,1,1.1c0,2.2,0,4.5,0,6.7
		c0,3.5,3.3,4.5,5.9,3.4c0.3-0.1,0.5-0.3,0.6-0.6C393.4,215.4,393.8,214.5,393.8,213.3z M433.3,462.7
		C433.3,462.7,433.3,462.7,433.3,462.7c0.7,0,1.4,0,2.1,0c2,0,2,0,1.8-2.1c0,0,0-0.1,0-0.1c-0.3-2.7-2.1-4.8-4.5-5.2
		c-2.5-0.5-4.9,0.6-6,2.8c-1.1,2.3-1.2,4.7-0.2,7.1c1.6,3.5,5.9,4.5,8.9,2c0.2-0.2,0.6-0.4,0.6-0.7c0-0.6-2.1-1.6-2.6-1.2
		c-1.8,1.2-3.8,0.3-4.2-1.7c-0.1-0.6,0-0.9,0.6-0.9C431.1,462.7,432.2,462.7,433.3,462.7z M440.4,213.2c-0.4,0.3-0.6,0.4-0.8,0.5
		c-1.9,1.1-3,0.5-3.1-1.7c0-1,0-2.1,0-3.1c0-0.9-0.3-2.1,0.1-2.7c0.5-0.8,1.8-0.2,2.7-0.3c0.1,0,0.2,0,0.2,0c0.4,0,0.5-0.2,0.6-0.6
		c0.4-2.5,0.2-2.8-2.3-2.8c-0.1,0-0.2,0-0.2,0c-0.9,0.1-1.2-0.2-1.1-1.1c0.1-1,0-2.1,0-3.1c0-0.5-0.1-0.6-0.7-0.5
		c-2.6,0.9-2.7,0.9-2.6,3.6c0,1-0.4,1.2-1.2,1.1c-0.5,0-1.2-0.3-1.3,0.3c-0.2,0.9-0.2,1.9,0,2.7c0.2,0.7,1,0.3,1.5,0.3
		c0.9-0.1,1,0.3,1,1.1c0,2.2,0,4.5,0,6.7c0,3.7,3.5,4.4,5.9,3.3c0.3-0.1,0.5-0.3,0.6-0.7C439.9,215.3,440.2,214.4,440.4,213.2z
		 M345.5,211.5c0,1.2,0,2.4,0,3.6c0,2.2,0,2.1,2.2,2.2c1,0,1.2-0.4,1.2-1.3c-0.1-3,0-6,0-9c0-0.9,0.2-1.3,1.2-1.2
		c0.5,0,1.3,0.3,1.5-0.2c0.3-0.9,0.3-1.9,0-2.8c-0.2-0.7-1-0.3-1.6-0.3c-1.1-0.1-1.4-0.5-1-1.5c0.3-0.7,1-0.8,1.7-0.7
		c0.3,0,1,0.5,0.9-0.3c-0.1-0.8,0.6-1.9-0.5-2.3c-3.1-1-6.3,0.3-5.6,3.7c0.2,0.8-0.2,1.2-1,1c-0.8-0.1-1.1,0.2-1.1,1
		c0,0.4,0,0.8,0,1.2c-0.1,0.8,0.1,1.3,1.1,1.1c0.9-0.2,1,0.3,1,1C345.4,208.4,345.5,210,345.5,211.5z M373.3,461.9
		c0-1.8-0.1-3.7,0-5.5c0.1-1.4-0.8-1.1-1.5-1.1c-0.8,0-1.6-0.2-1.5,1.1c0.1,2.2,0.1,4.3,0,6.5c0,1.3-1,2.3-2.2,2.5
		c-1.2,0.2-2.4-0.5-2.8-1.6c-0.2-0.5-0.3-1.1-0.3-1.7c0-1.8,0-3.7,0-5.5c0-1.1-0.2-1.5-1.4-1.4c-1.6,0.1-1.6,0-1.6,1.6
		c0,2,0.1,4.1,0,6.1c-0.3,4.6,4.4,6.9,7.6,4.7c0.2-0.1,0.5-0.4,0.6-0.1c0.3,1.4,1.4,0.5,2.1,0.8c0.7,0.2,0.9-0.2,0.9-0.9
		C373.3,465.6,373.3,463.8,373.3,461.9z M402,461.6c0-0.5,0-1.2-0.2-2c-0.7-2.3-1.9-4-4.4-4.4c-2.4-0.4-4.5,0.4-5.6,2.5
		c-1.5,2.8-1.6,5.7,0.2,8.4c2.1,3.2,6.7,3.2,8.9,0.1C401.7,464.9,402,463.4,402,461.6z M487.4,455.3c-0.4,0-0.8,0-1.2,0
		c-1.9,0.2-3.7,1.6-3.9,3.1c-0.3,1.9,0.6,3.1,2.8,4c1,0.4,2,0.7,3,1.1c0.6,0.2,1.3,0.4,1.1,1.3c-0.2,0.8-0.9,0.9-1.6,1
		c-1.2,0-2.5-0.1-3.5-0.8c-1.2-0.8-1.8-0.4-2.2,0.8c-0.1,0.2-0.2,0.4-0.3,0.6c-0.3,0.4-0.2,0.7,0.2,0.9c2.5,1.2,5,1.8,7.7,1.1
		c1.6-0.4,2.7-1.9,2.8-3.3c0.1-1.6-0.6-2.6-2.4-3.4c-1.1-0.5-2.3-0.8-3.5-1.3c-0.6-0.2-1.4-0.5-1.2-1.4c0.1-0.8,0.9-0.9,1.6-0.9
		c1.2,0,2.3,0.3,3.3,0.9c0.7,0.5,1,0.3,1.3-0.4c0.1-0.2,0.2-0.5,0.4-0.7c0.6-0.7,0.3-1.1-0.4-1.5
		C490.2,455.6,488.9,455.2,487.4,455.3z M386.7,464.8c-0.3,0.2-0.5,0.3-0.6,0.4c-1.7,1-2.7,0.4-2.7-1.5c0-1.2,0-2.5,0-3.7
		c0-1.6,0-1.6,1.7-1.6c1.6,0,1.6,0,1.6-1.6c0-1.1-0.2-1.6-1.4-1.4c-0.3,0.1-0.7,0-1,0c-0.7,0.1-1-0.2-0.9-0.9c0-0.9,0-1.7,0-2.6
		c0-0.5-0.1-0.7-0.7-0.5c-2.2,0.7-2.2,0.7-2.2,3c0,0.8-0.2,1.2-1,1c-1.2-0.2-1.4,0.4-1.3,1.4c0.1,0.8-0.3,1.9,1.2,1.6
		c0.9-0.2,1.1,0.2,1.1,1.1c-0.1,2.1-0.1,4.2,0,6.2c0.1,2.5,3.2,3.9,5.3,2.5c0.2-0.1,0.4-0.3,0.4-0.6
		C386.4,466.7,386.5,465.8,386.7,464.8z M504.5,464.8c-0.3,0.2-0.5,0.3-0.7,0.4c-1.7,0.9-2.6,0.4-2.6-1.5c0-1.2,0-2.3,0-3.5
		c0-1.9,0-2,1.9-1.9c1.2,0.1,1.4-0.4,1.4-1.5c0.1-1.3-0.3-1.8-1.6-1.6c-0.3,0-0.6,0-0.9,0c-0.7,0.1-0.9-0.2-0.8-0.9
		c0-0.9,0-1.8,0-2.7c0-0.6-0.2-0.7-0.7-0.5c-2.2,0.8-2.2,0.7-2.2,3c0,0.9-0.2,1.3-1.1,1.1c-1.4-0.3-1.2,0.7-1.3,1.6
		c-0.1,1,0,1.7,1.3,1.4c0.9-0.2,1.1,0.3,1.1,1.1c-0.1,2,0,4,0,6c0,1.7,1.2,3,2.7,3.1c2.3,0.2,2.9-0.3,3.3-2.4
		C504.4,465.7,504.4,465.3,504.5,464.8z M422.1,464.8c-0.4,0.3-0.6,0.4-0.8,0.5c-1.6,0.8-2.5,0.2-2.5-1.5c0-1.2,0-2.3,0-3.5
		c0-2,0-2,2-2c0.8,0,1.4,0,1.2-1.1c-0.2-0.8,0.6-2-1.2-1.9c-2,0.1-2.1,0-2-2c0-2.5,0-2.5-2.3-1.4c-1.2,0.5-0.6,1.5-0.7,2.3
		c0,0.8-0.1,1.3-1.1,1.1c-1.4-0.3-1.3,0.7-1.3,1.6c0,1,0.1,1.7,1.3,1.4c0.8-0.2,1.1,0.2,1,1c-0.1,2,0,4,0,6c0,1.8,1.2,3.2,2.8,3.2
		c2.1,0,3.1,0.1,3.2-2.5C421.8,465.7,421.9,465.3,422.1,464.8z M449.7,203.9c0.5-1.7-0.4-1.5-1.2-1.5c-0.3,0-0.6,0-0.9,0
		c-1-0.2-1.2,0.3-1.2,1.2c0,3.8,0,7.6,0,11.4c0,2.5,0,2.5,2.5,2.3c0.7,0,0.8-0.3,0.8-0.9c0-2.2,0-4.5,0-6.7c0-0.6,0-1.3,0.2-1.8
		c0.5-1.5,2.3-2.7,3.6-1.9c1.8,1.1,1.7-0.2,1.9-1.2c0.1-0.3,0.1-0.6,0.2-0.8c0.4-0.9-0.1-1.3-0.9-1.5
		C453.1,201.8,451.5,202.5,449.7,203.9z M361.2,209.9c0-1.7,0-3.5,0-5.2c0-2.2,0-2.2-2.2-2.2c-0.9,0-1.2,0.2-1.2,1.2
		c0.1,3.8,0,7.6,0,11.4c0,2.4,0,2.3,2.4,2.4c0.9,0,1.1-0.4,1.1-1.2C361.2,214.1,361.2,212,361.2,209.9z M359.5,197.6
		c-1,0-1.9,0.8-1.9,1.9c0,1.1,0.8,1.9,2,1.9c1.1,0,1.9-0.8,1.9-1.9C361.4,198.4,360.5,197.6,359.5,197.6z"/>
	<path class="st1" d="M386.2,270.8c-6.8-4.3-8.2-11.1-6.5-16.6c1.9-5.8,7.3-9.6,13.6-9.5c5.7,0.1,11.1,4.1,12.8,9.7
		c1.8,5.8-0.1,12.2-6.1,16.2c1.4,0.2,2.8,0.2,4.1,0.5c5.9,1,10.5,4.2,14,9c5.2,7.2,8,15.3,8.4,24.2c0.1,1,0.3,1.3,1.4,1.3
		c11.6,0.3,23.1,1,34.7,2.1c7.7,0.7,15.4,1.6,23.1,2.6c0.7,0.1,1.1,0.4,1.3,1c4.7,12,9.5,24,14.2,36c0.4,1,0.9,1.7,1.9,2.2
		c5.4,3,9.4,7.3,10.5,13.5c0.8,4.2,0.6,8.5,0.4,12.7c-0.2,6.2-0.8,12.4-1.3,18.6c-0.1,1.1-0.4,2-1.2,2.9c-3.1,3.4-6.1,6.9-9.1,10.3
		c-0.4,0.4-0.7,1-1.4,1.1c-0.6,0.1-0.3,0.8-0.3,1.2c0,6.7,0,13.3,0,20c0,0.8,0,1.7-0.1,2.5c-0.3,3.1-1.8,4.6-4.9,4.6
		c-4.6,0-9.3,0-13.9,0c-3.7,0-5.4-1.7-5.5-5.5c0-2.4,0-4.8,0-7.1c0-4.8,0-9.7,0-14.5c0-0.9-0.1-1.2-1.1-1.2c-20.3,0-40.5,0-60.8,0
		c-0.7,0-1,0.2-1.1,0.9c-0.3,2.1,0,4,0.6,6c0.7,2.4,0.5,2.7-1.9,3c-3,0.4-6,0.6-8.9-0.2c-2.1-0.6-3.1-2.1-2.7-4.2
		c0.2-1.4,0.7-2.7,1.1-3.9c0.5-1.4,0.3-1.6-1.1-1.6c-2,0-2,0-2,2.1c0,7.8,0,15.6,0,23.4c0,1.6-0.3,3-1.5,4.1c-1.5,1.3-3.2,1.6-5,0.8
		c-1.9-0.8-2.8-2.3-2.8-4.4c0-6.1,0-12.2,0-18.3c0-2.3,0-4.5,0-6.8c0-0.8-0.2-1-1-1c-3.8,0-7.5,0.1-11.3,0c-1.1,0-1.5,0.3-1.5,1.4
		c0.1,6.8,0,13.7,0,20.5c0,1.3,0,2.6-0.5,3.8c-0.8,1.7-2,2.6-3.9,2.6c-5.1,0-10.3,0-15.4,0c-2.3,0-3.9-1.3-4.3-3.5
		c-0.1-0.7-0.2-1.5-0.2-2.2c0-7.1,0-14.2,0-21.3c0-0.6,0.2-1.4-0.9-1.4c-0.2,0-0.4-0.4-0.6-0.6c-3.2-3.7-6.5-7.4-9.7-11.1
		c-0.8-0.9-0.8-1.9-0.9-2.9c-1.1-8.2-1.9-16.5-2-24.8c-0.1-5.8,2.2-10.4,5.9-14.5c1.8-2,3.9-3.8,6.2-5.2c0.6-0.4,0.9-0.8,1.2-1.4
		c2.3-5.9,4.7-11.8,7-17.8c0.2-0.6,0.7-1.2-0.3-1.6c-0.1,0-0.1-0.5-0.1-0.7c0-1,0-2,0-3c0-0.8,0-1.4,1.1-1.2
		c0.3,0.1,0.5-0.2,0.7-0.5c0.5-1.2,1-2.3,1-3.7c0.2-6.3,0.3-12.7,0.8-19c0.7-9.3,4.2-17.3,11.6-23.2
		C376,274,380.8,271.9,386.2,270.8z M471.1,342.9c0-0.1,0-0.3-0.1-0.4c0.7-0.6,1.5-1.2,2.2-1.8c3.1-2.7,4.1-7.1,2.6-11
		c-1.5-3.8-5.2-6.4-9.3-6.4c-3.9,0-7.7,2.5-9.2,6c-1.6,3.9-0.8,8,2.1,11c0.7,0.7,1.5,1.4,2.2,2.1c0,0.1-0.1,0.2-0.1,0.4
		c-2.5,0-5.1-0.1-7.6,0c-4.9,0.3-9.6,1.4-13.2,5c-0.3,0.3-0.7,0.4-1.1,0.4c-7.1-0.3-14.2-0.2-21.2,0c-1,0-1.3,0.2-1.3,1.3
		c0.1,7-0.1,14.1-0.4,21.1c-0.5,11.5-1.3,23-2.7,34.5c-0.1,1.1,0,1.5,1.2,1.5c20.6,0,41.3,0,61.9-0.1c1.2,0,1.4,0.3,1.4,1.4
		c0,7.6,0,15.2,0,22.8c0,0.7,0,1.3,0.1,2c0.3,1.5,1.1,2.2,2.6,2.2c4.9,0,9.8,0,14.8,0c1.5,0,2.1-0.5,2.5-1.9
		c0.2-0.9,0.2-1.7,0.2-2.6c0-7.5,0-15.1,0-22.6c0-0.9,0.2-1.3,1.2-1.2c0.7,0.1,1.1-0.3,1.5-0.7c2.7-3.1,5.4-6.3,8.2-9.3
		c0.9-1,1.3-2.1,1.4-3.5c0.5-5.2,0.9-10.5,1.2-15.7c0.2-4.4,0.4-8.8-0.2-13.2c-0.9-6.3-4.9-10.4-10.3-13.2c-0.9-0.5-1.3-1-1.6-1.8
		c-4.7-12-9.4-23.9-14.1-35.9c-0.3-0.6-0.5-1-1.3-1.1c-7.2-1.1-14.5-1.6-21.8-2.4c-4.7-0.5-9.5-0.8-14.2-1.2
		c-6.9-0.5-13.7-0.8-20.6-1c-0.9,0-1,0.3-1,1.1c0.1,1.7,0.2,3.3,0.2,5c0,0.9,0.3,1.1,1.1,1.1c6.8,0.1,13.5,0.6,20.2,1.2
		c5.3,0.4,10.5,1,15.8,1.5c5.3,0.6,10.6,1.3,15.9,1.8c0.8,0.1,1.3,0.4,1.6,1.2c1.7,4.3,3.4,8.6,5.1,12.9c1.9,4.7,3.8,9.4,5.6,14.1
		c0.2,0.4,0.5,1-0.2,1.2c-0.6,0.2-1.2,0.9-1.8-0.1c-0.8-1.3-2-2.1-3.3-2.8c-3.2-1.8-6.7-2.6-10.3-2.8
		C474.9,342.8,473,342.9,471.1,342.9z M373.3,419.7c0-4,0-8,0-12c0-1,0.2-1.3,1.2-1.3c4.4,0.1,8.8,0,13.1,0c1.1,0,1.5-0.2,1.5-1.4
		c0-12.6,0-25.2,0-37.8c0-1.4,0.1-2.9,1.3-3.6c1.6-1,1.5-2.4,1.4-3.9c0-1-0.1-2,0-3c0.1-0.9-0.2-1.3-1.1-1.2
		c-0.9,0.2-1.1-0.3-1.1-1.1c0.1-1.5,0-2.9,0-4.4c0-0.8-0.2-1-1-0.9c-0.9,0.1-1.8,0.1-2.6,0.1c-1-0.1-1.2,0.4-1.2,1.3
		c0,6.6,0,13.3,0,19.9c0,1.3,0.3,2.6,1,3.7c1.3,1.8,1.4,3.8,1.3,5.9c0,0.7-0.3,0.9-1,0.9c-3.9,0-7.8,0-11.6,0
		c-0.9,0-1.3-0.4-1.3-1.3c0-1.5,0.4-2.9,1.4-3.9c0.7-0.7,0.8-1.4,0.7-2.3c-1.3-7.5-2.5-14.9-4-22.4c-0.1-0.7-0.3-1-1.2-1
		c-3.2,0.3-6.5,0.5-9.7,0.6c-1.7,0.1-1.9-0.3-1.3-1.8c2.5-6.4,5-12.8,7.6-19.1c0.3-0.7,0.4-1-0.6-0.9c-1.2,0.2-2.4-0.2-3.5,0
		c-1,0.1-2.3-0.7-2.9,1.1c-2.4,6.5-5,12.9-7.5,19.3c-0.3,0.7-0.6,1.1-1.2,1.5c-1.5,0.8-2.8,1.9-4,3c-4.7,4.3-7.9,9.2-7.7,15.9
		c0.2,8.2,1,16.4,2.1,24.5c0.1,0.6,0.3,1,0.7,1.4c3,3.4,5.9,6.7,8.9,10.1c0.4,0.4,0.8,0.8,1.4,0.7c1.1-0.2,1.3,0.4,1.3,1.3
		c0,7.6,0,15.2,0,22.8c0,0.7,0,1.3,0.1,2c0.2,1.5,1,2.2,2.5,2.2c5,0,9.9,0,14.9,0c1.4,0,2.1-0.7,2.5-1.9c0.2-0.7,0.2-1.4,0.2-2.1
		C373.3,427.1,373.3,423.4,373.3,419.7z M488.5,344.1c0-0.3,0-0.4,0-0.5c-2.9-7.2-5.8-14.4-8.6-21.7c-0.2-0.5-0.6-0.7-1-0.7
		c-3.5-0.4-7-0.9-10.5-1.3c-9.5-1.1-19-2-28.5-2.6c-3.9-0.2-7.7-0.4-11.6-0.6c-0.4,0-1-0.2-1,0.4c-0.1,2.1-0.1,4.2,1.1,6.2
		c0.2,0.3,0.4,0.3,0.6,0.3c0.6,0.1,1.4-0.3,1.7,0.2c0.3,0.5,0.1,1.3,0.1,2c0,0.5-0.1,1,0,1.5c0.2,1.2-0.3,1.5-1.4,1.5
		c-3.7-0.1-7.5,0-11.3,0c-1.1,0-1.5,0.4-1.4,1.6c0.2,4.8,0.3,9.7,0.3,14.5c0,0.9,0.2,1.1,1.1,1.1c3.9-0.1,7.8-0.2,11.7-0.2
		c2.9,0,5.8,0.1,8.7,0.2c0.5,0,1-0.1,1.4-0.4c3.1-2.8,6.9-4,11-4.6c1.9-0.3,3.8-0.4,5.7-0.6c-4.2-6.7-1.7-13.1,2.1-16.3
		c4.1-3.5,10.3-3.8,14.7-0.7c2.3,1.6,3.8,3.7,4.6,6.3c1.1,3.9,0.5,7.6-2,11C480.5,341.1,484.7,341.9,488.5,344.1z M398.4,386.1
		c0,6.1,0,12.2,0,18.2c0,2.1,0,2.1,2.1,2.2c0.9,0,1.3-0.2,1.3-1.2c-0.1-6.6,0-13.2,0-19.9c0-6,0-11.9-0.6-17.8
		c-0.3-2.4-0.7-4.9-0.7-7.3c-0.1-3.6-0.5-7.1-0.7-10.7c0-0.4,0.1-0.9-0.6-0.8c-0.7,0-0.6,0.5-0.6,1c0,1.5-0.1,3,0,4.5
		c0.1,1.1-0.2,1.7-1.4,1.5c-0.8-0.1-1.1,0.2-1.1,1c0.1,1.7,0,3.5,0,5.2c0,0.4,0,0.8,0.4,1.1c1.5,1.1,2,2.6,2,4.5
		C398.4,373.6,398.4,379.8,398.4,386.1z M368.8,330.1c-0.3,0.3-0.3,0.4-0.4,0.5c-2.2,5.7-4.5,11.3-6.7,17c-0.3,0.8-0.1,0.9,0.7,0.9
		c2.4-0.2,4.8-0.4,7.2-0.5c0.8,0,0.9-0.3,0.8-1c-0.7-3.6-1.1-7.2-1-10.9C369.4,334.2,369,332.3,368.8,330.1z M374.3,292.7
		c-0.2,0-0.3,0-0.3,0c-2.1,5.3-3.6,10.7-4.7,16.2c-0.1,0.6,0.1,0.8,0.6,0.7c1.2-0.2,2.4-0.4,3.6-0.5c0.8,0,1-0.4,0.9-1.1
		c-0.1-1.8-0.1-3.6-0.1-5.4C374.3,299.4,374.3,296.1,374.3,292.7z M389.5,340.9C389.5,340.9,389.5,340.9,389.5,340.9
		c0-1.7,0-3.5,0-5.2c0-0.3,0.1-0.7-0.3-0.8c-0.4-0.1-0.6,0.3-0.7,0.5c-1.1,1.6-2.2,3.3-3.4,4.9c-0.2,0.4-0.4,0.7-0.4,1.2
		c0,1.7,0,3.3,0,5c0,0.6,0.1,0.9,0.8,0.8c1-0.1,2.1-0.2,3.1-0.1c0.7,0,0.9-0.3,0.9-1C389.5,344.4,389.5,342.6,389.5,340.9z
		 M369.7,321.7c0.3-1.8,1.2-2.6,3-2.5c0.2,0,0.4-0.2,0.5-0.4c0.5-1.6,1.5-3,1.4-4.8c-0.2-2.8-0.2-2.8-3-2.4
		c-2.7,0.4-2.7,0.4-2.9,3.1C368.4,317,368.6,319.4,369.7,321.7z M411.8,311c0.1,1.3-0.1,2.4,0.1,3.6c0.1,0.6,0.3,0.7,0.9,0.7
		c1.3-0.1,2.7-0.2,4-0.2c0.8,0,1-0.3,0.9-1c-0.2-1.4-0.3-2.7-0.5-4.1c-0.3-2.1-0.3-2.1-2.4-2C411.7,308,411.7,308,411.8,311z
		 M411.6,291.9c0,0.5-0.1,0.6-0.1,0.8c0.1,4.2,0.2,8.4,0.2,12.6c0,0.7,0.3,0.7,0.8,0.7c1-0.1,2-0.2,3-0.2c0.7,0,0.8-0.3,0.6-0.8
		c-0.4-1.2-0.6-2.4-1-3.6C414.2,298.2,413.1,295.2,411.6,291.9z M417.8,318.3c-0.1-0.5,0.4-1.4-0.8-1.3c-1.3,0.1-2.7,0.2-4,0.2
		c-0.7,0-0.8,0.2-0.4,0.8c1.1,1.7,2.1,3.5,2.9,5.4c0.1,0.3,0.2,0.7,0.5,0.8c0.5,0.1,0.6-0.4,0.7-0.7
		C417.4,321.8,417.6,320.1,417.8,318.3z M398.4,342.5c0,1.3,0,2.5,0,3.7c0,0.3,0,0.5,0.4,0.5c0.3,0,0.4-0.2,0.4-0.5
		C398.9,345,398.9,343.7,398.4,342.5z"/>
	<path class="st1" d="M471.4,211.5c0,1.5,0,3.1,0,4.6c0,0.9-0.2,1.4-1.2,1.2c-0.8-0.2-1.8,0.4-2.4-0.5c0-0.1-0.5,0.2-0.8,0.3
		c-1.7,0.5-3.4,0.5-5.1-0.3c-1.9-0.9-3.2-2.8-3.1-4.6c0.2-2.1,1.6-3.9,3.7-4.5c1.5-0.5,3.1-0.5,4.5,0.1c0.8,0.3,0.9,0.1,0.9-0.7
		c-0.1-1-1-1.8-2.3-1.8c-1.2,0-2.4,0.1-3.4,0.7c-0.7,0.4-1.1,0.3-1.4-0.4c-0.1-0.4-0.4-0.7-0.6-1.1c-0.2-0.4-0.1-0.6,0.2-0.8
		c2.2-1.6,6.4-1.9,8.7-0.5c1.3,0.8,2.1,1.9,2.1,3.5C471.4,208.2,471.4,209.8,471.4,211.5C471.4,211.5,471.4,211.5,471.4,211.5z
		 M468,212.4c0.3-1.2-0.3-1.7-1.4-2c-0.7-0.2-1.5-0.3-2.2-0.2c-1.1,0.2-1.9,0.8-1.9,1.9c-0.1,1.1,0.6,1.8,1.7,2.2
		c0.9,0.3,1.7,0,2.6-0.1C467.6,213.9,468.3,213.5,468,212.4z"/>
	<path class="st1" d="M489.8,211.3c0,1.7,0,3.4,0,5.1c0,0.6-0.2,1-0.8,0.9c-0.9-0.2-1.9,0.4-2.7-0.4c-0.2-0.2-0.6,0.1-0.9,0.2
		c-2.5,0.8-5.4,0.1-6.9-1.6c-1.1-1.3-1.5-2.9-0.9-4.5c0.7-2,2.4-3.1,4.4-3.5c1.2-0.2,2.4-0.2,3.6,0.3c1,0.4,1-0.1,0.9-0.8
		c-0.1-1.1-1-1.5-1.9-1.6c-1.3-0.2-2.5,0-3.6,0.6c-0.8,0.4-1.2,0.4-1.6-0.5c-0.8-1.6-0.9-1.6,0.8-2.3c1.8-0.8,3.8-1,5.7-0.7
		c2.5,0.4,4,2.2,4,4.8C489.8,208.5,489.8,209.9,489.8,211.3z M486.4,212.3c-0.1-0.6,0.2-1.2-0.6-1.6c-1-0.4-2-0.7-3-0.5
		c-1.1,0.2-1.8,0.8-2,1.9c-0.1,0.9,0.6,1.8,1.7,2.2c0.8,0.3,1.6,0,2.5-0.1C486,214,486.6,213.5,486.4,212.3z"/>
	<path class="st1" d="M460.5,462.4c0,2,0,4,0,6c0,2.7-1.7,5-4.1,6c-0.9,0.4-1.5,0.3-1.8-0.7c-0.1-0.2-0.2-0.5-0.3-0.7
		c-0.5-0.8-0.5-1.3,0.7-1.5c1.3-0.1,2.4-1.5,2.5-2.8c0-0.3,0.2-0.9-0.5-0.6c-4.8,1.9-8.6-2.7-7.5-7.9c0.8-4,3.6-5.7,7.5-4.7
		c0.8,0.2,1.7-0.3,2.5-0.2c0.7,0,1,0.2,1,1C460.5,458.3,460.5,460.4,460.5,462.4z M457.5,461.8c0-0.4,0-0.8,0-1.2
		c0.2-1.2-0.3-2-1.4-2.3c-1.1-0.3-2.2,0-2.8,1c-1,1.6-1,3.2-0.1,4.9c0.6,1,1.8,1.4,2.9,1.1c1.2-0.3,1.5-1.1,1.4-2.3
		C457.5,462.7,457.5,462.2,457.5,461.8z"/>
	<path class="st1" d="M375.3,210.8c-1.2,0-2.4,0-3.6,0c-0.7,0-0.9,0.2-0.7,0.9c0.6,2.5,2.8,3.4,4.8,2c0.7-0.5,1-0.2,1.5,0.1
		c1.9,1.4,1.9,1.7-0.2,2.8c-3.4,1.9-7.3,0.7-9-2.8c-1.3-2.7-1.2-5.4,0.1-8.1c1.1-2.3,3.1-3.5,5.6-3.4c2.6,0.1,4.4,1.4,5.5,3.7
		c0.6,1.2,0.8,2.5,0.8,3.9c0,0.7-0.2,1-0.9,1C377.8,210.8,376.5,210.8,375.3,210.8C375.3,210.8,375.3,210.8,375.3,210.8z
		 M373.5,208.1c0.7,0,1.4,0,2.1,0c0.5,0,0.7-0.1,0.5-0.7c-0.4-1-1-1.8-2.1-1.9c-1-0.2-1.8,0.1-2.4,1c-0.3,0.4-0.8,0.9-0.5,1.4
		c0.2,0.4,0.8,0.1,1.3,0.2C372.7,208.1,373.1,208.1,373.5,208.1z"/>
	<path class="st1" d="M404.6,202.4c1.8-0.1,3.4,0.4,5,1.3c0.6,0.3,0.8,0.6,0.4,1.2c-0.1,0.1-0.1,0.1-0.1,0.2
		c-0.9,1.7-0.9,1.7-2.6,0.9c-1.1-0.5-2.2-0.8-3.4-0.6c-0.7,0.1-1.4,0.3-1.4,1.1c-0.1,0.7,0.5,1.1,1.1,1.3c1.3,0.5,2.7,0.9,4,1.5
		c2.6,1.1,3.6,2.9,2.7,5c-0.7,1.8-2.2,2.7-4,2.9c-2.5,0.3-5-0.2-7.3-1.3c-0.7-0.3-0.9-0.6-0.5-1.4c1.1-2,1-2,3-1.1
		c1.2,0.5,2.5,0.7,3.8,0.7c0.7,0,1.5-0.2,1.6-1.1c0.1-0.9-0.5-1.1-1.2-1.4c-1.2-0.5-2.4-0.9-3.6-1.3c-2.3-0.9-3.5-2.5-3.2-4.2
		c0.3-2,2.3-3.6,4.5-3.8C403.8,202.4,404.2,202.4,404.6,202.4z"/>
	<path class="st1" d="M420.9,217.5c-2.1-0.1-4-0.5-5.9-1.5c-0.7-0.3-0.7-0.6-0.4-1.2c1-2.1,1-2.1,3.1-1.2c1.2,0.5,2.4,0.7,3.7,0.7
		c0.8,0,1.6-0.2,1.8-1.1c0.2-0.9-0.7-1.2-1.3-1.4c-1.4-0.6-2.9-1-4.3-1.6c-1.4-0.7-2.4-1.7-2.4-3.5c0-2,1.7-3.8,4.1-4.1
		c2.3-0.3,4.5,0,6.5,1.2c0.6,0.4,0.9,0.7,0.4,1.4c-0.1,0.1-0.2,0.3-0.2,0.4c-0.8,1.5-0.8,1.4-2.2,0.7c-1.2-0.6-2.4-0.9-3.7-0.8
		c-0.6,0.1-1.2,0.3-1.4,1.1c-0.1,0.8,0.4,1.1,1,1.4c1.3,0.5,2.6,0.9,3.9,1.4c2.6,1,3.4,2.3,3.1,4.5c-0.3,1.8-2.2,3.4-4.4,3.6
		C421.8,217.4,421.4,217.4,420.9,217.5z"/>
	<path class="st1" d="M476.7,463.3c0,1.4,0,2.8,0,4.2c0,0.6-0.2,0.9-0.9,0.9c-1.7-0.1-3.4-0.4-5,0.1c-0.3,0.1-0.7,0-1.1-0.1
		c-2.7-0.5-4.4-2.7-4-5c0.4-2.5,3.2-4.3,5.9-3.8c0.4,0.1,0.9,0.2,1.3,0.3c0.3,0.1,0.6,0.3,0.8,0.1c0.2-0.3,0.2-0.7,0-1
		c-0.4-0.9-1.1-1.2-2-1.3c-1.1,0-2.2,0.2-3.1,0.7c-1.3,0.7-1-0.8-1.5-1.2c-0.5-0.5-0.2-0.8,0.3-1.1c1.9-1.1,3.9-1.3,6-0.9
		c2,0.4,3.2,1.9,3.2,4C476.7,460.6,476.7,462,476.7,463.3z M471.1,465.8c2.1,0,2.8-0.6,2.7-2.1c-0.1-0.9-1-1.5-2.5-1.6
		c-1.3-0.1-2.4,0.7-2.4,1.8C468.7,464.9,469.7,465.8,471.1,465.8z"/>
	<path class="st1" d="M355.4,463.2c0,1.4,0,2.8,0,4.2c0,0.7-0.2,1-0.9,0.9c-1.6-0.1-3.1-0.2-4.7,0c-2.4,0.3-4.6-1.2-5.3-3.1
		c-0.8-2.4,0.8-4.9,3.5-5.5c1.2-0.3,2.5-0.3,3.7,0.2c0.8,0.3,0.9-0.2,0.8-0.7c-0.2-1.1-1-1.5-2-1.5c-1.1,0-2.2,0.3-3.3,0.7
		c-1.2,0.5-0.9-0.8-1.3-1.2c-0.3-0.3-0.6-0.7,0.1-1.1c2.2-1.2,4.4-1.5,6.7-0.8c1.9,0.6,2.6,1.8,2.7,3.8c0,0.7,0,1.3,0,2
		C355.4,461.9,355.4,462.6,355.4,463.2z M352.4,464c0-1.3-1-2-2.8-2c-1.2,0-2.2,0.9-2.2,1.9c0,1.1,1,1.9,2.3,1.9
		C351.7,465.8,352.4,465.3,352.4,464z"/>
	<path class="st1" d="M504.9,213.2c0,1.1-0.4,2.1-0.6,3.1c-0.1,0.3-0.3,0.5-0.5,0.6c-2.6,1.1-5.9,0.3-6-3.3c0-2.2-0.1-4.4,0-6.6
		c0-0.9-0.2-1.4-1.2-1.2c-1.2,0.2-1.6-0.3-1.4-1.4c0.2-0.7-0.6-1.7,0.6-1.9c0.6-0.1,1.5,0.3,1.8-0.3c0.3-0.5,0.2-1.2,0.1-1.8
		c-0.3-1.6,1-1.8,1.9-2.2c1.5-0.7,1.5-0.6,1.5,1c0,0.1,0,0.2,0,0.2c0,1-0.3,2.1,0.2,2.8c0.5,0.8,1.8,0.2,2.7,0.3
		c0.6,0,0.8,0.2,0.8,0.8c0.2,2.5,0.2,2.6-2.4,2.5c-1.1,0-1.4,0.3-1.3,1.3c0.1,1.6,0,3.2,0,4.9c0,2.1,1,2.7,2.9,1.7
		C504.3,213.6,504.5,213.4,504.9,213.2z"/>
	<path class="st1" d="M393.8,213.3c0,1.2-0.4,2.1-0.5,3.1c0,0.3-0.3,0.5-0.6,0.6c-2.6,1.1-5.9,0.2-5.9-3.4c0-2.2,0-4.5,0-6.7
		c0-0.8-0.2-1.1-1-1.1c-0.5,0-1.3,0.3-1.5-0.3c-0.3-0.9-0.3-1.9,0-2.8c0.1-0.4,0.8-0.2,1.1-0.2c1,0.1,1.4-0.1,1.4-1.3
		c-0.1-2.5,0.3-2.8,2.8-3.5c0.7-0.2,0.6,0.2,0.6,0.6c0,1.1,0,2.2,0,3.2c0,0.7,0.2,1,0.9,0.9c0.3,0,0.7,0,1,0c2,0,1.7-0.2,1.7,1.7
		c0,1.7,0.3,1.6-1.7,1.6c-2.2,0-1.9-0.3-1.9,1.9c0,1.4,0,2.8,0,4.2c0,2.1,1,2.7,2.9,1.7C393.3,213.6,393.4,213.5,393.8,213.3z"/>
	<path class="st1" d="M433.3,462.7c-1.1,0-2.2,0-3.4,0c-0.6,0-0.8,0.3-0.6,0.9c0.5,2.1,2.4,2.9,4.2,1.7c0.5-0.3,2.6,0.6,2.6,1.2
		c0,0.4-0.3,0.5-0.6,0.7c-3,2.5-7.3,1.5-8.9-2c-1.1-2.4-1-4.8,0.2-7.1c1.1-2.3,3.4-3.3,6-2.8c2.3,0.4,4.2,2.6,4.5,5.2
		c0,0,0,0.1,0,0.1c0.2,2.1,0.2,2.1-1.8,2.1C434.7,462.7,434,462.7,433.3,462.7C433.3,462.7,433.3,462.7,433.3,462.7z M434,460.3
		c-0.6-1.7-1.2-2.3-2.3-2.3c-1.1,0-1.8,0.6-2.2,1.5c-0.2,0.5-0.3,0.8,0.4,0.8C431.3,460.2,432.6,460.3,434,460.3z"/>
	<path class="st1" d="M440.4,213.2c-0.3,1.3-0.5,2.2-0.7,3.1c-0.1,0.4-0.3,0.6-0.6,0.7c-2.4,1-5.9,0.4-5.9-3.3c0-2.2,0-4.5,0-6.7
		c0-0.8-0.1-1.1-1-1.1c-0.5,0-1.4,0.4-1.5-0.3c-0.2-0.9-0.2-1.8,0-2.7c0.1-0.6,0.9-0.3,1.3-0.3c0.9,0,1.2-0.1,1.2-1.1
		c0-2.7,0-2.7,2.6-3.6c0.5-0.2,0.7,0,0.7,0.5c0,1,0,2.1,0,3.1c-0.1,0.9,0.3,1.2,1.1,1.1c0.1,0,0.2,0,0.2,0c2.5,0,2.7,0.2,2.3,2.8
		c-0.1,0.4-0.2,0.6-0.6,0.6c-0.1,0-0.2,0-0.2,0c-0.9,0.1-2.2-0.5-2.7,0.3c-0.4,0.6-0.1,1.8-0.1,2.7c0,1,0,2.1,0,3.1
		c0,2.2,1.2,2.8,3.1,1.7C439.8,213.5,440,213.4,440.4,213.2z"/>
	<path class="st1" d="M345.5,211.5c0-1.5,0-3.1,0-4.6c0-0.8-0.1-1.2-1-1c-0.9,0.2-1.2-0.3-1.1-1.1c0-0.4,0-0.8,0-1.2
		c-0.1-0.8,0.2-1.2,1.1-1c0.8,0.1,1.2-0.3,1-1c-0.7-3.4,2.5-4.7,5.6-3.7c1.1,0.4,0.5,1.5,0.5,2.3c0,0.7-0.6,0.3-0.9,0.3
		c-0.7-0.1-1.4,0-1.7,0.7c-0.4,0.9,0,1.4,1,1.5c0.5,0,1.4-0.4,1.6,0.3c0.3,0.9,0.3,1.9,0,2.8c-0.2,0.6-1,0.3-1.5,0.2
		c-1-0.1-1.2,0.3-1.2,1.2c0,3,0,6,0,9c0,0.9-0.2,1.3-1.2,1.3c-2.2-0.1-2.2,0-2.2-2.2C345.5,213.9,345.5,212.7,345.5,211.5z"/>
	<path class="st1" d="M373.3,461.9c0,1.9,0,3.8,0,5.6c0,0.7-0.2,1.1-0.9,0.9c-0.7-0.2-1.8,0.7-2.1-0.8c-0.1-0.3-0.4,0-0.6,0.1
		c-3.3,2.2-8-0.1-7.6-4.7c0.1-2,0-4.1,0-6.1c0-1.6,0-1.5,1.6-1.6c1.1-0.1,1.4,0.3,1.4,1.4c-0.1,1.8,0,3.7,0,5.5
		c0,0.6,0.1,1.2,0.3,1.7c0.4,1.1,1.7,1.8,2.8,1.6c1.2-0.2,2.2-1.2,2.2-2.5c0.1-2.2,0.1-4.3,0-6.5c-0.1-1.3,0.7-1.1,1.5-1.1
		c0.7,0,1.6-0.3,1.5,1.1C373.2,458.2,373.3,460,373.3,461.9z"/>
	<path class="st1" d="M402,461.6c0,1.8-0.3,3.3-1.2,4.6c-2.2,3.1-6.8,3.1-8.9-0.1c-1.7-2.7-1.7-5.6-0.2-8.4c1.1-2.1,3.3-3,5.6-2.5
		c2.5,0.4,3.8,2.1,4.4,4.4C402,460.4,402,461.1,402,461.6z M398.8,461.9c0-0.9,0-1.9-0.6-2.8c-0.5-0.7-1.1-1.1-1.9-1.1
		c-0.9,0-1.6,0.5-2,1.3c-0.8,1.7-0.8,3.5,0,5.2c0.4,0.8,1,1.3,2,1.3c0.9,0,1.6-0.5,2-1.2C398.8,463.7,398.8,462.8,398.8,461.9z"/>
	<path class="st1" d="M487.4,455.3c1.4-0.1,2.8,0.3,4.1,1c0.7,0.4,1,0.8,0.4,1.5c-0.2,0.2-0.3,0.4-0.4,0.7c-0.3,0.7-0.6,0.9-1.3,0.4
		c-1-0.6-2.1-1-3.3-0.9c-0.7,0-1.4,0.2-1.6,0.9c-0.1,0.8,0.6,1.1,1.2,1.4c1.2,0.5,2.4,0.8,3.5,1.3c1.8,0.8,2.5,1.8,2.4,3.4
		c-0.1,1.5-1.2,2.9-2.8,3.3c-2.7,0.7-5.3,0.2-7.7-1.1c-0.4-0.2-0.5-0.5-0.2-0.9c0.1-0.2,0.2-0.4,0.3-0.6c0.4-1.2,1-1.6,2.2-0.8
		c1,0.7,2.3,0.8,3.5,0.8c0.7,0,1.4-0.2,1.6-1c0.2-0.8-0.6-1-1.1-1.3c-1-0.4-2-0.7-3-1.1c-2.2-0.9-3.1-2.1-2.8-4c0.2-1.6,2-3,3.9-3.1
		C486.6,455.2,487,455.3,487.4,455.3z"/>
	<path class="st1" d="M386.7,464.8c-0.2,1-0.4,1.9-0.5,2.8c-0.1,0.3-0.2,0.4-0.4,0.6c-2.1,1.4-5.1-0.1-5.3-2.5
		c-0.1-2.1-0.1-4.2,0-6.2c0-0.9-0.3-1.2-1.1-1.1c-1.5,0.3-1.2-0.8-1.2-1.6c-0.1-1,0.1-1.6,1.3-1.4c0.8,0.2,1-0.2,1-1
		c0-2.3,0-2.3,2.2-3c0.6-0.2,0.7,0,0.7,0.5c0,0.9,0,1.8,0,2.6c0,0.7,0.2,1,0.9,0.9c0.3,0,0.7,0,1,0c1.1-0.2,1.4,0.3,1.4,1.4
		c-0.1,1.6,0,1.6-1.6,1.6c-1.7,0-1.7,0-1.7,1.6c0,1.2,0,2.5,0,3.7c0,1.9,1,2.5,2.7,1.5C386.3,465.1,386.4,465,386.7,464.8z"/>
	<path class="st1" d="M504.5,464.8c-0.1,0.6-0.2,0.9-0.2,1.3c-0.4,2.2-1,2.6-3.3,2.4c-1.6-0.1-2.7-1.4-2.7-3.1c0-2,0-4,0-6
		c0-0.8-0.1-1.3-1.1-1.1c-1.2,0.3-1.3-0.4-1.3-1.4c0.1-0.8-0.2-1.9,1.3-1.6c0.9,0.2,1.1-0.2,1.1-1.1c0-2.2,0-2.2,2.2-3
		c0.5-0.2,0.8-0.1,0.7,0.5c0,0.9,0,1.8,0,2.7c0,0.6,0.2,0.9,0.8,0.9c0.3,0,0.6,0,0.9,0c1.3-0.2,1.6,0.3,1.6,1.6
		c0,1.1-0.2,1.5-1.4,1.5c-1.8-0.1-1.9,0-1.9,1.9c0,1.2,0,2.3,0,3.5c0,1.9,0.9,2.5,2.6,1.5C504,465.1,504.2,465,504.5,464.8z"/>
	<path class="st1" d="M422.1,464.8c-0.1,0.5-0.2,0.9-0.2,1.3c-0.2,2.6-1.1,2.5-3.2,2.5c-1.6,0-2.8-1.4-2.8-3.2c0-2,0-4,0-6
		c0-0.8-0.2-1.2-1-1c-1.2,0.2-1.4-0.4-1.3-1.4c0-0.9-0.1-1.8,1.3-1.6c1,0.2,1-0.4,1.1-1.1c0-0.8-0.5-1.7,0.7-2.3
		c2.3-1.1,2.3-1.1,2.3,1.4c0,2,0,2.1,2,2c1.8-0.1,1,1.1,1.2,1.9c0.2,1.1-0.4,1.1-1.2,1.1c-2,0-2,0-2,2c0,1.2,0,2.3,0,3.5
		c0,1.8,0.9,2.3,2.5,1.5C421.4,465.2,421.6,465,422.1,464.8z"/>
	<path class="st1" d="M449.7,203.9c1.8-1.4,3.4-2.1,5.2-1.5c0.8,0.2,1.3,0.6,0.9,1.5c-0.1,0.3-0.1,0.6-0.2,0.8
		c-0.3,1-0.1,2.3-1.9,1.2c-1.3-0.8-3.1,0.3-3.6,1.9c-0.2,0.6-0.2,1.2-0.2,1.8c0,2.2,0,4.5,0,6.7c0,0.6-0.1,0.9-0.8,0.9
		c-2.5,0.1-2.5,0.1-2.5-2.3c0-3.8,0-7.6,0-11.4c0-0.9,0.2-1.3,1.2-1.2c0.3,0.1,0.6,0,0.9,0C449.3,202.4,450.2,202.3,449.7,203.9z"/>
	<path class="st1" d="M361.2,209.9c0,2.1,0,4.2,0,6.2c0,0.8-0.1,1.2-1.1,1.2c-2.4,0-2.4,0-2.4-2.4c0-3.8,0-7.6,0-11.4
		c0-1,0.3-1.2,1.2-1.2c2.3,0,2.3,0,2.2,2.2C361.2,206.4,361.2,208.2,361.2,209.9z"/>
	<path class="st1" d="M359.5,197.6c1.1,0,1.9,0.8,1.9,1.9c0,1.1-0.8,1.9-1.9,1.9c-1.1,0-2-0.8-2-1.9
		C357.6,198.5,358.4,197.6,359.5,197.6z"/>
	<path class="st2" d="M471.1,342.9c1.9,0,3.8-0.1,5.7,0c3.6,0.2,7.1,1,10.3,2.8c1.3,0.7,2.5,1.5,3.3,2.8c0.6,1,1.2,0.3,1.8,0.1
		c0.8-0.2,0.4-0.8,0.2-1.2c-1.9-4.7-3.8-9.4-5.6-14.1c-1.7-4.3-3.5-8.6-5.1-12.9c-0.3-0.8-0.8-1.2-1.6-1.2
		c-5.3-0.6-10.6-1.3-15.9-1.8c-5.3-0.6-10.5-1.1-15.8-1.5c-6.7-0.6-13.5-1.1-20.2-1.2c-0.8,0-1.1-0.2-1.1-1.1c0-1.7-0.1-3.3-0.2-5
		c-0.1-0.8,0.1-1.1,1-1.1c6.9,0.1,13.7,0.5,20.6,1c4.7,0.3,9.5,0.7,14.2,1.2c7.3,0.8,14.5,1.3,21.8,2.4c0.7,0.1,1,0.4,1.3,1.1
		c4.7,12,9.4,23.9,14.1,35.9c0.3,0.9,0.8,1.4,1.6,1.8c5.4,2.8,9.5,6.9,10.3,13.2c0.6,4.4,0.4,8.8,0.2,13.2
		c-0.2,5.2-0.7,10.5-1.2,15.7c-0.1,1.3-0.5,2.4-1.4,3.5c-2.8,3-5.5,6.2-8.2,9.3c-0.4,0.5-0.8,0.8-1.5,0.7c-0.9-0.2-1.2,0.2-1.2,1.2
		c0,7.5,0,15.1,0,22.6c0,0.9,0,1.7-0.2,2.6c-0.4,1.4-1,1.9-2.5,1.9c-4.9,0-9.8,0-14.8,0c-1.5,0-2.3-0.7-2.6-2.2
		c-0.1-0.7-0.1-1.3-0.1-2c0-7.6,0-15.2,0-22.8c0-1.1-0.2-1.5-1.4-1.4c-20.6,0-41.3,0-61.9,0.1c-1.2,0-1.4-0.3-1.2-1.5
		c1.4-11.5,2.2-23,2.7-34.5c0.3-7,0.5-14.1,0.4-21.1c0-1,0.3-1.3,1.3-1.3c7.1-0.2,14.2-0.3,21.2,0c0.4,0,0.8-0.1,1.1-0.4
		c3.7-3.6,8.3-4.7,13.2-5c2.5-0.2,5.1,0,7.6,0c0-0.1,0.1-0.2,0.1-0.4c-0.7-0.7-1.5-1.3-2.2-2.1c-2.9-2.9-3.7-7.1-2.1-11
		c1.5-3.5,5.3-6,9.2-6c4.1,0,7.8,2.6,9.3,6.4c1.5,3.9,0.4,8.2-2.6,11c-0.7,0.6-1.5,1.2-2.2,1.8C471,342.7,471.1,342.8,471.1,342.9z
		 M494.2,385.3c7.3,0,12.8-5.7,12.7-13.2c-0.1-7.2-6.3-12.6-13.1-12.4c-6.8,0.2-12.5,5.9-12.5,12.9
		C481.4,379.6,487.1,385.3,494.2,385.3z"/>
	<path class="st2" d="M373.3,419.7c0,3.7,0,7.4,0,11.1c0,0.7,0,1.4-0.2,2.1c-0.4,1.2-1.1,1.9-2.5,1.9c-5,0-9.9,0-14.9,0
		c-1.5,0-2.3-0.7-2.5-2.2c-0.1-0.7-0.1-1.3-0.1-2c0-7.6,0-15.2,0-22.8c0-1-0.1-1.5-1.3-1.3c-0.6,0.1-1-0.2-1.4-0.7
		c-2.9-3.4-5.9-6.8-8.9-10.1c-0.4-0.4-0.6-0.9-0.7-1.4c-1-8.1-1.8-16.3-2.1-24.5c-0.2-6.7,3-11.7,7.7-15.9c1.2-1.1,2.6-2.1,4-3
		c0.6-0.4,1-0.8,1.2-1.5c2.5-6.4,5.1-12.8,7.5-19.3c0.7-1.8,1.9-1,2.9-1.1c1.2-0.2,2.4,0.2,3.5,0c1.1-0.1,0.9,0.2,0.6,0.9
		c-2.5,6.4-5,12.8-7.6,19.1c-0.6,1.5-0.4,1.9,1.3,1.8c3.2-0.2,6.5-0.3,9.7-0.6c0.9-0.1,1.1,0.3,1.2,1c1.5,7.4,2.7,14.9,4,22.4
		c0.2,0.9,0,1.6-0.7,2.3c-1,1.1-1.4,2.4-1.4,3.9c0,0.9,0.4,1.3,1.3,1.3c3.9,0,7.8,0,11.6,0c0.7,0,1-0.2,1-0.9c0.1-2.1,0-4.1-1.3-5.9
		c-0.8-1.1-1-2.3-1-3.7c0-6.6,0-13.3,0-19.9c0-0.9,0.2-1.4,1.2-1.3c0.9,0.1,1.8,0,2.6-0.1c0.8-0.1,1,0.1,1,0.9c-0.1,1.5,0,2.9,0,4.4
		c0,0.9,0.2,1.3,1.1,1.1c1-0.2,1.2,0.3,1.1,1.2c-0.1,1,0,2,0,3c0,1.5,0.2,2.8-1.4,3.9c-1.1,0.7-1.3,2.2-1.3,3.6
		c0,12.6,0,25.2,0,37.8c0,1.2-0.3,1.4-1.5,1.4c-4.4-0.1-8.8,0-13.1,0c-1,0-1.2,0.3-1.2,1.3C373.3,411.7,373.3,415.7,373.3,419.7z
		 M358.6,385.3c6.7,0.3,13.1-5.8,12.9-12.6c-0.2-8-4.6-12.4-12.1-13c-6.6-0.5-13.6,4.6-13.5,12.8C346,380,350.4,384.9,358.6,385.3z"
		/>
	<path class="st0" d="M488.5,344.1c-3.8-2.2-8-3-12.4-3.4c2.4-3.5,3.1-7.1,2-11c-0.8-2.6-2.4-4.8-4.6-6.3
		c-4.5-3.1-10.6-2.8-14.7,0.7c-3.7,3.2-6.2,9.6-2.1,16.3c-1.9,0.2-3.8,0.3-5.7,0.6c-4.1,0.6-7.9,1.8-11,4.6
		c-0.4,0.4-0.8,0.4-1.4,0.4c-2.9-0.1-5.8-0.2-8.7-0.2c-3.9,0-7.8,0.1-11.7,0.2c-0.9,0-1.1-0.3-1.1-1.1c-0.1-4.8-0.2-9.7-0.3-14.5
		c0-1.1,0.3-1.6,1.4-1.6c3.8,0,7.5-0.1,11.3,0c1.2,0,1.6-0.3,1.4-1.5c-0.1-0.5,0-1,0-1.5c0-0.7,0.2-1.4-0.1-2
		c-0.3-0.6-1.1-0.1-1.7-0.2c-0.2,0-0.4-0.1-0.6-0.3c-1.1-1.9-1.1-4.1-1.1-6.2c0-0.6,0.6-0.4,1-0.4c3.9,0.2,7.7,0.3,11.6,0.6
		c9.5,0.6,19,1.5,28.5,2.6c3.5,0.4,7,0.9,10.5,1.3c0.5,0.1,0.8,0.2,1,0.7c2.9,7.2,5.8,14.4,8.6,21.7
		C488.5,343.7,488.5,343.8,488.5,344.1z"/>
	<path class="st2" d="M398.4,386.1c0-6.2,0-12.4,0-18.6c0-1.8-0.5-3.4-2-4.5c-0.4-0.3-0.4-0.6-0.4-1.1c0-1.7,0-3.5,0-5.2
		c0-0.8,0.2-1.2,1.1-1c1.2,0.2,1.5-0.4,1.4-1.5c-0.1-1.5,0-3,0-4.5c0-0.4-0.1-0.9,0.6-1c0.7,0,0.6,0.5,0.6,0.8
		c0.2,3.6,0.6,7.1,0.7,10.7c0.1,2.4,0.5,4.8,0.7,7.3c0.6,5.9,0.7,11.9,0.6,17.8c0,6.6,0,13.2,0,19.9c0,1-0.3,1.3-1.3,1.2
		c-2.1-0.1-2.1,0-2.1-2.2C398.4,398.2,398.4,392.1,398.4,386.1z"/>
	<path class="st0" d="M368.8,330.1c0.2,2.2,0.5,4.1,0.5,6c-0.1,3.7,0.3,7.3,1,10.9c0.1,0.7,0.1,1-0.8,1c-2.4,0.1-4.8,0.3-7.2,0.5
		c-0.7,0.1-1-0.1-0.7-0.9c2.3-5.7,4.5-11.3,6.7-17C368.5,330.5,368.5,330.5,368.8,330.1z"/>
	<path class="st0" d="M374.3,292.7c0,3.4,0,6.7,0,10.1c0,1.8,0,3.6,0.1,5.4c0,0.7-0.1,1-0.9,1.1c-1.2,0.1-2.4,0.3-3.6,0.5
		c-0.6,0.1-0.8-0.1-0.6-0.7c1.1-5.5,2.7-11,4.7-16.2C374,292.7,374.1,292.8,374.3,292.7z"/>
	<path class="st0" d="M389.5,340.9c0,1.7,0,3.5,0,5.2c0,0.7-0.1,1-0.9,1c-1,0-2.1,0-3.1,0.1c-0.7,0.1-0.8-0.2-0.8-0.8
		c0-1.7,0-3.3,0-5c0-0.4,0.1-0.8,0.4-1.2c1.1-1.6,2.2-3.3,3.4-4.9c0.2-0.3,0.3-0.7,0.7-0.5c0.4,0.1,0.3,0.5,0.3,0.8
		C389.5,337.4,389.5,339.1,389.5,340.9C389.5,340.9,389.5,340.9,389.5,340.9z"/>
	<path class="st2" d="M369.7,321.7c-1.1-2.3-1.2-4.7-1.1-7c0.2-2.7,0.2-2.7,2.9-3.1c2.8-0.4,2.8-0.4,3,2.4c0.1,1.8-0.9,3.3-1.4,4.8
		c-0.1,0.2-0.2,0.4-0.5,0.4C370.9,319.1,369.9,319.9,369.7,321.7z"/>
	<path class="st2" d="M411.8,311c-0.2-2.9-0.2-2.9,2.9-3.1c2.1-0.1,2.1-0.1,2.4,2c0.2,1.4,0.3,2.7,0.5,4.1c0.1,0.7-0.1,1-0.9,1
		c-1.3,0-2.7,0.1-4,0.2c-0.5,0-0.7-0.1-0.9-0.7C411.7,313.4,412,312.2,411.8,311z"/>
	<path class="st0" d="M411.6,291.9c1.5,3.3,2.6,6.3,3.6,9.4c0.4,1.2,0.7,2.4,1,3.6c0.2,0.6,0.1,0.8-0.6,0.8c-1,0-2,0.1-3,0.2
		c-0.5,0-0.8,0-0.8-0.7c-0.1-4.2-0.2-8.4-0.2-12.6C411.5,292.5,411.5,292.4,411.6,291.9z"/>
	<path class="st0" d="M417.8,318.3c-0.2,1.8-0.3,3.5-1.1,5.1c-0.1,0.3-0.3,0.8-0.7,0.7c-0.4,0-0.4-0.5-0.5-0.8
		c-0.8-1.9-1.8-3.6-2.9-5.4c-0.4-0.6-0.3-0.8,0.4-0.8c1.3,0,2.7-0.1,4-0.2C418.2,316.9,417.6,317.8,417.8,318.3z"/>
	<path class="st0" d="M398.4,342.5c0.5,1.2,0.5,2.5,0.8,3.7c0.1,0.3,0,0.5-0.4,0.5c-0.4,0-0.4-0.2-0.4-0.5
		C398.4,345,398.4,343.8,398.4,342.5z"/>
	<path class="st0" d="M468,212.4c0.3,1.1-0.4,1.6-1.3,1.7c-0.8,0.2-1.7,0.4-2.6,0.1c-1.1-0.3-1.7-1-1.7-2.2c0.1-1.1,0.8-1.8,1.9-1.9
		c0.7-0.1,1.5,0,2.2,0.2C467.7,210.7,468.4,211.2,468,212.4z"/>
	<path class="st0" d="M486.4,212.3c0.3,1.2-0.4,1.7-1.4,1.9c-0.8,0.1-1.6,0.4-2.5,0.1c-1.1-0.3-1.8-1.2-1.7-2.2
		c0.2-1.1,0.9-1.8,2-1.9c1.1-0.1,2,0.1,3,0.5C486.6,211,486.3,211.7,486.4,212.3z"/>
	<path class="st0" d="M457.5,461.8c0,0.4,0,0.8,0,1.2c0.1,1.1-0.2,1.9-1.4,2.3c-1.1,0.3-2.3-0.1-2.9-1.1c-0.9-1.6-0.9-3.3,0.1-4.9
		c0.6-1.1,1.7-1.3,2.8-1c1.2,0.3,1.6,1.1,1.4,2.3C457.5,461,457.5,461.4,457.5,461.8z"/>
	<path class="st0" d="M373.5,208.1c-0.4,0-0.8,0-1.1,0c-0.4,0-1.1,0.2-1.3-0.2c-0.2-0.5,0.2-1,0.5-1.4c0.6-0.8,1.4-1.1,2.4-1
		c1.1,0.2,1.7,1,2.1,1.9c0.2,0.5,0,0.7-0.5,0.7C374.9,208.1,374.2,208.1,373.5,208.1z"/>
	<path class="st0" d="M471.1,465.8c-1.4,0-2.4-0.8-2.3-2c0.1-1.1,1.1-1.8,2.4-1.8c1.6,0.1,2.5,0.7,2.5,1.6
		C473.8,465.2,473.1,465.8,471.1,465.8z"/>
	<path class="st0" d="M352.4,464c0,1.3-0.7,1.8-2.6,1.8c-1.4,0-2.3-0.8-2.3-1.9c0-1,1-1.9,2.2-1.9C351.5,462,352.4,462.7,352.4,464z
		"/>
	<path class="st0" d="M434,460.3c-1.4,0-2.7,0-4.1,0c-0.7,0-0.6-0.3-0.4-0.8c0.4-1,1.1-1.6,2.2-1.5C432.8,458,433.4,458.5,434,460.3
		z"/>
	<path class="st0" d="M398.8,461.9c0,0.9-0.1,1.8-0.6,2.6c-0.5,0.7-1.1,1.2-2,1.2c-0.9,0-1.6-0.5-2-1.3c-0.8-1.7-0.8-3.5,0-5.2
		c0.4-0.8,1.1-1.2,2-1.3c0.9,0,1.5,0.4,1.9,1.1C398.8,460,398.8,461,398.8,461.9z"/>
	<path class="st1" d="M494.2,385.3c-7.1,0-12.8-5.6-12.9-12.7c0-6.9,5.6-12.7,12.5-12.9c6.8-0.2,13,5.2,13.1,12.4
		C507,379.6,501.5,385.2,494.2,385.3z"/>
	<path class="st1" d="M358.6,385.3c-8.2-0.4-12.6-5.3-12.7-12.8c-0.1-8.2,6.9-13.3,13.5-12.8c7.5,0.6,11.9,5,12.1,13
		C371.6,379.5,365.2,385.6,358.6,385.3z"/>
</g>
</svg>
