<?xml version="1.0" encoding="UTF-8" standalone="no"?>
<!-- Created with Inkscape (http://www.inkscape.org/) -->
<svg
   xmlns:svg="http://www.w3.org/2000/svg"
   xmlns="http://www.w3.org/2000/svg"
   version="1.0"
   width="490"
   height="270"
   id="svg2">
  <defs
     id="defs4" />
  <path
     d="M 38.78125,4.984375 C 20.356889,4.9843748 9.96875,12.12016 9.96875,33.203125 L 9.65625,236.79688 C 9.65625,257.87984 20.044391,265.01563 38.46875,265.01563 L 451.21875,264.98438 C 469.64311,264.98438 480.03124,257.84859 480.03125,236.76563 L 480.34375,33.234375 C 480.34375,12.15141 469.95561,5.0156248 451.53125,5.015625 L 38.78125,4.984375 z "
     style="fill:white;fill-opacity:1;fill-rule:evenodd;stroke:black;stroke-width:2;stroke-linecap:butt;stroke-linejoin:miter;stroke-miterlimit:4;stroke-dasharray:none;stroke-opacity:1"
     id="path1881" />
  <path
     d="M 453.3125,17.796875 L 36.78125,17.828125 C 28.356999,17.828125 23.40625,23.829135 23.40625,32.703125 L 23.40625,237.35938 C 23.406249,246.23335 28.35701,252.23438 36.78125,252.23438 L 453.28125,252.20313 C 461.70549,252.20312 466.65625,246.20211 466.65625,237.32813 L 466.65625,32.671875 C 466.65625,23.797885 461.73674,17.796875 453.3125,17.796875 z "
     style="fill:none;fill-opacity:1;fill-rule:evenodd;stroke:black;stroke-width:10.05090809;stroke-linecap:butt;stroke-linejoin:miter;stroke-miterlimit:4;stroke-dasharray:none;stroke-opacity:1"
     id="path3976" />
  <g
     transform="translate(38.68648,-386.7619)"
     id="g3815">
    <path
       d="M 19.815937,581.55524 C 19.815926,582.7488 19.862938,583.64444 19.956976,584.24217 C 20.05099,584.83991 20.522557,585.75187 21.371679,586.97803 C 22.220775,588.20421 23.776515,588.81729 26.038904,588.81728 C 27.297678,588.81729 28.461485,588.55009 29.530327,588.01567 C 30.599128,587.48126 31.384913,586.78951 31.887686,585.94038 C 32.390412,585.09129 32.657617,584.211 32.689303,583.29951 C 32.720941,582.38805 32.736771,581.77497 32.736796,581.46025 L 32.736796,577.02761 C 32.736771,575.76884 32.689759,574.82523 32.595757,574.19677 C 32.501707,573.56835 32.124166,572.89242 31.463131,572.16898 C 30.802051,571.44558 29.858916,570.78548 28.633725,570.18868 C 27.408494,569.59193 25.27085,568.72747 22.220788,567.5953 C 19.170699,566.46318 16.608021,564.68677 14.532748,562.26606 C 12.457462,559.84541 11.419822,556.52813 11.419826,552.3142 L 11.419826,549.4848 C 11.419822,545.20956 12.850355,541.51569 15.711427,538.4032 C 18.572485,535.29082 22.140661,533.7346 26.415966,533.73453 C 30.754558,533.7346 34.386057,535.25963 37.310475,538.30965 C 40.234834,541.35978 41.697028,545.08483 41.697062,549.4848 L 41.697062,552.3142 L 32.736796,552.3142 L 32.736796,549.4848 C 32.736771,548.60599 32.673928,547.85187 32.548265,547.22242 C 32.422553,546.59308 31.919324,545.68112 31.038576,544.48656 C 30.157783,543.29211 28.680238,542.69485 26.605936,542.6948 C 24.782972,542.69485 23.289596,543.3396 22.125803,544.62904 C 20.961983,545.91859 20.380079,547.53717 20.380091,549.4848 L 20.380091,552.3142 C 20.380079,553.50972 20.427572,554.37466 20.522569,554.90902 C 20.617542,555.44348 20.947591,556.05656 21.512717,556.74828 C 22.077817,557.44008 22.895264,558.03734 23.965061,558.54005 C 25.034827,559.04284 27.094275,559.84445 30.143413,560.9449 C 33.192508,562.04542 35.880393,563.83766 38.207077,566.32163 C 40.533701,568.80567 41.697028,572.18531 41.697062,576.46058 L 41.697062,581.55524 C 41.697028,583.62957 41.492666,585.45252 41.083976,587.02408 C 40.675219,588.59566 39.402036,590.7808 37.264421,593.57949 C 35.126749,596.3782 31.448237,597.77755 26.228874,597.77755 C 20.821424,597.77755 16.891537,596.00114 14.439202,592.44831 C 11.986854,588.89549 10.760684,585.26447 10.760686,581.55524 L 10.760686,579.28999 L 19.815937,579.28999 L 19.815937,581.55524 z M 61.287028,588.62731 C 62.60913,588.62732 63.67843,588.2186 64.49494,587.40114 C 65.3114,586.5837 65.81463,585.51488 66.00462,584.19467 L 74.96489,584.19467 L 74.96489,585.23087 C 74.96486,586.61441 74.66599,587.99793 74.06829,589.38144 C 73.47052,590.76497 72.22852,592.5102 70.34228,594.61713 C 68.45598,596.72408 65.50089,597.77755 61.477,597.77755 C 58.897994,597.77755 56.523847,597.08579 54.354552,595.70227 C 52.185237,594.31875 50.691861,592.79371 49.874419,591.12715 C 49.056966,589.4606 48.538386,587.95139 48.318677,586.59952 C 48.098961,585.24768 47.989104,583.91165 47.989107,582.59144 L 47.989107,565.52002 C 47.989104,561.81083 49.325131,558.58854 51.997193,555.85312 C 54.66924,553.11778 57.860834,551.75009 61.57198,551.75005 C 65.40783,551.75009 68.59894,553.08612 71.14534,555.75813 C 73.69168,558.43023 74.96486,561.68419 74.96489,565.52002 L 74.96489,577.96883 L 57.044358,577.96883 L 57.044358,584.66672 C 57.044346,585.60891 57.500082,586.50455 58.411569,587.35365 C 59.323028,588.20277 60.281513,588.62732 61.287028,588.62731 L 61.287028,588.62731 z M 61.477,560.61533 C 60.281513,560.61537 59.243874,561.02409 58.364076,561.8415 C 57.484252,562.65898 57.044346,564.10487 57.044358,566.17916 L 57.044358,570.6118 L 65.90964,570.6118 L 65.90964,566.17916 C 65.90962,564.54429 65.56374,563.20827 64.872,562.17107 C 64.18022,561.13395 63.04855,560.61537 61.477,560.61533 L 61.477,560.61533 z M 82.0859,597.21052 L 82.0859,552.3142 L 91.14115,552.3142 L 91.14115,597.21052 L 82.0859,597.21052 z M 82.0859,543.16685 L 82.0859,534.30156 L 91.14115,534.30156 L 91.14115,543.16685 L 82.0859,543.16685 z M 112.52144,588.62731 L 114.59673,588.62731 L 114.59673,597.21052 L 111.76732,597.21052 C 110.06909,597.21052 108.55988,597.03782 107.23969,596.69242 C 105.91949,596.34702 104.63047,595.63943 103.37265,594.56964 C 102.11481,593.49986 101.23452,592.32071 100.73177,591.03216 C 100.22902,589.74364 99.97764,588.15623 99.97765,586.26995 L 99.97765,559.38916 L 95.54501,559.38916 L 95.54501,552.3142 L 99.97765,552.3142 L 99.97765,538.7342 L 109.0329,538.7342 L 109.0329,552.3142 L 114.59673,552.3142 L 114.59673,559.38916 L 109.0329,559.38916 L 109.0329,584.66672 C 109.03288,586.17498 109.23725,587.21214 109.64598,587.7782 C 110.05469,588.34429 111.01318,588.62732 112.52144,588.62731 L 112.52144,588.62731 z M 133.8672,588.62731 C 135.1893,588.62732 136.2586,588.2186 137.07511,587.40114 C 137.89157,586.5837 138.3948,585.51488 138.58479,584.19467 L 147.54506,584.19467 L 147.54506,585.23087 C 147.54503,586.61441 147.24616,587.99793 146.64846,589.38144 C 146.05069,590.76497 144.80869,592.5102 142.92245,594.61713 C 141.03615,596.72408 138.08106,597.77755 134.05717,597.77755 C 131.47816,597.77755 129.10402,597.08579 126.93472,595.70227 C 124.76541,594.31875 123.27203,592.79371 122.45459,591.12715 C 121.63714,589.4606 121.11856,587.95139 120.89885,586.59952 C 120.67913,585.24768 120.56927,583.91165 120.56928,582.59144 L 120.56928,565.52002 C 120.56927,561.81083 121.9053,558.58854 124.57736,555.85312 C 127.24941,553.11778 130.441,551.75009 134.15215,551.75005 C 137.988,551.75009 141.17911,553.08612 143.72551,555.75813 C 146.27185,558.43023 147.54503,561.68419 147.54506,565.52002 L 147.54506,577.96883 L 129.62453,577.96883 L 129.62453,584.66672 C 129.62452,585.60891 130.08025,586.50455 130.99174,587.35365 C 131.9032,588.20277 132.86168,588.62732 133.8672,588.62731 L 133.8672,588.62731 z M 134.05717,560.61533 C 132.86168,560.61537 131.82404,561.02409 130.94425,561.8415 C 130.06442,562.65898 129.62452,564.10487 129.62453,566.17916 L 129.62453,570.6118 L 138.48981,570.6118 L 138.48981,566.17916 C 138.48979,564.54429 138.14391,563.20827 137.45217,562.17107 C 136.76039,561.13395 135.62872,560.61537 134.05717,560.61533 L 134.05717,560.61533 z M 180.2257,556.36978 C 180.73034,557.12586 181.0767,558.0383 181.26478,559.10708 C 181.4528,560.17594 181.54683,561.24476 181.54686,562.31355 L 181.54686,597.21052 L 172.49161,597.21052 L 172.49161,565.615 C 172.49159,562.28192 171.01404,560.61537 168.05897,560.61533 C 166.73875,560.61537 165.66993,561.11859 164.8525,562.12502 C 164.03504,563.13151 163.62631,564.29484 163.62633,565.615 L 163.62633,597.21052 L 154.57108,597.21052 L 154.57108,552.3142 L 163.62633,552.3142 L 163.62633,556.65474 C 165.63923,553.38499 168.43793,551.75009 172.02244,551.75005 C 175.66831,551.75009 178.40273,553.29 180.2257,556.36978 L 180.2257,556.36978 z M 200.99003,589.28645 C 202.37354,589.28646 203.56804,588.84656 204.57356,587.96673 C 205.57904,587.08693 206.08179,585.95527 206.08181,584.57174 C 206.08179,582.93685 205.65772,581.72651 204.80959,580.94071 C 203.96142,580.15494 202.62491,579.44735 200.80006,578.81794 L 199.00973,578.1588 C 197.12345,577.4661 195.5514,576.78969 194.29358,576.12957 C 193.03574,575.46949 191.68388,574.27498 190.238,572.54604 C 188.79211,570.81714 188.06917,568.31779 188.06917,565.04797 C 188.06917,561.33879 189.35818,558.19517 191.93622,555.6171 C 194.51424,553.03911 197.68952,551.75009 201.46208,551.75005 C 204.9199,551.75009 207.84333,553.07029 210.23237,555.71064 C 212.62137,558.35108 213.81588,561.33783 213.8159,564.67091 L 205.51766,564.67091 C 205.51764,563.35074 205.09308,562.26609 204.24399,561.41695 C 203.39486,560.56787 202.27855,560.14332 200.89505,560.14328 C 199.63816,560.14332 198.601,560.61489 197.78356,561.55798 C 196.9661,562.50115 196.55738,563.63282 196.55739,564.95298 C 196.55738,566.33654 196.9661,567.40584 197.78356,568.16089 C 198.601,568.916 199.79551,569.57658 201.36709,570.14263 L 204.29148,571.08384 C 205.98968,571.71327 207.32571,572.311 208.29957,572.87705 C 209.27338,573.44315 210.2477,574.29177 211.22252,575.42294 C 212.19729,576.55415 212.99939,577.87434 213.62881,579.38353 C 214.25818,580.89276 214.57288,582.49647 214.57291,584.19467 C 214.57288,587.8425 213.26803,591.03361 210.65837,593.76802 C 208.04865,596.50245 204.9199,597.86966 201.27211,597.86966 C 199.07113,597.86966 196.85481,597.2724 194.62315,596.07789 C 192.39147,594.88338 190.66255,593.26432 189.43638,591.2207 C 188.21021,589.17708 187.59712,586.86674 187.59712,584.28966 L 195.99036,584.28966 C 195.99035,585.67319 196.47775,586.85187 197.45255,587.8257 C 198.42734,588.79954 199.6065,589.28646 200.99003,589.28645 L 200.99003,589.28645 z M 234.10244,588.62731 L 236.17772,588.62731 L 236.17772,597.21052 L 233.34831,597.21052 C 231.65008,597.21052 230.14087,597.03782 228.82069,596.69242 C 227.50048,596.34702 226.21147,595.63943 224.95364,594.56964 C 223.6958,593.49986 222.81551,592.32071 222.31277,591.03216 C 221.81001,589.74364 221.55864,588.15623 221.55864,586.26995 L 221.55864,559.38916 L 217.126,559.38916 L 217.126,552.3142 L 221.55864,552.3142 L 221.55864,538.7342 L 230.61389,538.7342 L 230.61389,552.3142 L 236.17772,552.3142 L 236.17772,559.38916 L 230.61389,559.38916 L 230.61389,584.66672 C 230.61388,586.17498 230.81824,587.21214 231.22698,587.7782 C 231.63569,588.34429 232.59417,588.62732 234.10244,588.62731 L 234.10244,588.62731 z M 263.65433,551.75005 L 263.65433,560.99239 C 263.21487,560.8677 262.77497,560.77367 262.33461,560.71031 C 261.8942,560.64703 261.485,560.61537 261.107,560.61533 C 258.15188,560.61537 255.88855,561.62134 254.317,563.63327 C 252.74541,565.64526 251.95963,568.06642 251.95964,570.89675 L 251.95964,597.21052 L 242.90439,597.21052 L 242.90439,552.3142 L 251.95964,552.3142 L 251.95964,557.12678 C 253.5312,555.17723 255.46448,553.79371 257.75949,552.97622 C 260.05446,552.15882 262.01941,551.75009 263.65433,551.75005 L 263.65433,551.75005 z M 281.79073,588.62731 C 283.11283,588.62732 284.18213,588.2186 284.99864,587.40114 C 285.8151,586.5837 286.31833,585.51488 286.50832,584.19467 L 295.46859,584.19467 L 295.46859,585.23087 C 295.46856,586.61441 295.16969,587.99793 294.57199,589.38144 C 293.97422,590.76497 292.73222,592.5102 290.84598,594.61713 C 288.95969,596.72408 286.00459,597.77755 281.9807,597.77755 C 279.40169,597.77755 277.02755,597.08579 274.85825,595.70227 C 272.68894,594.31875 271.19556,592.79371 270.37812,591.12715 C 269.56067,589.4606 269.04209,587.95139 268.82238,586.59952 C 268.60266,585.24768 268.4928,583.91165 268.49281,582.59144 L 268.49281,565.52002 C 268.4928,561.81083 269.82883,558.58854 272.50089,555.85312 C 275.17294,553.11778 278.36453,551.75009 282.07568,551.75005 C 285.91153,551.75009 289.10264,553.08612 291.64904,555.75813 C 294.19538,558.43023 295.46856,561.68419 295.46859,565.52002 L 295.46859,577.96883 L 277.54806,577.96883 L 277.54806,584.66672 C 277.54805,585.60891 278.00378,586.50455 278.91527,587.35365 C 279.82673,588.20277 280.78521,588.62732 281.79073,588.62731 L 281.79073,588.62731 z M 281.9807,560.61533 C 280.78521,560.61537 279.74757,561.02409 278.86778,561.8415 C 277.98795,562.65898 277.54805,564.10487 277.54806,566.17916 L 277.54806,570.6118 L 286.41334,570.6118 L 286.41334,566.17916 C 286.41332,564.54429 286.06744,563.20827 285.3757,562.17107 C 284.68392,561.13395 283.55225,560.61537 281.9807,560.61533 L 281.9807,560.61533 z M 302.58961,597.21052 L 302.58961,552.3142 L 311.64486,552.3142 L 311.64486,597.21052 L 302.58961,597.21052 z M 302.58961,543.16685 L 302.58961,534.30156 L 311.64486,534.30156 L 311.64486,543.16685 L 302.58961,543.16685 z M 321.51754,597.21052 L 321.51754,559.48414 L 317.0849,559.48414 L 317.0849,552.3142 L 321.51754,552.3142 L 321.51754,546.09124 C 321.51754,542.57012 322.39783,539.96043 324.15842,538.26216 C 325.91899,536.564 327.55388,535.47935 329.0631,535.0082 C 330.5723,534.53717 332.23933,534.30163 334.06422,534.30156 L 337.1757,534.30156 L 337.1757,542.59981 L 333.87425,542.59981 C 331.67326,542.59987 330.57278,543.76367 330.57279,546.09124 L 330.57279,552.3142 L 337.1757,552.3142 L 337.1757,559.48414 L 330.57279,559.48414 L 330.57279,597.21052 L 321.51754,597.21052 z M 354.18669,588.62731 C 355.50879,588.62732 356.57809,588.2186 357.3946,587.40114 C 358.21107,586.5837 358.7143,585.51488 358.90429,584.19467 L 367.86456,584.19467 L 367.86456,585.23087 C 367.86453,586.61441 367.56566,587.99793 366.96795,589.38144 C 366.37019,590.76497 365.12819,592.5102 363.24195,594.61713 C 361.35565,596.72408 358.40056,597.77755 354.37666,597.77755 C 351.79766,597.77755 349.42351,597.08579 347.25422,595.70227 C 345.0849,594.31875 343.59153,592.79371 342.77408,591.12715 C 341.95663,589.4606 341.43805,587.95139 341.21834,586.59952 C 340.99863,585.24768 340.88877,583.91165 340.88877,582.59144 L 340.88877,565.52002 C 340.88877,561.81083 342.2248,558.58854 344.89686,555.85312 C 347.56891,553.11778 350.7605,551.75009 354.47165,551.75005 C 358.30749,551.75009 361.49861,553.08612 364.045,555.75813 C 366.59134,558.43023 367.86453,561.68419 367.86456,565.52002 L 367.86456,577.96883 L 349.94402,577.96883 L 349.94402,584.66672 C 349.94401,585.60891 350.39975,586.50455 351.31123,587.35365 C 352.22269,588.20277 353.18118,588.62732 354.18669,588.62731 L 354.18669,588.62731 z M 354.37666,560.61533 C 353.18118,560.61537 352.14354,561.02409 351.26374,561.8415 C 350.38392,562.65898 349.94401,564.10487 349.94402,566.17916 L 349.94402,570.6118 L 358.8093,570.6118 L 358.8093,566.17916 C 358.80928,564.54429 358.4634,563.20827 357.77166,562.17107 C 357.07988,561.13395 355.94822,560.61537 354.37666,560.61533 L 354.37666,560.61533 z M 400.54519,556.36978 C 401.04983,557.12586 401.39619,558.0383 401.58427,559.10708 C 401.77229,560.17594 401.86632,561.24476 401.86635,562.31355 L 401.86635,597.21052 L 392.8111,597.21052 L 392.8111,565.615 C 392.81107,562.28192 391.33353,560.61537 388.37846,560.61533 C 387.05824,560.61537 385.98942,561.11859 385.17199,562.12502 C 384.35453,563.13151 383.9458,564.29484 383.94581,565.615 L 383.94581,597.21052 L 374.89056,597.21052 L 374.89056,552.3142 L 383.94581,552.3142 L 383.94581,556.65474 C 385.95872,553.38499 388.75742,551.75009 392.34193,551.75005 C 395.9878,551.75009 398.72221,553.29 400.54519,556.36978 L 400.54519,556.36978 z "
       style="font-size:94.31737518px;font-style:normal;font-variant:normal;font-weight:normal;font-stretch:normal;text-align:center;line-height:100%;writing-mode:lr-tb;text-anchor:middle;fill:black;fill-opacity:1;fill-rule:nonzero;stroke:none;stroke-width:1;stroke-linecap:round;stroke-linejoin:miter;stroke-miterlimit:4;stroke-dashoffset:0;stroke-opacity:1;font-family:DIN 1451 Engschrift"
       id="text1978" />
    <path
       d="M 87.18044,505.2588 C 86.72839,504.48444 86.438,503.63048 86.30927,502.6969 C 86.18054,501.76335 86.11617,500.71677 86.11617,499.55718 L 86.11617,494.34199 C 86.11617,490.92811 86.96964,488.3839 88.6766,486.70936 C 90.38354,485.03487 91.92933,483.89199 93.31396,483.28072 C 94.69857,482.66951 96.35688,482.36389 98.28888,482.36386 L 104.47104,482.36386 L 104.47104,478.40162 C 104.47102,477.49953 104.42287,476.75907 104.32658,476.18022 C 104.23026,475.60145 103.82784,474.86099 103.11934,473.95883 C 102.41079,473.05675 101.44431,472.60569 100.21988,472.60565 C 98.93253,472.60569 97.8378,473.02432 96.9357,473.86154 C 96.03357,474.69884 95.4862,475.79357 95.29361,477.14573 L 86.11617,477.14573 C 86.11617,473.4115 87.45264,470.2079 90.12559,467.53492 C 92.79852,464.86202 96.03455,463.52555 99.83368,463.52551 C 103.56988,463.52555 106.82262,464.84581 109.59189,467.48628 C 112.36111,470.12683 113.74573,473.34665 113.74576,477.14573 L 113.74576,510.08779 L 104.47104,510.08779 L 104.47104,505.45043 C 103.50601,507.0601 102.29876,508.3322 100.8493,509.26674 C 99.3998,510.20129 97.77294,510.66857 95.96872,510.66857 C 91.91213,510.66857 88.9827,508.86531 87.18044,505.2588 L 87.18044,505.2588 z M 95.39089,494.2447 L 95.39089,496.56191 C 95.39088,497.78637 95.82573,498.8978 96.69543,499.89621 C 97.5651,500.89464 98.70749,501.39385 100.12259,501.39384 C 100.89694,501.39385 101.62218,501.20075 102.29829,500.81454 C 102.97437,500.42835 103.4893,499.8972 103.8431,499.2211 C 104.19685,498.54501 104.38995,497.67532 104.4224,496.61203 C 104.45481,495.54876 104.47102,494.79208 104.47104,494.34199 L 104.47104,489.89626 L 100.99228,489.89626 C 99.31775,489.89628 97.96555,490.2186 96.9357,490.86323 C 95.90582,491.5079 95.39088,492.63506 95.39089,494.2447 L 95.39089,494.2447 z M 140.24623,510.08779 L 140.24623,505.45043 C 139.15148,507.12495 137.94374,508.41327 136.62302,509.31539 C 135.30225,510.21751 133.70831,510.66857 131.8412,510.66857 C 129.97406,510.66857 128.21945,510.15314 126.57737,509.12229 C 124.93527,508.09144 123.7919,506.91613 123.14725,505.59636 C 122.5026,504.2766 122.13212,503.19809 122.03582,502.36082 C 121.93951,501.52357 121.89136,500.29913 121.89136,498.68749 L 121.89136,464.10333 L 131.16608,464.10333 L 131.16608,495.21168 C 131.16607,495.91924 131.18228,496.64349 131.21473,497.38443 C 131.24714,498.1254 131.6014,498.97887 132.27752,499.94485 C 132.9536,500.91086 134.12891,501.39385 135.80344,501.39384 C 136.64068,501.39385 137.41309,501.16832 138.12065,500.71726 C 138.82817,500.26621 139.32689,499.73506 139.61681,499.12381 C 139.90668,498.51258 140.08406,497.8527 140.14894,497.14416 C 140.21378,496.43565 140.24621,495.79149 140.24623,495.21168 L 140.24623,464.10333 L 149.52095,464.10333 L 149.52095,510.08779 L 140.24623,510.08779 z M 159.67126,510.08779 L 159.67126,471.44705 L 155.13118,471.44705 L 155.13118,464.10333 L 159.67126,464.10333 L 159.67126,457.72954 C 159.67125,454.12309 160.57288,451.45015 162.37614,449.71071 C 164.17938,447.9714 165.8539,446.86046 167.3997,446.37789 C 168.94547,445.89544 170.65291,445.65419 172.52202,445.65413 L 175.70892,445.65413 L 175.70892,454.1535 L 172.32745,454.1535 C 170.07312,454.15355 168.94596,455.34557 168.94598,457.72954 L 168.94598,464.10333 L 175.70892,464.10333 L 175.70892,471.44705 L 168.94598,471.44705 L 168.94598,510.08779 L 159.67126,510.08779 z "
       style="font-size:96.60332489px;font-style:normal;font-variant:normal;font-weight:normal;font-stretch:normal;text-align:center;line-height:100%;writing-mode:lr-tb;text-anchor:middle;fill:black;fill-opacity:1;stroke:none;stroke-width:1px;stroke-linecap:butt;stroke-linejoin:miter;stroke-opacity:1;font-family:DIN 1451 Engschrift"
       id="text1970" />
    <path
       d="M 228.51795,510.2747 L 228.51795,505.54006 C 227.61581,507.08683 226.42428,508.35942 224.94338,509.35784 C 223.46243,510.35627 221.81985,510.85548 220.01563,510.85548 C 215.82932,510.85548 213.18881,509.71211 212.09408,507.42536 C 210.99935,505.13863 210.40384,503.49605 210.30754,502.49762 C 210.21123,501.4992 210.16308,500.16273 210.16308,498.4882 L 210.16308,473.66226 C 210.16308,470.89305 211.09664,468.54243 212.96377,466.6104 C 214.8309,464.67846 217.18151,463.71247 220.01563,463.71242 C 221.75499,463.71247 223.38136,464.16303 224.89473,465.06412 C 226.40807,465.9653 227.61581,467.15683 228.51795,468.63869 L 228.51795,445.84104 L 237.79267,445.84104 L 237.79267,510.2747 L 228.51795,510.2747 z M 227.83988,475.01543 C 226.93971,473.4687 225.61995,472.69532 223.88059,472.69528 C 222.97845,472.69532 222.15741,472.93706 221.41745,473.42051 C 220.67746,473.90404 220.17825,474.48383 219.91981,475.15989 C 219.66135,475.83602 219.5164,476.54455 219.48497,477.28547 C 219.45351,478.02646 219.43779,478.58954 219.4378,478.97473 L 219.4378,495.49293 C 219.43779,496.1376 219.45351,496.78225 219.48497,497.42689 C 219.5164,498.07155 219.82202,498.90881 220.40183,499.93867 C 220.98161,500.96854 222.17362,501.48348 223.97787,501.48347 C 225.84498,501.48348 227.06844,500.96854 227.64826,499.93867 C 228.22803,498.90881 228.51792,497.87796 228.51795,496.84611 L 228.51795,495.49293 L 228.51795,478.97473 C 228.51792,478.33011 228.50171,477.66974 228.4693,476.99361 C 228.43685,476.31754 228.22705,475.65815 227.83988,475.01543 L 227.83988,475.01543 z M 258.58267,501.48347 C 259.93681,501.48348 261.03203,501.06485 261.86832,500.22758 C 262.70458,499.39033 263.22001,498.2956 263.4146,496.9434 L 272.59204,496.9434 L 272.59204,498.00471 C 272.592,499.42178 272.28589,500.83883 271.6737,502.25587 C 271.06145,503.67293 269.78935,505.46046 267.85739,507.61847 C 265.92538,509.77647 262.89866,510.85548 258.77724,510.85548 C 256.13573,510.85548 253.70404,510.14695 251.48217,508.7299 C 249.26028,507.31285 247.73071,505.75085 246.89345,504.04389 C 246.05619,502.33695 245.52504,500.79117 245.3,499.40653 C 245.07496,498.02192 244.96244,496.65351 244.96245,495.30131 L 244.96245,477.81613 C 244.96244,474.01705 246.33085,470.71665 249.06768,467.91494 C 251.80448,465.1133 255.07343,463.71247 258.87453,463.71242 C 262.80334,463.71247 266.0718,465.08087 268.67991,467.81765 C 271.28796,470.55451 272.592,473.88733 272.59204,477.81613 L 272.59204,490.56666 L 254.23717,490.56666 L 254.23717,497.42689 C 254.23716,498.39191 254.70394,499.30926 255.63752,500.17894 C 256.57107,501.04863 257.55278,501.48348 258.58267,501.48347 L 258.58267,501.48347 z M 258.77724,472.79257 C 257.55278,472.7926 256.48999,473.21123 255.58887,474.04846 C 254.68772,474.88575 254.23716,476.36668 254.23717,478.49124 L 254.23717,483.03132 L 263.31731,483.03132 L 263.31731,478.49124 C 263.31729,476.81676 262.96303,475.44835 262.25452,474.38601 C 261.54598,473.32375 260.38688,472.7926 258.77724,472.79257 L 258.77724,472.79257 z M 306.06476,468.44412 C 307.28917,466.89936 308.64185,465.72454 310.12282,464.91967 C 311.60371,464.11488 313.27872,463.71247 315.14785,463.71242 C 318.30227,463.71247 320.89414,464.82341 322.92346,467.04525 C 324.95269,469.26717 325.96733,471.95534 325.96738,475.10977 L 325.96738,510.2747 L 316.69266,510.2747 L 316.69266,477.71884 C 316.69261,476.23893 316.32214,475.03168 315.58122,474.0971 C 314.84023,473.16259 313.69735,472.69532 312.15258,472.69528 C 310.86324,472.69532 309.78424,473.19453 308.91557,474.19291 C 308.04683,475.19137 307.61248,476.36668 307.61251,477.71884 L 307.61251,510.2747 L 298.33779,510.2747 L 298.33779,477.71884 C 298.33776,476.30182 297.91914,475.1103 297.0819,474.14427 C 296.24462,473.17831 295.11746,472.69532 293.70043,472.69528 C 292.41307,472.69532 291.33456,473.19453 290.46489,474.19291 C 289.59518,475.19137 289.16034,476.36668 289.16035,477.71884 L 289.16035,510.2747 L 279.88563,510.2747 L 279.88563,464.29025 L 289.16035,464.29025 L 289.16035,468.44412 C 291.28494,465.2897 294.18291,463.71247 297.8543,463.71242 C 299.59365,463.71247 301.15565,464.11488 302.5403,464.91967 C 303.9249,465.72454 305.09972,466.89936 306.06476,468.44412 L 306.06476,468.44412 z "
       style="font-size:96.60332489px;font-style:normal;font-variant:normal;font-weight:normal;font-stretch:normal;text-align:center;line-height:100%;writing-mode:lr-tb;text-anchor:middle;fill:black;fill-opacity:1;stroke:none;stroke-width:1px;stroke-linecap:butt;stroke-linejoin:miter;stroke-opacity:1;font-family:DIN 1451 Engschrift"
       id="text1974" />
  </g>
</svg>
