<?xml version="1.0" encoding="UTF-8" standalone="no"?>
<!-- Created with Inkscape (http://www.inkscape.org/) -->
<svg
   xmlns:svg="http://www.w3.org/2000/svg"
   xmlns="http://www.w3.org/2000/svg"
   version="1.0"
   width="490"
   height="270"
   id="svg2">
  <defs
     id="defs4" />
  <path
     d="M 38.78125,4.984375 C 20.356889,4.9843748 9.96875,12.12016 9.96875,33.203125 L 9.65625,236.79688 C 9.65625,257.87984 20.044391,265.01563 38.46875,265.01563 L 451.21875,264.98438 C 469.64311,264.98438 480.03124,257.84859 480.03125,236.76563 L 480.34375,33.234375 C 480.34375,12.15141 469.95561,5.0156248 451.53125,5.015625 L 38.78125,4.984375 z "
     style="fill:white;fill-opacity:1;fill-rule:evenodd;stroke:black;stroke-width:2;stroke-linecap:butt;stroke-linejoin:miter;stroke-miterlimit:4;stroke-dasharray:none;stroke-opacity:1"
     id="path1881" />
  <path
     d="M 453.3125,17.796875 L 36.78125,17.828125 C 28.356999,17.828125 23.40625,23.829135 23.40625,32.703125 L 23.40625,237.35938 C 23.406249,246.23335 28.35701,252.23438 36.78125,252.23438 L 453.28125,252.20313 C 461.70549,252.20312 466.65625,246.20211 466.65625,237.32813 L 466.65625,32.671875 C 466.65625,23.797885 461.73674,17.796875 453.3125,17.796875 z "
     style="fill:none;fill-opacity:1;fill-rule:evenodd;stroke:black;stroke-width:10.05090809;stroke-linecap:butt;stroke-linejoin:miter;stroke-miterlimit:4;stroke-dasharray:none;stroke-opacity:1"
     id="path3976" />
  <g
     transform="translate(145.3531,-309.6351)"
     id="g3631">
    <path
       d="M -81.116844,463.05376 L -81.116844,481.9819 L -67.907419,481.9819 C -64.605094,481.98193 -62.141754,480.98854 -60.51739,479.00173 C -58.893098,477.01498 -58.080933,474.85368 -58.080895,472.51783 C -58.080933,468.97388 -59.356232,466.36959 -61.906796,464.70494 C -63.544583,463.60421 -65.652182,463.05381 -68.2296,463.05376 L -81.116844,463.05376 z M -90.017097,513.31402 L -90.017097,454.63678 L -68.712872,454.63678 C -66.430785,454.63684 -64.235929,454.87848 -62.128295,455.36169 C -60.02073,455.84502 -57.825874,456.97265 -55.543719,458.74459 C -53.771765,460.11391 -52.268255,462.00001 -51.033184,464.4029 C -49.798202,466.80588 -49.180689,469.5914 -49.180642,472.75947 C -49.180689,476.94786 -50.744609,480.93485 -53.872405,484.72044 C -57.000285,488.50609 -61.571225,490.39891 -67.585238,490.39888 L -81.116844,490.39888 L -81.116844,513.31402 L -90.017097,513.31402 z M -19.82189,513.31402 L -19.82189,509.60893 L -20.023253,509.60893 C -21.71473,512.40117 -25.151325,513.79729 -30.333049,513.79729 C -35.004687,513.79729 -38.629221,512.5824 -41.206661,510.15261 C -43.784113,507.72284 -45.072836,504.68226 -45.072834,501.03086 C -45.072836,497.72852 -43.931779,494.84232 -41.64966,492.37224 C -39.367552,489.90221 -35.971229,488.66719 -31.460682,488.66716 L -19.82189,488.66716 L -19.82189,484.31772 C -19.821917,480.74691 -22.681272,478.96149 -28.399962,478.96145 C -32.373544,478.96149 -35.018111,480.022 -36.333672,482.14299 L -42.938384,477.14919 C -40.011913,473.06827 -35.313443,471.02779 -28.842961,471.02775 C -23.688087,471.02779 -19.499737,472.0346 -16.277898,474.04819 C -13.056121,476.06186 -11.445217,479.64612 -11.445181,484.80099 L -11.445181,513.31402 L -19.82189,513.31402 z M -19.82189,498.65478 L -19.82189,495.59405 L -29.890049,495.59405 C -34.749627,495.59407 -37.179407,497.2721 -37.179397,500.62813 C -37.179407,502.05111 -36.568606,503.28614 -35.346992,504.33322 C -34.125402,505.38031 -32.091636,505.90386 -29.245687,505.90385 C -25.755413,505.90386 -23.312209,505.51456 -21.916067,504.73594 C -20.519976,503.95735 -19.821917,501.93029 -19.82189,498.65478 L -19.82189,498.65478 z M -0.53129624,513.31402 L -0.53129624,471.51102 L 7.8856851,471.51102 L 7.8856851,475.98128 L 8.0467757,475.98128 C 10.651056,472.67896 14.27559,471.02779 18.920388,471.02775 C 21.98108,471.02779 24.894132,472.10172 27.659551,474.24956 L 21.578382,481.49863 C 19.752663,480.12939 17.900124,479.44476 16.020758,479.44473 C 13.953409,479.44476 12.080733,480.13611 10.402725,481.51877 C 8.7246837,482.90149 7.8856712,485.1232 7.8856851,488.18389 L 7.8856851,513.31402 L -0.53129624,513.31402 z M 31.525726,513.31402 L 31.525726,454.63678 L 39.942707,454.63678 L 39.942707,491.16406 L 40.103798,491.16406 L 56.17258,471.51102 L 66.24074,471.51102 L 51.823136,487.86171 L 68.214099,513.31402 L 57.662668,513.31402 L 46.54742,493.78179 L 39.942707,501.31277 L 39.942707,513.31402 L 31.525726,513.31402 z M 69.744455,506.34685 L 75.62426,500.54759 C 79.275635,504.11844 83.665349,505.90386 88.793413,505.90385 C 91.1829,505.90386 93.156258,505.45415 94.713491,504.55472 C 96.270672,503.6553 97.049275,502.3196 97.049304,500.54759 C 97.049275,498.1044 95.344402,496.73513 91.934679,496.43978 L 84.524513,495.75515 C 81.061054,495.48668 78.188275,494.34562 75.906169,492.33197 C 73.624048,490.31836 72.482991,487.5127 72.482994,483.91499 C 72.482991,479.67297 73.973077,476.46459 76.953257,474.28983 C 79.933421,472.11515 83.6385,471.02779 88.068505,471.02775 C 91.719868,471.02779 94.847707,471.54462 97.45203,472.57824 C 100.0563,473.61195 102.39211,474.98793 104.45947,476.70619 L 99.264299,482.82763 C 97.599668,481.70003 95.88137,480.77376 94.109401,480.04882 C 92.337381,479.32394 90.323752,478.96149 88.068505,478.96145 C 85.383646,478.96149 83.517682,479.43805 82.470609,480.39113 C 81.423507,481.34428 80.899964,482.54575 80.899976,483.99553 C 80.899964,484.90841 81.289265,485.75413 82.067882,486.53271 C 82.846473,487.31134 84.296286,487.78119 86.417327,487.94225 L 93.344221,488.42552 C 97.666789,488.72088 100.76778,490.05659 102.6472,492.43265 C 104.52655,494.80876 105.46625,497.64797 105.46628,500.95032 C 105.46625,505.05813 103.78822,508.22624 100.43221,510.45466 C 97.076124,512.68308 92.981743,513.79729 88.149051,513.79729 C 81.195296,513.79729 75.060437,511.31381 69.744455,506.34685 L 69.744455,506.34685 z M 138.5704,501.03086 L 144.77238,506.58848 C 142.94666,508.68267 140.77865,510.40768 138.26835,511.76352 C 135.758,513.11936 132.91878,513.79729 129.75069,513.79729 C 124.91796,513.79729 120.54838,512.15282 116.64195,508.86389 C 112.7355,505.57496 110.78228,500.1046 110.78228,492.45279 C 110.78228,484.80102 112.7355,479.31723 116.64195,476.00142 C 120.54838,472.68568 124.91796,471.02779 129.75069,471.02775 C 132.91878,471.02779 135.758,471.71242 138.26835,473.08165 C 140.77865,474.45096 142.94666,476.18268 144.77238,478.27682 L 138.5704,483.79417 C 136.20771,480.89457 133.3752,479.44476 130.07287,479.44473 C 122.82378,479.44476 119.19925,483.78078 119.19926,492.45279 C 119.19925,501.09799 122.82378,505.42059 130.07287,505.42058 C 133.40205,505.42059 136.23456,503.95735 138.5704,501.03086 L 138.5704,501.03086 z M 150.57164,513.31402 L 150.57164,454.63678 L 158.98862,454.63678 L 158.98862,475.98128 L 159.14971,475.98128 C 161.75399,472.67896 165.37853,471.02779 170.02332,471.02775 C 173.27196,471.02779 176.40651,472.26281 179.42698,474.73283 C 182.4474,477.20292 183.95762,480.8006 183.95766,485.52589 L 183.95766,513.31402 L 175.54068,513.31402 L 175.54068,488.42552 C 175.54064,485.60647 174.75533,483.4049 173.18473,481.82081 C 171.61407,480.23679 169.66085,479.44476 167.32506,479.44473 C 164.90868,479.44476 162.91519,480.23679 161.34457,481.82081 C 159.77392,483.4049 158.98861,485.60647 158.98862,488.42552 L 158.98862,513.31402 L 150.57164,513.31402 z M 227.25075,495.59405 L 201.23463,495.59405 C 201.23462,499.03067 202.1676,501.60811 204.03358,503.3264 C 205.89953,505.04471 208.28232,505.90386 211.18197,505.90385 C 214.64539,505.90386 217.70611,504.56144 220.36413,501.87659 L 226.4453,507.07176 C 224.37794,509.48812 222.04884,511.21313 219.458,512.24679 C 216.8671,513.28045 214.16212,513.79729 211.34306,513.79729 C 207.04729,513.79729 202.88579,512.40788 198.85854,509.62907 C 194.83127,506.85026 192.81764,501.16511 192.81765,492.57361 C 192.81764,484.43856 194.67689,478.81382 198.39541,475.69937 C 202.1139,472.58499 206.00021,471.02779 210.05434,471.02775 C 214.64539,471.02779 218.65923,472.61856 222.09585,475.80005 C 225.53242,478.98163 227.25071,483.27066 227.25075,488.66716 L 227.25075,495.59405 z M 201.23463,488.66716 L 218.87404,488.66716 C 218.73977,485.52592 217.85377,483.12299 216.21605,481.45836 C 214.57827,479.79379 212.52437,478.96149 210.05434,478.96145 C 207.55741,478.96149 205.48338,479.79379 203.83221,481.45836 C 202.18102,483.12299 201.31516,485.52592 201.23463,488.66716 L 201.23463,488.66716 z M 236.35235,513.31402 L 236.35235,471.51102 L 244.76933,471.51102 L 244.76933,513.31402 L 236.35235,513.31402 z M 236.35235,463.05376 L 236.35235,454.63678 L 244.76933,454.63678 L 244.76933,463.05376 L 236.35235,463.05376 z M 255.92487,513.31402 L 255.92487,471.51102 L 264.34185,471.51102 L 264.34185,475.98128 L 264.50294,475.98128 C 267.10722,472.67896 270.73175,471.02779 275.37655,471.02775 C 278.62518,471.02779 281.75973,472.26281 284.78021,474.73283 C 287.80062,477.20292 289.31084,480.8006 289.31088,485.52589 L 289.31088,513.31402 L 280.8939,513.31402 L 280.8939,488.42552 C 280.89387,485.60647 280.10855,483.4049 278.53795,481.82081 C 276.96729,480.23679 275.01407,479.44476 272.67828,479.44473 C 270.2619,479.44476 268.26841,480.23679 266.6978,481.82081 C 265.12715,483.4049 264.34183,485.60647 264.34185,488.42552 L 264.34185,513.31402 L 255.92487,513.31402 z "
       style="font-size:82.47836304px;font-style:normal;font-variant:normal;font-weight:normal;font-stretch:normal;text-indent:0;text-align:center;text-decoration:none;line-height:100%;letter-spacing:normal;word-spacing:normal;text-transform:none;direction:ltr;block-progression:tb;writing-mode:lr-tb;text-anchor:middle;color:black;fill:black;fill-opacity:1;fill-rule:nonzero;stroke:none;stroke-width:1;stroke-linecap:round;stroke-linejoin:miter;marker:none;marker-start:none;marker-mid:none;marker-end:none;stroke-miterlimit:4;stroke-dashoffset:0;stroke-opacity:1;visibility:visible;display:inline;overflow:visible;font-family:DIN 1451 Mittelschrift"
       id="text1939" />
    <path
       d="M 47.352868,434.15007 L 47.352868,392.34708 L 55.769849,392.34708 L 55.769849,396.81734 L 55.93094,396.81734 C 58.588917,393.51502 62.213451,391.86385 66.804552,391.8638 C 69.731002,391.86385 72.053389,392.38739 73.771719,393.43444 C 75.489984,394.48157 77.100888,395.77029 78.604435,397.30061 C 81.906751,393.67611 86.309888,391.86385 91.813861,391.8638 C 95.062466,391.86385 98.197017,393.09887 101.21752,395.56889 C 104.23791,398.03898 105.74813,401.63666 105.74819,406.36195 L 105.74819,434.15007 L 97.331212,434.15007 L 97.331212,409.26158 C 97.331156,406.44253 96.539128,404.24096 94.955126,402.65687 C 93.371017,401.07285 91.411084,400.28082 89.075321,400.28079 C 86.658918,400.28082 84.665424,401.07285 83.094834,402.65687 C 81.524161,404.24096 80.738846,406.44253 80.738885,409.26158 L 80.738885,434.15007 L 72.362176,434.15007 L 72.362176,409.26158 C 72.362145,406.44253 71.570118,404.24096 69.986091,402.65687 C 68.402006,401.07285 66.442073,400.28082 64.106285,400.28079 C 61.689907,400.28082 59.696413,401.07285 58.125799,402.65687 C 56.555151,404.24096 55.769835,406.44253 55.769849,409.26158 L 55.769849,434.15007 L 47.352868,434.15007 z M 117.34671,434.15007 L 117.34671,392.34708 L 125.76369,392.34708 L 125.76369,434.15007 L 117.34671,434.15007 z M 117.34671,383.88982 L 117.34671,375.47284 L 125.76369,375.47284 L 125.76369,383.88982 L 117.34671,383.88982 z M 137.40249,392.34708 L 137.40249,379.6612 L 145.81947,379.6612 L 145.81947,392.34708 L 151.94091,392.34708 L 151.94091,398.7907 L 145.81947,398.7907 L 145.81947,423.11537 C 145.81946,425.20956 146.81285,426.25665 148.79965,426.25664 L 151.94091,426.25664 L 151.94091,434.15007 L 147.55119,434.15007 C 144.6247,434.15007 142.20163,433.26408 140.28198,431.49208 C 138.36231,429.72009 137.40248,427.18292 137.40249,423.88055 L 137.40249,398.7907 L 133.21414,398.7907 L 133.21414,392.34708 L 137.40249,392.34708 z "
       style="font-size:82.47836304px;font-style:normal;font-variant:normal;font-weight:normal;font-stretch:normal;text-indent:0;text-align:center;text-decoration:none;line-height:100%;letter-spacing:normal;word-spacing:normal;text-transform:none;direction:ltr;block-progression:tb;writing-mode:lr-tb;text-anchor:middle;color:black;fill:black;fill-opacity:1;fill-rule:nonzero;stroke:none;stroke-width:1;stroke-linecap:round;stroke-linejoin:miter;marker:none;marker-start:none;marker-mid:none;marker-end:none;stroke-miterlimit:4;stroke-dashoffset:0;stroke-opacity:1;visibility:visible;display:inline;overflow:visible;font-family:DIN 1451 Mittelschrift"
       id="text1935" />
  </g>
</svg>
