<?xml version="1.0" encoding="UTF-8" standalone="no"?>
<!-- Created with Inkscape (http://www.inkscape.org/) -->
<svg
   xmlns:svg="http://www.w3.org/2000/svg"
   xmlns="http://www.w3.org/2000/svg"
   version="1.0"
   width="490"
   height="270"
   id="svg2">
  <defs
     id="defs4" />
  <path
     d="M 38.78125,4.984375 C 20.356889,4.9843748 9.96875,12.12016 9.96875,33.203125 L 9.65625,236.79688 C 9.65625,257.87984 20.044391,265.01563 38.46875,265.01563 L 451.21875,264.98438 C 469.64311,264.98438 480.03124,257.84859 480.03125,236.76563 L 480.34375,33.234375 C 480.34375,12.15141 469.95561,5.0156248 451.53125,5.015625 L 38.78125,4.984375 z "
     style="fill:white;fill-opacity:1;fill-rule:evenodd;stroke:black;stroke-width:2;stroke-linecap:butt;stroke-linejoin:miter;stroke-miterlimit:4;stroke-dasharray:none;stroke-opacity:1"
     id="path1881" />
  <path
     d="M 453.3125,17.796875 L 36.78125,17.828125 C 28.356999,17.828125 23.40625,23.829135 23.40625,32.703125 L 23.40625,237.35938 C 23.406249,246.23335 28.35701,252.23438 36.78125,252.23438 L 453.28125,252.20313 C 461.70549,252.20312 466.65625,246.20211 466.65625,237.32813 L 466.65625,32.671875 C 466.65625,23.797885 461.73674,17.796875 453.3125,17.796875 z "
     style="fill:none;fill-opacity:1;fill-rule:evenodd;stroke:black;stroke-width:10.05090809;stroke-linecap:butt;stroke-linejoin:miter;stroke-miterlimit:4;stroke-dasharray:none;stroke-opacity:1"
     id="path3976" />
  <g
     transform="translate(239.8387,-425.2006)"
     id="g2473">
    <path
       d="M -175.06172,568.23318 C -173.14017,568.23325 -171.21861,568.66409 -169.29701,569.52569 C -167.37547,570.38743 -165.35428,571.87867 -163.23345,573.99941 C -161.11267,576.12028 -160.05227,579.40059 -160.05224,583.84038 L -160.05224,588.91029 C -160.05227,593.94889 -162.04059,597.52806 -166.01719,599.64782 C -162.04059,601.96789 -160.05227,605.64719 -160.05224,610.68572 L -160.05224,618.44077 C -160.05227,623.07884 -161.54351,626.92248 -164.52595,629.9717 C -167.50846,633.02093 -171.3521,634.54555 -176.05689,634.54555 L -190.67195,634.54555 L -190.67195,568.23318 L -175.06172,568.23318 z M -169.39713,587.91815 L -169.39713,583.84038 C -169.39716,581.78738 -169.99335,580.16416 -171.18571,578.97071 C -172.37812,577.77738 -173.96847,577.18068 -175.95677,577.18062 L -181.32705,577.18062 L -181.32705,595.47295 L -175.65943,595.47295 C -173.47291,595.47299 -171.88256,594.79387 -170.88837,593.43558 C -169.89424,592.07738 -169.39716,590.23824 -169.39713,587.91815 L -169.39713,587.91815 z M -169.39713,618.44077 L -169.39713,610.68572 C -169.39716,608.56393 -169.97717,606.89014 -171.13717,605.66435 C -172.29721,604.43862 -173.90374,603.82574 -175.95677,603.82571 L -181.32705,603.82571 L -181.32705,625.10053 L -175.85968,625.10053 C -173.93611,625.10053 -172.37812,624.47097 -171.18571,623.21182 C -169.99335,621.9527 -169.39716,620.36235 -169.39713,618.44077 L -169.39713,618.44077 z M -151.36573,629.57576 C -151.83096,628.77882 -152.12981,627.89996 -152.26229,626.93916 C -152.39478,625.97839 -152.46103,624.9013 -152.46103,623.70789 L -152.46103,618.34065 C -152.46103,614.82723 -151.58267,612.20884 -149.82595,610.48547 C -148.06923,608.76215 -146.47838,607.58595 -145.05337,606.95686 C -143.62839,606.32783 -141.92173,606.0133 -139.9334,606.01327 L -133.57098,606.01327 L -133.57098,601.9355 C -133.571,601.00711 -133.62056,600.24505 -133.71965,599.64933 C -133.81879,599.05368 -134.23294,598.29163 -134.9621,597.36317 C -135.6913,596.43479 -136.68597,595.97058 -137.94609,595.97054 C -139.27098,595.97058 -140.39763,596.40141 -141.32603,597.26305 C -142.25447,598.12476 -142.81779,599.2514 -143.016,600.64299 L -152.46103,600.64299 C -152.46103,596.79989 -151.08559,593.50288 -148.33471,590.75196 C -145.58384,588.00113 -142.25346,586.62569 -138.34355,586.62564 C -134.49841,586.62569 -131.15084,587.98444 -128.30082,590.7019 C -125.45086,593.41944 -124.02587,596.73314 -124.02584,600.64299 L -124.02584,634.54555 L -133.57098,634.54555 L -133.57098,629.77297 C -134.56415,631.42957 -135.8066,632.73877 -137.29832,633.70056 C -138.79008,634.66236 -140.46438,635.14326 -142.3212,635.14326 C -146.49608,635.14326 -149.51092,633.28743 -151.36573,629.57576 L -151.36573,629.57576 z M -142.91588,618.24052 L -142.91588,620.62529 C -142.91589,621.88545 -142.46837,623.02929 -141.57331,624.05681 C -140.67828,625.08435 -139.50258,625.59812 -138.04622,625.59811 C -137.24929,625.59812 -136.50291,625.39939 -135.80708,625.00192 C -135.11129,624.60447 -134.58135,624.05783 -134.21724,623.36201 C -133.85317,622.66621 -133.65444,621.77117 -133.62104,620.67687 C -133.58769,619.5826 -133.571,618.80386 -133.57098,618.34065 L -133.57098,613.76529 L -137.15117,613.76529 C -138.87453,613.76531 -140.26615,614.09703 -141.32603,614.76046 C -142.38594,615.42392 -142.91589,616.58394 -142.91588,618.24052 L -142.91588,618.24052 z M -96.7527,634.54555 L -96.7527,629.77297 C -97.87936,631.49632 -99.12231,632.8222 -100.48155,633.75062 C -101.84083,634.67905 -103.48124,635.14326 -105.40279,635.14326 C -107.32438,635.14326 -109.13014,634.6128 -110.8201,633.55189 C -112.51008,632.49099 -113.68679,631.28141 -114.35023,629.92316 C -115.01368,628.56492 -115.39496,627.45496 -115.49407,626.59328 C -115.59319,625.73162 -115.64274,624.47147 -115.64274,622.81285 L -115.64274,587.22032 L -106.09759,587.22032 L -106.09759,619.23569 C -106.09761,619.96388 -106.08092,620.70925 -106.04753,621.47179 C -106.01417,622.23436 -105.64958,623.11272 -104.95375,624.10687 C -104.25796,625.10104 -103.04838,625.59812 -101.32502,625.59811 C -100.46337,625.59812 -99.66844,625.36601 -98.94025,624.90179 C -98.2121,624.43759 -97.69884,623.89096 -97.40047,623.26189 C -97.10214,622.63284 -96.91959,621.95371 -96.85282,621.22452 C -96.78609,620.49535 -96.75272,619.8324 -96.7527,619.23569 L -96.7527,587.22032 L -87.20755,587.22032 L -87.20755,634.54555 L -96.7527,634.54555 z M -66.71856,626.19279 C -65.26021,626.19279 -64.00108,625.72909 -62.94116,624.80167 C -61.88129,623.87427 -61.35134,622.68138 -61.35132,621.223 C -61.35134,619.49967 -61.79836,618.22385 -62.69237,617.39554 C -63.58643,616.56726 -64.99524,615.82138 -66.91881,615.15792 L -68.806,614.46312 C -70.79433,613.73294 -72.45143,613.01994 -73.7773,612.32411 C -75.10319,611.62832 -76.52819,610.36919 -78.05229,608.54671 C -79.5764,606.72428 -80.33845,604.08971 -80.33845,600.64299 C -80.33845,596.73314 -78.9797,593.41944 -76.26219,590.7019 C -73.5447,587.98444 -70.19763,586.62569 -66.22098,586.62564 C -62.57609,586.62569 -59.4945,588.01731 -56.97621,590.8005 C -54.45797,593.58379 -53.19883,596.73213 -53.1988,600.24553 L -61.94599,600.24553 C -61.94601,598.85394 -62.39354,597.71061 -63.28856,596.81552 C -64.18363,595.92052 -65.36034,595.47299 -66.81869,595.47295 C -68.14358,595.47299 -69.23685,595.97007 -70.0985,596.96419 C -70.96019,597.95839 -71.39103,599.15128 -71.39101,600.54286 C -71.39103,602.00127 -70.96019,603.12842 -70.0985,603.92432 C -69.23685,604.72029 -67.97771,605.4166 -66.3211,606.01327 L -63.2385,607.00541 C -61.44843,607.66888 -60.04012,608.29895 -59.01358,608.89562 C -57.98708,609.49235 -56.96005,610.38689 -55.93249,611.57925 C -54.90498,612.77165 -54.05949,614.16327 -53.39602,615.75411 C -52.7326,617.34499 -52.40088,619.03546 -52.40085,620.82554 C -52.40088,624.67071 -53.77632,628.03447 -56.52717,630.91681 C -59.27807,633.79917 -62.57609,635.24035 -66.42123,635.24035 C -68.74128,635.24035 -71.07751,634.61078 -73.4299,633.35165 C -75.78231,632.09251 -77.60477,630.38586 -78.89727,628.23167 C -80.18978,626.0775 -80.83604,623.64217 -80.83603,620.92566 L -71.98872,620.92566 C -71.98873,622.38404 -71.47497,623.62649 -70.44742,624.653 C -69.4199,625.67953 -68.17695,626.19279 -66.71856,626.19279 L -66.71856,626.19279 z M -31.81476,625.49799 L -29.6272,625.49799 L -29.6272,634.54555 L -32.60968,634.54555 C -34.39979,634.54555 -35.99065,634.3635 -37.38225,633.99942 C -38.77389,633.63533 -40.13264,632.88946 -41.45851,631.7618 C -42.7844,630.63414 -43.71231,629.39119 -44.24226,628.03294 C -44.77221,626.6747 -45.03719,625.00142 -45.03718,623.01309 L -45.03718,594.67803 L -49.70963,594.67803 L -49.70963,587.22032 L -45.03718,587.22032 L -45.03718,572.90563 L -35.49204,572.90563 L -35.49204,587.22032 L -29.6272,587.22032 L -29.6272,594.67803 L -35.49204,594.67803 L -35.49204,621.32312 C -35.49205,622.91298 -35.27663,624.00625 -34.84578,624.60294 C -34.41496,625.19965 -33.40462,625.498 -31.81476,625.49799 L -31.81476,625.49799 z M -9.31419,625.49799 C -7.92056,625.498 -6.79341,625.06716 -5.93273,624.20548 C -5.07209,623.34382 -4.54164,622.21717 -4.34137,620.82554 L 5.10366,620.82554 L 5.10366,621.9178 C 5.10362,623.37618 4.78859,624.83455 4.15855,626.29291 C 3.52844,627.75129 2.21925,629.59094 0.23096,631.81186 C -1.75738,634.03279 -4.87235,635.14326 -9.11394,635.14326 C -11.83247,635.14326 -14.33506,634.41407 -16.62171,632.9557 C -18.90839,631.49733 -20.48256,629.88979 -21.34422,628.13307 C -22.2059,626.37635 -22.75254,624.7855 -22.98413,623.36049 C -23.21574,621.93551 -23.33153,620.5272 -23.33153,619.13557 L -23.33153,601.14057 C -23.33153,597.23072 -21.92323,593.8341 -19.10661,590.95069 C -16.29,588.06737 -12.92574,586.62569 -9.01381,586.62564 C -4.97045,586.62569 -1.60669,588.034 1.07746,590.85057 C 3.76156,593.66722 5.10362,597.09722 5.10366,601.14057 L 5.10366,614.26287 L -13.78639,614.26287 L -13.78639,621.32312 C -13.7864,622.31628 -13.30601,623.26038 -12.34521,624.15542 C -11.38444,625.05047 -10.3741,625.498 -9.31419,625.49799 L -9.31419,625.49799 z M -9.11394,595.97054 C -10.3741,595.97058 -11.46788,596.40141 -12.39527,597.26305 C -13.32269,598.12476 -13.7864,599.64886 -13.78639,601.83537 L -13.78639,606.50782 L -4.44149,606.50782 L -4.44149,601.83537 C -4.44151,600.11206 -4.8061,598.70375 -5.53527,597.61045 C -6.26447,596.51721 -7.45736,595.97058 -9.11394,595.97054 L -9.11394,595.97054 z M 22.15505,568.23318 L 22.15505,620.92566 C 22.15504,622.51552 22.42001,623.67503 22.94997,624.40421 C 23.47991,625.1334 24.54082,625.498 26.1327,625.49799 L 26.8275,625.49799 L 26.8275,634.54555 L 24.74007,634.54555 C 23.21493,634.54555 21.78994,634.37969 20.46508,634.04796 C 19.1402,633.71624 17.81482,633.03712 16.48895,632.01059 C 15.16306,630.98407 14.18508,629.6587 13.55502,628.03446 C 12.92494,626.41024 12.6099,624.6697 12.60991,622.81285 L 12.60991,568.23318 L 22.15505,568.23318 z M 42.15556,568.23318 L 42.15556,620.92566 C 42.15554,622.51552 42.42052,623.67503 42.95048,624.40421 C 43.48041,625.1334 44.54132,625.498 46.1332,625.49799 L 46.828,625.49799 L 46.828,634.54555 L 44.74057,634.54555 C 43.21544,634.54555 41.79044,634.37969 40.46559,634.04796 C 39.1407,633.71624 37.81533,633.03712 36.48945,632.01059 C 35.16356,630.98407 34.18559,629.6587 33.55552,628.03446 C 32.92544,626.41024 32.61041,624.6697 32.61041,622.81285 L 32.61041,568.23318 L 42.15556,568.23318 z M 65.83335,625.49799 C 67.22698,625.498 68.35413,625.06716 69.21481,624.20548 C 70.07545,623.34382 70.6059,622.21717 70.80617,620.82554 L 80.25119,620.82554 L 80.25119,621.9178 C 80.25116,623.37618 79.93613,624.83455 79.30608,626.29291 C 78.67598,627.75129 77.36679,629.59094 75.3785,631.81186 C 73.39015,634.03279 70.27519,635.14326 66.0336,635.14326 C 63.31507,635.14326 60.81248,634.41407 58.52582,632.9557 C 56.23915,631.49733 54.66498,629.88979 53.80331,628.13307 C 52.94164,626.37635 52.395,624.7855 52.16341,623.36049 C 51.9318,621.93551 51.816,620.5272 51.81601,619.13557 L 51.81601,601.14057 C 51.816,597.23072 53.22431,593.8341 56.04093,590.95069 C 58.85754,588.06737 62.2218,586.62569 66.13372,586.62564 C 70.17709,586.62569 73.54084,588.034 76.225,590.85057 C 78.9091,593.66722 80.25116,597.09722 80.25119,601.14057 L 80.25119,614.26287 L 61.36115,614.26287 L 61.36115,621.32312 C 61.36114,622.31628 61.84153,623.26038 62.80233,624.15542 C 63.7631,625.05047 64.77344,625.498 65.83335,625.49799 L 65.83335,625.49799 z M 66.0336,595.97054 C 64.77344,595.97058 63.67966,596.40141 62.75227,597.26305 C 61.82484,598.12476 61.36114,599.64886 61.36115,601.83537 L 61.36115,606.50782 L 70.70605,606.50782 L 70.70605,601.83537 C 70.70603,600.11206 70.34143,598.70375 69.61227,597.61045 C 68.88306,596.51721 67.69018,595.97058 66.0336,595.97054 L 66.0336,595.97054 z M 107.32104,634.54555 L 107.32104,594.77815 L 102.64859,594.77815 L 102.64859,587.22032 L 107.32104,587.22032 L 107.32104,580.66068 C 107.32103,576.94908 108.24895,574.1982 110.10479,572.40805 C 111.96061,570.61802 113.68395,569.47468 115.27482,568.97805 C 116.86566,568.48154 118.62289,568.23325 120.5465,568.23318 L 123.82631,568.23318 L 123.82631,576.98037 L 120.34625,576.98037 C 118.02619,576.98043 116.86617,578.2072 116.86619,580.66068 L 116.86619,587.22032 L 123.82631,587.22032 L 123.82631,594.77815 L 116.86619,594.77815 L 116.86619,634.54555 L 107.32104,634.54555 z M 150.40771,586.62564 L 150.40771,596.368 C 149.94448,596.23656 149.48078,596.13745 149.01659,596.07066 C 148.55235,596.00395 148.12101,595.97058 147.72256,595.97054 C 144.60758,595.97058 142.2218,597.03098 140.56522,599.15175 C 138.90861,601.27259 138.08032,603.82473 138.08033,606.80819 L 138.08033,634.54555 L 128.53518,634.54555 L 128.53518,587.22032 L 138.08033,587.22032 L 138.08033,592.29326 C 139.73691,590.23824 141.77478,588.77987 144.19396,587.91815 C 146.61309,587.05653 148.68434,586.62569 150.40771,586.62564 L 150.40771,586.62564 z M 169.52531,625.49799 C 170.91893,625.498 172.04608,625.06716 172.90676,624.20548 C 173.7674,623.34382 174.29786,622.21717 174.49813,620.82554 L 183.94315,620.82554 L 183.94315,621.9178 C 183.94312,623.37618 183.62808,624.83455 182.99804,626.29291 C 182.36794,627.75129 181.05874,629.59094 179.07045,631.81186 C 177.08211,634.03279 173.96715,635.14326 169.72556,635.14326 C 167.00702,635.14326 164.50444,634.41407 162.21778,632.9557 C 159.9311,631.49733 158.35694,629.88979 157.49527,628.13307 C 156.63359,626.37635 156.08696,624.7855 155.85536,623.36049 C 155.62376,621.93551 155.50796,620.5272 155.50796,619.13557 L 155.50796,601.14057 C 155.50796,597.23072 156.91626,593.8341 159.73289,590.95069 C 162.54949,588.06737 165.91375,586.62569 169.82568,586.62564 C 173.86904,586.62569 177.2328,588.034 179.91695,590.85057 C 182.60105,593.66722 183.94312,597.09722 183.94315,601.14057 L 183.94315,614.26287 L 165.05311,614.26287 L 165.05311,621.32312 C 165.05309,622.31628 165.53349,623.26038 166.49428,624.15542 C 167.45505,625.05047 168.46539,625.498 169.52531,625.49799 L 169.52531,625.49799 z M 169.72556,595.97054 C 168.46539,595.97058 167.37162,596.40141 166.44422,597.26305 C 165.5168,598.12476 165.05309,599.64886 165.05311,601.83537 L 165.05311,606.50782 L 174.398,606.50782 L 174.398,601.83537 C 174.39798,600.11206 174.03339,598.70375 173.30423,597.61045 C 172.57502,596.51721 171.38213,595.97058 169.72556,595.97054 L 169.72556,595.97054 z M 191.4494,634.54555 L 191.4494,587.22032 L 200.99454,587.22032 L 200.99454,634.54555 L 191.4494,634.54555 z M 191.4494,577.57808 L 191.4494,568.23318 L 200.99454,568.23318 L 200.99454,577.57808 L 191.4494,577.57808 z "
       style="font-size:99.41999817px;font-style:normal;font-variant:normal;font-weight:normal;font-stretch:normal;text-align:center;line-height:100%;writing-mode:lr-tb;text-anchor:middle;fill:black;fill-opacity:1;stroke:none;stroke-width:1px;stroke-linecap:butt;stroke-linejoin:miter;stroke-opacity:1;font-family:DIN 1451 Engschrift"
       id="text2156" />
    <path
       d="M -169.23088,551.47341 L -154.41855,485.16082 L -146.16589,485.16082 L -131.35357,551.47341 L -141.49343,551.47341 L -144.17858,537.25577 L -156.50599,537.25577 L -159.19115,551.47341 L -169.23088,551.47341 z M -154.81602,528.40842 L -145.86855,528.40842 L -150.34077,504.24814 L -154.81602,528.40842 z M -100.54261,508.42302 C -100.01067,509.22001 -99.64557,510.18181 -99.44731,511.30842 C -99.24911,512.43511 -99.15,513.56175 -99.14997,514.68837 L -99.14997,551.47341 L -108.69515,551.47341 L -108.69515,518.16844 C -108.69517,514.65503 -110.25266,512.89831 -113.36761,512.89827 C -114.75926,512.89831 -115.88591,513.42876 -116.74757,514.48964 C -117.60925,515.55058 -118.04009,516.77685 -118.04008,518.16844 L -118.04008,551.47341 L -127.58526,551.47341 L -127.58526,504.14801 L -118.04008,504.14801 L -118.04008,508.72339 C -115.91827,505.27673 -112.96815,503.55338 -109.1897,503.55334 C -105.34657,503.55338 -102.46421,505.17661 -100.54261,508.42302 L -100.54261,508.42302 z M -81.23987,485.16082 L -81.23987,537.85348 C -81.23988,539.44334 -80.9749,540.60286 -80.44494,541.33204 C -79.915,542.06123 -78.85409,542.42583 -77.2622,542.42582 L -76.5674,542.42582 L -76.5674,551.47341 L -78.65484,551.47341 C -80.17998,551.47341 -81.60498,551.30755 -82.92984,550.97582 C -84.25473,550.6441 -85.58011,549.96497 -86.90599,548.93845 C -88.23188,547.91192 -89.20986,546.58654 -89.83993,544.9623 C -90.47001,543.33807 -90.78505,541.59753 -90.78504,539.74067 L -90.78504,485.16082 L -81.23987,485.16082 z M -70.78446,551.47341 L -70.78446,504.14801 L -61.23929,504.14801 L -61.23929,551.47341 L -70.78446,551.47341 z M -70.78446,494.50574 L -70.78446,485.16082 L -61.23929,485.16082 L -61.23929,494.50574 L -70.78446,494.50574 z M -39.6974,542.42582 C -38.30377,542.42583 -37.17662,541.99499 -36.31593,541.13331 C -35.45529,540.27164 -34.92483,539.14499 -34.72456,537.75335 L -25.27951,537.75335 L -25.27951,538.84562 C -25.27954,540.30401 -25.59458,541.76238 -26.22462,543.22075 C -26.85473,544.67913 -28.16393,546.51878 -30.15222,548.73972 C -32.14057,550.96065 -35.25555,552.07112 -39.49715,552.07112 C -42.21569,552.07112 -44.71829,551.34193 -47.00496,549.88356 C -49.29164,548.42519 -50.86581,546.81764 -51.72748,545.06091 C -52.58916,543.30419 -53.1358,541.71333 -53.3674,540.28832 C -53.599,538.86333 -53.7148,537.45502 -53.7148,536.06338 L -53.7148,518.06832 C -53.7148,514.15845 -52.30649,510.76182 -49.48986,507.8784 C -46.67324,504.99507 -43.30897,503.55338 -39.39703,503.55334 C -35.35365,503.55338 -31.98988,504.9617 -29.30572,507.77828 C -26.62161,510.59494 -25.27954,514.02495 -25.27951,518.06832 L -25.27951,531.19066 L -44.16962,531.19066 L -44.16962,538.25094 C -44.16963,539.24411 -43.68924,540.18821 -42.72844,541.08324 C -41.76766,541.9783 -40.75732,542.42583 -39.6974,542.42582 L -39.6974,542.42582 z M -39.49715,512.89827 C -40.75732,512.89831 -41.8511,513.32914 -42.7785,514.19078 C -43.70592,515.05249 -44.16963,516.5766 -44.16962,518.76312 L -44.16962,523.43559 L -34.82469,523.43559 L -34.82469,518.76312 C -34.82471,517.0398 -35.1893,515.63149 -35.91847,514.53818 C -36.64768,513.44494 -37.84057,512.89831 -39.49715,512.89827 L -39.49715,512.89827 z M 7.7797,564.49867 C 6.45278,566.48698 4.7623,568.06115 2.70826,569.22119 C 0.65417,570.3812 -1.53288,570.96121 -3.85291,570.96123 C -7.89633,570.96121 -11.35971,569.58577 -14.24308,566.8349 C -17.12646,564.084 -18.56815,560.65348 -18.56814,556.54334 L -9.02297,556.54334 C -9.02298,557.87023 -8.59214,558.99739 -7.73045,559.92481 C -6.86879,560.85221 -5.74214,561.31592 -4.3505,561.31593 C -2.36219,561.31592 -0.90382,560.42087 0.02463,558.63078 C 0.28958,557.96934 0.42207,556.90944 0.42209,555.45107 L 0.42209,546.6007 C -0.50636,548.19257 -1.766,549.50228 -3.35684,550.52982 C -4.94772,551.55735 -6.6382,552.07112 -8.42829,552.07112 C -10.34988,552.07112 -12.12228,551.55735 -13.74549,550.52982 C -15.36873,549.50228 -16.52875,548.32557 -17.22557,546.99968 C -17.9224,545.6738 -18.32037,544.61339 -18.41948,543.81846 C -18.51859,543.02354 -18.56815,541.79677 -18.56814,540.13813 L -18.56814,513.89344 C -18.56815,512.70008 -18.41897,511.6063 -18.12062,510.6121 C -17.82227,509.61798 -16.99347,508.17629 -15.6342,506.28703 C -14.27495,504.39787 -11.90534,503.45326 -8.52538,503.45321 C -6.73732,503.45326 -5.08072,503.90078 -3.55558,504.79579 C -2.03047,505.69088 -0.70458,506.93333 0.42209,508.52314 L 0.42209,504.14801 L 9.96727,504.14801 L 9.96727,555.45107 C 9.96724,557.3059 9.81806,558.94581 9.51974,560.37082 C 9.22136,561.79581 8.64135,563.17175 7.7797,564.49867 L 7.7797,564.49867 z M -0.47296,514.68837 C -1.46816,513.36151 -2.76067,512.69806 -4.3505,512.69802 C -6.20737,512.69806 -7.41745,513.2452 -7.98076,514.33945 C -8.5441,515.43377 -8.85863,516.26258 -8.92436,516.82587 C -8.99011,517.38923 -9.02298,517.96924 -9.02297,518.56591 L -9.02297,536.56097 C -9.02298,537.4894 -8.97342,538.23528 -8.8743,538.79859 C -8.7752,539.36193 -8.39392,540.1073 -7.73045,541.0347 C -7.06702,541.96212 -5.87463,542.42583 -4.15329,542.42582 C -2.09823,542.42583 -0.83859,541.84582 -0.37435,540.68578 C 0.08984,539.52577 0.32194,538.64741 0.32196,538.05069 C 0.32194,537.45401 0.35532,536.95743 0.42209,536.56097 L 0.42209,518.56591 C 0.42207,517.63752 0.372,516.90833 0.2719,516.37834 C 0.17176,515.84843 -0.07653,515.2851 -0.47296,514.68837 L -0.47296,514.68837 z M 31.56679,542.42582 C 32.96042,542.42583 34.08757,541.99499 34.94826,541.13331 C 35.8089,540.27164 36.33936,539.14499 36.53963,537.75335 L 45.98468,537.75335 L 45.98468,538.84562 C 45.98465,540.30401 45.66961,541.76238 45.03957,543.22075 C 44.40946,544.67913 43.10026,546.51878 41.11197,548.73972 C 39.12362,550.96065 36.00864,552.07112 31.76704,552.07112 C 29.0485,552.07112 26.5459,551.34193 24.25924,549.88356 C 21.97255,548.42519 20.39838,546.81764 19.53671,545.06091 C 18.67503,543.30419 18.12839,541.71333 17.89679,540.28832 C 17.66519,538.86333 17.54939,537.45502 17.54939,536.06338 L 17.54939,518.06832 C 17.54939,514.15845 18.9577,510.76182 21.77433,507.8784 C 24.59095,504.99507 27.95522,503.55338 31.86716,503.55334 C 35.91054,503.55338 39.27431,504.9617 41.95847,507.77828 C 44.64258,510.59494 45.98465,514.02495 45.98468,518.06832 L 45.98468,531.19066 L 27.09457,531.19066 L 27.09457,538.25094 C 27.09456,539.24411 27.57495,540.18821 28.53575,541.08324 C 29.49653,541.9783 30.50687,542.42583 31.56679,542.42582 L 31.56679,542.42582 z M 31.76704,512.89827 C 30.50687,512.89831 29.41309,513.32914 28.48569,514.19078 C 27.55827,515.05249 27.09456,516.5766 27.09457,518.76312 L 27.09457,523.43559 L 36.4395,523.43559 L 36.4395,518.76312 C 36.43948,517.0398 36.07489,515.63149 35.34572,514.53818 C 34.61651,513.44494 33.42362,512.89831 31.76704,512.89827 L 31.76704,512.89827 z M 75.36357,503.55334 L 75.36357,513.29573 C 74.90034,513.16429 74.43664,513.06518 73.97245,512.99839 C 73.50821,512.93168 73.07687,512.89831 72.67842,512.89827 C 69.56342,512.89831 67.17764,513.95871 65.52105,516.07949 C 63.86444,518.20033 63.03614,520.75249 63.03615,523.73596 L 63.03615,551.47341 L 53.49097,551.47341 L 53.49097,504.14801 L 63.03615,504.14801 L 63.03615,509.22098 C 64.69274,507.16595 66.73062,505.70757 69.1498,504.84585 C 71.56894,503.98422 73.64019,503.55338 75.36357,503.55334 L 75.36357,503.55334 z M 117.22764,503.55334 C 121.13751,503.55338 123.68916,504.56423 124.88259,506.58589 C 126.07596,508.60763 126.77228,510.19849 126.97155,511.35848 C 127.17075,512.51854 127.27037,513.56175 127.2704,514.48812 L 127.2704,540.4385 C 127.27037,542.09512 127.15406,543.48674 126.92148,544.61338 C 126.68884,545.74004 125.86003,547.26466 124.43507,549.18724 C 123.01004,551.10983 120.57419,552.07112 117.12751,552.07112 C 115.27266,552.07112 113.59938,551.59022 112.10765,550.62842 C 110.61588,549.66662 109.37343,548.35743 108.38029,546.70082 L 108.38029,551.47341 L 98.83511,551.47341 L 98.83511,485.16082 L 108.38029,485.16082 L 108.38029,508.72339 C 110.50008,505.27673 113.44919,503.55338 117.22764,503.55334 L 117.22764,503.55334 z M 112.95263,512.89827 C 111.62774,512.89831 110.53447,513.42876 109.67281,514.48964 C 108.81112,515.55058 108.38028,516.77685 108.38029,518.16844 L 108.38029,536.8583 C 108.38028,538.38344 108.66194,539.70933 109.22528,540.83597 C 109.78859,541.96263 111.03104,542.52595 112.95263,542.52594 C 114.34424,542.52595 115.48758,542.1118 116.38265,541.28349 C 117.27768,540.4552 117.7252,539.51009 117.72522,538.44816 L 117.72522,518.16844 C 117.7252,516.64335 117.29436,515.38371 116.43271,514.38951 C 115.57101,513.39539 114.41099,512.89831 112.95263,512.89827 L 112.95263,512.89827 z M 135.24091,551.47341 L 135.24091,504.14801 L 144.78609,504.14801 L 144.78609,551.47341 L 135.24091,551.47341 z M 135.24091,494.50574 L 135.24091,485.16082 L 144.78609,485.16082 L 144.78609,494.50574 L 135.24091,494.50574 z M 165.23571,543.12062 C 166.69407,543.12063 167.9532,542.65692 169.01312,541.7295 C 170.073,540.8021 170.60295,539.6092 170.60298,538.15082 C 170.60295,536.42748 170.15594,535.15166 169.26192,534.32334 C 168.36786,533.49506 166.95904,532.74918 165.03546,532.08571 L 163.14827,531.39091 C 161.15993,530.66074 159.50283,529.94773 158.17695,529.25189 C 156.85105,528.55611 155.42605,527.29697 153.90195,525.47448 C 152.37783,523.65204 151.61577,521.01746 151.61578,517.57073 C 151.61577,513.66087 152.97453,510.34716 155.69205,507.62961 C 158.40955,504.91214 161.75663,503.55338 165.7333,503.55334 C 169.3782,503.55338 172.4598,504.94501 174.9781,507.72821 C 177.49635,510.51151 178.75549,513.65986 178.75552,517.17327 L 170.0083,517.17327 C 170.00828,515.78168 169.56075,514.63834 168.66572,513.74325 C 167.77065,512.84824 166.59394,512.40072 165.13558,512.40068 C 163.81069,512.40072 162.71742,512.8978 161.85576,513.89192 C 160.99407,514.88612 160.56323,516.07902 160.56324,517.47061 C 160.56323,518.92902 160.99407,520.05617 161.85576,520.85208 C 162.71742,521.64804 163.97656,522.34436 165.63317,522.94103 L 168.71579,523.93317 C 170.50586,524.59665 171.91418,525.22672 172.94073,525.8234 C 173.96723,526.42012 174.99426,527.31467 176.02182,528.50703 C 177.04933,529.69944 177.89482,531.09107 178.5583,532.68191 C 179.22172,534.27279 179.55345,535.96327 179.55348,537.75335 C 179.55345,541.59854 178.178,544.96231 175.42714,547.84467 C 172.67623,550.72703 169.3782,552.16821 165.53305,552.16821 C 163.21298,552.16821 160.87675,551.53864 158.52435,550.2795 C 156.17193,549.02037 154.34947,547.31371 153.05696,545.15951 C 151.76444,543.00533 151.11819,540.56999 151.11819,537.85348 L 159.96553,537.85348 C 159.96552,539.31187 160.47929,540.55432 161.50684,541.58083 C 162.53436,542.60737 163.77732,543.12063 165.23571,543.12062 L 165.23571,543.12062 z "
       style="font-size:99.42034912px;font-style:normal;font-variant:normal;font-weight:normal;font-stretch:normal;text-align:center;line-height:100%;writing-mode:lr-tb;text-anchor:middle;fill:black;fill-opacity:1;stroke:none;stroke-width:1px;stroke-linecap:butt;stroke-linejoin:miter;stroke-opacity:1;font-family:DIN 1451 Engschrift"
       id="text2160" />
  </g>
</svg>
