<?xml version="1.0" encoding="UTF-8" standalone="no"?>
<!-- Created with Inkscape (http://www.inkscape.org/) -->

<svg
   xmlns:dc="http://purl.org/dc/elements/1.1/"
   xmlns:cc="http://creativecommons.org/ns#"
   xmlns:rdf="http://www.w3.org/1999/02/22-rdf-syntax-ns#"
   xmlns:svg="http://www.w3.org/2000/svg"
   xmlns="http://www.w3.org/2000/svg"
   xmlns:sodipodi="http://sodipodi.sourceforge.net/DTD/sodipodi-0.dtd"
   xmlns:inkscape="http://www.inkscape.org/namespaces/inkscape"
   version="1.0"
   width="490"
   height="360"
   id="svg2"
   sodipodi:version="0.32"
   inkscape:version="0.47 "
   sodipodi:docname="Zusatzzeichen_1042-32.svg">
  <metadata
     id="metadata10">
    <rdf:RDF>
      <cc:Work
         rdf:about="">
        <dc:format>image/svg+xml</dc:format>
        <dc:type
           rdf:resource="http://purl.org/dc/dcmitype/StillImage" />
        <dc:title></dc:title>
      </cc:Work>
    </rdf:RDF>
  </metadata>
  <sodipodi:namedview
     inkscape:window-height="964"
     inkscape:window-width="1280"
     inkscape:pageshadow="2"
     inkscape:pageopacity="0.0"
     guidetolerance="10.0"
     gridtolerance="10.0"
     objecttolerance="10.0"
     borderopacity="1.0"
     bordercolor="#666666"
     pagecolor="#ffffff"
     id="base"
     inkscape:zoom="1.0470983"
     inkscape:cx="255.87527"
     inkscape:cy="266.19003"
     inkscape:window-x="-4"
     inkscape:window-y="-4"
     inkscape:current-layer="svg2"
     showgrid="false"
     inkscape:window-maximized="1" />
  <defs
     id="defs4">
    <inkscape:perspective
       sodipodi:type="inkscape:persp3d"
       inkscape:vp_x="0 : 180 : 1"
       inkscape:vp_y="0 : 1000 : 0"
       inkscape:vp_z="490 : 180 : 1"
       inkscape:persp3d-origin="245 : 120 : 1"
       id="perspective17" />
    <inkscape:perspective
       id="perspective3896"
       inkscape:persp3d-origin="0.5 : 0.33333333 : 1"
       inkscape:vp_z="1 : 0.5 : 1"
       inkscape:vp_y="0 : 1000 : 0"
       inkscape:vp_x="0 : 0.5 : 1"
       sodipodi:type="inkscape:persp3d" />
  </defs>
  <path
     d="m 54.274624,16.679932 c -17.296097,0 -27.048093,9.094823 -27.048093,35.965974 l -0.29335,259.488734 c 0,26.8711 9.751999,35.96599 27.048093,35.96599 l 387.474156,-0.0408 c 17.29612,0 27.04812,-9.09486 27.04812,-35.96595 l 0.29339,-259.409114 c 0,-26.871113 -9.75204,-35.965936 -27.04812,-35.965936 L 54.274642,16.678306 z"
     style="fill:#ffffff;fill-opacity:1;fill-rule:evenodd;stroke:#000000;stroke-width:2;stroke-linecap:butt;stroke-linejoin:miter;stroke-miterlimit:4;stroke-opacity:1;stroke-dasharray:none"
     id="path1881" />
  <path
     d="m 443.42101,33.009986 -391.023906,0.0406 c -7.908371,0 -12.55595,7.64854 -12.55595,18.95878 l 0,260.842974 c -3e-6,11.31023 4.647586,18.95878 12.55595,18.95878 l 390.994566,-0.0408 c 7.90834,0 12.55592,-7.64855 12.55592,-18.95878 l 0,-260.842974 c 0,-11.31024 -4.61824,-18.95878 -12.52658,-18.95878 z"
     style="fill:none;stroke:#000000;stroke-width:10.05090809;stroke-linecap:butt;stroke-linejoin:miter;stroke-miterlimit:4;stroke-opacity:1;stroke-dasharray:none"
     id="path3976" />
  <g
     style="fill-rule:evenodd"
     transform="matrix(0.73172496,0,0,0.73172496,226.19036,-194.78052)"
     id="g3344">
    <path
       d="m -77.33636,388.30102 -52.75918,-0.17692 -19.02572,50.97459 0,48.46176 c 0,3.37706 2.19057,6.46157 6.10259,6.46157 l 10.76928,0 c 8.17068,-32.55045 39.54694,-37.38753 53.48742,-10.05133 l 34.4617,0 c 15.36426,-25.98042 50.63988,-21.1741 52.41049,9.73342 l 9.69236,0 c 0,-13.07329 -13.26258,-36.65662 -28.00013,-36.65662 l -67.48749,0 0.34868,-68.74647 z"
       style="color:#000000;fill:#000000;fill-opacity:1;fill-rule:nonzero;stroke:none;stroke-width:1;marker:none;visibility:visible;display:inline;overflow:visible"
       id="path1999" />
    <path
       d="m 116.1717,457.1746 c -14.73755,0 -27.99999,23.58296 -28,36.65625 l 9.71875,0 c 1.72055,-30.03371 35.07061,-33.43612 45.34375,-20.0625 l -0.0312,1.21875 9.71875,0 -0.0312,-1.21875 c 10.27314,-13.37362 43.6232,-9.97121 45.34375,20.0625 l 9.6875,0 c -1e-5,-13.07329 -13.26245,-36.65625 -28,-36.65625 l -63.75,0 z"
       style="color:#000000;fill:#000000;fill-opacity:1;fill-rule:nonzero;stroke:none;stroke-width:1;marker:none;visibility:visible;display:inline;overflow:visible"
       id="path2003" />
    <path
       d="m 145.22134,493.03462 c 3e-5,11.90168 -9.63232,21.55828 -21.53396,21.5882 -11.90164,0.0299 -21.58241,-9.57813 -21.64222,-21.47966 -0.0598,-11.90153 9.5239,-21.6064 21.42524,-21.69611 11.90134,-0.0897 21.63025,9.4696 21.74985,21.37068"
       style="fill:#000000;fill-opacity:1;fill-rule:evenodd;stroke:none"
       id="path2010" />
    <path
       d="m 192.85814,493.03462 c 3e-5,11.90168 -9.63232,21.55828 -21.53396,21.5882 -11.90164,0.0299 -21.58241,-9.57813 -21.64222,-21.47966 -0.0598,-11.90153 9.5239,-21.6064 21.42524,-21.69611 11.90134,-0.0897 21.63025,9.4696 21.74985,21.37068"
       style="fill:#000000;fill-opacity:1;fill-rule:evenodd;stroke:none"
       id="path2012" />
    <path
       d="m -82.52546,493.03462 c 3e-5,11.90168 -9.63232,21.55828 -21.53396,21.5882 -11.90164,0.0299 -21.58241,-9.57813 -21.64222,-21.47966 -0.0598,-11.90153 9.5239,-21.6064 21.42524,-21.69611 11.90134,-0.0897 21.63025,9.4696 21.74985,21.37068"
       style="fill:#000000;fill-opacity:1;fill-rule:evenodd;stroke:none"
       id="path2014" />
    <path
       d="m 2.57844,493.03462 c 3e-5,11.90168 -9.63232,21.55828 -21.53396,21.5882 -11.90164,0.0299 -21.58241,-9.57813 -21.64222,-21.47966 -0.05981,-11.90153 9.5239,-21.6064 21.42524,-21.69611 11.90134,-0.0897 21.63025,9.4696 21.74985,21.37068"
       style="fill:#000000;fill-opacity:1;fill-rule:evenodd;stroke:none"
       id="path2016" />
    <path
       d="m -54.02803,367.50327 -0.06139,83.12992 261.39921,-0.0614 0,-82.7846 -261.33782,-0.28393 z"
       style="color:#000000;fill:#000000;fill-opacity:1;fill-rule:nonzero;stroke:none;stroke-width:1;marker:none;visibility:visible;display:inline;overflow:visible"
       id="path2018" />
    <path
       d="m -97.545,400.0024 0.10114,31.29864 -45.30758,4.78965 12.81557,-35.98715 32.39087,-0.10114 z"
       style="color:#000000;fill:#ffffff;fill-opacity:1;fill-rule:nonzero;stroke:none;stroke-width:1;marker:none;visibility:visible;display:inline;overflow:visible"
       id="path2020" />
  </g>
  <g
     style="fill-rule:evenodd"
     transform="matrix(0.35832209,0,0,0.35832209,73.559481,205.42629)"
     id="layer1">
    <path
       d="m 948.58272,181.11452 0,30.89471 -44.02496,0 c -2.95219,-11.1834 -8.08965,-21.80024 -19.09913,-30.89471 l 63.12409,0 z"
       style="fill:#000000;fill-opacity:1;fill-rule:evenodd;stroke:none"
       id="path11867" />
    <path
       d="m 187.42838,5.0734714 345.25462,0 0,164.7195686 -345.25462,0 0,-164.7195686 z"
       style="fill:#000000;fill-opacity:1;fill-rule:evenodd;stroke:none"
       id="path10081" />
    <path
       d="m 579.57758,4.9475632 369.06443,0 0,164.7195668 -369.06443,0 0,-164.7195668 z"
       style="fill:#000000;fill-opacity:1;fill-rule:evenodd;stroke:none"
       id="path10968" />
    <path
       d="m 900.1042,233.89624 c 0,20.97092 -17.00029,37.97121 -37.97121,37.97121 -20.97091,0 -37.9712,-17.00029 -37.9712,-37.97121 0,-20.97092 17.00029,-37.9712 37.9712,-37.9712 20.97092,0 37.97121,17.00028 37.97121,37.9712 z"
       transform="matrix(1.090164,0,0,1.090164,-86.75925,-32.25117)"
       style="fill:#000000;fill-opacity:1;fill-rule:nonzero;stroke:none"
       id="path10970" />
    <path
       d="m 900.1042,233.89624 c 0,20.97092 -17.00029,37.97121 -37.97121,37.97121 -20.97091,0 -37.9712,-17.00029 -37.9712,-37.97121 0,-20.97092 17.00029,-37.9712 37.9712,-37.9712 20.97092,0 37.97121,17.00028 37.97121,37.9712 z"
       transform="matrix(1.090164,0,0,1.090164,-288.7536,-32.29364)"
       style="fill:#000000;fill-opacity:1;fill-rule:nonzero;stroke:none"
       id="path10972" />
    <path
       d="m 900.1042,233.89624 c 0,20.97092 -17.00029,37.97121 -37.97121,37.97121 -20.97091,0 -37.9712,-17.00029 -37.9712,-37.97121 0,-20.97092 17.00029,-37.9712 37.9712,-37.9712 20.97092,0 37.97121,17.00028 37.97121,37.9712 z"
       transform="matrix(1.090164,0,0,1.090164,-525.918,-32.41613)"
       style="fill:#000000;fill-opacity:1;fill-rule:nonzero;stroke:none"
       id="path10974" />
    <path
       d="m 900.1042,233.89624 c 0,20.97092 -17.00029,37.97121 -37.97121,37.97121 -20.97091,0 -37.9712,-17.00029 -37.9712,-37.97121 0,-20.97092 17.00029,-37.9712 37.9712,-37.9712 20.97092,0 37.97121,17.00028 37.97121,37.9712 z"
       transform="matrix(1.090164,0,0,1.090164,-846.4946,-32.29364)"
       style="fill:#000000;fill-opacity:1;fill-rule:nonzero;stroke:none"
       id="path10976" />
    <path
       d="m 555.58979,180.92026 0,30.89471 44.02496,0 c 2.95219,-11.1834 8.08965,-21.80024 19.09913,-30.89471 l -63.12409,0 z"
       style="fill:#000000;fill-opacity:1;fill-rule:evenodd;stroke:none"
       id="path10980" />
    <path
       d="m 684.37536,181.11451 c 11.08953,9.45119 14.44256,19.74569 18.10649,30.89471 l 99.01921,0 c 2.95219,-11.1834 8.08965,-21.80024 19.09913,-30.89471 l -136.22483,0 z"
       style="fill:#000000;fill-opacity:1;fill-rule:evenodd;stroke:none"
       id="path11871" />
    <path
       d="m 532.6833,180.77713 0.15904,31.53089 -34.26252,10.58575 -32.02891,0.0704 c 1.45751,-12.6533 -7.99934,-33.49373 -20.68959,-42.02794 l 86.82198,-0.15905 z"
       style="fill:#000000;fill-opacity:1;fill-rule:evenodd;stroke:none"
       id="path11875" />
    <path
       d="M 164.38292,46.440644 60.571013,51.8735 c -4.339712,1.344837 -7.995175,3.297897 -9.651115,7.028309 l -28.219275,74.032031 -1.086631,7.77029 0.0075,72.27113 c 0.882,6.61876 5.240814,8.76733 10.275871,10.04645 l 8.500341,0 c 0,-68.83499 106.720036,-68.65567 106.720036,0 l 214.29259,0 c -1.45751,-12.6533 7.99934,-33.49373 20.68959,-42.02794 L 164.6196,180.96787 164.38288,46.440604 z"
       style="fill:#000000;fill-opacity:1;fill-rule:evenodd;stroke:none"
       id="path11879" />
    <path
       d="m 122.58432,126.2727 0,-59.15537 -59.830146,4.048656 c -2.179479,0.365775 -3.743537,1.808536 -4.723432,4.273582 L 38.912086,126.2727 c -0.321712,1.7994 -1.086496,3.59881 0,5.39821 0.695981,1.64617 2.006003,2.47362 3.598806,2.92403 l 80.073428,-8.32224 z"
       style="fill:#ffffff;fill-opacity:1;fill-rule:evenodd;stroke:none"
       id="path11883" />
  </g>
</svg>
