<?xml version="1.0" encoding="UTF-8" standalone="no"?>
<!-- Created with Inkscape (http://www.inkscape.org/) -->
<svg
   xmlns:svg="http://www.w3.org/2000/svg"
   xmlns="http://www.w3.org/2000/svg"
   version="1.0"
   width="490"
   height="270"
   id="svg2">
  <defs
     id="defs4" />
  <path
     d="M 38.78125,4.984375 C 20.356889,4.9843748 9.96875,12.12016 9.96875,33.203125 L 9.65625,236.79688 C 9.65625,257.87984 20.044391,265.01563 38.46875,265.01563 L 451.21875,264.98438 C 469.64311,264.98438 480.03124,257.84859 480.03125,236.76563 L 480.34375,33.234375 C 480.34375,12.15141 469.95561,5.0156248 451.53125,5.015625 L 38.78125,4.984375 z "
     style="fill:white;fill-opacity:1;fill-rule:evenodd;stroke:black;stroke-width:2;stroke-linecap:butt;stroke-linejoin:miter;stroke-miterlimit:4;stroke-dasharray:none;stroke-opacity:1"
     id="path1881" />
  <path
     d="M 453.3125,17.796875 L 36.78125,17.828125 C 28.356999,17.828125 23.40625,23.829135 23.40625,32.703125 L 23.40625,237.35938 C 23.406249,246.23335 28.35701,252.23438 36.78125,252.23438 L 453.28125,252.20313 C 461.70549,252.20312 466.65625,246.20211 466.65625,237.32813 L 466.65625,32.671875 C 466.65625,23.797885 461.73674,17.796875 453.3125,17.796875 z "
     style="fill:none;fill-opacity:1;fill-rule:evenodd;stroke:black;stroke-width:10.05090809;stroke-linecap:butt;stroke-linejoin:miter;stroke-miterlimit:4;stroke-dasharray:none;stroke-opacity:1"
     id="path3976" />
  <path
     d="M 80.239381,108.66835 L 80.239381,158.97358 L 204.11877,158.97358 L 204.11877,108.66835 L 80.239381,108.66835 z "
     style="fill:white;fill-opacity:1;fill-rule:evenodd;stroke:none;stroke-width:1px;stroke-linecap:butt;stroke-linejoin:miter;stroke-opacity:1"
     id="path20922" />
  <g
     transform="translate(261.8066,-351.5407)"
     id="g2884">
    <path
       d="M -125.71993,568.14063 L -125.71993,507.85729 L -135.82069,515.40447 L -135.82069,504.66775 L -125.71993,497.2244 L -115.62241,497.2244 L -115.62241,568.14063 L -125.71993,568.14063 z M -72.393233,531.88431 C -71.826524,532.80585 -71.454466,533.79818 -71.277055,534.86133 C -71.099712,535.92454 -71.011023,537.23594 -71.01099,538.79553 L -71.01099,552.40382 C -71.011023,554.1776 -71.170554,555.79076 -71.489583,557.24329 C -71.808679,558.69584 -72.871859,560.8752 -74.679126,563.78137 C -76.486454,566.68754 -79.97721,568.35369 -85.151405,568.77983 C -88.342046,568.77983 -91.213064,568.08871 -93.764469,566.70647 C -96.315895,565.32423 -98.105888,563.65807 -99.134452,561.708 C -100.16303,559.75794 -100.80115,558.12748 -101.04883,556.81661 C -101.29651,555.50576 -101.42035,554.03483 -101.42035,552.40382 L -101.42035,541.24204 C -101.42035,539.68245 -101.38466,538.56573 -101.31327,537.89188 C -101.24189,537.2181 -100.99421,536.31445 -100.57023,535.18093 L -86.533649,497.2244 L -75.050645,497.2244 L -86.533649,526.99455 C -85.116814,526.49707 -83.592887,526.24831 -81.961862,526.24827 L -81.007919,526.24827 C -77.179197,526.74583 -74.307638,528.62451 -72.393233,531.88431 L -72.393233,531.88431 z M -82.068937,537.20238 C -83.133221,535.7834 -84.551155,535.07389 -86.322743,535.07386 C -87.244256,535.07389 -88.112754,535.35726 -88.928239,535.92397 C -89.743756,536.49074 -90.328343,537.16402 -90.682001,537.9438 C -91.035687,538.72364 -91.212524,539.82305 -91.21251,541.24204 L -91.21251,552.40382 C -91.212524,553.96345 -90.787468,555.41654 -89.937342,556.76307 C -89.087245,558.10964 -87.634701,558.67692 -85.579706,558.46492 C -83.736735,558.46493 -82.53133,557.84465 -81.963484,556.60408 C -81.395685,555.36354 -81.111773,553.96345 -81.11175,552.40382 L -81.11175,541.24204 C -81.111773,540.32057 -81.165311,539.55861 -81.272363,538.95614 C -81.379461,538.35374 -81.644986,537.76915 -82.068937,537.20238 L -82.068937,537.20238 z M -61.809011,545.28169 L -61.809011,535.18093 L -31.506731,535.18093 L -31.506731,545.28169 L -61.809011,545.28169 z M -9.8450946,568.14063 L -9.8450946,507.85729 L -19.945855,515.40447 L -19.945855,504.66775 L -9.8450946,497.2244 L 0.25242089,497.2244 L 0.25242089,568.14063 L -9.8450946,568.14063 z M 44.863846,553.57515 C 44.863813,555.70153 44.332223,557.93442 43.269075,560.27384 C 42.205863,562.61328 40.468867,564.6158 38.058082,566.28141 C 35.647243,567.94702 33.024985,568.77983 30.1913,568.77983 C 27.143426,568.77983 24.34325,568.00002 21.790764,566.4404 C 19.238256,564.88078 17.50126,563.12648 16.579771,561.17749 C 15.658271,559.22852 15.09153,557.6159 14.879546,556.33964 C 14.667556,555.0634 14.561562,553.75146 14.561566,552.40382 L 14.561566,539.96362 C 14.561562,538.05144 15.004464,536.33337 15.890271,534.80941 C 16.77607,533.28552 18.034472,531.92112 19.665483,530.71622 C 16.262866,528.16376 14.561562,524.65516 14.561566,520.1904 L 14.561566,510.62178 C 14.561562,509.2742 14.827087,507.90926 15.35814,506.52696 C 15.889185,505.14478 17.164893,503.14226 19.185267,500.51939 C 21.205626,497.89666 24.802916,496.58526 29.977149,496.58519 C 31.962887,496.58526 33.841568,496.99301 35.613198,497.80844 C 37.38478,498.62402 39.369455,500.18363 41.567228,502.48731 C 43.764941,504.79111 44.863813,507.89196 44.863846,511.78987 L 44.863846,520.93344 C 44.863813,525.04561 43.162508,528.30653 39.759929,530.71622 C 43.162508,533.05461 44.863813,536.38583 44.863846,540.70991 L 44.863846,553.57515 z M 29.766244,506.68595 C 28.277989,506.68601 27.037433,507.18245 26.044569,508.17527 C 25.051676,509.16821 24.555237,510.37307 24.555251,511.78987 L 24.555251,520.93344 C 24.555237,522.56449 24.998139,523.96458 25.883956,525.13371 C 26.769745,526.30293 28.028148,526.88751 29.659168,526.88747 C 31.430756,526.88751 32.72431,526.33808 33.539833,525.23916 C 34.355312,524.14033 34.763063,522.7051 34.763086,520.93344 L 34.763086,511.78987 C 34.763063,510.44229 34.284469,509.25473 33.327305,508.22719 C 32.370097,507.19976 31.183077,506.68601 29.766244,506.68595 L 29.766244,506.68595 z M 29.766244,534.54173 C 28.206606,534.54176 26.948203,535.05604 25.991032,536.08458 C 25.033831,537.11318 24.555237,538.4062 24.555251,539.96362 L 24.555251,552.40382 C 24.555237,554.24682 24.980293,555.7356 25.830419,556.87015 C 26.680516,558.00472 28.062758,558.57201 29.977149,558.572 C 31.82012,558.57201 33.078523,557.96957 33.752361,556.7647 C 34.426155,555.55984 34.763063,554.10622 34.763086,552.40382 L 34.763086,539.96362 C 34.763063,538.4062 34.320161,537.11318 33.43438,536.08458 C 32.548555,535.05604 31.325844,534.54176 29.766244,534.54173 L 29.766244,534.54173 z M 91.89257,516.89379 C 93.735535,516.89384 95.472531,517.38974 97.103563,518.38148 C 98.734536,519.37333 99.90425,520.5252 100.61271,521.83709 C 101.3211,523.14908 101.764,524.2658 101.94142,525.18725 C 102.11876,526.10879 102.20745,527.31365 102.20748,528.80185 L 102.20748,568.14063 L 91.999645,568.14063 L 91.999645,532.62735 C 91.999621,530.92716 91.609716,529.54546 90.82993,528.48224 C 90.050097,527.4191 88.810081,526.88751 87.109878,526.88747 C 85.621623,526.88751 84.398912,527.4721 83.441741,528.64123 C 82.484539,529.81045 82.005946,531.13915 82.00596,532.62735 L 82.00596,568.14063 L 71.798125,568.14063 L 71.798125,497.2244 L 82.00596,497.2244 L 82.00596,522.42276 C 84.344292,518.73683 87.639826,516.89384 91.89257,516.89379 L 91.89257,516.89379 z "
       style="font-size:106.32242584px;font-style:normal;font-variant:normal;font-weight:normal;font-stretch:normal;text-align:center;line-height:100%;writing-mode:lr-tb;text-anchor:middle;fill:black;fill-opacity:1;stroke:none;stroke-width:1px;stroke-linecap:butt;stroke-linejoin:miter;stroke-opacity:1;font-family:DIN 1451 Engschrift"
       id="text3966" />
    <path
       d="M -178.39221,472.88011 L -178.39221,404.30154 L -154.38736,404.30154 C -145.00511,404.30161 -138.039,408.14552 -133.48902,415.83328 C -131.79461,418.75157 -130.75911,421.48153 -130.38251,424.02317 C -130.00602,426.56491 -129.81774,431.42863 -129.81769,438.61436 C -129.81774,446.33359 -130.07662,451.48757 -130.59431,454.07631 C -131.11212,456.66508 -132.13978,459.15185 -133.67729,461.53664 C -135.71697,464.73729 -138.51753,467.42803 -142.07899,469.60886 C -145.64053,471.78969 -149.96297,472.88011 -155.04632,472.88011 L -178.39221,472.88011 z M -167.99011,414.13882 L -167.99011,463.08989 L -155.517,463.08989 C -149.80608,463.0899 -145.56993,461.09734 -142.80855,457.11221 C -141.67895,455.38639 -140.96508,453.52719 -140.66694,451.53462 C -140.36888,449.54208 -140.21983,445.36085 -140.21979,438.9909 C -140.21983,432.84068 -140.38457,428.58884 -140.71401,426.23538 C -141.04353,423.88201 -141.8986,421.76394 -143.27923,419.88116 C -146.13475,416.05299 -150.214,414.13888 -155.517,414.13882 L -167.99011,414.13882 z M -118.14474,472.88011 L -118.14474,424.02317 L -108.30746,424.02317 L -108.30746,472.88011 L -118.14474,472.88011 z M -118.14474,414.13882 L -118.14474,404.30154 L -108.30746,404.30154 L -108.30746,414.13882 L -118.14474,414.13882 z M -94.987115,479.98743 L -94.987115,463.08989 L -85.149832,463.08989 L -85.149832,472.88011 L -94.987115,479.98743 z M -71.264671,472.88011 L -71.264671,404.30154 L -47.259819,404.30154 C -37.87757,404.30161 -30.911463,408.14552 -26.361476,415.83328 C -24.66707,418.75157 -23.631567,421.48153 -23.254966,424.02317 C -22.878475,426.56491 -22.690202,431.42863 -22.690146,438.61436 C -22.690202,446.33359 -22.949077,451.48757 -23.466773,454.07631 C -23.98458,456.66508 -25.012237,459.15185 -26.54975,461.53664 C -28.589428,464.73729 -31.389991,467.42803 -34.951448,469.60886 C -38.512992,471.78969 -42.83543,472.88011 -47.918775,472.88011 L -71.264671,472.88011 z M -60.862569,414.13882 L -60.862569,463.08989 L -48.389459,463.08989 C -42.678536,463.0899 -38.44239,461.09734 -35.681007,457.11221 C -34.551411,455.38639 -33.837542,453.52719 -33.539398,451.53462 C -33.241344,449.54208 -33.092294,445.36085 -33.092249,438.9909 C -33.092294,432.84068 -33.257033,428.58884 -33.586466,426.23538 C -33.915989,423.88201 -34.771063,421.76394 -36.151691,419.88116 C -39.007209,416.05299 -43.086461,414.13888 -48.389459,414.13882 L -60.862569,414.13882 z M -13.700093,448.40457 C -13.700097,443.16433 -13.292172,439.25766 -12.476316,436.68455 C -11.660471,434.11152 -10.31118,431.78949 -8.4284389,429.71844 C -7.0791571,428.24368 -5.2199596,426.83163 -2.8508407,425.48229 C -0.48175158,424.13305 2.616911,423.4584 6.4451562,423.45835 C 10.210595,423.4584 13.285724,424.13305 15.670551,425.48229 C 18.055311,426.83163 19.922353,428.24368 21.271683,429.71844 C 23.154376,431.78949 24.503667,434.11152 25.31956,436.68455 C 26.135367,439.25766 26.543293,443.16433 26.543337,448.40457 C 26.543293,453.739 26.135367,457.69274 25.31956,460.26579 C 24.503667,462.83887 23.154376,465.16091 21.271683,467.23191 C 19.922353,468.7381 18.055311,470.15015 15.670551,471.46806 C 13.285724,472.78597 10.210595,473.44493 6.4451562,473.44493 C 2.616911,473.44493 -0.48175158,472.78597 -2.8508407,471.46806 C -5.2199596,470.15015 -7.0791571,468.7381 -8.4284389,467.23191 C -10.31118,465.16091 -11.660471,462.83887 -12.476316,460.26579 C -13.292172,457.69274 -13.700097,453.739 -13.700093,448.40457 L -13.700093,448.40457 z M 16.753122,448.49871 C 16.753088,444.95292 16.572659,442.4583 16.211837,441.01484 C 15.850946,439.57145 15.231213,438.19078 14.352637,436.87283 C 12.626768,434.48807 9.9909433,433.29567 6.4451562,433.29563 C 2.836563,433.29567 0.20073865,434.48807 -1.4623247,436.87283 C -2.4037068,438.19078 -3.0391288,439.57145 -3.3685924,441.01484 C -3.6980849,442.4583 -3.8628239,444.92154 -3.86281,448.40457 C -3.8628239,451.98179 -3.6980849,454.49994 -3.3685924,455.95904 C -3.0391288,457.41817 -2.4037068,458.791 -1.4623247,460.07752 C 0.20073865,462.46232 2.836563,463.65472 6.4451562,463.65471 C 9.9909433,463.65472 12.626768,462.46232 14.352637,460.07752 C 15.231213,458.791 15.850946,457.42602 16.211837,455.98257 C 16.572659,454.53916 16.753088,452.04454 16.753122,448.49871 L 16.753122,448.49871 z M 37.180785,479.98743 L 37.180785,463.08989 L 47.018068,463.08989 L 47.018068,472.88011 L 37.180785,479.98743 z M 60.903229,472.88011 L 60.903229,404.30154 L 104.77092,404.30154 L 104.77092,414.13882 L 71.305332,414.13882 L 71.305332,434.33114 L 99.828745,434.33114 L 99.828745,443.6036 L 71.305332,443.6036 L 71.305332,472.88011 L 60.903229,472.88011 z M 111.83118,472.88011 L 111.83118,424.02317 L 121.66846,424.02317 L 121.66846,429.24776 L 121.85673,429.24776 C 124.90046,425.3882 129.13661,423.4584 134.56518,423.45835 C 138.14234,423.4584 141.54695,424.71355 144.77901,427.22382 L 137.67169,435.69612 C 135.5379,434.09583 133.37276,433.29567 131.17626,433.29563 C 128.76006,433.29567 126.57139,434.10368 124.61023,435.71965 C 122.64903,437.3357 121.66844,439.9323 121.66846,443.50946 L 121.66846,472.88011 L 111.83118,472.88011 z "
       style="font-size:96.39595795px;font-style:normal;font-variant:normal;font-weight:normal;font-stretch:normal;text-align:center;line-height:100%;writing-mode:lr-tb;text-anchor:middle;fill:black;fill-opacity:1;stroke:none;stroke-width:1px;stroke-linecap:butt;stroke-linejoin:miter;stroke-opacity:1;font-family:DIN 1451 Mittelschrift"
       id="text2874" />
  </g>
</svg>
