<?xml version="1.0" encoding="UTF-8" standalone="no"?>
<!-- Created with Inkscape (http://www.inkscape.org/) -->
<svg
   xmlns:svg="http://www.w3.org/2000/svg"
   xmlns="http://www.w3.org/2000/svg"
   version="1.0"
   width="490"
   height="270"
   id="svg2">
  <defs
     id="defs4" />
  <path
     d="M 38.75,4.75 C 20.325639,4.7499998 9.9375,11.885785 9.9375,32.96875 L 9.625,236.5625 C 9.625,257.64547 20.013141,264.78126 38.4375,264.78125 L 451.1875,264.75 C 469.61186,264.75 479.99999,257.61421 480,236.53125 L 480.3125,33 C 480.3125,11.917035 469.92436,4.7812498 451.5,4.78125 L 38.75,4.75 z "
     style="fill:white;fill-opacity:1;fill-rule:evenodd;stroke:black;stroke-width:2;stroke-linecap:butt;stroke-linejoin:miter;stroke-miterlimit:4;stroke-dasharray:none;stroke-opacity:1"
     id="path1892" />
  <path
     d="M 453.28125,17.5625 L 36.75,17.59375 C 28.325749,17.59375 23.375,23.59476 23.375,32.46875 L 23.375,237.125 C 23.374999,245.99898 28.32576,252 36.75,252 L 453.25,251.96875 C 461.67424,251.96874 466.625,245.96774 466.625,237.09375 L 466.625,32.4375 C 466.625,23.56351 461.70549,17.5625 453.28125,17.5625 z "
     style="fill:none;fill-opacity:1;fill-rule:evenodd;stroke:black;stroke-width:10.05090809;stroke-linecap:butt;stroke-linejoin:miter;stroke-miterlimit:4;stroke-dasharray:none;stroke-opacity:1"
     id="path3976" />
  <path
     d="M 106.45398,84.172938 L 62.016483,136.61044 L 62.078983,136.61044 L 106.54773,189.04794 L 130.82898,189.04794 L 96.297733,146.17294 L 249.14148,146.17294 L 249.14148,136.26669 L 249.07898,136.26669 L 249.07898,127.01669 L 96.235233,127.01669 L 130.76648,84.172938 L 106.45398,84.172938 z "
     style="fill:black;fill-opacity:1;fill-rule:evenodd;stroke:none;stroke-width:1px;stroke-linecap:butt;stroke-linejoin:miter;stroke-opacity:1"
     id="path1890" />
  <path
     d="M 318.65288,176.75548 L 329.11246,176.75548 L 329.11246,217.84668 C 329.11246,221.91596 319.02643,221.34396 319.02643,217.84668 L 318.65288,176.75548 z "
     style="fill:black;fill-opacity:1;fill-rule:evenodd;stroke:none;stroke-width:1px;stroke-linecap:butt;stroke-linejoin:miter;stroke-opacity:1"
     id="path1914" />
  <path
     d="M 333.09513,176.75548 L 343.55471,176.75548 L 343.55471,226.81203 C 343.55471,232.8732 333.46868,232.6731 333.46868,226.81203 L 333.09513,176.75548 z "
     style="fill:black;fill-opacity:1;fill-rule:evenodd;stroke:none;stroke-width:1px;stroke-linecap:butt;stroke-linejoin:miter;stroke-opacity:1"
     id="path1916" />
  <path
     d="M 295.03964,172.89417 C 298.01977,158.49985 300.10131,145.80317 320.26542,126.80099 L 320.26542,98.009264 L 316.69947,97.084759 C 313.39403,108.60918 313.56231,119.21338 316.73126,130.23977 C 315.07673,131.9013 313.51841,133.65905 311.94487,135.40158 C 308.56768,133.7235 308.22096,128.47649 306.52992,123.76333 L 304.46502,110.74258 L 306.39784,99.858274 C 309.97716,91.837723 312.21328,83.476597 326.07659,78.198444 L 334.39713,78.066372 C 350.41591,80.84177 353.47488,92.228397 359.40592,103.45051 C 366.56951,117.00472 375.01936,129.05308 366.88688,133.80081 C 375.89896,139.66886 380.61639,149.83156 393.96167,151.36641 C 400.33121,152.02248 403.64739,150.1341 408.4896,149.5174 L 431.60222,177.51669 C 432.70016,184.70284 430.04406,185.63227 427.50799,186.76174 L 411.92348,168.13957 L 417.33843,195.61057 L 409.67825,195.61057 L 414.56492,224.66644 C 414.56492,227.45411 405.1878,228.18946 405.1878,225.19473 L 400.4332,198.38409 L 393.87766,198.31061 L 390.92401,229.02482 C 390.92401,232.18072 382.47139,231.60813 382.47139,229.02482 L 386.16941,163.78119 L 359.2267,138.95163 C 356.12042,133.45716 358.38217,131.75189 359.2267,129.04622 C 355.44239,117.73116 349.02118,107.73455 343.90633,97.084759 L 342.05732,97.084759 L 342.18939,126.93306 C 363.80895,145.62084 364.56672,158.58776 367.41517,173.29038 L 295.03964,172.89417 z "
     style="fill:black;fill-opacity:1;fill-rule:evenodd;stroke:none;stroke-width:1px;stroke-linecap:butt;stroke-linejoin:miter;stroke-opacity:1"
     id="path1918" />
  <path
     d="M 345.54892,56.657087 C 345.55184,64.395761 339.27923,70.670746 331.54056,70.670746 C 323.80188,70.670746 317.52927,64.395761 317.53219,56.657087 C 317.52927,48.918413 323.80188,42.643428 331.54056,42.643428 C 339.27923,42.643428 345.55184,48.918413 345.54892,56.657087 L 345.54892,56.657087 z "
     style="fill:black;fill-opacity:1;fill-rule:nonzero;stroke:none;stroke-width:5;stroke-linecap:round;stroke-linejoin:round;stroke-miterlimit:4;stroke-dasharray:none;stroke-dashoffset:0;stroke-opacity:1"
     id="path1922" />
  <path
     d="M 408.11952,131.55513 C 408.12213,138.46834 402.5186,144.074 395.60539,144.074 C 388.69217,144.074 383.08864,138.46834 383.09125,131.55513 C 383.08864,124.64192 388.69217,119.03627 395.60539,119.03627 C 402.5186,119.03627 408.12213,124.64192 408.11952,131.55513 L 408.11952,131.55513 z "
     style="fill:black;fill-opacity:1;fill-rule:nonzero;stroke:none;stroke-width:5;stroke-linecap:round;stroke-linejoin:round;stroke-miterlimit:4;stroke-dasharray:none;stroke-dashoffset:0;stroke-opacity:1"
     id="path1924" />
</svg>
