<?xml version="1.0" encoding="UTF-8" standalone="no"?>
<!-- Created with Inkscape (http://www.inkscape.org/) -->
<svg
   xmlns:svg="http://www.w3.org/2000/svg"
   xmlns="http://www.w3.org/2000/svg"
   version="1.0"
   width="490"
   height="270"
   id="svg2">
  <defs
     id="defs4" />
  <path
     d="M 38.75,4.75 C 20.325639,4.7499998 9.9375,11.885785 9.9375,32.96875 L 9.625,236.5625 C 9.625,257.64547 20.013141,264.78126 38.4375,264.78125 L 451.1875,264.75 C 469.61186,264.75 479.99999,257.61421 480,236.53125 L 480.3125,33 C 480.3125,11.917035 469.92436,4.7812498 451.5,4.78125 L 38.75,4.75 z "
     style="fill:white;fill-opacity:1;fill-rule:evenodd;stroke:black;stroke-width:2;stroke-linecap:butt;stroke-linejoin:miter;stroke-miterlimit:4;stroke-dasharray:none;stroke-opacity:1"
     id="path1892" />
  <path
     d="M 453.28125,17.5625 L 36.75,17.59375 C 28.325749,17.59375 23.375,23.59476 23.375,32.46875 L 23.375,237.125 C 23.374999,245.99898 28.32576,252 36.75,252 L 453.25,251.96875 C 461.67424,251.96874 466.625,245.96774 466.625,237.09375 L 466.625,32.4375 C 466.625,23.56351 461.70549,17.5625 453.28125,17.5625 z "
     style="fill:none;fill-opacity:1;fill-rule:evenodd;stroke:black;stroke-width:10.05090809;stroke-linecap:butt;stroke-linejoin:miter;stroke-miterlimit:4;stroke-dasharray:none;stroke-opacity:1"
     id="path3976" />
  <g
     transform="translate(3.539454,0)"
     id="g4306">
    <path
       d="M 165.04934,154.30229 L 165.04934,141.31206 L 170.13247,141.31206 C 175.02731,141.31212 178.89849,139.93544 181.74602,137.18201 C 184.59347,134.42871 186.01722,130.93406 186.01727,126.69805 C 186.01722,122.50925 184.53464,118.97929 181.56952,116.10818 C 178.60432,113.23724 175.07437,111.80173 170.97966,111.80164 C 167.87327,111.80173 164.93165,112.83718 162.15477,114.908 C 159.37786,116.97899 157.58935,120.08535 156.78924,124.22708 L 142.03403,124.22708 C 142.59882,116.97899 145.63458,110.63684 151.14132,105.20062 C 156.64803,99.764592 163.07254,97.04653 170.41487,97.046426 C 179.59271,97.04653 186.94678,100.07052 192.47708,106.11841 C 198.00729,112.16649 200.77242,118.93223 200.77248,126.41565 C 200.77242,130.36927 199.99583,134.21692 198.44271,137.9586 C 196.88947,141.70041 193.99491,144.9362 189.75902,147.66598 C 194.08904,150.44293 197.1954,153.85521 199.0781,157.90285 C 200.96068,161.95057 201.902,166.04531 201.90206,170.18709 C 201.902,179.78859 198.88978,187.43681 192.86538,193.13179 C 186.84088,198.82679 179.45151,201.67428 170.69726,201.67429 C 163.73146,201.67428 157.45992,199.42688 151.88261,194.93207 C 146.30527,190.43727 142.83415,183.88333 141.46924,175.27022 L 156.22445,175.27022 C 157.58935,178.8002 159.42492,181.63593 161.73118,183.77742 C 164.03739,185.91894 167.30848,186.98969 171.54445,186.98967 C 175.63916,186.98969 179.26325,185.54241 182.41671,182.64783 C 185.57009,179.75329 187.14681,175.76444 187.14685,170.68128 C 187.14681,165.55112 185.58186,161.53874 182.45201,158.64414 C 179.32208,155.74962 175.5921,154.30234 171.26206,154.30229 L 165.04934,154.30229 z "
       style="font-size:144.58694458px;font-style:normal;font-variant:normal;font-weight:normal;font-stretch:normal;text-indent:0;text-align:center;text-decoration:none;line-height:100%;letter-spacing:normal;word-spacing:normal;text-transform:none;direction:ltr;block-progression:tb;writing-mode:lr-tb;text-anchor:middle;color:black;fill:black;fill-opacity:1;fill-rule:nonzero;stroke:none;stroke-width:1;stroke-linecap:round;stroke-linejoin:miter;marker:none;marker-start:none;marker-mid:none;marker-end:none;stroke-miterlimit:4;stroke-dashoffset:0;stroke-opacity:1;visibility:visible;display:inline;overflow:visible;font-family:DIN 1451 Mittelschrift"
       id="text5361" />
    <path
       d="M 233.5024,201.67428 L 233.5024,116.3268 L 245.7875,116.3268 L 245.7875,167.12683 L 261.14192,140.76423 L 273.29816,140.76423 L 258.83798,164.95175 L 276.24252,201.67428 L 262.55163,201.67428 L 251.93005,175.69828 L 245.7875,184.7852 L 245.7875,201.67428 L 233.5024,201.67428 z M 316.913,146.26636 C 318.53484,144.22021 320.32657,142.66407 322.28822,141.59795 C 324.24978,140.53195 326.46847,139.99892 328.94428,139.99885 C 333.12257,139.99892 336.5557,141.47044 339.2437,144.41345 C 341.93157,147.35656 343.27553,150.91726 343.2756,155.09555 L 343.2756,201.67428 L 330.9905,201.67428 L 330.9905,158.55147 C 330.99044,156.59121 330.49972,154.99211 329.51832,153.75418 C 328.53681,152.51635 327.02298,151.89741 324.97681,151.89736 C 323.26898,151.89741 321.83976,152.55866 320.68913,153.8811 C 319.53842,155.20363 318.96308,156.76042 318.96312,158.55147 L 318.96312,201.67428 L 306.67802,201.67428 L 306.67802,158.55147 C 306.67799,156.67451 306.12348,155.09625 305.0145,153.81666 C 303.90545,152.53718 302.41245,151.89741 300.53547,151.89736 C 298.83027,151.89741 297.4017,152.55866 296.24974,153.8811 C 295.09775,155.20363 294.52177,156.76042 294.52179,158.55147 L 294.52179,201.67428 L 282.23668,201.67428 L 282.23668,140.76423 L 294.52179,140.76423 L 294.52179,146.26636 C 297.33596,142.08808 301.17456,139.99892 306.0376,139.99885 C 308.34152,139.99892 310.41051,140.53195 312.24459,141.59795 C 314.07859,142.66407 315.63473,144.22021 316.913,146.26636 L 316.913,146.26636 z "
       style="font-size:127.95874786px;font-style:normal;font-variant:normal;font-weight:normal;font-stretch:normal;text-indent:0;text-align:center;text-decoration:none;line-height:100%;letter-spacing:normal;word-spacing:normal;text-transform:none;direction:ltr;block-progression:tb;writing-mode:lr-tb;text-anchor:middle;color:black;fill:black;fill-opacity:1;fill-rule:nonzero;stroke:none;stroke-width:1;stroke-linecap:round;stroke-linejoin:miter;marker:none;marker-start:none;marker-mid:none;marker-end:none;stroke-miterlimit:4;stroke-dashoffset:0;stroke-opacity:1;visibility:visible;display:inline;overflow:visible;font-family:DIN 1451 Engschrift"
       id="text5367" />
    <path
       d="M 72.672733,67.610438 L 41.610233,98.672938 L 41.610233,120.92294 L 63.422733,99.079188 L 63.422733,208.04794 L 81.953983,208.04794 L 81.953983,99.079188 L 103.79773,120.92294 L 103.79773,98.672938 L 72.672733,67.610438 z "
       style="color:black;fill:black;fill-opacity:1;fill-rule:nonzero;stroke:none;stroke-width:1;stroke-linecap:round;stroke-linejoin:miter;marker:none;marker-start:none;marker-mid:none;marker-end:none;stroke-miterlimit:4;stroke-dashoffset:0;stroke-opacity:1;visibility:visible;display:inline;overflow:visible"
       id="path4297" />
    <path
       d="M 410.18586,67.608052 L 379.12336,98.670551 L 379.12336,120.92055 L 400.93586,99.076801 L 400.93586,208.04555 L 419.46711,208.04555 L 419.46711,99.076801 L 441.31086,120.92055 L 441.31086,98.670551 L 410.18586,67.608052 z "
       style="color:black;fill:black;fill-opacity:1;fill-rule:nonzero;stroke:none;stroke-width:1;stroke-linecap:round;stroke-linejoin:miter;marker:none;marker-start:none;marker-mid:none;marker-end:none;stroke-miterlimit:4;stroke-dashoffset:0;stroke-opacity:1;visibility:visible;display:inline;overflow:visible"
       id="path4299" />
  </g>
</svg>
