<?xml version="1.0" encoding="UTF-8" standalone="no"?>
<!-- Created with Inkscape (http://www.inkscape.org/) -->
<svg
   xmlns:svg="http://www.w3.org/2000/svg"
   xmlns="http://www.w3.org/2000/svg"
   version="1.0"
   width="490"
   height="270"
   id="svg2">
  <defs
     id="defs4" />
  <path
     d="M 38.78125,4.984375 C 20.356889,4.9843748 9.96875,12.12016 9.96875,33.203125 L 9.65625,236.79688 C 9.65625,257.87984 20.044391,265.01563 38.46875,265.01563 L 451.21875,264.98438 C 469.64311,264.98438 480.03124,257.84859 480.03125,236.76563 L 480.34375,33.234375 C 480.34375,12.15141 469.95561,5.0156248 451.53125,5.015625 L 38.78125,4.984375 z "
     style="fill:white;fill-opacity:1;fill-rule:evenodd;stroke:black;stroke-width:2;stroke-linecap:butt;stroke-linejoin:miter;stroke-miterlimit:4;stroke-dasharray:none;stroke-opacity:1"
     id="path1881" />
  <path
     d="M 453.3125,17.796875 L 36.78125,17.828125 C 28.356999,17.828125 23.40625,23.829135 23.40625,32.703125 L 23.40625,237.35938 C 23.406249,246.23335 28.35701,252.23438 36.78125,252.23438 L 453.28125,252.20313 C 461.70549,252.20312 466.65625,246.20211 466.65625,237.32813 L 466.65625,32.671875 C 466.65625,23.797885 461.73674,17.796875 453.3125,17.796875 z "
     style="fill:none;fill-opacity:1;fill-rule:evenodd;stroke:black;stroke-width:10.05090809;stroke-linecap:butt;stroke-linejoin:miter;stroke-miterlimit:4;stroke-dasharray:none;stroke-opacity:1"
     id="path3976" />
  <g
     transform="matrix(1.047284,0,0,1.047284,25.18298,-407.6689)"
     id="g2451">
    <path
       d="M 158.9635,593.50129 L 158.9635,557.22086 L 154.62473,557.22086 L 154.62473,550.60939 L 158.9635,550.60939 L 158.9635,544.94832 C 158.9635,540.95395 160.06541,538.01321 162.26924,536.12615 C 164.47305,534.23918 167.25537,533.29566 170.61622,533.29561 L 176.19464,533.29561 L 176.19464,541.39465 L 171.31869,541.39465 C 168.81182,541.3947 167.5584,542.57926 167.55842,544.94832 L 167.55842,550.60939 L 176.19464,550.60939 L 176.19464,557.22086 L 167.55842,557.22086 L 167.55842,593.50129 L 158.9635,593.50129 z M 181.07061,593.50129 L 181.07061,550.60939 L 189.70683,550.60939 L 189.70683,555.1961 L 189.87211,555.1961 C 192.54424,551.80775 196.26317,550.11357 201.02896,550.11352 C 204.16939,550.11357 207.15831,551.21548 209.99577,553.41927 L 203.7562,560.85715 C 201.88293,559.45226 199.98213,558.74979 198.05381,558.74976 C 195.9326,558.74979 194.01116,559.45914 192.28944,560.87782 C 190.56769,562.29655 189.70682,564.57614 189.70683,567.71656 L 189.70683,593.50129 L 181.07061,593.50129 z M 247.18527,575.31975 L 220.49147,575.31975 C 220.49146,578.84589 221.44874,581.49047 223.36333,583.25351 C 225.27789,585.01658 227.72276,585.89811 230.69793,585.89811 C 234.25157,585.89811 237.39201,584.52073 240.11926,581.76593 L 246.35885,587.09643 C 244.23762,589.57574 241.84786,591.34567 239.18953,592.40627 C 236.53114,593.46686 233.7557,593.99715 230.86321,593.99715 C 226.45556,593.99715 222.18565,592.57155 218.05349,589.72035 C 213.92132,586.86917 211.85524,581.03593 211.85524,572.22063 C 211.85524,563.87368 213.76292,558.10241 217.5783,554.90683 C 221.39365,551.71134 225.38118,550.11357 229.54091,550.11352 C 234.25157,550.11357 238.36996,551.74578 241.89609,555.01014 C 245.42218,558.27459 247.18524,562.67535 247.18527,568.21242 L 247.18527,575.31975 z M 220.49147,568.21242 L 238.59037,568.21242 C 238.4526,564.98936 237.54353,562.52383 235.86313,560.81584 C 234.1827,559.10791 232.07529,558.25393 229.54091,558.2539 C 226.97895,558.25393 224.85089,559.10791 223.15672,560.81584 C 221.46252,562.52383 220.5741,564.98936 220.49147,568.21242 L 220.49147,568.21242 z M 256.52397,593.50129 L 256.52397,550.60939 L 265.1602,550.60939 L 265.1602,593.50129 L 256.52397,593.50129 z M 256.52397,541.93184 L 256.52397,533.29561 L 265.1602,533.29561 L 265.1602,541.93184 L 256.52397,541.93184 z "
       style="font-size:84.85408783px;font-style:normal;font-variant:normal;font-weight:normal;font-stretch:normal;text-align:center;line-height:100%;writing-mode:lr-tb;text-anchor:middle;fill:black;fill-opacity:1;stroke:none;stroke-width:1px;stroke-linecap:butt;stroke-linejoin:miter;stroke-opacity:1;font-family:DIN 1451 Mittelschrift"
       id="text1982" />
    <path
       d="M 45.744019,460.11382 C 49.522677,460.11386 51.988691,461.09079 53.142068,463.04459 C 54.295388,464.99849 54.968337,466.53596 55.160919,467.65702 C 55.353438,468.77815 55.449713,469.78635 55.449744,470.68162 L 55.449744,495.76111 C 55.449713,497.36212 55.33731,498.70703 55.112537,499.79587 C 54.8877,500.88472 54.08671,502.35816 52.709563,504.21623 C 51.332358,506.0743 48.978259,507.00332 45.647255,507.00332 C 43.854657,507.00332 42.237526,506.53856 40.795858,505.60904 C 39.354156,504.67952 38.153404,503.41425 37.193597,501.81325 L 37.193597,506.42568 L 27.968759,506.42568 L 27.968759,442.33856 L 37.193597,442.33856 L 37.193597,465.11036 C 39.242242,461.77938 42.092379,460.11386 45.744019,460.11382 L 45.744019,460.11382 z M 41.612487,469.14513 C 40.332058,469.14517 39.275474,469.65782 38.442732,470.68309 C 37.609961,471.70843 37.193584,472.89355 37.193597,474.23843 L 37.193597,492.30106 C 37.193584,493.775 37.465793,495.0564 38.010227,496.14522 C 38.554632,497.23407 39.755384,497.7785 41.612487,497.77848 C 42.957391,497.7785 44.062356,497.37825 44.927389,496.57773 C 45.792379,495.77724 46.224884,494.86385 46.224907,493.83755 L 46.224907,474.23843 C 46.224884,472.76453 45.808506,471.54716 44.975771,470.58632 C 44.142993,469.62556 43.021901,469.14517 41.612487,469.14513 L 41.612487,469.14513 z M 63.15275,506.42568 L 63.15275,460.68854 L 72.377584,460.68854 L 72.377584,506.42568 L 63.15275,506.42568 z M 63.15275,451.36987 L 63.15275,442.33856 L 72.377584,442.33856 L 72.377584,451.36987 L 63.15275,451.36987 z M 92.1409,498.35321 C 93.55032,498.35322 94.7672,497.90507 95.79155,497.00877 C 96.81586,496.1125 97.32802,494.95963 97.32805,493.55019 C 97.32802,491.88469 96.89601,490.65168 96.032,489.85117 C 95.16794,489.05068 93.8064,488.32984 91.94738,487.68863 L 90.12352,487.01715 C 88.20192,486.31148 86.60042,485.6224 85.31904,484.94992 C 84.03764,484.27748 82.66046,483.0606 81.1875,481.29928 C 79.71455,479.538 78.97806,476.99184 78.97807,473.66078 C 78.97806,469.88214 80.29122,466.67964 82.91754,464.05329 C 85.54384,461.42702 88.77859,460.11386 92.6218,460.11382 C 96.14437,460.11386 99.12256,461.45878 101.55634,464.14858 C 103.99007,466.83847 105.20695,469.88116 105.20698,473.27666 L 96.75332,473.27666 C 96.7533,471.93177 96.3208,470.8268 95.4558,469.96176 C 94.59078,469.09678 93.45355,468.66428 92.04414,468.66424 C 90.76372,468.66428 89.70712,469.14468 88.87439,470.10544 C 88.04161,471.06627 87.62524,472.21913 87.62525,473.56402 C 87.62524,474.97348 88.04161,476.06281 88.87439,476.832 C 89.70712,477.60126 90.92401,478.27421 92.52503,478.85085 L 95.50419,479.8097 C 97.23419,480.45091 98.59524,481.05984 99.58734,481.63648 C 100.57939,482.21318 101.57195,483.07771 102.56503,484.23005 C 103.55806,485.38245 104.37517,486.72737 105.01639,488.26482 C 105.65755,489.80231 105.97814,491.43606 105.97816,493.16606 C 105.97814,496.88221 104.64885,500.13309 101.99032,502.91871 C 99.33172,505.70434 96.14437,507.09716 92.42827,507.09716 C 90.18606,507.09716 87.92824,506.48871 85.65478,505.27184 C 83.38131,504.05496 81.62002,502.40557 80.37088,500.32367 C 79.12174,498.24178 78.49717,495.88818 78.49717,493.26283 L 87.04759,493.26283 C 87.04759,494.67228 87.54412,495.87303 88.53717,496.86509 C 89.53022,497.85717 90.73146,498.35322 92.1409,498.35321 L 92.1409,498.35321 z M 145.07083,442.33856 C 146.92789,442.33862 148.78499,442.755 150.64209,443.58769 C 152.49915,444.42051 154.45252,445.86171 156.50218,447.91129 C 158.55178,449.96098 159.5766,453.13122 159.57664,457.42202 L 159.57664,462.3218 C 159.5766,467.19132 157.65501,470.65038 153.81185,472.69901 C 157.65501,474.94123 159.5766,478.49706 159.57664,483.36651 L 159.57664,490.86132 C 159.5766,495.34376 158.13541,499.05842 155.25304,502.00531 C 152.37062,504.95222 148.65597,506.42568 144.10906,506.42568 L 129.98444,506.42568 L 129.98444,442.33856 L 145.07083,442.33856 z M 150.54533,461.36295 L 150.54533,457.42202 C 150.54531,455.43792 149.96911,453.86917 148.81677,452.71577 C 147.66438,451.56247 146.12739,450.9858 144.20582,450.98574 L 139.01575,450.98574 L 139.01575,468.66424 L 144.49318,468.66424 C 146.60633,468.66428 148.14331,468.00795 149.10413,466.69524 C 150.0649,465.38261 150.54531,463.60519 150.54533,461.36295 L 150.54533,461.36295 z M 150.54533,490.86132 L 150.54533,483.36651 C 150.54531,481.31592 149.98475,479.6983 148.86368,478.51365 C 147.74257,477.32905 146.18995,476.73674 144.20582,476.73671 L 139.01575,476.73671 L 139.01575,497.2976 L 144.29965,497.2976 C 146.15868,497.29761 147.66438,496.68917 148.81677,495.47228 C 149.96911,494.2554 150.54531,492.71842 150.54533,490.86132 L 150.54533,490.86132 z M 167.97165,501.62266 C 167.52203,500.85246 167.23322,500.00308 167.10517,499.07454 C 166.97713,498.146 166.91311,497.10506 166.91311,495.9517 L 166.91311,490.76456 C 166.91311,487.36904 167.76199,484.83852 169.45976,483.17298 C 171.15752,481.50749 172.695,480.37076 174.07218,479.76278 C 175.44935,479.15486 177.09873,478.85088 179.02035,478.85085 L 185.16926,478.85085 L 185.16926,474.90992 C 185.16924,474.01268 185.12134,473.2762 185.02558,472.70047 C 184.92977,472.12481 184.52952,471.38833 183.82483,470.49103 C 183.12009,469.5938 182.15881,469.14517 180.94097,469.14513 C 179.66053,469.14517 178.5717,469.56154 177.67444,470.39426 C 176.77717,471.22706 176.23275,472.31589 176.04119,473.66078 L 166.91311,473.66078 C 166.91311,469.94664 168.24239,466.76028 170.90097,464.10167 C 173.55953,461.44315 176.77814,460.11386 180.55684,460.11382 C 184.27296,460.11386 187.50818,461.42702 190.26256,464.05329 C 193.01689,466.67964 194.39407,469.88214 194.3941,473.66078 L 194.3941,506.42568 L 185.16926,506.42568 L 185.16926,501.81325 C 184.20942,503.41425 183.00867,504.67952 181.567,505.60904 C 180.12529,506.53856 178.50719,507.00332 176.71267,507.00332 C 172.67789,507.00332 169.76423,505.20977 167.97165,501.62266 L 167.97165,501.62266 z M 176.13795,490.66779 L 176.13795,492.97254 C 176.13794,494.19041 176.57045,495.29586 177.43547,496.2889 C 178.30046,497.28197 179.43671,497.7785 180.8442,497.77848 C 181.61439,497.7785 182.33571,497.58643 183.00819,497.2023 C 183.68064,496.81819 184.1928,496.28989 184.5447,495.61742 C 184.89654,494.94497 185.0886,494.07996 185.12088,493.02239 C 185.15311,491.96484 185.16924,491.21223 185.16926,490.76456 L 185.16926,486.34274 L 181.70921,486.34274 C 180.04368,486.34276 178.69876,486.66335 177.67444,487.30451 C 176.6501,487.94571 176.13794,489.06681 176.13795,490.66779 L 176.13795,490.66779 z M 220.75204,506.42568 L 220.75204,501.81325 C 219.66317,503.47876 218.46193,504.76016 217.14831,505.65742 C 215.83465,506.55469 214.24928,507.00332 212.39221,507.00332 C 210.53511,507.00332 208.78993,506.49067 207.15669,505.46537 C 205.52342,504.44006 204.3862,503.27107 203.74502,501.9584 C 203.10383,500.64573 202.73535,499.57303 202.63957,498.74027 C 202.54377,497.90752 202.49588,496.68965 202.49588,495.08668 L 202.49588,460.68854 L 211.72073,460.68854 L 211.72073,491.62957 C 211.72071,492.33332 211.73684,493.05368 211.7691,493.79063 C 211.80135,494.52762 212.15371,495.3765 212.82618,496.33729 C 213.49863,497.2981 214.66762,497.7785 216.33314,497.77848 C 217.16588,497.7785 217.93413,497.55418 218.63789,497.10553 C 219.34161,496.65692 219.83764,496.12862 220.12601,495.52065 C 220.41431,494.91272 220.59074,494.25639 220.65528,493.55166 C 220.71976,492.84695 220.75201,492.20626 220.75204,491.62957 L 220.75204,460.68854 L 229.97687,460.68854 L 229.97687,506.42568 L 220.75204,506.42568 z M 249.77831,498.35321 C 251.18772,498.35322 252.4046,497.90507 253.42895,497.00877 C 254.45326,496.1125 254.96542,494.95963 254.96545,493.55019 C 254.96542,491.88469 254.53341,490.65168 253.6694,489.85117 C 252.80534,489.05068 251.4438,488.32984 249.58478,487.68863 L 247.76092,487.01715 C 245.83932,486.31148 244.23783,485.6224 242.95644,484.94992 C 241.67504,484.27748 240.29787,483.0606 238.82492,481.29928 C 237.35195,479.538 236.61547,476.99184 236.61547,473.66078 C 236.61547,469.88214 237.92862,466.67964 240.55494,464.05329 C 243.18124,461.42702 246.41599,460.11386 250.2592,460.11382 C 253.78178,460.11386 256.75996,461.45878 259.19374,464.14858 C 261.62747,466.83847 262.84435,469.88116 262.84439,473.27666 L 254.39072,473.27666 C 254.3907,471.93177 253.9582,470.8268 253.09321,469.96176 C 252.22818,469.09678 251.09096,468.66428 249.68154,468.66424 C 248.40112,468.66428 247.34454,469.14468 246.51179,470.10544 C 245.67902,471.06627 245.26264,472.21913 245.26265,473.56402 C 245.26264,474.97348 245.67902,476.06281 246.51179,476.832 C 247.34454,477.60126 248.56141,478.27421 250.16243,478.85085 L 253.14159,479.8097 C 254.8716,480.45091 256.23264,481.05984 257.22474,481.63648 C 258.21679,482.21318 259.20936,483.07771 260.20244,484.23005 C 261.19546,485.38245 262.01257,486.72737 262.65379,488.26482 C 263.29495,489.80231 263.61554,491.43606 263.61557,493.16606 C 263.61554,496.88221 262.28625,500.13309 259.62772,502.91871 C 256.96912,505.70434 253.78178,507.09716 250.06567,507.09716 C 247.82346,507.09716 245.56564,506.48871 243.29218,505.27184 C 241.01871,504.05496 239.25742,502.40557 238.00828,500.32367 C 236.75914,498.24178 236.13457,495.88818 236.13458,493.26283 L 244.685,493.26283 C 244.68499,494.67228 245.18152,495.87303 246.17458,496.86509 C 247.16762,497.85717 248.36886,498.35322 249.77831,498.35321 L 249.77831,498.35321 z M 283.51084,497.68173 L 285.62499,497.68173 L 285.62499,506.42568 L 282.7426,506.42568 C 281.01255,506.42568 279.47509,506.24974 278.13018,505.89787 C 276.78524,505.546 275.47208,504.82516 274.19071,503.73534 C 272.90931,502.64553 272.01253,501.44429 271.50037,500.13162 C 270.9882,498.81895 270.73212,497.20183 270.73212,495.28021 L 270.73212,467.89599 L 266.21647,467.89599 L 266.21647,460.68854 L 270.73212,460.68854 L 270.73212,446.85421 L 279.95697,446.85421 L 279.95697,460.68854 L 285.62499,460.68854 L 285.62499,467.89599 L 279.95697,467.89599 L 279.95697,493.64696 C 279.95695,495.18346 280.16514,496.24004 280.58153,496.81671 C 280.99789,497.3934 281.97433,497.68173 283.51084,497.68173 L 283.51084,497.68173 z M 305.25636,497.68173 C 306.60322,497.68173 307.69254,497.26535 308.52434,496.43259 C 309.3561,495.59984 309.86875,494.511 310.0623,493.16606 L 319.19038,493.16606 L 319.19038,494.22167 C 319.19035,495.63111 318.88588,497.04055 318.27698,498.44997 C 317.66803,499.85941 316.40277,501.63732 314.4812,503.78372 C 312.55957,505.93013 309.54915,507.00332 305.44988,507.00332 C 302.82259,507.00332 300.40397,506.2986 298.19405,504.88917 C 295.98411,503.47975 294.46276,501.92615 293.63001,500.22837 C 292.79725,498.53061 292.26895,496.99315 292.04513,495.61595 C 291.8213,494.23879 291.70939,492.87774 291.70939,491.53281 L 291.70939,474.14167 C 291.70939,470.36302 293.07044,467.08038 295.79255,464.29373 C 298.51463,461.50717 301.76599,460.11386 305.54665,460.11382 C 309.45434,460.11386 312.70521,461.47491 315.2993,464.19697 C 317.89332,466.91911 319.19035,470.234 319.19038,474.14167 L 319.19038,486.82362 L 300.93423,486.82362 L 300.93423,493.64696 C 300.93422,494.60679 301.39849,495.5192 302.32705,496.3842 C 303.25557,497.24923 304.23201,497.68173 305.25636,497.68173 L 305.25636,497.68173 z M 305.44988,469.14513 C 304.23201,469.14517 303.17494,469.56154 302.27866,470.39426 C 301.38237,471.22706 300.93422,472.70002 300.93423,474.81315 L 300.93423,479.32881 L 309.96554,479.32881 L 309.96554,474.81315 C 309.96552,473.14767 309.61316,471.78663 308.90846,470.73001 C 308.20374,469.67346 307.05087,469.14517 305.44988,469.14513 L 305.44988,469.14513 z M 335.66958,442.33856 L 335.66958,493.26283 C 335.66957,494.79934 335.92565,495.91994 336.43784,496.62465 C 336.94999,497.32937 337.97529,497.68173 339.51375,497.68173 L 340.18525,497.68173 L 340.18525,506.42568 L 338.16786,506.42568 C 336.6939,506.42568 335.31673,506.26538 334.03633,505.94478 C 332.75591,505.62419 331.47501,504.96786 330.19362,503.97579 C 328.91222,502.98371 327.96707,501.70281 327.35815,500.13308 C 326.74921,498.56336 326.44475,496.88122 326.44475,495.08668 L 326.44475,442.33856 L 335.66958,442.33856 z M 354.99893,442.33856 L 354.99893,493.26283 C 354.99892,494.79934 355.255,495.91994 355.76718,496.62465 C 356.27933,497.32937 357.30464,497.68173 358.8431,497.68173 L 359.51459,497.68173 L 359.51459,506.42568 L 357.4972,506.42568 C 356.02325,506.42568 354.64608,506.26538 353.36568,505.94478 C 352.08525,505.62419 350.80435,504.96786 349.52297,503.97579 C 348.24157,502.98371 347.29641,501.70281 346.68749,500.13308 C 346.07856,498.56336 345.77409,496.88122 345.77409,495.08668 L 345.77409,442.33856 L 354.99893,442.33856 z M 377.88216,497.68173 C 379.22901,497.68173 380.31834,497.26535 381.15014,496.43259 C 381.9819,495.59984 382.49456,494.511 382.68811,493.16606 L 391.81618,493.16606 L 391.81618,494.22167 C 391.81615,495.63111 391.51168,497.04055 390.90279,498.44997 C 390.29382,499.85941 389.02856,501.63732 387.10699,503.78372 C 385.18537,505.93013 382.17494,507.00332 378.07568,507.00332 C 375.44838,507.00332 373.02977,506.2986 370.81985,504.88917 C 368.60991,503.47975 367.08857,501.92615 366.25582,500.22837 C 365.42305,498.53061 364.89476,496.99315 364.67094,495.61595 C 364.44711,494.23879 364.33519,492.87774 364.3352,491.53281 L 364.3352,474.14167 C 364.33519,470.36302 365.69623,467.08038 368.41834,464.29373 C 371.14043,461.50717 374.3918,460.11386 378.17244,460.11382 C 382.08013,460.11386 385.33101,461.47491 387.92509,464.19697 C 390.51911,466.91911 391.81615,470.234 391.81618,474.14167 L 391.81618,486.82362 L 373.56003,486.82362 L 373.56003,493.64696 C 373.56002,494.60679 374.02429,495.5192 374.95284,496.3842 C 375.88138,497.24923 376.85781,497.68173 377.88216,497.68173 L 377.88216,497.68173 z M 378.07568,469.14513 C 376.85781,469.14517 375.80074,469.56154 374.90447,470.39426 C 374.00816,471.22706 373.56002,472.70002 373.56003,474.81315 L 373.56003,479.32881 L 382.59134,479.32881 L 382.59134,474.81315 C 382.59131,473.14767 382.23896,471.78663 381.53427,470.73001 C 380.82953,469.67346 379.67668,469.14517 378.07568,469.14513 L 378.07568,469.14513 z "
       style="font-size:84.85363007px;font-style:normal;font-variant:normal;font-weight:normal;font-stretch:normal;text-align:center;line-height:100%;writing-mode:lr-tb;text-anchor:middle;fill:black;fill-opacity:1;stroke:none;stroke-width:1px;stroke-linecap:butt;stroke-linejoin:miter;stroke-opacity:1;font-family:DIN 1451 Engschrift"
       id="text2136" />
  </g>
</svg>
