<?xml version="1.0" encoding="UTF-8" standalone="no"?>
<!-- Created with Inkscape (http://www.inkscape.org/) -->
<svg
   xmlns:svg="http://www.w3.org/2000/svg"
   xmlns="http://www.w3.org/2000/svg"
   version="1.0"
   width="660"
   height="270"
   id="svg2">
  <defs
     id="defs4" />
  <path
     d="M 34.71875,16.3125 C 17.02888,16.3125 6.84375,23.471268 6.84375,40.40625 L 6.78125,230 C 6.78125,246.93498 16.96638,254.09375 34.65625,254.09375 L 623.96875,254.0625 C 641.65864,254.0625 651.84378,246.90373 651.84375,229.96875 L 651.90625,40.4375 C 651.90625,23.502518 641.72114,16.34375 624.03125,16.34375 L 34.71875,16.3125 z "
     style="fill:white;fill-opacity:1;fill-rule:evenodd;stroke:black;stroke-width:3;stroke-linecap:butt;stroke-linejoin:miter;stroke-miterlimit:4;stroke-dasharray:none;stroke-opacity:1"
     id="path1892" />
  <path
     d="M 56.205419,66.193536 L 56.205419,84.165747 L 69.78623,84.165747 C 73.147517,84.165781 75.668503,83.230576 77.349197,81.360131 C 79.029818,79.489757 79.870147,77.29406 79.870186,74.773031 C 79.870147,71.764154 78.867174,69.514241 76.861264,68.023286 C 75.18057,66.803503 72.998426,66.193587 70.314825,66.193536 L 56.205419,66.193536 z M 47.219313,117.4672 L 47.219313,58.223958 L 70.396147,58.223958 C 75.465198,58.224017 79.47709,59.525172 82.431836,62.127425 C 84.085345,63.564171 85.488152,65.366812 86.640261,67.535353 C 87.792279,69.703993 88.368311,72.11655 88.368358,74.773031 C 88.368311,78.595214 87.345007,81.97686 85.298444,84.917978 C 83.251793,87.859161 80.439402,89.939653 76.861264,91.159459 L 90.604719,117.4672 L 79.951508,117.4672 L 67.712514,92.175986 L 56.205419,92.175986 L 56.205419,117.4672 L 47.219313,117.4672 z M 132.92401,99.576309 L 106.65694,99.576309 C 106.65692,103.04607 107.59891,105.64838 109.48288,107.38324 C 111.36683,109.11812 113.77261,109.98556 116.70023,109.98555 C 120.19706,109.98556 123.2873,108.63019 125.97096,105.91944 L 132.11079,111.16473 C 130.02349,113.6044 127.67192,115.34605 125.05609,116.38968 C 122.4402,117.43331 119.70913,117.95513 116.86288,117.95513 C 112.52567,117.95513 108.32403,116.55232 104.25793,113.74671 C 100.19181,110.9411 98.158761,105.20111 98.158764,96.526725 C 98.158761,88.31321 100.03595,82.634214 103.79033,79.48972 C 107.54469,76.345301 111.46848,74.773073 115.56172,74.773031 C 120.19706,74.773073 124.24961,76.379186 127.71939,79.591372 C 131.1891,82.803635 132.92398,87.134039 132.92401,92.582597 L 132.92401,99.576309 z M 106.65694,92.582597 L 124.4665,92.582597 C 124.33094,89.411059 123.43639,86.984948 121.78287,85.304258 C 120.12929,83.623633 118.05558,82.783304 115.56172,82.78327 C 113.04071,82.783304 110.94667,83.623633 109.27958,85.304258 C 107.61246,86.984948 106.73825,89.411059 106.65694,92.582597 L 106.65694,92.582597 z M 145.11343,117.4672 L 145.11343,75.260964 L 153.6116,75.260964 L 153.6116,117.4672 L 145.11343,117.4672 z M 145.11343,66.722131 L 145.11343,58.223958 L 153.6116,58.223958 L 153.6116,66.722131 L 145.11343,66.722131 z M 183.6919,85.34492 L 183.6919,77.375342 L 188.77454,77.375342 C 191.75632,77.375382 193.24723,75.735385 193.24726,72.455347 C 193.24723,70.286802 192.81351,68.782342 191.94611,67.941964 C 190.40095,66.695074 187.94774,66.112265 184.58644,66.193536 C 181.49618,66.274909 179.34792,66.756065 178.14166,67.637006 C 176.93536,68.518045 176.29156,69.812423 176.21026,71.520142 L 176.21026,117.4672 L 167.71208,117.4672 L 167.71208,71.520142 C 167.71208,66.884826 169.38596,63.421858 172.73373,61.131228 C 176.08148,58.84071 180.31701,57.695424 185.44033,57.695364 C 190.26542,57.695424 194.18921,58.976247 197.21172,61.537839 C 200.23416,64.099542 201.74539,67.508295 201.74543,71.764108 C 201.74539,76.345301 199.72589,79.489757 195.68693,81.197486 C 199.72589,82.823965 201.74539,85.900653 201.74543,90.427559 L 201.74543,105.51283 C 201.74539,108.81994 200.66788,111.63911 198.51287,113.97034 C 196.3578,116.30158 193.53186,117.4672 190.03503,117.4672 L 184.78975,117.4672 L 184.78975,109.49762 L 187.75801,109.49762 C 191.41748,109.49763 193.24723,108.02028 193.24726,105.06556 L 193.24726,90.264914 C 193.24723,86.984948 191.70211,85.344952 188.61189,85.34492 L 183.6919,85.34492 z M 225.07598,117.4672 L 209.62476,75.260964 L 218.61087,75.260964 L 228.49152,104.82159 L 228.65416,104.82159 L 238.57547,75.260964 L 247.56158,75.260964 L 232.0697,117.4672 L 225.07598,117.4672 z M 288.21377,99.576309 L 261.94669,99.576309 C 261.94668,103.04607 262.88866,105.64838 264.77264,107.38324 C 266.65658,109.11812 269.06236,109.98556 271.98998,109.98555 C 275.48681,109.98556 278.57706,108.63019 281.26072,105.91944 L 287.40055,111.16473 C 285.31324,113.6044 282.96167,115.34605 280.34584,116.38968 C 277.72995,117.43331 274.99888,117.95513 272.15263,117.95513 C 267.81543,117.95513 263.61378,116.55232 259.54768,113.74671 C 255.48157,110.9411 253.44851,105.20111 253.44852,96.526725 C 253.44851,88.31321 255.3257,82.634214 259.08008,79.48972 C 262.83444,76.345301 266.75824,74.773073 270.85147,74.773031 C 275.48681,74.773073 279.53937,76.379186 283.00915,79.591372 C 286.47886,82.803635 288.21373,87.134039 288.21377,92.582597 L 288.21377,99.576309 z M 261.94669,92.582597 L 279.75626,92.582597 C 279.62069,89.411059 278.72615,86.984948 277.07262,85.304258 C 275.41905,83.623633 273.34533,82.783304 270.85147,82.78327 C 268.33047,82.783304 266.23642,83.623633 264.56933,85.304258 C 262.90221,86.984948 262.028,89.411059 261.94669,92.582597 L 261.94669,92.582597 z M 300.15921,117.4672 L 300.15921,75.260964 L 308.65738,75.260964 L 308.65738,79.774347 L 308.82003,79.774347 C 311.44943,76.440177 315.10893,74.773073 319.79853,74.773031 C 322.88875,74.773073 325.8299,75.857368 328.62199,78.02592 L 322.48216,85.34492 C 320.63883,83.962475 318.76842,83.271237 316.87093,83.271203 C 314.78364,83.271237 312.8929,83.969252 311.1987,85.36525 C 309.50448,86.761312 308.65737,89.004448 308.65738,92.094664 L 308.65738,117.4672 L 300.15921,117.4672 z M 330.84944,110.43283 L 336.78596,104.57763 C 340.47256,108.18292 344.90462,109.98556 350.08215,109.98555 C 352.49468,109.98556 354.48708,109.53151 356.05933,108.62341 C 357.63153,107.71532 358.41765,106.36673 358.41767,104.57763 C 358.41765,102.11087 356.69633,100.72839 353.25371,100.43019 L 345.77207,99.738953 C 342.2752,99.467897 339.37471,98.315833 337.07059,96.282759 C 334.76646,94.249726 333.61439,91.417005 333.6144,87.784586 C 333.61439,83.50165 335.11885,80.262318 338.12778,78.066581 C 341.13669,75.870922 344.87751,74.773073 349.35025,74.773031 C 353.03683,74.773073 356.19484,75.29489 358.82429,76.338483 C 361.45367,77.382159 363.81201,78.771412 365.89932,80.506247 L 360.65404,86.686736 C 358.97335,85.548257 357.23847,84.613052 355.44941,83.88112 C 353.6603,83.149254 351.62725,82.783304 349.35025,82.78327 C 346.63949,82.783304 344.75553,83.26446 343.69835,84.226739 C 342.64115,85.189084 342.11256,86.40214 342.11257,87.865909 C 342.11256,88.787589 342.50561,89.641472 343.29174,90.427559 C 344.07784,91.2137 345.54164,91.688079 347.68314,91.850697 L 354.67685,92.338631 C 359.04112,92.636837 362.17202,93.985429 364.06957,96.384411 C 365.96705,98.783436 366.91581,101.65004 366.91585,104.98424 C 366.91581,109.13168 365.2216,112.33035 361.83321,114.58026 C 358.44475,116.83017 354.31088,117.95513 349.43157,117.95513 C 342.41074,117.95513 336.2167,115.4477 330.84944,110.43283 L 330.84944,110.43283 z M 403.33928,105.06556 L 409.60109,110.67679 C 407.75775,112.79117 405.56883,114.53282 403.03432,115.90174 C 400.49975,117.27067 397.63314,117.95513 394.43449,117.95513 C 389.55514,117.95513 385.14342,116.2948 381.1993,112.97414 C 377.25517,109.6535 375.28311,104.13037 375.28311,96.404742 C 375.28311,88.679159 377.25517,83.142477 381.1993,79.794678 C 385.14342,76.446954 389.55514,74.773073 394.43449,74.773031 C 397.63314,74.773073 400.49975,75.464311 403.03432,76.846747 C 405.56883,78.229264 407.75775,79.97769 409.60109,82.092031 L 403.33928,87.662603 C 400.9538,84.735036 398.09397,83.271237 394.75978,83.271203 C 387.44077,83.271237 383.78127,87.649079 383.78128,96.404742 C 383.78127,105.13334 387.44077,109.49763 394.75978,109.49762 C 398.12107,109.49763 400.9809,108.02028 403.33928,105.06556 L 403.33928,105.06556 z M 418.45629,117.4672 L 418.45629,58.223958 L 426.95446,58.223958 L 426.95446,79.774347 L 427.1171,79.774347 C 429.7465,76.440177 433.406,74.773073 438.0956,74.773031 C 441.37557,74.773073 444.54036,76.020013 447.58997,78.513853 C 450.63952,81.007771 452.16431,84.64016 452.16435,89.411031 L 452.16435,117.4672 L 443.66617,117.4672 L 443.66617,92.338631 C 443.66614,89.492381 442.87325,87.269576 441.2875,85.670208 C 439.70169,84.070905 437.72963,83.271237 435.37131,83.271203 C 432.93162,83.271237 430.9189,84.070905 429.33313,85.670208 C 427.74733,87.269576 426.95444,89.492381 426.95446,92.338631 L 426.95446,117.4672 L 418.45629,117.4672 z M 466.18349,107.26126 L 466.18349,58.223958 L 474.68166,58.223958 L 474.68166,106.57002 C 474.68165,108.52176 475.73883,109.49763 477.85323,109.49762 L 480.74017,109.49762 L 480.74017,117.4672 L 476.99934,117.4672 C 473.90909,117.4672 471.33389,116.71497 469.27373,115.21051 C 467.21356,113.70605 466.18348,111.0563 466.18349,107.26126 L 466.18349,107.26126 z M 490.65257,103.31713 L 490.65257,75.260964 L 499.15075,75.260964 L 499.15075,100.43019 C 499.15073,103.30359 499.94362,105.53317 501.52942,107.11894 C 503.11519,108.70474 505.12791,109.49763 507.5676,109.49762 C 509.92592,109.49763 511.89798,108.70474 513.48379,107.11894 C 515.06954,105.53317 515.86243,103.30359 515.86246,100.43019 L 515.86246,75.260964 L 524.36064,75.260964 L 524.36064,117.4672 L 515.86246,117.4672 L 515.86246,112.99448 L 515.69982,112.99448 C 513.07037,116.30158 509.43798,117.95513 504.80264,117.95513 C 501.46841,117.95513 498.27652,116.71497 495.22695,114.23464 C 492.17736,111.75432 490.65257,108.11515 490.65257,103.31713 L 490.65257,103.31713 z M 533.70375,110.43283 L 539.64027,104.57763 C 543.32687,108.18292 547.75893,109.98556 552.93646,109.98555 C 555.34899,109.98556 557.34138,109.53151 558.91364,108.62341 C 560.48584,107.71532 561.27196,106.36673 561.27198,104.57763 C 561.27196,102.11087 559.55064,100.72839 556.10802,100.43019 L 548.62638,99.738953 C 545.12951,99.467897 542.22902,98.315833 539.9249,96.282759 C 537.62077,94.249726 536.4687,91.417005 536.46871,87.784586 C 536.4687,83.50165 537.97316,80.262318 540.98209,78.066581 C 543.991,75.870922 547.73182,74.773073 552.20456,74.773031 C 555.89114,74.773073 559.04915,75.29489 561.67859,76.338483 C 564.30798,77.382159 566.66632,78.771412 568.75363,80.506247 L 563.50834,86.686736 C 561.82766,85.548257 560.09278,84.613052 558.30372,83.88112 C 556.51461,83.149254 554.48156,82.783304 552.20456,82.78327 C 549.4938,82.783304 547.60984,83.26446 546.55266,84.226739 C 545.49546,85.189084 544.96687,86.40214 544.96688,87.865909 C 544.96687,88.787589 545.35992,89.641472 546.14605,90.427559 C 546.93215,91.2137 548.39595,91.688079 550.53745,91.850697 L 557.53116,92.338631 C 561.89542,92.636837 565.02633,93.985429 566.92388,96.384411 C 568.82136,98.783436 569.77012,101.65004 569.77016,104.98424 C 569.77012,109.13168 568.07591,112.33035 564.68752,114.58026 C 561.29906,116.83017 557.16519,117.95513 552.28588,117.95513 C 545.26505,117.95513 539.07101,115.4477 533.70375,110.43283 L 533.70375,110.43283 z M 576.71428,110.43283 L 582.6508,104.57763 C 586.3374,108.18292 590.76945,109.98556 595.94698,109.98555 C 598.35952,109.98556 600.35191,109.53151 601.92417,108.62341 C 603.49637,107.71532 604.28248,106.36673 604.28251,104.57763 C 604.28248,102.11087 602.56117,100.72839 599.11855,100.43019 L 591.63691,99.738953 C 588.14004,99.467897 585.23955,98.315833 582.93543,96.282759 C 580.63129,94.249726 579.47923,91.417005 579.47923,87.784586 C 579.47923,83.50165 580.98369,80.262318 583.99262,78.066581 C 587.00153,75.870922 590.74235,74.773073 595.21508,74.773031 C 598.90167,74.773073 602.05968,75.29489 604.68912,76.338483 C 607.31851,77.382159 609.67685,78.771412 611.76416,80.506247 L 606.51887,86.686736 C 604.83818,85.548257 603.10331,84.613052 601.31425,83.88112 C 599.52514,83.149254 597.49208,82.783304 595.21508,82.78327 C 592.50433,82.783304 590.62036,83.26446 589.56319,84.226739 C 588.50599,85.189084 587.97739,86.40214 587.97741,87.865909 C 587.97739,88.787589 588.37045,89.641472 589.15658,90.427559 C 589.94268,91.2137 591.40648,91.688079 593.54798,91.850697 L 600.54169,92.338631 C 604.90595,92.636837 608.03686,93.985429 609.93441,96.384411 C 611.83189,98.783436 612.78065,101.65004 612.78068,104.98424 C 612.78065,109.13168 611.08644,112.33035 607.69805,114.58026 C 604.30959,116.83017 600.17572,117.95513 595.29641,117.95513 C 588.27558,117.95513 582.08154,115.4477 576.71428,110.43283 L 576.71428,110.43283 z "
     style="font-size:83.2739563px;font-style:normal;font-variant:normal;font-weight:normal;font-stretch:normal;text-align:center;line-height:100%;letter-spacing:3px;writing-mode:lr-tb;text-anchor:middle;fill:black;fill-opacity:1;stroke:none;stroke-width:1px;stroke-linecap:butt;stroke-linejoin:miter;stroke-opacity:1;font-family:DIN 1451 Mittelschrift"
     id="text2024" />
  <path
     d="M 117.3715,194.28587 L 91.71016,194.28587 C 91.710148,197.67562 92.630407,200.21791 94.470939,201.91277 C 96.311442,203.60764 98.661743,204.45508 101.52185,204.45507 C 104.93804,204.45508 107.95702,203.13096 110.57879,200.48272 L 116.57703,205.60705 C 114.53786,207.99046 112.24052,209.69194 109.68502,210.71151 C 107.12945,211.73108 104.46136,212.24086 101.68074,212.24086 C 97.443558,212.24086 93.338807,210.8704 89.366477,208.12949 C 85.394128,205.38857 83.407958,199.78096 83.407961,191.30661 C 83.407958,183.2825 85.241855,177.73447 88.909657,174.66249 C 92.577442,171.59058 96.41075,170.05461 100.40959,170.05457 C 104.93804,170.05461 108.89714,171.62369 112.2869,174.7618 C 115.6766,177.89998 117.37146,182.13053 117.3715,187.45344 L 117.3715,194.28587 z M 91.71016,187.45344 L 109.10903,187.45344 C 108.97658,184.35504 108.10267,181.98487 106.48728,180.34294 C 104.87183,178.70107 102.84594,177.88012 100.40959,177.88009 C 97.946721,177.88012 95.900966,178.70107 94.272321,180.34294 C 92.643648,181.98487 91.789595,184.35504 91.71016,187.45344 L 91.71016,187.45344 z M 131.11066,211.76418 L 131.11066,170.53125 L 139.41285,170.53125 L 139.41285,174.94055 L 139.57175,174.94055 C 142.14051,171.68327 145.71562,170.05461 150.29708,170.05457 C 153.31603,170.05461 156.18936,171.1139 158.91706,173.23245 L 152.91882,180.38266 C 151.118,179.0321 149.29073,178.3568 147.43699,178.35677 C 145.39783,178.3568 143.55069,179.03872 141.89557,180.40253 C 140.24041,181.76639 139.41284,183.9578 139.41285,186.97676 L 139.41285,211.76418 L 131.11066,211.76418 z M 163.16232,204.89203 L 168.96194,199.17185 C 172.56352,202.694 176.89337,204.45508 181.9515,204.45507 C 184.3084,204.45508 186.25485,204.0115 187.79085,203.12433 C 189.32679,202.23719 190.09478,200.91969 190.09481,199.17185 C 190.09478,196.76198 188.41315,195.41138 185.04993,195.12006 L 177.74082,194.44476 C 174.32459,194.17996 171.49099,193.05446 169.24,191.06827 C 166.989,189.08212 165.86351,186.31472 165.86351,182.76607 C 165.86351,178.5819 167.33327,175.41727 170.27281,173.27217 C 173.21233,171.12714 176.86689,170.05461 181.23648,170.05457 C 184.83805,170.05461 187.92323,170.5644 190.49204,171.58392 C 193.06079,172.60353 195.36475,173.96075 197.40392,175.65558 L 192.27959,181.69354 C 190.63766,180.58131 188.9428,179.66767 187.19499,178.95262 C 185.44714,178.23763 183.46097,177.88012 181.23648,177.88009 C 178.58823,177.88012 176.74772,178.35018 175.71492,179.29027 C 174.6821,180.23042 174.1657,181.4155 174.16571,182.84552 C 174.1657,183.74594 174.54969,184.58014 175.31769,185.34809 C 176.08566,186.11611 177.5157,186.57955 179.60782,186.73841 L 186.44025,187.2151 C 190.70387,187.50643 193.76257,188.82392 195.61636,191.16758 C 197.47009,193.51128 198.39697,196.31178 198.397,199.56908 C 198.39697,203.62088 196.74183,206.74579 193.43157,208.94382 C 190.12126,211.14185 186.08271,212.24086 181.31593,212.24086 C 174.457,212.24086 168.4058,209.79125 163.16232,204.89203 L 163.16232,204.89203 z M 212.29506,170.53125 L 212.29506,158.01837 L 220.59726,158.01837 L 220.59726,170.53125 L 226.63522,170.53125 L 226.63522,176.887 L 220.59726,176.887 L 220.59726,200.87996 C 220.59724,202.94559 221.57709,203.97839 223.53679,203.97839 L 226.63522,203.97839 L 226.63522,211.76418 L 222.30537,211.76418 C 219.41878,211.76418 217.02876,210.89027 215.13529,209.14243 C 213.24179,207.39461 212.29505,204.89203 212.29506,201.6347 L 212.29506,176.887 L 208.16382,176.887 L 208.16382,170.53125 L 212.29506,170.53125 z M 264.16356,211.76418 L 264.16356,170.53125 L 272.46576,170.53125 L 272.46576,211.76418 L 264.16356,211.76418 z M 264.16356,162.18933 L 264.16356,153.88713 L 272.46576,153.88713 L 272.46576,162.18933 L 264.16356,162.18933 z M 288.46915,211.76418 L 288.46915,170.53125 L 296.77135,170.53125 L 296.77135,174.94055 L 296.93024,174.94055 C 299.49901,171.68327 303.07411,170.05461 307.65557,170.05457 C 310.8599,170.05461 313.9517,171.2728 316.93099,173.70913 C 319.91021,176.14553 321.39984,179.69416 321.39988,184.35501 L 321.39988,211.76418 L 313.09768,211.76418 L 313.09768,187.2151 C 313.09765,184.43448 312.32304,182.26294 310.77386,180.70045 C 309.22462,179.13803 307.29804,178.3568 304.9941,178.35677 C 302.61067,178.3568 300.64437,179.13803 299.09517,180.70045 C 297.54594,182.26294 296.77133,184.43448 296.77135,187.2151 L 296.77135,211.76418 L 288.46915,211.76418 z M 358.92824,211.76418 L 358.92824,203.97839 L 381.5706,175.65558 C 382.44449,174.54336 383.01386,173.52379 383.27871,172.59687 C 383.5435,171.67003 383.67591,170.76963 383.67594,169.89568 C 383.67591,167.88307 382.96089,166.00945 381.53088,164.27481 C 380.10081,162.54027 378.15436,161.67298 375.69153,161.67293 C 373.44052,161.67298 371.51393,162.4211 369.91177,163.9173 C 368.30958,165.4136 367.4158,167.45935 367.23044,170.05457 L 358.92824,170.05457 C 358.95472,165.36725 360.5569,161.41477 363.73478,158.19713 C 366.91264,154.97958 370.68636,153.37079 375.05596,153.37073 C 379.87571,153.37079 383.89439,154.99282 387.11202,158.23685 C 390.32958,161.48098 391.93838,165.39373 391.93842,169.97512 C 391.93838,173.89454 390.7864,177.28427 388.48248,180.14432 L 369.85219,203.50171 L 391.93842,203.50171 L 391.93842,211.76418 L 358.92824,211.76418 z M 428.08159,195.12006 L 428.08159,170.53125 C 428.08156,167.75066 427.33344,165.57911 425.83722,164.01661 C 424.34094,162.4542 422.37463,161.67298 419.93828,161.67293 C 417.47541,161.67298 415.50249,162.4542 414.01949,164.01661 C 412.53647,165.57911 411.79497,167.75066 411.79498,170.53125 L 411.79498,195.12006 C 411.79497,197.9272 412.53647,200.10536 414.01949,201.65457 C 415.50249,203.20379 417.47541,203.97839 419.93828,203.97839 C 422.37463,203.97839 424.34094,203.20379 425.83722,201.65457 C 427.33344,200.10536 428.08156,197.9272 428.08159,195.12006 L 428.08159,195.12006 z M 403.49278,195.59674 L 403.49278,170.05457 C 403.49278,164.73168 405.16116,160.62031 408.49793,157.72044 C 411.83469,154.82069 415.64814,153.37079 419.93828,153.37073 C 424.20191,153.37079 428.00874,154.82069 431.35877,157.72044 C 434.70875,160.62031 436.38375,164.73168 436.38379,170.05457 L 436.38379,195.59674 C 436.38375,200.91969 434.70875,205.02444 431.35877,207.91101 C 428.00874,210.79758 424.20191,212.24086 419.93828,212.24086 C 415.64814,212.24086 411.83469,210.79758 408.49793,207.91101 C 405.16116,205.02444 403.49278,200.91969 403.49278,195.59674 L 403.49278,195.59674 z M 472.16945,195.12006 L 472.16945,170.53125 C 472.16942,167.75066 471.4213,165.57911 469.92508,164.01661 C 468.4288,162.4542 466.46249,161.67298 464.02614,161.67293 C 461.56327,161.67298 459.59035,162.4542 458.10735,164.01661 C 456.62433,165.57911 455.88283,167.75066 455.88284,170.53125 L 455.88284,195.12006 C 455.88283,197.9272 456.62433,200.10536 458.10735,201.65457 C 459.59035,203.20379 461.56327,203.97839 464.02614,203.97839 C 466.46249,203.97839 468.4288,203.20379 469.92508,201.65457 C 471.4213,200.10536 472.16942,197.9272 472.16945,195.12006 L 472.16945,195.12006 z M 447.58064,195.59674 L 447.58064,170.05457 C 447.58064,164.73168 449.24902,160.62031 452.58579,157.72044 C 455.92255,154.82069 459.736,153.37079 464.02614,153.37073 C 468.28977,153.37079 472.0966,154.82069 475.44663,157.72044 C 478.79661,160.62031 480.47161,164.73168 480.47165,170.05457 L 480.47165,195.59674 C 480.47161,200.91969 478.79661,205.02444 475.44663,207.91101 C 472.0966,210.79758 468.28977,212.24086 464.02614,212.24086 C 459.736,212.24086 455.92255,210.79758 452.58579,207.91101 C 449.24902,205.02444 447.58064,200.91969 447.58064,195.59674 L 447.58064,195.59674 z M 518.99306,211.76418 L 518.99306,170.53125 L 527.29526,170.53125 L 527.29526,174.94055 L 527.45415,174.94055 C 530.07588,171.68327 533.65099,170.05461 538.17948,170.05457 C 541.06602,170.05461 543.35674,170.57102 545.05163,171.60379 C 546.74647,172.63663 548.3354,173.90778 549.81844,175.41724 C 553.07573,171.84217 557.41882,170.05461 562.84773,170.05457 C 566.05204,170.05461 569.14384,171.2728 572.12315,173.70913 C 575.10235,176.14553 576.59198,179.69416 576.59204,184.35501 L 576.59204,211.76418 L 568.28984,211.76418 L 568.28984,187.2151 C 568.28979,184.43448 567.50856,182.26294 565.94616,180.70045 C 564.38365,179.13803 562.45045,178.3568 560.14654,178.35677 C 557.76309,178.3568 555.79678,179.13803 554.24761,180.70045 C 552.69835,182.26294 551.92375,184.43448 551.92379,187.2151 L 551.92379,211.76418 L 543.66131,211.76418 L 543.66131,187.2151 C 543.66128,184.43448 542.88005,182.26294 541.31763,180.70045 C 539.75515,179.13803 537.82194,178.3568 535.51801,178.35677 C 533.13458,178.3568 531.16827,179.13803 529.61908,180.70045 C 528.06985,182.26294 527.29524,184.43448 527.29526,187.2151 L 527.29526,211.76418 L 518.99306,211.76418 z "
     style="font-size:81.35359955px;font-style:normal;font-variant:normal;font-weight:normal;font-stretch:normal;text-align:center;line-height:100%;letter-spacing:5px;writing-mode:lr-tb;text-anchor:middle;fill:black;fill-opacity:1;stroke:none;stroke-width:1px;stroke-linecap:butt;stroke-linejoin:miter;stroke-opacity:1;font-family:DIN 1451 Mittelschrift"
     id="text2058" />
  <path
     d="M 19.04309,41.337765 L 19.04309,226.19744 C 19.04309,237.18983 25.281069,242.21861 34.81326,242.21861 L 627.15802,242.21861 C 636.01003,242.21861 640.95691,236.80037 640.95691,227.42983 L 640.95691,43.186362 C 640.95691,35.413689 632.95934,27.781388 622.55839,27.781388 L 32.1849,27.781388 C 23.91295,27.781388 19.04309,33.253648 19.04309,41.337765 z "
     style="fill:none;fill-opacity:1;fill-rule:evenodd;stroke:black;stroke-width:8;stroke-linecap:butt;stroke-linejoin:miter;stroke-miterlimit:4;stroke-dasharray:none;stroke-opacity:1"
     id="path1872" />
</svg>
