<?xml version="1.0" encoding="UTF-8" standalone="no"?>
<!-- Created with Inkscape (http://www.inkscape.org/) -->

<svg
   xmlns:dc="http://purl.org/dc/elements/1.1/"
   xmlns:cc="http://creativecommons.org/ns#"
   xmlns:rdf="http://www.w3.org/1999/02/22-rdf-syntax-ns#"
   xmlns:svg="http://www.w3.org/2000/svg"
   xmlns="http://www.w3.org/2000/svg"
   xmlns:sodipodi="http://sodipodi.sourceforge.net/DTD/sodipodi-0.dtd"
   xmlns:inkscape="http://www.inkscape.org/namespaces/inkscape"
   version="1.0"
   width="490"
   height="360"
   id="svg2"
   sodipodi:version="0.32"
   inkscape:version="0.48.0 r9654"
   sodipodi:docname="Zusatzzeichen_1048-15.svg">
  <metadata
     id="metadata10">
    <rdf:RDF>
      <cc:Work
         rdf:about="">
        <dc:format>image/svg+xml</dc:format>
        <dc:type
           rdf:resource="http://purl.org/dc/dcmitype/StillImage" />
        <dc:title></dc:title>
      </cc:Work>
    </rdf:RDF>
  </metadata>
  <sodipodi:namedview
     inkscape:window-height="688"
     inkscape:window-width="1024"
     inkscape:pageshadow="2"
     inkscape:pageopacity="0.0"
     guidetolerance="10.0"
     gridtolerance="10.0"
     objecttolerance="10.0"
     borderopacity="1.0"
     bordercolor="#666666"
     pagecolor="#ffffff"
     id="base"
     inkscape:zoom="1.0470983"
     inkscape:cx="247.21504"
     inkscape:cy="183.05811"
     inkscape:window-x="-8"
     inkscape:window-y="-8"
     inkscape:current-layer="svg2"
     showgrid="false"
     inkscape:window-maximized="1" />
  <defs
     id="defs4">
    <inkscape:perspective
       sodipodi:type="inkscape:persp3d"
       inkscape:vp_x="0 : 180 : 1"
       inkscape:vp_y="0 : 1000 : 0"
       inkscape:vp_z="490 : 180 : 1"
       inkscape:persp3d-origin="245 : 120 : 1"
       id="perspective17" />
    <inkscape:perspective
       id="perspective3896"
       inkscape:persp3d-origin="0.5 : 0.33333333 : 1"
       inkscape:vp_z="1 : 0.5 : 1"
       inkscape:vp_y="0 : 1000 : 0"
       inkscape:vp_x="0 : 0.5 : 1"
       sodipodi:type="inkscape:persp3d" />
  </defs>
  <path
     d="m 54.274624,16.679932 c -17.296097,0 -27.048093,9.094823 -27.048093,35.965974 l -0.29335,259.488734 c 0,26.8711 9.751999,35.96599 27.048093,35.96599 l 387.474156,-0.0408 c 17.29612,0 27.04812,-9.09486 27.04812,-35.96595 l 0.29339,-259.409114 c 0,-26.871113 -9.75204,-35.965936 -27.04812,-35.965936 L 54.274642,16.678306 z"
     style="fill:#ffffff;fill-opacity:1;fill-rule:evenodd;stroke:#000000;stroke-width:2;stroke-linecap:butt;stroke-linejoin:miter;stroke-miterlimit:4;stroke-opacity:1;stroke-dasharray:none"
     id="path1881" />
  <path
     d="m 443.42101,33.009986 -391.023906,0.0406 c -7.908371,0 -12.55595,7.64854 -12.55595,18.95878 l 0,260.842974 c -3e-6,11.31023 4.647586,18.95878 12.55595,18.95878 l 390.994566,-0.0408 c 7.90834,0 12.55592,-7.64855 12.55592,-18.95878 l 0,-260.842974 c 0,-11.31024 -4.61824,-18.95878 -12.52658,-18.95878 z"
     style="fill:none;stroke:#000000;stroke-width:10.05090809;stroke-linecap:butt;stroke-linejoin:miter;stroke-miterlimit:4;stroke-opacity:1;stroke-dasharray:none"
     id="path3976" />
  <g
     id="layer1-0"
     inkscape:label="Ebene 1"
     transform="matrix(0.58915545,0,0,0.58915545,114.60113,95.847326)">
    <g
       id="g2285"
       transform="matrix(1.678818,0,0,1.678818,-1258.525,-55.28905)">
      <path
         id="path2251"
         style="fill:#000000;fill-opacity:1;fill-rule:evenodd;stroke:none"
         d="m 1009.2409,214.27547 -230.73056,0 c -10.88177,0 -23.86383,-17.09207 -23.86383,-28.22593 -0.23894,-18.82744 0.66609,-37.08291 1.27077,-55.48854 2.92892,-20.97694 10.98875,-40.169227 18.98277,-59.384399 1.96013,-4.016129 4.31607,-7.940393 9.10512,-7.940393 l 83.60842,0 c 7.5939,3.421568 15.80504,6.030967 19.26307,14.894465 23.99518,59.058037 71.40444,87.285567 125.76884,97.246147 l 0.043,35.75598 c 0,1.41179 -1.9558,3.14267 -3.4471,3.14267 z"
         inkscape:connector-curvature="0" />
      <path
         id="path2253"
         style="fill:#000000;fill-opacity:1;fill-rule:evenodd;stroke:none"
         d="m 793.875,37.03125 c -3.15327,0 -3.05677,6.124999 0,6.125 l 13.59375,0 c 11.49238,4.643428 18.27652,11.247123 21.4375,20.125 l 5.21875,0 0,-0.03125 5.15625,0 c 3.16087,-8.87758 9.94583,-15.450348 21.4375,-20.09375 l 13.28125,0 c 3.27802,0 2.78185,-6.125 0,-6.125 l -80.125,0 z m 27.65625,6.125 25.0625,0 c -5.40309,4.550456 -11.25001,9.178524 -11.25,16.28125 l -1.21875,0 -1.28125,0 c -3e-5,-7.12497 -5.89533,-11.716901 -11.3125,-16.28125 z"
         inkscape:connector-curvature="0" />
      <path
         id="path2260"
         style="fill:#ffffff;fill-opacity:1;fill-rule:evenodd;stroke:none"
         d="m 770.43133,114.13629 105.08867,0 c 2.55188,0 3.5033,-5.27291 2.29594,-8.56855 -3.79388,-10.141247 -8.42321,-29.963959 -13.68055,-29.963959 l -80.78691,0 c -4.37772,0 -10.21696,20.141993 -15.32544,30.212989 -1.01476,4.00281 -0.01,8.31952 2.40829,8.31952 z"
         inkscape:connector-curvature="0" />
      <path
         id="path2265"
         style="fill:#ffffff;fill-opacity:1;fill-rule:nonzero;stroke:none"
         transform="translate(1.548102,-0.619241)"
         d="m 787.9841,164.9391 c 0,5.30096 -4.29728,9.59823 -9.59823,9.59823 -5.30096,0 -9.59824,-4.29727 -9.59824,-9.59823 0,-5.30096 4.29728,-9.59823 9.59824,-9.59823 5.30095,0 9.59823,4.29727 9.59823,9.59823 z"
         inkscape:connector-curvature="0" />
      <path
         id="path2267"
         style="fill:#ffffff;fill-opacity:1;fill-rule:nonzero;stroke:none"
         transform="translate(80.81094,-0.619236)"
         d="m 787.9841,164.9391 c 0,5.30096 -4.29728,9.59823 -9.59823,9.59823 -5.30096,0 -9.59824,-4.29727 -9.59824,-9.59823 0,-5.30096 4.29728,-9.59823 9.59824,-9.59823 5.30095,0 9.59823,4.29727 9.59823,9.59823 z"
         inkscape:connector-curvature="0" />
      <path
         id="path2271"
         style="fill:#ffffff;fill-opacity:1;fill-rule:evenodd;stroke:none"
         d="m 913.61464,136.35817 0,34.92009 -15.98223,-7.33431 c -1.52003,-14.73681 -1.66076,-29.74949 -1.75148,-44.77216 5.91073,5.73015 12.25344,13.59236 17.73371,17.18638 z"
         inkscape:connector-curvature="0" />
      <path
         id="path2273"
         style="fill:#ffffff;fill-opacity:1;fill-rule:evenodd;stroke:none"
         d="m 937.80693,155.40549 0.23316,26.87602 -15.28274,-6.40167 c -0.35423,-14.73681 0.0879,-16.3427 -0.003,-31.36537 6.61021,5.61357 9.33892,6.7141 15.05235,10.89102 z"
         inkscape:connector-curvature="0" />
      <path
         id="path2275"
         style="fill:#ffffff;fill-opacity:1;fill-rule:evenodd;stroke:none"
         d="m 945.69493,160.17743 0,23.9886 c 4.3782,2.35401 9.44507,3.60614 14.92074,4.20419 l 0,-22.09259 -14.92074,-6.1002 z"
         inkscape:connector-curvature="0" />
      <path
         id="path2277"
         style="fill:#ffffff;fill-opacity:1;fill-rule:evenodd;stroke:none"
         d="m 966.7983,169.24529 0,20.9385 c 3.82755,1.49043 7.82489,1.96215 11.87065,2.14331 l 0,-20.03172 -11.87065,-3.05009 z"
         inkscape:connector-curvature="0" />
      <path
         id="path2279"
         style="fill:#ffffff;fill-opacity:1;fill-rule:evenodd;stroke:none"
         d="m 984.76914,174.35626 0,18.79519 c 3.14347,0.87957 6.36448,1.37145 9.72734,1.15409 l 0,-18.05327 -9.72734,-1.89601 z"
         inkscape:connector-curvature="0" />
      <path
         id="path2281"
         style="fill:#ffffff;fill-opacity:1;fill-rule:evenodd;stroke:none"
         d="m 999.68988,177.24149 0,17.80597 7.83132,1.31896 0,-18.05328 -7.83132,-1.07165 z"
         inkscape:connector-curvature="0" />
      <path
         id="path2283"
         style="fill:#000000;fill-opacity:1;fill-rule:evenodd;stroke:none"
         d="m 754.65511,229.21337 19.9344,0 0,-9.98268 30.03612,0 0,9.86245 44.00544,0 0,-9.89221 164.10583,0 0,10.0422 c -46.24366,1.68928 -93.35267,3.00769 -117.82197,14.02884 l -140.28958,0 0.0298,-14.0586 z"
         inkscape:connector-curvature="0" />
    </g>
  </g>
</svg>
