<?xml version="1.0" encoding="UTF-8" standalone="no"?>
<!-- Created with Inkscape (http://www.inkscape.org/) -->
<svg
   xmlns:svg="http://www.w3.org/2000/svg"
   xmlns="http://www.w3.org/2000/svg"
   version="1.0"
   width="490"
   height="270"
   id="svg2">
  <defs
     id="defs4" />
  <path
     d="M 38.78125,4.984375 C 20.356889,4.9843748 9.96875,12.12016 9.96875,33.203125 L 9.65625,236.79688 C 9.65625,257.87984 20.044391,265.01563 38.46875,265.01563 L 451.21875,264.98438 C 469.64311,264.98438 480.03124,257.84859 480.03125,236.76563 L 480.34375,33.234375 C 480.34375,12.15141 469.95561,5.0156248 451.53125,5.015625 L 38.78125,4.984375 z "
     style="fill:white;fill-opacity:1;fill-rule:evenodd;stroke:black;stroke-width:2;stroke-linecap:butt;stroke-linejoin:miter;stroke-miterlimit:4;stroke-dasharray:none;stroke-opacity:1"
     id="path1881" />
  <path
     d="M 453.3125,17.796875 L 36.78125,17.828125 C 28.356999,17.828125 23.40625,23.829135 23.40625,32.703125 L 23.40625,237.35938 C 23.406249,246.23335 28.35701,252.23438 36.78125,252.23438 L 453.28125,252.20313 C 461.70549,252.20312 466.65625,246.20211 466.65625,237.32813 L 466.65625,32.671875 C 466.65625,23.797885 461.73674,17.796875 453.3125,17.796875 z "
     style="fill:none;fill-opacity:1;fill-rule:evenodd;stroke:black;stroke-width:10.05090809;stroke-linecap:butt;stroke-linejoin:miter;stroke-miterlimit:4;stroke-dasharray:none;stroke-opacity:1"
     id="path3976" />
  <path
     d="M 80.239381,108.66835 L 80.239381,158.97358 L 204.11877,158.97358 L 204.11877,108.66835 L 80.239381,108.66835 z "
     style="fill:white;fill-opacity:1;fill-rule:evenodd;stroke:none;stroke-width:1px;stroke-linecap:butt;stroke-linejoin:miter;stroke-opacity:1"
     id="path20922" />
  <g
     transform="matrix(0.956196,0,0,0.956196,20.29394,17.50934)"
     id="g1877">
    <path
       d="M 92.192458,107.26285 L 81.888473,72.789614 L 81.698538,72.789614 L 71.394553,107.26285 L 62.657534,107.26285 L 46.892911,57.974668 L 57.386832,57.974668 L 66.836108,92.495392 L 67.026043,92.495392 L 78.184737,57.974668 L 85.402275,57.974668 L 96.560968,92.495392 L 96.750903,92.495392 L 106.20018,57.974668 L 116.6941,57.974668 L 100.92948,107.26285 L 92.192458,107.26285 z M 161.56629,86.369981 L 130.89175,86.369981 C 130.89174,90.421949 131.99178,93.460909 134.19188,95.486871 C 136.39194,97.512856 139.2014,98.525843 142.62025,98.525834 C 146.70383,98.525843 150.3126,96.943051 153.44656,93.777454 L 160.61661,99.902865 C 158.17907,102.7519 155.43293,104.78578 152.37817,106.00453 C 149.32335,107.22328 146.13403,107.83266 142.81019,107.83266 C 137.74523,107.83266 132.83857,106.19447 128.09021,102.91809 C 123.34182,99.641711 120.96764,92.938588 120.96764,82.808696 C 120.96764,73.217002 123.1598,66.585104 127.54415,62.912983 C 131.92847,59.24095 136.51065,57.404912 141.29071,57.404862 C 146.70383,57.404912 151.43638,59.28052 155.48836,63.031693 C 159.54027,66.782953 161.56625,71.839973 161.56629,78.202767 L 161.56629,86.369981 z M 130.89175,78.202767 L 151.68966,78.202767 C 151.53135,74.499063 150.4867,71.665866 148.55573,69.703167 C 146.62469,67.740542 144.20302,66.759211 141.29071,66.759171 C 138.34669,66.759211 135.90128,67.740542 133.95446,69.703167 C 132.00761,71.665866 130.98671,74.499063 130.89175,78.202767 L 130.89175,78.202767 z M 172.01273,107.26285 L 172.01273,57.974668 L 181.93684,57.974668 L 181.93684,63.24537 L 182.12678,63.24537 C 185.19738,59.351746 189.47091,57.404912 194.9474,57.404862 C 198.55614,57.404912 201.9908,58.671145 205.25139,61.203566 L 198.08133,69.750651 C 195.9287,68.13624 193.74445,67.329017 191.52857,67.328977 C 189.09104,67.329017 186.88305,68.144154 184.90458,69.774392 C 182.92607,71.404705 181.93682,74.024226 181.93684,77.632962 L 181.93684,107.26285 L 172.01273,107.26285 z M 209.80984,107.26285 L 209.80984,38.078955 L 219.73395,38.078955 L 219.73395,81.146763 L 219.92389,81.146763 L 238.86992,57.974668 L 250.74088,57.974668 L 233.74167,77.253091 L 253.06758,107.26285 L 240.62683,107.26285 L 227.5213,84.23321 L 219.73395,93.112681 L 219.73395,107.26285 L 209.80984,107.26285 z M 260.90241,57.974668 L 260.90241,43.01727 L 270.82652,43.01727 L 270.82652,57.974668 L 278.04406,57.974668 L 278.04406,65.572076 L 270.82652,65.572076 L 270.82652,94.252292 C 270.82651,96.72146 271.99777,97.956038 274.34033,97.956029 L 278.04406,97.956029 L 278.04406,107.26285 L 272.86833,107.26285 C 269.41782,107.26285 266.56088,106.21821 264.2975,104.12892 C 262.0341,102.03964 260.9024,99.048164 260.90241,95.154485 L 260.90241,65.572076 L 255.96409,65.572076 L 255.96409,57.974668 L 260.90241,57.974668 z M 313.18207,107.26285 L 313.18207,102.89434 L 312.94465,102.89434 C 310.9503,106.18656 306.89835,107.83266 300.7888,107.83266 C 295.28066,107.83266 291.00713,106.40023 287.96817,103.53538 C 284.9292,100.67053 283.40972,97.085503 283.40973,92.780294 C 283.40972,88.886641 284.7551,85.483639 287.44585,82.571277 C 290.13659,79.658965 294.14105,78.202796 299.45925,78.202767 L 313.18207,78.202767 L 313.18207,73.074517 C 313.18204,68.864325 309.81069,66.759211 303.06802,66.759171 C 298.38293,66.759211 295.26484,68.009617 293.71371,70.510391 L 285.92637,64.6224 C 289.37685,59.810755 294.91662,57.404912 302.5457,57.404862 C 308.6236,57.404912 313.56191,58.592006 317.36065,60.966147 C 321.15931,63.340381 323.05866,67.566435 323.0587,73.644322 L 323.0587,107.26285 L 313.18207,107.26285 z M 313.18207,89.97875 L 313.18207,86.369981 L 301.31112,86.369981 C 295.58139,86.370002 292.71654,88.348492 292.71655,92.305456 C 292.71654,93.983231 293.43671,95.439399 294.87707,96.673966 C 296.31739,97.908554 298.71532,98.525843 302.07086,98.525834 C 306.1861,98.525843 309.06678,98.066834 310.71291,97.148804 C 312.35899,96.230795 313.18204,93.840779 313.18207,89.97875 L 313.18207,89.97875 z M 363.60988,107.21537 L 363.60988,102.1346 C 360.15936,105.93331 355.91748,107.83266 350.88422,107.83266 C 347.65531,107.83266 344.95665,107.19163 342.78824,105.90957 C 340.6198,104.62751 338.98161,103.27422 337.87366,101.8497 C 336.44914,100.01367 335.47572,98.066834 334.95341,96.009193 C 334.43108,93.951575 334.16992,89.50393 334.16993,82.666245 C 334.16992,75.828609 334.43108,71.380964 334.95341,69.323296 C 335.47572,67.265705 336.44914,65.303043 337.87366,63.435305 C 338.98161,62.042492 340.6198,60.689205 342.78824,59.37544 C 344.95665,58.06177 347.65531,57.404912 350.88422,57.404862 C 355.69589,57.404912 359.93777,59.351746 363.60988,63.24537 L 363.60988,57.974668 L 373.534,57.974668 L 373.534,106.12324 C 373.53395,113.53071 371.37344,118.99134 367.05246,122.50515 C 362.7314,126.01894 357.76935,127.77584 352.16629,127.77586 C 349.00068,127.77584 345.89841,127.0161 342.85946,125.49663 C 339.82049,123.97714 337.20888,121.98282 335.02463,119.51367 L 342.71701,113.38826 C 343.91992,114.59118 345.35235,115.63582 347.01429,116.5222 C 348.67621,117.40855 350.45685,117.85173 352.35622,117.85174 C 355.64841,117.85173 358.34707,116.93371 360.45221,115.09768 C 362.55729,113.26163 363.60985,110.6342 363.60988,107.21537 L 363.60988,107.21537 z M 344.09404,82.666245 C 344.09403,86.623249 344.19691,89.250683 344.40269,90.548556 C 344.60843,91.846462 345.1545,93.049383 346.04088,94.157325 C 346.70563,95.043701 347.68696,95.898409 348.98487,96.72145 C 350.28274,97.544512 351.92885,97.956038 353.92319,97.956029 C 355.85417,97.956038 357.4607,97.544512 358.74279,96.72145 C 360.02483,95.898409 361.01407,95.043701 361.71053,94.157325 C 362.56521,93.049383 363.09544,91.846462 363.30124,90.548556 C 363.50697,89.250683 363.60985,86.623249 363.60988,82.666245 C 363.60985,78.70929 363.50697,76.081855 363.30124,74.783934 C 363.09544,73.486077 362.56521,72.267327 361.71053,71.127681 C 361.01407,70.273009 360.02483,69.426216 358.74279,68.587297 C 357.4607,67.748456 355.85417,67.329017 353.92319,67.328977 C 351.92885,67.329017 350.28274,67.748456 348.98487,68.587297 C 347.68696,69.426216 346.70563,70.273009 346.04088,71.127681 C 345.1545,72.267327 344.60843,73.486077 344.40269,74.783934 C 344.19691,76.081855 344.09403,78.70929 344.09404,82.666245 L 344.09404,82.666245 z M 380.98896,99.048156 L 387.92159,92.210489 C 392.22678,96.42073 397.40251,98.525843 403.44879,98.525834 C 406.26614,98.525843 408.59284,97.995608 410.42891,96.935127 C 412.26492,95.874667 413.18294,94.299789 413.18297,92.210489 C 413.18294,89.329823 411.17279,87.715375 407.15253,87.367141 L 398.41551,86.559916 C 394.33189,86.243379 390.94472,84.898006 388.25398,82.523793 C 385.56322,80.14963 384.21785,76.841595 384.21785,72.599679 C 384.21785,67.598091 385.97475,63.815219 389.48856,61.25105 C 393.00234,58.686973 397.37085,57.404912 402.59409,57.404862 C 406.89926,57.404912 410.58716,58.014287 413.65781,59.232988 C 416.72839,60.451786 419.48245,62.074148 421.91999,64.100078 L 415.79458,71.317616 C 413.83189,69.988107 411.80591,68.89598 409.71666,68.041234 C 407.62734,67.186565 405.25315,66.759211 402.59409,66.759171 C 399.42848,66.759211 397.2284,67.321103 395.99384,68.444846 C 394.75924,69.568667 394.14195,70.985266 394.14197,72.694646 C 394.14195,73.770979 394.60096,74.768138 395.519,75.686126 C 396.437,76.604177 398.14642,77.158154 400.64725,77.348059 L 408.81446,77.917864 C 413.91102,78.266108 417.56727,79.840986 419.78322,82.642503 C 421.99909,85.444069 423.10705,88.791673 423.10709,92.685327 C 423.10705,97.528684 421.12856,101.26407 417.17161,103.8915 C 413.2146,106.51894 408.38708,107.83266 402.68905,107.83266 C 394.49017,107.83266 387.25681,104.90449 380.98896,99.048156 L 380.98896,99.048156 z "
       style="font-size:97.24682617px;font-style:normal;font-variant:normal;font-weight:normal;font-stretch:normal;text-align:center;line-height:100%;writing-mode:lr-tb;text-anchor:middle;fill:black;fill-opacity:1;stroke:none;stroke-width:1px;stroke-linecap:butt;stroke-linejoin:miter;stroke-opacity:1;font-family:DIN 1451 Mittelschrift"
       id="text2817" />
    <g
       transform="translate(-4.282298,0)"
       id="g3976">
      <path
         d="M 134.0046,207.04916 L 134.0046,148.77814 L 124.24101,156.07339 L 124.24101,145.69507 L 134.0046,138.50019 L 143.76505,138.50019 L 143.76505,207.04916 L 134.0046,207.04916 z M 186.8873,192.9699 C 186.88727,195.0253 186.37342,197.18365 185.34576,199.44498 C 184.31804,201.70633 182.63903,203.642 180.30872,205.25201 C 177.97835,206.86203 175.44363,207.66703 172.70453,207.66703 C 169.7584,207.66703 167.0517,206.91325 164.58442,205.40569 C 162.11711,203.89814 160.4381,202.2024 159.54737,200.31847 C 158.65663,198.43455 158.10881,196.87576 157.9039,195.64211 C 157.69899,194.40847 157.59653,193.14033 157.59653,191.83766 L 157.59653,179.81274 C 157.59653,177.96439 158.02465,176.30367 158.88089,174.83058 C 159.73712,173.35755 160.95351,172.0387 162.53008,170.87402 C 159.24104,168.40677 157.59653,165.01528 157.59653,160.69957 L 157.59653,151.45035 C 157.59653,150.14776 157.85319,148.82838 158.36652,147.49222 C 158.87984,146.15618 160.11296,144.2205 162.06589,141.68519 C 164.01881,139.15001 167.49602,137.88239 172.49753,137.88232 C 174.41698,137.88239 176.23295,138.27653 177.94544,139.06474 C 179.65789,139.85308 181.57631,141.36064 183.70072,143.58741 C 185.82507,145.81431 186.88727,148.81165 186.8873,152.57945 L 186.8873,161.4178 C 186.88727,165.3927 185.24275,168.54477 181.95375,170.87402 C 185.24275,173.13435 186.88727,176.35437 186.8873,180.53411 L 186.8873,192.9699 z M 172.29367,147.6459 C 170.85509,147.64596 169.65595,148.12583 168.69623,149.08551 C 167.73648,150.0453 167.25661,151.20995 167.25662,152.57945 L 167.25662,161.4178 C 167.25661,162.9944 167.68473,164.34776 168.54097,165.47786 C 169.39719,166.60805 170.61359,167.17312 172.19017,167.17308 C 173.90262,167.17312 175.15299,166.64202 175.94129,165.57979 C 176.72955,164.51764 177.12369,163.13031 177.12371,161.4178 L 177.12371,152.57945 C 177.12369,151.27686 176.66107,150.12894 175.73586,149.13569 C 174.8106,148.14256 173.66321,147.64596 172.29367,147.6459 L 172.29367,147.6459 z M 172.29367,174.57183 C 170.78609,174.57186 169.5697,175.06898 168.64447,176.06318 C 167.71923,177.05745 167.25661,178.3073 167.25662,179.81274 L 167.25662,191.83766 C 167.25661,193.61915 167.66748,195.05823 168.48922,196.15491 C 169.31094,197.25161 170.64704,197.79995 172.49753,197.79994 C 174.27898,197.79995 175.49538,197.21763 176.14672,196.05297 C 176.79803,194.88834 177.12369,193.48324 177.12371,191.83766 L 177.12371,179.81274 C 177.12369,178.3073 176.69557,177.05745 175.83936,176.06318 C 174.9831,175.06898 173.80121,174.57186 172.29367,174.57183 L 172.29367,174.57183 z M 195.7821,184.95328 L 195.7821,175.1897 L 225.07287,175.1897 L 225.07287,184.95328 L 195.7821,184.95328 z M 246.01142,207.04916 L 246.01142,148.77814 L 236.24783,156.07339 L 236.24783,145.69507 L 246.01142,138.50019 L 255.77187,138.50019 L 255.77187,207.04916 L 246.01142,207.04916 z M 270.62896,172.41399 C 270.15014,171.45429 269.8595,170.5463 269.75705,169.69003 C 269.65459,168.83384 269.60336,167.54949 269.60336,165.83698 L 269.60336,151.86121 C 269.60336,150.48962 269.86002,149.153 270.37335,147.85134 C 270.88667,146.5498 272.08581,144.56289 273.97079,141.89063 C 275.85575,139.21849 279.22998,137.88239 284.09349,137.88232 C 288.68515,137.88239 292.29984,139.44117 294.93757,142.55868 C 297.57524,145.67631 298.89409,149.22252 298.89413,153.19732 L 298.89413,164.39737 C 298.89409,167.00062 298.34523,169.67282 297.24752,172.41399 L 284.3005,207.04916 L 273.2008,207.04916 L 284.60786,178.16927 C 282.82637,178.58121 281.45577,178.78717 280.49605,178.78714 C 278.37166,178.78717 276.40201,178.18759 274.58709,176.98842 C 272.77216,175.7893 271.45278,174.26449 270.62896,172.41399 L 270.62896,172.41399 z M 284.40086,147.5424 C 282.75737,147.54246 281.52477,148.09081 280.70305,149.18744 C 279.88131,150.28419 279.47044,151.62081 279.47045,153.19732 L 279.47045,164.39737 C 279.47044,166.10988 279.91581,167.51446 280.80655,168.61111 C 281.69727,169.70784 282.99888,170.25619 284.71136,170.25615 C 286.2189,170.25619 287.33232,169.72509 288.05162,168.66287 C 288.77088,167.60071 289.13052,166.17888 289.13054,164.39737 L 289.13054,153.19732 C 289.13052,151.48281 288.77088,150.11169 288.05162,149.08394 C 287.33232,148.05631 286.1154,147.54246 284.40086,147.5424 L 284.40086,147.5424 z M 344.35298,157.51299 C 346.13442,157.51304 347.81344,157.99239 349.39002,158.95103 C 350.96655,159.90977 352.09722,161.02318 352.78203,162.29129 C 353.46678,163.55948 353.89489,164.63892 354.06638,165.52961 C 354.2378,166.42039 354.32353,167.58503 354.32357,169.02355 L 354.32357,207.04916 L 344.45648,207.04916 L 344.45648,172.72136 C 344.45645,171.07792 344.07956,169.74234 343.32581,168.71462 C 342.57201,167.68696 341.37338,167.17312 339.72994,167.17308 C 338.29136,167.17312 337.10946,167.73819 336.18424,168.8683 C 335.25899,169.99848 334.79638,171.28283 334.79639,172.72136 L 334.79639,207.04916 L 324.9293,207.04916 L 324.9293,138.50019 L 334.79639,138.50019 L 334.79639,162.8574 C 337.05667,159.29451 340.24219,157.51304 344.35298,157.51299 L 344.35298,157.51299 z "
         style="font-size:102.77328491px;font-style:normal;font-variant:normal;font-weight:normal;font-stretch:normal;text-align:center;line-height:100%;writing-mode:lr-tb;text-anchor:middle;fill:black;fill-opacity:1;stroke:none;stroke-width:1px;stroke-linecap:butt;stroke-linejoin:miter;stroke-opacity:1;font-family:DIN 1451 Engschrift"
         id="text3966" />
    </g>
  </g>
</svg>
