<?xml version="1.0" encoding="UTF-8" standalone="no"?>
<!-- Created with Inkscape (http://www.inkscape.org/) -->
<svg
   xmlns:dc="http://purl.org/dc/elements/1.1/"
   xmlns:cc="http://web.resource.org/cc/"
   xmlns:rdf="http://www.w3.org/1999/02/22-rdf-syntax-ns#"
   xmlns:svg="http://www.w3.org/2000/svg"
   xmlns="http://www.w3.org/2000/svg"
   xmlns:sodipodi="http://sodipodi.sourceforge.net/DTD/sodipodi-0.dtd"
   xmlns:inkscape="http://www.inkscape.org/namespaces/inkscape"
   version="1.0"
   width="490"
   height="360"
   id="svg2"
   sodipodi:version="0.32"
   inkscape:version="0.44"
   sodipodi:docname="Zusatzzeichen 1004-31.svg"
   sodipodi:docbase="C:\Dokumente und Einstellungen\Internet\Desktop\Wiki\SVG sonstiges (fertig)">
  <metadata
     id="metadata11">
    <rdf:RDF>
      <cc:Work
         rdf:about="">
        <dc:format>image/svg+xml</dc:format>
        <dc:type
           rdf:resource="http://purl.org/dc/dcmitype/StillImage" />
      </cc:Work>
    </rdf:RDF>
  </metadata>
  <sodipodi:namedview
     inkscape:window-height="749"
     inkscape:window-width="1024"
     inkscape:pageshadow="2"
     inkscape:pageopacity="0.0"
     guidetolerance="10.0"
     gridtolerance="10.0"
     objecttolerance="10.0"
     borderopacity="1.0"
     bordercolor="#666666"
     pagecolor="#ffffff"
     id="base"
     inkscape:zoom="1.05"
     inkscape:cx="245"
     inkscape:cy="180"
     inkscape:window-x="-4"
     inkscape:window-y="-4"
     inkscape:current-layer="svg2" />
  <defs
     id="defs4" />
  <path
     sodipodi:nodetypes="ccccccccc"
     d="M 38.774314,2.2764824 C 20.349334,2.2764725 9.9608448,11.800443 9.9608448,39.939406 L 9.6483342,320.06059 C 9.6483342,348.19954 20.036823,357.72352 38.461803,357.72352 L 451.22569,357.6818 C 469.65066,357.6818 480.03915,348.15783 480.03916,320.01889 L 480.35167,39.981111 C 480.35167,11.842158 469.96317,2.3181773 451.5382,2.3181971 L 38.774314,2.2764824 z "
     style="fill:white;fill-opacity:1;fill-rule:evenodd;stroke:black;stroke-width:2.98416758;stroke-linecap:butt;stroke-linejoin:miter;stroke-miterlimit:4;stroke-dasharray:none;stroke-opacity:1"
     id="path1881" />
  <path
     sodipodi:nodetypes="ccccccccc"
     d="M 453.23342,15.483526 L 36.797822,15.526436 C 28.375507,15.526436 23.425893,23.764976 23.425893,35.947756 L 23.425893,324.09514 C 23.425893,336.27788 28.375517,344.51647 36.797822,344.51647 L 453.20218,344.47356 C 461.62449,344.47355 466.57411,336.235 466.57411,324.05224 L 466.57411,35.904856 C 466.57411,23.722076 461.65573,15.483526 453.23342,15.483526 z "
     style="fill:none;fill-opacity:1;fill-rule:evenodd;stroke:black;stroke-width:12;stroke-linecap:butt;stroke-linejoin:miter;stroke-miterlimit:4;stroke-dasharray:none;stroke-opacity:1"
     id="path3976" />
  <g
     id="g1922"
     transform="translate(-7.5e-6,-2.468833)">
    <path
       id="text1944"
       d="M 66.238665,164.06254 L 77.613324,151.12971 C 81.872311,154.55771 86.78055,157.31048 92.338055,159.38802 C 97.895503,161.4656 103.71267,162.50438 109.78959,162.50437 C 116.80131,162.50438 122.30685,161.05009 126.30622,158.14149 C 130.30546,155.23292 132.30511,151.4154 132.30518,146.68892 C 132.30511,137.75544 127.3709,132.63944 117.50254,131.34092 C 114.90554,131.02933 112.49037,130.7177 110.25704,130.40601 C 108.02361,130.09443 105.42666,129.73085 102.46618,129.31529 C 92.649661,127.96493 85.17044,124.36815 80.028492,118.52495 C 74.886511,112.68187 72.315529,105.63114 72.315538,97.372756 C 72.315529,87.712177 75.548734,79.765505 82.015162,73.532716 C 88.481553,67.300137 97.583869,64.183795 109.32214,64.18368 C 116.33386,64.183795 122.93012,65.300484 129.11093,67.533751 C 135.29161,69.767241 140.97893,72.597918 146.17292,76.025792 L 136.59016,90.205162 C 132.43496,87.608299 127.9682,85.504768 123.18987,83.894563 C 118.41142,82.284548 113.52915,81.479493 108.54305,81.479396 C 103.24522,81.479493 98.752497,82.829908 95.064857,85.530644 C 91.377155,88.231567 89.533319,92.282812 89.533344,97.68439 C 89.533319,100.90469 90.779856,103.91716 93.272958,106.72179 C 95.766003,109.52657 99.895156,111.37041 105.66043,112.2533 C 107.16662,112.51307 108.98449,112.78575 111.11403,113.07134 C 113.24349,113.35707 115.68462,113.65572 118.43745,113.96729 C 129.03295,115.26583 136.86276,119.10932 141.9269,125.49777 C 146.99087,131.88632 149.5229,138.95003 149.52299,146.68892 C 149.5229,157.12869 145.91314,165.23118 138.69369,170.99641 C 131.47409,176.76165 121.78746,179.64427 109.63377,179.64427 C 92.545783,179.64427 78.080762,174.45036 66.238665,164.06254 L 66.238665,164.06254 z M 187.07494,178.70936 L 187.07494,80.466584 L 155.9894,80.466584 L 155.9894,65.196493 L 235.37829,65.196493 L 235.37829,80.466584 L 204.29275,80.466584 L 204.29275,178.70936 L 187.07494,178.70936 z M 243.71452,121.99188 C 243.71452,108.33197 244.07809,99.528307 244.80525,95.580857 C 245.53238,91.633574 246.83086,87.997842 248.70068,84.673649 C 251.34955,79.739535 255.69945,75.090992 261.75037,70.728005 C 267.80124,66.365234 275.29345,64.183795 284.22701,64.18368 C 293.10854,64.183795 300.57477,66.365234 306.62574,70.728005 C 312.67657,75.090992 317.0784,79.739535 319.83125,84.673649 C 321.64904,87.997842 322.92154,91.633574 323.64878,95.580857 C 324.37583,99.528307 324.73941,108.33197 324.7395,121.99188 C 324.73941,135.6519 324.37583,144.45557 323.64878,148.40291 C 322.92154,152.3503 321.64904,155.98604 319.83125,159.31011 C 317.0784,164.29628 312.67657,168.93184 306.62574,173.2168 C 300.57477,177.50178 293.10854,179.64427 284.22701,179.64427 C 275.29345,179.64427 267.80124,177.50178 261.75037,173.2168 C 255.69945,168.93184 251.34955,164.29628 248.70068,159.31011 C 246.83086,155.98604 245.53238,152.3503 244.80525,148.40291 C 244.07809,144.45557 243.71452,135.6519 243.71452,121.99188 L 243.71452,121.99188 z M 260.93233,121.99188 C 260.93231,133.67822 261.33483,141.26132 262.13991,144.7412 C 262.94494,148.22115 264.46416,151.36346 266.69757,154.16815 C 268.41153,156.45349 270.74878,158.41419 273.70935,160.05025 C 276.66983,161.68634 280.17572,162.50438 284.22701,162.50437 C 288.27821,162.50438 291.78409,161.68634 294.74468,160.05025 C 297.70514,158.41419 300.0424,156.45349 301.75645,154.16815 C 303.98976,151.36346 305.50898,148.22115 306.31411,144.7412 C 307.11909,141.26132 307.52162,133.67822 307.52169,121.99188 C 307.52162,110.3576 307.11909,102.80047 306.31411,99.320471 C 305.50898,95.840636 303.98976,92.646385 301.75645,89.73771 C 300.0424,87.55636 297.70514,85.634616 294.74468,83.972472 C 291.78409,82.310517 288.27821,81.479493 284.22701,81.479396 C 280.17572,81.479493 276.66983,82.310517 273.70935,83.972472 C 270.74878,85.634616 268.41153,87.55636 266.69757,89.73771 C 264.46416,92.646385 262.94494,95.840636 262.13991,99.320471 C 261.33483,102.80047 260.93231,110.3576 260.93233,121.99188 L 260.93233,121.99188 z M 361.9798,81.479396 L 361.9798,118.09645 L 387.53383,118.09645 C 393.92228,118.09651 398.68769,116.17477 401.83007,112.33121 C 404.97231,108.48779 406.54347,104.3067 406.54354,99.787923 C 406.54347,92.93205 404.07636,87.893963 399.14222,84.673649 C 395.97387,82.544243 391.89666,81.479493 386.91056,81.479396 L 361.9798,81.479396 z M 344.762,178.70936 L 344.762,65.196493 L 385.97566,65.196493 C 390.39043,65.196606 394.63644,65.664057 398.71372,66.598848 C 402.79087,67.533862 407.03689,69.715302 411.45178,73.143173 C 414.87968,75.792169 417.78827,79.440886 420.17755,84.089335 C 422.56666,88.737973 423.76125,94.126647 423.76135,100.25538 C 423.76125,108.35794 420.73581,116.07089 414.68499,123.39424 C 408.63401,130.7177 399.79139,134.3794 388.1571,134.37935 L 361.9798,134.37935 L 361.9798,178.70936 L 344.762,178.70936 z "
       style="font-size:159.55686951px;font-style:normal;font-variant:normal;font-weight:normal;font-stretch:normal;text-align:center;line-height:100%;writing-mode:lr-tb;text-anchor:middle;fill:black;fill-opacity:1;stroke:none;stroke-width:1px;stroke-linecap:butt;stroke-linejoin:miter;stroke-opacity:1;font-family:DIN 1451 Mittelschrift" />
    <path
       id="text1948"
       d="M 128.90725,300.54376 L 128.90725,229.7882 L 117.05742,238.43228 L 117.05742,225.78101 L 128.90725,217.13692 L 140.87158,217.13692 L 140.87158,300.54376 L 128.90725,300.54376 z "
       style="font-size:117.23898315px;font-style:normal;font-variant:normal;font-weight:normal;font-stretch:normal;text-align:center;line-height:100%;writing-mode:lr-tb;text-anchor:middle;fill:black;fill-opacity:1;stroke:none;stroke-width:1px;stroke-linecap:butt;stroke-linejoin:miter;stroke-opacity:1;font-family:DIN 1451 Mittelschrift" />
    <path
       id="text1952"
       d="M 196.48475,276.07113 L 196.48475,240.6358 C 196.48471,236.62864 195.40658,233.49919 193.25035,231.24744 C 191.09404,228.99583 188.26036,227.87 184.7493,227.86992 C 181.20002,227.87 178.3568,228.99583 176.21963,231.24744 C 174.08243,233.49919 173.01383,236.62864 173.01385,240.6358 L 173.01385,276.07113 C 173.01383,280.11654 174.08243,283.25553 176.21963,285.48812 C 178.3568,287.72073 181.20002,288.83702 184.7493,288.83701 C 188.26036,288.83702 191.09404,287.72073 193.25035,285.48812 C 195.40658,283.25553 196.48471,280.11654 196.48475,276.07113 L 196.48475,276.07113 z M 161.04942,276.75809 L 161.04942,239.94885 C 161.04941,232.27794 163.45375,226.35298 168.26243,222.17394 C 173.07108,217.99505 178.5667,215.90557 184.7493,215.90549 C 190.89368,215.90557 196.37976,217.99505 201.20755,222.17394 C 206.03526,226.35298 208.44913,232.27794 208.44918,239.94885 L 208.44918,276.75809 C 208.44913,284.42908 206.03526,290.3445 201.20755,294.50438 C 196.37976,298.66426 190.89368,300.7442 184.7493,300.7442 C 178.5667,300.7442 173.07108,298.66426 168.26243,294.50438 C 163.45375,290.3445 161.04941,284.42908 161.04942,276.75809 L 161.04942,276.75809 z M 252.8149,276.07113 L 252.8149,240.6358 C 252.81486,236.62864 251.73673,233.49919 249.5805,231.24744 C 247.4242,228.99583 244.59052,227.87 241.07945,227.86992 C 237.53017,227.87 234.68695,228.99583 232.54979,231.24744 C 230.41258,233.49919 229.34399,236.62864 229.34401,240.6358 L 229.34401,276.07113 C 229.34399,280.11654 230.41258,283.25553 232.54979,285.48812 C 234.68695,287.72073 237.53017,288.83702 241.07945,288.83701 C 244.59052,288.83702 247.4242,287.72073 249.5805,285.48812 C 251.73673,283.25553 252.81486,280.11654 252.8149,276.07113 L 252.8149,276.07113 z M 217.37957,276.75809 L 217.37957,239.94885 C 217.37957,232.27794 219.7839,226.35298 224.59258,222.17394 C 229.40124,217.99505 234.89685,215.90557 241.07945,215.90549 C 247.22383,215.90557 252.70991,217.99505 257.53771,222.17394 C 262.36541,226.35298 264.77929,232.27794 264.77934,239.94885 L 264.77934,276.75809 C 264.77929,284.42908 262.36541,290.3445 257.53771,294.50438 C 252.70991,298.66426 247.22383,300.7442 241.07945,300.7442 C 234.89685,300.7442 229.40124,298.66426 224.59258,294.50438 C 219.7839,290.3445 217.37957,284.42908 217.37957,276.75809 L 217.37957,276.75809 z "
       style="font-size:117.23999786px;font-style:normal;font-variant:normal;font-weight:normal;font-stretch:normal;text-align:center;line-height:100%;writing-mode:lr-tb;text-anchor:middle;fill:black;fill-opacity:1;stroke:none;stroke-width:1px;stroke-linecap:butt;stroke-linejoin:miter;stroke-opacity:1;font-family:DIN 1451 Mittelschrift" />
    <path
       id="text1956"
       d="M 293.42282,300.75398 L 293.42282,243.28023 L 304.99508,243.28023 L 304.99508,249.42627 L 305.21656,249.42627 C 308.87094,244.88601 313.85421,242.61585 320.16638,242.6158 C 324.18987,242.61585 327.38286,243.33566 329.74534,244.77521 C 332.10773,246.21488 334.32252,247.98671 336.3897,250.0907 C 340.92996,245.10749 346.98371,242.61585 354.55096,242.6158 C 359.01738,242.61585 363.32698,244.31386 367.47979,247.70981 C 371.63243,251.10587 373.70879,256.05222 373.70888,262.54889 L 373.70888,300.75398 L 362.13661,300.75398 L 362.13661,266.53551 C 362.13653,262.65966 361.0476,259.63279 358.8698,257.45487 C 356.69185,255.27705 353.9972,254.18811 350.78582,254.18806 C 347.46358,254.18811 344.72278,255.27705 342.56342,257.45487 C 340.40395,259.63279 339.32424,262.65966 339.3243,266.53551 L 339.3243,300.75398 L 327.8074,300.75398 L 327.8074,266.53551 C 327.80736,262.65966 326.71842,259.63279 324.54059,257.45487 C 322.36268,255.27705 319.66802,254.18811 316.45661,254.18806 C 313.1344,254.18811 310.3936,255.27705 308.23421,257.45487 C 306.07477,259.63279 304.99506,262.65966 304.99508,266.53551 L 304.99508,300.75398 L 293.42282,300.75398 z "
       style="font-size:113.3971405px;font-style:normal;font-variant:normal;font-weight:normal;font-stretch:normal;text-align:center;line-height:100%;writing-mode:lr-tb;text-anchor:middle;fill:black;fill-opacity:1;stroke:none;stroke-width:1px;stroke-linecap:butt;stroke-linejoin:miter;stroke-opacity:1;font-family:DIN 1451 Mittelschrift" />
  </g>
</svg>
