<?xml version="1.0" encoding="UTF-8" standalone="no"?>
<!-- Created with Inkscape (http://www.inkscape.org/) -->
<svg
   xmlns:svg="http://www.w3.org/2000/svg"
   xmlns="http://www.w3.org/2000/svg"
   version="1.0"
   width="490"
   height="270"
   id="svg2">
  <defs
     id="defs4" />
  <path
     d="M 38.78125,4.984375 C 20.356889,4.9843748 9.96875,12.12016 9.96875,33.203125 L 9.65625,236.79688 C 9.65625,257.87984 20.044391,265.01563 38.46875,265.01563 L 451.21875,264.98438 C 469.64311,264.98438 480.03124,257.84859 480.03125,236.76563 L 480.34375,33.234375 C 480.34375,12.15141 469.95561,5.0156248 451.53125,5.015625 L 38.78125,4.984375 z "
     style="fill:white;fill-opacity:1;fill-rule:evenodd;stroke:black;stroke-width:2;stroke-linecap:butt;stroke-linejoin:miter;stroke-miterlimit:4;stroke-dasharray:none;stroke-opacity:1"
     id="path1881" />
  <path
     d="M 453.3125,17.796875 L 36.78125,17.828125 C 28.356999,17.828125 23.40625,23.829135 23.40625,32.703125 L 23.40625,237.35938 C 23.406249,246.23335 28.35701,252.23438 36.78125,252.23438 L 453.28125,252.20313 C 461.70549,252.20312 466.65625,246.20211 466.65625,237.32813 L 466.65625,32.671875 C 466.65625,23.797885 461.73674,17.796875 453.3125,17.796875 z "
     style="fill:none;fill-opacity:1;fill-rule:evenodd;stroke:black;stroke-width:10.05090809;stroke-linecap:butt;stroke-linejoin:miter;stroke-miterlimit:4;stroke-dasharray:none;stroke-opacity:1"
     id="path3976" />
  <path
     d="M 80.239381,108.66835 L 80.239381,158.97358 L 204.11877,158.97358 L 204.11877,108.66835 L 80.239381,108.66835 z "
     style="fill:white;fill-opacity:1;fill-rule:evenodd;stroke:none;stroke-width:1px;stroke-linecap:butt;stroke-linejoin:miter;stroke-opacity:1"
     id="path20922" />
  <g
     transform="translate(202.6171,-405.8266)"
     id="g2685">
    <path
       d="M -76.987352,619.17491 L -76.987352,564.35063 L -86.169089,571.04842 L -86.169089,561.24569 L -76.987352,554.5479 L -67.716903,554.5479 L -67.716903,619.17491 L -76.987352,619.17491 z M -45.228303,589.23446 L -27.885023,554.5479 L -17.550024,554.5479 L -31.167383,581.87133 L -30.989958,581.87133 C -29.541009,581.30953 -27.899831,581.0286 -26.066418,581.02856 C -21.985675,581.0286 -18.392825,582.46279 -15.287857,585.33112 C -12.182961,588.19952 -10.630495,592.7682 -10.630455,599.03719 C -10.630495,606.45947 -12.611737,611.76004 -16.574188,614.93889 C -20.536707,618.11775 -24.913182,619.70718 -29.703627,619.70719 C -34.227978,619.70718 -38.360495,617.95512 -42.10119,614.45097 C -45.841902,610.94684 -47.712254,606.14898 -47.712251,600.05738 C -47.712254,596.15406 -46.884272,592.54642 -45.228303,589.23446 L -45.228303,589.23446 z M -29.171353,589.23446 C -31.744033,589.23449 -33.93227,590.09944 -35.736073,591.8293 C -37.539906,593.55922 -38.441815,596.22798 -38.441802,599.8356 C -38.441815,606.93261 -35.351668,610.4811 -29.171353,610.48109 C -27.042278,610.4811 -24.964931,609.6753 -22.939305,608.06368 C -20.913734,606.45208 -19.900935,603.70939 -19.900904,599.8356 C -19.900935,596.22798 -20.810236,593.55922 -22.628811,591.8293 C -24.447442,590.09944 -26.628288,589.23449 -29.171353,589.23446 L -29.171353,589.23446 z M -2.5132686,598.68234 L -2.5132686,589.41189 L 24.854517,589.41189 L 24.854517,598.68234 L -2.5132686,598.68234 z M 47.210051,619.17491 L 47.210051,564.35063 L 38.028314,571.04842 L 38.028314,561.24569 L 47.210051,554.5479 L 56.4805,554.5479 L 56.4805,619.17491 L 47.210051,619.17491 z M 85.755601,572.51217 C 85.755588,575.55801 86.709246,577.86453 88.616577,579.43174 C 90.523877,580.99903 92.660366,581.78266 95.02605,581.78262 C 97.391691,581.78266 99.52818,580.99903 101.43552,579.43174 C 103.34281,577.86453 104.29647,575.55801 104.2965,572.51217 C 104.29647,569.496 103.34281,567.19687 101.43552,565.61478 C 99.52818,564.0328 97.391691,563.24178 95.02605,563.24172 C 92.660366,563.24178 90.523877,564.0328 88.616577,565.61478 C 86.709246,567.19687 85.755588,569.496 85.755601,572.51217 L 85.755601,572.51217 z M 75.33189,600.32352 C 75.331888,594.02496 77.874975,589.17535 82.961159,585.77468 C 81.039049,584.05961 79.47919,582.15969 78.281579,580.07491 C 77.083957,577.99021 76.485149,575.52844 76.485152,572.6896 C 76.485149,567.48519 78.266788,563.06435 81.830076,559.42709 C 85.393346,555.78994 89.792,553.97134 95.02605,553.97127 C 100.26006,553.97134 104.65871,555.78994 108.22202,559.42709 C 111.78527,563.06435 113.56691,567.48519 113.56695,572.6896 C 113.56691,575.52844 112.96071,577.99021 111.74834,580.07491 C 110.5359,582.15969 108.99822,584.05961 107.1353,585.77468 C 112.19187,589.20492 114.72017,594.05453 114.72021,600.32352 C 114.72017,606.06027 112.77589,610.72506 108.88737,614.3179 C 104.99877,617.91076 100.37834,619.70718 95.02605,619.70719 C 89.644146,619.70718 85.016319,617.91076 81.142555,614.3179 C 77.268774,610.72506 75.331888,606.06027 75.33189,600.32352 L 75.33189,600.32352 z M 84.602339,600.23481 C 84.602328,603.1919 85.644698,605.63889 87.729453,607.57576 C 89.814178,609.51266 92.246375,610.4811 95.02605,610.48109 C 97.776111,610.4811 100.20831,609.51266 102.32265,607.57576 C 104.43693,605.63889 105.49408,603.1919 105.49412,600.23481 C 105.49408,597.27775 104.43693,594.82337 102.32265,592.87167 C 100.20831,590.92003 97.776111,589.94419 95.02605,589.94416 C 92.246375,589.94419 89.814178,590.92003 87.729453,592.87167 C 85.644698,594.82337 84.602328,597.27775 84.602339,600.23481 L 84.602339,600.23481 z "
       style="font-size:90.84152985px;font-style:normal;font-variant:normal;font-weight:normal;font-stretch:normal;text-align:center;line-height:100%;writing-mode:lr-tb;text-anchor:middle;fill:black;fill-opacity:1;stroke:none;stroke-width:1px;stroke-linecap:butt;stroke-linejoin:miter;stroke-opacity:1;font-family:DIN 1451 Mittelschrift"
       id="text1961" />
    <path
       d="M 136.91209,484.49139 C 138.44646,484.49143 139.8926,484.90429 141.25052,485.72997 C 142.60839,486.55574 143.58224,487.51473 144.17207,488.60695 C 144.76185,489.69925 145.13058,490.62898 145.27829,491.39613 C 145.42594,492.16336 145.49977,493.16648 145.4998,494.40548 L 145.4998,527.1571 L 137.00124,527.1571 L 137.00124,497.59042 C 137.00122,496.17492 136.6766,495.02458 136.02739,494.13939 C 135.37813,493.25427 134.34575,492.8117 132.93025,492.81166 C 131.69119,492.8117 130.67322,493.29839 129.87633,494.27176 C 129.0794,495.24519 128.68095,496.35141 128.68096,497.59042 L 128.68096,527.1571 L 120.1824,527.1571 L 120.1824,468.11557 L 128.68096,468.11557 L 128.68096,489.09455 C 130.62775,486.02582 133.37146,484.49143 136.91209,484.49139 L 136.91209,484.49139 z "
       style="font-size:88.51907349px;font-style:normal;font-variant:normal;font-weight:normal;font-stretch:normal;text-align:center;line-height:100%;writing-mode:lr-tb;text-anchor:middle;fill:black;fill-opacity:1;stroke:none;stroke-width:1px;stroke-linecap:butt;stroke-linejoin:miter;stroke-opacity:1;font-family:DIN 1451 Engschrift"
       id="text1981" />
    <path
       d="M -50.904712,480.48709 C -50.904725,483.53294 -49.951062,485.83947 -48.043721,487.40669 C -46.136412,488.97399 -43.999912,489.75762 -41.634215,489.75758 C -39.268562,489.75762 -37.132062,488.97399 -35.224708,487.40669 C -33.317411,485.83947 -32.363749,483.53294 -32.363718,480.48709 C -32.363749,477.4709 -33.317411,475.17176 -35.224708,473.58966 C -37.132062,472.00767 -39.268562,471.21665 -41.634215,471.21659 C -43.999912,471.21665 -46.136412,472.00767 -48.043721,473.58966 C -49.951062,475.17176 -50.904725,477.4709 -50.904712,480.48709 L -50.904712,480.48709 z M -61.328477,508.29858 C -61.328479,501.99999 -58.785379,497.15036 -53.699168,493.74966 C -55.621289,492.03458 -57.181156,490.13465 -58.378774,488.04986 C -59.576402,485.96515 -60.175213,483.50337 -60.17521,480.66451 C -60.175213,475.46008 -58.393564,471.03922 -54.830258,467.40194 C -51.266969,463.76477 -46.868292,461.94616 -41.634215,461.94609 C -36.400181,461.94616 -32.001505,463.76477 -28.438172,467.40194 C -24.874909,471.03922 -23.093261,475.46008 -23.09322,480.66451 C -23.093261,483.50337 -23.699465,485.96515 -24.911835,488.04986 C -26.124281,490.13465 -27.66197,492.03458 -29.524905,493.74966 C -24.468309,497.17993 -21.939994,502.02956 -21.939953,508.29858 C -21.939994,514.03536 -23.884283,518.70017 -27.772825,522.29304 C -31.661439,525.88591 -36.281898,527.68235 -41.634215,527.68235 C -47.016147,527.68235 -51.643998,525.88591 -55.517783,522.29304 C -59.391583,518.70017 -61.328479,514.03536 -61.328477,508.29858 L -61.328477,508.29858 z M -52.05798,508.20987 C -52.057991,511.16698 -51.015616,513.61397 -48.93085,515.55086 C -46.846114,517.48777 -44.413905,518.45621 -41.634215,518.45621 C -38.88414,518.45621 -36.45193,517.48777 -34.337579,515.55086 C -32.223287,513.61397 -31.166126,511.16698 -31.166094,508.20987 C -31.166126,505.25279 -32.223287,502.7984 -34.337579,500.8467 C -36.45193,498.89504 -38.88414,497.9192 -41.634215,497.91917 C -44.413905,497.9192 -46.846114,498.89504 -48.93085,500.8467 C -51.015616,502.7984 -52.057991,505.25279 -52.05798,508.20987 L -52.05798,508.20987 z M -14.97599,506.65739 L -14.97599,497.38689 L 12.391937,497.38689 L 12.391937,506.65739 L -14.97599,506.65739 z M 34.747587,527.15007 L 34.747587,472.3255 L 25.565802,479.02332 L 25.565802,469.22055 L 34.747587,462.52273 L 44.018084,462.52273 L 44.018084,527.15007 L 34.747587,527.15007 z M 78.394331,527.15007 L 78.394331,472.3255 L 69.212546,479.02332 L 69.212546,469.22055 L 78.394331,462.52273 L 87.664828,462.52273 L 87.664828,527.15007 L 78.394331,527.15007 z "
       style="font-size:90.84200287px;font-style:normal;font-variant:normal;font-weight:normal;font-stretch:normal;text-align:center;line-height:100%;writing-mode:lr-tb;text-anchor:middle;fill:black;fill-opacity:1;stroke:none;stroke-width:1px;stroke-linecap:butt;stroke-linejoin:miter;stroke-opacity:1;font-family:DIN 1451 Mittelschrift"
       id="text1985" />
    <path
       d="M 162.34712,576.56573 C 163.88149,576.56577 165.32763,576.97863 166.68555,577.80431 C 168.04342,578.63008 169.01727,579.58907 169.6071,580.68129 C 170.19687,581.77359 170.56561,582.70332 170.71332,583.47047 C 170.86096,584.2377 170.9348,585.24082 170.93483,586.47982 L 170.93483,619.23145 L 162.43626,619.23145 L 162.43626,589.66476 C 162.43624,588.24926 162.11163,587.09892 161.46241,586.21373 C 160.81316,585.32861 159.78078,584.88604 158.36527,584.886 C 157.12622,584.88604 156.10825,585.37274 155.31135,586.3461 C 154.51443,587.31953 154.11598,588.42575 154.11599,589.66476 L 154.11599,619.23145 L 145.61742,619.23145 L 145.61742,560.18991 L 154.11599,560.18991 L 154.11599,581.16889 C 156.06278,578.10016 158.80648,576.56577 162.34712,576.56573 L 162.34712,576.56573 z "
       style="font-size:88.51907349px;font-style:normal;font-variant:normal;font-weight:normal;font-stretch:normal;text-align:center;line-height:100%;writing-mode:lr-tb;text-anchor:middle;fill:black;fill-opacity:1;stroke:none;stroke-width:1px;stroke-linecap:butt;stroke-linejoin:miter;stroke-opacity:1;font-family:DIN 1451 Engschrift"
       id="text1918" />
  </g>
</svg>
