<?xml version="1.0" encoding="UTF-8" standalone="no"?>
<!-- Created with Inkscape (http://www.inkscape.org/) -->

<svg
   xmlns:dc="http://purl.org/dc/elements/1.1/"
   xmlns:cc="http://creativecommons.org/ns#"
   xmlns:rdf="http://www.w3.org/1999/02/22-rdf-syntax-ns#"
   xmlns:svg="http://www.w3.org/2000/svg"
   xmlns="http://www.w3.org/2000/svg"
   xmlns:sodipodi="http://sodipodi.sourceforge.net/DTD/sodipodi-0.dtd"
   xmlns:inkscape="http://www.inkscape.org/namespaces/inkscape"
   version="1.0"
   width="490"
   height="270"
   id="svg2"
   inkscape:version="0.48.1 r9760"
   sodipodi:docname="Zusatzzeichen_1040-33.svg">
  <metadata
     id="metadata23">
    <rdf:RDF>
      <cc:Work
         rdf:about="">
        <dc:format>image/svg+xml</dc:format>
        <dc:type
           rdf:resource="http://purl.org/dc/dcmitype/StillImage" />
      </cc:Work>
    </rdf:RDF>
  </metadata>
  <sodipodi:namedview
     pagecolor="#ffffff"
     bordercolor="#666666"
     borderopacity="1"
     objecttolerance="10"
     gridtolerance="10"
     guidetolerance="10"
     inkscape:pageopacity="0"
     inkscape:pageshadow="2"
     inkscape:window-width="640"
     inkscape:window-height="484"
     id="namedview21"
     showgrid="false"
     inkscape:zoom="0.87407407"
     inkscape:cx="245"
     inkscape:cy="135"
     inkscape:window-x="0"
     inkscape:window-y="0"
     inkscape:window-maximized="0"
     inkscape:current-layer="svg2" />
  <defs
     id="defs4" />
  <path
     d="m 38.78125,4.984375 c -18.424361,-2e-7 -28.8125,7.135785 -28.8125,28.21875 L 9.65625,236.79688 c 0,21.08296 10.388141,28.21875 28.8125,28.21875 l 412.75,-0.0312 c 18.42436,0 28.81249,-7.13579 28.8125,-28.21875 l 0.3125,-203.531255 c 0,-21.082965 -10.38814,-28.2187502 -28.8125,-28.21875 l -412.75,-0.03125 z"
     id="path1881"
     style="fill:white;fill-opacity:1;fill-rule:evenodd;stroke:black;stroke-width:2;stroke-linecap:butt;stroke-linejoin:miter;stroke-miterlimit:4;stroke-opacity:1;stroke-dasharray:none" />
  <path
     d="m 453.3125,17.796875 -416.53125,0.03125 c -8.424251,0 -13.375,6.00101 -13.375,14.875 l 0,204.656255 c -1e-6,8.87397 4.95076,14.875 13.375,14.875 l 416.5,-0.0312 c 8.42424,-10e-6 13.375,-6.00102 13.375,-14.875 l 0,-204.656255 c 0,-8.87399 -4.91951,-14.875 -13.34375,-14.875 z"
     id="path3976"
     style="fill:none;stroke:black;stroke-width:10.05090046;stroke-linecap:butt;stroke-linejoin:miter;stroke-miterlimit:4;stroke-opacity:1;stroke-dasharray:none" />
  <path
     d="m 80.239381,108.66835 0,50.30523 123.879389,0 0,-50.30523 -123.879389,0 z"
     id="path20922"
     style="fill:white;fill-opacity:1;fill-rule:evenodd;stroke:none" />
  <g
     id="g4422">
    <path
       d="m 66.654422,103.10583 0,-47.9049 11.204696,0 c 1.388151,5e-5 2.776681,0.28718 4.165596,0.86139 1.388877,0.57431 2.550187,1.3283 3.483933,2.26198 0.933701,0.93377 1.723494,2.04723 2.369381,3.34037 0.645838,1.29323 0.968769,2.53819 0.968795,3.7349 l 0,6.96567 c -2.6e-5,1.7725 -0.239302,3.35282 -0.717829,4.74096 -0.478577,1.38819 -1.304535,2.66895 -2.477877,3.8423 -1.173388,1.17338 -2.442463,2.0114 -3.80723,2.51404 -1.364804,0.50268 -2.956811,0.75401 -4.776024,0.75399 l -3.590237,0 0,18.8893 -6.823204,0 z M 81.162224,76.38727 c 0.431044,-0.43103 0.706485,-0.88584 0.826325,-1.36442 0.119801,-0.47852 0.179712,-1.07653 0.179731,-1.79402 l 0,-0.86359 0,-6.24894 c -1.9e-5,-1.33991 -0.406971,-2.44094 -1.220856,-3.3031 -0.813921,-0.86209 -1.915686,-1.29315 -3.305298,-1.29319 l -4.1645,0 0,16.23278 3.590237,0 c 0.958551,3e-5 1.737019,-0.0836 2.335408,-0.25096 0.598356,-0.16729 1.184673,-0.53881 1.758953,-1.11456 l 0,0 z M 93.226123,99.51559 C 92.890038,98.93987 92.674142,98.30497 92.578434,97.61088 92.482724,96.9168 92.434866,96.1387 92.434868,95.27657 l 0,-3.87737 c -2e-6,-2.53814 0.634535,-4.4297 1.903615,-5.67468 1.269071,-1.24495 2.418326,-2.09465 3.447768,-2.54911 1.029426,-0.45442 2.262339,-0.68164 3.698729,-0.68166 l 4.5963,0 0,-2.94584 c -2e-5,-0.67068 -0.0358,-1.2212 -0.1074,-1.65155 -0.0716,-0.43031 -0.37081,-0.98083 -0.89756,-1.65156 -0.52679,-0.67067 -1.24535,-1.00602 -2.15568,-1.00605 -0.95712,3e-5 -1.77102,0.31127 -2.44171,0.93372 -0.670715,0.62251 -1.077667,1.43642 -1.220858,2.44171 l -6.823204,0 c -2e-6,-2.7763 0.993632,-5.1581 2.980905,-7.1454 1.987263,-1.98724 4.393173,-2.98087 7.217737,-2.98091 2.77778,4e-5 5.19611,0.98162 7.255,2.94475 2.05884,1.96318 3.08828,4.35704 3.0883,7.18156 l 0,24.49165 -6.89553,0 0,-3.44777 c -0.71748,1.19675 -1.61504,2.14253 -2.69268,2.83734 -1.07767,0.69481 -2.2872,1.04222 -3.628596,1.04222 -3.015981,0 -5.193939,-1.34067 -6.533881,-4.02203 l 0,0 z m 6.10428,-8.18872 0,1.72279 c -9e-6,0.91035 0.323287,1.73667 0.969887,2.47897 0.64659,0.74231 1.49592,1.11346 2.54802,1.11346 0.57571,0 1.1149,-0.14356 1.61758,-0.4307 0.50265,-0.28712 0.88549,-0.68202 1.14852,-1.18469 0.26301,-0.50266 0.40658,-1.14925 0.4307,-1.93978 0.0241,-0.79051 0.0362,-1.35309 0.0362,-1.68772 l 0,-3.3053 -2.58637,0 c -1.24498,2e-5 -2.25031,0.23966 -3.01598,0.71893 -0.765691,0.47929 -1.148532,1.31731 -1.148523,2.51404 l 0,0 z m 35.431127,-22.839 0,7.03801 c -0.33464,-0.0949 -0.66963,-0.16655 -1.00496,-0.2148 -0.33537,-0.0482 -0.64697,-0.0723 -0.93482,-0.0723 -2.25031,3e-5 -3.97382,0.76607 -5.17056,2.29814 -1.19675,1.53213 -1.79512,3.37583 -1.79511,5.53112 l 0,20.03782 -6.89554,0 0,-34.18835 6.89554,0 0,3.66476 c 1.19673,-1.48458 2.66892,-2.53812 4.41656,-3.16064 1.74761,-0.62245 3.24391,-0.93369 4.48889,-0.93373 l 0,0 z m 4.25875,34.61796 0,-47.9049 6.89553,0 0,28.51367 8.61832,-14.79712 6.82321,0 -8.11639,13.57627 9.76904,20.61208 -7.6846,0 -5.96181,-14.58014 -3.44777,5.10042 0,9.47972 -6.89553,0 z m 36.90624,-6.53607 c 1.00677,0 1.82104,-0.31124 2.44281,-0.93373 0.62173,-0.62247 1.00494,-1.43638 1.14962,-2.44171 l 6.8232,0 0,0.78906 c -2e-5,1.05355 -0.22761,2.1071 -0.68276,3.16064 -0.45519,1.05355 -1.40097,2.38253 -2.83734,3.98696 -1.4364,1.60443 -3.68669,2.40664 -6.75087,2.40664 -1.9639,0 -3.7718,-0.52677 -5.42371,-1.58032 -1.65193,-1.05354 -2.78913,-2.21485 -3.41161,-3.48393 -0.62248,-1.26907 -1.01738,-2.41832 -1.18469,-3.44777 -0.16731,-1.02942 -0.25097,-2.0468 -0.25096,-3.05214 l 0,-12.99981 c -1e-5,-2.82453 1.01737,-5.27829 3.05214,-7.3613 2.03475,-2.08295 4.46514,-3.12444 7.29116,-3.12448 2.92098,4e-5 5.351,1.01742 7.29007,3.05214 1.93902,2.03479 2.90855,4.51267 2.90857,7.43364 l 0,9.47971 -13.64641,0 0,5.10042 c -1e-5,0.71747 0.34703,1.3995 1.04113,2.04608 0.69407,0.64661 1.42395,0.9699 2.18965,0.9699 l 0,0 z m 0.14466,-21.33101 c -0.91036,3e-5 -1.70052,0.31127 -2.37048,0.93372 -0.66998,0.62251 -1.00497,1.72355 -1.00496,3.30311 l 0,3.37544 6.75088,0 0,-3.37544 c -2e-5,-1.24494 -0.26341,-2.26232 -0.79016,-3.05214 -0.52679,-0.78977 -1.38855,-1.18466 -2.58528,-1.18469 l 0,0 z m 35.15714,-3.23297 c 0.38428,0.57576 0.64804,1.27057 0.79126,2.08444 0.14318,0.81394 0.21478,1.62784 0.2148,2.44171 l 0,26.5739 -6.89554,0 0,-24.05985 c -1e-5,-2.53813 -1.12516,-3.8072 -3.37543,-3.80723 -1.00534,3e-5 -1.81924,0.38323 -2.44171,1.14962 -0.6225,0.76644 -0.93374,1.65231 -0.93373,2.65761 l 0,24.05985 -6.89553,0 0,-34.18835 6.89553,0 0,3.30529 c 1.53282,-2.4899 3.66402,-3.73486 6.3936,-3.7349 2.77632,4e-5 4.85857,1.17267 6.24675,3.51791 l 0,0 z"
       id="text3917"
       style="font-size:71.82230377px;font-style:normal;font-variant:normal;font-weight:normal;font-stretch:normal;text-align:center;line-height:100%;text-anchor:middle;fill:black;fill-opacity:1;stroke:none" />
    <path
       d="m 256.42098,71.35666 c 0.91032,-1.14848 1.91601,-2.02193 3.01706,-2.62033 1.10101,-0.59834 2.34633,-0.89752 3.73598,-0.89756 2.34523,4e-5 4.27222,0.82599 5.78096,2.47787 1.50868,1.65194 2.26303,3.65053 2.26307,5.99576 l 0,26.14419 -6.89551,0 0,-24.20442 c -3e-5,-1.10027 -0.27547,-1.99783 -0.82632,-2.69266 -0.55091,-0.69479 -1.40061,-1.04219 -2.5491,-1.04222 -0.95859,3e-5 -1.7608,0.37118 -2.40663,1.11345 -0.64589,0.74233 -0.96882,1.61614 -0.96879,2.62143 l 0,24.20442 -6.89551,0 0,-24.20442 c -2e-5,-1.05351 -0.31126,-1.93938 -0.93372,-2.6576 -0.6225,-0.71816 -1.46051,-1.07725 -2.51404,-1.07728 -0.95711,3e-5 -1.75895,0.37118 -2.40553,1.11345 -0.6466,0.74233 -0.9699,1.61614 -0.96989,2.62143 l 0,24.20442 -6.89551,0 0,-34.18822 6.89551,0 0,3.08829 c 1.57957,-2.34522 3.73414,-3.51785 6.46372,-3.51789 1.29316,4e-5 2.45447,0.29922 3.48392,0.89756 1.02941,0.5984 1.90285,1.47185 2.62033,2.62033 l 0,0 z m 20.79612,31.09993 0,-34.18822 6.89551,0 0,34.18822 -6.89551,0 z m 0,-41.15387 0,-6.75084 6.89551,0 0,6.75084 -6.89551,0 z m 23.17645,34.61782 1.58031,0 0,6.53605 -2.15457,0 c -1.29319,0 -2.44244,-0.13151 -3.44776,-0.39453 -1.00532,-0.26302 -1.9869,-0.80185 -2.94472,-1.61648 -0.95784,-0.81463 -1.62818,-1.71255 -2.01101,-2.69376 -0.38285,-0.98121 -0.57427,-2.19 -0.57426,-3.62639 l 0,-20.46953 -3.37542,0 0,-5.38753 3.37542,0 0,-10.34107 6.89551,0 0,10.34107 4.23681,0 0,5.38753 -4.23681,0 0,19.24868 c -1e-5,1.14853 0.15561,1.93832 0.46686,2.36937 0.31123,0.43107 1.04111,0.6466 2.18964,0.64659 l 0,0 z"
       id="text3923"
       style="font-size:71.8219986px;font-style:normal;font-variant:normal;font-weight:normal;font-stretch:normal;text-align:center;line-height:100%;text-anchor:middle;fill:black;fill-opacity:1;stroke:none" />
    <path
       d="m 389.70528,102.45659 0,-34.18822 6.89551,0 0,34.18822 -6.89551,0 z m 0,-41.15387 0,-6.75084 6.89551,0 0,6.75084 -6.89551,0 z m 32.369,10.05394 c 0.38428,0.57576 0.64803,1.27057 0.79125,2.08444 0.14318,0.81393 0.21478,1.62783 0.2148,2.4417 l 0,26.57379 -6.89551,0 0,-24.05976 c -2e-5,-2.53811 -1.12516,-3.80718 -3.37542,-3.80721 -1.00534,3e-5 -1.81924,0.38323 -2.4417,1.14962 -0.6225,0.76643 -0.93374,1.6523 -0.93373,2.65759 l 0,24.05976 -6.8955,0 0,-34.18822 6.8955,0 0,3.30529 c 1.53281,-2.48989 3.66401,-3.73485 6.39358,-3.73489 2.77631,4e-5 4.85855,1.17267 6.24673,3.51789 l 0,0 z"
       id="text3927"
       style="font-size:71.8219986px;font-style:normal;font-variant:normal;font-weight:normal;font-stretch:normal;text-align:center;line-height:100%;text-anchor:middle;fill:black;fill-opacity:1;stroke:none" />
    <path
       d="m 71.993109,175.13925 c -0.958583,1.43637 -2.179798,2.57356 -3.66365,3.41159 -1.483887,0.83799 -3.063832,1.257 -4.73984,1.25701 -2.920993,-1e-5 -5.422969,-0.99364 -7.505933,-2.98089 -2.082976,-1.98727 -3.124461,-4.4655 -3.124459,-7.4347 l 6.895508,0 c -9e-6,0.95856 0.311231,1.77282 0.933721,2.4428 0.62247,0.66996 1.43637,1.00495 2.441703,1.00495 1.436367,0 2.489907,-0.64659 3.160623,-1.93977 0.191405,-0.47782 0.287114,-1.2435 0.287131,-2.29704 l 0,-6.39358 c -0.670717,1.14999 -1.580692,2.09613 -2.729929,2.83843 -1.149264,0.7423 -2.370479,1.11345 -3.66365,1.11345 -1.388169,0 -2.668564,-0.37115 -3.841188,-1.11345 -1.172635,-0.7423 -2.010645,-1.59237 -2.514033,-2.5502 -0.503394,-0.95783 -0.790889,-1.72387 -0.862486,-2.29814 -0.0716,-0.57425 -0.107402,-1.46048 -0.1074,-2.65869 l 0,-18.95936 c -2e-6,-0.8621 0.107763,-1.65225 0.323296,-2.37047 0.215527,-0.71816 0.814262,-1.75965 1.796207,-3.12446 0.981936,-1.36475 2.693756,-2.04714 5.135466,-2.04717 1.291709,3e-5 2.488449,0.32333 3.590223,0.96989 1.101747,0.64662 2.059577,1.54417 2.873494,2.69266 l 0,-3.16062 6.895508,0 0,37.06171 c -2.3e-5,1.33994 -0.107788,2.52462 -0.323296,3.55406 -0.215553,1.02942 -0.634558,2.02342 -1.257016,2.98199 l 0,0 z m -5.961787,-35.98333 c -0.718936,-0.95854 -1.652656,-1.43782 -2.801163,-1.43784 -1.341414,2e-5 -2.215589,0.39528 -2.622529,1.18578 -0.40696,0.79054 -0.63418,1.38928 -0.68166,1.7962 -0.0475,0.40698 -0.07124,0.82599 -0.07123,1.25702 l 0,12.99977 c -9e-6,0.67071 0.03579,1.20953 0.1074,1.61647 0.07159,0.40696 0.34703,0.94542 0.826321,1.61538 0.47927,0.66998 1.34066,1.00497 2.584172,1.00496 1.484587,1e-5 2.394563,-0.419 2.729928,-1.25702 0.335335,-0.838 0.50301,-1.47253 0.503026,-1.9036 -1.6e-5,-0.43105 0.02409,-0.78978 0.07233,-1.07619 l 0,-12.99977 c -1.7e-5,-0.67068 -0.03618,-1.19745 -0.108496,-1.58031 -0.07235,-0.38282 -0.251711,-0.78977 -0.538095,-1.22085 l 0,0 z m 23.145761,20.03774 c 1.006768,1e-5 1.821034,-0.31123 2.442798,-0.93372 0.621735,-0.62247 1.00494,-1.43637 1.149617,-2.4417 l 6.823177,0 0,0.78906 c -2.3e-5,1.05355 -0.227608,2.10709 -0.682756,3.16062 -0.455192,1.05355 -1.400968,2.38253 -2.837328,3.98695 -1.4364,1.60442 -3.68668,2.40663 -6.750847,2.40663 -1.963894,0 -3.771789,-0.52677 -5.423692,-1.58031 -1.651918,-1.05354 -2.789113,-2.21485 -3.411589,-3.48392 -0.622484,-1.26907 -1.017379,-2.41832 -1.184686,-3.44776 -0.167312,-1.02942 -0.250967,-2.04679 -0.250965,-3.05213 l 0,-12.99976 c -2e-6,-2.82452 1.017373,-5.27827 3.052128,-7.36127 2.034745,-2.08294 4.46512,-3.12443 7.291134,-3.12446 2.920968,3e-5 5.350978,1.01741 7.290038,3.05213 1.93902,2.03478 2.90854,4.51264 2.908563,7.4336 l 0,9.47968 -13.646355,0 0,5.1004 c -9e-6,0.71747 0.347031,1.39949 1.041121,2.04607 0.69407,0.6466 1.423949,0.9699 2.189642,0.96989 l 0,0 z m 0.144661,-21.33092 c -0.910354,2e-5 -1.700509,0.31126 -2.370468,0.93372 -0.66998,0.6225 -1.004965,1.72353 -1.004956,3.30309 l 0,3.37542 6.750847,0 0,-3.37542 c -1.6e-5,-1.24494 -0.263401,-2.26231 -0.790156,-3.05213 -0.526785,-0.78976 -1.38854,-1.18466 -2.585267,-1.18468 l 0,0 z m 15.693526,27.86697 0,-47.90471 6.89551,0 0,28.51356 8.61829,-14.79707 6.82318,0 -8.11636,13.57622 9.769,20.612 -7.68457,0 -5.96179,-14.58008 -3.44775,5.1004 0,9.47968 -6.89551,0 z m 36.9061,-6.53605 c 1.00677,1e-5 1.82103,-0.31123 2.44279,-0.93372 0.62174,-0.62247 1.00494,-1.43637 1.14962,-2.4417 l 6.82318,0 0,0.78906 c -2e-5,1.05355 -0.22761,2.10709 -0.68276,3.16062 -0.45519,1.05355 -1.40096,2.38253 -2.83733,3.98695 -1.4364,1.60442 -3.68668,2.40663 -6.75084,2.40663 -1.9639,0 -3.77179,-0.52677 -5.42369,-1.58031 -1.65192,-1.05354 -2.78912,-2.21485 -3.41159,-3.48392 -0.62249,-1.26907 -1.01738,-2.41832 -1.18469,-3.44776 -0.16731,-1.02942 -0.25097,-2.04679 -0.25096,-3.05213 l 0,-12.99976 c -1e-5,-2.82452 1.01737,-5.27827 3.05212,-7.36127 2.03475,-2.08294 4.46512,-3.12443 7.29114,-3.12446 2.92097,3e-5 5.35098,1.01741 7.29004,3.05213 1.93902,2.03478 2.90854,4.51264 2.90856,7.4336 l 0,9.47968 -13.64636,0 0,5.1004 c -1e-5,0.71747 0.34703,1.39949 1.04112,2.04607 0.69407,0.6466 1.42395,0.9699 2.18965,0.96989 l 0,0 z m 0.14466,-21.33092 c -0.91036,2e-5 -1.70051,0.31126 -2.37047,0.93372 -0.66998,0.6225 -1.00497,1.72353 -1.00496,3.30309 l 0,3.37542 6.75085,0 0,-3.37542 c -2e-5,-1.24494 -0.2634,-2.26231 -0.79015,-3.05213 -0.52679,-0.78976 -1.38855,-1.18466 -2.58527,-1.18468 l 0,0 z m 35.15701,-3.23296 c 0.38427,0.57575 0.64802,1.27056 0.79125,2.08444 0.14317,0.81392 0.21477,1.62782 0.2148,2.4417 l 0,26.57379 -6.89551,0 0,-24.05976 c -2e-5,-2.53812 -1.12516,-3.80719 -3.37542,-3.80721 -1.00534,2e-5 -1.81924,0.38323 -2.44171,1.14961 -0.62249,0.76644 -0.93373,1.65231 -0.93372,2.6576 l 0,24.05976 -6.89551,0 0,-34.18822 6.89551,0 0,3.30528 c 1.53281,-2.48989 3.664,-3.73485 6.39358,-3.73488 2.7763,3e-5 4.85854,1.17266 6.24673,3.51789 l 0,0 z m 26.51241,0 c 0.38428,0.57575 0.64803,1.27056 0.79125,2.08444 0.14318,0.81392 0.21478,1.62782 0.2148,2.4417 l 0,26.57379 -6.89551,0 0,-24.05976 c -1e-5,-2.53812 -1.12516,-3.80719 -3.37542,-3.80721 -1.00534,2e-5 -1.81924,0.38323 -2.4417,1.14961 -0.6225,0.76644 -0.93374,1.65231 -0.93373,2.6576 l 0,24.05976 -6.8955,0 0,-34.18822 6.8955,0 0,3.30528 c 1.53282,-2.48989 3.66401,-3.73485 6.39358,-3.73488 2.77631,3e-5 4.85855,1.17266 6.24673,3.51789 l 0,0 z m 5.61329,31.09993 0,-5.67466 10.98766,-22.6241 -10.1986,0 0,-5.88946 17.88536,0 0,4.95573 -10.98986,22.69644 10.98986,0 0,6.53605 -18.67442,0 z m 32.87093,-6.53605 c 1.00677,1e-5 1.82103,-0.31123 2.4428,-0.93372 0.62173,-0.62247 1.00494,-1.43637 1.14961,-2.4417 l 6.82318,0 0,0.78906 c -2e-5,1.05355 -0.22761,2.10709 -0.68276,3.16062 -0.45519,1.05355 -1.40096,2.38253 -2.83732,3.98695 -1.4364,1.60442 -3.68668,2.40663 -6.75085,2.40663 -1.96389,0 -3.77179,-0.52677 -5.42369,-1.58031 -1.65192,-1.05354 -2.78912,-2.21485 -3.41159,-3.48392 -0.62249,-1.26907 -1.01738,-2.41832 -1.18469,-3.44776 -0.16731,-1.02942 -0.25096,-2.04679 -0.25096,-3.05213 l 0,-12.99976 c 0,-2.82452 1.01737,-5.27827 3.05213,-7.36127 2.03474,-2.08294 4.46512,-3.12443 7.29113,-3.12446 2.92097,3e-5 5.35098,1.01741 7.29004,3.05213 1.93902,2.03478 2.90854,4.51264 2.90856,7.4336 l 0,9.47968 -13.64635,0 0,5.1004 c -1e-5,0.71747 0.34703,1.39949 1.04112,2.04607 0.69407,0.6466 1.42395,0.9699 2.18964,0.96989 l 0,0 z m 0.14466,-21.33092 c -0.91035,2e-5 -1.70051,0.31126 -2.37047,0.93372 -0.66998,0.6225 -1.00496,1.72353 -1.00495,3.30309 l 0,3.37542 6.75084,0 0,-3.37542 c -10e-6,-1.24494 -0.2634,-2.26231 -0.79015,-3.05213 -0.52679,-0.78976 -1.38854,-1.18466 -2.58527,-1.18468 l 0,0 z m 15.69353,27.86697 0,-34.18822 6.8955,0 0,34.18822 -6.8955,0 z m 0,-41.15387 0,-6.75084 6.8955,0 0,6.75084 -6.8955,0 z m 32.87312,31.31473 c -3e-5,2.82455 -1.02946,5.2425 -3.0883,7.25387 -2.05888,2.01137 -4.50131,3.01706 -7.3273,3.01706 -1.53137,0 -3.0514,-0.39526 -4.56011,-1.18578 -1.50871,-0.79052 -2.64591,-1.7363 -3.41158,-2.83733 -0.76569,-1.10103 -1.30415,-2.22617 -1.61539,-3.37543 -0.31124,-1.14924 -0.46686,-2.32223 -0.46686,-3.51898 l 0,-13.35923 c 0,-2.82452 0.96952,-5.32613 2.90857,-7.50484 1.93903,-2.17865 4.34493,-3.26799 7.2177,-3.26802 2.96919,3e-5 5.43537,1.05321 7.39854,3.15953 1.96313,2.10638 2.9447,4.64415 2.94473,7.61333 l -6.82318,0 c -2e-5,-1.05352 -0.2992,-1.98724 -0.89756,-2.80116 -0.59838,-0.81388 -1.42434,-1.22083 -2.47786,-1.22085 -0.6225,2e-5 -1.16132,0.13153 -1.61648,0.39453 -0.45518,0.26304 -0.86213,0.66999 -1.22085,1.22085 -0.35874,0.5509 -0.53811,1.35311 -0.5381,2.40663 l 0,13.35923 c -10e-6,1.24497 0.26338,2.22654 0.79016,2.94472 0.52676,0.7182 1.41189,1.0773 2.6554,1.07729 1.00677,1e-5 1.80935,-0.37114 2.40773,-1.11345 0.59836,-0.74229 0.89754,-1.64021 0.89756,-2.69376 l 6.82318,0 0,0.43179 z m 18.29523,-24.77868 c 1.24494,3e-5 2.4183,0.33502 3.52008,1.00496 1.10175,0.67 1.8919,1.4481 2.37047,2.3343 0.47853,0.88626 0.77771,1.64061 0.89756,2.26307 0.1198,0.6225 0.17971,1.4364 0.17973,2.4417 l 0,26.57379 -6.89551,0 0,-23.98962 c -2e-5,-1.1485 -0.2634,-2.08185 -0.79016,-2.80007 -0.52678,-0.71816 -1.36443,-1.07726 -2.51293,-1.07728 -1.00534,2e-5 -1.83129,0.39492 -2.47787,1.18468 -0.6466,0.78982 -0.9699,1.68737 -0.96989,2.69267 l 0,23.98962 -6.8955,0 0,-47.90471 6.8955,0 0,17.02177 c 1.57957,-2.48989 3.80574,-3.73485 6.67852,-3.73488 l 0,0 z m 32.54215,3.51789 c 0.38428,0.57575 0.64803,1.27056 0.79125,2.08444 0.14318,0.81392 0.21478,1.62782 0.2148,2.4417 l 0,26.57379 -6.89551,0 0,-24.05976 c -10e-6,-2.53812 -1.12515,-3.80719 -3.37542,-3.80721 -1.00533,2e-5 -1.81923,0.38323 -2.4417,1.14961 -0.62249,0.76644 -0.93373,1.65231 -0.93372,2.6576 l 0,24.05976 -6.89551,0 0,-34.18822 6.89551,0 0,3.30528 c 1.53281,-2.48989 3.664,-3.73485 6.39358,-3.73488 2.7763,3e-5 4.85854,1.17266 6.24672,3.51789 l 0,0 z m 16.60095,24.56388 c 1.00677,1e-5 1.82104,-0.31123 2.4428,-0.93372 0.62173,-0.62247 1.00494,-1.43637 1.14962,-2.4417 l 6.82317,0 0,0.78906 c -2e-5,1.05355 -0.2276,2.10709 -0.68275,3.16062 -0.4552,1.05355 -1.40097,2.38253 -2.83733,3.98695 -1.4364,1.60442 -3.68668,2.40663 -6.75085,2.40663 -1.96389,0 -3.77179,-0.52677 -5.42369,-1.58031 -1.65192,-1.05354 -2.78911,-2.21485 -3.41159,-3.48392 -0.62248,-1.26907 -1.01738,-2.41832 -1.18468,-3.44776 -0.16732,-1.02942 -0.25097,-2.04679 -0.25097,-3.05213 l 0,-12.99976 c 0,-2.82452 1.01737,-5.27827 3.05213,-7.36127 2.03474,-2.08294 4.46512,-3.12443 7.29113,-3.12446 2.92097,3e-5 5.35098,1.01741 7.29004,3.05213 1.93902,2.03478 2.90854,4.51264 2.90856,7.4336 l 0,9.47968 -13.64635,0 0,5.1004 c -1e-5,0.71747 0.34703,1.39949 1.04112,2.04607 0.69407,0.6466 1.42395,0.9699 2.18964,0.96989 l 0,0 z m 0.14466,-21.33092 c -0.91035,2e-5 -1.70051,0.31126 -2.37047,0.93372 -0.66998,0.6225 -1.00496,1.72353 -1.00495,3.30309 l 0,3.37542 6.75085,0 0,-3.37542 c -2e-5,-1.24494 -0.26341,-2.26231 -0.79016,-3.05213 -0.52679,-0.78976 -1.38854,-1.18466 -2.58527,-1.18468 l 0,0 z m 25.96446,21.33092 1.58031,0 0,6.53605 -2.15457,0 c -1.29319,0 -2.44244,-0.13151 -3.44775,-0.39453 -1.00533,-0.26302 -1.98691,-0.80185 -2.94473,-1.61648 -0.95784,-0.81463 -1.62817,-1.71255 -2.01101,-2.69376 -0.38284,-0.98121 -0.57426,-2.19 -0.57426,-3.62639 l 0,-20.46953 -3.37542,0 0,-5.38753 3.37542,0 0,-10.34107 6.89551,0 0,10.34107 4.23681,0 0,5.38753 -4.23681,0 0,19.24868 c -1e-5,1.14853 0.15561,1.93832 0.46686,2.36937 0.31123,0.43107 1.04111,0.6466 2.18964,0.64659 l 0,0 z m 16.25462,0 c 1.00677,1e-5 1.82103,-0.31123 2.4428,-0.93372 0.62173,-0.62247 1.00494,-1.43637 1.14962,-2.4417 l 6.82317,0 0,0.78906 c -2e-5,1.05355 -0.22761,2.10709 -0.68275,3.16062 -0.4552,1.05355 -1.40097,2.38253 -2.83733,3.98695 -1.4364,1.60442 -3.68668,2.40663 -6.75085,2.40663 -1.96389,0 -3.77179,-0.52677 -5.42369,-1.58031 -1.65192,-1.05354 -2.78911,-2.21485 -3.41159,-3.48392 -0.62248,-1.26907 -1.01738,-2.41832 -1.18469,-3.44776 -0.16731,-1.02942 -0.25096,-2.04679 -0.25096,-3.05213 l 0,-12.99976 c 0,-2.82452 1.01737,-5.27827 3.05213,-7.36127 2.03474,-2.08294 4.46512,-3.12443 7.29113,-3.12446 2.92097,3e-5 5.35098,1.01741 7.29004,3.05213 1.93902,2.03478 2.90854,4.51264 2.90856,7.4336 l 0,9.47968 -13.64635,0 0,5.1004 c -1e-5,0.71747 0.34703,1.39949 1.04112,2.04607 0.69407,0.6466 1.42395,0.9699 2.18964,0.96989 l 0,0 z m 0.14466,-21.33092 c -0.91035,2e-5 -1.70051,0.31126 -2.37047,0.93372 -0.66998,0.6225 -1.00496,1.72353 -1.00495,3.30309 l 0,3.37542 6.75084,0 0,-3.37542 c -10e-6,-1.24494 -0.2634,-2.26231 -0.79015,-3.05213 -0.52679,-0.78976 -1.38854,-1.18466 -2.58527,-1.18468 l 0,0 z m 35.15701,-3.23296 c 0.38428,0.57575 0.64803,1.27056 0.79125,2.08444 0.14318,0.81392 0.21478,1.62782 0.2148,2.4417 l 0,26.57379 -6.89551,0 0,-24.05976 c -1e-5,-2.53812 -1.12515,-3.80719 -3.37542,-3.80721 -1.00533,2e-5 -1.81923,0.38323 -2.4417,1.14961 -0.62249,0.76644 -0.93373,1.65231 -0.93372,2.6576 l 0,24.05976 -6.89551,0 0,-34.18822 6.89551,0 0,3.30528 c 1.53281,-2.48989 3.664,-3.73485 6.39357,-3.73488 2.77631,3e-5 4.85855,1.17266 6.24673,3.51789 l 0,0 z"
       id="text3931"
       style="font-size:71.8219986px;font-style:normal;font-variant:normal;font-weight:normal;font-stretch:normal;text-align:center;line-height:100%;text-anchor:middle;fill:black;fill-opacity:1;stroke:none" />
    <path
       d="m 89.759789,228.79082 0,-47.90471 20.397201,0 0,6.46371 -13.646354,0 0,14.36309 11.993714,0 0,6.39358 -11.993714,0 0,20.68433 -6.750847,0 z m 32.548731,-47.90471 0,38.06557 c -1e-5,1.14853 0.19141,1.98617 0.57426,2.51294 0.38283,0.52677 1.14924,0.79016 2.29923,0.79015 l 0.50193,0 0,6.53605 -1.50798,0 c -1.10177,0 -2.1312,-0.11982 -3.0883,-0.35946 -0.9571,-0.23964 -1.91457,-0.73025 -2.87239,-1.47182 -0.95784,-0.74157 -1.66434,-1.69903 -2.11951,-2.8724 -0.45517,-1.17335 -0.68275,-2.43073 -0.68275,-3.77214 l 0,-39.42889 6.89551,0 z m 7.77005,44.31449 c -0.33609,-0.57572 -0.55198,-1.21062 -0.64769,-1.90471 -0.0957,-0.69407 -0.14357,-1.47217 -0.14356,-2.3343 l 0,-3.87735 c -1e-5,-2.53813 0.63453,-4.42968 1.9036,-5.67466 1.26907,-1.24494 2.41832,-2.09464 3.44776,-2.5491 1.02942,-0.45442 2.26232,-0.68164 3.69872,-0.68166 l 4.59627,0 0,-2.94583 c -1e-5,-0.67067 -0.0358,-1.22119 -0.1074,-1.65154 -0.0716,-0.43031 -0.3708,-0.98082 -0.89755,-1.65155 -0.52679,-0.67067 -1.24535,-1.00602 -2.15567,-1.00605 -0.95712,3e-5 -1.77102,0.31127 -2.44171,0.93372 -0.67071,0.62251 -1.07766,1.43641 -1.22085,2.4417 l -6.82317,0 c -1e-5,-2.77629 0.99362,-5.15808 2.98089,-7.14538 1.98725,-1.98722 4.39315,-2.98085 7.21771,-2.98089 2.77777,4e-5 5.19609,0.98161 7.25497,2.94473 2.05884,1.96318 3.08827,4.35703 3.08829,7.18154 l 0,24.49155 -6.89551,0 0,-3.44776 c -0.71747,1.19675 -1.61503,2.14252 -2.69267,2.83733 -1.07766,0.69481 -2.28719,1.04222 -3.62858,1.04222 -3.01597,0 -5.19392,-1.34067 -6.53385,-4.02201 l 0,0 z m 6.10425,-8.18869 0,1.72278 c -1e-5,0.91035 0.32329,1.73667 0.96989,2.47896 0.64658,0.74231 1.49591,1.11346 2.54801,1.11345 0.5757,1e-5 1.1149,-0.14356 1.61757,-0.43069 0.50265,-0.28713 0.88549,-0.68202 1.14852,-1.18469 0.263,-0.50265 0.40657,-1.14924 0.4307,-1.93977 0.0241,-0.79051 0.0362,-1.35308 0.0362,-1.68771 l 0,-3.30529 -2.58636,0 c -1.24498,2e-5 -2.2503,0.23966 -3.01597,0.71892 -0.76569,0.4793 -1.14853,1.31731 -1.14852,2.51404 l 0,0 z m 7.36895,-28.73494 0,-7.9717 5.95959,0 0,7.9717 -5.95959,0 z m -12.92963,0 0,-7.9717 5.96179,0 0,7.9717 -5.96179,0 z m 45.15835,30.67471 c -2e-5,2.82455 -1.02945,5.2425 -3.08829,7.25387 -2.05888,2.01137 -4.50132,3.01706 -7.3273,3.01706 -1.53138,0 -3.05141,-0.39526 -4.56011,-1.18578 -1.50872,-0.79052 -2.64592,-1.7363 -3.41159,-2.83733 -0.76569,-1.10103 -1.30415,-2.22617 -1.61538,-3.37542 -0.31125,-1.14925 -0.46687,-2.32224 -0.46686,-3.51899 l 0,-13.35923 c -1e-5,-2.82451 0.96951,-5.32612 2.90856,-7.50484 1.93903,-2.17864 4.34493,-3.26798 7.21771,-3.26802 2.96918,4e-5 5.43536,1.05321 7.39853,3.15953 1.96313,2.10638 2.94471,4.64416 2.94473,7.61333 l -6.82318,0 c -2e-5,-1.05351 -0.2992,-1.98723 -0.89755,-2.80116 -0.59839,-0.81387 -1.42435,-1.22082 -2.47787,-1.22085 -0.6225,3e-5 -1.16132,0.13154 -1.61648,0.39453 -0.45518,0.26305 -0.86213,0.67 -1.22085,1.22085 -0.35874,0.55091 -0.53811,1.35312 -0.5381,2.40663 l 0,13.35923 c -1e-5,1.24497 0.26338,2.22654 0.79016,2.94473 0.52676,0.71819 1.41189,1.07729 2.65541,1.07728 1.00676,1e-5 1.80934,-0.37114 2.40773,-1.11345 0.59835,-0.74229 0.89753,-1.64021 0.89755,-2.69376 l 6.82318,0 0,0.43179 z M 194.07572,194.173 c 1.24495,4e-5 2.41831,0.33502 3.52009,1.00496 1.10174,0.67 1.89189,1.4481 2.37046,2.3343 0.47853,0.88626 0.77772,1.64062 0.89756,2.26307 0.1198,0.62251 0.17971,1.43641 0.17973,2.4417 l 0,26.57379 -6.89551,0 0,-23.98962 c -1e-5,-1.14849 -0.2634,-2.08185 -0.79015,-2.80007 -0.52679,-0.71816 -1.36443,-1.07725 -2.51294,-1.07728 -1.00533,3e-5 -1.83129,0.39492 -2.47787,1.18468 -0.6466,0.78982 -0.96989,1.68738 -0.96988,2.69267 l 0,23.98962 -6.89551,0 0,-47.90471 6.89551,0 0,17.02178 c 1.57957,-2.48989 3.80574,-3.73485 6.67851,-3.73489 l 0,0 z m 22.63068,28.08177 c 1.00677,1e-5 1.82104,-0.31123 2.4428,-0.93372 0.62174,-0.62247 1.00494,-1.43637 1.14962,-2.4417 l 6.82318,0 0,0.78906 c -3e-5,1.05355 -0.22761,2.10709 -0.68276,3.16062 -0.45519,1.05355 -1.40097,2.38253 -2.83733,3.98695 -1.4364,1.60442 -3.68668,2.40663 -6.75085,2.40663 -1.96389,0 -3.77179,-0.52677 -5.42369,-1.58031 -1.65192,-1.05354 -2.78911,-2.21485 -3.41159,-3.48392 -0.62248,-1.26907 -1.01738,-2.41832 -1.18468,-3.44776 -0.16732,-1.02942 -0.25097,-2.04679 -0.25097,-3.05212 l 0,-12.99977 c 0,-2.82451 1.01737,-5.27827 3.05213,-7.36127 2.03474,-2.08294 4.46512,-3.12442 7.29113,-3.12446 2.92097,4e-5 5.35098,1.01741 7.29004,3.05213 1.93902,2.03478 2.90854,4.51265 2.90857,7.4336 l 0,9.47968 -13.64636,0 0,5.1004 c -1e-5,0.71747 0.34703,1.39949 1.04112,2.04607 0.69407,0.6466 1.42395,0.9699 2.18964,0.96989 l 0,0 z m 0.14466,-21.33092 c -0.91035,3e-5 -1.7005,0.31127 -2.37046,0.93372 -0.66998,0.62251 -1.00497,1.72354 -1.00496,3.30309 l 0,3.37543 6.75085,0 0,-3.37543 c -2e-5,-1.24493 -0.2634,-2.26231 -0.79016,-3.05213 -0.52678,-0.78976 -1.38854,-1.18465 -2.58527,-1.18468 l 0,0 z m 35.15701,-3.23296 c 0.38428,0.57576 0.64803,1.27057 0.79125,2.08444 0.14318,0.81393 0.21478,1.62783 0.2148,2.4417 l 0,26.57379 -6.89551,0 0,-24.05976 c -1e-5,-2.53811 -1.12515,-3.80718 -3.37542,-3.80721 -1.00533,3e-5 -1.81923,0.38323 -2.4417,1.14961 -0.62249,0.76644 -0.93373,1.65231 -0.93372,2.6576 l 0,24.05976 -6.89551,0 0,-34.18822 6.89551,0 0,3.30529 c 1.53281,-2.48989 3.664,-3.73485 6.39358,-3.73489 2.7763,4e-5 4.85854,1.17267 6.24672,3.51789 l 0,0 z m 52.40892,31.09993 -20.3972,0 0,-6.32125 12.71263,-24.70635 c 0.57425,-1.14848 0.86138,-2.32111 0.86139,-3.51789 l 0,-3.59241 c -1e-5,-0.95707 -0.335,-1.77097 -1.00495,-2.44171 -0.66999,-0.67066 -1.48425,-1.00601 -2.4428,-1.00605 -0.86067,4e-5 -1.63841,0.29959 -2.33321,0.89865 -0.69482,0.59915 -1.04222,1.35314 -1.04221,2.26198 l 0,4.23681 -6.89332,0 0,-3.44556 c 0,-1.8674 0.70613,-4.11805 2.11841,-6.75194 1.41226,-2.63381 4.24886,-3.95074 8.50979,-3.95078 2.68133,4e-5 5.00357,1.02947 6.96674,3.08829 1.96313,2.0589 2.94471,4.429 2.94473,7.11031 l 0,4.38147 c -2e-5,1.00536 -0.13153,1.98693 -0.39453,2.94473 -0.26304,0.95786 -0.6583,1.93944 -1.18578,2.94473 l -10.77286,21.04379 12.35317,0 0,6.82318 z m 23.51181,-11.92138 c -1e-5,0.90889 0.0358,1.59091 0.1074,2.04607 0.0716,0.45518 0.43069,1.14963 1.07729,2.08334 0.64658,0.93373 1.83126,1.40059 3.55405,1.40058 0.95855,1e-5 1.84478,-0.20347 2.6587,-0.61042 0.81388,-0.40695 1.41225,-0.93372 1.79511,-1.58032 0.38282,-0.64658 0.5863,-1.31691 0.61043,-2.011 0.0241,-0.69407 0.0361,-1.16093 0.0362,-1.40058 l 0,-3.37543 c -2e-5,-0.95854 -0.0358,-1.6771 -0.1074,-2.15567 -0.0716,-0.47853 -0.35911,-0.99324 -0.86249,-1.54414 -0.5034,-0.55086 -1.22159,-1.05352 -2.15457,-1.50798 -0.933,-0.45442 -2.5608,-1.1127 -4.8834,-1.97485 -2.32262,-0.86209 -4.27408,-2.21482 -5.85439,-4.05818 -1.58032,-1.8433 -2.37047,-4.36938 -2.37047,-7.57826 l 0,-2.15457 c 0,-3.25557 1.08934,-6.06842 3.26803,-8.43856 2.17867,-2.37006 4.89581,-3.55511 8.15142,-3.55515 3.30381,4e-5 6.06917,1.16135 8.29609,3.48391 2.22688,2.32266 3.34033,5.15925 3.34036,8.5098 l 0,2.15457 -6.82318,0 0,-2.15457 c -2e-5,-0.6692 -0.0479,-1.24346 -0.14356,-1.72278 -0.0957,-0.47925 -0.47894,-1.17369 -1.14962,-2.08334 -0.67072,-0.90957 -1.79586,-1.36438 -3.37542,-1.36442 -1.38818,4e-5 -2.52537,0.49101 -3.41159,1.47291 -0.88624,0.98199 -1.32936,2.21453 -1.32935,3.69763 l 0,2.15457 c -10e-6,0.91038 0.0362,1.56902 0.1085,1.97594 0.0723,0.40698 0.32365,0.87384 0.75399,1.40058 0.43032,0.5268 1.0528,0.98161 1.86744,1.36442 0.81462,0.38287 2.38287,0.99329 4.70477,1.83127 2.32186,0.83804 4.36867,2.20282 6.14042,4.09435 1.77171,1.89157 2.65757,4.46515 2.6576,7.72073 l 0,3.87955 c -3e-5,1.57959 -0.15565,2.96775 -0.46686,4.16448 -0.31127,1.19675 -1.28079,2.86071 -2.90857,4.9919 -1.62782,2.13119 -4.42898,3.19679 -8.40349,3.19679 -4.11773,0 -7.11031,-1.35273 -8.97774,-4.05818 -1.86745,-2.70545 -2.80117,-5.47044 -2.80117,-8.29499 l 0,-1.72498 6.89551,0 0,1.72498 z m 32.29886,5.38533 1.58031,0 0,6.53605 -2.15457,0 c -1.29319,0 -2.44244,-0.13151 -3.44775,-0.39453 -1.00533,-0.26302 -1.98691,-0.80185 -2.94473,-1.61648 -0.95784,-0.81463 -1.62817,-1.71255 -2.01101,-2.69376 -0.38284,-0.98121 -0.57426,-2.19 -0.57426,-3.62639 l 0,-20.46953 -3.37542,0 0,-5.38753 3.37542,0 0,-10.34107 6.89551,0 0,10.34107 4.23681,0 0,5.38753 -4.23681,0 0,19.24868 c -1e-5,1.14853 0.15561,1.93832 0.46686,2.36937 0.31123,0.43107 1.04111,0.6466 2.18964,0.64659 l 0,0 z m 20.13417,6.53605 0,-3.52009 c -0.67072,1.14999 -1.55659,2.09613 -2.6576,2.83843 -1.10104,0.7423 -2.32226,1.11345 -3.66365,1.11345 -3.11241,0 -5.07556,-0.85007 -5.88946,-2.5502 -0.8139,-1.70013 -1.25665,-2.92134 -1.32825,-3.66365 -0.0716,-0.74229 -0.1074,-1.73592 -0.1074,-2.98089 l 0,-18.45743 c 0,-2.05883 0.69408,-3.80645 2.08224,-5.24287 1.38816,-1.43634 3.13578,-2.15453 5.24287,-2.15457 1.29317,4e-5 2.50233,0.33502 3.62748,1.00496 1.12513,0.67 2.02305,1.55587 2.69377,2.65759 l 0,-16.94944 6.8955,0 0,47.90471 -6.8955,0 z m -0.50412,-26.21433 c -0.66926,-1.14995 -1.65047,-1.72494 -2.94364,-1.72497 -0.67071,3e-5 -1.28114,0.17976 -1.83127,0.53919 -0.55016,0.35949 -0.92131,0.79055 -1.11346,1.29318 -0.19216,0.50269 -0.29992,1.02946 -0.32329,1.58031 -0.0234,0.55091 -0.0351,0.96955 -0.0351,1.25592 l 0,12.28085 c -10e-6,0.47929 0.0117,0.95857 0.0351,1.43784 0.0234,0.47929 0.25059,1.10177 0.68166,1.86744 0.43105,0.76569 1.31728,1.14853 2.65869,1.14852 1.38815,1e-5 2.29776,-0.38283 2.72884,-1.14852 0.43104,-0.76567 0.64657,-1.53208 0.64659,-2.29923 l 0,-1.00605 0,-12.28085 c -2e-5,-0.47925 -0.0121,-0.97022 -0.0362,-1.47291 -0.0241,-0.50263 -0.18011,-0.99287 -0.46795,-1.47072 l 0,0 z m 13.73623,26.21433 0,-6.82318 6.82317,0 0,6.82318 -6.82317,0 z"
       id="text3938"
       style="font-size:71.8219986px;font-style:normal;font-variant:normal;font-weight:normal;font-stretch:normal;text-align:center;line-height:100%;text-anchor:middle;fill:black;fill-opacity:1;stroke:none" />
  </g>
  <g
     transform="matrix(0.08343434,0,0,-0.08343434,319.05717,113.86884)"
     id="g2826"
     style="opacity:0.8516498">
    <g
       transform="matrix(2.0525389,0,0,2.0525389,-1.0523742,-1.0523742)"
       id="g3657">
      <path
         d="m 0.9998436,0.9998436 0,425.1945564 311.8089564,0 0,-425.1945564 -311.8089564,0 z"
         id="path2834"
         style="fill:#154889;fill-opacity:1;fill-rule:nonzero;stroke:none" />
      <path
         d="M 141.84375,223.71875 74,280.65625 c 30.29595,36.105 74.9926,56.96875 122.125,56.96875 47.1315,0 91.86075,-20.86375 122.15625,-56.96875 l -67.875,-56.9375 c -13.4655,16.047 -33.33525,25.3125 -54.28125,25.3125 -20.9475,0 -40.8177,-9.2655 -54.28125,-25.3125 z"
         transform="matrix(0.8,0,0,-0.8,0,427)"
         id="path2830"
         style="fill:white;fill-opacity:1;fill-rule:nonzero;stroke:none" />
      <path
         d="m 125.9148,233.6184 2.4528,-1.416 -4.2516,-7.3644 -2.454,1.4172 4.2528,7.3632 z m -23.50788,-28.9788 4.20792,-2.43 -0.75888,-1.314 c -0.21288,-0.3696 -0.32484,-0.7884 -0.32484,-1.2156 0,-1.3416 1.08696,-2.4288 2.42904,-2.4288 0.8676,0 1.66968,0.4632 2.10372,1.2144 l 4.10016,7.1016 c 0.21288,0.3684 0.3258,0.7884 0.3258,1.2144 0,1.3428 -1.08792,2.43 -2.43,2.43 -0.6576,0 -1.28904,-0.2676 -1.74564,-0.7404 l -3.73728,2.178 9.11196,15.7812 12.09912,-6.9852 -2.2776,-3.9468 -8.41764,4.86 -4.5768,-7.9284 c 0.43128,0.1008 0.8718,0.1524 1.31484,0.1524 3.18696,0 5.77032,-2.5836 5.77032,-5.7708 0,-1.0128 -0.26628,-2.0076 -0.77304,-2.8848 l -4.55532,-7.8912 c -1.30164,-2.2548 -3.70872,-3.6432 -6.3126,-3.6432 -4.02516,0 -7.28904,3.2628 -7.28904,7.2876 0,1.2804 0.33696,2.5368 0.9768,3.6456 l 0.759,1.314 z m -7.5108,-15.4188 0.85968,1.4904 2.01,0.2436 1.4034,-0.8124 -5.66904,-9.8184 -1.40292,0.81 4.80888,8.3292 -2.01,-0.2424 z m 1.41,-10.5168 8.19096,6.4944 -2.63112,1.5168 -0.81,-1.4028 -1.40208,0.81 1.61904,2.8068 5.61192,-3.24 -0.75984,-1.3152 -8.24112,-6.5808 -1.57776,0.9108 z m 59.18148,46.2312 2.8344,0 0,-8.5032 -2.8344,0 0,8.5032 z m 1.4208,-11.3376 5.4672,0 -5.6052,-14.3352 c 0.6252,0.24 1.2912,0.3648 1.9608,0.3648 3.0192,0 5.4672,-2.448 5.4672,-5.4672 l -0.001,-7.5924 c 0,-4.026 -3.2628,-7.29 -7.2888,-7.29 -4.026,0 -7.2888,3.264 -7.2888,7.29 l 0,6.378 c 0,0.8784 0.1584,1.7496 0.4692,2.5716 l 6.8196,18.0804 z m -2.43,-27.03 c 0,-1.3428 1.0884,-2.43 2.43,-2.43 1.3416,0 2.43,1.0872 2.43,2.43 l 0,6.378 c 0,1.3416 -1.0884,2.4288 -2.43,2.4288 -1.3416,0 -2.43,-1.0872 -2.43,-2.4288 l 0,-6.378 z m -3.8532,-15.5916 0,1.7208 1.62,1.2156 1.62,0 0,-11.3376 -1.62,0 0,9.6168 -1.62,-1.2156 z m 6.9876,-2.5044 c -0.7044,0.5568 -1.116,1.404 -1.116,2.3028 l 0,0 c 0,1.788 1.4508,3.24 3.24,3.24 1.7892,0 3.24,-1.452 3.24,-3.24 l 0,0 c 0,-0.8988 -0.4116,-1.746 -1.116,-2.3028 l 0,0 c 0.8268,-0.5892 1.3176,-1.542 1.3176,-2.556 l 0,0 c 0,-1.9008 -1.5408,-3.4428 -3.4416,-3.4428 -1.9008,0 -3.4416,1.542 -3.4416,3.4428 0,1.014 0.4908,1.9668 1.3176,2.556 z m 0.3024,-2.556 c 0,1.0056 0.816,1.8216 1.8216,1.8216 1.008,0 1.8228,-0.816 1.8228,-1.8216 0,-1.008 -0.8148,-1.824 -1.8228,-1.824 -1.0056,0 -1.8216,0.816 -1.8216,1.824 z m 0.2016,4.8588 c 0,0.894 0.726,1.62 1.62,1.62 0.8952,0 1.62,-0.726 1.62,-1.62 0,-0.894 -0.7248,-1.62 -1.62,-1.62 -0.894,0 -1.62,0.726 -1.62,1.62 z m 27.324,61.428 2.4552,1.416 4.2516,-7.3632 -2.4552,-1.4172 -4.2516,7.3644 z m 4.8396,-20.118 -4.2528,7.3644 12.6252,7.2888 2.2788,-3.9444 7.6284,-29.6136 -4.4724,-2.5812 -7.3644,29.7648 -4.7352,-2.7336 1.9752,-3.42 -3.6828,-2.1252 z m 18.102,-28.9428 -0.8604,1.4892 0.7956,1.8624 1.4028,0.81 5.6688,-9.8196 -1.404,-0.8088 -4.8084,8.328 -0.7944,-1.8612 z m 11.7408,-2.9244 -1.578,-0.912 -0.3324,5.4144 c -0.498,-0.6456 -1.2672,-1.0248 -2.0844,-1.0248 -0.9408,0 -1.8096,0.5004 -2.28,1.3164 l -0.456,0.7884 c -0.2832,0.4932 -0.4332,1.0512 -0.4332,1.62 0,1.7892 1.4496,3.24 3.24,3.24 1.1568,0 2.226,-0.618 2.8056,-1.62 l 0.252,-0.438 c 0.2508,-0.4332 0.3972,-0.9168 0.4284,-1.416 l 0.438,-6.9684 z m -5.328,6.3924 0.2532,-0.438 c 0.2892,-0.5016 0.8244,-0.81 1.404,-0.81 0.8928,0 1.62,0.726 1.62,1.62 0,0.2844 -0.0756,0.564 -0.2172,0.81 l -0.2544,0.438 c -0.2892,0.5016 -0.8232,0.81 -1.4016,0.81 -0.8952,0 -1.62,-0.7248 -1.62,-1.62 0,-0.2844 0.0756,-0.564 0.216,-0.81 z m -43.1676,40.1712 1.368,0.366 2.202,-8.214 -1.3692,-0.3672 -2.2008,8.2152 z m 26.868,15.0888 1.002,1.002 6.0132,-6.0132 -1.002,-1.0008 -6.0132,6.012 z m -84.1848,1.002 1.00212,-1.002 -6.01308,-6.012 -1.00176,1.0008 6.01272,6.0132 z m 26.502,-15.7248 1.3692,-0.366 -2.2008,-8.2152 -1.3692,0.3672 2.2008,8.214"
         id="path2832"
         style="fill:#231f20;fill-opacity:1;fill-rule:evenodd;stroke:none" />
      <path
         d="m 87.49404,369.5016 5.18904,14.1732 1.77096,0 5.18904,-14.1732 -2.27808,0 -1.06692,3.1632 -5.46,0 -1.06584,-3.1632 -2.2782,0 z m 3.98388,5.0616 4.17984,0 -2.08968,6.2016 -2.09016,-6.2016 z m 10.18932,-5.0616 0,14.1732 2.025,0 6.45372,-10.1232 0,10.1232 2.15112,0 0,-14.1732 -2.025,0 -6.45288,10.1232 0,-10.1232 -2.15196,0 z m 13.92,0 0,14.1732 2.15196,0 0,-7.3392 5.946,7.3392 2.532,0 -4.5552,-5.568 5.0604,-8.6052 -2.5308,0 -3.9216,6.96 -2.5308,-2.658 0,-4.302 -2.15196,0 z m 12.40116,14.1732 2.1516,0 0,-9.2376 c 0,-1.608 1.3032,-2.9112 2.9112,-2.9112 1.6068,0 2.91,1.3032 2.91,2.9112 l 0,9.2376 2.1504,0 0,-9.2376 c 0,-2.796 -2.2656,-5.0616 -5.0604,-5.0616 -2.796,0 -5.0628,2.2656 -5.0628,5.0616 l 0,9.2376 z m 13.1616,-14.1732 0,14.1732 2.0244,0 6.4536,-10.1232 0,10.1232 2.1504,0 0,-14.1732 -2.0232,0 -6.4536,10.1232 0,-10.1232 -2.1516,0 z m 13.92,0 0,14.1732 9.1116,0 0,-2.0244 -6.96,0 0,-4.176 5.9472,0 0,-1.8984 -5.9472,0 0,-6.0744 -2.1516,0 z m 14.2992,0 0,12.276 -3.924,0 0,1.8972 9.9996,0 0,-1.8972 -3.924,0 0,-12.276 -2.1516,0 z m 6.834,1.824 1.3896,1.6416 c 1.0968,-0.9288 2.4888,-1.4388 3.9252,-1.4388 0.4968,0 0.9912,0.06 1.4724,0.1812 l 0,0 c 0.8448,0.2112 1.4376,0.9708 1.4376,1.842 0,0.9516 -0.7056,1.7568 -1.6488,1.8816 l -2.2992,0.3036 c -2.0148,0.2676 -3.5184,1.9848 -3.5184,4.0152 0,2.0484 1.53,3.7728 3.5628,4.02 l 0,0 c 0.33,0.0396 0.6612,0.06 0.9936,0.06 1.6716,0 3.3048,-0.5076 4.6824,-1.4568 L 184.98,380.604 c -1.0188,0.7008 -2.226,1.0776 -3.462,1.0776 -0.246,0 -0.4908,-0.0156 -0.7356,-0.0456 l 0,0 c -0.9528,-0.1152 -1.6692,-0.924 -1.6692,-1.884 0,-0.9516 0.7056,-1.7568 1.6488,-1.8816 l 2.3004,-0.3048 c 2.0124,-0.2664 3.5172,-1.9836 3.5172,-4.014 0,-1.8588 -1.2648,-3.4788 -3.0672,-3.9288 l 0,0 c -0.6528,-0.1644 -1.3224,-0.246 -1.9944,-0.246 -1.9464,0 -3.8304,0.69 -5.3148,1.9488 z m 12.1476,-1.824 0,1.7712 6.4548,10.5048 -6.2016,0 0,1.8972 8.8584,0 0,-1.6452 -6.4536,-10.5036 6.4536,0 0,-2.0244 -9.1116,0 z m 11.8968,0 0,14.1732 9.1104,0 0,-2.0244 -6.96,0 0,-4.0488 5.9472,0 0,-1.8996 -5.9472,0 0,-4.176 6.96,0 0,-2.0244 -9.1104,0 z m 11.8944,0 0,14.1732 2.1504,0 0,-14.1732 -2.1504,0 z m 8.0988,0 0,12.276 -3.9228,0 0,1.8972 9.9972,0 0,-1.8972 -3.9228,0 0,-12.276 -2.1516,0"
         id="path2836"
         style="fill:white;fill-opacity:1;fill-rule:nonzero;stroke:none" />
      <path
         d="m 156.9048,241.9428 -24.6852,92.1264 49.3692,0 -24.684,-92.1264"
         id="path2838"
         style="fill:white;fill-opacity:1;fill-rule:nonzero;stroke:none" />
      <path
         d="m 107.7708,29.34612 c -4.17468,0 -7.55856,3.38484 -7.55856,7.55904 l 0,98.26644 c 0,4.176 3.38388,7.56 7.55856,7.56 l 98.2668,0 c 4.1748,0 7.56,-3.384 7.56,-7.56 l 0,-98.26644 c 0,-4.1742 -3.3852,-7.55904 -7.56,-7.55904 l -98.2668,0 z m 0,2.835 98.2668,0 c 2.61,0 4.7244,2.115 4.7244,4.72404 l 0,98.26644 c 0,2.61 -2.1144,4.7256 -4.7244,4.7256 l -98.2668,0 c -2.60856,0 -4.72356,-2.1156 -4.72356,-4.7256 l 0,-98.26644 c 0,-2.60904 2.115,-4.72404 4.72356,-4.72404 z m 21.732,14.17308 0,79.3698 31.182,0 c 13.3068,0 24.0936,-10.78788 24.0936,-24.0948 0,-13.30728 -10.7868,-24.0942 -24.0936,-24.0942 l -19.1352,0 0,-31.1808 -12.0468,0 z m 12.0468,42.51888 18.426,0 c 7.044,0 12.756,5.7108 12.756,12.75612 0,7.04484 -5.712,12.75564 -12.756,12.75564 l -18.426,0 0,-25.51176"
         id="path2840"
         style="fill:white;fill-opacity:1;fill-rule:nonzero;stroke:none" />
    </g>
  </g>
</svg>
