<?xml version="1.0" encoding="UTF-8" standalone="no"?>
<!-- Created with Inkscape (http://www.inkscape.org/) -->

<svg
   xmlns:dc="http://purl.org/dc/elements/1.1/"
   xmlns:cc="http://creativecommons.org/ns#"
   xmlns:rdf="http://www.w3.org/1999/02/22-rdf-syntax-ns#"
   xmlns:svg="http://www.w3.org/2000/svg"
   xmlns="http://www.w3.org/2000/svg"
   xmlns:sodipodi="http://sodipodi.sourceforge.net/DTD/sodipodi-0.dtd"
   xmlns:inkscape="http://www.inkscape.org/namespaces/inkscape"
   version="1.1"
   width="574.03436"
   height="315.75903"
   id="svg2"
   inkscape:version="0.48.3.1 r9886"
   sodipodi:docname="Zusatzzeichen_1014-52.svg">
  <metadata
     id="metadata8">
    <rdf:RDF>
      <cc:Work
         rdf:about="">
        <dc:format>image/svg+xml</dc:format>
        <dc:type
           rdf:resource="http://purl.org/dc/dcmitype/StillImage" />
        <dc:title />
      </cc:Work>
    </rdf:RDF>
  </metadata>
  <sodipodi:namedview
     pagecolor="#ffffff"
     bordercolor="#666666"
     borderopacity="1"
     objecttolerance="10"
     gridtolerance="10"
     guidetolerance="10"
     inkscape:pageopacity="0"
     inkscape:pageshadow="2"
     inkscape:window-width="1366"
     inkscape:window-height="706"
     id="namedview6"
     showgrid="false"
     inkscape:zoom="1.421822"
     inkscape:cx="287.01718"
     inkscape:cy="157.87952"
     inkscape:window-x="-8"
     inkscape:window-y="-8"
     inkscape:window-maximized="1"
     inkscape:current-layer="svg2" />
  <defs
     id="defs4">
    <inkscape:perspective
       sodipodi:type="inkscape:persp3d"
       inkscape:vp_x="0 : 157.87952 : 1"
       inkscape:vp_y="0 : 1000 : 0"
       inkscape:vp_z="574.03436 : 157.87952 : 1"
       inkscape:persp3d-origin="287.01718 : 105.25301 : 1"
       id="perspective10" />
  </defs>
  <g
     transform="translate(-277.10327,-713.12512)"
     id="layer1-1"
     style="fill:#ffffff;fill-opacity:1">
    <path
       inkscape:connector-curvature="0"
       d="m 306.13761,1028.2806 c -11.58546,-2.8592 -24.57954,-14.8864 -27.81889,-25.7489 -1.6206,-5.43435 -1.6206,-257.19699 0,-262.63132 3.33152,-11.17156 15.99762,-22.79102 27.54403,-25.26799 9.52558,-2.04345 508.56224,-1.9931 517.12432,0.0522 15.57942,6.2142 21.37549,14.05793 28.15055,27.03146 l 0,129.5 0,129.50005 -3.3059,6.3322 c -4.20028,8.0454 -10.31654,14.1617 -18.36189,18.3619 l -6.33221,3.3059 -257,0.1525 c -141.35,0.084 -258.35001,-0.1807 -260.00001,-0.588 z"
       id="path3050-7"
       style="fill:#ffffff;fill-opacity:1"
       sodipodi:nodetypes="csssccccsscscc" />
  </g>
  <g
     id="g2835">
    <g
       id="g2829">
      <g
         id="g2821">
        <path
           sodipodi:nodetypes="cssssccccccccccccccccssssscccccscccccccccccsscccccscccsccccccccscc"
           d="M 29.03434,315.15557 C 17.44887,312.29635 4.45479,300.26917 1.21545,289.40671 c -1.6206,-5.43433 -1.6206,-257.19697 0,-262.6313 C 4.54697,15.60385 17.21307,3.98439 28.75947,1.50742 c 9.52559,-2.04345 508.56221,-1.9931 517.12431,0.0522 9.9995,2.38864 19.3604,10.19926 24.8715,20.75239 l 3.2791,6.27907 0,129.5 0,129.5 -3.3059,6.33221 c -4.2003,8.04535 -10.3166,14.16161 -18.3619,18.36189 l -6.3322,3.3059 -257.00004,0.15245 c -141.35,0.0838 -258.35,-0.18073 -260,-0.58794 l 0,-2e-5 z m 523.27904,-3.84358 c 7.9621,-4.15797 13.2839,-9.47978 17.4419,-17.44186 l 3.2791,-6.27907 0,-129.5 0,-129.5 -3.2451,-6.21176 C 564.40418,12.07123 555.78428,4.9246 545.88378,2.5596 537.32168,0.51432 38.28506,0.46397 28.75947,2.5074 17.38094,4.94835 5.47982,15.82901 2.21545,26.77539 c -1.6206,5.43433 -1.6206,257.19697 0,262.6313 3.17744,10.65487 15.39515,21.92955 26.81889,24.74886 1.65,0.40721 118.65,0.67178 260,0.58794 l 257.00004,-0.15245 6.279,-3.27907 0,2e-5 z M 32.03434,305.06184 c -9.14263,-1.87377 -13.38805,-5.14781 -20.0608,-15.47078 -1.88936,-2.92289 -1.94601,-6.26332 -2.20428,-129.95904 L 9.50418,32.67298 12.13133,27.30328 C 15.46086,20.49797 19.9366,16.01986 26.73137,12.69549 l 5.35451,-2.61972 255.97423,0.25764 255.97427,0.25765 7.197,4.7916 c 6.0392,4.02071 7.648,5.70999 10,10.5 l 2.803,5.7084 0,127.20004 c 0,100.42672 -0.2631,127.46313 -1.25,128.45 -0.6875,0.68748 -1.25,1.95727 -1.25,2.82176 0,2.93867 -8.339,10.79064 -14.0218,13.20283 l -5.4782,2.32537 -253.00004,0.14529 c -139.15,0.0799 -254.8,-0.22362 -257,-0.67451 z m 510.59384,-15.51933 c 1.6471,-0.8517 3.873,-2.9892 4.9466,-4.75 1.9082,-3.12955 1.9522,-5.97722 1.9558,-126.80357 l 0,-123.60211 -2.25,-3.29628 c -1.2375,-1.81295 -3.818,-4.12949 -5.7344,-5.14788 -3.3647,-1.788 -12.1209,-1.85161 -254.86388,-1.85161 l -251.37945,0 -3.76827,2.11789 c -2.07255,1.16483 -4.72132,3.8136 -5.88615,5.88615 l -2.11789,3.76827 0,122.22769 0,122.22769 2.15656,3.83707 c 4.2311,7.52825 -19.98868,6.88715 261.1431,6.91247 226.3065,0.0204 253.11348,-0.13952 255.79418,-1.52578 l 0.004,0 z"
           id="path3082"
           style="fill:#000000" />
        <g
           style="font-size:16px;font-style:normal;font-weight:normal;writing-mode:tb-rl;fill:#000000;fill-opacity:1;stroke:none;font-family:Sans;-inkscape-font-specification:Sans"
           id="text2817">
          <path
             d="m 230.50546,242.1973 0,-167.185062 58.52051,0 c 22.87262,1.67e-4 39.85503,9.371088 50.94727,28.112792 4.13072,7.11439 6.65514,13.76966 7.57324,19.96582 0.91783,6.1964 1.37682,18.05349 1.37695,35.57129 -1.3e-4,18.81842 -0.63124,31.38311 -1.89331,37.69409 -1.26234,6.31108 -3.76763,12.37349 -7.51587,18.18726 -4.97245,7.80275 -11.79984,14.3624 -20.48218,19.67895 -8.68255,5.31657 -19.22005,7.97486 -31.61254,7.97486 z m 25.35889,-143.203129 0,119.335939 30.40771,0 c 13.92244,2e-5 24.24958,-4.85756 30.98145,-14.57276 2.7538,-4.20731 4.49411,-8.73978 5.22095,-13.59741 0.72661,-4.85753 1.08997,-15.05079 1.09008,-30.57983 -1.1e-4,-14.99339 -0.40172,-25.35878 -1.20483,-31.09619 -0.80333,-5.73719 -2.88788,-10.90076 -6.25366,-15.49073 -6.96136,-9.33254 -16.90601,-13.998876 -29.83399,-13.999019 z"
             style="font-size:235px;font-family:DIN 1451 Mittelschrift;-inkscape-font-specification:DIN 1451 Mittelschrift"
             id="path2843" />
        </g>
      </g>
    </g>
  </g>
</svg>
