<?xml version="1.0" encoding="UTF-8" standalone="no"?>
<!-- Created with Inkscape (http://www.inkscape.org/) -->
<svg
   xmlns:dc="http://purl.org/dc/elements/1.1/"
   xmlns:cc="http://web.resource.org/cc/"
   xmlns:rdf="http://www.w3.org/1999/02/22-rdf-syntax-ns#"
   xmlns:svg="http://www.w3.org/2000/svg"
   xmlns="http://www.w3.org/2000/svg"
   xmlns:sodipodi="http://sodipodi.sourceforge.net/DTD/sodipodi-0.dtd"
   xmlns:inkscape="http://www.inkscape.org/namespaces/inkscape"
   version="1.0"
   width="490"
   height="360"
   id="svg2"
   sodipodi:version="0.32"
   inkscape:version="0.44"
   sodipodi:docname="Zusatzzeichen 1020-31.svg"
   sodipodi:docbase="C:\Dokumente und Einstellungen\Internet\Desktop\Wiki\SVG sonstiges (fertig)">
  <metadata
     id="metadata10">
    <rdf:RDF>
      <cc:Work
         rdf:about="">
        <dc:format>image/svg+xml</dc:format>
        <dc:type
           rdf:resource="http://purl.org/dc/dcmitype/StillImage" />
      </cc:Work>
    </rdf:RDF>
  </metadata>
  <sodipodi:namedview
     inkscape:window-height="749"
     inkscape:window-width="1024"
     inkscape:pageshadow="2"
     inkscape:pageopacity="0.0"
     guidetolerance="10.0"
     gridtolerance="10.0"
     objecttolerance="10.0"
     borderopacity="1.0"
     bordercolor="#666666"
     pagecolor="#ffffff"
     id="base"
     inkscape:zoom="1.05"
     inkscape:cx="416.64094"
     inkscape:cy="203.47432"
     inkscape:window-x="-4"
     inkscape:window-y="-4"
     inkscape:current-layer="svg2"
     showguides="true"
     inkscape:guide-bbox="true" />
  <defs
     id="defs4" />
  <path
     d="M 38.78125,4.6190618 C 20.35689,4.6190483 9.96875,14.244672 9.96875,42.683954 L 9.65625,317.31604 C 9.65625,345.75531 20.04439,355.38094 38.46875,355.38094 L 451.21875,355.33878 C 469.64311,355.33878 480.03124,345.71316 480.03125,317.27389 L 480.34375,42.726108 C 480.34375,14.286826 469.95561,4.6612021 451.53125,4.6612156 L 38.78125,4.6190618 z "
     style="fill:white;fill-opacity:1;fill-rule:evenodd;stroke:black;stroke-width:3;stroke-linecap:butt;stroke-linejoin:miter;stroke-miterlimit:4;stroke-dasharray:none;stroke-opacity:1"
     id="path1881" />
  <path
     d="M 453.23342,19.074797 L 36.79782,19.117707 C 28.375505,19.117707 23.425891,27.356247 23.425891,39.539027 L 23.425891,320.50387 C 23.425891,332.68661 28.375515,340.9252 36.79782,340.9252 L 453.20218,340.88229 C 461.62449,340.88228 466.57411,332.64373 466.57411,320.46097 L 466.57411,39.496127 C 466.57411,27.313347 461.65573,19.074797 453.23342,19.074797 z "
     style="fill:none;fill-opacity:1;fill-rule:evenodd;stroke:black;stroke-width:12;stroke-linecap:butt;stroke-linejoin:miter;stroke-miterlimit:4;stroke-dasharray:none;stroke-opacity:1"
     id="path3976" />
  <g
     id="g5699"
     transform="translate(-35.04624,-258.9943)">
    <path
       id="text1972"
       style="font-size:99.96399689px;font-style:normal;font-variant:normal;font-weight:normal;font-stretch:normal;text-align:center;line-height:100%;writing-mode:lr-tb;text-anchor:middle;fill:black;fill-opacity:1;stroke:none;stroke-width:1px;stroke-linecap:butt;stroke-linejoin:miter;stroke-opacity:1;font-family:DIN 1451 Engschrift"
       d="M 157.08028,375.19632 L 171.97359,308.52112 L 180.27139,308.52112 L 195.16471,375.19632 L 184.9694,375.19632 L 182.26957,360.90093 L 169.87474,360.90093 L 167.17491,375.19632 L 157.08028,375.19632 z M 171.57396,352.00521 L 180.57035,352.00521 L 176.07368,327.71281 L 171.57396,352.00521 z M 226.14415,331.91052 C 226.679,332.71187 227.04609,333.67893 227.24544,334.8117 C 227.44471,335.94455 227.54437,337.07736 227.5444,338.21013 L 227.5444,375.19632 L 217.94703,375.19632 L 217.94703,341.70924 C 217.947,338.17661 216.381,336.41028 213.24901,336.41024 C 211.84976,336.41028 210.71695,336.94364 209.85058,338.01031 C 208.98418,339.07706 208.55098,340.31004 208.551,341.70924 L 208.551,375.19632 L 198.95362,375.19632 L 198.95362,327.61214 L 208.551,327.61214 L 208.551,332.21254 C 210.68441,328.74703 213.65066,327.01426 217.44977,327.01421 C 221.31391,327.01426 224.21204,328.64636 226.14415,331.91052 L 226.14415,331.91052 z M 245.55244,308.52112 L 245.55244,361.50191 C 245.55243,363.10047 245.81885,364.26633 246.35171,364.99949 C 246.88455,365.73268 247.95126,366.09927 249.55186,366.09926 L 250.25046,366.09926 L 250.25046,375.19632 L 248.1516,375.19632 C 246.61812,375.19632 245.18533,375.02955 243.85322,374.69601 C 242.52109,374.36248 241.18846,373.67964 239.85534,372.6475 C 238.52219,371.61536 237.53886,370.28273 236.90535,368.64961 C 236.27182,367.0165 235.95506,365.26644 235.95507,363.39942 L 235.95507,308.52112 L 245.55244,308.52112 z M 256.06502,375.19632 L 256.06502,327.61214 L 265.66239,327.61214 L 265.66239,375.19632 L 256.06502,375.19632 z M 256.06502,317.91715 L 256.06502,308.52112 L 265.66239,308.52112 L 265.66239,317.91715 L 256.06502,317.91715 z M 287.32207,366.09926 C 288.72332,366.09927 289.85664,365.66607 290.72203,364.79968 C 291.58738,363.9333 292.12073,362.80049 292.3221,361.40124 L 301.8188,361.40124 L 301.8188,362.49948 C 301.81877,363.96584 301.50201,365.43219 300.86852,366.89853 C 300.23497,368.36489 298.91861,370.2146 296.91944,372.44768 C 294.92022,374.68076 291.78821,375.7973 287.52341,375.7973 C 284.79001,375.7973 282.27372,375.06413 279.97456,373.59778 C 277.67537,372.13143 276.09259,370.51509 275.2262,368.74875 C 274.35981,366.98243 273.81019,365.38287 273.57732,363.95007 C 273.34445,362.51729 273.22802,361.10127 273.22802,359.70202 L 273.22802,341.60857 C 273.22802,337.67732 274.64403,334.26211 277.47607,331.36293 C 280.30808,328.46383 283.69075,327.01426 287.62408,327.01421 C 291.68957,327.01426 295.07173,328.43027 297.77058,331.26226 C 300.46936,334.09432 301.81877,337.54309 301.8188,341.60857 L 301.8188,354.80267 L 282.8254,354.80267 L 282.8254,361.90155 C 282.82538,362.90014 283.3084,363.84941 284.27446,364.74934 C 285.24049,365.64929 286.25635,366.09927 287.32207,366.09926 L 287.32207,366.09926 z M 287.52341,336.41024 C 286.25635,336.41028 285.15659,336.84347 284.22412,337.70982 C 283.29163,338.57625 282.82538,340.10869 282.8254,342.30717 L 282.8254,347.00518 L 292.22143,347.00518 L 292.22143,342.30717 C 292.2214,340.57443 291.85482,339.15841 291.12166,338.05912 C 290.38847,336.95991 289.18905,336.41028 287.52341,336.41024 L 287.52341,336.41024 z M 335.05878,388.2928 C 333.72459,390.29199 332.02487,391.87477 329.9596,393.04115 C 327.89428,394.2075 325.69527,394.79069 323.36255,394.79071 C 319.29702,394.79069 315.8147,393.40772 312.91557,390.64181 C 310.01642,387.87587 308.56685,384.42659 308.56685,380.29397 L 318.16423,380.29397 C 318.16421,381.62812 318.59741,382.76144 319.46381,383.69393 C 320.33018,384.62641 321.46299,385.09265 322.86224,385.09266 C 324.86142,385.09265 326.32777,384.19271 327.26129,382.39283 C 327.52769,381.72778 327.6609,380.66208 327.66093,379.19574 L 327.66093,370.29696 C 326.7274,371.89755 325.46087,373.21441 323.86133,374.24757 C 322.26175,375.28072 320.56203,375.7973 318.76215,375.7973 C 316.83006,375.7973 315.04797,375.28072 313.41587,374.24757 C 311.78377,373.21441 310.6174,372.03127 309.91677,370.69813 C 309.21613,369.36499 308.81599,368.29879 308.71633,367.49951 C 308.61668,366.70025 308.56685,365.46676 308.56685,363.79906 L 308.56685,337.41086 C 308.56685,336.21097 308.71684,335.11121 309.01682,334.11157 C 309.3168,333.11201 310.15014,331.66244 311.51684,329.76286 C 312.88353,327.86336 315.26609,326.91359 318.66453,326.91354 C 320.46237,326.91359 322.12803,327.36356 323.66151,328.26346 C 325.19496,329.16345 326.52809,330.41269 327.66093,332.01119 L 327.66093,327.61214 L 337.2583,327.61214 L 337.2583,379.19574 C 337.25827,381.0607 337.10828,382.70958 336.80833,384.14238 C 336.50832,385.57516 335.92513,386.95864 335.05878,388.2928 L 335.05878,388.2928 z M 326.76098,338.21013 C 325.76035,336.87602 324.46077,336.20894 322.86224,336.2089 C 320.99522,336.20894 319.77852,336.75907 319.21213,337.85931 C 318.64571,338.95961 318.32946,339.79295 318.26337,340.35932 C 318.19726,340.92576 318.16421,341.50894 318.16423,342.10887 L 318.16423,360.20233 C 318.16421,361.13585 318.21404,361.8858 318.31371,362.45219 C 318.41335,363.01861 318.79671,363.76806 319.46381,364.70053 C 320.13087,365.63302 321.32978,366.09927 323.06053,366.09926 C 325.12683,366.09927 326.39336,365.51608 326.86013,364.3497 C 327.32686,363.18335 327.56023,362.30018 327.56026,361.70021 C 327.56023,361.10026 327.59379,360.60097 327.66093,360.20233 L 327.66093,342.10887 C 327.6609,341.17541 327.61057,340.44223 327.50992,339.90935 C 327.40923,339.37654 327.15958,338.81013 326.76098,338.21013 L 326.76098,338.21013 z M 358.97594,366.09926 C 360.3772,366.09927 361.51051,365.66607 362.3759,364.79968 C 363.24125,363.9333 363.77461,362.80049 363.97598,361.40124 L 373.47268,361.40124 L 373.47268,362.49948 C 373.47264,363.96584 373.15589,365.43219 372.5224,366.89853 C 371.88885,368.36489 370.57249,370.2146 368.57332,372.44768 C 366.57409,374.68076 363.44209,375.7973 359.17729,375.7973 C 356.44388,375.7973 353.9276,375.06413 351.62843,373.59778 C 349.32924,372.13143 347.74646,370.51509 346.88008,368.74875 C 346.01369,366.98243 345.46406,365.38287 345.2312,363.95007 C 344.99833,362.51729 344.8819,361.10127 344.8819,359.70202 L 344.8819,341.60857 C 344.8819,337.67732 346.29791,334.26211 349.12994,331.36293 C 351.96196,328.46383 355.34463,327.01426 359.27796,327.01421 C 363.34345,327.01426 366.72561,328.43027 369.42445,331.26226 C 372.12324,334.09432 373.47264,337.54309 373.47268,341.60857 L 373.47268,354.80267 L 354.47927,354.80267 L 354.47927,361.90155 C 354.47926,362.90014 354.96228,363.84941 355.92834,364.74934 C 356.89436,365.64929 357.91023,366.09927 358.97594,366.09926 L 358.97594,366.09926 z M 359.17729,336.41024 C 357.91023,336.41028 356.81047,336.84347 355.878,337.70982 C 354.9455,338.57625 354.47926,340.10869 354.47927,342.30717 L 354.47927,347.00518 L 363.8753,347.00518 L 363.8753,342.30717 C 363.87528,340.57443 363.50869,339.15841 362.77554,338.05912 C 362.04235,336.95991 360.84293,336.41028 359.17729,336.41024 L 359.17729,336.41024 z M 403.01221,327.01421 L 403.01221,336.80988 C 402.54645,336.67772 402.08021,336.57807 401.61348,336.51091 C 401.14671,336.44384 400.71301,336.41028 400.31238,336.41024 C 397.18035,336.41028 394.78151,337.47649 393.11587,339.60886 C 391.4502,341.7413 390.61737,344.30741 390.61738,347.3072 L 390.61738,375.19632 L 381.02001,375.19632 L 381.02001,327.61214 L 390.61738,327.61214 L 390.61738,332.71284 C 392.28303,330.64657 394.33205,329.18023 396.76446,328.31379 C 399.19683,327.44745 401.27941,327.01426 403.01221,327.01421 L 403.01221,327.01421 z " />
    <path
       id="text1982"
       style="font-size:99.96399689px;font-style:normal;font-variant:normal;font-weight:normal;font-stretch:normal;text-align:center;line-height:100%;writing-mode:lr-tb;text-anchor:middle;fill:black;fill-opacity:1;stroke:none;stroke-width:1px;stroke-linecap:butt;stroke-linejoin:miter;stroke-opacity:1;font-family:DIN 1451 Mittelschrift"
       d="M 219.89358,568.88181 L 219.89358,526.02615 L 214.76847,526.02615 L 214.76847,518.21646 L 219.89358,518.21646 L 219.89358,511.52942 C 219.89357,506.81112 221.19518,503.33744 223.79842,501.10836 C 226.40164,498.87942 229.68821,497.76491 233.65815,497.76484 L 240.24758,497.76484 L 240.24758,507.33171 L 234.48793,507.33171 C 231.52674,507.33177 230.04615,508.731 230.04617,511.52942 L 230.04617,518.21646 L 240.24758,518.21646 L 240.24758,526.02615 L 230.04617,526.02615 L 230.04617,568.88181 L 219.89358,568.88181 z M 246.00722,568.88181 L 246.00722,518.21646 L 256.20862,518.21646 L 256.20862,523.63443 L 256.40387,523.63443 C 259.56026,519.63201 263.95321,517.63078 269.58271,517.63073 C 273.29228,517.63078 276.82291,518.9324 280.1746,521.53558 L 272.80421,530.32148 C 270.59143,528.66196 268.34615,527.83218 266.06835,527.83214 C 263.56272,527.83218 261.29303,528.67009 259.25928,530.34588 C 257.22549,532.02175 256.20861,534.71446 256.20862,538.42403 L 256.20862,568.88181 L 246.00722,568.88181 z M 324.10409,547.40517 L 292.57248,547.40517 C 292.57247,551.57035 293.70324,554.69422 295.96481,556.77679 C 298.22635,558.85938 301.1143,559.90067 304.62868,559.90067 C 308.82636,559.90067 312.53596,558.27366 315.75749,555.01961 L 323.12788,561.31617 C 320.62223,564.24481 317.79936,566.33552 314.65925,567.58833 C 311.51907,568.84113 308.24063,569.46753 304.82393,569.46753 C 299.61745,569.46753 294.5737,567.78357 289.69266,564.41564 C 284.8116,561.04772 282.37107,554.15731 282.37108,543.74437 C 282.37107,533.88468 284.62449,527.06748 289.13134,523.29276 C 293.63816,519.51812 298.34837,517.63078 303.26199,517.63073 C 308.82636,517.63078 313.69114,519.5588 317.85634,523.41478 C 322.02147,527.27086 324.10405,532.46918 324.10409,539.00975 L 324.10409,547.40517 z M 292.57248,539.00975 L 313.9515,539.00975 C 313.78876,535.20256 312.71493,532.2902 310.73,530.27266 C 308.74501,528.2552 306.25567,527.24645 303.26199,527.24641 C 300.23571,527.24645 297.72197,528.2552 295.72076,530.27266 C 293.71951,532.2902 292.67009,535.20256 292.57248,539.00975 L 292.57248,539.00975 z M 335.13528,568.88181 L 335.13528,518.21646 L 345.33668,518.21646 L 345.33668,568.88181 L 335.13528,568.88181 z M 335.13528,507.96625 L 335.13528,497.76484 L 345.33668,497.76484 L 345.33668,507.96625 L 335.13528,507.96625 z " />
    <path
       id="text1879"
       style="font-size:99.96406555px;font-style:normal;font-variant:normal;font-weight:normal;font-stretch:normal;text-align:center;line-height:100%;writing-mode:lr-tb;text-anchor:middle;fill:black;fill-opacity:1;stroke:none;stroke-width:1px;stroke-linecap:butt;stroke-linejoin:miter;stroke-opacity:1;font-family:DIN 1451 Engschrift"
       d="M 95.761906,429.13891 C 97.161134,427.40618 98.810523,426.05677 100.71008,425.09069 C 102.60961,424.12469 104.65864,423.64167 106.85716,423.64162 C 109.32207,423.64167 111.50431,424.09164 113.40388,424.99154 C 115.3034,425.89153 117.08651,427.44076 118.75321,429.63922 C 120.41986,431.83777 121.2532,434.70336 121.25323,438.23598 L 121.25323,457.2294 C 121.2532,460.82716 120.45342,463.70901 118.85388,465.87497 C 117.25429,468.04095 115.45491,469.67407 113.45574,470.77434 C 111.45652,471.87461 109.42376,472.42474 107.35747,472.42474 C 104.49187,472.42474 101.87593,471.70835 99.509643,470.27555 C 97.143339,468.84276 95.51022,467.2432 94.610281,465.47686 C 93.710331,463.71054 93.160705,462.24419 92.961399,461.07781 C 92.762085,459.91145 92.66243,458.62865 92.662434,457.2294 L 92.662434,438.23598 C 92.66243,434.63624 93.695587,431.60389 95.761906,429.13891 L 95.761906,429.13891 z M 107.05545,432.93699 C 105.59112,432.93702 104.42577,433.43682 103.5594,434.43639 C 102.69299,435.43602 102.2598,436.70255 102.25981,438.23598 L 102.25981,457.2294 C 102.2598,458.76288 102.67622,460.07924 103.50906,461.17848 C 104.34188,462.27775 105.52401,462.82737 107.05545,462.82736 C 109.12175,462.82737 110.40506,462.22741 110.90539,461.02747 C 111.40567,459.82756 111.65583,458.49442 111.65585,457.02806 L 111.65585,438.23598 C 111.65583,436.76967 111.23941,435.51992 110.40661,434.48672 C 109.57375,433.4536 108.4567,432.93702 107.05545,432.93699 L 107.05545,432.93699 z M 147.58959,471.82376 L 147.58959,466.9244 C 146.65606,468.52499 145.42309,469.84185 143.89066,470.87501 C 142.35819,471.90817 140.65847,472.42474 138.79148,472.42474 C 134.45953,472.42474 131.72716,471.2416 130.59435,468.8753 C 129.46154,466.50901 128.8453,464.80928 128.74565,463.77612 C 128.64599,462.74297 128.59617,461.36001 128.59617,459.62722 L 128.59617,433.9376 C 128.59617,431.07206 129.56221,428.63966 131.4943,426.64042 C 133.42638,424.64127 135.85877,423.64167 138.79148,423.64162 C 140.59135,423.64167 142.2743,424.10791 143.84032,425.04035 C 145.40631,425.97288 146.65606,427.20585 147.58959,428.73928 L 147.58959,405.14851 L 157.18697,405.14851 L 157.18697,471.82376 L 147.58959,471.82376 z M 146.88793,435.33786 C 145.95644,433.73731 144.59077,432.93702 142.7909,432.93699 C 141.85738,432.93702 141.00777,433.18718 140.24207,433.68745 C 139.47634,434.18779 138.95976,434.78776 138.69233,435.48734 C 138.42488,436.18699 138.27489,436.92017 138.24236,437.68687 C 138.20981,438.45363 138.19354,439.03631 138.19355,439.43489 L 138.19355,456.52775 C 138.19354,457.19484 138.20981,457.86192 138.24236,458.52898 C 138.27489,459.19607 138.59114,460.06246 139.19112,461.12815 C 139.79106,462.19385 141.02455,462.7267 142.89157,462.72669 C 144.82363,462.7267 146.08966,462.19385 146.68964,461.12815 C 147.28958,460.06246 147.58956,458.99575 147.58959,457.928 L 147.58959,456.52775 L 147.58959,439.43489 C 147.58956,438.76785 147.57279,438.0845 147.53925,437.38485 C 147.50567,436.68527 147.28857,436.00294 146.88793,435.33786 L 146.88793,435.33786 z M 178.70023,462.72669 C 180.10148,462.7267 181.2348,462.29351 182.10019,461.42711 C 182.96554,460.56073 183.4989,459.42792 183.70026,458.02867 L 193.19697,458.02867 L 193.19697,459.12691 C 193.19694,460.59327 192.88018,462.05962 192.24669,463.52597 C 191.61314,464.99232 190.29678,466.84204 188.29761,469.07512 C 186.29838,471.3082 183.16637,472.42474 178.90157,472.42474 C 176.16816,472.42474 173.65188,471.69157 171.35271,470.22522 C 169.05352,468.75887 167.47074,467.14253 166.60436,465.37619 C 165.73796,463.60987 165.18834,462.0103 164.95547,460.5775 C 164.7226,459.14472 164.60617,457.72871 164.60617,456.32946 L 164.60617,438.23598 C 164.60617,434.30474 166.02218,430.88952 168.85422,427.99034 C 171.68624,425.09124 175.06891,423.64167 179.00224,423.64162 C 183.06774,423.64167 186.4499,425.05768 189.14874,427.88967 C 191.84753,430.72174 193.19694,434.17051 193.19697,438.23598 L 193.19697,451.43009 L 174.20355,451.43009 L 174.20355,458.52898 C 174.20354,459.52758 174.68656,460.47684 175.65262,461.37677 C 176.61864,462.27673 177.63451,462.7267 178.70023,462.72669 L 178.70023,462.72669 z M 178.90157,433.03766 C 177.63451,433.0377 176.53475,433.47089 175.60228,434.33724 C 174.66978,435.20366 174.20354,436.73611 174.20355,438.93459 L 174.20355,443.6326 L 183.59959,443.6326 L 183.59959,438.93459 C 183.59957,437.20184 183.23298,435.78583 182.49983,434.68654 C 181.76663,433.58732 180.56721,433.0377 178.90157,433.03766 L 178.90157,433.03766 z M 222.73652,423.64162 L 222.73652,433.43729 C 222.27076,433.30514 221.80452,433.20548 221.33779,433.13833 C 220.87102,433.07125 220.43732,433.0377 220.03669,433.03766 C 216.90465,433.0377 214.50582,434.1039 212.84018,436.23628 C 211.1745,438.36872 210.34167,440.93483 210.34169,443.93462 L 210.34169,471.82376 L 200.74431,471.82376 L 200.74431,424.23955 L 210.34169,424.23955 L 210.34169,429.34026 C 212.00733,427.27399 214.05636,425.80764 216.48877,424.9412 C 218.92114,424.07486 221.00372,423.64167 222.73652,423.64162 L 222.73652,423.64162 z M 264.80819,471.82376 L 264.80819,405.14851 L 280.40317,405.14851 C 282.33523,405.14858 284.26782,405.54822 286.20095,406.34742 C 288.13402,407.14676 289.75036,408.19619 291.04997,409.49571 C 292.34952,410.79535 293.44878,412.34508 294.34774,414.14491 C 295.24663,415.94486 295.69609,417.67763 295.69613,419.34324 L 295.69613,429.03824 C 295.69609,431.50525 295.36306,433.70477 294.69704,435.63682 C 294.03094,437.56894 292.88135,439.35154 291.24827,440.98463 C 289.61512,442.61778 287.84878,443.78415 285.94927,444.48374 C 284.0497,445.18338 281.8339,445.53319 279.30188,445.53317 L 274.30489,445.53317 L 274.30489,471.82376 L 264.80819,471.82376 z M 285.00051,434.6362 C 285.60045,434.03628 285.98382,433.40327 286.15061,432.73717 C 286.31735,432.07115 286.40074,431.23882 286.40077,430.2402 L 286.40077,429.03824 L 286.40077,420.34081 C 286.40074,418.47589 285.83433,416.94344 284.70155,415.74346 C 283.56871,414.54359 282.03525,413.94363 280.10115,413.94357 L 274.30489,413.94357 L 274.30489,436.53677 L 279.30188,436.53677 C 280.63601,436.5368 281.7195,436.42037 282.55236,436.18747 C 283.38516,435.95463 284.20121,435.43755 285.00051,434.6362 L 285.00051,434.6362 z M 301.79135,466.82678 C 301.32357,466.02548 301.02308,465.14181 300.88988,464.17576 C 300.75666,463.20972 300.69005,462.12674 300.69006,460.9268 L 300.69006,455.53018 C 300.69005,451.99754 301.57322,449.36482 303.33956,447.63202 C 305.10588,445.89927 306.70544,444.71663 308.13825,444.0841 C 309.57103,443.45163 311.28702,443.13537 313.28624,443.13535 L 319.68347,443.13535 L 319.68347,439.03526 C 319.68345,438.10179 319.63362,437.33557 319.53399,436.73658 C 319.43432,436.13767 319.0179,435.37145 318.28475,434.43791 C 317.55155,433.50445 316.55144,433.0377 315.28442,433.03766 C 313.95228,433.0377 312.81947,433.47089 311.88598,434.33724 C 310.95247,435.20366 310.38606,436.33647 310.18677,437.73568 L 300.69006,437.73568 C 300.69005,433.87154 302.07302,430.55649 304.83896,427.79052 C 307.60488,425.02463 310.95349,423.64167 314.88478,423.64162 C 318.75097,423.64167 322.11686,425.00786 324.98247,427.74018 C 327.84803,430.4726 329.28082,433.80443 329.28085,437.73568 L 329.28085,471.82376 L 319.68347,471.82376 L 319.68347,467.02507 C 318.68487,468.69074 317.43563,470.0071 315.93574,470.97415 C 314.43581,471.94121 312.75236,472.42474 310.88537,472.42474 C 306.68765,472.42474 303.65631,470.55876 301.79135,466.82678 L 301.79135,466.82678 z M 310.28744,455.42951 L 310.28744,457.82733 C 310.28743,459.09438 310.7374,460.24448 311.63736,461.27763 C 312.53729,462.31079 313.71942,462.82737 315.18375,462.82736 C 315.98504,462.82737 316.7355,462.62755 317.43514,462.22791 C 318.13473,461.82828 318.66758,461.27866 319.03368,460.57903 C 319.39974,459.87942 319.59956,458.97948 319.63314,457.87919 C 319.66667,456.77893 319.68345,455.99593 319.68347,455.53018 L 319.68347,450.92979 L 316.08369,450.92979 C 314.3509,450.92981 312.95167,451.26334 311.88598,451.9304 C 310.82027,452.5975 310.28743,453.76387 310.28744,455.42951 L 310.28744,455.42951 z M 359.60139,423.64162 L 359.60139,433.43729 C 359.13563,433.30514 358.66939,433.20548 358.20266,433.13833 C 357.73589,433.07125 357.30218,433.0377 356.90156,433.03766 C 353.76952,433.0377 351.37069,434.1039 349.70505,436.23628 C 348.03937,438.36872 347.20654,440.93483 347.20655,443.93462 L 347.20655,471.82376 L 337.60917,471.82376 L 337.60917,424.23955 L 347.20655,424.23955 L 347.20655,429.34026 C 348.8722,427.27399 350.92122,425.80764 353.35364,424.9412 C 355.78601,424.07486 357.86859,423.64167 359.60139,423.64162 L 359.60139,423.64162 z M 365.52882,471.82376 L 365.52882,405.14851 L 375.1262,405.14851 L 375.1262,444.83456 L 387.1214,424.23955 L 396.61811,424.23955 L 385.32151,443.13535 L 398.91831,471.82376 L 388.22269,471.82376 L 379.92489,451.53077 L 375.1262,458.62965 L 375.1262,471.82376 L 365.52882,471.82376 z M 416.89584,462.72669 C 418.29709,462.7267 419.43041,462.29351 420.2958,461.42711 C 421.16115,460.56073 421.69451,459.42792 421.89587,458.02867 L 431.39258,458.02867 L 431.39258,459.12691 C 431.39255,460.59327 431.07579,462.05962 430.4423,463.52597 C 429.80875,464.99232 428.49239,466.84204 426.49322,469.07512 C 424.49399,471.3082 421.36198,472.42474 417.09718,472.42474 C 414.36377,472.42474 411.84749,471.69157 409.54832,470.22522 C 407.24913,468.75887 405.66635,467.14253 404.79997,465.37619 C 403.93357,463.60987 403.38395,462.0103 403.15108,460.5775 C 402.91821,459.14472 402.80178,457.72871 402.80178,456.32946 L 402.80178,438.23598 C 402.80178,434.30474 404.21779,430.88952 407.04983,427.99034 C 409.88185,425.09124 413.26452,423.64167 417.19785,423.64162 C 421.26335,423.64167 424.64551,425.05768 427.34435,427.88967 C 430.04314,430.72174 431.39255,434.17051 431.39258,438.23598 L 431.39258,451.43009 L 412.39916,451.43009 L 412.39916,458.52898 C 412.39915,459.52758 412.88217,460.47684 413.84823,461.37677 C 414.81425,462.27673 415.83012,462.7267 416.89584,462.72669 L 416.89584,462.72669 z M 417.09718,433.03766 C 415.83012,433.0377 414.73036,433.47089 413.79789,434.33724 C 412.86539,435.20366 412.39915,436.73611 412.39916,438.93459 L 412.39916,443.6326 L 421.7952,443.6326 L 421.7952,438.93459 C 421.79518,437.20184 421.42859,435.78583 420.69544,434.68654 C 419.96224,433.58732 418.76282,433.0377 417.09718,433.03766 L 417.09718,433.03766 z M 466.02979,428.53793 C 466.56465,429.33928 466.93174,430.30634 467.13108,431.43911 C 467.33036,432.57196 467.43002,433.70477 467.43005,434.83755 L 467.43005,471.82376 L 457.83267,471.82376 L 457.83267,438.33666 C 457.83264,434.80403 456.26664,433.0377 453.13465,433.03766 C 451.7354,433.0377 450.60259,433.57105 449.73621,434.63773 C 448.86981,435.70448 448.43662,436.93745 448.43663,438.33666 L 448.43663,471.82376 L 438.83925,471.82376 L 438.83925,424.23955 L 448.43663,424.23955 L 448.43663,428.83995 C 450.57004,425.37444 453.5363,423.64167 457.33541,423.64162 C 461.19955,423.64167 464.09768,425.27377 466.02979,428.53793 L 466.02979,428.53793 z " />
  </g>
</svg>
