<?xml version="1.0" encoding="UTF-8" standalone="no"?>
<!-- Created with Inkscape (http://www.inkscape.org/) -->
<svg
   xmlns:svg="http://www.w3.org/2000/svg"
   xmlns="http://www.w3.org/2000/svg"
   version="1.0"
   width="490"
   height="270"
   id="svg2">
  <defs
     id="defs4" />
  <path
     d="M 38.78125,4.984375 C 20.356889,4.9843748 9.96875,12.12016 9.96875,33.203125 L 9.65625,236.79688 C 9.65625,257.87984 20.044391,265.01563 38.46875,265.01563 L 451.21875,264.98438 C 469.64311,264.98438 480.03124,257.84859 480.03125,236.76563 L 480.34375,33.234375 C 480.34375,12.15141 469.95561,5.0156248 451.53125,5.015625 L 38.78125,4.984375 z "
     style="fill:white;fill-opacity:1;fill-rule:evenodd;stroke:black;stroke-width:2;stroke-linecap:butt;stroke-linejoin:miter;stroke-miterlimit:4;stroke-dasharray:none;stroke-opacity:1"
     id="path1881" />
  <path
     d="M 453.3125,17.796875 L 36.78125,17.828125 C 28.356999,17.828125 23.40625,23.829135 23.40625,32.703125 L 23.40625,237.35938 C 23.406249,246.23335 28.35701,252.23438 36.78125,252.23438 L 453.28125,252.20313 C 461.70549,252.20312 466.65625,246.20211 466.65625,237.32813 L 466.65625,32.671875 C 466.65625,23.797885 461.73674,17.796875 453.3125,17.796875 z "
     style="fill:none;fill-opacity:1;fill-rule:evenodd;stroke:black;stroke-width:10.05090809;stroke-linecap:butt;stroke-linejoin:miter;stroke-miterlimit:4;stroke-dasharray:none;stroke-opacity:1"
     id="path3976" />
  <path
     d="M 80.239381,108.66835 L 80.239381,158.97358 L 204.11877,158.97358 L 204.11877,108.66835 L 80.239381,108.66835 z "
     style="fill:white;fill-opacity:1;fill-rule:evenodd;stroke:none;stroke-width:1px;stroke-linecap:butt;stroke-linejoin:miter;stroke-opacity:1"
     id="path20922" />
  <g
     transform="matrix(1.066481,0,0,1.066481,2.381472,-420.1675)"
     id="g3079">
    <path
       d="M 59.283947,499.77221 L 59.283947,443.31454 L 81.177276,443.31454 C 86.679637,443.3146 90.845178,444.72895 93.673911,447.55759 C 96.502563,450.38633 97.91691,454.0223 97.916954,458.4655 C 97.91691,460.7905 97.348588,463.02504 96.211987,465.16912 C 95.0753,467.31328 92.866595,469.12158 89.585864,470.59402 L 89.585864,470.74902 C 92.685765,471.47236 94.997802,473.10629 96.521981,475.6508 C 98.046074,478.19535 98.808142,480.90134 98.808187,483.76877 C 98.808142,488.65118 97.251715,492.53902 94.138902,495.43229 C 91.026007,498.32557 87.35129,499.77221 83.114739,499.77221 L 59.283947,499.77221 z M 81.022279,474.70144 L 67.847532,474.70144 L 67.847532,491.71236 L 81.022279,491.71236 C 84.199687,491.71237 86.531098,490.85343 88.01652,489.13554 C 89.501871,487.41767 90.244565,485.44791 90.244602,483.22628 C 90.244565,481.00467 89.501871,479.02846 88.01652,477.29764 C 86.531098,475.56686 84.199687,474.70147 81.022279,474.70144 L 81.022279,474.70144 z M 80.247294,450.9094 L 67.847532,450.9094 L 67.847532,467.10659 L 80.247294,467.10659 C 83.321371,467.10662 85.607575,466.31872 87.105912,464.74288 C 88.604181,463.16712 89.353333,461.25549 89.353369,459.00799 C 89.353333,456.83808 88.604181,454.94582 87.105912,453.33123 C 85.607575,451.71672 83.321371,450.90945 80.247294,450.9094 L 80.247294,450.9094 z M 138.09993,482.72254 L 113.06791,482.72254 C 113.0679,486.02915 113.96559,488.5091 115.76099,490.16239 C 117.55635,491.8157 119.84901,492.64235 122.63898,492.64235 C 125.97139,492.64235 128.91633,491.35071 131.47381,488.76742 L 137.32495,493.76607 C 135.33578,496.09103 133.09479,497.75079 130.60195,498.74535 C 128.10906,499.73992 125.5064,500.2372 122.79398,500.2372 C 118.6607,500.2372 114.65662,498.90035 110.78171,496.22665 C 106.90678,493.55296 104.96931,488.08286 104.96932,479.81634 C 104.96931,471.98902 106.75824,466.57705 110.33609,463.5804 C 113.91393,460.58383 117.65322,459.08553 121.554,459.08549 C 125.97139,459.08553 129.8334,460.61613 133.14003,463.67728 C 136.44659,466.7385 138.09989,470.86529 138.09993,476.05766 L 138.09993,482.72254 z M 113.06791,476.05766 L 130.04009,476.05766 C 129.91089,473.03525 129.05841,470.72321 127.48264,469.12155 C 125.90681,467.51994 123.9306,466.71913 121.554,466.71909 C 119.15153,466.71913 117.15594,467.51994 115.56724,469.12155 C 113.97851,470.72321 113.1454,473.03525 113.06791,476.05766 L 113.06791,476.05766 z M 178.5154,499.77221 L 170.10682,471.64025 L 169.95182,471.64025 L 161.54323,499.77221 L 154.41337,499.77221 L 141.54861,459.55048 L 150.1122,459.55048 L 157.8233,487.72119 L 157.9783,487.72119 L 167.08437,459.55048 L 172.97426,459.55048 L 182.08034,487.72119 L 182.23533,487.72119 L 189.94643,459.55048 L 198.51002,459.55048 L 185.64527,499.77221 L 178.5154,499.77221 z M 201.99746,479.6226 C 201.99745,475.30854 202.33328,472.09235 203.00494,469.97403 C 203.67658,467.85577 204.7874,465.94414 206.33737,464.23914 C 207.44817,463.02504 208.97877,461.86256 210.92916,460.75171 C 212.87952,459.64094 215.43051,459.08553 218.58214,459.08549 C 221.68205,459.08553 224.21367,459.64094 226.17699,460.75171 C 228.14026,461.86256 229.67731,463.02504 230.78815,464.23914 C 232.33809,465.94414 233.4489,467.85577 234.12059,469.97403 C 234.79221,472.09235 235.12803,475.30854 235.12807,479.6226 C 235.12803,484.01419 234.79221,487.26913 234.12059,489.38741 C 233.4489,491.50571 232.33809,493.41734 230.78815,495.1223 C 229.67731,496.36228 228.14026,497.52475 226.17699,498.60973 C 224.21367,499.69471 221.68205,500.2372 218.58214,500.2372 C 215.43051,500.2372 212.87952,499.69471 210.92916,498.60973 C 208.97877,497.52475 207.44817,496.36228 206.33737,495.1223 C 204.7874,493.41734 203.67658,491.50571 203.00494,489.38741 C 202.33328,487.26913 201.99745,484.01419 201.99746,479.6226 L 201.99746,479.6226 z M 227.06822,479.70009 C 227.06819,476.78101 226.91966,474.7273 226.62261,473.53896 C 226.3255,472.35068 225.8153,471.21404 225.09201,470.12903 C 223.67118,468.16576 221.50122,467.18412 218.58214,467.18409 C 215.61134,467.18412 213.44139,468.16576 212.07226,470.12903 C 211.29726,471.21404 210.77415,472.35068 210.50292,473.53896 C 210.23166,474.7273 210.09604,476.75517 210.09605,479.6226 C 210.09604,482.56756 210.23166,484.64064 210.50292,485.84185 C 210.77415,487.04309 211.29726,488.17328 212.07226,489.23241 C 213.44139,491.19572 215.61134,492.17736 218.58214,492.17735 C 221.50122,492.17736 223.67118,491.19572 225.09201,489.23241 C 225.8153,488.17328 226.3255,487.04955 226.62261,485.86123 C 226.91966,484.67293 227.06819,482.61922 227.06822,479.70009 L 227.06822,479.70009 z M 243.6529,499.77221 L 243.6529,443.31454 L 251.75149,443.31454 L 251.75149,463.85165 L 251.90649,463.85165 C 254.41226,460.67425 257.89969,459.08553 262.36879,459.08549 C 265.49453,459.08553 268.51051,460.27384 271.41674,462.65042 C 274.3229,465.02708 275.77599,468.48867 275.77603,473.03522 L 275.77603,499.77221 L 267.67744,499.77221 L 267.67744,475.82517 C 267.67741,473.11275 266.9218,470.99446 265.4106,469.47029 C 263.89936,467.94619 262.02002,467.18412 259.77259,467.18409 C 257.44761,467.18412 255.52953,467.94619 254.01832,469.47029 C 252.50709,470.99446 251.75148,473.11275 251.75149,475.82517 L 251.75149,499.77221 L 243.6529,499.77221 z M 286.27707,499.77221 L 286.27707,459.55048 L 294.37567,459.55048 L 294.37567,463.85165 L 294.53066,463.85165 C 297.03643,460.67425 300.52386,459.08553 304.99296,459.08549 C 308.11871,459.08553 311.13469,460.27384 314.04091,462.65042 C 316.94707,465.02708 318.40017,468.48867 318.40021,473.03522 L 318.40021,499.77221 L 310.30161,499.77221 L 310.30161,475.82517 C 310.30158,473.11275 309.54597,470.99446 308.03478,469.47029 C 306.52353,467.94619 304.6442,467.18412 302.39676,467.18409 C 300.07179,467.18412 298.1537,467.94619 296.6425,469.47029 C 295.13126,470.99446 294.37565,473.11275 294.37567,475.82517 L 294.37567,499.77221 L 286.27707,499.77221 z M 360.05565,482.72254 L 335.02363,482.72254 C 335.02362,486.02915 335.92131,488.5091 337.7167,490.16239 C 339.51207,491.8157 341.80473,492.64235 344.5947,492.64235 C 347.92711,492.64235 350.87205,491.35071 353.42953,488.76742 L 359.28067,493.76607 C 357.2915,496.09103 355.05051,497.75079 352.55767,498.74535 C 350.06477,499.73992 347.46212,500.2372 344.74969,500.2372 C 340.61642,500.2372 336.61234,498.90035 332.73743,496.22665 C 328.86249,493.55296 326.92503,488.08286 326.92504,479.81634 C 326.92503,471.98902 328.71396,466.57705 332.29181,463.5804 C 335.86964,460.58383 339.60894,459.08553 343.50972,459.08549 C 347.92711,459.08553 351.78911,460.61613 355.09575,463.67728 C 358.40231,466.7385 360.05561,470.86529 360.05565,476.05766 L 360.05565,482.72254 z M 335.02363,476.05766 L 351.99581,476.05766 C 351.86661,473.03525 351.01413,470.72321 349.43835,469.12155 C 347.86253,467.51994 345.88632,466.71913 343.50972,466.71909 C 341.10725,466.71913 339.11166,467.51994 337.52296,469.12155 C 335.93423,470.72321 335.10112,473.03525 335.02363,476.05766 L 335.02363,476.05766 z M 368.58051,499.77221 L 368.58051,459.55048 L 376.6791,459.55048 L 376.6791,463.85165 L 376.8341,463.85165 C 379.33987,460.67425 382.8273,459.08553 387.2964,459.08549 C 390.24132,459.08553 393.04418,460.11884 395.70499,462.18543 L 389.85385,469.1603 C 388.09719,467.84285 386.31473,467.18412 384.50645,467.18409 C 382.51731,467.18412 380.71547,467.84931 379.10093,469.17967 C 377.48637,470.51009 376.67909,472.64776 376.6791,475.59267 L 376.6791,499.77221 L 368.58051,499.77221 z "
       style="font-size:79.35847473px;font-style:normal;font-variant:normal;font-weight:normal;font-stretch:normal;text-align:center;line-height:100%;writing-mode:lr-tb;text-anchor:middle;fill:black;fill-opacity:1;stroke:none;stroke-width:1px;stroke-linecap:butt;stroke-linejoin:miter;stroke-opacity:1;font-family:DIN 1451 Mittelschrift"
       id="text3060" />
    <path
       d="M 88.840332,554.61918 L 88.840332,534.43362 L 92.904668,534.43362 L 92.904668,536.5922 L 92.982454,536.5922 C 94.26592,534.99759 96.016111,534.20029 98.233031,534.20027 C 99.646136,534.20029 100.76755,534.45309 101.59729,534.95868 C 102.42699,535.46431 103.20486,536.0866 103.93088,536.82555 C 105.52548,535.07538 107.65164,534.20029 110.30936,534.20027 C 111.87802,534.20029 113.39162,534.79665 114.85014,535.98935 C 116.3086,537.18209 117.03785,538.91932 117.03788,541.20104 L 117.03788,554.61918 L 112.97354,554.61918 L 112.97354,542.60119 C 112.97351,541.23994 112.59107,540.17686 111.82619,539.41195 C 111.06127,538.64707 110.11487,538.26462 108.98699,538.2646 C 107.82018,538.26462 106.85757,538.64707 106.09917,539.41195 C 105.34074,540.17686 104.96153,541.23994 104.96155,542.60119 L 104.96155,554.61918 L 100.91666,554.61918 L 100.91666,542.60119 C 100.91664,541.23994 100.5342,540.17686 99.769312,539.41195 C 99.0044,538.64707 98.058,538.26462 96.93011,538.2646 C 95.763305,538.26462 94.800701,538.64707 94.042293,539.41195 C 93.283869,540.17686 92.904661,541.23994 92.904668,542.60119 L 92.904668,554.61918 L 88.840332,554.61918 z M 122.63849,554.61918 L 122.63849,534.43362 L 126.70283,534.43362 L 126.70283,554.61918 L 122.63849,554.61918 z M 122.63849,530.34984 L 122.63849,526.28551 L 126.70283,526.28551 L 126.70283,530.34984 L 122.63849,530.34984 z M 132.32289,534.43362 L 132.32289,528.30795 L 136.38723,528.30795 L 136.38723,534.43362 L 139.34311,534.43362 L 139.34311,537.54508 L 136.38723,537.54508 L 136.38723,549.29081 C 136.38722,550.30204 136.8669,550.80765 137.82627,550.80765 L 139.34311,550.80765 L 139.34311,554.61918 L 137.22343,554.61918 C 135.81031,554.61918 134.64027,554.19135 133.71332,553.3357 C 132.78636,552.48006 132.32289,551.25492 132.32289,549.6603 L 132.32289,537.54508 L 130.30045,537.54508 L 130.30045,534.43362 L 132.32289,534.43362 z M 157.35065,530.34984 L 157.35065,539.48974 L 163.72913,539.48974 C 165.32373,539.48975 166.51321,539.01007 167.29757,538.05069 C 168.0819,537.09134 168.47407,536.04771 168.47409,534.91979 C 168.47407,533.20851 167.85827,531.95097 166.62667,531.14715 C 165.83582,530.61564 164.81812,530.34987 163.57355,530.34984 L 157.35065,530.34984 z M 153.05295,554.61918 L 153.05295,526.28551 L 163.34019,526.28551 C 164.44215,526.28553 165.50199,526.40221 166.51971,526.63554 C 167.5374,526.86893 168.59723,527.41343 169.69923,528.26906 C 170.55486,528.93027 171.28086,529.84101 171.87724,531.0013 C 172.47358,532.16164 172.77176,533.50669 172.77179,535.03647 C 172.77176,537.05893 172.01659,538.98414 170.50626,540.8121 C 168.99589,542.64009 166.7887,543.55408 163.8847,543.55407 L 157.35065,543.55407 L 157.35065,554.61918 L 153.05295,554.61918 z M 186.94834,554.61918 L 186.94834,552.83009 L 186.85111,552.83009 C 186.03434,554.17839 184.3749,554.85254 181.87278,554.85254 C 179.61697,554.85254 177.86678,554.2659 176.62221,553.09262 C 175.37762,551.91935 174.75533,550.45113 174.75533,548.68797 C 174.75533,547.09336 175.30632,545.69969 176.40829,544.50695 C 177.51026,543.31424 179.15026,542.71788 181.32828,542.71787 L 186.94834,542.71787 L 186.94834,540.61764 C 186.94833,538.89339 185.56762,538.03126 182.80622,538.03124 C 180.88748,538.03126 179.61049,538.54335 178.97524,539.56752 L 175.786,537.15615 C 177.19912,535.18558 179.46788,534.20029 182.59231,534.20027 C 185.08146,534.20029 187.1039,534.68645 188.65964,535.65876 C 190.21535,536.63111 190.99321,538.36185 190.99323,540.851 L 190.99323,554.61918 L 186.94834,554.61918 z M 186.94834,547.54062 L 186.94834,546.06268 L 182.0867,546.06268 C 179.74014,546.06269 178.56686,546.87296 178.56686,548.4935 C 178.56686,549.18062 178.8618,549.77698 179.45168,550.28259 C 180.04156,550.7882 181.02361,551.04101 182.39784,551.04101 C 184.0832,551.04101 185.26296,550.85303 185.93712,550.47706 C 186.61125,550.10109 186.94833,549.12228 186.94834,547.54062 L 186.94834,547.54062 z M 196.26326,554.61918 L 196.26326,534.43362 L 200.3276,534.43362 L 200.3276,536.5922 L 200.40538,536.5922 C 201.66292,534.99759 203.41311,534.20029 205.65596,534.20027 C 207.13389,534.20029 208.54052,534.71886 209.87587,535.75599 L 206.93944,539.25638 C 206.05784,538.59521 205.1633,538.26462 204.25581,538.2646 C 203.25754,538.26462 202.35327,538.59845 201.54301,539.2661 C 200.73273,539.93378 200.32759,541.00658 200.3276,542.48451 L 200.3276,554.61918 L 196.26326,554.61918 z M 211.74274,554.61918 L 211.74274,526.28551 L 215.80707,526.28551 L 215.80707,543.92356 L 215.88486,543.92356 L 223.64405,534.43362 L 228.50569,534.43362 L 221.54382,542.32894 L 229.45858,554.61918 L 224.36357,554.61918 L 218.99631,545.18759 L 215.80707,548.8241 L 215.80707,554.61918 L 211.74274,554.61918 z M 243.0323,554.61918 L 243.0323,552.83009 L 242.93506,552.83009 C 242.11829,554.17839 240.45885,554.85254 237.95674,554.85254 C 235.70093,554.85254 233.95074,554.2659 232.70616,553.09262 C 231.46158,551.91935 230.83929,550.45113 230.83929,548.68797 C 230.83929,547.09336 231.39027,545.69969 232.49225,544.50695 C 233.59422,543.31424 235.23421,542.71788 237.41223,542.71787 L 243.0323,542.71787 L 243.0323,540.61764 C 243.03228,538.89339 241.65158,538.03126 238.89017,538.03124 C 236.97144,538.03126 235.69445,538.54335 235.0592,539.56752 L 231.86996,537.15615 C 233.28307,535.18558 235.55184,534.20029 238.67626,534.20027 C 241.16541,534.20029 243.18785,534.68645 244.74359,535.65876 C 246.2993,536.63111 247.07717,538.36185 247.07718,540.851 L 247.07718,554.61918 L 243.0323,554.61918 z M 243.0323,547.54062 L 243.0323,546.06268 L 238.17065,546.06268 C 235.82409,546.06269 234.65081,546.87296 234.65082,548.4935 C 234.65081,549.18062 234.94575,549.77698 235.53564,550.28259 C 236.12551,550.7882 237.10756,551.04101 238.48179,551.04101 C 240.16716,551.04101 241.34691,550.85303 242.02107,550.47706 C 242.69521,550.10109 243.03228,549.12228 243.0323,547.54062 L 243.0323,547.54062 z M 252.34721,547.85177 L 252.34721,534.43362 L 256.41154,534.43362 L 256.41154,546.47106 C 256.41154,547.84529 256.79074,548.91161 257.54917,549.67002 C 258.30758,550.42844 259.27018,550.80765 260.43699,550.80765 C 261.56488,550.80765 262.50803,550.42844 263.26646,549.67002 C 264.02487,548.91161 264.40407,547.84529 264.40409,546.47106 L 264.40409,534.43362 L 268.46842,534.43362 L 268.46842,554.61918 L 264.40409,554.61918 L 264.40409,552.48005 L 264.3263,552.48005 C 263.06874,554.06171 261.33152,554.85254 259.11462,554.85254 C 257.51999,554.85254 255.99344,554.25942 254.53495,553.07317 C 253.07645,551.88694 252.3472,550.14647 252.34721,547.85177 L 252.34721,547.85177 z M 271.50209,551.25492 L 274.34129,548.45461 C 276.10444,550.17888 278.22411,551.04101 280.70032,551.04101 C 281.85414,551.04101 282.80702,550.82386 283.55897,550.38955 C 284.31089,549.95524 284.68686,549.31027 284.68687,548.45461 C 284.68686,547.27486 283.86362,546.61368 282.21715,546.47106 L 278.63898,546.14047 C 276.96657,546.01083 275.57938,545.45985 274.47741,544.48751 C 273.37544,543.51519 272.82445,542.16041 272.82445,540.42317 C 272.82445,538.37481 273.54397,536.82557 274.98302,535.77544 C 276.42207,534.72534 278.21115,534.20029 280.35028,534.20027 C 282.11343,534.20029 283.62378,534.44985 284.88133,534.94896 C 286.13887,535.44811 287.26677,536.11253 288.26504,536.94223 L 285.75643,539.89811 C 284.95262,539.35363 284.1229,538.90635 283.26727,538.5563 C 282.41161,538.20628 281.43928,538.03126 280.35028,538.03124 C 279.05383,538.03126 278.15281,538.26138 277.64721,538.7216 C 277.14159,539.18185 276.88878,539.762 276.88879,540.46207 C 276.88878,540.90287 277.07677,541.31125 277.45274,541.6872 C 277.8287,542.06318 278.52878,542.29006 279.55297,542.36783 L 282.89778,542.60119 C 284.98504,542.74381 286.48242,543.38879 287.38994,544.53612 C 288.29743,545.68348 288.75119,547.05446 288.7512,548.64908 C 288.75119,550.63263 287.94091,552.16243 286.32038,553.23847 C 284.69982,554.31452 282.72275,554.85254 280.38917,554.85254 C 277.03139,554.85254 274.06903,553.65333 271.50209,551.25492 L 271.50209,551.25492 z M 308.87842,554.61918 L 304.65851,540.50096 L 304.58072,540.50096 L 300.36081,554.61918 L 296.78264,554.61918 L 290.32638,534.43362 L 294.62407,534.43362 L 298.49394,548.57129 L 298.57173,548.57129 L 303.14168,534.43362 L 306.09756,534.43362 L 310.6675,548.57129 L 310.74529,548.57129 L 314.61516,534.43362 L 318.91285,534.43362 L 312.45659,554.61918 L 308.87842,554.61918 z M 337.28988,546.06268 L 324.72738,546.06268 C 324.72738,547.72213 325.17789,548.96671 326.07892,549.79643 C 326.97994,550.62615 328.13053,551.04101 329.53069,551.04101 C 331.20308,551.04101 332.68102,550.39279 333.96451,549.09635 L 336.90095,551.60496 C 335.90267,552.77175 334.77801,553.60472 333.52696,554.10384 C 332.27589,554.60297 330.96973,554.85254 329.60848,554.85254 C 327.53417,554.85254 325.52469,554.18163 323.58004,552.83982 C 321.63537,551.498 320.66305,548.7528 320.66305,544.60419 C 320.66305,540.67599 321.56083,537.95995 323.3564,536.45607 C 325.15196,534.95222 327.02856,534.20029 328.98619,534.20027 C 331.20308,534.20029 333.14126,534.96843 334.80071,536.50469 C 336.46014,538.04098 337.28986,540.11204 337.28988,542.71787 L 337.28988,546.06268 z M 324.72738,542.71787 L 333.24499,542.71787 C 333.18015,541.20105 332.75233,540.04074 331.96151,539.23693 C 331.17067,538.43315 330.1789,538.03126 328.98619,538.03124 C 327.78049,538.03126 326.77899,538.43315 325.98169,539.23693 C 325.18437,540.04074 324.76627,541.20105 324.72738,542.71787 L 324.72738,542.71787 z M 341.6848,554.61918 L 341.6848,534.43362 L 345.74914,534.43362 L 345.74914,554.61918 L 341.6848,554.61918 z M 341.6848,530.34984 L 341.6848,526.28551 L 345.74914,526.28551 L 345.74914,530.34984 L 341.6848,530.34984 z M 348.89949,551.25492 L 351.73869,548.45461 C 353.50184,550.17888 355.62151,551.04101 358.09772,551.04101 C 359.25154,551.04101 360.20442,550.82386 360.95637,550.38955 C 361.70829,549.95524 362.08426,549.31027 362.08427,548.45461 C 362.08426,547.27486 361.26102,546.61368 359.61455,546.47106 L 356.03638,546.14047 C 354.36397,546.01083 352.97678,545.45985 351.87481,544.48751 C 350.77284,543.51519 350.22185,542.16041 350.22185,540.42317 C 350.22185,538.37481 350.94137,536.82557 352.38042,535.77544 C 353.81947,534.72534 355.60855,534.20029 357.74768,534.20027 C 359.51083,534.20029 361.02118,534.44985 362.27873,534.94896 C 363.53627,535.44811 364.66417,536.11253 365.66244,536.94223 L 363.15383,539.89811 C 362.35002,539.35363 361.5203,538.90635 360.66467,538.5563 C 359.80901,538.20628 358.83668,538.03126 357.74768,538.03124 C 356.45123,538.03126 355.55021,538.26138 355.04461,538.7216 C 354.53899,539.18185 354.28618,539.762 354.28619,540.46207 C 354.28618,540.90287 354.47417,541.31125 354.85014,541.6872 C 355.2261,542.06318 355.92618,542.29006 356.95037,542.36783 L 360.29518,542.60119 C 362.38244,542.74381 363.87982,543.38879 364.78734,544.53612 C 365.69483,545.68348 366.14859,547.05446 366.1486,548.64908 C 366.14859,550.63263 365.33831,552.16243 363.71778,553.23847 C 362.09722,554.31452 360.12015,554.85254 357.78657,554.85254 C 354.42879,554.85254 351.46643,553.65333 348.89949,551.25492 L 348.89949,551.25492 z "
       style="font-size:39.82660294px;font-style:normal;font-variant:normal;font-weight:normal;font-stretch:normal;text-align:center;line-height:100%;writing-mode:lr-tb;text-anchor:middle;fill:black;fill-opacity:1;stroke:none;stroke-width:1px;stroke-linecap:butt;stroke-linejoin:miter;stroke-opacity:1;font-family:DIN 1451 Mittelschrift"
       id="text3063" />
    <path
       d="M 149.11178,597.80576 L 149.11178,569.47181 L 153.17615,569.47181 L 165.99158,589.61867 L 166.06937,589.61867 L 166.06937,569.47181 L 170.38655,569.47181 L 170.38655,597.80576 L 166.32217,597.80576 L 153.50675,577.6589 L 153.40951,577.6589 L 153.40951,597.80576 L 149.11178,597.80576 z M 175.98722,597.80576 L 175.98722,577.62001 L 180.0516,577.62001 L 180.0516,579.7786 L 180.12939,579.7786 C 181.38694,578.18398 183.13714,577.38667 185.38002,577.38665 C 186.85796,577.38667 188.26461,577.90525 189.59997,578.94239 L 186.6635,582.44281 C 185.7819,581.78163 184.88735,581.45104 183.97985,581.45102 C 182.98157,581.45104 182.0773,581.78488 181.26702,582.45253 C 180.45673,583.12022 180.05159,584.19303 180.0516,585.67097 L 180.0516,597.80576 L 175.98722,597.80576 z M 191.58354,597.80576 L 191.58354,593.76083 L 195.64791,593.76083 L 195.64791,597.80576 L 191.58354,597.80576 z "
       style="font-size:39.82699966px;font-style:normal;font-variant:normal;font-weight:normal;font-stretch:normal;text-align:center;line-height:100%;writing-mode:lr-tb;text-anchor:middle;fill:black;fill-opacity:1;stroke:none;stroke-width:1px;stroke-linecap:butt;stroke-linejoin:miter;stroke-opacity:1;font-family:DIN 1451 Mittelschrift"
       id="text3066" />
  </g>
</svg>
