<?xml version="1.0" encoding="UTF-8" standalone="no"?>
<!-- Created with Inkscape (http://www.inkscape.org/) -->

<svg
   xmlns:dc="http://purl.org/dc/elements/1.1/"
   xmlns:cc="http://creativecommons.org/ns#"
   xmlns:rdf="http://www.w3.org/1999/02/22-rdf-syntax-ns#"
   xmlns:svg="http://www.w3.org/2000/svg"
   xmlns="http://www.w3.org/2000/svg"
   xmlns:sodipodi="http://sodipodi.sourceforge.net/DTD/sodipodi-0.dtd"
   xmlns:inkscape="http://www.inkscape.org/namespaces/inkscape"
   version="1.0"
   width="490"
   height="270"
   id="svg2"
   inkscape:version="0.48.0 r9654"
   sodipodi:docname="Zusatzzeichen_1000-20.svg">
  <metadata
     id="metadata9">
    <rdf:RDF>
      <cc:Work
         rdf:about="">
        <dc:format>image/svg+xml</dc:format>
        <dc:type
           rdf:resource="http://purl.org/dc/dcmitype/StillImage" />
        <dc:title></dc:title>
      </cc:Work>
    </rdf:RDF>
  </metadata>
  <sodipodi:namedview
     pagecolor="#ffffff"
     bordercolor="#666666"
     borderopacity="1"
     objecttolerance="10"
     gridtolerance="10"
     guidetolerance="10"
     inkscape:pageopacity="0"
     inkscape:pageshadow="2"
     inkscape:window-width="1024"
     inkscape:window-height="688"
     id="namedview7"
     showgrid="false"
     inkscape:zoom="1"
     inkscape:cx="363.54416"
     inkscape:cy="187.49014"
     inkscape:window-x="-8"
     inkscape:window-y="-8"
     inkscape:window-maximized="1"
     inkscape:current-layer="svg2" />
  <defs
     id="defs4" />
  <path
     d="M 38.75,4.75 C 20.325639,4.7499998 9.9375,11.885785 9.9375,32.96875 L 9.625,236.5625 C 9.625,257.64547 20.013141,264.78126 38.4375,264.78125 L 451.1875,264.75 C 469.61186,264.75 479.99999,257.61421 480,236.53125 L 480.3125,33 C 480.3125,11.917035 469.92436,4.7812498 451.5,4.78125 L 38.75,4.75 z "
     style="fill:white;fill-opacity:1;fill-rule:evenodd;stroke:black;stroke-width:2;stroke-linecap:butt;stroke-linejoin:miter;stroke-miterlimit:4;stroke-dasharray:none;stroke-opacity:1"
     id="path1892" />
  <path
     d="M 453.28125,17.5625 L 36.75,17.59375 C 28.325749,17.59375 23.375,23.59476 23.375,32.46875 L 23.375,237.125 C 23.374999,245.99898 28.32576,252 36.75,252 L 453.25,251.96875 C 461.67424,251.96874 466.625,245.96774 466.625,237.09375 L 466.625,32.4375 C 466.625,23.56351 461.70549,17.5625 453.28125,17.5625 z "
     style="fill:none;fill-opacity:1;fill-rule:evenodd;stroke:black;stroke-width:10.05090809;stroke-linecap:butt;stroke-linejoin:miter;stroke-miterlimit:4;stroke-dasharray:none;stroke-opacity:1"
     id="path3976" />
  <g
     id="layer1"
     transform="matrix(0.50133426,0,0,0.50133426,72.777377,69.282127)">
    <path
       id="path1966"
       style="fill:#000000;fill-opacity:1;fill-rule:evenodd;stroke:none"
       d="M 31.761217,26.619391 31.306216,5.7140301 C 31.754181,4.3093648 31.994305,2.6968585 33.909231,2.7591539 L 628.71325,2.3775139 C 655.69631,7.7477606 661.04445,77.952922 675,117.14286 l 0,85 c -6.79808,15.9756 -14.13944,17.28258 -21.42857,20 L 565,221.42857 c 0,-77.22798 -117.14286,-76.79773 -117.14286,0 l -237.85714,0 c 0,-76.94563 -114.285714,-76.96669 -114.285714,0 l -82.142857,0 C 9.6780696,220.28672 7.0245746,216.66514 4.6428571,212.5 L 5.5969572,136.28675 40.376483,35.905105 C 41.587822,29.237159 34.6359,29.712067 31.761217,26.619391 z"
       inkscape:connector-curvature="0" />
    <path
       id="path2856"
       style="fill:#000000;fill-opacity:1;fill-rule:nonzero;stroke:none"
       transform="matrix(1.08125,0,0,1.08125,-58.95434,-28.22524)"
       d="m 566.16677,231.14012 a 43.177639,43.177639 0 1 1 -86.35527,0 43.177639,43.177639 0 1 1 86.35527,0 z"
       inkscape:connector-curvature="0" />
    <path
       id="path3745"
       style="fill:#000000;fill-opacity:1;fill-rule:nonzero;stroke:none"
       transform="matrix(1.08125,0,0,1.08125,-412.2014,-27.95538)"
       d="m 566.16677,231.14012 a 43.177639,43.177639 0 1 1 -86.35527,0 43.177639,43.177639 0 1 1 86.35527,0 z"
       inkscape:connector-curvature="0" />
    <path
       id="path3747"
       style="fill:#ffffff;fill-opacity:1;fill-rule:evenodd;stroke:none"
       d="M 531.61675,40.718007 552.142,110.69117 c 1.20831,2.85368 2.39422,5.72479 5.7385,6.91716 l 71.15977,-0.17462 c 2.83855,-2.4727 5.76469,-4.78515 6.21075,-9.88958 L 615.09087,37.58684 c -1.64733,-5.519056 -3.91787,-7.091147 -6.28615,-8.044229 l -72.52098,0.09128 c -3.53544,2.110888 -4.77695,6.056918 -4.66699,11.08412 z"
       inkscape:connector-curvature="0" />
    <path
       id="path4634"
       style="fill:#ffffff;fill-opacity:1;fill-rule:evenodd;stroke:none"
       d="m 429.39705,40.58628 20.52525,69.97316 c 1.20831,2.85368 2.39422,5.72479 5.7385,6.91716 l 71.15977,-0.17462 c 2.83855,-2.4727 5.76469,-4.78515 6.21075,-9.88958 L 512.87117,37.455113 c -1.64733,-5.519056 -3.91787,-7.091147 -6.28615,-8.044229 l -72.52098,0.09128 c -3.53544,2.110888 -4.77695,6.056918 -4.66699,11.08412 z"
       inkscape:connector-curvature="0" />
    <path
       id="path4636"
       style="fill:#ffffff;fill-opacity:1;fill-rule:evenodd;stroke:none"
       d="m 327.98862,40.586273 20.52525,69.973167 c 1.20831,2.85368 2.39422,5.72479 5.7385,6.91716 l 71.15977,-0.17462 c 2.83855,-2.4727 5.76469,-4.78515 6.21075,-9.88958 L 411.46274,37.455106 c -1.64733,-5.519056 -3.91787,-7.091147 -6.28615,-8.044229 l -72.52098,0.09128 c -3.53544,2.110888 -4.77695,6.056918 -4.66699,11.08412 z"
       inkscape:connector-curvature="0" />
    <path
       id="path4638"
       style="fill:#ffffff;fill-opacity:1;fill-rule:evenodd;stroke:none"
       d="m 227.1726,40.586276 20.52525,69.973164 c 1.20831,2.85368 2.39422,5.72479 5.7385,6.91716 l 71.15977,-0.17462 c 2.83855,-2.4727 5.76469,-4.78515 6.21075,-9.88958 L 310.64672,37.455109 c -1.64733,-5.519056 -3.91787,-7.091147 -6.28615,-8.044229 l -72.52098,0.09128 c -3.53544,2.110888 -4.77695,6.056918 -4.66699,11.08412 z"
       inkscape:connector-curvature="0" />
    <path
       id="path4640"
       style="fill:#ffffff;fill-opacity:1;fill-rule:evenodd;stroke:none"
       d="m 142.51433,35.694816 -0.012,75.267214 c 1.20831,2.85368 3.30699,5.54224 6.65127,6.73461 l 73.89807,-0.2659 c 2.83855,-2.4727 5.76469,-4.78515 6.21075,-9.88958 L 209.10226,37.583869 c -1.64733,-5.519056 -3.91787,-7.091147 -6.28615,-8.044229 l -54.8133,-0.09128 c -3.53544,2.110888 -4.32056,2.132019 -5.48848,6.246453 z"
       inkscape:connector-curvature="0" />
    <path
       id="path4642"
       style="fill:#ffffff;fill-opacity:1;fill-rule:evenodd;stroke:none"
       d="m 124.8189,37.998446 -0.12986,72.813024 c -1.20831,2.85368 -2.39422,5.72479 -5.7385,6.91716 l -83.680988,-0.43279 c -2.83855,-2.4727 -5.76469,-4.78515 -6.21075,-9.88958 L 54.124173,37.707145 c 1.64733,-5.519056 3.917867,-7.091147 6.286147,-8.044229 l 59.74159,0.22036 c 3.53544,2.110888 4.77695,3.087968 4.66699,8.11517 z"
       inkscape:connector-curvature="0" />
  </g>
</svg>
