<?xml version="1.0" encoding="UTF-8" standalone="no"?>
<!-- Created with Inkscape (http://www.inkscape.org/) -->
<svg
   xmlns:svg="http://www.w3.org/2000/svg"
   xmlns="http://www.w3.org/2000/svg"
   version="1.0"
   width="490"
   height="270"
   id="svg2">
  <defs
     id="defs4" />
  <path
     d="M 38.75,4.75 C 20.325639,4.7499998 9.9375,11.885785 9.9375,32.96875 L 9.625,236.5625 C 9.625,257.64547 20.013141,264.78126 38.4375,264.78125 L 451.1875,264.75 C 469.61186,264.75 479.99999,257.61421 480,236.53125 L 480.3125,33 C 480.3125,11.917035 469.92436,4.7812498 451.5,4.78125 L 38.75,4.75 z "
     style="fill:white;fill-opacity:1;fill-rule:evenodd;stroke:black;stroke-width:2;stroke-linecap:butt;stroke-linejoin:miter;stroke-miterlimit:4;stroke-dasharray:none;stroke-opacity:1"
     id="path1892" />
  <path
     d="M 23.163837,32.186397 L 23.163837,235.10799 C 23.163837,247.1744 29.516661,252.69452 39.224371,252.69452 L 452.78318,252.69452 C 461.79816,252.69452 466.83616,246.74689 466.83616,236.46079 L 466.83616,34.215611 C 466.83616,25.6835 458.69131,17.305482 448.09888,17.305482 L 36.547616,17.305482 C 28.12336,17.305482 23.163837,23.312408 23.163837,32.186397 z "
     style="fill:none;fill-opacity:1;fill-rule:evenodd;stroke:black;stroke-width:10.05090809;stroke-linecap:butt;stroke-linejoin:miter;stroke-miterlimit:4;stroke-dasharray:none;stroke-opacity:1"
     id="path1884" />
  <path
     d="M 44.710484,181.81859 L 79.928259,85.3007 L 91.976445,85.3007 L 127.19422,181.81859 L 111.83609,181.81859 L 104.42182,160.03917 L 67.813874,160.03917 L 60.13481,181.81859 L 44.710484,181.81859 z M 72.116797,147.1304 L 100.0527,147.1304 C 98.022551,141.17255 96.422748,136.50554 95.253287,133.12935 C 94.083725,129.75326 93.068677,126.76329 92.208141,124.15941 C 91.34751,121.55565 90.475893,118.9077 89.593287,116.21555 C 88.710592,113.52353 87.541081,109.8826 86.08475,105.29275 C 84.54007,110.05913 83.30436,113.86556 82.377615,116.71204 C 81.450795,119.55865 80.557112,122.3059 79.696563,124.9538 C 78.835944,127.6018 77.842963,130.55868 76.717616,133.82444 C 75.592205,137.09029 74.0586,141.52561 72.116797,147.1304 L 72.116797,147.1304 z M 138.11703,181.88479 L 138.11703,113.17041 L 151.95258,113.17041 L 151.95258,120.51848 L 152.21738,120.51848 C 156.49821,115.09024 162.4561,112.37609 170.09106,112.37602 C 175.43105,112.37609 180.58352,114.40618 185.54849,118.46631 C 190.51334,122.52657 192.99579,128.44032 192.99586,136.2076 L 192.99586,181.88479 L 179.1603,181.88479 L 179.1603,140.97391 C 179.16025,136.34004 177.86937,132.72117 175.28767,130.11731 C 172.70587,127.51354 169.49523,126.21163 165.65574,126.21157 C 161.68378,126.21163 158.40694,127.51354 155.82521,130.11731 C 153.24344,132.72117 151.95256,136.34004 151.95258,140.97391 L 151.95258,181.88479 L 138.11703,181.88479 z M 213.12031,181.88479 L 213.12031,123.76222 L 206.16943,123.76222 L 206.16943,113.17041 L 213.12031,113.17041 L 213.12031,104.10117 C 213.1203,97.702031 214.8856,92.990886 218.41621,89.967717 C 221.9468,86.944733 226.40418,85.433194 231.78838,85.433098 L 240.72522,85.433098 L 240.72522,98.408068 L 232.91376,98.408068 C 228.89767,98.408151 226.88964,100.30585 226.88966,104.10117 L 226.88966,113.17041 L 240.72522,113.17041 L 240.72522,123.76222 L 226.88966,123.76222 L 226.88966,181.88479 L 213.12031,181.88479 z M 284.61503,181.88479 L 284.61503,175.7945 L 284.28403,175.7945 C 281.50364,180.38428 275.85468,182.67917 267.33713,182.67917 C 259.65805,182.67917 253.70016,180.68218 249.46345,176.68818 C 245.22672,172.69419 243.10836,167.69619 243.10836,161.69415 C 243.10836,156.26587 244.98399,151.52162 248.73526,147.4614 C 252.48652,143.40124 258.06928,141.37115 265.48357,141.37111 L 284.61503,141.37111 L 284.61503,134.22163 C 284.61498,128.35206 279.91487,125.41725 270.51468,125.41719 C 263.98304,125.41725 259.63598,127.16048 257.47351,130.6469 L 246.6169,122.43824 C 251.42734,115.73016 259.15053,112.37609 269.78649,112.37602 C 278.2599,112.37609 285.14457,114.03106 290.44053,117.34093 C 295.73637,120.65093 298.38433,126.54262 298.38438,135.01602 L 298.38438,181.88479 L 284.61503,181.88479 z M 284.61503,157.78841 L 284.61503,152.7573 L 268.06532,152.7573 C 260.07731,152.75733 256.08332,155.51561 256.08333,161.03216 C 256.08332,163.3712 257.08733,165.4013 259.09538,167.12245 C 261.10339,168.84363 264.44643,169.70422 269.1245,169.7042 C 274.8617,169.70422 278.87776,169.06429 281.17269,167.78444 C 283.46754,166.50461 284.61498,163.1726 284.61503,157.78841 L 284.61503,157.78841 z M 316.32427,181.88479 L 316.32427,113.17041 L 330.15982,113.17041 L 330.15982,120.51848 L 330.42462,120.51848 C 334.70545,115.09024 340.66333,112.37609 348.2983,112.37602 C 353.63829,112.37609 358.79076,114.40618 363.75572,118.46631 C 368.72058,122.52657 371.20303,128.44032 371.20309,136.2076 L 371.20309,181.88479 L 357.36754,181.88479 L 357.36754,140.97391 C 357.36749,136.34004 356.07661,132.72117 353.49491,130.11731 C 350.91311,127.51354 347.70247,126.21163 343.86298,126.21157 C 339.89102,126.21163 336.61418,127.51354 334.03245,130.11731 C 331.45067,132.72117 330.1598,136.34004 330.15982,140.97391 L 330.15982,181.88479 L 316.32427,181.88479 z M 427.73691,181.81859 L 427.73691,174.73531 C 422.92642,180.03122 417.01266,182.67917 409.99562,182.67917 C 405.49408,182.67917 401.73178,181.78549 398.70872,179.99812 C 395.68563,178.21076 393.40177,176.32409 391.85714,174.33812 C 389.87117,171.77844 388.51409,169.06429 387.78592,166.19567 C 387.05772,163.32707 386.69363,157.12645 386.69363,147.5938 C 386.69363,138.06121 387.05772,131.86059 387.78592,128.99193 C 388.51409,126.12337 389.87117,123.38715 391.85714,120.78327 C 393.40177,118.8415 395.68563,116.95484 398.70872,115.12327 C 401.73178,113.29184 405.49408,112.37609 409.99562,112.37602 C 416.70373,112.37609 422.61749,115.09024 427.73691,120.51848 L 427.73691,113.17041 L 441.57246,113.17041 L 441.57246,180.29602 C 441.5724,190.62302 438.56036,198.23588 432.53632,203.13461 C 426.51218,208.0333 419.59441,210.48265 411.78299,210.48268 C 407.36971,210.48265 403.04472,209.42347 398.80802,207.30514 C 394.57128,205.18675 390.93035,202.4064 387.88521,198.96408 L 398.60942,190.42444 C 400.28644,192.10146 402.28344,193.55783 404.60042,194.79356 C 406.91735,196.02926 409.3998,196.64711 412.04779,196.64713 C 416.63753,196.64711 420.39983,195.36727 423.33469,192.80759 C 426.26945,190.2479 427.73686,186.5849 427.73691,181.81859 L 427.73691,181.81859 z M 400.52919,147.5938 C 400.52917,153.11039 400.6726,156.77339 400.95948,158.5828 C 401.24632,160.39226 402.00761,162.06929 403.24334,163.61391 C 404.1701,164.84964 405.53821,166.04122 407.34767,167.18865 C 409.15707,168.33611 411.45196,168.90983 414.23235,168.90982 C 416.9244,168.90983 419.16412,168.33611 420.95153,167.18865 C 422.73885,166.04122 424.11799,164.84964 425.08895,163.61391 C 426.28049,162.06929 427.01971,160.39226 427.30661,158.5828 C 427.59343,156.77339 427.73686,153.11039 427.73691,147.5938 C 427.73686,142.07727 427.59343,138.41427 427.30661,136.60479 C 427.01971,134.7954 426.28049,133.0963 425.08895,131.50748 C 424.11799,130.31595 422.73885,129.13541 420.95153,127.96584 C 419.16412,126.79639 416.9244,126.21163 414.23235,126.21157 C 411.45196,126.21163 409.15707,126.79639 407.34767,127.96584 C 405.53821,129.13541 404.1701,130.31595 403.24334,131.50748 C 402.00761,133.0963 401.24632,134.7954 400.95948,136.60479 C 400.6726,138.41427 400.52917,142.07727 400.52919,147.5938 L 400.52919,147.5938 z "
     style="font-size:135.57519531px;font-style:normal;font-variant:normal;font-weight:normal;font-stretch:normal;text-align:center;line-height:100%;writing-mode:lr-tb;text-anchor:middle;fill:black;fill-opacity:1;stroke:none;stroke-width:1px;stroke-linecap:butt;stroke-linejoin:miter;stroke-opacity:1;font-family:DIN 1451 Mittelschrift"
     id="text3833" />
</svg>
