<?xml version="1.0" encoding="UTF-8" standalone="no"?>
<!-- Created with Inkscape (http://www.inkscape.org/) -->
<svg
   xmlns:svg="http://www.w3.org/2000/svg"
   xmlns="http://www.w3.org/2000/svg"
   version="1.0"
   width="490"
   height="270"
   id="svg2">
  <defs
     id="defs4" />
  <path
     d="M 38.78125,4.984375 C 20.356889,4.9843748 9.96875,12.12016 9.96875,33.203125 L 9.65625,236.79688 C 9.65625,257.87984 20.044391,265.01563 38.46875,265.01563 L 451.21875,264.98438 C 469.64311,264.98438 480.03124,257.84859 480.03125,236.76563 L 480.34375,33.234375 C 480.34375,12.15141 469.95561,5.0156248 451.53125,5.015625 L 38.78125,4.984375 z "
     style="fill:white;fill-opacity:1;fill-rule:evenodd;stroke:black;stroke-width:2;stroke-linecap:butt;stroke-linejoin:miter;stroke-miterlimit:4;stroke-dasharray:none;stroke-opacity:1"
     id="path1881" />
  <path
     d="M 453.3125,17.796875 L 36.78125,17.828125 C 28.356999,17.828125 23.40625,23.829135 23.40625,32.703125 L 23.40625,237.35938 C 23.406249,246.23335 28.35701,252.23438 36.78125,252.23438 L 453.28125,252.20313 C 461.70549,252.20312 466.65625,246.20211 466.65625,237.32813 L 466.65625,32.671875 C 466.65625,23.797885 461.73674,17.796875 453.3125,17.796875 z "
     style="fill:none;fill-opacity:1;fill-rule:evenodd;stroke:black;stroke-width:10.05090809;stroke-linecap:butt;stroke-linejoin:miter;stroke-miterlimit:4;stroke-dasharray:none;stroke-opacity:1"
     id="path3976" />
  <path
     d="M 80.239381,108.66835 L 80.239381,158.97358 L 204.11877,158.97358 L 204.11877,108.66835 L 80.239381,108.66835 z "
     style="fill:white;fill-opacity:1;fill-rule:evenodd;stroke:none;stroke-width:1px;stroke-linecap:butt;stroke-linejoin:miter;stroke-opacity:1"
     id="path20922" />
  <g
     transform="translate(281.6575,-442.2194)"
     id="g3003">
    <g
       transform="matrix(4.837849,0,0,4.837849,61.913,-932.9504)"
       id="g2972">
      <path
         d="M -35.212572,318.50098 C -35.211894,322.66083 -38.583928,326.03341 -42.743778,326.03341 C -46.903628,326.03341 -50.275662,322.66083 -50.274984,318.50098 C -50.275662,314.34113 -46.903628,310.96855 -42.743778,310.96855 C -38.583928,310.96855 -35.211894,314.34113 -35.212572,318.50098 L -35.212572,318.50098 z "
         transform="matrix(1.103775,0,0,1.103775,8.653227,-30.10701)"
         style="opacity:1;fill:none;fill-opacity:1;fill-rule:nonzero;stroke:black;stroke-width:1.81196344;stroke-linecap:round;stroke-linejoin:round;stroke-miterlimit:4;stroke-dasharray:none;stroke-dashoffset:0;stroke-opacity:1"
         id="path2974" />
      <path
         d="M -36.78532,312.21483 C -36.78532,316.98239 -36.78532,314.68153 -36.78532,314.68153"
         style="fill:none;fill-opacity:1;fill-rule:evenodd;stroke:white;stroke-width:1.76695538px;stroke-linecap:butt;stroke-linejoin:miter;stroke-opacity:1"
         id="path2976" />
      <path
         d="M -47.292192,317.15326 C -41.96024,317.15326 -44.051937,317.15326 -44.051937,317.15326"
         style="fill:none;fill-opacity:1;fill-rule:evenodd;stroke:white;stroke-width:1.976125px;stroke-linecap:butt;stroke-linejoin:miter;stroke-opacity:1"
         id="path2978" />
      <path
         d="M -44.56103,313.67108 C -39.229078,313.67108 -41.320775,313.67108 -41.320775,313.67108"
         style="fill:none;fill-opacity:1;fill-rule:evenodd;stroke:white;stroke-width:1.976125px;stroke-linecap:butt;stroke-linejoin:miter;stroke-opacity:1"
         id="path2980" />
      <path
         d="M -55.667836,330.11748 C -54.347105,325.16278 -51.67252,315.22275 -51.515523,314.89338 C -51.186883,314.20393 -51.121917,313.65381 -50.034883,313.60631 L -42.886955,313.69168 L -42.886955,310.66214 L -50.333498,310.66214 C -50.178853,309.98746 -50.383012,309.31278 -49.164921,308.6381 L -42.934292,308.6381 L -42.934292,302.66225 C -42.934292,301.09614 -37.064554,301.09983 -37.064554,302.66225 L -37.064554,314.73308 C -37.064554,315.9654 -38.193966,316.81589 -39.857413,316.81589 L -49.324732,316.81589 L -53.490353,330.16481 C -53.745584,331.11734 -55.667836,330.83456 -55.667836,330.11748 z "
         style="fill:black;fill-opacity:1;fill-rule:evenodd;stroke:none;stroke-width:1px;stroke-linecap:butt;stroke-linejoin:miter;stroke-opacity:1"
         id="path2982" />
      <path
         d="M -53.443015,298.59131 C -53.442426,300.16032 -54.714197,301.43257 -56.283211,301.43257 C -57.852224,301.43257 -59.123995,300.16032 -59.123406,298.59131 C -59.123995,297.0223 -57.852224,295.75005 -56.283211,295.75005 C -54.714197,295.75005 -53.442426,297.0223 -53.443015,298.59131 z "
         transform="matrix(1.083333,0,0,1.083333,20.67569,-26.8545)"
         style="opacity:1;fill:black;fill-opacity:1;fill-rule:nonzero;stroke:none;stroke-width:2;stroke-linecap:round;stroke-linejoin:round;stroke-miterlimit:4;stroke-dasharray:none;stroke-dashoffset:0;stroke-opacity:1"
         id="path2984" />
    </g>
    <path
       d="M -41.504311,556.16372 L -41.504311,539.54011 L -38.157168,539.54011 L -38.157168,541.31778 L -38.093107,541.31778 C -37.036122,540.00456 -35.594769,539.34794 -33.769046,539.34793 C -32.605298,539.34794 -31.681765,539.55614 -30.998444,539.97251 C -30.315149,540.38892 -29.674548,540.9014 -29.076639,541.50996 C -27.763422,540.06862 -26.012446,539.34794 -23.823705,539.34793 C -22.531847,539.34794 -21.285344,539.83907 -20.084193,540.82131 C -18.88309,541.80358 -18.282527,543.23426 -18.282501,545.11334 L -18.282501,556.16372 L -21.629645,556.16372 L -21.629645,546.26642 C -21.629667,545.14538 -21.944629,544.26989 -22.574532,543.63996 C -23.204478,543.01005 -23.983876,542.69508 -24.912728,542.69507 C -25.873649,542.69508 -26.666392,543.01005 -27.290962,543.63996 C -27.915564,544.26989 -28.227857,545.14538 -28.227842,546.26642 L -28.227842,556.16372 L -31.55897,556.16372 L -31.55897,546.26642 C -31.558983,545.14538 -31.873945,544.26989 -32.503858,543.63996 C -33.133794,543.01005 -33.913192,542.69508 -34.842054,542.69507 C -35.802965,542.69508 -36.595708,543.01005 -37.220288,543.63996 C -37.84488,544.26989 -38.157173,545.14538 -38.157168,546.26642 L -38.157168,556.16372 L -41.504311,556.16372 z M -13.670169,556.16372 L -13.670169,539.54011 L -10.323025,539.54011 L -10.323025,556.16372 L -13.670169,556.16372 z M -13.670169,536.17695 L -13.670169,532.8298 L -10.323025,532.8298 L -10.323025,536.17695 L -13.670169,536.17695 z M -5.69468,539.54011 L -5.69468,534.49537 L -2.3475363,534.49537 L -2.3475363,539.54011 L 0.086750053,539.54011 L 0.086750053,542.10251 L -2.3475363,542.10251 L -2.3475363,551.7756 C -2.347542,552.60838 -1.9525047,553.02478 -1.1624232,553.02477 L 0.086750053,553.02477 L 0.086750053,556.16372 L -1.6588895,556.16372 C -2.8226544,556.16372 -3.7862251,555.81139 -4.5496045,555.10673 C -5.3129909,554.40207 -5.6946824,553.39312 -5.69468,552.07988 L -5.69468,542.10251 L -7.3602443,542.10251 L -7.3602443,539.54011 L -5.69468,539.54011 z M -37.868897,568.97578 L -37.868897,576.50285 L -32.615963,576.50285 C -31.302742,576.50286 -30.323157,576.10782 -29.677203,575.31773 C -29.031278,574.52767 -28.708308,573.6682 -28.708293,572.73931 C -28.708308,571.33001 -29.215451,570.29437 -30.229722,569.63239 C -30.881013,569.19467 -31.719133,568.9758 -32.744084,568.97578 L -37.868897,568.97578 z M -41.408221,588.96255 L -41.408221,565.62863 L -32.936264,565.62863 C -32.028757,565.62866 -31.155938,565.72475 -30.317805,565.9169 C -29.479699,566.10911 -28.60688,566.55753 -27.699345,567.26217 C -26.994701,567.8067 -26.396806,568.55674 -25.905661,569.51228 C -25.414551,570.46786 -25.168988,571.57557 -25.168969,572.8354 C -25.168988,574.50098 -25.790904,576.08647 -27.034721,577.59187 C -28.278572,579.09729 -30.096277,579.85 -32.487843,579.84999 L -37.868897,579.84999 L -37.868897,588.96255 L -41.408221,588.96255 z M -13.494003,588.96255 L -13.494003,587.48916 L -13.574078,587.48916 C -14.24672,588.59954 -15.613336,589.15473 -17.673929,589.15473 C -19.531679,589.15473 -20.973031,588.67161 -21.99799,587.70537 C -23.022954,586.73913 -23.535435,585.52999 -23.535434,584.07796 C -23.535435,582.76473 -23.081676,581.61699 -22.174156,580.63473 C -21.26664,579.65248 -19.916039,579.16135 -18.12235,579.16134 L -13.494003,579.16134 L -13.494003,577.43172 C -13.494014,576.01173 -14.631081,575.30173 -16.905207,575.30172 C -18.485364,575.30173 -19.537017,575.72346 -20.06017,576.56691 L -22.686637,574.58104 C -21.52288,572.9582 -19.654461,572.14677 -17.081373,572.14675 C -15.031457,572.14677 -13.365894,572.54715 -12.08468,573.34788 C -10.80349,574.14865 -10.162889,575.57399 -10.162875,577.6239 L -10.162875,588.96255 L -13.494003,588.96255 z M -13.494003,583.13307 L -13.494003,581.91593 L -17.497764,581.91593 C -19.43025,581.91594 -20.39649,582.58323 -20.396486,583.91781 C -20.39649,584.48368 -20.153596,584.97481 -19.667802,585.39119 C -19.182017,585.80759 -18.373259,586.01578 -17.241523,586.01578 C -15.853561,586.01578 -14.881983,585.86097 -14.326785,585.55134 C -13.771608,585.24172 -13.494014,584.43563 -13.494003,583.13307 L -13.494003,583.13307 z M -5.8227964,588.96255 L -5.8227964,572.33894 L -2.4756527,572.33894 L -2.4756527,574.1166 L -2.4115926,574.1166 C -1.3759599,572.80339 0.065392441,572.14677 1.9124687,572.14675 C 3.1296007,572.14677 4.2880209,572.57384 5.3877327,573.42796 L 2.9694614,576.31067 C 2.2434359,575.76617 1.5067447,575.49391 0.75938566,575.4939 C -0.062727764,575.49391 -0.80742645,575.76884 -1.4747126,576.31867 C -2.1420119,576.86853 -2.4756583,577.75203 -2.4756527,578.96916 L -2.4756527,588.96255 L -5.8227964,588.96255 z M 6.9251741,588.96255 L 6.9251741,565.62863 L 10.272318,565.62863 L 10.272318,580.15428 L 10.336378,580.15428 L 16.72638,572.33894 L 20.73014,572.33894 L 14.996755,578.84104 L 21.514877,588.96255 L 17.318936,588.96255 L 12.898785,581.19525 L 10.272318,584.19007 L 10.272318,588.96255 L 6.9251741,588.96255 z M 32.69338,588.96255 L 32.69338,587.48916 L 32.613305,587.48916 C 31.940663,588.59954 30.574048,589.15473 28.513455,589.15473 C 26.655705,589.15473 25.214352,588.67161 24.189393,587.70537 C 23.164429,586.73913 22.651948,585.52999 22.651949,584.07796 C 22.651948,582.76473 23.105707,581.61699 24.013228,580.63473 C 24.920744,579.65248 26.271344,579.16135 28.065033,579.16134 L 32.69338,579.16134 L 32.69338,577.43172 C 32.693369,576.01173 31.556303,575.30173 29.282176,575.30172 C 27.70202,575.30173 26.650366,575.72346 26.127213,576.56691 L 23.500746,574.58104 C 24.664503,572.9582 26.532923,572.14677 29.106011,572.14675 C 31.155927,572.14677 32.82149,572.54715 34.102704,573.34788 C 35.383894,574.14865 36.024495,575.57399 36.024509,577.6239 L 36.024509,588.96255 L 32.69338,588.96255 z M 32.69338,583.13307 L 32.69338,581.91593 L 28.68962,581.91593 C 26.757133,581.91594 25.790893,582.58323 25.790897,583.91781 C 25.790893,584.48368 26.033788,584.97481 26.519582,585.39119 C 27.005366,585.80759 27.814125,586.01578 28.945861,586.01578 C 30.333822,586.01578 31.305401,585.86097 31.860598,585.55134 C 32.415776,585.24172 32.693369,584.43563 32.69338,583.13307 L 32.69338,583.13307 z M 40.364581,583.38931 L 40.364581,572.33894 L 43.711725,572.33894 L 43.711725,582.25225 C 43.71172,583.38398 44.024013,584.26214 44.648605,584.88672 C 45.273185,585.51131 46.065928,585.8236 47.026839,585.8236 C 47.955701,585.8236 48.73243,585.51131 49.357027,584.88672 C 49.981602,584.26214 50.293895,583.38398 50.293907,582.25225 L 50.293907,572.33894 L 53.641051,572.33894 L 53.641051,588.96255 L 50.293907,588.96255 L 50.293907,587.20089 L 50.229847,587.20089 C 49.194197,588.50345 47.763521,589.15473 45.937816,589.15473 C 44.624576,589.15473 43.367397,588.66627 42.166274,587.68935 C 40.965143,586.71244 40.364579,585.27909 40.364581,583.38931 L 40.364581,583.38931 z M 56.139398,586.19195 L 58.477594,583.88578 C 59.929621,585.30578 61.675258,586.01578 63.714513,586.01578 C 64.66473,586.01578 65.449466,585.83695 66.068724,585.47928 C 66.687962,585.12161 66.997585,584.59045 66.997597,583.88578 C 66.997585,582.91421 66.319616,582.3697 64.963686,582.25225 L 62.016919,581.97999 C 60.63962,581.87323 59.497215,581.41947 58.5897,580.61871 C 57.682179,579.81797 57.22842,578.70226 57.228421,577.27157 C 57.22842,575.58466 57.820976,574.3088 59.006091,573.44397 C 60.191199,572.57918 61.664582,572.14677 63.426242,572.14675 C 64.878264,572.14677 66.122097,572.3523 67.157747,572.76333 C 68.193374,573.1744 69.122245,573.72158 69.944364,574.40488 L 67.878424,576.83916 C 67.216457,576.39075 66.53315,576.02241 65.828499,575.73412 C 65.123827,575.44587 64.323076,575.30173 63.426242,575.30172 C 62.358566,575.30173 61.616537,575.49124 61.200151,575.87025 C 60.783755,576.24929 60.57556,576.72707 60.575565,577.3036 C 60.57556,577.66662 60.730372,578.00293 61.040001,578.31255 C 61.34962,578.62218 61.926161,578.80902 62.769626,578.87307 L 65.524213,579.06525 C 67.243149,579.18271 68.476306,579.71387 69.223687,580.65875 C 69.971042,581.60364 70.344726,582.7327 70.34474,584.04593 C 70.344726,585.67947 69.677433,586.93932 68.34286,587.82548 C 67.008262,588.71165 65.380068,589.15473 63.458272,589.15473 C 60.693004,589.15473 58.253381,588.16714 56.139398,586.19195 L 56.139398,586.19195 z M 86.920312,588.96255 L 83.445048,577.33563 L 83.380987,577.33563 L 79.905723,588.96255 L 76.958956,588.96255 L 71.641962,572.33894 L 75.181286,572.33894 L 78.368279,583.98187 L 78.43234,583.98187 L 82.195874,572.33894 L 84.630161,572.33894 L 88.393696,583.98187 L 88.457756,583.98187 L 91.644749,572.33894 L 95.184073,572.33894 L 89.867079,588.96255 L 86.920312,588.96255 z M 110.31829,581.91593 L 99.972572,581.91593 C 99.972567,583.28255 100.34358,584.30751 101.08562,584.99082 C 101.82764,585.67413 102.7752,586.01578 103.92829,586.01578 C 105.30557,586.01578 106.52271,585.48195 107.57972,584.41428 L 109.99799,586.48022 C 109.17587,587.44112 108.24967,588.1271 107.21938,588.53815 C 106.18907,588.9492 105.11339,589.15473 103.99235,589.15473 C 102.28407,589.15473 100.62918,588.60221 99.027684,587.49717 C 97.426178,586.39214 96.625427,584.13135 96.625428,580.7148 C 96.625427,577.47977 97.364787,575.24301 98.843511,574.0045 C 100.32223,572.76602 101.86768,572.14677 103.47987,572.14675 C 105.30557,572.14677 106.90173,572.77936 108.26836,574.04454 C 109.63497,575.30974 110.31827,577.01534 110.31829,579.16134 L 110.31829,581.91593 z M 99.972572,579.16134 L 106.98716,579.16134 C 106.93376,577.91218 106.58143,576.95662 105.93017,576.29465 C 105.27888,575.63271 104.46211,575.30173 103.47987,575.30172 C 102.48693,575.30173 101.66215,575.63271 101.00554,576.29465 C 100.34892,576.95662 100.0046,577.91218 99.972572,579.16134 L 99.972572,579.16134 z M 113.93768,588.96255 L 113.93768,572.33894 L 117.28483,572.33894 L 117.28483,588.96255 L 113.93768,588.96255 z M 113.93768,568.97578 L 113.93768,565.62863 L 117.28483,565.62863 L 117.28483,568.97578 L 113.93768,568.97578 z M 119.87926,586.19195 L 122.21745,583.88578 C 123.66948,585.30578 125.41512,586.01578 127.45437,586.01578 C 128.40459,586.01578 129.18933,585.83695 129.80858,585.47928 C 130.42782,585.12161 130.73745,584.59045 130.73746,583.88578 C 130.73745,582.91421 130.05948,582.3697 128.70355,582.25225 L 125.75678,581.97999 C 124.37948,581.87323 123.23708,581.41947 122.32956,580.61871 C 121.42204,579.81797 120.96828,578.70226 120.96828,577.27157 C 120.96828,575.58466 121.56084,574.3088 122.74595,573.44397 C 123.93106,572.57918 125.40444,572.14677 127.1661,572.14675 C 128.61812,572.14677 129.86196,572.3523 130.89761,572.76333 C 131.93323,573.1744 132.86211,573.72158 133.68422,574.40488 L 131.61828,576.83916 C 130.95632,576.39075 130.27301,576.02241 129.56836,575.73412 C 128.86369,575.44587 128.06294,575.30173 127.1661,575.30172 C 126.09843,575.30173 125.3564,575.49124 124.94001,575.87025 C 124.52362,576.24929 124.31542,576.72707 124.31543,577.3036 C 124.31542,577.66662 124.47023,578.00293 124.77986,578.31255 C 125.08948,578.62218 125.66602,578.80902 126.50949,578.87307 L 129.26407,579.06525 C 130.98301,579.18271 132.21617,579.71387 132.96355,580.65875 C 133.7109,581.60364 134.08459,582.7327 134.0846,584.04593 C 134.08459,585.67947 133.41729,586.93932 132.08272,587.82548 C 130.74812,588.71165 129.11993,589.15473 127.19813,589.15473 C 124.43286,589.15473 121.99324,588.16714 119.87926,586.19195 L 119.87926,586.19195 z M -41.408221,621.76138 L -41.408221,598.42746 L -38.061077,598.42746 L -27.507165,615.01904 L -27.443105,615.01904 L -27.443105,598.42746 L -23.887766,598.42746 L -23.887766,621.76138 L -27.234909,621.76138 L -37.788822,605.16979 L -37.868897,605.16979 L -37.868897,621.76138 L -41.408221,621.76138 z M -19.275433,621.76138 L -19.275433,605.13776 L -15.928289,605.13776 L -15.928289,606.91543 L -15.864229,606.91543 C -14.828597,605.60222 -13.387244,604.9456 -11.540168,604.94558 C -10.323036,604.9456 -9.1646159,605.37267 -8.064904,606.22679 L -10.483175,609.10949 C -11.209201,608.565 -11.945892,608.29274 -12.693251,608.29273 C -13.515364,608.29274 -14.260063,608.56766 -14.927349,609.1175 C -15.594649,609.66736 -15.928295,610.55086 -15.928289,611.76799 L -15.928289,621.76138 L -19.275433,621.76138 z M -6.4313685,621.76138 L -6.4313685,618.43025 L -3.0842248,618.43025 L -3.0842248,621.76138 L -6.4313685,621.76138 z "
       style="font-size:32.79880524px;font-style:normal;font-variant:normal;font-weight:normal;font-stretch:normal;text-align:start;line-height:100%;writing-mode:lr-tb;text-anchor:start;fill:black;fill-opacity:1;stroke:none;stroke-width:1px;stroke-linecap:butt;stroke-linejoin:miter;stroke-opacity:1;font-family:DIN 1451 Mittelschrift"
       id="text4130" />
  </g>
</svg>
