<?xml version="1.0" encoding="UTF-8" standalone="no"?>
<!-- Created with Inkscape (http://www.inkscape.org/) -->
<svg
   xmlns:svg="http://www.w3.org/2000/svg"
   xmlns="http://www.w3.org/2000/svg"
   version="1.0"
   width="490"
   height="270"
   id="svg2">
  <defs
     id="defs4" />
  <path
     d="M 38.78125,4.984375 C 20.356889,4.9843748 9.96875,12.12016 9.96875,33.203125 L 9.65625,236.79688 C 9.65625,257.87984 20.044391,265.01563 38.46875,265.01563 L 451.21875,264.98438 C 469.64311,264.98438 480.03124,257.84859 480.03125,236.76563 L 480.34375,33.234375 C 480.34375,12.15141 469.95561,5.0156248 451.53125,5.015625 L 38.78125,4.984375 z "
     style="fill:white;fill-opacity:1;fill-rule:evenodd;stroke:black;stroke-width:2;stroke-linecap:butt;stroke-linejoin:miter;stroke-miterlimit:4;stroke-dasharray:none;stroke-opacity:1"
     id="path1881" />
  <path
     d="M 453.3125,17.796875 L 36.78125,17.828125 C 28.356999,17.828125 23.40625,23.829135 23.40625,32.703125 L 23.40625,237.35938 C 23.406249,246.23335 28.35701,252.23438 36.78125,252.23438 L 453.28125,252.20313 C 461.70549,252.20312 466.65625,246.20211 466.65625,237.32813 L 466.65625,32.671875 C 466.65625,23.797885 461.73674,17.796875 453.3125,17.796875 z "
     style="fill:none;fill-opacity:1;fill-rule:evenodd;stroke:black;stroke-width:10.05090809;stroke-linecap:butt;stroke-linejoin:miter;stroke-miterlimit:4;stroke-dasharray:none;stroke-opacity:1"
     id="path3976" />
  <g
     transform="translate(27.35368,-198.0654)"
     id="g3653">
    <path
       d="M 85.77768,410.77601 L 85.77768,351.4087 L 94.28781,351.4087 L 94.28781,355.84699 C 97.24666,352.56242 100.88416,350.92012 105.20032,350.92008 C 107.77912,350.92012 110.00506,351.44267 111.87813,352.48773 C 113.75114,353.53288 115.29843,354.84265 116.52002,356.41705 C 117.68724,357.93724 118.48125,359.70848 118.90204,361.73079 C 119.32276,363.75317 119.53314,367.37031 119.53317,372.58223 C 119.53314,377.76704 119.32276,381.3774 118.90204,383.4133 C 118.48125,385.44922 117.68724,387.21368 116.52002,388.70668 C 115.29843,390.30827 113.75114,391.61804 111.87813,392.636 C 110.00506,393.65396 107.77912,394.16294 105.20032,394.16294 C 103.00151,394.16294 101.02668,393.71504 99.27581,392.81923 C 97.5249,391.92343 95.86224,390.71546 94.28781,389.1953 L 94.28781,410.77601 L 85.77768,410.77601 z M 102.63507,385.69353 C 106.62544,385.69353 109.02103,384.32269 109.82185,381.58098 C 110.62262,378.83929 111.02301,375.83971 111.02304,372.58223 C 111.02301,369.32478 110.62262,366.31842 109.82185,363.56312 C 109.02103,360.80788 106.62544,359.43024 102.63507,359.43021 C 98.64466,359.43024 96.25585,360.85538 95.46864,363.70563 C 94.68141,366.55594 94.2878,369.5148 94.28781,372.58223 C 94.2878,375.64969 94.68141,378.60177 95.46864,381.43846 C 96.25585,384.27518 98.64466,385.69353 102.63507,385.69353 L 102.63507,385.69353 z M 130.44569,393.67432 L 130.44569,357.92363 L 126.17026,357.92363 L 126.17026,351.4087 L 130.44569,351.4087 L 130.44569,345.83029 C 130.44568,341.89423 131.5315,338.99645 133.70315,337.13692 C 135.87478,335.27751 138.61648,334.34778 141.92825,334.34772 L 147.42523,334.34772 L 147.42523,342.32851 L 142.62047,342.32851 C 140.1502,342.32856 138.91508,343.49582 138.9151,345.83029 L 138.9151,351.4087 L 147.42523,351.4087 L 147.42523,357.92363 L 138.9151,357.92363 L 138.9151,393.67432 L 130.44569,393.67432 z M 152.22999,383.45402 L 152.22999,334.34772 L 160.74012,334.34772 L 160.74012,382.76181 C 160.74011,384.7163 161.79878,385.69353 163.91615,385.69353 L 166.80715,385.69353 L 166.80715,393.67432 L 163.06107,393.67432 C 159.96646,393.67432 157.38764,392.92103 155.32458,391.41445 C 153.26152,389.90788 152.22999,387.2544 152.22999,383.45402 L 152.22999,383.45402 z M 173.97358,393.67432 L 173.97358,351.4087 L 182.48371,351.4087 L 182.48371,393.67432 L 173.97358,393.67432 z M 173.97358,342.85785 L 173.97358,334.34772 L 182.48371,334.34772 L 182.48371,342.85785 L 173.97358,342.85785 z M 218.60086,381.25523 L 224.87148,386.87436 C 223.02555,388.99172 220.83355,390.73582 218.29547,392.10666 C 215.75734,393.47751 212.8867,394.16294 209.68355,394.16294 C 204.79733,394.16294 200.3794,392.50027 196.42973,389.17494 C 192.48005,385.84962 190.50522,380.31872 190.50522,372.58223 C 190.50522,364.84577 192.48005,359.3013 196.42973,355.94879 C 200.3794,352.59636 204.79733,350.92012 209.68355,350.92008 C 212.8867,350.92012 215.75734,351.61233 218.29547,352.99671 C 220.83355,354.38117 223.02555,356.13206 224.87148,358.24938 L 218.60086,363.82779 C 216.21203,360.8961 213.34817,359.43024 210.0093,359.43021 C 202.67998,359.43024 199.01534,363.81424 199.01535,372.58223 C 199.01534,381.32311 202.67998,385.69353 210.0093,385.69353 C 213.37532,385.69353 216.23917,384.2141 218.60086,381.25523 L 218.60086,381.25523 z M 230.73493,393.67432 L 230.73493,334.34772 L 239.24506,334.34772 L 239.24506,355.92843 L 239.40793,355.92843 C 242.04103,352.58957 245.70568,350.92012 250.40188,350.92008 C 253.68646,350.92012 256.8557,352.16881 259.90961,354.66616 C 262.96344,357.16359 264.49038,360.80109 264.49042,365.57867 L 264.49042,393.67432 L 255.98029,393.67432 L 255.98029,368.51039 C 255.98026,365.66014 255.18625,363.43421 253.59827,361.83259 C 252.01023,360.23103 250.03539,359.43024 247.67375,359.43021 C 245.23063,359.43024 243.21508,360.23103 241.62708,361.83259 C 240.03905,363.43421 239.24504,365.66014 239.24506,368.51039 L 239.24506,393.67432 L 230.73493,393.67432 z M 276.01369,351.4087 L 276.01369,338.58243 L 284.52382,338.58243 L 284.52382,351.4087 L 290.71301,351.4087 L 290.71301,357.92363 L 284.52382,357.92363 L 284.52382,382.5175 C 284.52381,384.63486 285.52819,385.69353 287.53698,385.69353 L 290.71301,385.69353 L 290.71301,393.67432 L 286.27471,393.67432 C 283.31583,393.67432 280.86595,392.77852 278.92505,390.98691 C 276.98414,389.19531 276.01369,386.63006 276.01369,383.29115 L 276.01369,357.92363 L 271.77899,357.92363 L 271.77899,351.4087 L 276.01369,351.4087 z M 298.89739,393.67432 L 298.89739,351.4087 L 307.40752,351.4087 L 307.40752,393.67432 L 298.89739,393.67432 z M 298.89739,342.85785 L 298.89739,334.34772 L 307.40752,334.34772 L 307.40752,342.85785 L 298.89739,342.85785 z M 342.42528,393.6336 L 342.42528,389.27674 C 339.46639,392.53421 335.82889,394.16294 331.51277,394.16294 C 328.74391,394.16294 326.42975,393.61324 324.57029,392.51385 C 322.71081,391.41445 321.30603,390.25398 320.35595,389.03243 C 319.13439,387.45799 318.29967,385.78854 317.85177,384.02408 C 317.40387,382.25963 317.17991,378.44568 317.17992,372.58223 C 317.17991,366.71881 317.40387,362.90487 317.85177,361.14038 C 318.29967,359.37595 319.13439,357.69293 320.35595,356.0913 C 321.30603,354.89694 322.71081,353.73647 324.57029,352.60989 C 326.42975,351.48339 328.74391,350.92012 331.51277,350.92008 C 335.63887,350.92012 339.27637,352.58957 342.42528,355.92843 L 342.42528,351.4087 L 350.93541,351.4087 L 350.93541,392.69708 C 350.93537,399.04913 349.08269,403.73173 345.37736,406.7449 C 341.67196,409.75804 337.4169,411.26462 332.61216,411.26463 C 329.89759,411.26462 327.23733,410.61312 324.63137,409.31015 C 322.02539,408.00715 319.78588,406.29699 317.91285,404.17965 L 324.50922,398.92698 C 325.54074,399.95851 326.76907,400.85431 328.19423,401.61439 C 329.61935,402.37446 331.14629,402.7545 332.77504,402.7545 C 335.59815,402.7545 337.91231,401.96728 339.71751,400.39284 C 341.52266,398.81839 342.42525,396.56532 342.42528,393.6336 L 342.42528,393.6336 z M 325.69005,372.58223 C 325.69004,375.97544 325.77826,378.22852 325.95472,379.34147 C 326.13115,380.45445 326.59941,381.48598 327.3595,382.43606 C 327.92954,383.19615 328.77105,383.92908 329.88404,384.63485 C 330.99699,385.34064 332.40855,385.69353 334.11874,385.69353 C 335.7746,385.69353 337.15223,385.34064 338.25165,384.63485 C 339.35102,383.92908 340.19932,383.19615 340.79655,382.43606 C 341.52945,381.48598 341.98414,380.45445 342.16061,379.34147 C 342.33703,378.22852 342.42525,375.97544 342.42528,372.58223 C 342.42525,369.18906 342.33703,366.93598 342.16061,365.82298 C 341.98414,364.71005 341.52945,363.66494 340.79655,362.68767 C 340.19932,361.95478 339.35102,361.22863 338.25165,360.50924 C 337.15223,359.78992 335.7746,359.43024 334.11874,359.43021 C 332.40855,359.43024 330.99699,359.78992 329.88404,360.50924 C 328.77105,361.22863 327.92954,361.95478 327.3595,362.68767 C 326.59941,363.66494 326.13115,364.71005 325.95472,365.82298 C 325.77826,366.93598 325.69004,369.18906 325.69005,372.58223 L 325.69005,372.58223 z "
       style="font-size:83.39112854px;font-style:normal;font-variant:normal;font-weight:normal;font-stretch:normal;text-indent:0;text-align:center;text-decoration:none;line-height:100%;letter-spacing:normal;word-spacing:normal;text-transform:none;direction:ltr;block-progression:tb;writing-mode:lr-tb;text-anchor:middle;color:black;fill:black;fill-opacity:1;fill-rule:nonzero;stroke:none;stroke-width:1;stroke-linecap:round;stroke-linejoin:miter;marker:none;marker-start:none;marker-mid:none;marker-end:none;stroke-miterlimit:4;stroke-dashoffset:0;stroke-opacity:1;visibility:visible;display:inline;overflow:visible;font-family:DIN 1451 Mittelschrift"
       id="text3208" />
    <path
       d="M 61.715492,314.15196 L 61.715492,309.7951 C 58.7566,313.05257 55.1191,314.6813 50.802981,314.6813 C 48.034119,314.6813 45.719963,314.1316 43.860506,313.03221 C 42.001027,311.93282 40.596246,310.77235 39.64616,309.55079 C 38.424604,307.97636 37.589879,306.30691 37.141983,304.54244 C 36.694077,302.77799 36.470126,298.96404 36.47013,293.10059 C 36.470126,287.23718 36.694077,283.42323 37.141983,281.65874 C 37.589879,279.89431 38.424604,278.21129 39.64616,276.60967 C 40.596246,275.4153 42.001027,274.25483 43.860506,273.12825 C 45.719963,272.00175 48.034119,271.43848 50.802981,271.43844 C 54.929082,271.43848 58.566582,273.10793 61.715492,276.4468 L 61.715492,271.92706 L 70.225621,271.92706 L 70.225621,313.21544 C 70.225584,319.5675 68.372902,324.2501 64.66757,327.26326 C 60.962174,330.2764 56.707113,331.78298 51.902375,331.783 C 49.187804,331.78298 46.527542,331.13149 43.921584,329.82852 C 41.315602,328.52552 39.076097,326.81535 37.20306,324.69801 L 43.799429,319.44535 C 44.830947,320.47687 46.059282,321.37267 47.484437,322.13276 C 48.909562,322.89282 50.436498,323.27286 52.065249,323.27287 C 54.888363,323.27286 57.202519,322.48564 59.007723,320.91121 C 60.812874,319.33676 61.715462,317.08368 61.715492,314.15196 L 61.715492,314.15196 z M 44.98026,293.10059 C 44.980248,296.4938 45.068471,298.74688 45.244929,299.85983 C 45.421362,300.97281 45.889623,302.00434 46.649712,302.95442 C 47.219753,303.71451 48.061264,304.44744 49.174248,305.15321 C 50.287197,305.85901 51.698765,306.2119 53.408953,306.21189 C 55.064809,306.2119 56.442445,305.85901 57.541863,305.15321 C 58.641232,304.44744 59.489529,303.71451 60.086759,302.95442 C 60.81966,302.00434 61.274348,300.97281 61.450823,299.85983 C 61.627239,298.74688 61.715462,296.4938 61.715492,293.10059 C 61.715462,289.70742 61.627239,287.45434 61.450823,286.34135 C 61.274348,285.22841 60.81966,284.18331 60.086759,283.20604 C 59.489529,282.47314 58.641232,281.747 57.541863,281.02761 C 56.442445,280.30828 55.064809,279.9486 53.408953,279.94857 C 51.698765,279.9486 50.287197,280.30828 49.174248,281.02761 C 48.061264,281.747 47.219753,282.47314 46.649712,283.20604 C 45.889623,284.18331 45.421362,285.22841 45.244929,286.34135 C 45.068471,287.45434 44.980248,289.70742 44.98026,293.10059 L 44.98026,293.10059 z M 114.03854,296.27662 L 87.7345,296.27662 C 87.73449,299.75126 88.6778,302.35723 90.56443,304.09454 C 92.45103,305.83186 94.86019,306.70052 97.79193,306.70051 C 101.29368,306.70052 104.38827,305.34324 107.07571,302.62868 L 113.22417,307.88134 C 111.13393,310.32445 108.77906,312.06854 106.15954,313.11365 C 103.53997,314.15875 100.80506,314.6813 97.9548,314.6813 C 93.6115,314.6813 89.40394,313.27652 85.33212,310.46696 C 81.26028,307.6574 79.22437,301.90933 79.22437,293.22275 C 79.22437,284.99767 81.1042,279.31069 84.86386,276.16177 C 88.62351,273.01292 92.55282,271.43848 96.65182,271.43844 C 101.29368,271.43848 105.35193,273.04686 108.82659,276.26356 C 112.30119,279.48035 114.0385,283.81684 114.03854,289.27307 L 114.03854,296.27662 z M 87.7345,289.27307 L 105.56913,289.27307 C 105.43337,286.09707 104.53757,283.66754 102.88172,281.98449 C 101.22582,280.3015 99.14918,279.45999 96.65182,279.45995 C 94.12726,279.45999 92.03027,280.3015 90.36083,281.98449 C 88.69137,283.66754 87.81593,286.09707 87.7345,289.27307 L 87.7345,289.27307 z M 122.99658,314.19268 L 122.99658,254.86608 L 131.50671,254.86608 L 131.50671,276.4468 C 133.08113,274.95383 134.74379,273.74585 136.4947,272.82286 C 138.24557,271.89996 140.2204,271.43848 142.41922,271.43844 C 144.99802,271.43848 147.22395,271.96103 149.09702,273.0061 C 150.97003,274.05124 152.51733,275.36101 153.73891,276.93541 C 154.90613,278.4556 155.70014,280.22685 156.12093,282.24916 C 156.54165,284.27153 156.75203,287.86153 156.75207,293.01915 C 156.75203,298.23111 156.54165,301.86183 156.12093,303.91131 C 155.70014,305.9608 154.90613,307.73205 153.73891,309.22505 C 152.51733,310.82664 150.97003,312.13641 149.09702,313.15436 C 147.22395,314.17232 144.99802,314.6813 142.41922,314.6813 C 138.07591,314.6813 134.43841,313.05257 131.50671,309.7951 L 131.50671,314.19268 L 122.99658,314.19268 z M 139.85396,279.94857 C 135.86355,279.9486 133.47474,281.37374 132.68754,284.224 C 131.9003,287.0743 131.50669,290.00602 131.50671,293.01915 C 131.50669,296.11376 131.9003,299.0862 132.68754,301.93647 C 133.47474,304.78676 135.86355,306.2119 139.85396,306.21189 C 143.84433,306.2119 146.23992,304.84105 147.04075,302.09934 C 147.84151,299.35765 148.24191,296.33093 148.24194,293.01915 C 148.24191,289.78886 147.84151,286.80285 147.04075,284.06112 C 146.23992,281.31945 143.84433,279.9486 139.85396,279.94857 L 139.85396,279.94857 z M 166.32087,300.02271 L 166.32087,271.92706 L 174.831,271.92706 L 174.831,297.1317 C 174.83099,300.00915 175.62499,302.24187 177.21302,303.82987 C 178.80102,305.41789 180.81657,306.2119 183.25969,306.21189 C 185.62133,306.2119 187.59617,305.41789 189.18421,303.82987 C 190.77219,302.24187 191.5662,300.00915 191.56623,297.1317 L 191.56623,271.92706 L 200.07636,271.92706 L 200.07636,314.19268 L 191.56623,314.19268 L 191.56623,309.71367 L 191.40336,309.71367 C 188.77021,313.02542 185.13271,314.6813 180.49085,314.6813 C 177.15193,314.6813 173.95554,313.43939 170.90168,310.95558 C 167.8478,308.47176 166.32086,304.82748 166.32087,300.02271 L 166.32087,300.02271 z M 185.58064,265.37141 L 185.58064,256.37266 L 194.57939,256.37266 L 194.57939,265.37141 L 185.58064,265.37141 z M 170.88132,265.37141 L 170.88132,256.37266 L 179.92079,256.37266 L 179.92079,265.37141 L 170.88132,265.37141 z M 211.11103,314.19268 L 211.11103,254.86608 L 219.62116,254.86608 L 219.62116,276.4468 L 219.78403,276.4468 C 222.41714,273.10793 226.08178,271.43848 230.77798,271.43844 C 234.06257,271.43848 237.23181,272.68718 240.28571,275.18453 C 243.33955,277.68195 244.86648,281.31945 244.86652,286.09704 L 244.86652,314.19268 L 236.35639,314.19268 L 236.35639,289.02876 C 236.35636,286.1785 235.56236,283.95257 233.97437,282.35095 C 232.38633,280.7494 230.41149,279.9486 228.04985,279.94857 C 225.60674,279.9486 223.59118,280.7494 222.00318,282.35095 C 220.41515,283.95257 219.62115,286.1785 219.62116,289.02876 L 219.62116,314.19268 L 211.11103,314.19268 z M 255.90118,314.19268 L 255.90118,271.92706 L 264.41131,271.92706 L 264.41131,276.4468 L 264.57418,276.4468 C 267.20728,273.10793 270.87193,271.43848 275.56813,271.43844 C 278.66269,271.43848 281.60798,272.52431 284.404,274.69591 L 278.25554,282.02521 C 276.40961,280.64082 274.53657,279.9486 272.63641,279.94857 C 270.54618,279.9486 268.65278,280.6476 266.9562,282.04557 C 265.25959,283.44359 264.41129,285.68988 264.41131,288.78445 L 264.41131,314.19268 L 255.90118,314.19268 z M 321.0505,296.27662 L 294.74646,296.27662 C 294.74645,299.75126 295.68976,302.35723 297.57639,304.09454 C 299.46298,305.83186 301.87215,306.70052 304.80389,306.70051 C 308.30564,306.70052 311.40023,305.34324 314.08767,302.62868 L 320.23613,307.88134 C 318.14589,310.32445 315.79102,312.06854 313.1715,313.11365 C 310.55193,314.15875 307.81702,314.6813 304.96676,314.6813 C 300.62346,314.6813 296.4159,313.27652 292.34408,310.46696 C 288.27224,307.6574 286.23633,301.90933 286.23633,293.22275 C 286.23633,284.99767 288.11616,279.31069 291.87582,276.16177 C 295.63547,273.01292 299.56478,271.43848 303.66377,271.43844 C 308.30564,271.43848 312.36389,273.04686 315.83855,276.26356 C 319.31315,279.48035 321.05046,283.81684 321.0505,289.27307 L 321.0505,296.27662 z M 294.74646,289.27307 L 312.58109,289.27307 C 312.44533,286.09707 311.54953,283.66754 309.89368,281.98449 C 308.23777,280.3015 306.16114,279.45999 303.66377,279.45995 C 301.13922,279.45999 299.04223,280.3015 297.37279,281.98449 C 295.70333,283.66754 294.82789,286.09707 294.74646,289.27307 L 294.74646,289.27307 z M 330.00854,314.19268 L 330.00854,271.92706 L 338.51867,271.92706 L 338.51867,276.4468 L 338.68154,276.4468 C 341.31464,273.10793 344.97929,271.43848 349.67549,271.43844 C 352.96007,271.43848 356.12931,272.68718 359.18322,275.18453 C 362.23705,277.68195 363.76399,281.31945 363.76403,286.09704 L 363.76403,314.19268 L 355.2539,314.19268 L 355.2539,289.02876 C 355.25387,286.1785 354.45986,283.95257 352.87188,282.35095 C 351.28384,280.7494 349.309,279.9486 346.94736,279.94857 C 344.50424,279.9486 342.48869,280.7494 340.90069,282.35095 C 339.31266,283.95257 338.51865,286.1785 338.51867,289.02876 L 338.51867,314.19268 L 330.00854,314.19268 z M 373.6993,295.38082 L 373.6993,286.87069 L 398.82251,286.87069 L 398.82251,295.38082 L 373.6993,295.38082 z "
       style="font-size:83.39112854px;font-style:normal;font-variant:normal;font-weight:normal;font-stretch:normal;text-indent:0;text-align:center;text-decoration:none;line-height:100%;letter-spacing:normal;word-spacing:normal;text-transform:none;direction:ltr;block-progression:tb;writing-mode:lr-tb;text-anchor:middle;color:black;fill:black;fill-opacity:1;fill-rule:nonzero;stroke:none;stroke-width:1;stroke-linecap:round;stroke-linejoin:miter;marker:none;marker-start:none;marker-mid:none;marker-end:none;stroke-miterlimit:4;stroke-dashoffset:0;stroke-opacity:1;visibility:visible;display:inline;overflow:visible;font-family:DIN 1451 Mittelschrift"
       id="text3204" />
  </g>
</svg>
