<?xml version="1.0" encoding="UTF-8" standalone="no"?>
<!-- Created with Inkscape (http://www.inkscape.org/) -->
<svg
   xmlns:svg="http://www.w3.org/2000/svg"
   xmlns="http://www.w3.org/2000/svg"
   version="1.0"
   width="490"
   height="270"
   id="svg2">
  <defs
     id="defs4" />
  <path
     d="M 38.78125,4.984375 C 20.356889,4.9843748 9.96875,12.12016 9.96875,33.203125 L 9.65625,236.79688 C 9.65625,257.87984 20.044391,265.01563 38.46875,265.01563 L 451.21875,264.98438 C 469.64311,264.98438 480.03124,257.84859 480.03125,236.76563 L 480.34375,33.234375 C 480.34375,12.15141 469.95561,5.0156248 451.53125,5.015625 L 38.78125,4.984375 z "
     style="fill:white;fill-opacity:1;fill-rule:evenodd;stroke:black;stroke-width:2;stroke-linecap:butt;stroke-linejoin:miter;stroke-miterlimit:4;stroke-dasharray:none;stroke-opacity:1"
     id="path1881" />
  <path
     d="M 453.3125,17.796875 L 36.78125,17.828125 C 28.356999,17.828125 23.40625,23.829135 23.40625,32.703125 L 23.40625,237.35938 C 23.406249,246.23335 28.35701,252.23438 36.78125,252.23438 L 453.28125,252.20313 C 461.70549,252.20312 466.65625,246.20211 466.65625,237.32813 L 466.65625,32.671875 C 466.65625,23.797885 461.73674,17.796875 453.3125,17.796875 z "
     style="fill:none;fill-opacity:1;fill-rule:evenodd;stroke:black;stroke-width:10.05090809;stroke-linecap:butt;stroke-linejoin:miter;stroke-miterlimit:4;stroke-dasharray:none;stroke-opacity:1"
     id="path3976" />
  <path
     d="M 244.78829,42.15393 L 233.68534,48.55224 L 233.68534,58.94949 L 225.40517,53.75086 L 214.30222,59.89042 L 214.30222,73.36921 L 233.73238,84.23693 L 233.73238,115.66393 L 206.42194,99.87987 L 206.72776,77.62691 L 195.03671,70.87575 L 184.16901,77.43873 L 184.54538,87.20086 L 175.53599,82.00223 L 164.43304,88.42406 L 164.95056,101.29125 L 173.95994,106.48989 L 164.52713,111.92374 L 164.31543,124.10877 L 175.58304,130.62469 L 195.27195,118.72195 L 223.14694,134.81182 L 195.67184,150.68998 L 176.50044,139.28122 L 164.85646,146.00886 L 165.06816,158.71138 L 173.72471,163.27489 L 164.71532,168.47352 L 164.73885,181.29366 L 176.12408,187.29208 L 185.13346,182.06993 L 185.13346,193.00821 L 195.60128,199.24185 L 206.84536,192.74945 L 206.39843,169.72024 L 233.77944,153.91265 L 233.77944,185.76307 L 214.32575,196.6543 L 214.32575,210.10958 L 225.42871,216.27266 L 233.70887,211.07403 L 233.70887,221.47129 L 244.81182,227.84607 L 255.70305,221.00082 L 255.70305,210.58004 L 265.15938,216.03742 L 275.79186,210.10958 L 275.79186,197.12478 L 255.63248,185.9983 L 255.63248,153.58333 L 283.60156,169.72024 L 283.15463,192.74945 L 294.39871,199.24185 L 304.84301,193.00821 L 304.84301,182.06993 L 313.87593,187.29208 L 325.23762,181.29366 L 325.28469,168.47352 L 316.27529,163.27489 L 324.9083,158.71138 L 325.12002,146.00886 L 313.47604,139.28122 L 294.30462,150.68998 L 266.82952,134.81182 L 294.70452,118.72195 L 314.41695,130.62469 L 325.68458,124.10877 L 325.44934,111.92374 L 316.04006,106.48989 L 325.04944,101.29125 L 325.54343,88.42406 L 314.44049,82.00223 L 305.45461,87.20086 L 305.80748,77.43873 L 294.93975,70.87575 L 283.27225,77.62691 L 283.57804,99.87987 L 255.60896,116.04031 L 255.60896,84.0017 L 275.76833,72.89875 L 275.76833,59.89042 L 265.11233,53.9861 L 255.67952,59.41996 L 255.67952,49.0227 L 244.78829,42.15393 z "
     style="fill:black;fill-opacity:1;fill-rule:evenodd;stroke:none;stroke-width:1px;stroke-linecap:butt;stroke-linejoin:miter;stroke-opacity:1"
     id="path1889" />
</svg>
