<?xml version="1.0" encoding="UTF-8" standalone="no"?>
<!-- Created with Inkscape (http://www.inkscape.org/) -->
<svg
   xmlns:dc="http://purl.org/dc/elements/1.1/"
   xmlns:cc="http://web.resource.org/cc/"
   xmlns:rdf="http://www.w3.org/1999/02/22-rdf-syntax-ns#"
   xmlns:svg="http://www.w3.org/2000/svg"
   xmlns="http://www.w3.org/2000/svg"
   xmlns:sodipodi="http://sodipodi.sourceforge.net/DTD/sodipodi-0.dtd"
   xmlns:inkscape="http://www.inkscape.org/namespaces/inkscape"
   version="1.0"
   width="490"
   height="360"
   id="svg2"
   sodipodi:version="0.32"
   inkscape:version="0.44"
   sodipodi:docname="Zusatzzeichen 1042-32.svg"
   sodipodi:docbase="C:\Dokumente und Einstellungen\Internet\Desktop\Wiki\SVG sonstiges (fertig)">
  <metadata
     id="metadata10">
    <rdf:RDF>
      <cc:Work
         rdf:about="">
        <dc:format>image/svg+xml</dc:format>
        <dc:type
           rdf:resource="http://purl.org/dc/dcmitype/StillImage" />
      </cc:Work>
    </rdf:RDF>
  </metadata>
  <sodipodi:namedview
     inkscape:window-height="749"
     inkscape:window-width="1024"
     inkscape:pageshadow="2"
     inkscape:pageopacity="0.0"
     guidetolerance="10.0"
     gridtolerance="10.0"
     objecttolerance="10.0"
     borderopacity="1.0"
     bordercolor="#666666"
     pagecolor="#ffffff"
     id="base"
     inkscape:zoom="0.74246212"
     inkscape:cx="245"
     inkscape:cy="104.07398"
     inkscape:window-x="-4"
     inkscape:window-y="-4"
     inkscape:current-layer="svg2" />
  <defs
     id="defs4" />
  <path
     d="M 38.78125,4.6190618 C 20.35689,4.6190483 9.96875,14.244672 9.96875,42.683954 L 9.65625,317.31604 C 9.65625,345.75531 20.04439,355.38094 38.46875,355.38094 L 451.21875,355.33878 C 469.64311,355.33878 480.03124,345.71316 480.03125,317.27389 L 480.34375,42.726108 C 480.34375,14.286826 469.95561,4.6612021 451.53125,4.6612156 L 38.78125,4.6190618 z "
     style="fill:white;fill-opacity:1;fill-rule:evenodd;stroke:black;stroke-width:3;stroke-linecap:butt;stroke-linejoin:miter;stroke-miterlimit:4;stroke-dasharray:none;stroke-opacity:1"
     id="path1881" />
  <path
     d="M 453.23342,19.074797 L 36.79782,19.117707 C 28.375505,19.117707 23.425891,27.356247 23.425891,39.539027 L 23.425891,320.50387 C 23.425891,332.68661 28.375515,340.9252 36.79782,340.9252 L 453.20218,340.88229 C 461.62449,340.88228 466.57411,332.64373 466.57411,320.46097 L 466.57411,39.496127 C 466.57411,27.313347 461.65573,19.074797 453.23342,19.074797 z "
     style="fill:none;fill-opacity:1;fill-rule:evenodd;stroke:black;stroke-width:12;stroke-linecap:butt;stroke-linejoin:miter;stroke-miterlimit:4;stroke-dasharray:none;stroke-opacity:1"
     id="path3976" />
  <g
     id="g3836"
     transform="translate(203.7587,-287.7812)">
    <path
       id="text1890"
       style="font-size:102.93473053px;font-style:normal;font-variant:normal;font-weight:normal;font-stretch:normal;text-align:center;line-height:100%;writing-mode:lr-tb;text-anchor:middle;fill:black;fill-opacity:1;stroke:none;stroke-width:1px;stroke-linecap:butt;stroke-linejoin:miter;stroke-opacity:1;font-family:DIN 1451 Mittelschrift"
       d="M -109.91897,408.62886 L -120.82563,372.1393 L -121.02667,372.1393 L -131.93333,408.62886 L -141.18137,408.62886 L -157.86806,356.45784 L -146.76036,356.45784 L -136.7584,392.99766 L -136.55735,392.99766 L -124.74599,356.45784 L -117.10631,356.45784 L -105.29495,392.99766 L -105.0939,392.99766 L -95.09195,356.45784 L -83.98424,356.45784 L -100.67093,408.62886 L -109.91897,408.62886 z M -36.4875,386.51398 L -68.95617,386.51398 C -68.95619,390.80294 -67.79181,394.01965 -65.46302,396.16411 C -63.13428,398.30859 -60.1605,399.38083 -56.54168,399.38082 C -52.21926,399.38083 -48.39942,397.70546 -45.08215,394.35471 L -37.49272,400.83839 C -40.07284,403.85406 -42.9796,406.00691 -46.21302,407.29694 C -49.44652,408.58698 -52.82239,409.23199 -56.34064,409.23199 C -61.70184,409.23199 -66.89548,407.49799 -71.92158,404.02997 C -76.94769,400.56196 -79.46075,393.46678 -79.46074,382.74439 C -79.46075,372.59169 -77.14036,365.5719 -72.49958,361.68499 C -67.85882,357.79819 -63.00863,355.85476 -57.94899,355.85471 C -52.21926,355.85476 -47.20991,357.84007 -42.92092,361.81065 C -38.63202,365.78132 -36.48755,371.13412 -36.4875,377.86907 L -36.4875,386.51398 z M -68.95617,377.86907 L -46.94181,377.86907 C -47.10938,373.94874 -48.21513,370.94983 -50.25904,368.87233 C -52.30303,366.79491 -54.86634,365.75619 -57.94899,365.75614 C -61.0652,365.75619 -63.65365,366.79491 -65.71433,368.87233 C -67.77505,370.94983 -68.85566,373.94874 -68.95617,377.86907 L -68.95617,377.86907 z M -25.43006,408.62886 L -25.43006,356.45784 L -14.92549,356.45784 L -14.92549,362.03682 L -14.72445,362.03682 C -11.47425,357.91546 -6.95076,355.85476 -1.15395,355.85471 C 2.66586,355.85476 6.30141,357.19505 9.75271,359.87559 L 2.16328,368.92259 C -0.11526,367.21376 -2.42726,366.35932 -4.77275,366.35928 C -7.35285,366.35932 -9.68999,367.22213 -11.78418,368.94772 C -13.87841,370.67339 -14.92551,373.44613 -14.92549,377.26593 L -14.92549,408.62886 L -25.43006,408.62886 z M 14.57778,408.62886 L 14.57778,335.39844 L 25.08235,335.39844 L 25.08235,380.98526 L 25.28339,380.98526 L 45.33757,356.45784 L 57.90285,356.45784 L 39.90937,376.86385 L 60.36564,408.62886 L 47.19723,408.62886 L 33.32517,384.25223 L 25.08235,393.65105 L 25.08235,408.62886 L 14.57778,408.62886 z M 68.65873,356.45784 L 68.65873,340.62559 L 79.1633,340.62559 L 79.1633,356.45784 L 86.80298,356.45784 L 86.80298,364.49962 L 79.1633,364.49962 L 79.1633,394.85732 C 79.16328,397.47091 80.40305,398.7777 82.88262,398.77769 L 86.80298,398.77769 L 86.80298,408.62886 L 81.32452,408.62886 C 77.6722,408.62886 74.64816,407.52312 72.2524,405.31163 C 69.85661,403.10015 68.65872,399.9337 68.65873,395.81228 L 68.65873,364.49962 L 63.43157,364.49962 L 63.43157,356.45784 L 68.65873,356.45784 z M 123.99619,408.62886 L 123.99619,404.00484 L 123.74488,404.00484 C 121.63388,407.48961 117.34494,409.23199 110.87804,409.23199 C 105.04774,409.23199 100.52424,407.71579 97.30754,404.68336 C 94.09083,401.65095 92.48247,397.85624 92.48248,393.29923 C 92.48247,389.17783 93.90654,385.57579 96.75467,382.49309 C 99.60279,379.41044 103.84147,377.8691 109.47073,377.86907 L 123.99619,377.86907 L 123.99619,372.44087 C 123.99615,367.98443 120.42762,365.75619 113.29057,365.75614 C 108.33146,365.75619 105.03098,367.07973 103.38914,369.72677 L 95.14632,363.49439 C 98.79861,358.40132 104.6624,355.85476 112.7377,355.85471 C 119.17109,355.85476 124.39824,357.11129 128.41916,359.62429 C 132.44001,362.13739 134.45045,366.61062 134.45049,373.044 L 134.45049,408.62886 L 123.99619,408.62886 z M 123.99619,390.33382 L 123.99619,386.51398 L 111.43091,386.51398 C 105.36606,386.514 102.33364,388.60821 102.33365,392.79661 C 102.33364,394.57252 103.09593,396.11386 104.62053,397.42064 C 106.1451,398.72743 108.68329,399.38083 112.23509,399.38082 C 116.59102,399.38083 119.64019,398.89497 121.38261,397.92325 C 123.12496,396.95154 123.99615,394.42174 123.99619,390.33382 L 123.99619,390.33382 z M 177.37347,408.5786 L 177.37347,403.20066 C 173.72113,407.22155 169.23114,409.23199 163.9035,409.23199 C 160.48572,409.23199 157.62922,408.55347 155.33398,407.19642 C 153.03871,405.83937 151.3047,404.40693 150.13195,402.8991 C 148.62411,400.95567 147.59376,398.89497 147.0409,396.71698 C 146.48802,394.53901 146.21158,389.83123 146.21159,382.59361 C 146.21158,375.35605 146.48802,370.64826 147.0409,368.47024 C 147.59376,366.2923 148.62411,364.21485 150.13195,362.23787 C 151.3047,360.76359 153.03871,359.33115 155.33398,357.94054 C 157.62922,356.55004 160.48572,355.85476 163.9035,355.85471 C 168.99659,355.85476 173.48658,357.91546 177.37347,362.03682 L 177.37347,356.45784 L 187.87804,356.45784 L 187.87804,407.42259 C 187.87799,415.26332 185.59111,421.04334 181.0174,424.76267 C 176.4436,428.48198 171.19132,430.34163 165.26054,430.34166 C 161.90978,430.34163 158.62606,429.53746 155.40937,427.92912 C 152.19265,426.32075 149.42829,424.20979 147.11629,421.59622 L 155.25859,415.11254 C 156.53185,416.38582 158.04806,417.49156 159.80722,418.42978 C 161.56633,419.36797 163.45112,419.83707 165.46159,419.83709 C 168.94633,419.83707 171.80283,418.86536 174.03111,416.92194 C 176.25931,414.97851 177.37343,412.1974 177.37347,408.5786 L 177.37347,408.5786 z M 156.71616,382.59361 C 156.71614,386.78206 156.82504,389.56317 157.04286,390.93695 C 157.26064,392.31077 157.83864,393.58405 158.77686,394.7568 C 159.4805,395.69502 160.51923,396.59972 161.89305,397.4709 C 163.26683,398.3421 165.00922,398.7777 167.12021,398.77769 C 169.16413,398.7777 170.86463,398.3421 172.22171,397.4709 C 173.57872,396.59972 174.62583,395.69502 175.36303,394.7568 C 176.26769,393.58405 176.82894,392.31077 177.04677,390.93695 C 177.26453,389.56317 177.37343,386.78206 177.37347,382.59361 C 177.37343,378.40522 177.26453,375.62411 177.04677,374.25027 C 176.82894,372.8765 176.26769,371.58647 175.36303,370.38016 C 174.62583,369.4755 173.57872,368.57918 172.22171,367.6912 C 170.86463,366.80329 169.16413,366.35932 167.12021,366.35928 C 165.00922,366.35932 163.26683,366.80329 161.89305,367.6912 C 160.51923,368.57918 159.4805,369.4755 158.77686,370.38016 C 157.83864,371.58647 157.26064,372.8765 157.04286,374.25027 C 156.82504,375.62411 156.71614,378.40522 156.71616,382.59361 L 156.71616,382.59361 z M 195.76904,399.93369 L 203.10716,392.69609 C 207.66415,397.15259 213.1426,399.38083 219.54254,399.38082 C 222.52467,399.38083 224.98746,398.81958 226.93092,397.69707 C 228.87431,396.57459 229.84603,394.90759 229.84606,392.69609 C 229.84603,389.64694 227.71831,387.93806 223.4629,387.56946 L 214.21486,386.71502 C 209.89239,386.37997 206.3071,384.95591 203.45898,382.44283 C 200.61085,379.9298 199.18679,376.42828 199.18679,371.93826 C 199.18679,366.64413 201.04645,362.64 204.76577,359.92586 C 208.48508,357.21181 213.1091,355.85476 218.63784,355.85471 C 223.19481,355.85476 227.09842,356.49978 230.34867,357.78976 C 233.59885,359.07984 236.51399,360.7971 239.0941,362.94152 L 232.61042,370.58121 C 230.53293,369.17394 228.38846,368.01793 226.177,367.11319 C 223.96548,366.20854 221.45243,365.75619 218.63784,365.75614 C 215.28708,365.75619 212.95831,366.35094 211.65154,367.54041 C 210.34474,368.72996 209.69135,370.22942 209.69136,372.03878 C 209.69135,373.17807 210.1772,374.23355 211.14893,375.20523 C 212.12063,376.17698 213.93003,376.76336 216.57713,376.96437 L 225.22204,377.5675 C 230.6167,377.93611 234.4868,379.6031 236.83235,382.56848 C 239.17783,385.53391 240.35059,389.07731 240.35063,393.1987 C 240.35059,398.32535 238.25637,402.27921 234.06799,405.06032 C 229.87953,407.84144 224.76966,409.23199 218.73836,409.23199 C 210.05993,409.23199 202.40349,406.13256 195.76904,399.93369 L 195.76904,399.93369 z " />
    <path
       id="text1906"
       style="font-size:100.05632782px;font-style:normal;font-variant:normal;font-weight:normal;font-stretch:normal;text-align:center;line-height:100%;writing-mode:lr-tb;text-anchor:middle;fill:black;fill-opacity:1;stroke:none;stroke-width:1px;stroke-linecap:butt;stroke-linejoin:miter;stroke-opacity:1;font-family:DIN 1451 Mittelschrift"
       d="M -108.06151,599.5776 L -108.06151,539.19204 L -118.17463,546.56924 L -118.17463,535.77215 L -108.06151,528.39495 L -97.85069,528.39495 L -97.85069,599.5776 L -108.06151,599.5776 z M -73.08088,566.60005 L -53.97833,528.39495 L -42.59497,528.39495 L -57.59365,558.49001 L -57.39822,558.49001 C -55.8023,557.87122 -53.99464,557.5618 -51.97525,557.56176 C -47.48056,557.5618 -43.52326,559.14146 -40.10333,562.30075 C -36.68348,565.46012 -34.97354,570.49224 -34.97349,577.39714 C -34.97354,585.57233 -37.15575,591.41057 -41.52014,594.91188 C -45.88461,598.41321 -50.70503,600.16386 -55.98141,600.16386 C -60.9647,600.16386 -65.51642,598.23407 -69.63656,594.37447 C -73.75672,590.51489 -75.8168,585.23034 -75.8168,578.52082 C -75.8168,574.22155 -74.90483,570.24796 -73.08088,566.60005 L -73.08088,566.60005 z M -55.39514,566.60005 C -58.22879,566.60008 -60.639,567.55276 -62.62578,569.4581 C -64.61259,571.3635 -65.60598,574.30298 -65.60597,578.27654 C -65.60598,586.09346 -62.20238,590.0019 -55.39514,590.00189 C -53.0501,590.0019 -50.76203,589.11436 -48.53093,587.33926 C -46.29989,585.56419 -45.18435,582.54329 -45.18432,578.27654 C -45.18435,574.30298 -46.18589,571.3635 -48.18894,569.4581 C -50.19205,567.55276 -52.59411,566.60008 -55.39514,566.60005 L -55.39514,566.60005 z M -1.99594,577.0063 L -1.99594,566.79547 L 28.14799,566.79547 L 28.14799,577.0063 L -1.99594,577.0063 z M 52.77122,599.5776 L 52.77122,539.19204 L 42.65811,546.56924 L 42.65811,535.77215 L 52.77122,528.39495 L 62.98205,528.39495 L 62.98205,599.5776 L 52.77122,599.5776 z M 95.22677,548.18148 C 95.22675,551.53628 96.27715,554.07677 98.37796,555.80295 C 100.47873,557.52923 102.83194,558.39234 105.43759,558.3923 C 108.0432,558.39234 110.39641,557.52923 112.49723,555.80295 C 114.59799,554.07677 115.64839,551.53628 115.64842,548.18148 C 115.64839,544.85935 114.59799,542.327 112.49723,540.58443 C 110.39641,538.84197 108.0432,537.97071 105.43759,537.97065 C 102.83194,537.97071 100.47873,538.84197 98.37796,540.58443 C 96.27715,542.327 95.22675,544.85935 95.22677,548.18148 L 95.22677,548.18148 z M 83.74569,578.81396 C 83.74569,571.87648 86.54675,566.53494 92.14886,562.78931 C 90.03178,560.90026 88.31369,558.80762 86.99459,556.51136 C 85.67549,554.21519 85.01594,551.50371 85.01594,548.3769 C 85.01594,542.64456 86.9783,537.77529 90.90304,533.76907 C 94.82777,529.76297 99.67261,527.75989 105.43759,527.75982 C 111.20253,527.75989 116.04737,529.76297 119.97214,533.76907 C 123.89684,537.77529 125.8592,542.64456 125.85925,548.3769 C 125.8592,551.50371 125.19151,554.21519 123.85617,556.51136 C 122.52074,558.80762 120.82708,560.90026 118.77518,562.78931 C 124.34468,566.56751 127.12945,571.90905 127.12949,578.81396 C 127.12945,585.13263 124.98794,590.27061 120.70498,594.22791 C 116.42193,598.18521 111.33281,600.16386 105.43759,600.16386 C 99.50976,600.16386 94.41249,598.18521 90.14578,594.22791 C 85.87905,590.27061 83.74569,585.13263 83.74569,578.81396 L 83.74569,578.81396 z M 93.95652,578.71624 C 93.95651,581.9733 95.10461,584.6685 97.40084,586.80185 C 99.69704,588.93522 102.37595,590.0019 105.43759,590.00189 C 108.46662,590.0019 111.14553,588.93522 113.47434,586.80185 C 115.8031,584.6685 116.96749,581.9733 116.96752,578.71624 C 116.96749,575.45923 115.8031,572.75588 113.47434,570.60621 C 111.14553,568.45659 108.46662,567.38177 105.43759,567.38174 C 102.37595,567.38177 99.69704,568.45659 97.40084,570.60621 C 95.10461,572.75588 93.95651,575.45923 93.95652,578.71624 L 93.95652,578.71624 z M 160.15589,599.5776 L 160.15589,528.39495 L 170.36672,528.39495 L 170.36672,554.28843 L 170.56214,554.28843 C 173.72145,550.28232 178.11845,548.27924 183.75316,548.27919 C 187.69415,548.27924 191.49674,549.77748 195.16095,552.7739 C 198.82508,555.77043 200.65716,560.13486 200.65721,565.86721 L 200.65721,599.5776 L 190.44638,599.5776 L 190.44638,569.38482 C 190.44634,565.96496 189.49366,563.29419 187.58833,561.3725 C 185.68292,559.45088 183.31343,558.49005 180.47983,558.49001 C 177.54847,558.49005 175.13012,559.45088 173.22477,561.3725 C 171.31938,563.29419 170.3667,565.96496 170.36672,569.38482 L 170.36672,599.5776 L 160.15589,599.5776 z " />
    <path
       id="text1894"
       style="font-size:100.05632782px;font-style:normal;font-variant:normal;font-weight:normal;font-stretch:normal;text-align:center;line-height:100%;writing-mode:lr-tb;text-anchor:middle;fill:black;fill-opacity:1;stroke:none;stroke-width:1px;stroke-linecap:butt;stroke-linejoin:miter;stroke-opacity:1;font-family:DIN 1451 Mittelschrift"
       d="M -132.23953,457.73995 C -132.23954,461.09475 -131.18915,463.63524 -129.08834,465.36143 C -126.98757,467.0877 -124.63436,467.95082 -122.0287,467.95077 C -119.42309,467.95082 -117.06988,467.0877 -114.96906,465.36143 C -112.8683,463.63524 -111.81791,461.09475 -111.81787,457.73995 C -111.81791,454.41782 -112.8683,451.88547 -114.96906,450.1429 C -117.06988,448.40044 -119.42309,447.52918 -122.0287,447.52912 C -124.63436,447.52918 -126.98757,448.40044 -129.08834,450.1429 C -131.18915,451.88547 -132.23954,454.41782 -132.23953,457.73995 L -132.23953,457.73995 z M -143.7206,488.37243 C -143.7206,481.43496 -140.91955,476.09341 -135.31743,472.34778 C -137.43452,470.45873 -139.1526,468.36609 -140.4717,466.06983 C -141.79081,463.77366 -142.45036,461.06218 -142.45035,457.93537 C -142.45036,452.20303 -140.48799,447.33376 -136.56325,443.32754 C -132.63853,439.32145 -127.79368,437.31837 -122.0287,437.31829 C -116.26377,437.31837 -111.41892,439.32145 -107.49415,443.32754 C -103.56946,447.33376 -101.60709,452.20303 -101.60705,457.93537 C -101.60709,461.06218 -102.27478,463.77366 -103.61013,466.06983 C -104.94556,468.36609 -106.63922,470.45873 -108.69111,472.34778 C -103.12161,476.12598 -100.33685,481.46753 -100.3368,488.37243 C -100.33685,494.6911 -102.47835,499.82908 -106.76132,503.78638 C -111.04436,507.74368 -116.13348,509.72234 -122.0287,509.72234 C -127.95653,509.72234 -133.0538,507.74368 -137.32051,503.78638 C -141.58724,499.82908 -143.7206,494.6911 -143.7206,488.37243 L -143.7206,488.37243 z M -133.50977,488.27472 C -133.50979,491.53177 -132.36168,494.22697 -130.06545,496.36032 C -127.76925,498.4937 -125.09034,499.56038 -122.0287,499.56037 C -118.99968,499.56038 -116.32076,498.4937 -113.99195,496.36032 C -111.6632,494.22697 -110.49881,491.53177 -110.49877,488.27472 C -110.49881,485.0177 -111.6632,482.31436 -113.99195,480.16468 C -116.32076,478.01506 -118.99968,476.94024 -122.0287,476.94021 C -125.09034,476.94024 -127.76925,478.01506 -130.06545,480.16468 C -132.36168,482.31436 -133.50979,485.0177 -133.50977,488.27472 L -133.50977,488.27472 z " />
    <path
       id="text1898"
       style="font-size:100.05632782px;font-style:normal;font-variant:normal;font-weight:normal;font-stretch:normal;text-align:center;line-height:100%;writing-mode:lr-tb;text-anchor:middle;fill:black;fill-opacity:1;stroke:none;stroke-width:1px;stroke-linecap:butt;stroke-linejoin:miter;stroke-opacity:1;font-family:DIN 1451 Engschrift"
       d="M 41.50984,507.60017 L 41.50984,450.86962 L 32.00437,457.97201 L 32.00437,447.86805 L 41.50984,440.86338 L 51.01226,440.86338 L 51.01226,507.60017 L 41.50984,507.60017 z M 76.68589,507.60017 L 76.68589,450.86962 L 67.18042,457.97201 L 67.18042,447.86805 L 76.68589,440.86338 L 86.18831,440.86338 L 86.18831,507.60017 L 76.68589,507.60017 z " />
    <path
       id="text1914"
       style="font-size:63.96458435px;font-style:normal;font-variant:normal;font-weight:normal;font-stretch:normal;text-align:center;line-height:100%;writing-mode:lr-tb;text-anchor:middle;fill:black;fill-opacity:1;stroke:none;stroke-width:1px;stroke-linecap:butt;stroke-linejoin:miter;stroke-opacity:1;font-family:DIN 1451 Mittelschrift"
       d="M 109.1978,464.51478 L 109.1978,458.76796 L 111.44655,458.76796 C 113.612,458.76798 115.32459,458.15895 116.58433,456.94084 C 117.84403,455.7228 118.47389,454.17678 118.47391,452.30279 C 118.47389,450.44968 117.818,448.88805 116.50625,447.61788 C 115.19446,446.34779 113.63282,445.71273 111.82134,445.71269 C 110.44709,445.71273 109.14573,446.1708 107.91725,447.08692 C 106.68876,448.00312 105.89753,449.37736 105.54357,451.20964 L 99.01593,451.20964 C 99.26579,448.00312 100.6088,445.19739 103.04495,442.79243 C 105.4811,440.38755 108.32327,439.1851 111.57148,439.18505 C 115.63172,439.1851 118.88512,440.5229 121.3317,443.19845 C 123.77824,445.87409 125.00152,448.86723 125.00155,452.17786 C 125.00152,453.92692 124.65796,455.6291 123.97087,457.2844 C 123.28372,458.93976 122.00318,460.37126 120.12924,461.5789 C 122.04483,462.80741 123.41906,464.31699 124.25196,466.10764 C 125.08481,467.89834 125.50124,469.70983 125.50127,471.54213 C 125.50124,475.78979 124.16865,479.17333 121.50348,481.69276 C 118.83827,484.2122 115.56925,485.47192 111.69641,485.47192 C 108.61477,485.47192 105.84027,484.47768 103.3729,482.4892 C 100.90551,480.50072 99.3699,477.60129 98.76607,473.79089 L 105.29371,473.79089 C 105.89753,475.35253 106.70958,476.60705 107.72986,477.55443 C 108.75012,478.50183 110.19723,478.97552 112.0712,478.97552 C 113.88269,478.97552 115.48596,478.33526 116.88104,477.05471 C 118.27608,475.77418 118.97361,474.00953 118.97363,471.76076 C 118.97361,469.4912 118.28129,467.71615 116.89666,466.43559 C 115.51199,465.15507 113.86186,464.5148 111.94627,464.51478 L 109.1978,464.51478 z M 150.42497,472.01063 L 150.42497,452.67758 C 150.42495,450.49132 149.83673,448.78394 148.66032,447.55542 C 147.48387,446.32697 145.93785,445.71273 144.02227,445.71269 C 142.08582,445.71273 140.5346,446.32697 139.36859,447.55542 C 138.20256,448.78394 137.61955,450.49132 137.61956,452.67758 L 137.61956,472.01063 C 137.61955,474.21775 138.20256,475.93034 139.36859,477.14841 C 140.5346,478.36649 142.08582,478.97552 144.02227,478.97552 C 145.93785,478.97552 147.48387,478.36649 148.66032,477.14841 C 149.83673,475.93034 150.42495,474.21775 150.42497,472.01063 L 150.42497,472.01063 z M 131.09192,472.38542 L 131.09192,452.30279 C 131.09192,448.11764 132.40369,444.88506 135.02725,442.60503 C 137.65078,440.32509 140.64912,439.1851 144.02227,439.18505 C 147.37456,439.1851 150.36769,440.32509 153.00167,442.60503 C 155.6356,444.88506 156.95258,448.11764 156.95261,452.30279 L 156.95261,472.38542 C 156.95258,476.57061 155.6356,479.79799 153.00167,482.06756 C 150.36769,484.33713 147.37456,485.47192 144.02227,485.47192 C 140.64912,485.47192 137.65078,484.33713 135.02725,482.06756 C 132.40369,479.79799 131.09192,476.57061 131.09192,472.38542 L 131.09192,472.38542 z " />
    <path
       id="text1918"
       style="font-size:63.96458435px;font-style:normal;font-variant:normal;font-weight:normal;font-stretch:normal;text-align:center;line-height:100%;writing-mode:lr-tb;text-anchor:middle;fill:black;fill-opacity:1;stroke:none;stroke-width:1px;stroke-linecap:butt;stroke-linejoin:miter;stroke-opacity:1;font-family:DIN 1451 Mittelschrift"
       d="M -83.02102,464.95311 L -83.02102,459.2063 L -80.77226,459.2063 C -78.60681,459.20632 -76.89422,458.59729 -75.63448,457.37918 C -74.37478,456.16114 -73.74492,454.61512 -73.7449,452.74113 C -73.74492,450.88802 -74.40081,449.32639 -75.71256,448.05622 C -77.02435,446.78613 -78.58599,446.15106 -80.39747,446.15102 C -81.77172,446.15106 -83.07308,446.60914 -84.30156,447.52526 C -85.53005,448.44146 -86.32128,449.8157 -86.67524,451.64798 L -93.20288,451.64798 C -92.95302,448.44146 -91.61001,445.63573 -89.17386,443.23077 C -86.73771,440.82589 -83.89554,439.62344 -80.64733,439.62339 C -76.5871,439.62344 -73.33369,440.96123 -70.88711,443.63679 C -68.44057,446.31243 -67.21729,449.30556 -67.21727,452.6162 C -67.21729,454.36526 -67.56085,456.06744 -68.24794,457.72274 C -68.93509,459.3781 -70.21563,460.8096 -72.08957,462.01724 C -70.17399,463.24575 -68.79975,464.75533 -67.96685,466.54598 C -67.13401,468.33668 -66.71757,470.14817 -66.71754,471.98047 C -66.71757,476.22813 -68.05016,479.61167 -70.71533,482.1311 C -73.38054,484.65054 -76.64956,485.91026 -80.5224,485.91026 C -83.60404,485.91026 -86.37854,484.91602 -88.84592,482.92754 C -91.3133,480.93906 -92.84891,478.03963 -93.45274,474.22923 L -86.9251,474.22923 C -86.32128,475.79087 -85.50923,477.04539 -84.48895,477.99277 C -83.46869,478.94017 -82.02158,479.41386 -80.14761,479.41386 C -78.33613,479.41386 -76.73285,478.77359 -75.33777,477.49305 C -73.94273,476.21251 -73.2452,474.44787 -73.24518,472.1991 C -73.2452,469.92954 -73.93752,468.15448 -75.32215,466.87393 C -76.70682,465.59341 -78.35695,464.95314 -80.27254,464.95311 L -83.02102,464.95311 z M -41.79384,472.44896 L -41.79384,453.11592 C -41.79386,450.92966 -42.38208,449.22228 -43.55849,447.99375 C -44.73494,446.76531 -46.28096,446.15106 -48.19655,446.15102 C -50.13299,446.15106 -51.68421,446.76531 -52.85022,447.99375 C -54.01625,449.22228 -54.59926,450.92966 -54.59925,453.11592 L -54.59925,472.44896 C -54.59926,474.65609 -54.01625,476.36868 -52.85022,477.58674 C -51.68421,478.80483 -50.13299,479.41386 -48.19655,479.41386 C -46.28096,479.41386 -44.73494,478.80483 -43.55849,477.58674 C -42.38208,476.36868 -41.79386,474.65609 -41.79384,472.44896 L -41.79384,472.44896 z M -61.12689,472.82376 L -61.12689,452.74113 C -61.12689,448.55598 -59.81512,445.3234 -57.19157,443.04337 C -54.56803,440.76343 -51.56969,439.62344 -48.19655,439.62339 C -44.84425,439.62344 -41.85112,440.76343 -39.21714,443.04337 C -36.58321,445.3234 -35.26623,448.55598 -35.26621,452.74113 L -35.26621,472.82376 C -35.26623,477.00895 -36.58321,480.23632 -39.21714,482.5059 C -41.85112,484.77547 -44.84425,485.91026 -48.19655,485.91026 C -51.56969,485.91026 -54.56803,484.77547 -57.19157,482.5059 C -59.81512,480.23632 -61.12689,477.00895 -61.12689,472.82376 L -61.12689,472.82376 z " />
    <path
       id="text1930"
       style="font-size:100.05632782px;font-style:normal;font-variant:normal;font-weight:normal;font-stretch:normal;text-align:center;line-height:100%;writing-mode:lr-tb;text-anchor:middle;fill:black;fill-opacity:1;stroke:none;stroke-width:1px;stroke-linecap:butt;stroke-linejoin:miter;stroke-opacity:1;font-family:DIN 1451 Engschrift"
       d="M -19.12774,487.0408 L -19.12774,477.53533 L 9.38868,477.53533 L 9.38868,487.0408 L -19.12774,487.0408 z " />
    <path
       id="text1959"
       style="font-size:99.89551544px;font-style:normal;font-variant:normal;font-weight:normal;font-stretch:normal;text-align:center;line-height:100%;writing-mode:lr-tb;text-anchor:middle;fill:black;fill-opacity:1;stroke:none;stroke-width:1px;stroke-linecap:butt;stroke-linejoin:miter;stroke-opacity:1;font-family:DIN 1451 Mittelschrift"
       d="M 185.76698,505.99143 L 185.76698,434.92318 L 195.96139,434.92318 L 195.96139,460.77505 L 196.1565,460.77505 C 199.31074,456.77538 203.70067,454.77552 209.32632,454.77547 C 213.26097,454.77552 217.05745,456.27135 220.71578,459.26296 C 224.37401,462.25467 226.20315,466.61208 226.2032,472.33522 L 226.2032,505.99143 L 216.00878,505.99143 L 216.00878,475.84718 C 216.00875,472.43281 215.0576,469.76633 213.15532,467.84773 C 211.25298,465.9292 208.8873,464.96992 206.05826,464.96988 C 203.1316,464.96992 200.71714,465.9292 198.81485,467.84773 C 196.91253,469.76633 195.96138,472.43281 195.96139,475.84718 L 195.96139,505.99143 L 185.76698,505.99143 z " />
  </g>
</svg>
