<?xml version="1.0" encoding="UTF-8" standalone="no"?>
<!-- Created with Inkscape (http://www.inkscape.org/) -->
<svg
   xmlns:svg="http://www.w3.org/2000/svg"
   xmlns="http://www.w3.org/2000/svg"
   version="1.0"
   width="490"
   height="270"
   id="svg2">
  <defs
     id="defs4" />
  <path
     d="M 38.78125,4.984375 C 20.356889,4.9843748 9.96875,12.12016 9.96875,33.203125 L 9.65625,236.79688 C 9.65625,257.87984 20.044391,265.01563 38.46875,265.01563 L 451.21875,264.98438 C 469.64311,264.98438 480.03124,257.84859 480.03125,236.76563 L 480.34375,33.234375 C 480.34375,12.15141 469.95561,5.0156248 451.53125,5.015625 L 38.78125,4.984375 z "
     style="fill:white;fill-opacity:1;fill-rule:evenodd;stroke:black;stroke-width:2;stroke-linecap:butt;stroke-linejoin:miter;stroke-miterlimit:4;stroke-dasharray:none;stroke-opacity:1"
     id="path1881" />
  <path
     d="M 453.3125,17.796875 L 36.78125,17.828125 C 28.356999,17.828125 23.40625,23.829135 23.40625,32.703125 L 23.40625,237.35938 C 23.406249,246.23335 28.35701,252.23438 36.78125,252.23438 L 453.28125,252.20313 C 461.70549,252.20312 466.65625,246.20211 466.65625,237.32813 L 466.65625,32.671875 C 466.65625,23.797885 461.73674,17.796875 453.3125,17.796875 z "
     style="fill:none;fill-opacity:1;fill-rule:evenodd;stroke:black;stroke-width:10.05090809;stroke-linecap:butt;stroke-linejoin:miter;stroke-miterlimit:4;stroke-dasharray:none;stroke-opacity:1"
     id="path3976" />
  <path
     d="M 66.87217,167.22681 L 66.87217,77.09897 L 89.43712,77.09897 C 95.38347,77.09906 100.38346,79.17054 104.43711,83.3134 C 108.49067,87.45644 110.51748,92.50111 110.51753,98.44743 L 110.51753,106.8268 C 110.51748,115.11276 107.00408,121.46327 99.97732,125.87836 L 113.6268,167.22681 L 99.97732,167.22681 L 87.8165,128.57938 L 79.70928,128.57938 L 79.70928,167.22681 L 66.87217,167.22681 z M 95.51959,114.39382 C 96.33055,113.40142 96.89344,112.27497 97.20824,111.01444 C 97.52299,109.75401 97.68038,108.35814 97.68041,106.8268 L 97.68041,98.44743 C 97.68038,95.65436 96.91474,93.40214 95.38351,91.69072 C 93.8522,89.97946 91.69,89.12379 88.8969,89.12371 L 79.70928,89.12371 L 79.70928,117.23094 L 88.76495,117.23094 C 91.46732,117.23098 93.71888,116.28527 95.51959,114.39382 L 95.51959,114.39382 z M 124.58763,109.52784 C 126.47903,107.18563 128.70859,105.36157 131.27629,104.05567 C 133.84397,102.7499 136.61373,102.09697 139.58557,102.09691 C 142.9175,102.09697 145.86732,102.70521 148.43505,103.92165 C 151.00271,105.13821 153.41302,107.23236 155.66598,110.20412 C 157.91885,113.17599 159.04532,117.04954 159.04535,121.82475 L 159.04535,147.49896 C 159.04532,152.36222 157.96422,156.25774 155.80206,159.18556 C 153.63983,162.11342 151.20752,164.32096 148.50516,165.80825 C 145.80271,167.29553 143.05496,168.03918 140.26185,168.03918 C 136.3883,168.03918 132.85222,167.07079 129.65361,165.13402 C 126.45496,163.19725 124.24742,161.03506 123.03092,158.64742 C 121.81443,156.25981 121.07147,154.27767 120.80206,152.70103 C 120.53264,151.1244 120.39793,149.39039 120.39793,147.49896 L 120.39793,121.82475 C 120.39793,116.95881 121.79449,112.85985 124.58763,109.52784 L 124.58763,109.52784 z M 139.85361,114.66186 C 137.8742,114.66191 136.29895,115.33751 135.12782,116.68866 C 133.95669,118.03991 133.37111,119.75194 133.37113,121.82475 L 133.37113,147.49896 C 133.37111,149.57184 133.934,151.35122 135.0598,152.83711 C 136.18555,154.32304 137.78348,155.06599 139.85361,155.06598 C 142.64671,155.06599 144.38142,154.25499 145.05773,152.63298 C 145.73399,151.01102 146.07213,149.20896 146.07216,147.22681 L 146.07216,121.82475 C 146.07213,119.84266 145.50924,118.15331 144.38351,116.7567 C 143.2577,115.36019 141.74774,114.66191 139.85361,114.66186 L 139.85361,114.66186 z M 182.34845,77.09897 L 182.34845,148.71546 C 182.34844,150.8763 182.70858,152.45225 183.42886,153.4433 C 184.14912,154.43438 185.59104,154.9299 187.75464,154.92989 L 188.69897,154.92989 L 188.69897,167.22681 L 185.86185,167.22681 C 183.78898,167.22681 181.85221,167.00137 180.05155,166.55052 C 178.25085,166.09965 176.44947,165.17663 174.64742,163.78144 C 172.84535,162.38626 171.51614,160.58489 170.6598,158.37732 C 169.80343,156.16978 169.37525,153.80414 169.37526,151.28042 L 169.37526,77.09897 L 182.34845,77.09897 z M 209.53195,77.09897 L 209.53195,148.71546 C 209.53194,150.8763 209.89207,152.45225 210.61236,153.4433 C 211.33262,154.43438 212.77455,154.9299 214.93814,154.92989 L 215.88246,154.92989 L 215.88246,167.22681 L 213.04535,167.22681 C 210.97249,167.22681 209.03572,167.00137 207.23504,166.55052 C 205.43435,166.09965 203.63297,165.17663 201.83091,163.78144 C 200.02884,162.38626 198.69964,160.58489 197.8433,158.37732 C 196.98692,156.16978 196.55875,153.80414 196.55876,151.28042 L 196.55876,77.09897 L 209.53195,77.09897 z M 240.22886,155.87423 C 242.21097,155.87424 243.92231,155.244 245.36288,153.9835 C 246.8034,152.72304 247.52368,151.10173 247.52371,149.11958 C 247.52368,146.77733 246.91613,145.04332 245.70103,143.91752 C 244.48589,142.79177 242.57111,141.77803 239.9567,140.87629 L 237.39176,139.93195 C 234.68932,138.93955 232.4371,137.97048 230.63505,137.02474 C 228.83298,136.07907 226.89621,134.36773 224.82475,131.89072 C 222.75325,129.41378 221.71753,125.83303 221.71753,121.14846 C 221.71753,115.83442 223.56426,111.33064 227.25774,107.63711 C 230.95119,103.94371 235.50033,102.09697 240.90515,102.09691 C 245.85908,102.09697 250.04738,103.98838 253.47011,107.77113 C 256.89274,111.554 258.60409,115.83303 258.60413,120.60824 L 246.71546,120.60824 C 246.71543,118.71688 246.10718,117.16294 244.89073,115.94639 C 243.67421,114.72995 242.07488,114.1217 240.09279,114.12165 C 238.29208,114.1217 236.80617,114.79731 235.63505,116.14846 C 234.4639,117.49969 233.87833,119.12101 233.87835,121.01238 C 233.87833,122.99455 234.4639,124.5265 235.63505,125.60825 C 236.80617,126.69007 238.51751,127.63646 240.76907,128.44742 L 244.95877,129.79588 C 247.39173,130.69762 249.30581,131.55399 250.70103,132.36494 C 252.09619,133.17599 253.49206,134.39179 254.88866,136.01238 C 256.28518,137.63303 257.43433,139.52443 258.33609,141.68659 C 259.23776,143.84881 259.68861,146.14641 259.68866,148.57938 C 259.68861,153.80551 257.8192,158.37732 254.08041,162.29485 C 250.34155,166.21238 245.85908,168.17113 240.63298,168.17113 C 237.4797,168.17113 234.30445,167.31547 231.10722,165.60412 C 227.90996,163.89278 225.43299,161.5732 223.6763,158.64536 C 221.91958,155.71753 221.04122,152.40757 221.04124,148.71546 L 233.06598,148.71546 C 233.06596,150.69761 233.76425,152.38626 235.16081,153.78143 C 236.55738,155.17664 238.24671,155.87424 240.22886,155.87423 L 240.22886,155.87423 z M 268.48041,192.90103 L 268.48041,102.90515 L 281.4536,102.90515 L 281.4536,109.12371 C 282.80342,106.96021 284.55943,105.2255 286.72165,103.91958 C 288.88381,102.61381 291.22678,101.96089 293.75051,101.96082 C 297.53329,101.96089 300.70855,103.37945 303.27629,106.2165 C 305.84394,109.05367 307.12779,112.409 307.12784,116.28247 L 307.12784,153.30928 C 307.12779,155.2007 306.94771,156.84469 306.58762,158.24124 C 306.22744,159.63781 305.10099,161.59725 303.20825,164.11958 C 301.31542,166.64192 298.2522,167.90309 294.01855,167.90309 C 288.34431,167.90309 284.15599,165.51547 281.4536,160.74021 L 281.4536,192.90103 L 268.48041,192.90103 z M 287.80412,114.79794 C 285.82197,114.79799 284.26801,115.49627 283.14227,116.89278 C 282.01646,118.28939 281.45359,119.97874 281.4536,121.96083 L 281.4536,147.09485 C 281.45359,149.43713 281.99379,151.35122 283.07423,152.83711 C 284.1546,154.32304 285.91132,155.06599 288.34433,155.06598 C 290.86526,155.06599 292.46388,154.21032 293.14021,152.49897 C 293.81646,150.78765 294.15461,148.98627 294.15463,147.09485 L 294.15463,121.96083 C 294.15461,119.97874 293.59172,118.28939 292.46597,116.89278 C 291.34017,115.49627 289.78623,114.79799 287.80412,114.79794 L 287.80412,114.79794 z M 330.40618,77.09897 L 330.40618,148.71546 C 330.40615,150.8763 330.76629,152.45225 331.48659,153.4433 C 332.20685,154.43438 333.64878,154.9299 335.81236,154.92989 L 336.75669,154.92989 L 336.75669,167.22681 L 333.91958,167.22681 C 331.8467,167.22681 329.90995,167.00137 328.10927,166.55052 C 326.30856,166.09965 324.50719,165.17663 322.70514,163.78144 C 320.90307,162.38626 319.57387,160.58489 318.71752,158.37732 C 317.86115,156.16978 317.43298,153.80414 317.43298,151.28042 L 317.43298,77.09897 L 330.40618,77.09897 z M 344.6165,167.22681 L 344.6165,102.90515 L 357.58969,102.90515 L 357.58969,167.22681 L 344.6165,167.22681 z M 344.6165,89.8 L 344.6165,77.09897 L 357.58969,77.09897 L 357.58969,89.8 L 344.6165,89.8 z M 388.22062,154.92989 L 391.19381,154.92989 L 391.19381,167.22681 L 387.1402,167.22681 C 384.7072,167.22681 382.545,166.97937 380.65361,166.48453 C 378.76219,165.98969 376.91544,164.97594 375.1134,163.4433 C 373.31133,161.91066 372.05017,160.22131 371.3299,158.37526 C 370.60961,156.52922 370.24948,154.25499 370.24949,151.55258 L 370.24949,113.04124 L 363.89897,113.04124 L 363.89897,102.90515 L 370.24949,102.90515 L 370.24949,83.44949 L 383.22268,83.44949 L 383.22268,102.90515 L 391.19381,102.90515 L 391.19381,113.04124 L 383.22268,113.04124 L 383.22268,149.25567 C 383.22267,151.41651 383.51545,152.90242 384.10104,153.71339 C 384.68657,154.52442 386.05976,154.9299 388.22062,154.92989 L 388.22062,154.92989 z M 420.15465,154.92989 L 423.12783,154.92989 L 423.12783,167.22681 L 419.07422,167.22681 C 416.64121,167.22681 414.47903,166.97937 412.58763,166.48453 C 410.6962,165.98969 408.84947,164.97594 407.04742,163.4433 C 405.24535,161.91066 403.98419,160.22131 403.26391,158.37526 C 402.54363,156.52922 402.18349,154.25499 402.1835,151.55258 L 402.1835,113.04124 L 395.83299,113.04124 L 395.83299,102.90515 L 402.1835,102.90515 L 402.1835,83.44949 L 415.1567,83.44949 L 415.1567,102.90515 L 423.12783,102.90515 L 423.12783,113.04124 L 415.1567,113.04124 L 415.1567,149.25567 C 415.15668,151.41651 415.44946,152.90242 416.03505,153.71339 C 416.62059,154.52442 417.99379,154.9299 420.15465,154.92989 L 420.15465,154.92989 z "
     style="font-size:108.03331757px;font-style:normal;font-variant:normal;font-weight:normal;font-stretch:normal;text-align:center;line-height:100%;writing-mode:lr-tb;text-anchor:middle;fill:black;fill-opacity:1;stroke:none;stroke-width:1px;stroke-linecap:butt;stroke-linejoin:miter;stroke-opacity:1;font-family:DIN 1451 Engschrift"
     id="text1872" />
</svg>
