<?xml version="1.0" encoding="UTF-8" standalone="no"?>
<!-- Created with Inkscape (http://www.inkscape.org/) -->
<svg
   xmlns:svg="http://www.w3.org/2000/svg"
   xmlns="http://www.w3.org/2000/svg"
   version="1.0"
   width="490"
   height="270"
   id="svg2">
  <defs
     id="defs4" />
  <path
     d="M 38.75,4.75 C 20.325639,4.7499998 9.9375,11.885785 9.9375,32.96875 L 9.625,236.5625 C 9.625,257.64547 20.013141,264.78126 38.4375,264.78125 L 451.1875,264.75 C 469.61186,264.75 479.99999,257.61421 480,236.53125 L 480.3125,33 C 480.3125,11.917035 469.92436,4.7812498 451.5,4.78125 L 38.75,4.75 z "
     style="fill:white;fill-opacity:1;fill-rule:evenodd;stroke:black;stroke-width:2;stroke-linecap:butt;stroke-linejoin:miter;stroke-miterlimit:4;stroke-dasharray:none;stroke-opacity:1"
     id="path1892" />
  <path
     d="M 453.28125,17.5625 L 36.75,17.59375 C 28.325749,17.59375 23.375,23.59476 23.375,32.46875 L 23.375,237.125 C 23.374999,245.99898 28.32576,252 36.75,252 L 453.25,251.96875 C 461.67424,251.96874 466.625,245.96774 466.625,237.09375 L 466.625,32.4375 C 466.625,23.56351 461.70549,17.5625 453.28125,17.5625 z "
     style="fill:none;fill-opacity:1;fill-rule:evenodd;stroke:black;stroke-width:10.05090809;stroke-linecap:butt;stroke-linejoin:miter;stroke-miterlimit:4;stroke-dasharray:none;stroke-opacity:1"
     id="path3976" />
  <path
     d="M 65.180491,139.84963 L 93.838954,82.532706 L 110.91676,82.532706 L 88.415102,127.68261 L 88.708283,127.68261 C 91.10256,126.75427 93.814484,126.29007 96.844061,126.29 C 103.58718,126.29007 109.52409,128.65995 114.65482,133.39965 C 119.78542,138.13946 122.35076,145.68887 122.35082,156.0479 C 122.35076,168.31266 119.0769,177.07144 112.52925,182.32426 C 105.98149,187.57709 98.749693,190.20351 90.833847,190.20351 C 83.357698,190.20351 76.529026,187.30834 70.347809,181.51801 C 64.166564,175.7277 61.075948,167.7996 61.075954,157.73369 C 61.075948,151.28374 62.444126,145.32239 65.180491,139.84963 L 65.180491,139.84963 z M 91.71339,139.84963 C 87.462231,139.84968 83.846333,141.27894 80.865685,144.13741 C 77.884987,146.99597 76.394651,151.4059 76.394672,157.36721 C 76.394651,169.09448 81.500885,174.9581 91.71339,174.95808 C 95.231525,174.9581 98.664183,173.62657 102.01138,170.96349 C 105.35848,168.30045 107.03205,163.76836 107.03211,157.36721 C 107.03205,151.4059 105.5295,146.99597 102.52444,144.13741 C 99.519293,141.27894 95.915614,139.84968 91.71339,139.84963 L 91.71339,139.84963 z M 178.86151,158.61323 L 178.86151,113.24344 C 178.86145,108.11285 177.48106,104.10604 174.72032,101.22301 C 171.95949,98.34015 168.33137,96.898677 163.83597,96.898585 C 159.29163,96.898677 155.6513,98.34015 152.91497,101.22301 C 150.17859,104.10604 148.81041,108.11285 148.81043,113.24344 L 148.81043,158.61323 C 148.81041,163.79279 150.17859,167.81181 152.91497,170.67031 C 155.6513,173.52884 159.29163,174.9581 163.83597,174.95808 C 168.33137,174.9581 171.95949,173.52884 174.72032,170.67031 C 177.48106,167.81181 178.86145,163.79279 178.86151,158.61323 L 178.86151,158.61323 z M 133.49171,159.49278 L 133.49171,112.3639 C 133.49171,102.54241 136.57011,94.956354 142.72692,89.605702 C 148.88371,84.25525 155.92005,81.579974 163.83597,81.579867 C 171.70295,81.579974 178.72708,84.25525 184.90837,89.605702 C 191.08954,94.956354 194.18016,102.54241 194.18022,112.3639 L 194.18022,159.49278 C 194.18016,169.31437 191.08954,176.88821 184.90837,182.21432 C 178.72708,187.54045 171.70295,190.20351 163.83597,190.20351 C 155.92005,190.20351 148.88371,187.54045 142.72692,182.21432 C 136.57011,176.88821 133.49171,169.31437 133.49171,159.49278 L 133.49171,159.49278 z M 250.98409,158.61323 L 250.98409,113.24344 C 250.98404,108.11285 249.60364,104.10604 246.8429,101.22301 C 244.08207,98.34015 240.45395,96.898677 235.95855,96.898585 C 231.41421,96.898677 227.77388,98.34015 225.03755,101.22301 C 222.30117,104.10604 220.93299,108.11285 220.93301,113.24344 L 220.93301,158.61323 C 220.93299,163.79279 222.30117,167.81181 225.03755,170.67031 C 227.77388,173.52884 231.41421,174.9581 235.95855,174.95808 C 240.45395,174.9581 244.08207,173.52884 246.8429,170.67031 C 249.60364,167.81181 250.98404,163.79279 250.98409,158.61323 L 250.98409,158.61323 z M 205.61429,159.49278 L 205.61429,112.3639 C 205.61429,102.54241 208.69269,94.956354 214.8495,89.605702 C 221.00629,84.25525 228.04263,81.579974 235.95855,81.579867 C 243.82554,81.579974 250.84966,84.25525 257.03095,89.605702 C 263.21212,94.956354 266.30274,102.54241 266.30281,112.3639 L 266.30281,159.49278 C 266.30274,169.31437 263.21212,176.88821 257.03095,182.21432 C 250.84966,187.54045 243.82554,190.20351 235.95855,190.20351 C 228.04263,190.20351 221.00629,187.54045 214.8495,182.21432 C 208.69269,176.88821 205.61429,169.31437 205.61429,159.49278 L 205.61429,159.49278 z M 318.92883,189.32396 L 318.92883,113.24344 L 334.24755,113.24344 L 334.24755,121.37922 L 334.54073,121.37922 C 339.37819,115.36908 345.97476,112.36397 354.33047,112.3639 C 359.65654,112.36397 363.88323,113.31681 367.01055,115.22241 C 370.13776,117.12816 373.06957,119.47361 375.80599,122.25876 C 381.81613,115.66226 389.82974,112.36397 399.84685,112.3639 C 405.75924,112.36397 411.46405,114.61169 416.9613,119.10706 C 422.45834,123.60257 425.20691,130.15028 425.20702,138.7502 L 425.20702,189.32396 L 409.88831,189.32396 L 409.88831,144.02747 C 409.8882,138.89685 408.44673,134.89004 405.56388,132.00704 C 402.68084,129.12415 399.1138,127.68268 394.86277,127.68261 C 390.46497,127.68268 386.83685,129.12415 383.97842,132.00704 C 381.11983,134.89004 379.69057,138.89685 379.69064,144.02747 L 379.69064,189.32396 L 364.44522,189.32396 L 364.44522,144.02747 C 364.44516,138.89685 363.00369,134.89004 360.12079,132.00704 C 357.2378,129.12415 353.67076,127.68268 349.41968,127.68261 C 345.02193,127.68268 341.39381,129.12415 338.53533,132.00704 C 335.67678,134.89004 334.24753,138.89685 334.24755,144.02747 L 334.24755,189.32396 L 318.92883,189.32396 z "
     style="font-size:150.10877991px;font-style:normal;font-variant:normal;font-weight:normal;font-stretch:normal;text-align:center;line-height:100%;writing-mode:lr-tb;text-anchor:middle;fill:black;fill-opacity:1;stroke:none;stroke-width:1px;stroke-linecap:butt;stroke-linejoin:miter;stroke-opacity:1;font-family:DIN 1451 Mittelschrift"
     id="path4386" />
</svg>
