<?xml version="1.0" encoding="UTF-8" standalone="no"?>
<!-- Created with Inkscape (http://www.inkscape.org/) -->

<svg
   xmlns:dc="http://purl.org/dc/elements/1.1/"
   xmlns:cc="http://creativecommons.org/ns#"
   xmlns:rdf="http://www.w3.org/1999/02/22-rdf-syntax-ns#"
   xmlns:svg="http://www.w3.org/2000/svg"
   xmlns="http://www.w3.org/2000/svg"
   xmlns:sodipodi="http://sodipodi.sourceforge.net/DTD/sodipodi-0.dtd"
   xmlns:inkscape="http://www.inkscape.org/namespaces/inkscape"
   version="1.1"
   width="574.03436"
   height="315.75903"
   id="svg2"
   inkscape:version="0.48.3.1 r9886"
   sodipodi:docname="Zusatzzeichen_1014-53.svg">
  <metadata
     id="metadata8">
    <rdf:RDF>
      <cc:Work
         rdf:about="">
        <dc:format>image/svg+xml</dc:format>
        <dc:type
           rdf:resource="http://purl.org/dc/dcmitype/StillImage" />
      </cc:Work>
    </rdf:RDF>
  </metadata>
  <sodipodi:namedview
     pagecolor="#ffffff"
     bordercolor="#666666"
     borderopacity="1"
     objecttolerance="10"
     gridtolerance="10"
     guidetolerance="10"
     inkscape:pageopacity="0"
     inkscape:pageshadow="2"
     inkscape:window-width="1366"
     inkscape:window-height="706"
     id="namedview6"
     showgrid="false"
     inkscape:zoom="1.2194392"
     inkscape:cx="236.59497"
     inkscape:cy="146.78073"
     inkscape:window-x="-8"
     inkscape:window-y="-8"
     inkscape:window-maximized="1"
     inkscape:current-layer="layer1" />
  <defs
     id="defs4" />
  <g
     transform="translate(-276.48219,-377.34351)"
     id="layer1">
    <g
       transform="translate(-0.62107304,-335.93131)"
       id="layer1-1"
       style="fill:#ffffff;fill-opacity:1">
      <path
         inkscape:connector-curvature="0"
         d="m 306.13761,1028.2806 c -11.58546,-2.8592 -24.57954,-14.8864 -27.81889,-25.7489 -1.6206,-5.43435 -1.6206,-257.19699 0,-262.63132 3.33152,-11.17156 15.99762,-22.79102 27.54403,-25.26799 9.52558,-2.04345 508.56224,-1.9931 517.12432,0.0522 15.57942,6.2142 21.37549,14.05793 28.15055,27.03146 l 0,129.5 0,129.50005 -3.3059,6.3322 c -4.20028,8.0454 -10.31654,14.1617 -18.36189,18.3619 l -6.33221,3.3059 -257,0.1525 c -141.35,0.084 -258.35001,-0.1807 -260.00001,-0.588 z"
         id="path3050-7"
         style="fill:#ffffff;fill-opacity:1"
         sodipodi:nodetypes="csssccccsscscc" />
    </g>
    <path
       d="m 305.51653,692.49908 c -11.58546,-2.85922 -24.57954,-14.8864 -27.81889,-25.74886 -1.6206,-5.43433 -1.6206,-257.19697 0,-262.6313 3.33152,-11.17156 15.99762,-22.79102 27.54403,-25.26799 9.52558,-2.04345 508.56224,-1.9931 517.12432,0.0522 9.99947,2.38864 19.3604,10.19926 24.87148,20.75239 l 3.27907,6.27907 0,129.5 0,129.5 -3.3059,6.33221 c -4.20028,8.04535 -10.31654,14.16161 -18.36189,18.36189 l -6.33221,3.3059 -257,0.15245 c -141.35,0.0838 -258.35001,-0.18073 -260.00001,-0.58794 z m 523.27908,-3.84358 c 7.96208,-4.15797 13.28389,-9.47978 17.44186,-17.44186 l 3.27907,-6.27907 0,-129.5 0,-129.5 -3.24509,-6.21176 c -5.38505,-10.30807 -14.00493,-17.4547 -23.90546,-19.8197 -8.56208,-2.04528 -507.59874,-2.09563 -517.12432,-0.0522 -11.37853,2.44095 -23.27966,13.32161 -26.54403,24.26799 -1.6206,5.43433 -1.6206,257.19697 0,262.6313 3.17744,10.65487 15.39515,21.92955 26.81889,24.74886 1.65,0.40721 118.65001,0.67178 260.00001,0.58794 l 257,-0.15245 6.27907,-3.27907 z m -520.27908,-6.25015 c -9.14263,-1.87377 -13.38805,-5.14781 -20.0608,-15.47078 -1.88935,-2.92289 -1.94601,-6.26332 -2.20428,-129.95904 l -0.26507,-126.95904 2.62715,-5.3697 c 3.32952,-6.80531 7.80526,-11.28342 14.60003,-14.60779 l 5.35451,-2.61972 255.97424,0.25764 255.97423,0.25765 7.19706,4.7916 c 6.03916,4.02071 7.64801,5.70999 10,10.5 l 2.80294,5.7084 0,127.20004 c 0,100.42672 -0.2631,127.46313 -1.25,128.45 -0.6875,0.68748 -1.25,1.95727 -1.25,2.82176 0,2.93867 -8.339,10.79064 -14.02177,13.20283 l -5.47823,2.32537 -253,0.14529 c -139.15,0.0799 -254.80001,-0.22362 -257.00001,-0.67451 z m 510.59389,-15.51933 c 1.64701,-0.8517 3.87298,-2.9892 4.9466,-4.75 1.90821,-3.12955 1.95213,-5.97722 1.95578,-126.80357 l 0.004,-123.60211 -2.25,-3.29628 c -1.2375,-1.81294 -3.81798,-4.12949 -5.7344,-5.14788 -3.36469,-1.788 -12.12082,-1.85161 -254.86384,-1.85161 l -251.37946,0 -3.76827,2.11789 c -2.07255,1.16483 -4.72132,3.8136 -5.88615,5.88615 l -2.11789,3.76827 0,122.22769 0,122.22769 2.15656,3.83707 c 4.23111,7.52825 -19.98868,6.88715 261.14311,6.91247 226.3065,0.0204 253.11349,-0.13952 255.79422,-1.52578 z m -310.09388,-131.95145 0,-83.5 54,0 54,0 0,12 0,12 -41,0 -41,0 0,24 0,24 35,0 35,0 0,11 0,11 -35,0 -35,0 0,24.5 0,24.5 41,0 41,0 0,12 0,12 -54,0 -54,0 0,-83.5 z"
       id="path3050"
       style="fill:#000000"
       inkscape:connector-curvature="0" />
  </g>
</svg>
