<?xml version="1.0" encoding="UTF-8" standalone="no"?>
<!-- Created with Inkscape (http://www.inkscape.org/) -->
<svg
   xmlns:dc="http://purl.org/dc/elements/1.1/"
   xmlns:cc="http://web.resource.org/cc/"
   xmlns:rdf="http://www.w3.org/1999/02/22-rdf-syntax-ns#"
   xmlns:svg="http://www.w3.org/2000/svg"
   xmlns="http://www.w3.org/2000/svg"
   xmlns:sodipodi="http://sodipodi.sourceforge.net/DTD/sodipodi-0.dtd"
   xmlns:inkscape="http://www.inkscape.org/namespaces/inkscape"
   version="1.0"
   width="490"
   height="490"
   id="svg2"
   sodipodi:version="0.32"
   inkscape:version="0.44"
   sodipodi:docname="Zusatzzeichen 1006-39.svg"
   sodipodi:docbase="C:\Dokumente und Einstellungen\Internet\Desktop\Wiki\SVG sonstiges (fertig)">
  <metadata
     id="metadata10">
    <rdf:RDF>
      <cc:Work
         rdf:about="">
        <dc:format>image/svg+xml</dc:format>
        <dc:type
           rdf:resource="http://purl.org/dc/dcmitype/StillImage" />
      </cc:Work>
    </rdf:RDF>
  </metadata>
  <sodipodi:namedview
     inkscape:window-height="749"
     inkscape:window-width="1024"
     inkscape:pageshadow="2"
     inkscape:pageopacity="0.0"
     guidetolerance="10.0"
     gridtolerance="10.0"
     objecttolerance="10.0"
     borderopacity="1.0"
     bordercolor="#666666"
     pagecolor="#ffffff"
     id="base"
     inkscape:zoom="0.77142857"
     inkscape:cx="485.65435"
     inkscape:cy="245"
     inkscape:window-x="-4"
     inkscape:window-y="-4"
     inkscape:current-layer="svg2" />
  <defs
     id="defs4" />
  <path
     sodipodi:nodetypes="ccccccccc"
     d="M 38.781255,9.665355 C 20.356895,9.665345 9.968755,19.290965 9.968755,47.730255 L 9.656255,442.26975 C 9.656255,470.70902 20.044395,480.33465 38.468755,480.33465 L 451.21875,480.29249 C 469.6431,480.29249 480.03124,470.66687 480.03125,442.2276 L 480.34375,47.772405 C 480.34375,19.333125 469.9556,9.707495 451.53125,9.707515 L 38.781255,9.665355 z "
     style="fill:white;fill-opacity:1;fill-rule:evenodd;stroke:black;stroke-width:3;stroke-linecap:butt;stroke-linejoin:miter;stroke-miterlimit:4;stroke-dasharray:none;stroke-opacity:1"
     id="path1881" />
  <path
     sodipodi:nodetypes="ccccccccc"
     d="M 453.23342,24.769243 L 36.797822,24.812153 C 28.375507,24.812153 23.425893,33.050693 23.425893,45.233473 L 23.425893,444.80943 C 23.425893,456.99217 28.375517,465.23076 36.797822,465.23076 L 453.20218,465.18785 C 461.62449,465.18784 466.57411,456.94929 466.57411,444.76653 L 466.57411,45.190573 C 466.57411,33.007793 461.65573,24.769243 453.23342,24.769243 z "
     style="fill:none;fill-opacity:1;fill-rule:evenodd;stroke:black;stroke-width:12;stroke-linecap:butt;stroke-linejoin:miter;stroke-miterlimit:4;stroke-dasharray:none;stroke-opacity:1"
     id="path3976" />
  <g
     id="g1925"
     transform="translate(-601.4054,-10.59736)">
    <path
       id="path3776"
       style="fill:black;fill-opacity:1;fill-rule:evenodd;stroke:none;stroke-width:1px;stroke-linecap:butt;stroke-linejoin:miter;stroke-opacity:1"
       d="M 696.55318,382.1306 L 849.08782,382.1306 L 849.14515,243.90497 C 849.14515,239.08628 842.2297,231.1362 836.60825,231.1362 L 709.10442,231.25981 C 703.2707,231.25981 696.66302,238.46838 696.66302,243.42586 L 696.55318,382.1306 z " />
    <g
       id="g1921"
       style="fill:black"
       transform="translate(592.1415,6.825418)">
      <path
         id="path3780"
         style="fill:black;fill-opacity:1;fill-rule:evenodd;stroke:none;stroke-width:1px;stroke-linecap:butt;stroke-linejoin:miter;stroke-opacity:1"
         d="M 106.73041,378.01834 L 124.17688,378.01834 L 126.28486,381.20649 L 126.35032,425.98466 L 123.07706,429.16627 L 107.32614,429.36267 L 104.62243,426.64586 L 104.75336,380.22452 L 106.73041,378.01834 z " />
      <path
         id="path3784"
         style="fill:black;fill-opacity:1;fill-rule:evenodd;stroke:none;stroke-width:1px;stroke-linecap:butt;stroke-linejoin:miter;stroke-opacity:1"
         d="M 132.1743,378.32938 L 130.18695,380.52897 L 130.05189,426.95181 L 132.77243,429.67235 L 148.51684,429.47941 L 151.79692,426.2958 L 151.77762,411.63188 L 153.57203,409.74101 L 165.99776,409.68313 L 166.01705,410.26197 L 167.75356,410.22338 C 167.80606,411.46197 174.69601,417.78686 181.04756,417.78687 L 181.04756,417.74828 C 187.39373,417.73558 194.25052,411.44143 194.30295,410.20409 L 196.03947,410.24267 L 196.07806,409.64454 L 208.50379,409.72172 L 210.22102,411.51612 L 210.18242,426.95181 L 212.88367,429.67235 L 228.62807,429.47941 L 231.90816,426.2958 L 231.83098,381.513 L 229.72787,378.32938 L 212.28554,378.32938 L 210.29819,380.52897 L 210.2596,395.19288 L 207.7706,397.75906 L 196.05877,397.72047 L 196.07806,397.12234 L 194.18718,397.10304 C 194.18719,395.31833 187.39011,389.65532 181.02826,389.65532 L 181.02826,389.67461 C 174.67211,389.68643 167.88862,395.35876 167.88863,397.14163 L 165.99776,397.14163 L 165.99776,397.75906 L 154.28592,397.77835 L 151.73904,395.15429 L 151.71974,381.513 L 149.61663,378.32938 L 132.1743,378.32938 z " />
      <path
         id="path3788"
         style="fill:black;fill-opacity:1;fill-rule:evenodd;stroke:none;stroke-width:1px;stroke-linecap:butt;stroke-linejoin:miter;stroke-opacity:1"
         d="M 237.52571,377.96072 L 254.97217,377.96072 L 257.08015,381.14887 L 257.14562,425.92704 L 253.87237,429.10865 L 238.12144,429.30505 L 235.41773,426.58824 L 235.54867,380.1669 L 237.52571,377.96072 z " />
    </g>
    <path
       id="path1926"
       style="color:black;fill:black;fill-opacity:1;fill-rule:nonzero;stroke:none;stroke-width:1;stroke-linecap:round;stroke-linejoin:miter;marker:none;marker-start:none;marker-mid:none;marker-end:none;stroke-miterlimit:4;stroke-dasharray:none;stroke-dashoffset:0;stroke-opacity:1;visibility:visible;display:inline;overflow:visible"
       d="M 761.87156,221.22462 C 757.03911,207.34461 765.55617,200.07054 774.42822,192.97214 C 767.38015,173.9615 774.48551,160.8994 795.61758,153.73259 C 789.99359,136.53037 792.00746,121.9619 815.83094,114.91398 C 817.0335,95.174293 825.75606,78.616789 859.97044,88.59494 C 867.65339,52.684581 910.3022,59.742356 916.47539,90.949313 C 925.08097,81.996773 954.85483,88.491007 954.14535,116.06263 C 963.70708,117.36143 975.1326,122.99688 978.47388,141.96073 C 992.4599,142.67694 1017.9402,149.6787 1005.9416,188.2634 C 1022.9764,193.01381 1044.9253,223.56253 1006.7263,242.41398 C 1015.0503,267.70528 1005.9475,283.03913 978.47388,284.0079 C 972.50259,306.38856 954.59625,312.323 932.956,302.84288 C 931.84899,309.23809 927.07132,312.63002 919.61455,313.82996 L 940.01912,429.19423 L 899.20999,429.19423 L 900.77957,313.04516 C 893.67953,310.87733 887.8895,307.80257 888.22291,300.48851 C 877.75903,303.10127 867.29515,304.10445 856.83127,298.13414 L 856.83127,238.49002 C 856.83127,230.02069 846.20643,221.61701 839.95827,221.61701 L 761.87156,221.22462 z " />
    <path
       id="path1928"
       style="color:black;fill:black;fill-opacity:1;fill-rule:nonzero;stroke:none;stroke-width:1;stroke-linecap:round;stroke-linejoin:miter;marker:none;marker-start:none;marker-mid:none;marker-end:none;stroke-miterlimit:4;stroke-dasharray:none;stroke-dashoffset:0;stroke-opacity:1;visibility:visible;display:inline;overflow:visible"
       d="M 664.94743,436.09235 L 876.11634,436.09235 L 876.11634,446.71453 L 664.94743,446.71453 L 664.94743,436.09235 z " />
    <path
       id="path1930"
       style="color:black;fill:black;fill-opacity:1;fill-rule:nonzero;stroke:none;stroke-width:1;stroke-linecap:round;stroke-linejoin:miter;marker:none;marker-start:none;marker-mid:none;marker-end:none;stroke-miterlimit:4;stroke-dasharray:none;stroke-dashoffset:0;stroke-opacity:1;visibility:visible;display:inline;overflow:visible"
       d="M 881.12057,436.05199 L 895.8911,436.05199 L 895.8911,446.68864 L 881.07412,446.68864 L 881.12057,436.05199 z " />
    <path
       id="path1936"
       style="color:black;fill:black;fill-opacity:1;fill-rule:nonzero;stroke:none;stroke-width:1;stroke-linecap:round;stroke-linejoin:miter;marker:none;marker-start:none;marker-mid:none;marker-end:none;stroke-miterlimit:4;stroke-dasharray:none;stroke-dashoffset:0;stroke-opacity:1;visibility:visible;display:inline;overflow:visible"
       d="M 900.7914,436.05199 L 915.56193,436.05199 L 915.56193,446.68864 L 900.74495,446.68864 L 900.7914,436.05199 z " />
    <path
       id="path1938"
       style="color:black;fill:black;fill-opacity:1;fill-rule:nonzero;stroke:none;stroke-width:1;stroke-linecap:round;stroke-linejoin:miter;marker:none;marker-start:none;marker-mid:none;marker-end:none;stroke-miterlimit:4;stroke-dasharray:none;stroke-dashoffset:0;stroke-opacity:1;visibility:visible;display:inline;overflow:visible"
       d="M 920.57835,436.05199 L 935.34888,436.05199 L 935.34888,446.68864 L 920.5319,446.68864 L 920.57835,436.05199 z " />
    <path
       id="path1940"
       style="color:black;fill:black;fill-opacity:1;fill-rule:nonzero;stroke:none;stroke-width:1;stroke-linecap:round;stroke-linejoin:miter;marker:none;marker-start:none;marker-mid:none;marker-end:none;stroke-miterlimit:4;stroke-dasharray:none;stroke-dashoffset:0;stroke-opacity:1;visibility:visible;display:inline;overflow:visible"
       d="M 940.3653,436.05199 L 955.13583,436.05199 L 955.13583,446.68864 L 940.31885,446.68864 L 940.3653,436.05199 z " />
    <path
       id="path1942"
       style="color:black;fill:black;fill-opacity:1;fill-rule:nonzero;stroke:none;stroke-width:1;stroke-linecap:round;stroke-linejoin:miter;marker:none;marker-start:none;marker-mid:none;marker-end:none;stroke-miterlimit:4;stroke-dasharray:none;stroke-dashoffset:0;stroke-opacity:1;visibility:visible;display:inline;overflow:visible"
       d="M 960.15224,436.05199 L 974.92277,436.05199 L 974.92277,446.68864 L 960.10579,446.68864 L 960.15224,436.05199 z " />
    <path
       id="path1944"
       style="color:black;fill:black;fill-opacity:1;fill-rule:nonzero;stroke:none;stroke-width:1;stroke-linecap:round;stroke-linejoin:miter;marker:none;marker-start:none;marker-mid:none;marker-end:none;stroke-miterlimit:4;stroke-dasharray:none;stroke-dashoffset:0;stroke-opacity:1;visibility:visible;display:inline;overflow:visible"
       d="M 999.77259,436.05199 L 1014.5431,436.05199 L 1014.5431,446.68864 L 999.72614,446.68864 L 999.77259,436.05199 z " />
    <path
       id="path1946"
       style="color:black;fill:black;fill-opacity:1;fill-rule:nonzero;stroke:none;stroke-width:1;stroke-linecap:round;stroke-linejoin:miter;marker:none;marker-start:none;marker-mid:none;marker-end:none;stroke-miterlimit:4;stroke-dasharray:none;stroke-dashoffset:0;stroke-opacity:1;visibility:visible;display:inline;overflow:visible"
       d="M 979.90581,436.05199 L 994.67634,436.05199 L 994.67634,446.68864 L 979.85936,446.68864 L 979.90581,436.05199 z " />
  </g>
</svg>
