<?xml version="1.0" encoding="UTF-8" standalone="no"?>
<!-- Created with Inkscape (http://www.inkscape.org/) -->
<svg
   xmlns:dc="http://purl.org/dc/elements/1.1/"
   xmlns:cc="http://web.resource.org/cc/"
   xmlns:rdf="http://www.w3.org/1999/02/22-rdf-syntax-ns#"
   xmlns:svg="http://www.w3.org/2000/svg"
   xmlns="http://www.w3.org/2000/svg"
   xmlns:sodipodi="http://sodipodi.sourceforge.net/DTD/sodipodi-0.dtd"
   xmlns:inkscape="http://www.inkscape.org/namespaces/inkscape"
   version="1.0"
   width="490"
   height="360"
   id="svg2"
   sodipodi:version="0.32"
   inkscape:version="0.44"
   sodipodi:docname="Zusatzzeichen 1008-32.svg"
   sodipodi:docbase="C:\Dokumente und Einstellungen\Internet\Desktop\Wiki\SVG sonstiges (fertig)">
  <metadata
     id="metadata10">
    <rdf:RDF>
      <cc:Work
         rdf:about="">
        <dc:format>image/svg+xml</dc:format>
        <dc:type
           rdf:resource="http://purl.org/dc/dcmitype/StillImage" />
      </cc:Work>
    </rdf:RDF>
  </metadata>
  <sodipodi:namedview
     inkscape:window-height="749"
     inkscape:window-width="1024"
     inkscape:pageshadow="2"
     inkscape:pageopacity="0.0"
     guidetolerance="10.0"
     gridtolerance="10.0"
     objecttolerance="10.0"
     borderopacity="1.0"
     bordercolor="#666666"
     pagecolor="#ffffff"
     id="base"
     inkscape:zoom="1.05"
     inkscape:cx="485.44864"
     inkscape:cy="108.23622"
     inkscape:window-x="-4"
     inkscape:window-y="-4"
     inkscape:current-layer="svg2"
     showguides="true"
     inkscape:guide-bbox="true" />
  <defs
     id="defs4" />
  <path
     d="M 38.78125,4.6190618 C 20.35689,4.6190483 9.96875,14.244672 9.96875,42.683954 L 9.65625,317.31604 C 9.65625,345.75531 20.04439,355.38094 38.46875,355.38094 L 451.21875,355.33878 C 469.64311,355.33878 480.03124,345.71316 480.03125,317.27389 L 480.34375,42.726108 C 480.34375,14.286826 469.95561,4.6612021 451.53125,4.6612156 L 38.78125,4.6190618 z "
     style="fill:white;fill-opacity:1;fill-rule:evenodd;stroke:black;stroke-width:3;stroke-linecap:butt;stroke-linejoin:miter;stroke-miterlimit:4;stroke-dasharray:none;stroke-opacity:1"
     id="path1881" />
  <path
     d="M 453.23342,19.074797 L 36.79782,19.117707 C 28.375505,19.117707 23.425891,27.356247 23.425891,39.539027 L 23.425891,320.50387 C 23.425891,332.68661 28.375515,340.9252 36.79782,340.9252 L 453.20218,340.88229 C 461.62449,340.88228 466.57411,332.64373 466.57411,320.46097 L 466.57411,39.496127 C 466.57411,27.313347 461.65573,19.074797 453.23342,19.074797 z "
     style="fill:none;fill-opacity:1;fill-rule:evenodd;stroke:black;stroke-width:12;stroke-linecap:butt;stroke-linejoin:miter;stroke-miterlimit:4;stroke-dasharray:none;stroke-opacity:1"
     id="path3976" />
  <g
     id="g5808"
     transform="translate(-425.4762,-100.3994)">
    <path
       id="text1929"
       d="M 496.23566,221.87033 L 496.23566,169.70569 L 503.58683,169.70569 L 503.58683,221.87033 L 496.23566,221.87033 z M 532.22774,188.00484 C 532.64619,188.63179 532.93339,189.38839 533.08935,190.27463 C 533.24526,191.16094 533.32322,192.04722 533.32325,192.93346 L 533.32325,221.87033 L 525.81456,221.87033 L 525.81456,195.67106 C 525.81454,192.90724 524.58935,191.52532 522.13898,191.52529 C 521.04424,191.52532 520.15797,191.9426 519.48014,192.77713 C 518.8023,193.61172 518.46338,194.57637 518.46339,195.67106 L 518.46339,221.87033 L 510.9547,221.87033 L 510.9547,184.64192 L 518.46339,184.64192 L 518.46339,188.24113 C 520.13251,185.52983 522.45322,184.17416 525.42552,184.17412 C 528.44871,184.17416 530.71611,185.45106 532.22774,188.00484 L 532.22774,188.00484 z M 554.52945,221.87033 L 554.52945,218.03722 C 553.79909,219.28947 552.83445,220.31974 551.63553,221.12805 C 550.43658,221.93636 549.10676,222.34052 547.64609,222.34052 C 544.25691,222.34052 542.11919,221.41486 541.23291,219.56354 C 540.34663,217.71223 539.86451,216.38242 539.78655,215.5741 C 539.70858,214.7658 539.66959,213.68381 539.6696,212.32813 L 539.6696,192.22938 C 539.66959,189.98746 540.4254,188.08443 541.937,186.52029 C 543.4486,184.95621 545.35163,184.17416 547.64609,184.17412 C 549.05426,184.17416 550.37094,184.53893 551.59615,185.26844 C 552.82133,185.99802 553.79909,186.96267 554.52945,188.16237 L 554.52945,169.70569 L 562.03815,169.70569 L 562.03815,221.87033 L 554.52945,221.87033 z M 553.9805,193.32489 C 553.25174,192.07268 552.18327,191.44655 550.77511,191.44652 C 550.04475,191.44655 549.38005,191.64227 548.78099,192.03366 C 548.1819,192.42512 547.77775,192.89451 547.56852,193.44184 C 547.35927,193.98923 547.24192,194.56284 547.21648,195.16268 C 547.19101,195.76258 547.17828,196.21844 547.17829,196.53028 L 547.17829,209.9032 C 547.17828,210.42511 547.19101,210.94701 547.21648,211.4689 C 547.24192,211.99082 547.48935,212.66865 547.95875,213.50241 C 548.42813,214.33619 549.39317,214.75307 550.85387,214.75306 C 552.36546,214.75307 553.35596,214.33619 553.82537,213.50241 C 554.29474,212.66865 554.52944,211.83409 554.52945,210.99872 L 554.52945,209.9032 L 554.52945,196.53028 C 554.52944,196.00841 554.51631,195.47378 554.49007,194.92639 C 554.4638,194.37906 554.29395,193.84523 553.9805,193.32489 L 553.9805,193.32489 z M 583.40665,221.87033 L 583.40665,218.11598 C 582.52036,219.47165 581.54259,220.51466 580.47335,221.245 C 579.40407,221.97534 578.11364,222.34052 576.60205,222.34052 C 575.09044,222.34052 573.66993,221.92323 572.34052,221.08867 C 571.0111,220.25411 570.08544,219.30259 569.56355,218.23413 C 569.04164,217.16567 568.74171,216.29252 568.66374,215.61468 C 568.58577,214.93685 568.54679,213.94556 568.54679,212.6408 L 568.54679,184.64192 L 576.05549,184.64192 L 576.05549,209.82683 C 576.05547,210.39966 576.0686,210.986 576.09487,211.58586 C 576.12111,212.18573 576.40792,212.87669 576.95529,213.65874 C 577.50263,214.4408 578.45415,214.83183 579.80983,214.83182 C 580.48765,214.83183 581.11298,214.64925 581.68581,214.28407 C 582.25861,213.9189 582.66237,213.48889 582.89708,212.99403 C 583.13176,212.49919 583.27536,211.96496 583.32789,211.39134 C 583.38038,210.81773 583.40663,210.29623 583.40665,209.82683 L 583.40665,184.64192 L 590.91534,184.64192 L 590.91534,221.87033 L 583.40665,221.87033 z M 607.03301,215.29963 C 608.18022,215.29963 609.17072,214.93486 610.0045,214.2053 C 610.83825,213.47577 611.25514,212.53738 611.25516,211.39014 C 611.25514,210.03448 610.90349,209.03086 610.20022,208.37927 C 609.49691,207.7277 608.38866,207.14096 606.87548,206.61904 L 605.39093,206.07248 C 603.82681,205.49809 602.52325,204.9372 601.48025,204.38983 C 600.43724,203.84249 599.31627,202.85199 598.11733,201.41833 C 596.91839,199.98472 596.31892,197.91223 596.31892,195.20087 C 596.31892,192.12518 597.38778,189.51847 599.52551,187.38071 C 601.66323,185.24302 604.2962,184.17416 607.42443,184.17412 C 610.29169,184.17416 612.71582,185.26888 614.69684,187.45828 C 616.67781,189.64775 617.66831,192.12439 617.66833,194.88821 L 610.78735,194.88821 C 610.78734,193.79352 610.43529,192.89411 609.73122,192.18999 C 609.02712,191.48594 608.10146,191.13389 606.95425,191.13386 C 605.91202,191.13389 605.052,191.52492 604.37418,192.30694 C 603.69633,193.08903 603.35742,194.02742 603.35743,195.12211 C 603.35742,196.26936 603.69633,197.15603 604.37418,197.78213 C 605.052,198.40828 606.0425,198.95603 607.34567,199.4254 L 609.7706,200.20587 C 611.17876,200.72779 612.28661,201.22344 613.09414,201.69281 C 613.90164,202.16222 614.70955,202.86591 615.51788,203.80388 C 616.32617,204.74189 616.99127,205.83661 617.51319,207.08804 C 618.03507,208.3395 618.29602,209.66931 618.29605,211.07748 C 618.29602,214.10228 617.21403,216.74838 615.05008,219.01578 C 612.88608,221.28319 610.29169,222.41689 607.26691,222.41689 C 605.44184,222.41689 603.60405,221.92164 601.75353,220.93114 C 599.90301,219.94065 598.46937,218.59811 597.45263,216.90352 C 596.43587,215.20894 595.9275,213.29318 595.9275,211.15624 L 602.88724,211.15624 C 602.88723,212.30348 603.29138,213.28085 604.0997,214.08835 C 604.908,214.89588 605.88577,215.29963 607.03301,215.29963 L 607.03301,215.29963 z M 634.4901,214.75306 L 636.21094,214.75306 L 636.21094,221.87033 L 633.86477,221.87033 C 632.45658,221.87033 631.20513,221.72712 630.11043,221.44071 C 629.0157,221.15431 627.94684,220.56757 626.90384,219.68049 C 625.86082,218.79342 625.13088,217.81565 624.714,216.74719 C 624.29711,215.67873 624.08867,214.36244 624.08867,212.79832 L 624.08867,190.50853 L 620.41309,190.50853 L 620.41309,184.64192 L 624.08867,184.64192 L 624.08867,173.38127 L 631.59737,173.38127 L 631.59737,184.64192 L 636.21094,184.64192 L 636.21094,190.50853 L 631.59737,190.50853 L 631.59737,211.4689 C 631.59735,212.71957 631.76681,213.57959 632.10574,214.04897 C 632.44465,214.51837 633.23943,214.75307 634.4901,214.75306 L 634.4901,214.75306 z M 658.99477,184.17412 L 658.99477,191.83795 C 658.63038,191.73455 658.2656,191.65659 657.90045,191.60405 C 657.53526,191.55157 657.19595,191.52532 656.88251,191.52529 C 654.4321,191.52532 652.55533,192.35948 651.25218,194.02779 C 649.94901,195.69614 649.29743,197.70379 649.29744,200.05073 L 649.29744,221.87033 L 641.78875,221.87033 L 641.78875,184.64192 L 649.29744,184.64192 L 649.29744,188.63256 C 650.60059,187.01597 652.20368,185.86874 654.10673,185.19087 C 656.00974,184.51308 657.63908,184.17416 658.99477,184.17412 L 658.99477,184.17412 z M 663.63222,221.87033 L 663.63222,184.64192 L 671.14091,184.64192 L 671.14091,221.87033 L 663.63222,221.87033 z M 663.63222,177.05685 L 663.63222,169.70569 L 671.14091,169.70569 L 671.14091,177.05685 L 663.63222,177.05685 z M 688.08678,214.75306 C 689.18307,214.75307 690.06975,214.41415 690.7468,213.73631 C 691.42382,213.05848 691.84111,212.17221 691.99865,211.07748 L 699.42858,211.07748 L 699.42858,211.93671 C 699.42855,213.08394 699.18073,214.23117 698.68511,215.37839 C 698.18944,216.52562 697.15956,217.97278 695.59547,219.71987 C 694.03134,221.46697 691.58095,222.34052 688.2443,222.34052 C 686.10577,222.34052 684.13711,221.7669 682.33831,220.61967 C 680.53949,219.47245 679.30117,218.20788 678.62334,216.82595 C 677.94551,215.44403 677.5155,214.19258 677.33331,213.0716 C 677.15112,211.95064 677.06003,210.84279 677.06003,209.74806 L 677.06003,195.5923 C 677.06003,192.51661 678.16787,189.84465 680.38357,187.57642 C 682.59925,185.30826 685.24575,184.17416 688.32307,184.17412 C 691.50378,184.17416 694.14988,185.282 696.26137,187.49766 C 698.37282,189.71338 699.42855,192.41159 699.42858,195.5923 L 699.42858,205.91496 L 684.56872,205.91496 L 684.56872,211.4689 C 684.56871,212.25017 684.94661,212.99285 685.70242,213.69693 C 686.45821,214.40103 687.253,214.75307 688.08678,214.75306 L 688.08678,214.75306 z M 688.2443,191.52529 C 687.253,191.52532 686.39258,191.86423 685.66304,192.54204 C 684.93348,193.2199 684.56871,194.41884 684.56872,196.13886 L 684.56872,199.81444 L 691.91989,199.81444 L 691.91989,196.13886 C 691.91987,194.78322 691.63306,193.67537 691.05947,192.81532 C 690.48584,191.95533 689.54745,191.52532 688.2443,191.52529 L 688.2443,191.52529 z M 725.43452,232.11661 C 724.3907,233.68071 723.06089,234.91903 721.44508,235.83158 C 719.82924,236.74409 718.1088,237.20036 716.28375,237.20037 C 713.10301,237.20036 710.37855,236.11837 708.11035,233.9544 C 705.84215,231.79041 704.70805,229.09181 704.70805,225.85857 L 712.21675,225.85857 C 712.21673,226.90237 712.55565,227.78904 713.2335,228.5186 C 713.91132,229.24814 714.7976,229.61291 715.89233,229.61292 C 717.45642,229.61291 718.60365,228.90882 719.33401,227.50065 C 719.54244,226.98034 719.64666,226.14657 719.64667,224.99935 L 719.64667,218.03722 C 718.91631,219.28947 717.92542,220.31974 716.67399,221.12805 C 715.42252,221.93636 714.09271,222.34052 712.68455,222.34052 C 711.17293,222.34052 709.77868,221.93636 708.50178,221.12805 C 707.22487,220.31974 706.31234,219.39408 705.76419,218.35108 C 705.21603,217.30807 704.90297,216.47391 704.825,215.84858 C 704.74703,215.22326 704.70805,214.25822 704.70805,212.95346 L 704.70805,192.30814 C 704.70805,191.36938 704.8254,190.50896 705.0601,189.72688 C 705.29479,188.94485 705.94677,187.81075 707.01603,186.32457 C 708.08529,184.83847 709.94933,184.0954 712.60817,184.09536 C 714.01475,184.0954 715.31791,184.44744 716.51765,185.15149 C 717.71737,185.85562 718.76038,186.83299 719.64667,188.0836 L 719.64667,184.64192 L 727.15536,184.64192 L 727.15536,224.99935 C 727.15534,226.45844 727.03799,227.74847 726.80332,228.86945 C 726.5686,229.99041 726.11233,231.0728 725.43452,232.11661 L 725.43452,232.11661 z M 718.94258,192.93346 C 718.15972,191.88969 717.14297,191.36779 715.89233,191.36776 C 714.43163,191.36779 713.47972,191.7982 713.03659,192.65899 C 712.59344,193.51984 712.34602,194.17181 712.29431,194.61492 C 712.24259,195.05809 712.21673,195.51435 712.21675,195.98372 L 712.21675,210.13949 C 712.21673,210.86984 712.25572,211.45658 712.3337,211.89971 C 712.41165,212.34286 712.71159,212.9292 713.2335,213.65874 C 713.75539,214.3883 714.69338,214.75307 716.04747,214.75306 C 717.66407,214.75307 718.65497,214.2968 719.02015,213.38427 C 719.38531,212.47174 719.56789,211.78078 719.56791,211.31138 C 719.56789,210.842 719.59415,210.45137 719.64667,210.13949 L 719.64667,195.98372 C 719.64666,195.2534 719.60727,194.67979 719.52853,194.26288 C 719.44975,193.84602 719.25444,193.40289 718.94258,192.93346 L 718.94258,192.93346 z M 744.14658,214.75306 C 745.24287,214.75307 746.12955,214.41415 746.8066,213.73631 C 747.48362,213.05848 747.90091,212.17221 748.05845,211.07748 L 755.48838,211.07748 L 755.48838,211.93671 C 755.48835,213.08394 755.24053,214.23117 754.74491,215.37839 C 754.24924,216.52562 753.21936,217.97278 751.65527,219.71987 C 750.09114,221.46697 747.64075,222.34052 744.3041,222.34052 C 742.16557,222.34052 740.19691,221.7669 738.39811,220.61967 C 736.59929,219.47245 735.36097,218.20788 734.68314,216.82595 C 734.00531,215.44403 733.57529,214.19258 733.39311,213.0716 C 733.21092,211.95064 733.11982,210.84279 733.11983,209.74806 L 733.11983,195.5923 C 733.11982,192.51661 734.22767,189.84465 736.44337,187.57642 C 738.65905,185.30826 741.30555,184.17416 744.38286,184.17412 C 747.56358,184.17416 750.20968,185.282 752.32117,187.49766 C 754.43262,189.71338 755.48835,192.41159 755.48838,195.5923 L 755.48838,205.91496 L 740.62852,205.91496 L 740.62852,211.4689 C 740.62851,212.25017 741.00641,212.99285 741.76222,213.69693 C 742.51801,214.40103 743.3128,214.75307 744.14658,214.75306 L 744.14658,214.75306 z M 744.3041,191.52529 C 743.3128,191.52532 742.45238,191.86423 741.72284,192.54204 C 740.99328,193.2199 740.62851,194.41884 740.62852,196.13886 L 740.62852,199.81444 L 747.97968,199.81444 L 747.97968,196.13886 C 747.97967,194.78322 747.69286,193.67537 747.11926,192.81532 C 746.54563,191.95533 745.60725,191.52532 744.3041,191.52529 L 744.3041,191.52529 z M 775.94037,184.17412 C 779.01607,184.17416 781.02332,184.96934 781.96212,186.55967 C 782.90088,188.15007 783.44864,189.40152 783.6054,190.31401 C 783.7621,191.22658 783.84046,192.04722 783.84049,192.77594 L 783.84049,213.18975 C 783.84046,214.49291 783.74897,215.58763 783.56602,216.4739 C 783.38301,217.36018 782.73103,218.55952 781.61008,220.07192 C 780.48908,221.58432 778.57293,222.34052 775.86161,222.34052 C 774.4025,222.34052 773.08621,221.96222 771.91275,221.20562 C 770.73925,220.44902 769.76188,219.41915 768.98063,218.11598 L 768.98063,221.87033 L 761.47194,221.87033 L 761.47194,169.70569 L 768.98063,169.70569 L 768.98063,188.24113 C 770.64816,185.52983 772.96807,184.17416 775.94037,184.17412 L 775.94037,184.17412 z M 772.57745,191.52529 C 771.53523,191.52532 770.67521,191.9426 769.99739,192.77713 C 769.31954,193.61172 768.98062,194.57637 768.98063,195.67106 L 768.98063,210.37339 C 768.98062,211.57314 769.20219,212.61614 769.64534,213.50241 C 770.08847,214.38869 771.06584,214.83183 772.57745,214.83182 C 773.67216,214.83183 774.57156,214.50604 775.27567,213.85445 C 775.97974,213.20288 776.33178,212.45941 776.3318,211.62404 L 776.3318,195.67106 C 776.33178,194.47135 775.99286,193.48045 775.31505,192.69837 C 774.6372,191.91634 773.72467,191.52532 772.57745,191.52529 L 772.57745,191.52529 z M 790.11046,221.87033 L 790.11046,184.64192 L 797.61916,184.64192 L 797.61916,221.87033 L 790.11046,221.87033 z M 790.11046,177.05685 L 790.11046,169.70569 L 797.61916,169.70569 L 797.61916,177.05685 L 790.11046,177.05685 z M 814.56502,214.75306 C 815.66131,214.75307 816.54799,214.41415 817.22504,213.73631 C 817.90207,213.05848 818.31935,212.17221 818.47689,211.07748 L 825.90682,211.07748 L 825.90682,211.93671 C 825.90679,213.08394 825.65897,214.23117 825.16335,215.37839 C 824.66768,216.52562 823.6378,217.97278 822.07371,219.71987 C 820.50958,221.46697 818.05919,222.34052 814.72254,222.34052 C 812.58401,222.34052 810.61535,221.7669 808.81655,220.61967 C 807.01774,219.47245 805.77942,218.20788 805.10159,216.82595 C 804.42375,215.44403 803.99374,214.19258 803.81155,213.0716 C 803.62936,211.95064 803.53827,210.84279 803.53827,209.74806 L 803.53827,195.5923 C 803.53827,192.51661 804.64611,189.84465 806.86181,187.57642 C 809.07749,185.30826 811.72399,184.17416 814.80131,184.17412 C 817.98202,184.17416 820.62812,185.282 822.73961,187.49766 C 824.85106,189.71338 825.90679,192.41159 825.90682,195.5923 L 825.90682,205.91496 L 811.04696,205.91496 L 811.04696,211.4689 C 811.04695,212.25017 811.42485,212.99285 812.18066,213.69693 C 812.93645,214.40103 813.73124,214.75307 814.56502,214.75306 L 814.56502,214.75306 z M 814.72254,191.52529 C 813.73124,191.52532 812.87082,191.86423 812.14128,192.54204 C 811.41172,193.2199 811.04695,194.41884 811.04696,196.13886 L 811.04696,199.81444 L 818.39813,199.81444 L 818.39813,196.13886 C 818.39811,194.78322 818.1113,193.67537 817.53771,192.81532 C 816.96408,191.95533 816.02569,191.52532 814.72254,191.52529 L 814.72254,191.52529 z M 842.99591,214.75306 L 844.71675,214.75306 L 844.71675,221.87033 L 842.37058,221.87033 C 840.96239,221.87033 839.71095,221.72712 838.61624,221.44071 C 837.52151,221.15431 836.45265,220.56757 835.40965,219.68049 C 834.36664,218.79342 833.63669,217.81565 833.21981,216.74719 C 832.80293,215.67873 832.59448,214.36244 832.59449,212.79832 L 832.59449,190.50853 L 828.9189,190.50853 L 828.9189,184.64192 L 832.59449,184.64192 L 832.59449,173.38127 L 840.10318,173.38127 L 840.10318,184.64192 L 844.71675,184.64192 L 844.71675,190.50853 L 840.10318,190.50853 L 840.10318,211.4689 C 840.10317,212.71957 840.27263,213.57959 840.61156,214.04897 C 840.95046,214.51837 841.74524,214.75307 842.99591,214.75306 L 842.99591,214.75306 z "
       style="font-size:78.20877075px;font-style:normal;font-variant:normal;font-weight:normal;font-stretch:normal;text-indent:0;text-align:center;text-decoration:none;line-height:100%;letter-spacing:normal;word-spacing:normal;text-transform:none;direction:ltr;block-progression:tb;writing-mode:lr-tb;text-anchor:middle;color:black;fill:black;fill-opacity:1;fill-rule:nonzero;stroke:none;stroke-width:1;stroke-linecap:round;stroke-linejoin:miter;marker:none;marker-start:none;marker-mid:none;marker-end:none;stroke-miterlimit:4;stroke-dashoffset:0;stroke-opacity:1;visibility:visible;display:inline;overflow:visible;font-family:DIN 1451 Engschrift" />
    <path
       id="path5793"
       d="M 479.98475,295.31578 C 479.98474,296.19763 480.01948,296.85936 480.08895,297.30098 C 480.15841,297.74261 480.50682,298.41639 481.13419,299.32232 C 481.76153,300.22827 482.91096,300.68123 484.58249,300.68123 C 485.51252,300.68123 486.37238,300.48381 487.16207,300.08897 C 487.95174,299.69413 488.5323,299.18304 488.90377,298.55568 C 489.2752,297.92834 489.47262,297.27795 489.49603,296.60451 C 489.51941,295.93109 489.5311,295.47812 489.53112,295.2456 L 489.53112,291.97062 C 489.5311,291.04059 489.49637,290.34342 489.42692,289.87909 C 489.35743,289.4148 489.07849,288.9154 488.59009,288.38089 C 488.10167,287.84642 487.40485,287.35872 486.49963,286.91778 C 485.59439,286.47688 484.01503,285.83819 481.76154,285.0017 C 479.50803,284.16526 477.61463,282.85278 476.08135,281.06428 C 474.54806,279.27582 473.78141,276.8249 473.78142,273.71151 L 473.78142,271.62105 C 473.78141,268.46235 474.83834,265.7332 476.9522,263.43358 C 479.06605,261.13405 481.70234,259.98426 484.86108,259.98421 C 488.06658,259.98426 490.74965,261.11101 492.91031,263.36447 C 495.07093,265.61801 496.15125,268.3702 496.15127,271.62105 L 496.15127,273.71151 L 489.53112,273.71151 L 489.53112,271.62105 C 489.5311,270.97176 489.48467,270.41458 489.39183,269.94953 C 489.29895,269.48455 488.92715,268.81076 488.27642,267.92818 C 487.62566,267.04568 486.534,266.6044 485.00143,266.60436 C 483.65456,266.6044 482.55121,267.08077 481.69136,268.03345 C 480.83149,268.98621 480.40156,270.18207 480.40157,271.62105 L 480.40157,273.71151 C 480.40156,274.59479 480.43665,275.23384 480.50683,275.62865 C 480.577,276.02352 480.82085,276.47649 481.23839,276.98756 C 481.6559,277.49868 482.25986,277.93996 483.05026,278.31138 C 483.84064,278.68285 485.36223,279.27511 487.61504,280.08816 C 489.86782,280.90126 491.85372,282.22543 493.57275,284.06068 C 495.29174,285.89597 496.15125,288.39296 496.15127,291.55167 L 496.15127,295.31578 C 496.15125,296.84837 496.00026,298.19523 495.6983,299.35635 C 495.3963,300.51749 494.45563,302.13194 492.87629,304.19971 C 491.2969,306.26749 488.57909,307.30138 484.72285,307.30138 C 480.72764,307.30138 477.8241,305.9889 476.01224,303.36395 C 474.20036,300.73901 473.29442,298.05629 473.29442,295.31578 L 473.29442,293.64214 L 479.98475,293.64214 L 479.98475,295.31578 z M 520.73068,297.33606 C 520.73065,300.07657 519.73186,302.42258 517.73428,304.37409 C 515.73666,306.32562 513.36691,307.30138 510.62501,307.30138 C 509.1392,307.30138 507.6644,306.91788 506.20058,306.15088 C 504.73676,305.38388 503.6334,304.46625 502.89051,303.39798 C 502.14761,302.32971 501.62517,301.23805 501.3232,300.12299 C 501.02121,299.00795 500.87023,297.86985 500.87023,296.70871 L 500.87023,283.747 C 500.87023,281.00653 501.8109,278.57936 503.69224,276.46547 C 505.57358,274.35165 507.90789,273.29473 510.69518,273.29469 C 513.57602,273.29473 515.96881,274.31656 517.87357,276.36021 C 519.77829,278.40391 520.73065,280.86617 520.73068,283.747 L 514.11053,283.747 C 514.11051,282.72483 513.82023,281.8189 513.23968,281.02919 C 512.6591,280.23953 511.85772,279.84469 510.83554,279.84466 C 510.23157,279.84469 509.70878,279.97229 509.26716,280.22745 C 508.82553,280.48267 508.43069,280.87752 508.08264,281.41198 C 507.73457,281.94649 507.56055,282.72483 507.56056,283.747 L 507.56056,296.70871 C 507.56055,297.91664 507.81609,298.86901 508.3272,299.56582 C 508.83828,300.26265 509.69708,300.61106 510.90359,300.61105 C 511.8804,300.61106 512.6591,300.25095 513.23968,299.53073 C 513.82023,298.81053 514.11051,297.93932 514.11053,296.91712 L 520.73068,296.91712 L 520.73068,297.33606 z M 538.48152,273.29469 C 539.68942,273.29473 540.82787,273.61974 541.89686,274.26974 C 542.96582,274.91981 543.73247,275.67476 544.1968,276.53459 C 544.66109,277.39448 544.95137,278.12639 545.06765,278.73032 C 545.18388,279.3343 545.24201,280.12399 545.24203,281.09937 L 545.24203,306.88244 L 538.5517,306.88244 L 538.5517,283.60664 C 538.55168,282.49232 538.29614,281.58674 537.78506,280.88989 C 537.27395,280.1931 536.46123,279.84469 535.34689,279.84466 C 534.37147,279.84469 533.5701,280.22784 532.94276,280.9941 C 532.3154,281.76041 532.00172,282.63126 532.00173,283.60664 L 532.00173,306.88244 L 525.3114,306.88244 L 525.3114,260.40316 L 532.00173,260.40316 L 532.00173,276.91844 C 533.5343,274.50264 535.69423,273.29473 538.48152,273.29469 L 538.48152,273.29469 z M 551.17103,306.88244 L 551.17103,273.71151 L 557.86136,273.71151 L 557.86136,306.88244 L 551.17103,306.88244 z M 551.17103,266.95313 L 551.17103,260.40316 L 557.86136,260.40316 L 557.86136,266.95313 L 551.17103,266.95313 z M 572.96032,300.54087 C 573.93713,300.54088 574.72717,300.2389 575.33043,299.63493 C 575.93367,299.03098 576.30547,298.2413 576.44584,297.26589 L 583.06599,297.26589 L 583.06599,298.03147 C 583.06597,299.05367 582.84515,300.07586 582.40355,301.09805 C 581.9619,302.12024 581.04427,303.40968 579.65065,304.96636 C 578.25699,306.52304 576.07367,307.30138 573.10068,307.30138 C 571.19522,307.30138 569.44112,306.79028 567.83837,305.76809 C 566.23561,304.7459 565.13225,303.61915 564.52829,302.38784 C 563.92433,301.15653 563.54119,300.04148 563.37886,299.04267 C 563.21653,298.04388 563.13536,297.05678 563.13536,296.08136 L 563.13536,283.46841 C 563.13536,280.72794 564.12246,278.3472 566.09667,276.32618 C 568.07087,274.30522 570.42893,273.29473 573.17085,273.29469 C 576.00491,273.29473 578.36261,274.28183 580.24397,276.256 C 582.1253,278.23024 583.06597,280.63437 583.06599,283.46841 L 583.06599,292.66602 L 569.82569,292.66602 L 569.82569,297.61465 C 569.82568,298.31077 570.1624,298.9725 570.83583,299.59985 C 571.50925,300.2272 572.21741,300.54088 572.96032,300.54087 L 572.96032,300.54087 z M 573.10068,279.84466 C 572.21741,279.84469 571.45077,280.14667 570.80074,280.7506 C 570.1507,281.35459 569.82568,282.42285 569.82569,283.95541 L 569.82569,287.23039 L 576.37566,287.23039 L 576.37566,283.95541 C 576.37565,282.74752 576.1201,281.76041 575.60902,280.9941 C 575.09791,280.22784 574.26179,279.84469 573.10068,279.84466 L 573.10068,279.84466 z M 607.21157,276.70791 C 607.58441,277.26653 607.84031,277.94066 607.97927,278.73032 C 608.11819,279.52003 608.18766,280.30971 608.18768,281.09937 L 608.18768,306.88244 L 601.49735,306.88244 L 601.49735,283.53859 C 601.49734,281.076 600.40568,279.84469 598.22237,279.84466 C 597.24695,279.84469 596.45727,280.21649 595.85332,280.96007 C 595.24935,281.7037 594.94737,282.56321 594.94738,283.53859 L 594.94738,306.88244 L 588.25705,306.88244 L 588.25705,273.71151 L 594.94738,273.71151 L 594.94738,276.91844 C 596.43458,274.50264 598.50236,273.29473 601.15072,273.29469 C 603.84441,273.29473 605.86469,274.43246 607.21157,276.70791 L 607.21157,276.70791 z M 623.31854,300.54087 C 624.29535,300.54088 625.08538,300.2389 625.68865,299.63493 C 626.29188,299.03098 626.66368,298.2413 626.80406,297.26589 L 633.42421,297.26589 L 633.42421,298.03147 C 633.42418,299.05367 633.20337,300.07586 632.76177,301.09805 C 632.32012,302.12024 631.40248,303.40968 630.00886,304.96636 C 628.6152,306.52304 626.43188,307.30138 623.45889,307.30138 C 621.55344,307.30138 619.79933,306.79028 618.19659,305.76809 C 616.59382,304.7459 615.49046,303.61915 614.88651,302.38784 C 614.28255,301.15653 613.8994,300.04148 613.73708,299.04267 C 613.57474,298.04388 613.49358,297.05678 613.49358,296.08136 L 613.49358,283.46841 C 613.49358,280.72794 614.48068,278.3472 616.45489,276.32618 C 618.42909,274.30522 620.78715,273.29473 623.52907,273.29469 C 626.36312,273.29473 628.72083,274.28183 630.60219,276.256 C 632.48351,278.23024 633.42418,280.63437 633.42421,283.46841 L 633.42421,292.66602 L 620.18391,292.66602 L 620.18391,297.61465 C 620.1839,298.31077 620.52061,298.9725 621.19405,299.59985 C 621.86746,300.2272 622.57563,300.54088 623.31854,300.54087 L 623.31854,300.54087 z M 623.45889,279.84466 C 622.57563,279.84469 621.80898,280.14667 621.15896,280.7506 C 620.50891,281.35459 620.1839,282.42285 620.18391,283.95541 L 620.18391,287.23039 L 626.73388,287.23039 L 626.73388,283.95541 C 626.73386,282.74752 626.47831,281.76041 625.96723,280.9941 C 625.45612,280.22784 624.62001,279.84469 623.45889,279.84466 L 623.45889,279.84466 z M 657.56979,276.70791 C 657.94263,277.26653 658.19854,277.94066 658.3375,278.73032 C 658.47641,279.52003 658.54588,280.30971 658.5459,281.09937 L 658.5459,306.88244 L 651.85558,306.88244 L 651.85558,283.53859 C 651.85556,281.076 650.7639,279.84469 648.58059,279.84466 C 647.60517,279.84469 646.81549,280.21649 646.21154,280.96007 C 645.60757,281.7037 645.3056,282.56321 645.30561,283.53859 L 645.30561,306.88244 L 638.61528,306.88244 L 638.61528,273.71151 L 645.30561,273.71151 L 645.30561,276.91844 C 646.79281,274.50264 648.86058,273.29473 651.50894,273.29469 C 654.20263,273.29473 656.22291,274.43246 657.56979,276.70791 L 657.56979,276.70791 z M 665.87209,306.88244 L 665.87209,279.0089 L 662.59711,279.0089 L 662.59711,273.71151 L 665.87209,273.71151 L 665.87209,269.11377 C 665.87209,266.51225 666.52248,264.58412 667.82326,263.32938 C 669.12403,262.07472 670.33195,261.27334 671.44701,260.92524 C 672.56205,260.57723 673.79372,260.4032 675.142,260.40316 L 677.44087,260.40316 L 677.44087,266.53419 L 675.00165,266.53419 C 673.37548,266.53423 672.56241,267.39409 672.56242,269.11377 L 672.56242,273.71151 L 677.44087,273.71151 L 677.44087,279.0089 L 672.56242,279.0089 L 672.56242,306.88244 L 665.87209,306.88244 z M 680.95191,303.39904 C 680.62583,302.84045 680.41636,302.22445 680.3235,301.55101 C 680.23063,300.87759 680.1842,300.12264 680.18421,299.28617 L 680.18421,295.52419 C 680.1842,293.06158 680.79986,291.22632 682.03117,290.01839 C 683.26247,288.81049 684.37753,287.98607 685.37633,287.54513 C 686.37513,287.10424 687.57134,286.88378 688.965,286.88376 L 693.42451,286.88376 L 693.42451,284.02559 C 693.42449,283.37487 693.38976,282.84073 693.3203,282.42318 C 693.25082,282.00568 692.96053,281.47155 692.44945,280.82078 C 691.93834,280.17006 691.24117,279.84469 690.35793,279.84466 C 689.42929,279.84469 688.63961,280.14667 687.98888,280.7506 C 687.33813,281.35459 686.94329,282.14427 686.80436,283.11965 L 680.18421,283.11965 C 680.1842,280.42596 681.14827,278.11505 683.0764,276.18689 C 685.00452,274.25879 687.33884,273.29473 690.07934,273.29469 C 692.77446,273.29473 695.12082,274.24709 697.11843,276.1518 C 699.11601,278.05656 700.11481,280.37918 700.11483,283.11965 L 700.11483,306.88244 L 693.42451,306.88244 L 693.42451,303.53727 C 692.72838,304.6984 691.85753,305.61604 690.81196,306.29017 C 689.76636,306.96431 688.59283,307.30138 687.29135,307.30138 C 684.36512,307.30138 682.25198,306.0006 680.95191,303.39904 L 680.95191,303.39904 z M 686.87453,295.45401 L 686.87453,297.12553 C 686.87453,298.00879 687.1882,298.81053 687.81556,299.53073 C 688.4429,300.25095 689.26696,300.61106 690.28775,300.61105 C 690.84633,300.61106 691.36947,300.47176 691.85719,300.19317 C 692.34488,299.91459 692.71633,299.53145 692.97154,299.04374 C 693.22671,298.55604 693.36601,297.92869 693.38942,297.16168 C 693.41279,296.39469 693.42449,295.84886 693.42451,295.52419 L 693.42451,292.31726 L 690.9151,292.31726 C 689.70717,292.31727 688.73177,292.54978 687.98888,293.01478 C 687.24597,293.47982 686.87453,294.29289 686.87453,295.45401 L 686.87453,295.45401 z M 719.09061,273.29469 C 720.29851,273.29473 721.43695,273.61974 722.50595,274.26974 C 723.57491,274.91981 724.34155,275.67476 724.80588,276.53459 C 725.27017,277.39448 725.56045,278.12639 725.67673,278.73032 C 725.79296,279.3343 725.85109,280.12399 725.85111,281.09937 L 725.85111,306.88244 L 719.16079,306.88244 L 719.16079,283.60664 C 719.16077,282.49232 718.90522,281.58674 718.39414,280.88989 C 717.88303,280.1931 717.07031,279.84469 715.95598,279.84466 C 714.98056,279.84469 714.17918,280.22784 713.55184,280.9941 C 712.92448,281.76041 712.61081,282.63126 712.61081,283.60664 L 712.61081,306.88244 L 705.92049,306.88244 L 705.92049,260.40316 L 712.61081,260.40316 L 712.61081,276.91844 C 714.14338,274.50264 716.30331,273.29473 719.09061,273.29469 L 719.09061,273.29469 z M 747.11087,273.29469 L 747.11087,280.12325 C 746.78619,280.03112 746.46117,279.96165 746.13581,279.91484 C 745.81043,279.86808 745.50809,279.84469 745.22881,279.84466 C 743.04548,279.84469 741.37325,280.58794 740.21213,282.07442 C 739.05099,283.56095 738.47042,285.34978 738.47043,287.44093 L 738.47043,306.88244 L 731.78011,306.88244 L 731.78011,273.71151 L 738.47043,273.71151 L 738.47043,277.26721 C 739.63155,275.82681 741.05993,274.80462 742.75556,274.20063 C 744.45117,273.5967 745.90293,273.29473 747.11087,273.29469 L 747.11087,273.29469 z M 749.84994,306.88244 L 749.84994,301.37663 L 760.51066,279.42572 L 750.61552,279.42572 L 750.61552,273.71151 L 767.96869,273.71151 L 767.96869,278.51978 L 757.30585,300.54087 L 767.96869,300.54087 L 767.96869,306.88244 L 749.84994,306.88244 z M 781.74278,300.54087 C 782.71959,300.54088 783.50962,300.2389 784.11289,299.63493 C 784.71612,299.03098 785.08792,298.2413 785.2283,297.26589 L 791.84845,297.26589 L 791.84845,298.03147 C 791.84842,299.05367 791.62761,300.07586 791.18601,301.09805 C 790.74436,302.12024 789.82672,303.40968 788.4331,304.96636 C 787.03944,306.52304 784.85612,307.30138 781.88313,307.30138 C 779.97768,307.30138 778.22357,306.79028 776.62083,305.76809 C 775.01806,304.7459 773.9147,303.61915 773.31075,302.38784 C 772.70679,301.15653 772.32364,300.04148 772.16132,299.04267 C 771.99898,298.04388 771.91782,297.05678 771.91782,296.08136 L 771.91782,283.46841 C 771.91782,280.72794 772.90492,278.3472 774.87913,276.32618 C 776.85333,274.30522 779.21139,273.29473 781.95331,273.29469 C 784.78736,273.29473 787.14507,274.28183 789.02643,276.256 C 790.90775,278.23024 791.84842,280.63437 791.84845,283.46841 L 791.84845,292.66602 L 778.60815,292.66602 L 778.60815,297.61465 C 778.60814,298.31077 778.94485,298.9725 779.61829,299.59985 C 780.2917,300.2272 780.99987,300.54088 781.74278,300.54087 L 781.74278,300.54087 z M 781.88313,279.84466 C 780.99987,279.84469 780.23322,280.14667 779.5832,280.7506 C 778.93315,281.35459 778.60814,282.42285 778.60815,283.95541 L 778.60815,287.23039 L 785.15812,287.23039 L 785.15812,283.95541 C 785.1581,282.74752 784.90255,281.76041 784.39147,280.9941 C 783.88036,280.22784 783.04425,279.84469 781.88313,279.84466 L 781.88313,279.84466 z M 810.42017,306.88244 L 810.42017,303.53727 C 809.63048,304.74519 808.75927,305.67452 807.80656,306.32526 C 806.85383,306.97601 805.70404,307.30138 804.3572,307.30138 C 803.01033,307.30138 801.74464,306.92958 800.56013,306.18597 C 799.3756,305.44236 798.55083,304.59456 798.08581,303.64254 C 797.62079,302.69053 797.35354,301.91254 797.28408,301.30858 C 797.21461,300.70463 797.17987,299.82137 797.17987,298.65882 L 797.17987,273.71151 L 803.8702,273.71151 L 803.8702,296.15154 C 803.87019,296.66194 803.88189,297.18438 803.90529,297.71886 C 803.92867,298.25335 804.18422,298.86901 804.67194,299.56582 C 805.15963,300.26265 806.00744,300.61106 807.21537,300.61105 C 807.81931,300.61106 808.37648,300.44837 808.88688,300.12299 C 809.39726,299.79763 809.75701,299.41448 809.96614,298.97356 C 810.17524,298.53265 810.30319,298.05664 810.35,297.54554 C 810.39676,297.03445 810.42016,296.56979 810.42017,296.15154 L 810.42017,273.71151 L 817.1105,273.71151 L 817.1105,306.88244 L 810.42017,306.88244 z M 840.87966,316.01199 C 839.9496,317.40562 838.76472,318.50898 837.32502,319.32206 C 835.88529,320.13513 834.35236,320.54166 832.72622,320.54168 C 829.89214,320.54166 827.46462,319.5776 825.44363,317.64948 C 823.42263,315.72134 822.41214,313.31685 822.41214,310.43601 L 829.10247,310.43601 C 829.10246,311.36604 829.40444,312.15608 830.00841,312.80612 C 830.61236,313.45615 831.40204,313.78116 832.37746,313.78117 C 833.77108,313.78116 834.79327,313.15381 835.44403,311.89912 C 835.62974,311.43551 835.7226,310.69262 835.72262,309.67043 L 835.72262,303.46709 C 835.07186,304.58286 834.18896,305.50085 833.07392,306.22106 C 831.95886,306.94127 830.77398,307.30138 829.51929,307.30138 C 828.17242,307.30138 826.93013,306.94127 825.7924,306.22106 C 824.65465,305.50085 823.84158,304.67608 823.35317,303.74674 C 822.86475,302.81742 822.58581,302.07417 822.51635,301.51699 C 822.44687,300.95982 822.41214,300.09996 822.41214,298.93741 L 822.41214,280.54219 C 822.41214,279.70575 822.5167,278.93911 822.72582,278.24226 C 822.93493,277.54547 823.51585,276.53497 824.46858,275.21077 C 825.4213,273.88663 827.08218,273.22455 829.45123,273.22451 C 830.70451,273.22455 831.86564,273.53822 832.93463,274.16554 C 834.00359,274.79292 834.93292,275.66377 835.72262,276.77809 L 835.72262,273.71151 L 842.41295,273.71151 L 842.41295,309.67043 C 842.41293,310.97049 842.30837,312.11993 842.09927,313.11873 C 841.89013,314.11752 841.4836,315.08194 840.87966,316.01199 L 840.87966,316.01199 z M 835.09527,281.09937 C 834.39772,280.16935 833.49179,279.70433 832.37746,279.70431 C 831.07596,279.70433 830.22779,280.08783 829.83296,280.85481 C 829.43811,281.62183 829.21765,282.20275 829.17158,282.59757 C 829.1255,282.99243 829.10246,283.39897 829.10247,283.81718 L 829.10247,296.43013 C 829.10246,297.08088 829.1372,297.60367 829.20667,297.99851 C 829.27613,298.39335 829.54338,298.91579 830.00841,299.56582 C 830.47342,300.21586 831.30918,300.54088 832.51569,300.54087 C 833.9561,300.54088 834.839,300.13434 835.16438,299.32126 C 835.48974,298.50819 835.65243,297.89254 835.65244,297.47429 C 835.65243,297.05607 835.67582,296.70801 835.72262,296.43013 L 835.72262,283.81718 C 835.7226,283.16646 835.68751,282.65536 835.61735,282.28389 C 835.54716,281.91247 835.37313,281.51763 835.09527,281.09937 L 835.09527,281.09937 z M 857.55232,300.54087 C 858.52913,300.54088 859.31916,300.2389 859.92243,299.63493 C 860.52566,299.03098 860.89746,298.2413 861.03784,297.26589 L 867.65799,297.26589 L 867.65799,298.03147 C 867.65796,299.05367 867.43715,300.07586 866.99555,301.09805 C 866.5539,302.12024 865.63626,303.40968 864.24264,304.96636 C 862.84898,306.52304 860.66566,307.30138 857.69267,307.30138 C 855.78721,307.30138 854.03311,306.79028 852.43037,305.76809 C 850.8276,304.7459 849.72424,303.61915 849.12029,302.38784 C 848.51633,301.15653 848.13318,300.04148 847.97086,299.04267 C 847.80852,298.04388 847.72736,297.05678 847.72736,296.08136 L 847.72736,283.46841 C 847.72736,280.72794 848.71446,278.3472 850.68867,276.32618 C 852.66287,274.30522 855.02093,273.29473 857.76285,273.29469 C 860.5969,273.29473 862.95461,274.28183 864.83597,276.256 C 866.71729,278.23024 867.65796,280.63437 867.65799,283.46841 L 867.65799,292.66602 L 854.41769,292.66602 L 854.41769,297.61465 C 854.41768,298.31077 854.75439,298.9725 855.42783,299.59985 C 856.10124,300.2272 856.80941,300.54088 857.55232,300.54087 L 857.55232,300.54087 z M 857.69267,279.84466 C 856.80941,279.84469 856.04276,280.14667 855.39274,280.7506 C 854.74269,281.35459 854.41768,282.42285 854.41769,283.95541 L 854.41769,287.23039 L 860.96766,287.23039 L 860.96766,283.95541 C 860.96764,282.74752 860.71209,281.76041 860.20101,280.9941 C 859.6899,280.22784 858.85379,279.84469 857.69267,279.84466 L 857.69267,279.84466 z "
       style="font-size:69.68489075px;font-style:normal;font-variant:normal;font-weight:normal;font-stretch:normal;text-indent:0;text-align:center;text-decoration:none;line-height:100%;letter-spacing:normal;word-spacing:normal;text-transform:none;direction:ltr;block-progression:tb;writing-mode:lr-tb;text-anchor:middle;color:black;fill:black;fill-opacity:1;fill-rule:nonzero;stroke:none;stroke-width:1;stroke-linecap:round;stroke-linejoin:miter;marker:none;marker-start:none;marker-mid:none;marker-end:none;stroke-miterlimit:4;stroke-dashoffset:0;stroke-opacity:1;visibility:visible;display:inline;overflow:visible;font-family:DIN 1451 Engschrift" />
    <path
       id="path5795"
       d="M 530.85812,343.42718 C 532.06602,343.42722 533.20447,343.75224 534.27346,344.40224 C 535.34242,345.0523 536.10907,345.80725 536.5734,346.66708 C 537.03769,347.52697 537.32797,348.25888 537.44425,348.86281 C 537.56048,349.4668 537.61861,350.25648 537.61863,351.23186 L 537.61863,377.01493 L 530.9283,377.01493 L 530.9283,353.73914 C 530.92828,352.62481 530.67274,351.71923 530.16166,351.02239 C 529.65055,350.32559 528.83783,349.97718 527.72349,349.97716 C 526.74807,349.97718 525.9467,350.36033 525.31936,351.12659 C 524.692,351.89291 524.37832,352.76375 524.37833,353.73914 L 524.37833,377.01493 L 517.688,377.01493 L 517.688,330.53565 L 524.37833,330.53565 L 524.37833,347.05093 C 525.9109,344.63513 528.07083,343.42722 530.85812,343.42718 L 530.85812,343.42718 z M 543.75816,373.53153 C 543.43208,372.97295 543.22261,372.35694 543.12975,371.68351 C 543.03688,371.01008 542.99045,370.25514 542.99046,369.41866 L 542.99046,365.65668 C 542.99045,363.19408 543.60611,361.35881 544.83742,360.15088 C 546.06872,358.94298 547.18378,358.11856 548.18258,357.67763 C 549.18137,357.23673 550.37759,357.01627 551.77124,357.01625 L 556.23075,357.01625 L 556.23075,354.15808 C 556.23074,353.50736 556.196,352.97322 556.12655,352.55568 C 556.05707,352.13818 555.76678,351.60404 555.2557,350.95327 C 554.74459,350.30255 554.04742,349.97718 553.16418,349.97716 C 552.23554,349.97718 551.44586,350.27916 550.79513,350.88309 C 550.14438,351.48708 549.74953,352.27676 549.61061,353.25214 L 542.99046,353.25214 C 542.99045,350.55846 543.95452,348.24754 545.88265,346.31938 C 547.81077,344.39128 550.14508,343.42722 552.88559,343.42718 C 555.5807,343.42722 557.92707,344.37959 559.92468,346.28429 C 561.92226,348.18906 562.92106,350.51167 562.92108,353.25214 L 562.92108,377.01493 L 556.23075,377.01493 L 556.23075,373.66976 C 555.53463,374.8309 554.66378,375.74853 553.61821,376.42267 C 552.57261,377.0968 551.39908,377.43387 550.0976,377.43387 C 547.17137,377.43387 545.05823,376.13309 543.75816,373.53153 L 543.75816,373.53153 z M 549.68078,365.5865 L 549.68078,367.25802 C 549.68077,368.14128 549.99445,368.94302 550.62181,369.66322 C 551.24915,370.38344 552.07321,370.74355 553.094,370.74354 C 553.65258,370.74355 554.17572,370.60426 554.66344,370.32566 C 555.15113,370.04708 555.52258,369.66394 555.77779,369.17623 C 556.03296,368.68853 556.17226,368.06118 556.19567,367.29417 C 556.21904,366.52719 556.23074,365.98136 556.23075,365.65668 L 556.23075,362.44975 L 553.72135,362.44975 C 552.51342,362.44976 551.53802,362.68227 550.79513,363.14728 C 550.05222,363.61231 549.68077,364.42538 549.68078,365.5865 L 549.68078,365.5865 z M 581.68845,343.42718 C 584.42893,343.42722 586.21741,344.13573 587.0539,345.55274 C 587.89035,346.9698 588.3784,348.08485 588.51807,348.8979 C 588.6577,349.711 588.72752,350.4422 588.72755,351.0915 L 588.72755,369.28043 C 588.72752,370.44157 588.646,371.41698 588.48298,372.20665 C 588.31992,372.99634 587.739,374.06496 586.74022,375.41252 C 585.7414,376.76009 584.03409,377.43387 581.61827,377.43387 C 580.31819,377.43387 579.14536,377.0968 578.09979,376.42267 C 577.05419,375.74853 576.18335,374.8309 575.48725,373.66976 L 575.48725,377.01493 L 568.79692,377.01493 L 568.79692,330.53565 L 575.48725,330.53565 L 575.48725,347.05093 C 576.97303,344.63513 579.0401,343.42722 581.68845,343.42718 L 581.68845,343.42718 z M 578.69205,349.97716 C 577.76342,349.97718 576.99713,350.34899 576.39318,351.09256 C 575.78922,351.8362 575.48724,352.6957 575.48725,353.67108 L 575.48725,366.77103 C 575.48724,367.84001 575.68466,368.76934 576.07951,369.55902 C 576.47434,370.34871 577.34519,370.74355 578.69205,370.74354 C 579.66745,370.74355 580.46882,370.45327 581.09619,369.87269 C 581.72353,369.29214 582.0372,368.6297 582.03722,367.88537 L 582.03722,353.67108 C 582.0372,352.60213 581.73522,351.71923 581.13128,351.02239 C 580.52731,350.32559 579.71423,349.97718 578.69205,349.97716 L 578.69205,349.97716 z M 603.58195,370.67336 C 604.55876,370.67337 605.34879,370.37139 605.95206,369.76743 C 606.55529,369.16348 606.92709,368.37379 607.06747,367.39838 L 613.68762,367.39838 L 613.68762,368.16396 C 613.68759,369.18616 613.46678,370.20835 613.02518,371.23054 C 612.58353,372.25273 611.66589,373.54217 610.27227,375.09885 C 608.87861,376.65553 606.69529,377.43387 603.7223,377.43387 C 601.81685,377.43387 600.06274,376.92277 598.46,375.90058 C 596.85723,374.87839 595.75387,373.75164 595.14992,372.52033 C 594.54596,371.28902 594.16281,370.17397 594.00049,369.17516 C 593.83815,368.17637 593.75699,367.18927 593.75699,366.21385 L 593.75699,353.60091 C 593.75699,350.86044 594.74409,348.47969 596.7183,346.45867 C 598.6925,344.43771 601.05056,343.42722 603.79248,343.42718 C 606.62653,343.42722 608.98424,344.41432 610.8656,346.38849 C 612.74692,348.36273 613.68759,350.76686 613.68762,353.60091 L 613.68762,362.79851 L 600.44732,362.79851 L 600.44732,367.74714 C 600.44731,368.44326 600.78402,369.10499 601.45746,369.73234 C 602.13087,370.3597 602.83904,370.67337 603.58195,370.67336 L 603.58195,370.67336 z M 603.7223,349.97716 C 602.83904,349.97718 602.07239,350.27916 601.42237,350.88309 C 600.77232,351.48708 600.44731,352.55535 600.44732,354.0879 L 600.44732,357.36289 L 606.99729,357.36289 L 606.99729,354.0879 C 606.99727,352.88001 606.74172,351.89291 606.23064,351.12659 C 605.71953,350.36033 604.88342,349.97718 603.7223,349.97716 L 603.7223,349.97716 z M 637.83319,346.8404 C 638.20604,347.39902 638.46194,348.07316 638.6009,348.86281 C 638.73982,349.65252 638.80928,350.4422 638.80931,351.23186 L 638.80931,377.01493 L 632.11898,377.01493 L 632.11898,353.67108 C 632.11896,351.20849 631.0273,349.97718 628.84399,349.97716 C 627.86857,349.97718 627.07889,350.34899 626.47495,351.09256 C 625.87098,351.8362 625.569,352.6957 625.56901,353.67108 L 625.56901,377.01493 L 618.87868,377.01493 L 618.87868,343.844 L 625.56901,343.844 L 625.56901,347.05093 C 627.05621,344.63513 629.12398,343.42722 631.77234,343.42718 C 634.46603,343.42722 636.48632,344.56496 637.83319,346.8404 L 637.83319,346.8404 z "
       style="font-size:69.68489075px;font-style:normal;font-variant:normal;font-weight:normal;font-stretch:normal;text-indent:0;text-align:center;text-decoration:none;line-height:100%;letter-spacing:normal;word-spacing:normal;text-transform:none;direction:ltr;block-progression:tb;writing-mode:lr-tb;text-anchor:middle;color:black;fill:black;fill-opacity:1;fill-rule:nonzero;stroke:none;stroke-width:1;stroke-linecap:round;stroke-linejoin:miter;marker:none;marker-start:none;marker-mid:none;marker-end:none;stroke-miterlimit:4;stroke-dashoffset:0;stroke-opacity:1;visibility:visible;display:inline;overflow:visible;font-family:DIN 1451 Engschrift" />
    <path
       id="path5797"
       d="M 671.99693,377.43387 L 662.52074,330.9546 L 669.48753,330.9546 L 674.8551,363.21746 L 680.35878,330.9546 L 687.39787,330.9546 L 677.71115,377.43387 L 671.99693,377.43387 z M 692.42519,347.67829 C 693.40059,346.4704 694.55038,345.52973 695.87456,344.85627 C 697.19872,344.18288 698.62709,343.84616 700.15968,343.84613 C 701.87797,343.84616 703.39921,344.15984 704.7234,344.78716 C 706.04755,345.41454 707.29056,346.4945 708.45242,348.02705 C 709.61423,349.55966 710.19515,351.55726 710.19518,354.01985 L 710.19518,367.26015 C 710.19515,369.76815 709.63763,371.77708 708.52259,373.28698 C 707.40752,374.79687 706.15317,375.93532 704.75955,376.70232 C 703.36589,377.46932 701.94886,377.85282 700.50845,377.85282 C 698.51084,377.85282 696.68727,377.35342 695.03773,376.35462 C 693.38819,375.35582 692.24974,374.24076 691.62239,373.00945 C 690.99504,371.77815 690.61189,370.75596 690.47296,369.94287 C 690.33402,369.12981 690.26455,368.23557 690.26455,367.26015 L 690.26455,354.01985 C 690.26455,351.51047 690.98476,349.39662 692.42519,347.67829 L 692.42519,347.67829 z M 700.29791,350.32592 C 699.27713,350.32595 698.46476,350.67436 697.86081,351.37115 C 697.25685,352.068 696.95487,352.9509 696.95488,354.01985 L 696.95488,367.26015 C 696.95487,368.32914 697.24515,369.24677 697.82573,370.01305 C 698.40628,370.77935 699.23034,371.16249 700.29791,371.16249 C 701.73833,371.16249 702.63292,370.74426 702.9817,369.90779 C 703.33045,369.07133 703.50483,368.142 703.50485,367.11979 L 703.50485,354.01985 C 703.50483,352.99768 703.21455,352.12648 702.634,351.40624 C 702.05342,350.68606 701.27473,350.32595 700.29791,350.32592 L 700.29791,350.32592 z M 730.8531,343.84613 L 730.8531,350.67469 C 730.52842,350.58256 730.20341,350.51309 729.87805,350.46628 C 729.55266,350.41952 729.25033,350.39613 728.97105,350.3961 C 726.78771,350.39613 725.11549,351.13938 723.95437,352.62586 C 722.79323,354.11238 722.21266,355.90122 722.21267,357.99237 L 722.21267,377.43387 L 715.52234,377.43387 L 715.52234,344.26295 L 722.21267,344.26295 L 722.21267,347.81864 C 723.37379,346.37825 724.80217,345.35606 726.4978,344.75207 C 728.1934,344.14814 729.64517,343.84616 730.8531,343.84613 L 730.8531,343.84613 z M 750.31588,343.84613 L 750.31588,350.67469 C 749.9912,350.58256 749.66618,350.51309 749.34083,350.46628 C 749.01544,350.41952 748.71311,350.39613 748.43383,350.3961 C 746.25049,350.39613 744.57826,351.13938 743.41714,352.62586 C 742.256,354.11238 741.67544,355.90122 741.67545,357.99237 L 741.67545,377.43387 L 734.98512,377.43387 L 734.98512,344.26295 L 741.67545,344.26295 L 741.67545,347.81864 C 742.83657,346.37825 744.26494,345.35606 745.96057,344.75207 C 747.65618,344.14814 749.10795,343.84616 750.31588,343.84613 L 750.31588,343.84613 z M 754.65842,373.95048 C 754.33234,373.39189 754.12287,372.77588 754.03001,372.10245 C 753.93714,371.42903 753.89071,370.67408 753.89072,369.83761 L 753.89072,366.07563 C 753.89071,363.61302 754.50637,361.77776 755.73768,360.56982 C 756.96898,359.36192 758.08404,358.53751 759.08284,358.09657 C 760.08163,357.65567 761.27785,357.43521 762.6715,357.43519 L 767.13101,357.43519 L 767.13101,354.57702 C 767.131,353.9263 767.09626,353.39217 767.02681,352.97462 C 766.95733,352.55712 766.66704,352.02299 766.15596,351.37222 C 765.64485,350.7215 764.94768,350.39613 764.06444,350.3961 C 763.1358,350.39613 762.34612,350.69811 761.69539,351.30204 C 761.04464,351.90602 760.64979,352.6957 760.51086,353.67109 L 753.89072,353.67109 C 753.89071,350.9774 754.85478,348.66648 756.78291,346.73832 C 758.71103,344.81023 761.04534,343.84616 763.78585,343.84613 C 766.48096,343.84616 768.82733,344.79853 770.82494,346.70324 C 772.82252,348.608 773.82132,350.93062 773.82134,353.67109 L 773.82134,377.43387 L 767.13101,377.43387 L 767.13101,374.08871 C 766.43489,375.24984 765.56404,376.16748 764.51847,376.84161 C 763.47287,377.51575 762.29934,377.85282 760.99786,377.85282 C 758.07163,377.85282 755.95849,376.55204 754.65842,373.95048 L 754.65842,373.95048 z M 760.58104,366.00545 L 760.58104,367.67697 C 760.58103,368.56023 760.89471,369.36196 761.52207,370.08217 C 762.14941,370.80239 762.97347,371.16249 763.99426,371.16249 C 764.55284,371.16249 765.07598,371.0232 765.5637,370.74461 C 766.05139,370.46603 766.42284,370.08288 766.67805,369.59517 C 766.93322,369.10748 767.07252,368.48013 767.09593,367.71312 C 767.1193,366.94613 767.131,366.4003 767.13101,366.07563 L 767.13101,362.86869 L 764.62161,362.86869 C 763.41368,362.86871 762.43828,363.10122 761.69539,363.56622 C 760.95248,364.03126 760.58103,364.84433 760.58104,366.00545 L 760.58104,366.00545 z M 798.51134,347.25935 C 798.88418,347.81797 799.14008,348.4921 799.27904,349.28176 C 799.41796,350.07147 799.48743,350.86115 799.48745,351.6508 L 799.48745,377.43387 L 792.79712,377.43387 L 792.79712,354.09003 C 792.79711,351.62744 791.70545,350.39613 789.52214,350.3961 C 788.54672,350.39613 787.75704,350.76793 787.15309,351.51151 C 786.54912,352.25514 786.24714,353.11465 786.24715,354.09003 L 786.24715,377.43387 L 779.55683,377.43387 L 779.55683,344.26295 L 786.24715,344.26295 L 786.24715,347.46988 C 787.73435,345.05408 789.80213,343.84616 792.45049,343.84613 C 795.14418,343.84616 797.16446,344.9839 798.51134,347.25935 L 798.51134,347.25935 z M 823.26087,386.56343 C 822.33081,387.95706 821.14594,389.06041 819.70624,389.8735 C 818.2665,390.68656 816.73357,391.0931 815.10743,391.09312 C 812.27336,391.0931 809.84583,390.12904 807.82484,388.20092 C 805.80385,386.27278 804.79335,383.86829 804.79336,380.98744 L 811.48368,380.98744 C 811.48368,381.91748 811.78565,382.70752 812.38962,383.35756 C 812.99357,384.00758 813.78325,384.3326 814.75867,384.33261 C 816.1523,384.3326 817.17449,383.70525 817.82525,382.45056 C 818.01096,381.98695 818.10382,381.24405 818.10383,380.22186 L 818.10383,374.01853 C 817.45308,375.1343 816.57018,376.05228 815.45514,376.7725 C 814.34007,377.49271 813.15519,377.85282 811.9005,377.85282 C 810.55364,377.85282 809.31134,377.49271 808.17361,376.7725 C 807.03587,376.05228 806.22279,375.22751 805.73438,374.29818 C 805.24597,373.36885 804.96703,372.6256 804.89756,372.06843 C 804.82809,371.51126 804.79335,370.6514 804.79336,369.48884 L 804.79336,351.09363 C 804.79335,350.25719 804.89791,349.49055 805.10703,348.7937 C 805.31615,348.09691 805.89707,347.08641 806.84979,345.76221 C 807.80251,344.43807 809.46339,343.77599 811.83245,343.77595 C 813.08572,343.77599 814.24685,344.08966 815.31584,344.71698 C 816.38481,345.34436 817.31414,346.21521 818.10383,347.32952 L 818.10383,344.26295 L 824.79416,344.26295 L 824.79416,380.22186 C 824.79414,381.52193 824.68958,382.67136 824.48049,383.67017 C 824.27135,384.66896 823.86481,385.63338 823.26087,386.56343 L 823.26087,386.56343 z M 817.47648,351.6508 C 816.77894,350.72079 815.873,350.25577 814.75867,350.25574 C 813.45717,350.25577 812.60901,350.63927 812.21418,351.40624 C 811.81933,352.17327 811.59887,352.75419 811.5528,353.149 C 811.50671,353.54387 811.48368,353.95041 811.48368,354.36862 L 811.48368,366.98156 C 811.48368,367.63232 811.51841,368.15511 811.58789,368.54994 C 811.65735,368.94479 811.92459,369.46723 812.38962,370.11726 C 812.85463,370.7673 813.69039,371.09232 814.8969,371.09231 C 816.33731,371.09232 817.22021,370.68578 817.5456,369.8727 C 817.87095,369.05963 818.03364,368.44398 818.03366,368.02573 C 818.03364,367.60751 818.05703,367.25945 818.10383,366.98156 L 818.10383,354.36862 C 818.10382,353.7179 818.06873,353.2068 817.99857,352.83533 C 817.92837,352.4639 817.75435,352.06906 817.47648,351.6508 L 817.47648,351.6508 z "
       style="font-size:69.68489075px;font-style:normal;font-variant:normal;font-weight:normal;font-stretch:normal;text-indent:0;text-align:center;text-decoration:none;line-height:100%;letter-spacing:normal;word-spacing:normal;text-transform:none;direction:ltr;block-progression:tb;writing-mode:lr-tb;text-anchor:middle;color:black;fill:black;fill-opacity:1;fill-rule:nonzero;stroke:none;stroke-width:1;stroke-linecap:round;stroke-linejoin:miter;marker:none;marker-start:none;marker-mid:none;marker-end:none;stroke-miterlimit:4;stroke-dashoffset:0;stroke-opacity:1;visibility:visible;display:inline;overflow:visible;font-family:DIN 1451 Engschrift" />
  </g>
</svg>
