<?xml version="1.0" encoding="UTF-8" standalone="no"?>
<!-- Created with Inkscape (http://www.inkscape.org/) -->
<svg
   xmlns:svg="http://www.w3.org/2000/svg"
   xmlns="http://www.w3.org/2000/svg"
   version="1.0"
   width="490"
   height="270"
   id="svg2">
  <defs
     id="defs4" />
  <path
     d="M 38.78125,4.984375 C 20.356889,4.9843748 9.96875,12.12016 9.96875,33.203125 L 9.65625,236.79688 C 9.65625,257.87984 20.044391,265.01563 38.46875,265.01563 L 451.21875,264.98438 C 469.64311,264.98438 480.03124,257.84859 480.03125,236.76563 L 480.34375,33.234375 C 480.34375,12.15141 469.95561,5.0156248 451.53125,5.015625 L 38.78125,4.984375 z "
     style="fill:white;fill-opacity:1;fill-rule:evenodd;stroke:black;stroke-width:2;stroke-linecap:butt;stroke-linejoin:miter;stroke-miterlimit:4;stroke-dasharray:none;stroke-opacity:1"
     id="path1881" />
  <path
     d="M 453.3125,17.796875 L 36.78125,17.828125 C 28.356999,17.828125 23.40625,23.829135 23.40625,32.703125 L 23.40625,237.35938 C 23.406249,246.23335 28.35701,252.23438 36.78125,252.23438 L 453.28125,252.20313 C 461.70549,252.20312 466.65625,246.20211 466.65625,237.32813 L 466.65625,32.671875 C 466.65625,23.797885 461.73674,17.796875 453.3125,17.796875 z "
     style="fill:none;fill-opacity:1;fill-rule:evenodd;stroke:black;stroke-width:10.05090809;stroke-linecap:butt;stroke-linejoin:miter;stroke-miterlimit:4;stroke-dasharray:none;stroke-opacity:1"
     id="path3976" />
  <path
     d="M 107.3155,111.86412 L 85.559184,45.961923 L 96.098104,45.961923 L 111.11494,96.123583 L 111.29586,96.123583 L 126.3127,45.961923 L 136.85162,45.961923 L 115.0953,111.86412 L 107.3155,111.86412 z M 140.83199,88.343783 C 140.83198,83.308043 141.22399,79.553833 142.00801,77.081153 C 142.79201,74.608533 144.08864,72.377123 145.89791,70.386903 C 147.19453,68.969693 148.98117,67.612743 151.25783,66.316073 C 153.53447,65.019483 156.5122,64.371163 160.19104,64.371113 C 163.80953,64.371163 166.76465,65.019483 169.0564,66.316073 C 171.3481,67.612743 173.14227,68.969693 174.43894,70.386903 C 176.24816,72.377123 177.5448,74.608533 178.32885,77.081153 C 179.11282,79.553833 179.50482,83.308043 179.50487,88.343783 C 179.50482,93.470023 179.11282,97.269463 178.32885,99.742103 C 177.5448,102.21476 176.24816,104.44617 174.43894,106.43635 C 173.14227,107.88376 171.3481,109.2407 169.0564,110.50718 C 166.76465,111.77366 163.80953,112.4069 160.19104,112.4069 C 156.5122,112.4069 153.53447,111.77366 151.25783,110.50718 C 148.98117,109.2407 147.19453,107.88376 145.89791,106.43635 C 144.08864,104.44617 142.79201,102.21476 142.00801,99.742103 C 141.22399,97.269463 140.83198,93.470023 140.83199,88.343783 L 140.83199,88.343783 z M 170.09673,88.434243 C 170.09669,85.026833 169.92331,82.629573 169.57657,81.242443 C 169.22976,79.855373 168.63421,78.528593 167.78992,77.262073 C 166.13141,74.970383 163.59845,73.824523 160.19104,73.824483 C 156.72328,73.824523 154.19032,74.970383 152.59216,77.262073 C 151.68752,78.528593 151.07689,79.855373 150.76029,81.242443 C 150.44365,82.629573 150.28534,84.996683 150.28536,88.343783 C 150.28534,91.781383 150.44365,94.201263 150.76029,95.603423 C 151.07689,97.005613 151.68752,98.324863 152.59216,99.561173 C 154.19032,101.85291 156.72328,102.99877 160.19104,102.99876 C 163.59845,102.99877 166.13141,101.85291 167.78992,99.561173 C 168.63421,98.324863 169.22976,97.013153 169.57657,95.626043 C 169.92331,94.238963 170.09669,91.841693 170.09673,88.434243 L 170.09673,88.434243 z M 189.45579,111.86412 L 189.45579,64.913893 L 198.90916,64.913893 L 198.90916,69.934583 L 199.09008,69.934583 C 202.01503,66.225653 206.08585,64.371163 211.30257,64.371113 C 214.74013,64.371163 218.01186,65.577333 221.11779,67.989633 L 214.28784,76.131293 C 212.23732,74.593463 210.15668,73.824523 208.04591,73.824483 C 205.724,73.824523 203.62074,74.600993 201.73612,76.153903 C 199.85146,77.706883 198.90914,80.202153 198.90916,83.639713 L 198.90916,111.86412 L 189.45579,111.86412 z M 226.95263,111.86412 L 226.95263,72.150923 L 222.20333,72.150923 L 222.20333,64.913893 L 226.95263,64.913893 L 226.95263,58.717183 C 226.95263,54.344873 228.1588,51.125903 230.57115,49.060273 C 232.98348,46.994773 236.02906,45.961993 239.7079,45.961923 L 245.81414,45.961923 L 245.81414,54.827283 L 240.47683,54.827283 C 237.73277,54.827343 236.36076,56.123973 236.36077,58.717183 L 236.36077,64.913893 L 245.81414,64.913893 L 245.81414,72.150923 L 236.36077,72.150923 L 236.36077,111.86412 L 226.95263,111.86412 z M 275.8026,111.86412 L 275.8026,107.70283 L 275.57644,107.70283 C 273.67669,110.83888 269.81694,112.4069 263.99719,112.4069 C 258.75033,112.4069 254.67951,111.04242 251.7847,108.31345 C 248.88989,105.5845 247.44248,102.16953 247.44249,98.068533 C 247.44248,94.359573 248.72404,91.117993 251.28716,88.343783 C 253.85026,85.569613 257.66478,84.182513 262.73071,84.182483 L 275.8026,84.182483 L 275.8026,79.297493 C 275.80257,75.287003 272.59114,73.281753 266.1683,73.281713 C 261.70545,73.281753 258.73525,74.472843 257.25771,76.854993 L 249.83975,71.246293 C 253.12656,66.662893 258.40356,64.371163 265.67075,64.371113 C 271.46035,64.371163 276.16442,65.501953 279.78296,67.763473 C 283.40144,70.025093 285.21069,74.050683 285.21073,79.840273 L 285.21073,111.86412 L 275.8026,111.86412 z M 275.8026,95.399883 L 275.8026,91.962293 L 264.49474,91.962293 C 259.0368,91.962313 256.30784,93.846953 256.30785,97.616223 C 256.30784,99.214413 256.99385,100.60151 258.36588,101.77751 C 259.73788,102.95354 262.02207,103.54155 265.21844,103.54154 C 269.13847,103.54155 271.88251,103.10431 273.45056,102.22983 C 275.01855,101.35536 275.80257,99.078723 275.8026,95.399883 L 275.8026,95.399883 z M 297.46845,111.86412 L 297.46845,45.961923 L 306.92182,45.961923 L 306.92182,69.934583 L 307.10275,69.934583 C 310.02769,66.225653 314.09852,64.371163 319.31523,64.371113 C 322.96387,64.371163 326.48438,65.758263 329.87677,68.532413 C 333.26909,71.306643 334.96527,75.347313 334.96531,80.654433 L 334.96531,111.86412 L 325.51194,111.86412 L 325.51194,83.911093 C 325.51191,80.744933 324.62989,78.272283 322.8659,76.493143 C 321.10185,74.714073 318.90812,73.824523 316.28473,73.824483 C 313.57082,73.824523 311.33186,74.714073 309.56786,76.493143 C 307.80382,78.272283 306.9218,80.744933 306.92182,83.911093 L 306.92182,111.86412 L 297.46845,111.86412 z M 347.22303,111.86412 L 347.22303,64.913893 L 356.6764,64.913893 L 356.6764,69.934583 L 356.85732,69.934583 C 359.78227,66.225653 363.8531,64.371163 369.06981,64.371113 C 372.50737,64.371163 375.77911,65.577333 378.88504,67.989633 L 372.05509,76.131293 C 370.00456,74.593463 367.92392,73.824523 365.81315,73.824483 C 363.49124,73.824523 361.38799,74.600993 359.50336,76.153903 C 357.6187,77.706883 356.67638,80.202153 356.6764,83.639713 L 356.6764,111.86412 L 347.22303,111.86412 z M 383.77002,64.913893 L 383.77002,50.665993 L 393.22339,50.665993 L 393.22339,64.913893 L 400.09857,64.913893 L 400.09857,72.150923 L 393.22339,72.150923 L 393.22339,99.470713 C 393.22337,101.82275 394.33908,102.99877 396.57052,102.99876 L 400.09857,102.99876 L 400.09857,111.86412 L 395.16834,111.86412 C 391.88151,111.86412 389.16009,110.86903 387.00407,108.87885 C 384.84803,106.88867 383.77001,104.03909 383.77002,100.33011 L 383.77002,72.150923 L 379.06595,72.150923 L 379.06595,64.913893 L 383.77002,64.913893 z M 103.2899,204.45286 L 103.2899,199.6131 C 100.00305,203.23161 95.962384,205.04087 91.167874,205.04087 C 88.092124,205.04087 85.521474,204.43025 83.455914,203.209 C 81.390334,201.98775 79.829854,200.69866 78.774464,199.34171 C 77.417514,197.59277 76.490274,195.73828 75.992734,193.77824 C 75.495184,191.81823 75.246404,187.58155 75.246414,181.06821 C 75.246404,174.55491 75.495184,170.31824 75.992734,168.35818 C 76.490274,166.39819 77.417514,164.52862 78.774464,162.74948 C 79.829854,161.42273 81.390334,160.13364 83.455914,158.88219 C 85.521474,157.63083 88.092124,157.00513 91.167874,157.00509 C 95.751304,157.00513 99.791974,158.85962 103.2899,162.56855 L 103.2899,157.54786 L 112.74327,157.54786 L 112.74327,203.41254 C 112.74323,210.46864 110.6852,215.67025 106.56918,219.01738 C 102.45308,222.36449 97.726404,224.03805 92.389124,224.03807 C 89.373674,224.03805 86.418564,223.31435 83.523764,221.86696 C 80.628944,220.41954 78.141214,218.51982 76.060574,216.1678 L 83.388074,210.33295 C 84.533924,211.4788 85.898404,212.4739 87.481514,213.31822 C 89.064594,214.16253 90.760774,214.58469 92.570054,214.5847 C 95.706074,214.58469 98.276724,213.71022 100.28201,211.96128 C 102.28724,210.21233 103.28987,207.70952 103.2899,204.45286 L 103.2899,204.45286 z M 84.699784,181.06821 C 84.699764,184.83752 84.797774,187.34032 84.993784,188.57663 C 85.189774,189.81297 85.709934,190.95883 86.554274,192.01422 C 87.187494,192.85855 88.122274,193.67271 89.358624,194.45672 C 90.594924,195.24074 92.162944,195.63274 94.062694,195.63273 C 95.902074,195.63274 97.432404,195.24074 98.653684,194.45672 C 99.874904,193.67271 100.81722,192.85855 101.48064,192.01422 C 102.29477,190.95883 102.79986,189.81297 102.99589,188.57663 C 103.19186,187.34032 103.28987,184.83752 103.2899,181.06821 C 103.28987,177.29895 103.19186,174.79615 102.99589,173.55979 C 102.79986,172.3235 102.29477,171.16256 101.48064,170.07697 C 100.81722,169.26284 99.874904,168.45621 98.653684,167.65709 C 97.432404,166.85804 95.902074,166.45849 94.062694,166.45846 C 92.162944,166.45849 90.594924,166.85804 89.358624,167.65709 C 88.122274,168.45621 87.187494,169.26284 86.554274,170.07697 C 85.709934,171.16256 85.189774,172.3235 84.993784,173.55979 C 84.797774,174.79615 84.699764,177.29895 84.699784,181.06821 L 84.699784,181.06821 z M 161.41229,184.59626 L 132.19279,184.59626 C 132.19277,188.45603 133.24063,191.35084 135.33637,193.2807 C 137.43207,195.21058 140.10827,196.17552 143.36495,196.17551 C 147.25483,196.17552 150.69241,194.6678 153.67772,191.65237 L 160.50766,197.48722 C 158.18574,200.20111 155.56986,202.13852 152.66001,203.29946 C 149.75009,204.4604 146.71205,205.04087 143.54588,205.04087 C 138.72117,205.04087 134.04726,203.48039 129.52413,200.35942 C 125.00098,197.23846 122.73941,190.85329 122.73942,181.2039 C 122.73941,172.06719 124.82759,165.74987 129.00397,162.25193 C 133.18032,158.75408 137.54515,157.00513 142.09847,157.00509 C 147.25483,157.00513 151.76289,158.79177 155.62267,162.36501 C 159.48238,165.93833 161.41225,170.75548 161.41229,176.81646 L 161.41229,184.59626 z M 132.19279,176.81646 L 152.00415,176.81646 C 151.85335,173.28843 150.85826,170.58963 149.01888,168.72003 C 147.17944,166.8505 144.87264,165.91572 142.09847,165.91568 C 139.2941,165.91572 136.96468,166.8505 135.11021,168.72003 C 133.25571,170.58963 132.28323,173.28843 132.19279,176.81646 L 132.19279,176.81646 z M 196.01434,204.49809 L 196.01434,200.3368 L 195.78818,200.3368 C 193.88843,203.47285 190.02869,205.04087 184.20894,205.04087 C 178.96208,205.04087 174.89125,203.67639 171.99645,200.94743 C 169.10163,198.21847 167.65423,194.8035 167.65423,190.70251 C 167.65423,186.99355 168.93578,183.75196 171.4989,180.97775 C 174.06201,178.20358 177.87652,176.81648 182.94246,176.81646 L 196.01434,176.81646 L 196.01434,171.93146 C 196.01431,167.92098 192.80288,165.91572 186.38005,165.91568 C 181.91719,165.91572 178.947,167.10681 177.46945,169.48896 L 170.0515,163.88026 C 173.33831,159.29686 178.6153,157.00513 185.8825,157.00509 C 191.6721,157.00513 196.37616,158.13592 199.99471,160.39744 C 203.61318,162.65906 205.42244,166.68465 205.42248,172.47424 L 205.42248,204.49809 L 196.01434,204.49809 z M 196.01434,188.03385 L 196.01434,184.59626 L 184.70648,184.59626 C 179.24854,184.59628 176.51958,186.48092 176.51959,190.25019 C 176.51958,191.84838 177.20559,193.23548 178.57762,194.41148 C 179.94963,195.58751 182.23381,196.17552 185.43018,196.17551 C 189.35022,196.17552 192.09426,195.73828 193.66231,194.8638 C 195.2303,193.98933 196.01431,191.71269 196.01434,188.03385 L 196.01434,188.03385 z M 191.53643,150.2656 L 191.53643,140.26946 L 201.53258,140.26946 L 201.53258,150.2656 L 191.53643,150.2656 z M 175.25311,150.2656 L 175.25311,140.26946 L 185.24926,140.26946 L 185.24926,150.2656 L 175.25311,150.2656 z M 217.68019,204.49809 L 217.68019,157.54786 L 227.13356,157.54786 L 227.13356,162.56855 L 227.31449,162.56855 C 230.23944,158.85962 234.31026,157.00513 239.52698,157.00509 C 243.17562,157.00513 246.69613,158.39223 250.08852,161.16638 C 253.48083,163.94061 255.17701,167.98128 255.17705,173.2884 L 255.17705,204.49809 L 245.72368,204.49809 L 245.72368,176.54507 C 245.72365,173.3789 244.84164,170.90625 243.07765,169.12711 C 241.31359,167.34805 239.11987,166.45849 236.49647,166.45846 C 233.78256,166.45849 231.54361,167.34805 229.7796,169.12711 C 228.01556,170.90625 227.13355,173.3789 227.13356,176.54507 L 227.13356,204.49809 L 217.68019,204.49809 z M 295.47826,204.49809 L 295.47826,199.6131 C 292.19141,203.23161 288.15074,205.04087 283.35624,205.04087 C 280.46141,205.04087 277.97368,204.47548 275.89305,203.34469 C 273.81239,202.21391 272.10868,200.75897 270.7819,198.97986 C 269.4551,197.32138 268.56555,195.35381 268.11324,193.07716 C 267.66092,190.80052 267.43477,186.76739 267.43477,180.97775 C 267.43477,175.24846 267.66092,171.26056 268.11324,169.01403 C 268.56555,166.76758 269.4551,164.80001 270.7819,163.11133 C 272.10868,161.36242 273.81239,159.90748 275.89305,158.7465 C 277.97368,157.5856 280.46141,157.00513 283.35624,157.00509 C 285.76856,157.00513 287.95474,157.51776 289.9148,158.54296 C 291.87479,159.56825 293.72928,160.91011 295.47826,162.56855 L 295.47826,138.59589 L 304.93163,138.59589 L 304.93163,204.49809 L 295.47826,204.49809 z M 286.25105,166.45846 C 281.78819,166.45849 279.112,167.98128 278.22247,171.02683 C 277.3329,174.07245 276.88813,177.38941 276.88814,180.97775 C 276.88813,184.65659 277.3329,188.01879 278.22247,191.06436 C 279.112,194.10995 281.78819,195.63274 286.25105,195.63273 C 290.62339,195.63274 293.25435,194.04964 294.14393,190.88343 C 295.03345,187.71725 295.47823,184.41536 295.47826,180.97775 C 295.47823,177.63065 295.03345,174.37399 294.14393,171.20776 C 293.25435,168.04159 290.62339,166.45849 286.25105,166.45846 L 286.25105,166.45846 z M 351.9271,184.59626 L 322.70759,184.59626 C 322.70758,188.45603 323.75544,191.35084 325.85118,193.2807 C 327.94688,195.21058 330.62307,196.17552 333.87975,196.17551 C 337.76963,196.17552 341.20722,194.6678 344.19252,191.65237 L 351.02247,197.48722 C 348.70055,200.20111 346.08467,202.13852 343.17481,203.29946 C 340.26489,204.4604 337.22685,205.04087 334.06068,205.04087 C 329.23597,205.04087 324.56206,203.48039 320.03894,200.35942 C 315.51579,197.23846 313.25422,190.85329 313.25422,181.2039 C 313.25422,172.06719 315.3424,165.74987 319.51877,162.25193 C 323.69513,158.75408 328.05996,157.00513 332.61327,157.00509 C 337.76963,157.00513 342.27769,158.79177 346.13747,162.36501 C 349.99718,165.93833 351.92706,170.75548 351.9271,176.81646 L 351.9271,184.59626 z M 322.70759,176.81646 L 342.51896,176.81646 C 342.36815,173.28843 341.37306,170.58963 339.53368,168.72003 C 337.69424,166.8505 335.38744,165.91572 332.61327,165.91568 C 329.80891,165.91572 327.47949,166.8505 325.62502,168.72003 C 323.77051,170.58963 322.79804,173.28843 322.70759,176.81646 L 322.70759,176.81646 z M 361.87801,204.49809 L 361.87801,157.54786 L 371.33138,157.54786 L 371.33138,162.56855 L 371.51231,162.56855 C 374.43725,158.85962 378.50808,157.00513 383.7248,157.00509 C 387.16236,157.00513 390.43409,158.2113 393.54002,160.6236 L 386.71007,168.76526 C 384.65955,167.22743 382.57891,166.45849 380.46813,166.45846 C 378.14623,166.45849 376.04297,167.23497 374.15834,168.78788 C 372.27368,170.34086 371.33136,172.83612 371.33138,176.27368 L 371.33138,204.49809 L 361.87801,204.49809 z M 398.42503,157.54786 L 398.42503,143.29996 L 407.8784,143.29996 L 407.8784,157.54786 L 414.75358,157.54786 L 414.75358,164.78489 L 407.8784,164.78489 L 407.8784,192.10468 C 407.87839,194.45673 408.99409,195.63274 411.22553,195.63273 L 414.75358,195.63273 L 414.75358,204.49809 L 409.82335,204.49809 C 406.53652,204.49809 403.8151,203.503 401.65908,201.51282 C 399.50304,199.52264 398.42503,196.67306 398.42503,192.96408 L 398.42503,164.78489 L 393.72096,164.78489 L 393.72096,157.54786 L 398.42503,157.54786 z "
     style="font-size:92.6339798px;font-style:normal;font-variant:normal;font-weight:normal;font-stretch:normal;text-align:center;line-height:100%;writing-mode:lr-tb;text-anchor:middle;fill:black;fill-opacity:1;stroke:none;stroke-width:1px;stroke-linecap:butt;stroke-linejoin:miter;stroke-opacity:1;font-family:DIN 1451 Mittelschrift"
     id="text3817" />
</svg>
