<?xml version="1.0" encoding="UTF-8" standalone="no"?>
<!-- Created with Inkscape (http://www.inkscape.org/) -->
<svg
   xmlns:svg="http://www.w3.org/2000/svg"
   xmlns="http://www.w3.org/2000/svg"
   version="1.0"
   width="490"
   height="270"
   id="svg2">
  <defs
     id="defs4" />
  <path
     d="M 38.75,4.75 C 20.325639,4.7499998 9.9375,11.885785 9.9375,32.96875 L 9.625,236.5625 C 9.625,257.64547 20.013141,264.78126 38.4375,264.78125 L 451.1875,264.75 C 469.61186,264.75 479.99999,257.61421 480,236.53125 L 480.3125,33 C 480.3125,11.917035 469.92436,4.7812498 451.5,4.78125 L 38.75,4.75 z "
     style="fill:white;fill-opacity:1;fill-rule:evenodd;stroke:black;stroke-width:2;stroke-linecap:butt;stroke-linejoin:miter;stroke-miterlimit:4;stroke-dasharray:none;stroke-opacity:1"
     id="path1892" />
  <path
     d="M 453.28125,17.5625 L 36.75,17.59375 C 28.325749,17.59375 23.375,23.59476 23.375,32.46875 L 23.375,237.125 C 23.374999,245.99898 28.32576,252 36.75,252 L 453.25,251.96875 C 461.67424,251.96874 466.625,245.96774 466.625,237.09375 L 466.625,32.4375 C 466.625,23.56351 461.70549,17.5625 453.28125,17.5625 z "
     style="fill:none;fill-opacity:1;fill-rule:evenodd;stroke:black;stroke-width:10.05090809;stroke-linecap:butt;stroke-linejoin:miter;stroke-miterlimit:4;stroke-dasharray:none;stroke-opacity:1"
     id="path3976" />
  <path
     d="M 59.280214,173.49218 L 59.280214,159.053 L 95.048322,82.532706 L 112.12612,82.532706 L 75.991543,159.053 L 103.84376,159.053 L 103.84376,128.26898 L 119.16247,128.26898 L 119.16247,159.053 L 127.73802,159.053 L 127.73802,173.49218 L 119.16247,173.49218 L 119.16247,189.32396 L 103.84376,189.32396 L 103.84376,173.49218 L 59.280214,173.49218 z M 180.65724,158.61323 L 180.65724,113.24344 C 180.65719,108.11285 179.27679,104.10604 176.51605,101.22301 C 173.75522,98.34015 170.1271,96.898677 165.6317,96.898585 C 161.08736,96.898677 157.44703,98.34015 154.7107,101.22301 C 151.97432,104.10604 150.60614,108.11285 150.60616,113.24344 L 150.60616,158.61323 C 150.60614,163.79279 151.97432,167.81181 154.7107,170.67031 C 157.44703,173.52884 161.08736,174.9581 165.6317,174.95808 C 170.1271,174.9581 173.75522,173.52884 176.51605,170.67031 C 179.27679,167.81181 180.65719,163.79279 180.65724,158.61323 L 180.65724,158.61323 z M 135.28744,159.49278 L 135.28744,112.3639 C 135.28744,102.54241 138.36584,94.956354 144.52265,89.605702 C 150.67944,84.25525 157.71578,81.579974 165.6317,81.579867 C 173.49868,81.579974 180.52281,84.25525 186.7041,89.605702 C 192.88527,94.956354 195.97589,102.54241 195.97595,112.3639 L 195.97595,159.49278 C 195.97589,169.31437 192.88527,176.88821 186.7041,182.21432 C 180.52281,187.54045 173.49868,190.20351 165.6317,190.20351 C 157.71578,190.20351 150.67944,187.54045 144.52265,182.21432 C 138.36584,176.88821 135.28744,169.31437 135.28744,159.49278 L 135.28744,159.49278 z M 252.77982,158.61323 L 252.77982,113.24344 C 252.77977,108.11285 251.39937,104.10604 248.63863,101.22301 C 245.8778,98.34015 242.24969,96.898677 237.75428,96.898585 C 233.20994,96.898677 229.56961,98.34015 226.83328,101.22301 C 224.0969,104.10604 222.72872,108.11285 222.72874,113.24344 L 222.72874,158.61323 C 222.72872,163.79279 224.0969,167.81181 226.83328,170.67031 C 229.56961,173.52884 233.20994,174.9581 237.75428,174.95808 C 242.24969,174.9581 245.8778,173.52884 248.63863,170.67031 C 251.39937,167.81181 252.77977,163.79279 252.77982,158.61323 L 252.77982,158.61323 z M 207.41003,159.49278 L 207.41003,112.3639 C 207.41002,102.54241 210.48842,94.956354 216.64523,89.605702 C 222.80202,84.25525 229.83836,81.579974 237.75428,81.579867 C 245.62127,81.579974 252.64539,84.25525 258.82668,89.605702 C 265.00785,94.956354 268.09847,102.54241 268.09854,112.3639 L 268.09854,159.49278 C 268.09847,169.31437 265.00785,176.88821 258.82668,182.21432 C 252.64539,187.54045 245.62127,190.20351 237.75428,190.20351 C 229.83836,190.20351 222.80202,187.54045 216.64523,182.21432 C 210.48842,176.88821 207.41002,169.31437 207.41003,159.49278 L 207.41003,159.49278 z M 320.72457,189.32396 L 320.72457,113.24344 L 336.04328,113.24344 L 336.04328,121.37922 L 336.33646,121.37922 C 341.17392,115.36908 347.77049,112.36397 356.1262,112.3639 C 361.45227,112.36397 365.67896,113.31681 368.80628,115.22241 C 371.93349,117.12816 374.8653,119.47361 377.60172,122.25876 C 383.61186,115.66226 391.62547,112.36397 401.64258,112.3639 C 407.55497,112.36397 413.25978,114.61169 418.75703,119.10706 C 424.25407,123.60257 427.00264,130.15028 427.00275,138.7502 L 427.00275,189.32396 L 411.68404,189.32396 L 411.68404,144.02747 C 411.68393,138.89685 410.24246,134.89004 407.35961,132.00704 C 404.47657,129.12415 400.90954,127.68268 396.6585,127.68261 C 392.2607,127.68268 388.63258,129.12415 385.77415,132.00704 C 382.91556,134.89004 381.4863,138.89685 381.48637,144.02747 L 381.48637,189.32396 L 366.24095,189.32396 L 366.24095,144.02747 C 366.24089,138.89685 364.79942,134.89004 361.91653,132.00704 C 359.03353,129.12415 355.46649,127.68268 351.21541,127.68261 C 346.81766,127.68268 343.18954,129.12415 340.33106,132.00704 C 337.47251,134.89004 336.04326,138.89685 336.04328,144.02747 L 336.04328,189.32396 L 320.72457,189.32396 z "
     style="font-size:150.10877991px;font-style:normal;font-variant:normal;font-weight:normal;font-stretch:normal;text-align:center;line-height:100%;writing-mode:lr-tb;text-anchor:middle;fill:black;fill-opacity:1;stroke:none;stroke-width:1px;stroke-linecap:butt;stroke-linejoin:miter;stroke-opacity:1;font-family:DIN 1451 Mittelschrift"
     id="text1881" />
</svg>
