<?xml version="1.0" encoding="UTF-8" standalone="no"?>
<!-- Created with Inkscape (http://www.inkscape.org/) -->
<svg
   xmlns:svg="http://www.w3.org/2000/svg"
   xmlns="http://www.w3.org/2000/svg"
   version="1.0"
   width="490"
   height="270"
   id="svg2">
  <defs
     id="defs4" />
  <path
     d="M 38.78125,4.984375 C 20.356889,4.9843748 9.96875,12.12016 9.96875,33.203125 L 9.65625,236.79688 C 9.65625,257.87984 20.044391,265.01563 38.46875,265.01563 L 451.21875,264.98438 C 469.64311,264.98438 480.03124,257.84859 480.03125,236.76563 L 480.34375,33.234375 C 480.34375,12.15141 469.95561,5.0156248 451.53125,5.015625 L 38.78125,4.984375 z "
     style="fill:white;fill-opacity:1;fill-rule:evenodd;stroke:black;stroke-width:2;stroke-linecap:butt;stroke-linejoin:miter;stroke-miterlimit:4;stroke-dasharray:none;stroke-opacity:1"
     id="path1881" />
  <path
     d="M 453.3125,17.796875 L 36.78125,17.828125 C 28.356999,17.828125 23.40625,23.829135 23.40625,32.703125 L 23.40625,237.35938 C 23.406249,246.23335 28.35701,252.23438 36.78125,252.23438 L 453.28125,252.20313 C 461.70549,252.20312 466.65625,246.20211 466.65625,237.32813 L 466.65625,32.671875 C 466.65625,23.797885 461.73674,17.796875 453.3125,17.796875 z "
     style="fill:none;fill-opacity:1;fill-rule:evenodd;stroke:black;stroke-width:10.05090809;stroke-linecap:butt;stroke-linejoin:miter;stroke-miterlimit:4;stroke-dasharray:none;stroke-opacity:1"
     id="path3976" />
  <g
     transform="translate(55.89074,-453.5658)"
     id="g3845">
    <path
       d="M 81.39787,546.53826 L 81.39787,496.06014 L 93.20443,496.06014 C 94.66715,496.0602 96.13026,496.36275 97.59378,496.96781 C 99.05726,497.57297 100.28095,498.36746 101.26485,499.35129 C 102.24871,500.33522 103.08093,501.50848 103.76151,502.87109 C 104.44203,504.23378 104.78231,505.54562 104.78234,506.8066 L 104.78234,514.14644 C 104.78231,516.01415 104.53018,517.67935 104.02595,519.14206 C 103.52167,520.60481 102.65134,521.95438 101.41498,523.19074 C 100.17856,524.42716 98.84132,525.31019 97.40324,525.83983 C 95.96513,526.36951 94.28761,526.63434 92.37067,526.63432 L 88.58759,526.63432 L 88.58759,546.53826 L 81.39787,546.53826 z M 96.68496,518.38451 C 97.13916,517.93033 97.4294,517.45109 97.55567,516.9468 C 97.68191,516.44258 97.74504,515.81245 97.74506,515.05641 L 97.74506,514.14644 L 97.74506,507.56184 C 97.74504,506.14996 97.31623,504.98978 96.45862,504.08131 C 95.60098,503.17291 94.44004,502.7187 92.97578,502.71865 L 88.58759,502.71865 L 88.58759,519.82338 L 92.37067,519.82338 C 93.38071,519.82341 94.201,519.73526 94.83153,519.55893 C 95.46202,519.38266 96.07983,518.99119 96.68496,518.38451 L 96.68496,518.38451 z M 109.39687,542.75517 C 109.04274,542.14852 108.81524,541.47952 108.71439,540.74815 C 108.61354,540.01679 108.56311,539.19689 108.56312,538.28845 L 108.56312,534.20281 C 108.56311,531.52833 109.23174,529.53517 110.56898,528.22331 C 111.90622,526.91149 113.11721,526.01615 114.20195,525.53727 C 115.28667,525.05844 116.58581,524.81902 118.09936,524.81899 L 122.94254,524.81899 L 122.94254,521.71492 C 122.94252,521.00822 122.9048,520.42813 122.82937,519.97466 C 122.75391,519.52124 122.43865,518.94115 121.8836,518.23439 C 121.32852,517.52769 120.57136,517.17432 119.61213,517.1743 C 118.6036,517.17432 117.74598,517.50229 117.03926,518.15818 C 116.33252,518.81412 115.90371,519.67174 115.75283,520.73104 L 108.56312,520.73104 C 108.56311,517.80561 109.61012,515.29587 111.70414,513.20182 C 113.79815,511.10784 116.33329,510.06084 119.30958,510.0608 C 122.23656,510.06084 124.7848,511.09514 126.95428,513.16372 C 129.12372,515.23236 130.20845,517.7548 130.20847,520.73104 L 130.20847,546.53826 L 122.94254,546.53826 L 122.94254,542.90529 C 122.18652,544.16632 121.24075,545.1629 120.10523,545.89504 C 118.96967,546.62717 117.69517,546.99324 116.28172,546.99324 C 113.10374,546.99324 110.80879,545.58055 109.39687,542.75517 L 109.39687,542.75517 z M 115.82905,534.12659 L 115.82905,535.94192 C 115.82904,536.90117 116.1697,537.77188 116.85103,538.55405 C 117.53235,539.33623 118.42731,539.72732 119.53592,539.72731 C 120.14255,539.72732 120.71071,539.57604 121.24038,539.27348 C 121.77003,538.97094 122.17344,538.55483 122.4506,538.02516 C 122.72773,537.4955 122.87901,536.81418 122.90443,535.98118 C 122.92982,535.1482 122.94252,534.55541 122.94254,534.20281 L 122.94254,530.71996 L 120.21724,530.71996 C 118.90539,530.71998 117.84606,530.97249 117.03926,531.47751 C 116.23244,531.98255 115.82904,532.86558 115.82905,534.12659 L 115.82905,534.12659 z M 153.16336,510.0608 L 153.16336,517.47685 C 152.81074,517.3768 152.45776,517.30135 152.10441,517.25051 C 151.75103,517.19973 151.42269,517.17432 151.11938,517.1743 C 148.7482,517.17432 146.9321,517.98152 145.67109,519.59589 C 144.41005,521.21031 143.77953,523.15304 143.77954,525.4241 L 143.77954,546.53826 L 136.51362,546.53826 L 136.51362,510.51348 L 143.77954,510.51348 L 143.77954,514.37509 C 145.04056,512.81077 146.59183,511.70063 148.43334,511.04468 C 150.27483,510.3888 151.8515,510.06084 153.16336,510.0608 L 153.16336,510.0608 z M 157.65086,546.53826 L 157.65086,496.06014 L 164.91679,496.06014 L 164.91679,526.10543 L 173.99805,510.51348 L 181.18776,510.51348 L 172.6354,524.81899 L 182.92918,546.53826 L 174.8318,546.53826 L 168.54975,531.17495 L 164.91679,536.54934 L 164.91679,546.53826 L 157.65086,546.53826 z M 196.53951,539.6511 C 197.60036,539.6511 198.45837,539.32315 199.11354,538.66722 C 199.76867,538.01131 200.17246,537.15369 200.32491,536.09435 L 207.51462,536.09435 L 207.51462,536.9258 C 207.5146,538.03594 207.27479,539.14608 206.79519,540.25621 C 206.31554,541.36635 205.31896,542.76672 203.80544,544.45733 C 202.29188,546.14794 199.92072,546.99324 196.69195,546.99324 C 194.62255,546.99324 192.71754,546.43817 190.9769,545.32804 C 189.23624,544.2179 188.03796,542.99421 187.38204,541.65697 C 186.72612,540.31973 186.31001,539.10874 186.13372,538.024 C 185.95741,536.93928 185.86927,535.86725 185.86927,534.80791 L 185.86927,521.10982 C 185.86927,518.13357 186.94129,515.548 189.08535,513.3531 C 191.2294,511.15827 193.79034,510.06084 196.76816,510.0608 C 199.84604,510.06084 202.40659,511.13286 204.44981,513.27688 C 206.493,515.42097 207.5146,518.03195 207.51462,521.10982 L 207.51462,531.09874 L 193.1352,531.09874 L 193.1352,536.47312 C 193.13519,537.22913 193.50087,537.94779 194.23225,538.62911 C 194.9636,539.31044 195.73269,539.6511 196.53951,539.6511 L 196.53951,539.6511 z M 196.69195,517.1743 C 195.73269,517.17432 194.90009,517.50229 194.19414,518.15818 C 193.48817,518.81412 193.13519,519.9743 193.1352,521.63871 L 193.1352,525.19546 L 200.24869,525.19546 L 200.24869,521.63871 C 200.24868,520.32689 199.97114,519.25487 199.41609,518.42262 C 198.86101,517.59043 197.95296,517.17432 196.69195,517.1743 L 196.69195,517.1743 z M 233.73757,513.76767 C 234.14249,514.37435 234.42041,515.10649 234.57133,515.96408 C 234.7222,516.82173 234.79764,517.67935 234.79767,518.53695 L 234.79767,546.53826 L 227.53174,546.53826 L 227.53174,521.18603 C 227.53172,518.51157 226.34614,517.17432 223.97499,517.1743 C 222.91565,517.17432 222.05803,517.57812 221.40212,518.38567 C 220.74619,519.19328 220.41823,520.12673 220.41824,521.18603 L 220.41824,546.53826 L 213.15231,546.53826 L 213.15231,510.51348 L 220.41824,510.51348 L 220.41824,513.99632 C 222.03339,511.37267 224.27907,510.06084 227.15528,510.0608 C 230.08072,510.06084 232.27482,511.29646 233.73757,513.76767 L 233.73757,513.76767 z "
       style="font-size:75.68021393px;font-style:normal;font-variant:normal;font-weight:normal;font-stretch:normal;text-indent:0;text-align:center;text-decoration:none;line-height:100%;letter-spacing:normal;word-spacing:normal;text-transform:none;direction:ltr;block-progression:tb;writing-mode:lr-tb;text-anchor:middle;color:black;fill:black;fill-opacity:1;fill-rule:nonzero;stroke:none;stroke-width:1;stroke-linecap:round;stroke-linejoin:miter;marker:none;marker-start:none;marker-mid:none;marker-end:none;stroke-miterlimit:4;stroke-dashoffset:0;stroke-opacity:1;visibility:visible;display:inline;overflow:visible;font-family:DIN 1451 Engschrift"
       id="text2111" />
    <path
       d="M 261.46697,546.49739 L 261.46697,510.47261 L 268.7329,510.47261 L 268.7329,546.49739 L 261.46697,546.49739 z M 261.46697,503.13278 L 261.46697,496.01928 L 268.7329,496.01928 L 268.7329,503.13278 L 261.46697,503.13278 z M 295.5748,513.72681 C 295.97972,514.33349 296.25764,515.06562 296.40856,515.92321 C 296.55943,516.78087 296.63487,517.63849 296.6349,518.49608 L 296.6349,546.49739 L 289.36897,546.49739 L 289.36897,521.14517 C 289.36895,518.47071 288.18337,517.13346 285.81222,517.13343 C 284.75288,517.13346 283.89526,517.53725 283.23935,518.34481 C 282.58342,519.15242 282.25546,520.08587 282.25547,521.14517 L 282.25547,546.49739 L 274.98954,546.49739 L 274.98954,510.47261 L 282.25547,510.47261 L 282.25547,513.95546 C 283.87062,511.33181 286.1163,510.01997 288.99251,510.01994 C 291.91795,510.01997 294.11205,511.2556 295.5748,513.72681 L 295.5748,513.72681 z "
       style="font-size:75.68021393px;font-style:normal;font-variant:normal;font-weight:normal;font-stretch:normal;text-indent:0;text-align:center;text-decoration:none;line-height:100%;letter-spacing:normal;word-spacing:normal;text-transform:none;direction:ltr;block-progression:tb;writing-mode:lr-tb;text-anchor:middle;color:black;fill:black;fill-opacity:1;fill-rule:nonzero;stroke:none;stroke-width:1;stroke-linecap:round;stroke-linejoin:miter;marker:none;marker-start:none;marker-mid:none;marker-end:none;stroke-miterlimit:4;stroke-dashoffset:0;stroke-opacity:1;visibility:visible;display:inline;overflow:visible;font-family:DIN 1451 Engschrift"
       id="text2117" />
    <path
       d="M 6.808592,623.18989 C 5.798515,624.70343 4.511697,625.90171 2.948134,626.78475 C 1.384533,627.66776 -0.280285,628.10928 -2.046326,628.10929 C -5.124233,628.10928 -7.760612,627.06227 -9.955472,624.96827 C -12.150343,622.87424 -13.247776,620.26288 -13.247773,617.13418 L -5.981845,617.13418 C -5.981855,618.14423 -5.653895,619.00224 -4.997965,619.70821 C -4.342057,620.41416 -3.484435,620.76714 -2.425096,620.76715 C -0.911569,620.76714 0.198567,620.08582 0.905313,618.72317 C 1.107,618.21968 1.207851,617.41287 1.207868,616.30274 L 1.207868,609.5657 C 0.501121,610.77746 -0.457737,611.77443 -1.66871,612.5566 C -2.879711,613.33878 -4.166529,613.72987 -5.529168,613.72987 C -6.991908,613.72987 -8.341085,613.33878 -9.576701,612.5566 C -10.81233,611.77443 -11.695357,610.8787 -12.225786,609.86941 C -12.756222,608.86013 -13.059161,608.05293 -13.134604,607.44782 C -13.210053,606.84272 -13.247776,605.90888 -13.247773,604.6463 L -13.247773,584.66846 C -13.247776,583.76006 -13.134222,582.92746 -12.907111,582.17066 C -12.680006,581.41392 -12.049107,580.31648 -11.014413,578.87835 C -9.979728,577.44029 -8.17595,576.72125 -5.603074,576.72121 C -4.241975,576.72125 -2.980947,577.06191 -1.819987,577.7432 C -0.659055,578.42456 0.350229,579.37033 1.207868,580.58051 L 1.207868,577.2501 L 8.473797,577.2501 L 8.473797,616.30274 C 8.473772,617.71465 8.360218,618.96298 8.133134,620.04772 C 7.906002,621.13244 7.464488,622.17983 6.808592,623.18989 L 6.808592,623.18989 z M 0.526543,585.27357 C -0.231014,584.26355 -1.214893,583.75852 -2.425096,583.75849 C -3.838569,583.75852 -4.759705,584.17501 -5.188505,585.00797 C -5.617327,585.84099 -5.856753,586.47188 -5.906783,586.90067 C -5.956834,587.32951 -5.981855,587.77102 -5.981845,588.22521 L -5.981845,601.92331 C -5.981855,602.63005 -5.944131,603.19782 -5.868675,603.62662 C -5.793239,604.05544 -5.503003,604.62283 -4.997965,605.32878 C -4.492949,606.03475 -3.585286,606.38773 -2.274974,606.38772 C -0.710636,606.38773 0.248223,605.94622 0.601604,605.06318 C 0.954953,604.18016 1.131635,603.51154 1.131652,603.05731 C 1.131635,602.60311 1.15704,602.22511 1.207868,601.92331 L 1.207868,588.22521 C 1.207851,587.51851 1.169743,586.96344 1.093544,586.56001 C 1.017311,586.15663 0.828311,585.72782 0.526543,585.27357 L 0.526543,585.27357 z M 24.915674,606.38772 C 25.976525,606.38773 26.834532,606.05977 27.489697,605.40384 C 28.144831,604.74793 28.548621,603.89031 28.70107,602.83097 L 35.890783,602.83097 L 35.890783,603.66242 C 35.890759,604.77257 35.650948,605.8827 35.17135,606.99283 C 34.691705,608.10297 33.695123,609.50335 32.181603,611.19395 C 30.668041,612.88456 28.296878,613.72987 25.068106,613.72987 C 22.998714,613.72987 21.0937,613.1748 19.353058,612.06466 C 17.612401,610.95453 16.414117,609.73084 15.758202,608.39359 C 15.102278,607.05635 14.68617,605.84537 14.509875,604.76063 C 14.333575,603.6759 14.245426,602.60388 14.245429,601.54454 L 14.245429,587.84644 C 14.245426,584.87019 15.317454,582.28463 17.461515,580.08973 C 19.605564,577.89489 22.166497,576.79746 25.144322,576.79742 C 28.222201,576.79746 30.78275,577.86949 32.825974,580.01351 C 34.869157,582.1576 35.890759,584.76857 35.890783,587.84644 L 35.890783,597.83536 L 21.511357,597.83536 L 21.511357,603.20975 C 21.511348,603.96576 21.87703,604.68442 22.608406,605.36574 C 23.339761,606.04707 24.108849,606.38773 24.915674,606.38772 L 24.915674,606.38772 z M 25.068106,583.91092 C 24.108849,583.91095 23.276248,584.23891 22.570298,584.8948 C 21.864328,585.55075 21.511348,586.71093 21.511357,588.37533 L 21.511357,591.93208 L 28.624854,591.93208 L 28.624854,588.37533 C 28.624837,587.06352 28.347303,585.99149 27.792252,585.15925 C 27.237168,584.32706 26.32912,583.91095 25.068106,583.91092 L 25.068106,583.91092 z M 41.604677,613.27488 L 41.604677,562.79677 L 48.87061,562.79677 L 48.87061,592.84206 L 57.95186,577.2501 L 65.14157,577.2501 L 56.58921,591.55562 L 66.883,613.27488 L 58.78562,613.27488 L 52.50357,597.91158 L 48.87061,603.28596 L 48.87061,613.27488 L 41.604677,613.27488 z M 80.49333,606.38772 C 81.55418,606.38773 82.41219,606.05977 83.06736,605.40384 C 83.72249,604.74793 84.12628,603.89031 84.27873,602.83097 L 91.46844,602.83097 L 91.46844,603.66242 C 91.46842,604.77257 91.22861,605.8827 90.74901,606.99283 C 90.26936,608.10297 89.27278,609.50335 87.75926,611.19395 C 86.2457,612.88456 83.87454,613.72987 80.64577,613.72987 C 78.57637,613.72987 76.67136,613.1748 74.93072,612.06466 C 73.19006,610.95453 71.99178,609.73084 71.33586,608.39359 C 70.67994,607.05635 70.26383,605.84537 70.08753,604.76063 C 69.91123,603.6759 69.82309,602.60388 69.82309,601.54454 L 69.82309,587.84644 C 69.82309,584.87019 70.89511,582.28463 73.03917,580.08973 C 75.18322,577.89489 77.74416,576.79746 80.72198,576.79742 C 83.79986,576.79746 86.36041,577.86949 88.40363,580.01351 C 90.44682,582.1576 91.46842,584.76857 91.46844,587.84644 L 91.46844,597.83536 L 77.08902,597.83536 L 77.08902,603.20975 C 77.08901,603.96576 77.45469,604.68442 78.18607,605.36574 C 78.91742,606.04707 79.68651,606.38773 80.49333,606.38772 L 80.49333,606.38772 z M 80.64577,583.91092 C 79.68651,583.91095 78.85391,584.23891 78.14796,584.8948 C 77.44199,585.55075 77.08901,586.71093 77.08902,588.37533 L 77.08902,591.93208 L 84.20251,591.93208 L 84.20251,588.37533 C 84.2025,587.06352 83.92496,585.99149 83.36991,585.15925 C 82.81483,584.32706 81.90678,583.91095 80.64577,583.91092 L 80.64577,583.91092 z M 117.69137,580.5043 C 118.0963,581.11098 118.37422,581.84311 118.52513,582.7007 C 118.676,583.55836 118.75145,584.41598 118.75147,585.27357 L 118.75147,613.27488 L 111.48554,613.27488 L 111.48554,587.92266 C 111.48552,585.24819 110.29994,583.91095 107.92879,583.91092 C 106.86945,583.91095 106.01183,584.31474 105.35593,585.12229 C 104.69999,585.9299 104.37203,586.86336 104.37205,587.92266 L 104.37205,613.27488 L 97.10612,613.27488 L 97.10612,577.2501 L 104.37205,577.2501 L 104.37205,580.73294 C 105.9872,578.1093 108.23287,576.79746 111.10908,576.79742 C 114.03452,576.79746 116.22862,578.03308 117.69137,580.5043 L 117.69137,580.5043 z M 145.62802,580.5043 C 146.03294,581.11098 146.31086,581.84311 146.46178,582.7007 C 146.61265,583.55836 146.68809,584.41598 146.68812,585.27357 L 146.68812,613.27488 L 139.42219,613.27488 L 139.42219,587.92266 C 139.42217,585.24819 138.23659,583.91095 135.86544,583.91092 C 134.8061,583.91095 133.94848,584.31474 133.29257,585.12229 C 132.63664,585.9299 132.30868,586.86336 132.30869,587.92266 L 132.30869,613.27488 L 125.04276,613.27488 L 125.04276,577.2501 L 132.30869,577.2501 L 132.30869,580.73294 C 133.92384,578.1093 136.16952,576.79746 139.04573,576.79742 C 141.97117,576.79746 144.16527,578.03308 145.62802,580.5043 L 145.62802,580.5043 z M 151.54285,613.27488 L 151.54285,607.29539 L 163.12076,583.45593 L 152.3743,583.45593 L 152.3743,577.2501 L 171.22045,577.2501 L 171.22045,582.47206 L 159.64023,606.38772 L 171.22045,606.38772 L 171.22045,613.27488 L 151.54285,613.27488 z M 186.17957,606.38772 C 187.24042,606.38773 188.09843,606.05977 188.75359,605.40384 C 189.40872,604.74793 189.81251,603.89031 189.96496,602.83097 L 197.15468,602.83097 L 197.15468,603.66242 C 197.15465,604.77257 196.91484,605.8827 196.43524,606.99283 C 195.9556,608.10297 194.95902,609.50335 193.4455,611.19395 C 191.93193,612.88456 189.56077,613.72987 186.332,613.72987 C 184.26261,613.72987 182.35759,613.1748 180.61695,612.06466 C 178.87629,610.95453 177.67801,609.73084 177.02209,608.39359 C 176.36617,607.05635 175.95006,605.84537 175.77377,604.76063 C 175.59747,603.6759 175.50932,602.60388 175.50932,601.54454 L 175.50932,587.84644 C 175.50932,584.87019 176.58135,582.28463 178.72541,580.08973 C 180.86946,577.89489 183.43039,576.79746 186.40821,576.79742 C 189.48609,576.79746 192.04664,577.86949 194.08987,580.01351 C 196.13305,582.1576 197.15465,584.76857 197.15468,587.84644 L 197.15468,597.83536 L 182.77525,597.83536 L 182.77525,603.20975 C 182.77524,603.96576 183.14092,604.68442 183.8723,605.36574 C 184.60365,606.04707 185.37274,606.38773 186.17957,606.38772 L 186.17957,606.38772 z M 186.332,583.91092 C 185.37274,583.91095 184.54014,584.23891 183.83419,584.8948 C 183.12822,585.55075 182.77524,586.71093 182.77525,588.37533 L 182.77525,591.93208 L 189.88875,591.93208 L 189.88875,588.37533 C 189.88873,587.06352 189.6112,585.99149 189.05614,585.15925 C 188.50106,584.32706 187.59301,583.91095 186.332,583.91092 L 186.332,583.91092 z M 202.86857,613.27488 L 202.86857,577.2501 L 210.13449,577.2501 L 210.13449,613.27488 L 202.86857,613.27488 z M 202.86857,569.91027 L 202.86857,562.79677 L 210.13449,562.79677 L 210.13449,569.91027 L 202.86857,569.91027 z M 237.50761,602.90719 C 237.50759,605.88347 236.42286,608.43132 234.25342,610.55074 C 232.08394,612.67016 229.5103,613.72987 226.5325,613.72987 C 224.91887,613.72987 223.31718,613.31337 221.72743,612.48039 C 220.13766,611.6474 218.93938,610.65082 218.13257,609.49064 C 217.32576,608.33047 216.75837,607.14489 216.43041,605.93389 C 216.10245,604.72291 215.93847,603.4869 215.93847,602.22587 L 215.93847,588.14899 C 215.93847,585.17275 216.96007,582.53675 219.00328,580.241 C 221.04648,577.94532 223.58162,576.79746 226.60872,576.79742 C 229.73741,576.79746 232.33607,577.90721 234.4047,580.12668 C 236.47328,582.34621 237.50759,585.02032 237.50761,588.14899 L 230.3179,588.14899 C 230.31788,587.03888 230.00263,586.05501 229.37213,585.19736 C 228.7416,584.33976 227.87127,583.91095 226.76115,583.91092 C 226.10522,583.91095 225.53745,584.04953 225.05784,584.32665 C 224.5782,584.60382 224.14939,585.03263 223.7714,585.61308 C 223.39339,586.19358 223.20439,587.03888 223.2044,588.14899 L 223.2044,602.22587 C 223.20439,603.53772 223.48193,604.57202 224.037,605.32878 C 224.59206,606.08556 225.52475,606.46395 226.83506,606.46394 C 227.89591,606.46395 228.7416,606.07286 229.37213,605.29067 C 230.00263,604.50851 230.31788,603.56235 230.3179,602.4522 L 237.50761,602.4522 L 237.50761,602.90719 z M 256.78564,576.79742 C 258.09746,576.79746 259.33385,577.15044 260.49482,577.85637 C 261.65574,578.56236 262.48834,579.38226 262.99262,580.31607 C 263.49686,581.24994 263.81211,582.04481 263.9384,582.7007 C 264.06463,583.35665 264.12776,584.21427 264.12778,585.27357 L 264.12778,613.27488 L 256.86185,613.27488 L 256.86185,587.99656 C 256.86184,586.78637 256.5843,585.80288 256.02925,585.04608 C 255.47417,584.28934 254.59152,583.91095 253.38132,583.91092 C 252.32198,583.91095 251.45166,584.32706 250.77034,585.15925 C 250.08901,585.99149 249.74835,586.93726 249.74836,587.99656 L 249.74836,613.27488 L 242.48243,613.27488 L 242.48243,562.79677 L 249.74836,562.79677 L 249.74836,580.73294 C 251.41278,578.1093 253.75854,576.79746 256.78564,576.79742 L 256.78564,576.79742 z M 291.07594,580.5043 C 291.48086,581.11098 291.75878,581.84311 291.9097,582.7007 C 292.06057,583.55836 292.13601,584.41598 292.13604,585.27357 L 292.13604,613.27488 L 284.87011,613.27488 L 284.87011,587.92266 C 284.87009,585.24819 283.68451,583.91095 281.31336,583.91092 C 280.25402,583.91095 279.3964,584.31474 278.74049,585.12229 C 278.08456,585.9299 277.7566,586.86336 277.75661,587.92266 L 277.75661,613.27488 L 270.49068,613.27488 L 270.49068,577.2501 L 277.75661,577.2501 L 277.75661,580.73294 C 279.37176,578.1093 281.61744,576.79746 284.49365,576.79742 C 287.41909,576.79746 289.61319,578.03308 291.07594,580.5043 L 291.07594,580.5043 z M 308.56865,606.38772 C 309.6295,606.38773 310.48751,606.05977 311.14267,605.40384 C 311.79781,604.74793 312.2016,603.89031 312.35405,602.83097 L 319.54376,602.83097 L 319.54376,603.66242 C 319.54374,604.77257 319.30392,605.8827 318.82433,606.99283 C 318.34468,608.10297 317.3481,609.50335 315.83458,611.19395 C 314.32102,612.88456 311.94985,613.72987 308.72108,613.72987 C 306.65169,613.72987 304.74668,613.1748 303.00603,612.06466 C 301.26538,610.95453 300.06709,609.73084 299.41118,608.39359 C 298.75526,607.05635 298.33915,605.84537 298.16285,604.76063 C 297.98655,603.6759 297.8984,602.60388 297.89841,601.54454 L 297.89841,587.84644 C 297.8984,584.87019 298.97043,582.28463 301.11449,580.08973 C 303.25854,577.89489 305.81947,576.79746 308.7973,576.79742 C 311.87518,576.79746 314.43573,577.86949 316.47895,580.01351 C 318.52213,582.1576 319.54374,584.76857 319.54376,587.84644 L 319.54376,597.83536 L 305.16433,597.83536 L 305.16433,603.20975 C 305.16432,603.96576 305.53001,604.68442 306.26138,605.36574 C 306.99274,606.04707 307.76183,606.38773 308.56865,606.38772 L 308.56865,606.38772 z M 308.72108,583.91092 C 307.76183,583.91095 306.92922,584.23891 306.22328,584.8948 C 305.5173,585.55075 305.16432,586.71093 305.16433,588.37533 L 305.16433,591.93208 L 312.27783,591.93208 L 312.27783,588.37533 C 312.27781,587.06352 312.00028,585.99149 311.44523,585.15925 C 310.89014,584.32706 309.9821,583.91095 308.72108,583.91092 L 308.72108,583.91092 z M 336.08034,606.38772 L 337.74555,606.38772 L 337.74555,613.27488 L 335.47523,613.27488 C 334.11257,613.27488 332.90158,613.13631 331.84227,612.85916 C 330.78293,612.58201 329.74863,612.01424 328.73935,611.15584 C 327.73006,610.29745 327.02372,609.3513 326.62032,608.31737 C 326.21691,607.28346 326.0152,606.00973 326.01521,604.49618 L 326.01521,582.92704 L 322.45846,582.92704 L 322.45846,577.2501 L 326.01521,577.2501 L 326.01521,566.35352 L 333.28114,566.35352 L 333.28114,577.2501 L 337.74555,577.2501 L 337.74555,582.92704 L 333.28114,582.92704 L 333.28114,603.20975 C 333.28112,604.41997 333.4451,605.25219 333.77308,605.7064 C 334.10102,606.16062 334.87011,606.38773 336.08034,606.38772 L 336.08034,606.38772 z M 353.20818,606.38772 C 354.26903,606.38773 355.12704,606.05977 355.7822,605.40384 C 356.43733,604.74793 356.84112,603.89031 356.99357,602.83097 L 364.18329,602.83097 L 364.18329,603.66242 C 364.18326,604.77257 363.94345,605.8827 363.46385,606.99283 C 362.98421,608.10297 361.98763,609.50335 360.47411,611.19395 C 358.96054,612.88456 356.58938,613.72987 353.36061,613.72987 C 351.29122,613.72987 349.3862,613.1748 347.64556,612.06466 C 345.9049,610.95453 344.70662,609.73084 344.0507,608.39359 C 343.39478,607.05635 342.97867,605.84537 342.80238,604.76063 C 342.62608,603.6759 342.53793,602.60388 342.53793,601.54454 L 342.53793,587.84644 C 342.53793,584.87019 343.60996,582.28463 345.75402,580.08973 C 347.89807,577.89489 350.459,576.79746 353.43683,576.79742 C 356.5147,576.79746 359.07525,577.86949 361.11848,580.01351 C 363.16166,582.1576 364.18326,584.76857 364.18329,587.84644 L 364.18329,597.83536 L 349.80386,597.83536 L 349.80386,603.20975 C 349.80385,603.96576 350.16953,604.68442 350.90091,605.36574 C 351.63226,606.04707 352.40135,606.38773 353.20818,606.38772 L 353.20818,606.38772 z M 353.36061,583.91092 C 352.40135,583.91095 351.56875,584.23891 350.8628,584.8948 C 350.15683,585.55075 349.80385,586.71093 349.80386,588.37533 L 349.80386,591.93208 L 356.91736,591.93208 L 356.91736,588.37533 C 356.91734,587.06352 356.63981,585.99149 356.08476,585.15925 C 355.52967,584.32706 354.62162,583.91095 353.36061,583.91092 L 353.36061,583.91092 z M 390.4062,580.5043 C 390.81113,581.11098 391.08904,581.84311 391.23996,582.7007 C 391.39083,583.55836 391.46627,584.41598 391.4663,585.27357 L 391.4663,613.27488 L 384.20037,613.27488 L 384.20037,587.92266 C 384.20035,585.24819 383.01477,583.91095 380.64362,583.91092 C 379.58428,583.91095 378.72666,584.31474 378.07075,585.12229 C 377.41482,585.9299 377.08686,586.86336 377.08687,587.92266 L 377.08687,613.27488 L 369.82095,613.27488 L 369.82095,577.2501 L 377.08687,577.2501 L 377.08687,580.73294 C 378.70203,578.1093 380.9477,576.79746 383.82391,576.79742 C 386.74935,576.79746 388.94345,578.03308 390.4062,580.5043 L 390.4062,580.5043 z "
       style="font-size:75.68021393px;font-style:normal;font-variant:normal;font-weight:normal;font-stretch:normal;text-indent:0;text-align:center;text-decoration:none;line-height:100%;letter-spacing:normal;word-spacing:normal;text-transform:none;direction:ltr;block-progression:tb;writing-mode:lr-tb;text-anchor:middle;color:black;fill:black;fill-opacity:1;fill-rule:nonzero;stroke:none;stroke-width:1;stroke-linecap:round;stroke-linejoin:miter;marker:none;marker-start:none;marker-mid:none;marker-end:none;stroke-miterlimit:4;stroke-dashoffset:0;stroke-opacity:1;visibility:visible;display:inline;overflow:visible;font-family:DIN 1451 Engschrift"
       id="text2121" />
    <path
       d="M 8.984525,680.65736 L 8.984525,630.17925 L 30.477447,630.17925 L 30.477447,636.99019 L 16.098021,636.99019 L 16.098021,652.12485 L 28.736026,652.12485 L 28.736026,658.86188 L 16.098021,658.86188 L 16.098021,680.65736 L 8.984525,680.65736 z M 43.28174,630.17925 L 43.28174,670.28967 C 43.28173,671.4999 43.483432,672.38254 43.886849,672.9376 C 44.29024,673.49267 45.09782,673.77021 46.3096,673.7702 L 46.83849,673.7702 L 46.83849,680.65736 L 45.2495,680.65736 C 44.088541,680.65736 43.003811,680.5311 41.995306,680.27859 C 40.986782,680.02607 39.977883,679.50911 38.968605,678.72771 C 37.959315,677.9463 37.214862,676.9374 36.735244,675.70101 C 36.255619,674.46462 36.015808,673.13969 36.015811,671.72622 L 36.015811,630.17925 L 43.28174,630.17925 z M 51.46919,676.87427 C 51.11505,676.26763 50.88756,675.59862 50.78671,674.86725 C 50.68585,674.13589 50.63543,673.31599 50.63543,672.40755 L 50.63543,668.32191 C 50.63543,665.64743 51.30405,663.65427 52.6413,662.34241 C 53.97854,661.03059 55.18953,660.13525 56.27426,659.65638 C 57.35899,659.17755 58.65812,658.93812 60.17167,658.9381 L 65.01486,658.9381 L 65.01486,655.83403 C 65.01484,655.12732 64.97712,654.54723 64.90169,654.09376 C 64.82622,653.64034 64.51097,653.06025 63.95592,652.35349 C 63.40083,651.64679 62.64368,651.29343 61.68445,651.2934 C 60.67592,651.29343 59.8183,651.62139 59.11158,652.27728 C 58.40484,652.93323 57.97603,653.79085 57.82514,654.85015 L 50.63543,654.85015 C 50.63543,651.92471 51.68244,649.41497 53.77646,647.32093 C 55.87046,645.22695 58.40561,644.17994 61.38189,644.1799 C 64.30888,644.17994 66.85711,645.21424 69.02659,647.28282 C 71.19603,649.35146 72.28076,651.8739 72.28079,654.85015 L 72.28079,680.65736 L 65.01486,680.65736 L 65.01486,677.02439 C 64.25884,678.28543 63.31307,679.28201 62.17754,680.01414 C 61.04199,680.74628 59.76749,681.11234 58.35404,681.11234 C 55.17605,681.11234 52.88111,679.69965 51.46919,676.87427 L 51.46919,676.87427 z M 57.90136,668.24569 L 57.90136,670.06102 C 57.90135,671.02027 58.24201,671.89098 58.92335,672.67315 C 59.60466,673.45533 60.49962,673.84642 61.60823,673.84642 C 62.21487,673.84642 62.78302,673.69515 63.3127,673.39258 C 63.84235,673.09004 64.24575,672.67393 64.52292,672.14426 C 64.80005,671.6146 64.95133,670.93328 64.97675,670.10028 C 65.00214,669.26731 65.01484,668.67452 65.01486,668.32191 L 65.01486,664.83907 L 62.28956,664.83907 C 60.9777,664.83908 59.91838,665.0916 59.11158,665.59661 C 58.30476,666.10165 57.90135,666.98468 57.90136,668.24569 L 57.90136,668.24569 z M 65.66616,637.96714 L 65.66616,629.56721 L 71.9459,629.56721 L 71.9459,637.96714 L 65.66616,637.96714 z M 52.04196,637.96714 L 52.04196,629.56721 L 58.32401,629.56721 L 58.32401,637.96714 L 52.04196,637.96714 z M 99.62618,670.28967 C 99.62615,673.26595 98.54142,675.8138 96.37198,677.93321 C 94.2025,680.05263 91.62887,681.11234 88.65107,681.11234 C 87.03743,681.11234 85.43574,680.69585 83.84599,679.86286 C 82.25623,679.02988 81.05794,678.0333 80.25114,676.87312 C 79.44432,675.71294 78.87693,674.52736 78.54898,673.31637 C 78.22102,672.10539 78.05704,670.86938 78.05704,669.60834 L 78.05704,655.53147 C 78.05704,652.55523 79.07864,649.91923 81.12185,647.62348 C 83.16504,645.3278 85.70019,644.17994 88.72728,644.1799 C 91.85597,644.17994 94.45463,645.28969 96.52326,647.50916 C 98.59185,649.72869 99.62615,652.40279 99.62618,655.53147 L 92.43646,655.53147 C 92.43645,654.42136 92.12119,653.43748 91.49069,652.57983 C 90.86016,651.72224 89.98984,651.29343 88.87972,651.2934 C 88.22378,651.29343 87.65601,651.432 87.1764,651.70912 C 86.69677,651.9863 86.26796,652.41511 85.88997,652.99556 C 85.51196,653.57606 85.32296,654.42136 85.32297,655.53147 L 85.32297,669.60834 C 85.32296,670.92019 85.60049,671.9545 86.15557,672.71126 C 86.71063,673.46804 87.64331,673.84642 88.95362,673.84642 C 90.01447,673.84642 90.86016,673.45533 91.49069,672.67315 C 92.12119,671.89098 92.43645,670.94483 92.43646,669.83468 L 99.62618,669.83468 L 99.62618,670.28967 z M 118.90422,644.1799 C 120.21604,644.17994 121.45243,644.53292 122.6134,645.23884 C 123.77432,645.94484 124.60692,646.76474 125.1112,647.69854 C 125.61544,648.63241 125.93069,649.42729 126.05698,650.08318 C 126.18321,650.73913 126.24634,651.59675 126.24636,652.65605 L 126.24636,680.65736 L 118.98043,680.65736 L 118.98043,655.37904 C 118.98041,654.16885 118.70288,653.18535 118.14783,652.42856 C 117.59275,651.67181 116.7101,651.29343 115.4999,651.2934 C 114.44056,651.29343 113.57024,651.70954 112.88892,652.54172 C 112.20759,653.37397 111.86693,654.31974 111.86694,655.37904 L 111.86694,680.65736 L 104.60101,680.65736 L 104.60101,630.17925 L 111.86694,630.17925 L 111.86694,648.11542 C 113.53136,645.49178 115.87712,644.17994 118.90422,644.1799 L 118.90422,644.1799 z M 142.75059,673.7702 C 143.81144,673.77021 144.66945,673.44225 145.32462,672.78632 C 145.97975,672.13041 146.38354,671.27279 146.53599,670.21345 L 153.7257,670.21345 L 153.7257,671.0449 C 153.72568,672.15504 153.48587,673.26518 153.00627,674.37531 C 152.52662,675.48545 151.53004,676.88582 150.01652,678.57643 C 148.50296,680.26704 146.1318,681.11234 142.90302,681.11234 C 140.83363,681.11234 138.92862,680.55728 137.18798,679.44714 C 135.44732,678.33701 134.24904,677.11332 133.59312,675.77607 C 132.9372,674.43883 132.52109,673.22784 132.34479,672.1431 C 132.16849,671.05838 132.08034,669.98635 132.08035,668.92702 L 132.08035,655.22892 C 132.08034,652.25267 133.15237,649.6671 135.29643,647.4722 C 137.44048,645.27737 140.00142,644.17994 142.97924,644.1799 C 146.05712,644.17994 148.61767,645.25197 150.66089,647.39599 C 152.70408,649.54008 153.72568,652.15105 153.7257,655.22892 L 153.7257,665.21784 L 139.34628,665.21784 L 139.34628,670.59222 C 139.34627,671.34823 139.71195,672.0669 140.44333,672.74821 C 141.17468,673.42954 141.94377,673.77021 142.75059,673.7702 L 142.75059,673.7702 z M 142.90302,651.2934 C 141.94377,651.29343 141.11117,651.62139 140.40522,652.27728 C 139.69925,652.93323 139.34627,654.0934 139.34628,655.75781 L 139.34628,659.31456 L 146.45977,659.31456 L 146.45977,655.75781 C 146.45976,654.446 146.18222,653.37397 145.62717,652.54172 C 145.07209,651.70954 144.16404,651.29343 142.90302,651.2934 L 142.90302,651.2934 z M 179.94864,647.88677 C 180.35356,648.49345 180.63148,649.22559 180.7824,650.08318 C 180.93327,650.94083 181.00871,651.79845 181.00874,652.65605 L 181.00874,680.65736 L 173.74281,680.65736 L 173.74281,655.30513 C 173.74279,652.63067 172.55721,651.29343 170.18606,651.2934 C 169.12672,651.29343 168.2691,651.69722 167.61319,652.50477 C 166.95726,653.31238 166.6293,654.24583 166.62931,655.30513 L 166.62931,680.65736 L 159.36338,680.65736 L 159.36338,644.63258 L 166.62931,644.63258 L 166.62931,648.11542 C 168.24446,645.49178 170.49014,644.17994 173.36635,644.1799 C 176.29179,644.17994 178.48589,645.41556 179.94864,647.88677 L 179.94864,647.88677 z "
       style="font-size:75.68021393px;font-style:normal;font-variant:normal;font-weight:normal;font-stretch:normal;text-indent:0;text-align:center;text-decoration:none;line-height:100%;letter-spacing:normal;word-spacing:normal;text-transform:none;direction:ltr;block-progression:tb;writing-mode:lr-tb;text-anchor:middle;color:black;fill:black;fill-opacity:1;fill-rule:nonzero;stroke:none;stroke-width:1;stroke-linecap:round;stroke-linejoin:miter;marker:none;marker-start:none;marker-mid:none;marker-end:none;stroke-miterlimit:4;stroke-dashoffset:0;stroke-opacity:1;visibility:visible;display:inline;overflow:visible;font-family:DIN 1451 Engschrift"
       id="text2125" />
    <path
       d="M 219.72939,673.7702 C 220.79024,673.77021 221.64825,673.44225 222.30341,672.78632 C 222.95855,672.13041 223.36234,671.27279 223.51479,670.21345 L 230.7045,670.21345 L 230.7045,671.0449 C 230.70447,672.15504 230.46466,673.26518 229.98506,674.37531 C 229.50542,675.48545 228.50884,676.88582 226.99532,678.57643 C 225.48176,680.26704 223.11059,681.11234 219.88182,681.11234 C 217.81243,681.11234 215.90741,680.55728 214.16677,679.44714 C 212.42612,678.33701 211.22783,677.11332 210.57192,675.77607 C 209.91599,674.43883 209.49989,673.22784 209.32359,672.1431 C 209.14729,671.05838 209.05914,669.98635 209.05914,668.92702 L 209.05914,655.22892 C 209.05914,652.25267 210.13117,649.6671 212.27523,647.4722 C 214.41928,645.27737 216.98021,644.17994 219.95804,644.1799 C 223.03592,644.17994 225.59646,645.25197 227.63969,647.39599 C 229.68287,649.54008 230.70447,652.15105 230.7045,655.22892 L 230.7045,665.21784 L 216.32507,665.21784 L 216.32507,670.59222 C 216.32506,671.34823 216.69075,672.0669 217.42212,672.74821 C 218.15348,673.42954 218.92256,673.77021 219.72939,673.7702 L 219.72939,673.7702 z M 219.88182,651.2934 C 218.92256,651.29343 218.08996,651.62139 217.38401,652.27728 C 216.67804,652.93323 216.32506,654.0934 216.32507,655.75781 L 216.32507,659.31456 L 223.43857,659.31456 L 223.43857,655.75781 C 223.43855,654.446 223.16102,653.37397 222.60597,652.54172 C 222.05088,651.70954 221.14284,651.29343 219.88182,651.2934 L 219.88182,651.2934 z M 253.06813,644.1799 L 253.06813,651.59595 C 252.71552,651.4959 252.36254,651.42045 252.00919,651.36961 C 251.65581,651.31883 251.32746,651.29343 251.02416,651.2934 C 248.65297,651.29343 246.83688,652.10062 245.57586,653.71499 C 244.31482,655.32941 243.68431,657.27215 243.68432,659.54321 L 243.68432,680.65736 L 236.41839,680.65736 L 236.41839,644.63258 L 243.68432,644.63258 L 243.68432,648.49419 C 244.94534,646.92987 246.4966,645.81974 248.33812,645.16378 C 250.1796,644.5079 251.75627,644.17994 253.06813,644.1799 L 253.06813,644.1799 z M 264.82157,630.17925 L 264.82157,670.28967 C 264.82156,671.4999 265.02326,672.38254 265.42668,672.9376 C 265.83007,673.49267 266.63765,673.77021 267.84942,673.7702 L 268.37832,673.7702 L 268.37832,680.65736 L 266.78933,680.65736 C 265.62837,680.65736 264.54364,680.5311 263.53514,680.27859 C 262.52661,680.02607 261.51771,679.50911 260.50843,678.72771 C 259.49914,677.9463 258.75469,676.9374 258.27507,675.70101 C 257.79545,674.46462 257.55564,673.13969 257.55564,671.72622 L 257.55564,630.17925 L 264.82157,630.17925 z M 273.00902,676.87427 C 272.65488,676.26763 272.42739,675.59862 272.32654,674.86725 C 272.22568,674.13589 272.17526,673.31599 272.17526,672.40755 L 272.17526,668.32191 C 272.17526,665.64743 272.84388,663.65427 274.18113,662.34241 C 275.51837,661.03059 276.72935,660.13525 277.81409,659.65638 C 278.89881,659.17755 280.19795,658.93812 281.7115,658.9381 L 286.55468,658.9381 L 286.55468,655.83403 C 286.55467,655.12732 286.51694,654.54723 286.44152,654.09376 C 286.36605,653.64034 286.0508,653.06025 285.49574,652.35349 C 284.94066,651.64679 284.1835,651.29343 283.22427,651.2934 C 282.21575,651.29343 281.35813,651.62139 280.65141,652.27728 C 279.94467,652.93323 279.51585,653.79085 279.36497,654.85015 L 272.17526,654.85015 C 272.17526,651.92471 273.22226,649.41497 275.31628,647.32093 C 277.41029,645.22695 279.94544,644.17994 282.92172,644.1799 C 285.84871,644.17994 288.39694,645.21424 290.56642,647.28282 C 292.73586,649.35146 293.82059,651.8739 293.82061,654.85015 L 293.82061,680.65736 L 286.55468,680.65736 L 286.55468,677.02439 C 285.79867,678.28543 284.8529,679.28201 283.71737,680.01414 C 282.58181,680.74628 281.30731,681.11234 279.89387,681.11234 C 276.71588,681.11234 274.42093,679.69965 273.00902,676.87427 L 273.00902,676.87427 z M 279.44119,668.24569 L 279.44119,670.06102 C 279.44118,671.02027 279.78184,671.89098 280.46318,672.67315 C 281.14449,673.45533 282.03945,673.84642 283.14806,673.84642 C 283.75469,673.84642 284.32285,673.69515 284.85253,673.39258 C 285.38217,673.09004 285.78558,672.67393 286.06274,672.14426 C 286.33988,671.6146 286.49115,670.93328 286.51658,670.10028 C 286.54197,669.26731 286.55467,668.67452 286.55468,668.32191 L 286.55468,664.83907 L 283.82938,664.83907 C 282.51753,664.83908 281.45821,665.0916 280.65141,665.59661 C 279.84458,666.10165 279.44118,666.98468 279.44119,668.24569 L 279.44119,668.24569 z M 314.5814,680.65736 L 314.5814,677.02439 C 313.72376,678.33624 312.77761,679.34552 311.74293,680.05225 C 310.70823,680.75898 309.45952,681.11234 307.9968,681.11234 C 306.53406,681.11234 305.15948,680.70855 303.87305,679.90097 C 302.58661,679.09339 301.69088,678.17264 301.18586,677.13872 C 300.68083,676.1048 300.39059,675.25988 300.31515,674.60396 C 300.2397,673.94804 300.20198,672.9888 300.20198,671.72622 L 300.20198,644.63258 L 307.46791,644.63258 L 307.46791,669.00323 C 307.4679,669.55754 307.4806,670.12493 307.50602,670.70539 C 307.53141,671.28587 307.80894,671.9545 308.33862,672.71126 C 308.86827,673.46804 309.78902,673.84642 311.10087,673.84642 C 311.75678,673.84642 312.36189,673.66974 312.9162,673.31637 C 313.47048,672.96301 313.86118,672.5469 314.08831,672.06804 C 314.3154,671.5892 314.45436,671.07224 314.50519,670.51716 C 314.55598,669.9621 314.58139,669.45746 314.5814,669.00323 L 314.5814,644.63258 L 321.84733,644.63258 L 321.84733,680.65736 L 314.5814,680.65736 z M 342.28708,644.1799 C 345.26334,644.17994 347.20569,644.94941 348.11415,646.48832 C 349.02256,648.0273 349.5526,649.23829 349.70429,650.12129 C 349.85593,651.00435 349.93176,651.79845 349.93178,652.50362 L 349.93178,672.25743 C 349.93176,673.51846 349.84322,674.57779 349.66618,675.4354 C 349.48909,676.29303 348.85819,677.45359 347.77348,678.91709 C 346.68873,680.38059 344.83453,681.11234 342.21087,681.11234 C 340.79893,681.11234 339.5252,680.74628 338.38967,680.01414 C 337.25412,679.28201 336.30835,678.28543 335.55236,677.02439 L 335.55236,680.65736 L 328.28643,680.65736 L 328.28643,630.17925 L 335.55236,630.17925 L 335.55236,648.11542 C 337.16597,645.49178 339.41088,644.17994 342.28708,644.1799 L 342.28708,644.1799 z M 339.03289,651.2934 C 338.02436,651.29343 337.19214,651.69722 336.53624,652.50477 C 335.88031,653.31238 335.55235,654.24583 335.55236,655.30513 L 335.55236,669.53213 C 335.55235,670.69308 335.76675,671.70237 336.19557,672.55998 C 336.62437,673.41761 337.57014,673.84642 339.03289,673.84642 C 340.0922,673.84642 340.96253,673.53117 341.64387,672.90064 C 342.32517,672.27014 342.66584,671.55071 342.66585,670.74234 L 342.66585,655.30513 C 342.66584,654.14421 342.33788,653.18535 341.68197,652.42856 C 341.02604,651.67181 340.14301,651.29343 339.03289,651.2934 L 339.03289,651.2934 z M 366.82172,673.7702 L 368.48693,673.7702 L 368.48693,680.65736 L 366.21661,680.65736 C 364.85395,680.65736 363.64296,680.51878 362.58365,680.24163 C 361.52431,679.96449 360.49001,679.39672 359.48073,678.53832 C 358.47144,677.67993 357.7651,676.73378 357.3617,675.69985 C 356.95829,674.66594 356.75658,673.39221 356.75659,671.87866 L 356.75659,650.30952 L 353.19984,650.30952 L 353.19984,644.63258 L 356.75659,644.63258 L 356.75659,633.736 L 364.02252,633.736 L 364.02252,644.63258 L 368.48693,644.63258 L 368.48693,650.30952 L 364.02252,650.30952 L 364.02252,670.59222 C 364.0225,671.80245 364.18648,672.63467 364.51446,673.08887 C 364.8424,673.5431 365.61149,673.77021 366.82172,673.7702 L 366.82172,673.7702 z "
       style="font-size:75.68021393px;font-style:normal;font-variant:normal;font-weight:normal;font-stretch:normal;text-indent:0;text-align:center;text-decoration:none;line-height:100%;letter-spacing:normal;word-spacing:normal;text-transform:none;direction:ltr;block-progression:tb;writing-mode:lr-tb;text-anchor:middle;color:black;fill:black;fill-opacity:1;fill-rule:nonzero;stroke:none;stroke-width:1;stroke-linecap:round;stroke-linejoin:miter;marker:none;marker-start:none;marker-mid:none;marker-end:none;stroke-miterlimit:4;stroke-dashoffset:0;stroke-opacity:1;visibility:visible;display:inline;overflow:visible;font-family:DIN 1451 Engschrift"
       id="text2129" />
  </g>
</svg>
