<?xml version="1.0" encoding="UTF-8" standalone="no"?>
<!-- Created with Inkscape (http://www.inkscape.org/) -->
<svg
   xmlns:dc="http://purl.org/dc/elements/1.1/"
   xmlns:cc="http://web.resource.org/cc/"
   xmlns:rdf="http://www.w3.org/1999/02/22-rdf-syntax-ns#"
   xmlns:svg="http://www.w3.org/2000/svg"
   xmlns="http://www.w3.org/2000/svg"
   xmlns:sodipodi="http://sodipodi.sourceforge.net/DTD/sodipodi-0.dtd"
   xmlns:inkscape="http://www.inkscape.org/namespaces/inkscape"
   version="1.0"
   width="490"
   height="360"
   id="svg2"
   sodipodi:version="0.32"
   inkscape:version="0.44"
   sodipodi:docname="Zusatzzeichen 1008-33.svg"
   sodipodi:docbase="C:\Dokumente und Einstellungen\Internet\Desktop\Wiki\SVG sonstiges (fertig)">
  <metadata
     id="metadata10">
    <rdf:RDF>
      <cc:Work
         rdf:about="">
        <dc:format>image/svg+xml</dc:format>
        <dc:type
           rdf:resource="http://purl.org/dc/dcmitype/StillImage" />
      </cc:Work>
    </rdf:RDF>
  </metadata>
  <sodipodi:namedview
     inkscape:window-height="749"
     inkscape:window-width="1024"
     inkscape:pageshadow="2"
     inkscape:pageopacity="0.0"
     guidetolerance="10.0"
     gridtolerance="10.0"
     objecttolerance="10.0"
     borderopacity="1.0"
     bordercolor="#666666"
     pagecolor="#ffffff"
     id="base"
     inkscape:zoom="1.05"
     inkscape:cx="416.64094"
     inkscape:cy="108.23622"
     inkscape:window-x="-4"
     inkscape:window-y="-4"
     inkscape:current-layer="svg2"
     showguides="true"
     inkscape:guide-bbox="true" />
  <defs
     id="defs4" />
  <path
     d="M 38.78125,4.6190618 C 20.35689,4.6190483 9.96875,14.244672 9.96875,42.683954 L 9.65625,317.31604 C 9.65625,345.75531 20.04439,355.38094 38.46875,355.38094 L 451.21875,355.33878 C 469.64311,355.33878 480.03124,345.71316 480.03125,317.27389 L 480.34375,42.726108 C 480.34375,14.286826 469.95561,4.6612021 451.53125,4.6612156 L 38.78125,4.6190618 z "
     style="fill:white;fill-opacity:1;fill-rule:evenodd;stroke:black;stroke-width:3;stroke-linecap:butt;stroke-linejoin:miter;stroke-miterlimit:4;stroke-dasharray:none;stroke-opacity:1"
     id="path1881" />
  <path
     d="M 453.23342,19.074797 L 36.79782,19.117707 C 28.375505,19.117707 23.425891,27.356247 23.425891,39.539027 L 23.425891,320.50387 C 23.425891,332.68661 28.375515,340.9252 36.79782,340.9252 L 453.20218,340.88229 C 461.62449,340.88228 466.57411,332.64373 466.57411,320.46097 L 466.57411,39.496127 C 466.57411,27.313347 461.65573,19.074797 453.23342,19.074797 z "
     style="fill:none;fill-opacity:1;fill-rule:evenodd;stroke:black;stroke-width:12;stroke-linecap:butt;stroke-linejoin:miter;stroke-miterlimit:4;stroke-dasharray:none;stroke-opacity:1"
     id="path3976" />
  <g
     id="g5773"
     transform="translate(-0.714287,-374.4783)">
    <path
       id="text1965"
       d="M 88.253571,498.70891 L 88.253571,475.05913 L 66.760528,475.05913 L 66.760528,498.70891 L 58.5426,498.70891 L 58.5426,444.53008 L 66.760528,444.53008 L 66.760528,467.73364 L 88.253571,467.73364 L 88.253571,444.53008 L 96.471499,444.53008 L 96.471499,498.70891 L 88.253571,498.70891 z M 127.52113,498.70891 L 127.52113,495.28787 L 127.33521,495.28787 C 125.77341,497.86605 122.60027,499.15513 117.8158,499.15514 C 113.5023,499.15513 110.15564,498.03338 107.77579,495.78987 C 105.39594,493.54637 104.20601,490.73889 104.20602,487.36743 C 104.20601,484.31826 105.25959,481.65332 107.36676,479.37261 C 109.47391,477.09194 112.60986,475.9516 116.77461,475.95157 L 127.52113,475.95157 L 127.52113,471.93557 C 127.52111,468.63851 124.88096,466.98997 119.60069,466.98994 C 115.93173,466.98997 113.48991,467.96918 112.2752,469.92757 L 106.17683,465.31661 C 108.87895,461.54854 113.21722,459.6645 119.19165,459.66446 C 123.95133,459.6645 127.81859,460.59413 130.79343,462.45335 C 133.76822,464.31264 135.25562,467.62212 135.25565,472.38179 L 135.25565,498.70891 L 127.52113,498.70891 z M 127.52113,485.1735 L 127.52113,482.34743 L 118.22483,482.34743 C 113.73781,482.34744 111.49431,483.89682 111.49431,486.99558 C 111.49431,488.30946 112.05828,489.44981 113.18624,490.41661 C 114.31418,491.38344 116.19203,491.86684 118.8198,491.86684 C 122.0425,491.86684 124.29839,491.50739 125.5875,490.78847 C 126.87657,490.06956 127.52111,488.19791 127.52113,485.1735 L 127.52113,485.1735 z M 146.55995,498.70891 L 146.55995,466.06031 L 142.65551,466.06031 L 142.65551,460.11068 L 146.55995,460.11068 L 146.55995,455.01631 C 146.55995,451.42179 147.55155,448.77544 149.53477,447.07727 C 151.51797,445.3792 154.02177,444.53014 157.04618,444.53008 L 162.06618,444.53008 L 162.06618,451.81838 L 157.67833,451.81838 C 155.42241,451.81843 154.29446,452.8844 154.29447,455.01631 L 154.29447,460.11068 L 162.06618,460.11068 L 162.06618,466.06031 L 154.29447,466.06031 L 154.29447,498.70891 L 146.55995,498.70891 z M 196.35093,482.34743 L 172.3293,482.34743 C 172.32929,485.52058 173.19074,487.90043 174.91367,489.48698 C 176.63657,491.07356 178.83669,491.86684 181.51404,491.86684 C 184.71194,491.86684 187.53802,490.62734 189.99226,488.14832 L 195.60723,492.94521 C 193.69836,495.17632 191.54782,496.76909 189.1556,497.72351 C 186.76332,498.67793 184.26572,499.15513 181.66278,499.15514 C 177.69634,499.15513 173.85388,497.87225 170.13537,495.30647 C 166.41685,492.74069 164.55759,487.49139 164.55759,479.55854 C 164.55759,472.04715 166.2743,466.85363 169.70774,463.97794 C 173.14116,461.10232 176.72953,459.6645 180.47285,459.66446 C 184.71194,459.6645 188.41806,461.13331 191.59123,464.0709 C 194.76433,467.00856 196.3509,470.96878 196.35093,475.95157 L 196.35093,482.34743 z M 172.3293,475.95157 L 188.61641,475.95157 C 188.49243,473.05115 187.67436,470.83244 186.16219,469.29542 C 184.64997,467.75847 182.75353,466.98997 180.47285,466.98994 C 178.16736,466.98997 176.25232,467.75847 174.72774,469.29542 C 173.20314,470.83244 172.40366,473.05115 172.3293,475.95157 L 172.3293,475.95157 z M 204.53168,498.70891 L 204.53168,460.11068 L 212.30339,460.11068 L 212.30339,464.23824 L 212.45213,464.23824 C 214.85675,461.18909 218.20342,459.6645 222.49213,459.66446 C 225.49171,459.6645 228.38595,460.80484 231.17487,463.0855 C 233.96373,465.36622 235.35817,468.68809 235.35821,473.05113 L 235.35821,498.70891 L 227.5865,498.70891 L 227.5865,475.72846 C 227.58647,473.12552 226.86136,471.09273 225.41117,469.63009 C 223.96092,468.1675 222.15744,467.43619 220.00072,467.43616 C 217.76959,467.43619 215.92893,468.1675 214.47872,469.63009 C 213.02848,471.09273 212.30337,473.12552 212.30339,475.72846 L 212.30339,498.70891 L 204.53168,498.70891 z M 267.11437,498.67173 L 267.11437,494.69291 C 264.41222,497.66773 261.09034,499.15513 257.14873,499.15514 C 254.62013,499.15513 252.50677,498.65313 250.80866,497.64913 C 249.11053,496.64514 247.82764,495.58536 246.95999,494.4698 C 245.84443,493.03198 245.08213,491.50739 244.6731,489.89602 C 244.26406,488.28467 244.05954,484.80166 244.05954,479.44698 C 244.05954,474.09234 244.26406,470.60933 244.6731,468.99794 C 245.08213,467.38661 245.84443,465.84963 246.95999,464.38698 C 247.82764,463.29625 249.11053,462.23647 250.80866,461.20764 C 252.50677,460.17889 254.62013,459.6645 257.14873,459.66446 C 260.91681,459.6645 264.23869,461.18909 267.11437,464.23824 L 267.11437,460.11068 L 274.88607,460.11068 L 274.88607,497.81647 C 274.88604,503.61735 273.19411,507.89365 269.81029,510.64536 C 266.42641,513.39705 262.54056,514.7729 258.15273,514.77292 C 255.67371,514.7729 253.24428,514.17794 250.86444,512.98803 C 248.48457,511.79809 246.43939,510.23631 244.72888,508.30269 L 250.75288,503.5058 C 251.69489,504.44782 252.81665,505.2659 254.11814,505.96003 C 255.41961,506.65414 256.81405,507.0012 258.30147,507.00121 C 260.87963,507.0012 262.99298,506.28229 264.64155,504.84447 C 266.29007,503.40664 267.11434,501.34906 267.11437,498.67173 L 267.11437,498.67173 z M 251.83125,479.44698 C 251.83124,482.54576 251.91181,484.60334 252.07295,485.61972 C 252.23408,486.63613 252.66171,487.57816 253.35584,488.4458 C 253.87642,489.13993 254.64492,489.80926 255.66133,490.4538 C 256.6777,491.09835 257.96679,491.42062 259.52859,491.42061 C 261.04076,491.42062 262.29886,491.09835 263.30288,490.4538 C 264.30686,489.80926 265.08155,489.13993 265.62696,488.4458 C 266.29627,487.57816 266.7115,486.63613 266.87266,485.61972 C 267.03377,484.60334 267.11434,482.54576 267.11437,479.44698 C 267.11434,476.34824 267.03377,474.29066 266.87266,473.27424 C 266.7115,472.25787 266.29627,471.30345 265.62696,470.41098 C 265.08155,469.74167 264.30686,469.07854 263.30288,468.42157 C 262.29886,467.76466 261.04076,467.43619 259.52859,467.43616 C 257.96679,467.43619 256.6777,467.76466 255.66133,468.42157 C 254.64492,469.07854 253.87642,469.74167 253.35584,470.41098 C 252.66171,471.30345 252.23408,472.25787 252.07295,473.27424 C 251.91181,474.29066 251.83124,476.34824 251.83125,479.44698 L 251.83125,479.44698 z M 314.89734,482.34743 L 290.87571,482.34743 C 290.8757,485.52058 291.73715,487.90043 293.46008,489.48698 C 295.18298,491.07356 297.3831,491.86684 300.06045,491.86684 C 303.25835,491.86684 306.08443,490.62734 308.53867,488.14832 L 314.15364,492.94521 C 312.24477,495.17632 310.09422,496.76909 307.70201,497.72351 C 305.30973,498.67793 302.81213,499.15513 300.20919,499.15514 C 296.24275,499.15513 292.40029,497.87225 288.68178,495.30647 C 284.96325,492.74069 283.104,487.49139 283.104,479.55854 C 283.104,472.04715 284.82071,466.85363 288.25415,463.97794 C 291.68757,461.10232 295.27594,459.6645 299.01926,459.66446 C 303.25835,459.6645 306.96447,461.13331 310.13764,464.0709 C 313.31074,467.00856 314.89731,470.96878 314.89734,475.95157 L 314.89734,482.34743 z M 290.87571,475.95157 L 307.16282,475.95157 C 307.03884,473.05115 306.22077,470.83244 304.7086,469.29542 C 303.19638,467.75847 301.29993,466.98997 299.01926,466.98994 C 296.71377,466.98997 294.79873,467.75847 293.27415,469.29542 C 291.74955,470.83244 290.95007,473.05115 290.87571,475.95157 L 290.87571,475.95157 z M 323.07807,498.70891 L 323.07807,444.53008 L 330.84977,444.53008 L 330.84977,464.23824 C 332.28759,462.87482 333.80598,461.77166 335.40496,460.92875 C 337.0039,460.08593 338.80738,459.6645 340.81541,459.66446 C 343.17044,459.6645 345.20323,460.14171 346.91378,461.09609 C 348.62427,462.05054 350.0373,463.24667 351.15289,464.68446 C 352.21883,466.07274 352.94394,467.69029 353.32822,469.53713 C 353.71243,471.38402 353.90456,474.66251 353.90459,479.37261 C 353.90456,484.13233 353.71243,487.44801 353.32822,489.31965 C 352.94394,491.19131 352.21883,492.80887 351.15289,494.17232 C 350.0373,495.63494 348.62427,496.83106 346.91378,497.76069 C 345.20323,498.69032 343.17044,499.15513 340.81541,499.15514 C 336.84897,499.15513 333.52709,497.66773 330.84977,494.69291 L 330.84977,498.70891 L 323.07807,498.70891 z M 338.47274,467.43616 C 334.82857,467.43619 332.64704,468.73767 331.92814,471.34061 C 331.20922,473.9436 330.84976,476.62093 330.84977,479.37261 C 330.84976,482.1987 331.20922,484.91322 331.92814,487.51617 C 332.64704,490.11914 334.82857,491.42062 338.47274,491.42061 C 342.11686,491.42062 344.30459,490.16872 345.03592,487.66491 C 345.76721,485.16112 346.13286,482.39702 346.13289,479.37261 C 346.13286,476.42261 345.76721,473.6957 345.03592,471.19187 C 344.30459,468.68809 342.11686,467.43619 338.47274,467.43616 L 338.47274,467.43616 z M 362.86624,498.70891 L 362.86624,460.11068 L 370.63795,460.11068 L 370.63795,498.70891 L 362.86624,498.70891 z M 362.86624,452.30179 L 362.86624,444.53008 L 370.63795,444.53008 L 370.63795,452.30179 L 362.86624,452.30179 z M 410.83513,482.34743 L 386.8135,482.34743 C 386.81349,485.52058 387.67494,487.90043 389.39787,489.48698 C 391.12077,491.07356 393.32089,491.86684 395.99824,491.86684 C 399.19614,491.86684 402.02221,490.62734 404.47646,488.14832 L 410.09143,492.94521 C 408.18256,495.17632 406.03201,496.76909 403.6398,497.72351 C 401.24752,498.67793 398.74992,499.15513 396.14698,499.15514 C 392.18054,499.15513 388.33808,497.87225 384.61957,495.30647 C 380.90104,492.74069 379.04179,487.49139 379.04179,479.55854 C 379.04179,472.04715 380.7585,466.85363 384.19194,463.97794 C 387.62536,461.10232 391.21373,459.6645 394.95705,459.66446 C 399.19614,459.6645 402.90226,461.13331 406.07543,464.0709 C 409.24853,467.00856 410.8351,470.96878 410.83513,475.95157 L 410.83513,482.34743 z M 386.8135,475.95157 L 403.10061,475.95157 C 402.97663,473.05115 402.15856,470.83244 400.64639,469.29542 C 399.13417,467.75847 397.23772,466.98997 394.95705,466.98994 C 392.65155,466.98997 390.73652,467.75847 389.21194,469.29542 C 387.68734,470.83244 386.88786,473.05115 386.8135,475.95157 L 386.8135,475.95157 z M 419.46209,460.11068 L 419.46209,448.39734 L 427.2338,448.39734 L 427.2338,460.11068 L 432.88595,460.11068 L 432.88595,466.06031 L 427.2338,466.06031 L 427.2338,488.52017 C 427.23379,490.45381 428.15102,491.42062 429.9855,491.42061 L 432.88595,491.42061 L 432.88595,498.70891 L 428.83276,498.70891 C 426.13063,498.70891 423.89332,497.89084 422.12084,496.25469 C 420.34833,494.61855 419.46209,492.27588 419.46209,489.22669 L 419.46209,466.06031 L 415.59483,466.06031 L 415.59483,460.11068 L 419.46209,460.11068 z "
       style="font-size:76.15528107px;font-style:normal;font-variant:normal;font-weight:normal;font-stretch:normal;text-indent:0;text-align:center;text-decoration:none;line-height:100%;letter-spacing:normal;word-spacing:normal;text-transform:none;direction:ltr;block-progression:tb;writing-mode:lr-tb;text-anchor:middle;color:black;fill:black;fill-opacity:1;fill-rule:nonzero;stroke:none;stroke-width:1;stroke-linecap:round;stroke-linejoin:miter;marker:none;marker-start:none;marker-mid:none;marker-end:none;stroke-miterlimit:4;stroke-dashoffset:0;stroke-opacity:1;visibility:visible;display:inline;overflow:visible;font-family:DIN 1451 Mittelschrift" />
    <path
       id="text1937"
       d="M 55.222833,568.64917 C 55.222825,569.53102 55.257559,570.19275 55.327037,570.63437 C 55.396498,571.076 55.744908,571.74978 56.372268,572.65571 C 56.999609,573.56166 58.149043,574.01462 59.820573,574.01462 C 60.750598,574.01462 61.610458,573.8172 62.400156,573.42236 C 63.189822,573.02752 63.770387,572.51643 64.141853,571.88907 C 64.513283,571.26173 64.710704,570.61134 64.734115,569.9379 C 64.757489,569.26448 64.769186,568.81151 64.769204,568.57899 L 64.769204,565.30401 C 64.769186,564.37398 64.734451,563.67681 64.665,563.21248 C 64.595512,562.74819 64.316572,562.24879 63.828177,561.71428 C 63.339748,561.17981 62.642928,560.69211 61.737715,560.25117 C 60.832473,559.81027 59.253109,559.17158 56.999619,558.33509 C 54.746109,557.49865 52.852716,556.18617 51.319433,554.39767 C 49.786141,552.60921 49.019497,550.15829 49.0195,547.0449 L 49.0195,544.95444 C 49.019497,541.79574 50.076424,539.06659 52.190281,536.76697 C 54.304128,534.46744 56.940418,533.31765 60.099159,533.3176 C 63.304659,533.31765 65.987734,534.4444 68.148394,536.69786 C 70.30901,538.9514 71.389329,541.70359 71.389353,544.95444 L 71.389353,547.0449 L 64.769204,547.0449 L 64.769204,544.95444 C 64.769186,544.30515 64.722755,543.74797 64.629911,543.28292 C 64.537031,542.81794 64.165228,542.14415 63.514501,541.26157 C 62.863741,540.37907 61.772081,539.93779 60.239516,539.93775 C 58.892648,539.93779 57.789291,540.41416 56.929441,541.36684 C 56.069571,542.3196 55.639641,543.51546 55.639649,544.95444 L 55.639649,547.0449 C 55.639641,547.92818 55.67473,548.56723 55.744917,548.96204 C 55.815086,549.35691 56.058938,549.80988 56.476472,550.32095 C 56.893987,550.83207 57.497945,551.27335 58.288347,551.64477 C 59.078727,552.01624 60.600317,552.6085 62.853124,553.42155 C 65.105899,554.23465 67.0918,555.55882 68.810834,557.39407 C 70.529823,559.22936 71.389329,561.72635 71.389353,564.88506 L 71.389353,568.64917 C 71.389329,570.18176 71.238339,571.52862 70.936385,572.68974 C 70.634382,573.85088 69.69371,575.46533 68.114368,577.5331 C 66.534983,579.60088 63.817172,580.63477 59.960929,580.63477 C 55.965721,580.63477 53.062187,579.32229 51.250318,576.69734 C 49.43844,574.0724 48.532503,571.38968 48.532505,568.64917 L 48.532505,566.97553 L 55.222833,566.97553 L 55.222833,568.64917 z M 95.968759,570.66945 C 95.968737,573.40996 94.969938,575.75597 92.97236,577.70748 C 90.974743,579.65901 88.604989,580.63477 85.863089,580.63477 C 84.377284,580.63477 82.902479,580.25127 81.438668,579.48427 C 79.974843,578.71727 78.871486,577.79964 78.128594,576.73137 C 77.385693,575.6631 76.863255,574.57144 76.561279,573.45638 C 76.259297,572.34134 76.108308,571.20324 76.10831,570.0421 L 76.10831,557.08039 C 76.108308,554.33992 77.048979,551.91275 78.930327,549.79886 C 80.811665,547.68504 83.145976,546.62812 85.933267,546.62808 C 88.814105,546.62812 91.206898,547.64995 93.111653,549.6936 C 95.016369,551.7373 95.968737,554.19956 95.968759,557.08039 L 89.34861,557.08039 C 89.348594,556.05822 89.058311,555.15229 88.477761,554.36258 C 87.897181,553.57292 87.095803,553.17808 86.073624,553.17805 C 85.469654,553.17808 84.946862,553.30568 84.505246,553.56084 C 84.063609,553.81606 83.668768,554.21091 83.320722,554.74537 C 82.972657,555.27988 82.798629,556.05822 82.798638,557.08039 L 82.798638,570.0421 C 82.798629,571.25003 83.054177,572.2024 83.565283,572.89921 C 84.076368,573.59604 84.935165,573.94445 86.141676,573.94444 C 87.118487,573.94445 87.897181,573.58434 88.477761,572.86412 C 89.058311,572.14392 89.348594,571.27271 89.34861,570.25051 L 95.968759,570.25051 L 95.968759,570.66945 z M 113.7196,546.62808 C 114.9275,546.62812 116.06595,546.95313 117.13494,547.60313 C 118.2039,548.2532 118.97055,549.00815 119.43488,549.86798 C 119.89917,550.72787 120.18945,551.45978 120.30573,552.06371 C 120.42196,552.66769 120.48009,553.45738 120.48011,554.43276 L 120.48011,580.21583 L 113.78978,580.21583 L 113.78978,556.94003 C 113.78976,555.82571 113.53422,554.92013 113.02314,554.22328 C 112.51203,553.52649 111.69931,553.17808 110.58497,553.17805 C 109.60955,553.17808 108.80818,553.56123 108.18084,554.32749 C 107.55348,555.0938 107.2398,555.96465 107.23981,556.94003 L 107.23981,580.21583 L 100.54948,580.21583 L 100.54948,533.73655 L 107.23981,533.73655 L 107.23981,550.25183 C 108.77238,547.83603 110.93231,546.62812 113.7196,546.62808 L 113.7196,546.62808 z M 126.40911,580.21583 L 126.40911,547.0449 L 133.09944,547.0449 L 133.09944,580.21583 L 126.40911,580.21583 z M 126.40911,540.28652 L 126.40911,533.73655 L 133.09944,533.73655 L 133.09944,540.28652 L 126.40911,540.28652 z M 148.1984,573.87426 C 149.17521,573.87427 149.96525,573.57229 150.56851,572.96832 C 151.17175,572.36437 151.54355,571.57469 151.68392,570.59928 L 158.30407,570.59928 L 158.30407,571.36486 C 158.30405,572.38706 158.08323,573.40925 157.64163,574.43144 C 157.19998,575.45363 156.28235,576.74307 154.88873,578.29975 C 153.49507,579.85643 151.31175,580.63477 148.33876,580.63477 C 146.4333,580.63477 144.6792,580.12367 143.07645,579.10148 C 141.47369,578.07929 140.37033,576.95254 139.76637,575.72123 C 139.16241,574.48992 138.77927,573.37487 138.61694,572.37606 C 138.45461,571.37727 138.37344,570.39017 138.37344,569.41475 L 138.37344,556.8018 C 138.37344,554.06133 139.36054,551.68059 141.33475,549.65957 C 143.30895,547.63861 145.66701,546.62812 148.40893,546.62808 C 151.24299,546.62812 153.60069,547.61522 155.48205,549.58939 C 157.36338,551.56363 158.30405,553.96776 158.30407,556.8018 L 158.30407,565.99941 L 145.06377,565.99941 L 145.06377,570.94804 C 145.06376,571.64416 145.40048,572.30589 146.07391,572.93324 C 146.74733,573.56059 147.45549,573.87427 148.1984,573.87426 L 148.1984,573.87426 z M 148.33876,553.17805 C 147.45549,553.17808 146.68885,553.48006 146.03882,554.08399 C 145.38878,554.68798 145.06376,555.75624 145.06377,557.2888 L 145.06377,560.56378 L 151.61374,560.56378 L 151.61374,557.2888 C 151.61373,556.08091 151.35818,555.0938 150.8471,554.32749 C 150.33599,553.56123 149.49987,553.17808 148.33876,553.17805 L 148.33876,553.17805 z M 182.44965,550.0413 C 182.82249,550.59992 183.07839,551.27405 183.21735,552.06371 C 183.35627,552.85342 183.42574,553.6431 183.42576,554.43276 L 183.42576,580.21583 L 176.73543,580.21583 L 176.73543,556.87198 C 176.73542,554.40939 175.64376,553.17808 173.46045,553.17805 C 172.48503,553.17808 171.69535,553.54988 171.0914,554.29346 C 170.48743,555.03709 170.18545,555.8966 170.18546,556.87198 L 170.18546,580.21583 L 163.49513,580.21583 L 163.49513,547.0449 L 170.18546,547.0449 L 170.18546,550.25183 C 171.67266,547.83603 173.74044,546.62812 176.3888,546.62808 C 179.08249,546.62812 181.10277,547.76585 182.44965,550.0413 L 182.44965,550.0413 z M 198.55662,573.87426 C 199.53343,573.87427 200.32346,573.57229 200.92673,572.96832 C 201.52996,572.36437 201.90176,571.57469 202.04214,570.59928 L 208.66229,570.59928 L 208.66229,571.36486 C 208.66226,572.38706 208.44145,573.40925 207.99985,574.43144 C 207.5582,575.45363 206.64056,576.74307 205.24694,578.29975 C 203.85328,579.85643 201.66996,580.63477 198.69697,580.63477 C 196.79152,580.63477 195.03741,580.12367 193.43467,579.10148 C 191.8319,578.07929 190.72854,576.95254 190.12459,575.72123 C 189.52063,574.48992 189.13748,573.37487 188.97516,572.37606 C 188.81282,571.37727 188.73166,570.39017 188.73166,569.41475 L 188.73166,556.8018 C 188.73166,554.06133 189.71876,551.68059 191.69297,549.65957 C 193.66717,547.63861 196.02523,546.62812 198.76715,546.62808 C 201.6012,546.62812 203.95891,547.61522 205.84027,549.58939 C 207.72159,551.56363 208.66226,553.96776 208.66229,556.8018 L 208.66229,565.99941 L 195.42199,565.99941 L 195.42199,570.94804 C 195.42198,571.64416 195.75869,572.30589 196.43213,572.93324 C 197.10554,573.56059 197.81371,573.87427 198.55662,573.87426 L 198.55662,573.87426 z M 198.69697,553.17805 C 197.81371,553.17808 197.04706,553.48006 196.39704,554.08399 C 195.74699,554.68798 195.42198,555.75624 195.42199,557.2888 L 195.42199,560.56378 L 201.97196,560.56378 L 201.97196,557.2888 C 201.97194,556.08091 201.71639,555.0938 201.20531,554.32749 C 200.6942,553.56123 199.85809,553.17808 198.69697,553.17805 L 198.69697,553.17805 z M 232.80787,550.0413 C 233.18071,550.59992 233.43662,551.27405 233.57558,552.06371 C 233.71449,552.85342 233.78396,553.6431 233.78398,554.43276 L 233.78398,580.21583 L 227.09366,580.21583 L 227.09366,556.87198 C 227.09364,554.40939 226.00198,553.17808 223.81867,553.17805 C 222.84325,553.17808 222.05357,553.54988 221.44962,554.29346 C 220.84565,555.03709 220.54368,555.8966 220.54369,556.87198 L 220.54369,580.21583 L 213.85336,580.21583 L 213.85336,547.0449 L 220.54369,547.0449 L 220.54369,550.25183 C 222.03089,547.83603 224.09866,546.62812 226.74702,546.62808 C 229.44071,546.62812 231.46099,547.76585 232.80787,550.0413 L 232.80787,550.0413 z M 241.11017,580.21583 L 241.11017,552.34229 L 237.83519,552.34229 L 237.83519,547.0449 L 241.11017,547.0449 L 241.11017,542.44716 C 241.11017,539.84564 241.76056,537.91751 243.06134,536.66277 C 244.36211,535.40811 245.57003,534.60673 246.68509,534.25863 C 247.80013,533.91062 249.0318,533.73659 250.38008,533.73655 L 252.67895,533.73655 L 252.67895,539.86758 L 250.23973,539.86758 C 248.61356,539.86762 247.80049,540.72748 247.8005,542.44716 L 247.8005,547.0449 L 252.67895,547.0449 L 252.67895,552.34229 L 247.8005,552.34229 L 247.8005,580.21583 L 241.11017,580.21583 z M 256.18999,576.73243 C 255.86391,576.17384 255.65444,575.55784 255.56158,574.8844 C 255.46871,574.21098 255.42228,573.45603 255.42229,572.61956 L 255.42229,568.85758 C 255.42228,566.39497 256.03794,564.55971 257.26925,563.35178 C 258.50055,562.14388 259.61561,561.31946 260.61441,560.87852 C 261.61321,560.43763 262.80942,560.21717 264.20308,560.21715 L 268.66259,560.21715 L 268.66259,557.35898 C 268.66257,556.70826 268.62784,556.17412 268.55838,555.75657 C 268.4889,555.33907 268.19861,554.80494 267.68753,554.15417 C 267.17642,553.50345 266.47925,553.17808 265.59601,553.17805 C 264.66737,553.17808 263.87769,553.48006 263.22696,554.08399 C 262.57621,554.68798 262.18137,555.47766 262.04244,556.45304 L 255.42229,556.45304 C 255.42228,553.75935 256.38635,551.44844 258.31448,549.52028 C 260.2426,547.59218 262.57692,546.62812 265.31742,546.62808 C 268.01254,546.62812 270.3589,547.58048 272.35651,549.48519 C 274.35409,551.38995 275.35289,553.71257 275.35291,556.45304 L 275.35291,580.21583 L 268.66259,580.21583 L 268.66259,576.87066 C 267.96646,578.03179 267.09561,578.94943 266.05004,579.62356 C 265.00444,580.2977 263.83091,580.63477 262.52943,580.63477 C 259.6032,580.63477 257.49006,579.33399 256.18999,576.73243 L 256.18999,576.73243 z M 262.11261,568.7874 L 262.11261,570.45892 C 262.11261,571.34218 262.42628,572.14392 263.05364,572.86412 C 263.68098,573.58434 264.50504,573.94445 265.52583,573.94444 C 266.08441,573.94445 266.60755,573.80515 267.09527,573.52656 C 267.58296,573.24798 267.95441,572.86484 268.20962,572.37713 C 268.46479,571.88943 268.60409,571.26208 268.6275,570.49507 C 268.65087,569.72808 268.66257,569.18225 268.66259,568.85758 L 268.66259,565.65065 L 266.15318,565.65065 C 264.94525,565.65066 263.96985,565.88317 263.22696,566.34817 C 262.48405,566.81321 262.11261,567.62628 262.11261,568.7874 L 262.11261,568.7874 z M 294.32869,546.62808 C 295.53659,546.62812 296.67503,546.95313 297.74403,547.60313 C 298.81299,548.2532 299.57963,549.00815 300.04396,549.86798 C 300.50825,550.72787 300.79853,551.45978 300.91481,552.06371 C 301.03104,552.66769 301.08917,553.45738 301.08919,554.43276 L 301.08919,580.21583 L 294.39887,580.21583 L 294.39887,556.94003 C 294.39885,555.82571 294.1433,554.92013 293.63222,554.22328 C 293.12111,553.52649 292.30839,553.17808 291.19406,553.17805 C 290.21864,553.17808 289.41726,553.56123 288.78992,554.32749 C 288.16256,555.0938 287.84889,555.96465 287.84889,556.94003 L 287.84889,580.21583 L 281.15857,580.21583 L 281.15857,533.73655 L 287.84889,533.73655 L 287.84889,550.25183 C 289.38146,547.83603 291.54139,546.62812 294.32869,546.62808 L 294.32869,546.62808 z M 322.34895,546.62808 L 322.34895,553.45664 C 322.02427,553.36451 321.69925,553.29504 321.37389,553.24823 C 321.04851,553.20147 320.74617,553.17808 320.46689,553.17805 C 318.28356,553.17808 316.61133,553.92133 315.45021,555.40781 C 314.28907,556.89434 313.7085,558.68317 313.70851,560.77432 L 313.70851,580.21583 L 307.01819,580.21583 L 307.01819,547.0449 L 313.70851,547.0449 L 313.70851,550.6006 C 314.86963,549.1602 316.29801,548.13801 317.99364,547.53402 C 319.68925,546.93009 321.14101,546.62812 322.34895,546.62808 L 322.34895,546.62808 z M 325.08802,580.21583 L 325.08802,574.71002 L 335.74874,552.75911 L 325.8536,552.75911 L 325.8536,547.0449 L 343.20677,547.0449 L 343.20677,551.85317 L 332.54393,573.87426 L 343.20677,573.87426 L 343.20677,580.21583 L 325.08802,580.21583 z M 356.98086,573.87426 C 357.95767,573.87427 358.7477,573.57229 359.35097,572.96832 C 359.9542,572.36437 360.326,571.57469 360.46638,570.59928 L 367.08653,570.59928 L 367.08653,571.36486 C 367.0865,572.38706 366.86569,573.40925 366.42409,574.43144 C 365.98244,575.45363 365.0648,576.74307 363.67118,578.29975 C 362.27752,579.85643 360.0942,580.63477 357.12121,580.63477 C 355.21576,580.63477 353.46165,580.12367 351.85891,579.10148 C 350.25614,578.07929 349.15278,576.95254 348.54883,575.72123 C 347.94487,574.48992 347.56172,573.37487 347.3994,572.37606 C 347.23706,571.37727 347.1559,570.39017 347.1559,569.41475 L 347.1559,556.8018 C 347.1559,554.06133 348.143,551.68059 350.11721,549.65957 C 352.09141,547.63861 354.44947,546.62812 357.19139,546.62808 C 360.02544,546.62812 362.38315,547.61522 364.26451,549.58939 C 366.14583,551.56363 367.0865,553.96776 367.08653,556.8018 L 367.08653,565.99941 L 353.84623,565.99941 L 353.84623,570.94804 C 353.84622,571.64416 354.18293,572.30589 354.85637,572.93324 C 355.52978,573.56059 356.23795,573.87427 356.98086,573.87426 L 356.98086,573.87426 z M 357.12121,553.17805 C 356.23795,553.17808 355.4713,553.48006 354.82128,554.08399 C 354.17123,554.68798 353.84622,555.75624 353.84623,557.2888 L 353.84623,560.56378 L 360.3962,560.56378 L 360.3962,557.2888 C 360.39618,556.08091 360.14063,555.0938 359.62955,554.32749 C 359.11844,553.56123 358.28233,553.17808 357.12121,553.17805 L 357.12121,553.17805 z M 385.65825,580.21583 L 385.65825,576.87066 C 384.86856,578.07858 383.99735,579.00791 383.04464,579.65865 C 382.09191,580.3094 380.94212,580.63477 379.59528,580.63477 C 378.24841,580.63477 376.98272,580.26297 375.79821,579.51936 C 374.61368,578.77575 373.78891,577.92795 373.32389,576.97593 C 372.85887,576.02392 372.59162,575.24593 372.52216,574.64197 C 372.45269,574.03802 372.41795,573.15476 372.41795,571.99221 L 372.41795,547.0449 L 379.10828,547.0449 L 379.10828,569.48493 C 379.10827,569.99533 379.11997,570.51777 379.14337,571.05225 C 379.16675,571.58674 379.4223,572.2024 379.91002,572.89921 C 380.39771,573.59604 381.24552,573.94445 382.45345,573.94444 C 383.05739,573.94445 383.61456,573.78176 384.12496,573.45638 C 384.63534,573.13102 384.99509,572.74787 385.20422,572.30695 C 385.41332,571.86604 385.54127,571.39003 385.58808,570.87893 C 385.63484,570.36784 385.65824,569.90318 385.65825,569.48493 L 385.65825,547.0449 L 392.34858,547.0449 L 392.34858,580.21583 L 385.65825,580.21583 z M 416.11774,589.34538 C 415.18768,590.73901 414.0028,591.84237 412.5631,592.65545 C 411.12337,593.46852 409.59044,593.87505 407.9643,593.87507 C 405.13022,593.87505 402.7027,592.91099 400.68171,590.98287 C 398.66071,589.05473 397.65022,586.65024 397.65022,583.7694 L 404.34055,583.7694 C 404.34054,584.69943 404.64252,585.48947 405.24649,586.13951 C 405.85044,586.78954 406.64012,587.11455 407.61554,587.11456 C 409.00916,587.11455 410.03135,586.4872 410.68211,585.23251 C 410.86782,584.7689 410.96068,584.02601 410.9607,583.00382 L 410.9607,576.80048 C 410.30994,577.91625 409.42704,578.83424 408.312,579.55445 C 407.19694,580.27466 406.01206,580.63477 404.75737,580.63477 C 403.4105,580.63477 402.16821,580.27466 401.03048,579.55445 C 399.89273,578.83424 399.07966,578.00947 398.59125,577.08013 C 398.10283,576.15081 397.82389,575.40756 397.75443,574.85038 C 397.68495,574.29321 397.65022,573.43335 397.65022,572.2708 L 397.65022,553.87558 C 397.65022,553.03914 397.75478,552.2725 397.9639,551.57565 C 398.17301,550.87886 398.75393,549.86836 399.70666,548.54416 C 400.65938,547.22002 402.32026,546.55794 404.68931,546.5579 C 405.94259,546.55794 407.10372,546.87161 408.17271,547.49893 C 409.24167,548.12631 410.171,548.99716 410.9607,550.11148 L 410.9607,547.0449 L 417.65103,547.0449 L 417.65103,583.00382 C 417.65101,584.30388 417.54645,585.45332 417.33735,586.45212 C 417.12821,587.45091 416.72168,588.41533 416.11774,589.34538 L 416.11774,589.34538 z M 410.33335,554.43276 C 409.6358,553.50274 408.72987,553.03772 407.61554,553.0377 C 406.31404,553.03772 405.46587,553.42122 405.07104,554.1882 C 404.67619,554.95522 404.45573,555.53614 404.40966,555.93096 C 404.36358,556.32582 404.34054,556.73236 404.34055,557.15057 L 404.34055,569.76352 C 404.34054,570.41427 404.37528,570.93706 404.44475,571.3319 C 404.51421,571.72674 404.78146,572.24918 405.24649,572.89921 C 405.7115,573.54925 406.54726,573.87427 407.75377,573.87426 C 409.19418,573.87427 410.07708,573.46773 410.40246,572.65465 C 410.72782,571.84158 410.89051,571.22593 410.89052,570.80768 C 410.89051,570.38946 410.9139,570.0414 410.9607,569.76352 L 410.9607,557.15057 C 410.96068,556.49985 410.92559,555.98875 410.85543,555.61728 C 410.78524,555.24586 410.61121,554.85102 410.33335,554.43276 L 410.33335,554.43276 z M 432.7904,573.87426 C 433.76721,573.87427 434.55724,573.57229 435.16051,572.96832 C 435.76374,572.36437 436.13554,571.57469 436.27592,570.59928 L 442.89607,570.59928 L 442.89607,571.36486 C 442.89604,572.38706 442.67523,573.40925 442.23363,574.43144 C 441.79198,575.45363 440.87434,576.74307 439.48072,578.29975 C 438.08706,579.85643 435.90374,580.63477 432.93075,580.63477 C 431.02529,580.63477 429.27119,580.12367 427.66845,579.10148 C 426.06568,578.07929 424.96232,576.95254 424.35837,575.72123 C 423.75441,574.48992 423.37126,573.37487 423.20894,572.37606 C 423.0466,571.37727 422.96544,570.39017 422.96544,569.41475 L 422.96544,556.8018 C 422.96544,554.06133 423.95254,551.68059 425.92675,549.65957 C 427.90095,547.63861 430.25901,546.62812 433.00093,546.62808 C 435.83498,546.62812 438.19269,547.61522 440.07405,549.58939 C 441.95537,551.56363 442.89604,553.96776 442.89607,556.8018 L 442.89607,565.99941 L 429.65577,565.99941 L 429.65577,570.94804 C 429.65576,571.64416 429.99247,572.30589 430.66591,572.93324 C 431.33932,573.56059 432.04749,573.87427 432.7904,573.87426 L 432.7904,573.87426 z M 432.93075,553.17805 C 432.04749,553.17808 431.28084,553.48006 430.63082,554.08399 C 429.98077,554.68798 429.65576,555.75624 429.65577,557.2888 L 429.65577,560.56378 L 436.20574,560.56378 L 436.20574,557.2888 C 436.20572,556.08091 435.95017,555.0938 435.43909,554.32749 C 434.92798,553.56123 434.09187,553.17808 432.93075,553.17805 L 432.93075,553.17805 z "
       style="font-size:69.68489075px;font-style:normal;font-variant:normal;font-weight:normal;font-stretch:normal;text-indent:0;text-align:center;text-decoration:none;line-height:100%;letter-spacing:normal;word-spacing:normal;text-transform:none;direction:ltr;block-progression:tb;writing-mode:lr-tb;text-anchor:middle;color:black;fill:black;fill-opacity:1;fill-rule:nonzero;stroke:none;stroke-width:1;stroke-linecap:round;stroke-linejoin:miter;marker:none;marker-start:none;marker-mid:none;marker-end:none;stroke-miterlimit:4;stroke-dashoffset:0;stroke-opacity:1;visibility:visible;display:inline;overflow:visible;font-family:DIN 1451 Engschrift" />
    <path
       id="text1941"
       d="M 106.0962,616.76057 C 107.3041,616.76061 108.44255,617.08563 109.51154,617.73563 C 110.5805,618.38569 111.34715,619.14064 111.81148,620.00047 C 112.27577,620.86036 112.56605,621.59227 112.68233,622.1962 C 112.79856,622.80019 112.85669,623.58987 112.85671,624.56525 L 112.85671,650.34832 L 106.16638,650.34832 L 106.16638,627.07253 C 106.16636,625.9582 105.91082,625.05262 105.39974,624.35578 C 104.88863,623.65898 104.07591,623.31057 102.96157,623.31055 C 101.98615,623.31057 101.18478,623.69372 100.55744,624.45998 C 99.930078,625.2263 99.616403,626.09714 99.616412,627.07253 L 99.616412,650.34832 L 92.926084,650.34832 L 92.926084,603.86904 L 99.616412,603.86904 L 99.616412,620.38432 C 101.14898,617.96852 103.30891,616.76061 106.0962,616.76057 L 106.0962,616.76057 z M 118.99624,646.86492 C 118.67016,646.30634 118.46069,645.69033 118.36783,645.0169 C 118.27496,644.34347 118.22853,643.58853 118.22854,642.75205 L 118.22854,638.99007 C 118.22853,636.52747 118.84419,634.6922 120.0755,633.48427 C 121.3068,632.27637 122.42186,631.45195 123.42066,631.01102 C 124.41945,630.57012 125.61567,630.34966 127.00932,630.34964 L 131.46883,630.34964 L 131.46883,627.49147 C 131.46882,626.84075 131.43408,626.30661 131.36463,625.88907 C 131.29515,625.47157 131.00486,624.93743 130.49378,624.28666 C 129.98267,623.63594 129.2855,623.31057 128.40226,623.31055 C 127.47362,623.31057 126.68394,623.61255 126.03321,624.21648 C 125.38246,624.82047 124.98761,625.61015 124.84869,626.58553 L 118.22854,626.58553 C 118.22853,623.89185 119.1926,621.58093 121.12073,619.65277 C 123.04885,617.72467 125.38316,616.76061 128.12367,616.76057 C 130.81878,616.76061 133.16515,617.71298 135.16276,619.61768 C 137.16034,621.52245 138.15914,623.84506 138.15916,626.58553 L 138.15916,650.34832 L 131.46883,650.34832 L 131.46883,647.00315 C 130.77271,648.16429 129.90186,649.08192 128.85629,649.75606 C 127.81069,650.43019 126.63716,650.76726 125.33568,650.76726 C 122.40945,650.76726 120.29631,649.46648 118.99624,646.86492 L 118.99624,646.86492 z M 124.91886,638.91989 L 124.91886,640.59141 C 124.91885,641.47467 125.23253,642.27641 125.85989,642.99661 C 126.48723,643.71683 127.31129,644.07694 128.33208,644.07693 C 128.89066,644.07694 129.4138,643.93765 129.90152,643.65905 C 130.38921,643.38047 130.76066,642.99733 131.01587,642.50962 C 131.27104,642.02192 131.41034,641.39457 131.43375,640.62756 C 131.45712,639.86058 131.46882,639.31475 131.46883,638.99007 L 131.46883,635.78314 L 128.95943,635.78314 C 127.7515,635.78315 126.7761,636.01566 126.03321,636.48067 C 125.2903,636.9457 124.91885,637.75877 124.91886,638.91989 L 124.91886,638.91989 z M 156.92653,616.76057 C 159.66701,616.76061 161.45549,617.46912 162.29198,618.88613 C 163.12843,620.30319 163.61648,621.41824 163.75615,622.23129 C 163.89578,623.04439 163.9656,623.77559 163.96563,624.42489 L 163.96563,642.61382 C 163.9656,643.77496 163.88408,644.75037 163.72106,645.54004 C 163.558,646.32973 162.97708,647.39835 161.9783,648.74591 C 160.97948,650.09348 159.27217,650.76726 156.85635,650.76726 C 155.55627,650.76726 154.38344,650.43019 153.33787,649.75606 C 152.29227,649.08192 151.42143,648.16429 150.72533,647.00315 L 150.72533,650.34832 L 144.035,650.34832 L 144.035,603.86904 L 150.72533,603.86904 L 150.72533,620.38432 C 152.21111,617.96852 154.27818,616.76061 156.92653,616.76057 L 156.92653,616.76057 z M 153.93013,623.31055 C 153.0015,623.31057 152.23521,623.68238 151.63126,624.42595 C 151.0273,625.16959 150.72532,626.02909 150.72533,627.00447 L 150.72533,640.10442 C 150.72532,641.1734 150.92274,642.10273 151.31759,642.89241 C 151.71242,643.6821 152.58327,644.07694 153.93013,644.07693 C 154.90553,644.07694 155.7069,643.78666 156.33427,643.20608 C 156.96161,642.62553 157.27528,641.96309 157.2753,641.21876 L 157.2753,627.00447 C 157.27528,625.93552 156.9733,625.05262 156.36936,624.35578 C 155.76539,623.65898 154.95231,623.31057 153.93013,623.31055 L 153.93013,623.31055 z M 178.82003,644.00675 C 179.79684,644.00676 180.58687,643.70478 181.19014,643.10082 C 181.79337,642.49687 182.16517,641.70718 182.30555,640.73177 L 188.9257,640.73177 L 188.9257,641.49735 C 188.92567,642.51955 188.70486,643.54174 188.26326,644.56393 C 187.82161,645.58612 186.90397,646.87556 185.51035,648.43224 C 184.11669,649.98892 181.93337,650.76726 178.96038,650.76726 C 177.05493,650.76726 175.30082,650.25616 173.69808,649.23397 C 172.09531,648.21178 170.99195,647.08503 170.388,645.85372 C 169.78404,644.62241 169.40089,643.50736 169.23857,642.50855 C 169.07623,641.50976 168.99507,640.52266 168.99507,639.54724 L 168.99507,626.9343 C 168.99507,624.19383 169.98217,621.81308 171.95638,619.79206 C 173.93058,617.7711 176.28864,616.76061 179.03056,616.76057 C 181.86461,616.76061 184.22232,617.74771 186.10368,619.72188 C 187.985,621.69612 188.92567,624.10025 188.9257,626.9343 L 188.9257,636.1319 L 175.6854,636.1319 L 175.6854,641.08053 C 175.68539,641.77665 176.0221,642.43838 176.69554,643.06573 C 177.36895,643.69309 178.07712,644.00676 178.82003,644.00675 L 178.82003,644.00675 z M 178.96038,623.31055 C 178.07712,623.31057 177.31047,623.61255 176.66045,624.21648 C 176.0104,624.82047 175.68539,625.88874 175.6854,627.42129 L 175.6854,630.69628 L 182.23537,630.69628 L 182.23537,627.42129 C 182.23535,626.2134 181.9798,625.2263 181.46872,624.45998 C 180.95761,623.69372 180.1215,623.31057 178.96038,623.31055 L 178.96038,623.31055 z M 213.07127,620.17379 C 213.44412,620.73241 213.70002,621.40655 213.83898,622.1962 C 213.9779,622.98591 214.04736,623.77559 214.04739,624.56525 L 214.04739,650.34832 L 207.35706,650.34832 L 207.35706,627.00447 C 207.35704,624.54188 206.26538,623.31057 204.08207,623.31055 C 203.10665,623.31057 202.31697,623.68238 201.71303,624.42595 C 201.10906,625.16959 200.80708,626.02909 200.80709,627.00447 L 200.80709,650.34832 L 194.11676,650.34832 L 194.11676,617.17739 L 200.80709,617.17739 L 200.80709,620.38432 C 202.29429,617.96852 204.36206,616.76061 207.01042,616.76057 C 209.70411,616.76061 211.7244,617.89835 213.07127,620.17379 L 213.07127,620.17379 z "
       style="font-size:69.68489075px;font-style:normal;font-variant:normal;font-weight:normal;font-stretch:normal;text-indent:0;text-align:center;text-decoration:none;line-height:100%;letter-spacing:normal;word-spacing:normal;text-transform:none;direction:ltr;block-progression:tb;writing-mode:lr-tb;text-anchor:middle;color:black;fill:black;fill-opacity:1;fill-rule:nonzero;stroke:none;stroke-width:1;stroke-linecap:round;stroke-linejoin:miter;marker:none;marker-start:none;marker-mid:none;marker-end:none;stroke-miterlimit:4;stroke-dashoffset:0;stroke-opacity:1;visibility:visible;display:inline;overflow:visible;font-family:DIN 1451 Engschrift" />
    <path
       id="text1947"
       d="M 247.23501,650.76726 L 237.75882,604.28799 L 244.72561,604.28799 L 250.09318,636.55085 L 255.59686,604.28799 L 262.63595,604.28799 L 252.94923,650.76726 L 247.23501,650.76726 z M 267.66327,621.01168 C 268.63867,619.80379 269.78846,618.86312 271.11264,618.18966 C 272.4368,617.51627 273.86517,617.17955 275.39776,617.17952 C 277.11605,617.17955 278.63729,617.49323 279.96148,618.12055 C 281.28563,618.74793 282.52864,619.82789 283.6905,621.36044 C 284.85231,622.89305 285.43323,624.89065 285.43326,627.35324 L 285.43326,640.59354 C 285.43323,643.10154 284.87571,645.11047 283.76067,646.62037 C 282.6456,648.13026 281.39125,649.26871 279.99763,650.03571 C 278.60397,650.80271 277.18694,651.18621 275.74653,651.18621 C 273.74892,651.18621 271.92535,650.68681 270.27581,649.68801 C 268.62627,648.68921 267.48782,647.57415 266.86047,646.34284 C 266.23312,645.11154 265.84997,644.08935 265.71104,643.27626 C 265.5721,642.4632 265.50263,641.56896 265.50263,640.59354 L 265.50263,627.35324 C 265.50263,624.84386 266.22284,622.73001 267.66327,621.01168 L 267.66327,621.01168 z M 275.53599,623.65931 C 274.51521,623.65934 273.70284,624.00775 273.09889,624.70454 C 272.49493,625.40139 272.19295,626.28429 272.19296,627.35324 L 272.19296,640.59354 C 272.19295,641.66253 272.48323,642.58016 273.06381,643.34644 C 273.64436,644.11274 274.46842,644.49588 275.53599,644.49588 C 276.97641,644.49588 277.871,644.07765 278.21978,643.24118 C 278.56853,642.40472 278.74291,641.47539 278.74293,640.45318 L 278.74293,627.35324 C 278.74291,626.33107 278.45263,625.45987 277.87208,624.73963 C 277.2915,624.01945 276.51281,623.65934 275.53599,623.65931 L 275.53599,623.65931 z M 306.09118,617.17952 L 306.09118,624.00808 C 305.7665,623.91595 305.44149,623.84648 305.11613,623.79967 C 304.79074,623.75291 304.48841,623.72952 304.20913,623.72949 C 302.02579,623.72952 300.35357,624.47277 299.19245,625.95925 C 298.03131,627.44577 297.45074,629.23461 297.45075,631.32576 L 297.45075,650.76726 L 290.76042,650.76726 L 290.76042,617.59634 L 297.45075,617.59634 L 297.45075,621.15203 C 298.61187,619.71164 300.04025,618.68945 301.73588,618.08546 C 303.43148,617.48153 304.88325,617.17955 306.09118,617.17952 L 306.09118,617.17952 z M 325.55396,617.17952 L 325.55396,624.00808 C 325.22928,623.91595 324.90426,623.84648 324.57891,623.79967 C 324.25352,623.75291 323.95119,623.72952 323.67191,623.72949 C 321.48857,623.72952 319.81634,624.47277 318.65522,625.95925 C 317.49408,627.44577 316.91352,629.23461 316.91353,631.32576 L 316.91353,650.76726 L 310.2232,650.76726 L 310.2232,617.59634 L 316.91353,617.59634 L 316.91353,621.15203 C 318.07465,619.71164 319.50302,618.68945 321.19865,618.08546 C 322.89426,617.48153 324.34603,617.17955 325.55396,617.17952 L 325.55396,617.17952 z M 329.8965,647.28387 C 329.57042,646.72528 329.36095,646.10927 329.26809,645.43584 C 329.17522,644.76242 329.12879,644.00747 329.1288,643.171 L 329.1288,639.40902 C 329.12879,636.94641 329.74445,635.11115 330.97576,633.90321 C 332.20706,632.69531 333.32212,631.8709 334.32092,631.42996 C 335.31971,630.98906 336.51593,630.7686 337.90958,630.76858 L 342.36909,630.76858 L 342.36909,627.91041 C 342.36908,627.25969 342.33434,626.72556 342.26489,626.30801 C 342.19541,625.89051 341.90512,625.35638 341.39404,624.70561 C 340.88293,624.05489 340.18576,623.72952 339.30252,623.72949 C 338.37388,623.72952 337.5842,624.0315 336.93347,624.63543 C 336.28272,625.23941 335.88787,626.02909 335.74894,627.00448 L 329.1288,627.00448 C 329.12879,624.31079 330.09286,621.99987 332.02099,620.07171 C 333.94911,618.14362 336.28342,617.17955 339.02393,617.17952 C 341.71904,617.17955 344.06541,618.13192 346.06302,620.03663 C 348.0606,621.94139 349.0594,624.26401 349.05942,627.00448 L 349.05942,650.76726 L 342.36909,650.76726 L 342.36909,647.4221 C 341.67297,648.58323 340.80212,649.50087 339.75655,650.175 C 338.71095,650.84914 337.53742,651.18621 336.23594,651.18621 C 333.30971,651.18621 331.19657,649.88543 329.8965,647.28387 L 329.8965,647.28387 z M 335.81912,639.33884 L 335.81912,641.01036 C 335.81911,641.89362 336.13279,642.69535 336.76015,643.41556 C 337.38749,644.13578 338.21155,644.49588 339.23234,644.49588 C 339.79092,644.49588 340.31406,644.35659 340.80178,644.078 C 341.28947,643.79942 341.66092,643.41627 341.91613,642.92856 C 342.1713,642.44087 342.3106,641.81352 342.33401,641.04651 C 342.35738,640.27952 342.36908,639.73369 342.36909,639.40902 L 342.36909,636.20208 L 339.85969,636.20208 C 338.65176,636.2021 337.67636,636.43461 336.93347,636.89961 C 336.19056,637.36465 335.81911,638.17772 335.81912,639.33884 L 335.81912,639.33884 z M 373.74942,620.59274 C 374.12226,621.15136 374.37816,621.82549 374.51712,622.61515 C 374.65604,623.40486 374.72551,624.19454 374.72553,624.98419 L 374.72553,650.76726 L 368.0352,650.76726 L 368.0352,627.42342 C 368.03519,624.96083 366.94353,623.72952 364.76022,623.72949 C 363.7848,623.72952 362.99512,624.10132 362.39117,624.8449 C 361.7872,625.58853 361.48522,626.44804 361.48523,627.42342 L 361.48523,650.76726 L 354.79491,650.76726 L 354.79491,617.59634 L 361.48523,617.59634 L 361.48523,620.80327 C 362.97243,618.38747 365.04021,617.17955 367.68857,617.17952 C 370.38226,617.17955 372.40254,618.31729 373.74942,620.59274 L 373.74942,620.59274 z M 398.49895,659.89682 C 397.56889,661.29045 396.38402,662.3938 394.94432,663.20689 C 393.50458,664.01995 391.97165,664.42649 390.34551,664.42651 C 387.51144,664.42649 385.08391,663.46243 383.06292,661.53431 C 381.04193,659.60617 380.03143,657.20168 380.03144,654.32083 L 386.72176,654.32083 C 386.72176,655.25087 387.02373,656.04091 387.6277,656.69095 C 388.23165,657.34097 389.02133,657.66599 389.99675,657.666 C 391.39038,657.66599 392.41257,657.03864 393.06333,655.78395 C 393.24904,655.32034 393.3419,654.57744 393.34191,653.55525 L 393.34191,647.35192 C 392.69116,648.46769 391.80826,649.38567 390.69322,650.10589 C 389.57815,650.8261 388.39327,651.18621 387.13858,651.18621 C 385.79172,651.18621 384.54942,650.8261 383.41169,650.10589 C 382.27395,649.38567 381.46087,648.5609 380.97246,647.63157 C 380.48405,646.70224 380.20511,645.95899 380.13564,645.40182 C 380.06617,644.84465 380.03143,643.98479 380.03144,642.82223 L 380.03144,624.42702 C 380.03143,623.59058 380.13599,622.82394 380.34511,622.12709 C 380.55423,621.4303 381.13515,620.4198 382.08787,619.0956 C 383.04059,617.77146 384.70147,617.10938 387.07053,617.10934 C 388.3238,617.10938 389.48493,617.42305 390.55392,618.05037 C 391.62289,618.67775 392.55222,619.5486 393.34191,620.66291 L 393.34191,617.59634 L 400.03224,617.59634 L 400.03224,653.55525 C 400.03222,654.85532 399.92766,656.00475 399.71857,657.00356 C 399.50943,658.00235 399.10289,658.96677 398.49895,659.89682 L 398.49895,659.89682 z M 392.71456,624.98419 C 392.01702,624.05418 391.11108,623.58916 389.99675,623.58913 C 388.69525,623.58916 387.84709,623.97266 387.45226,624.73963 C 387.05741,625.50666 386.83695,626.08758 386.79088,626.48239 C 386.74479,626.87726 386.72176,627.2838 386.72176,627.70201 L 386.72176,640.31495 C 386.72176,640.96571 386.75649,641.4885 386.82597,641.88333 C 386.89543,642.27818 387.16267,642.80062 387.6277,643.45065 C 388.09271,644.10069 388.92847,644.42571 390.13498,644.4257 C 391.57539,644.42571 392.45829,644.01917 392.78368,643.20609 C 393.10903,642.39302 393.27172,641.77737 393.27174,641.35912 C 393.27172,640.9409 393.29511,640.59284 393.34191,640.31495 L 393.34191,627.70201 C 393.3419,627.05129 393.30681,626.54019 393.23665,626.16872 C 393.16645,625.79729 392.99243,625.40245 392.71456,624.98419 L 392.71456,624.98419 z "
       style="font-size:69.68489075px;font-style:normal;font-variant:normal;font-weight:normal;font-stretch:normal;text-indent:0;text-align:center;text-decoration:none;line-height:100%;letter-spacing:normal;word-spacing:normal;text-transform:none;direction:ltr;block-progression:tb;writing-mode:lr-tb;text-anchor:middle;color:black;fill:black;fill-opacity:1;fill-rule:nonzero;stroke:none;stroke-width:1;stroke-linecap:round;stroke-linejoin:miter;marker:none;marker-start:none;marker-mid:none;marker-end:none;stroke-miterlimit:4;stroke-dashoffset:0;stroke-opacity:1;visibility:visible;display:inline;overflow:visible;font-family:DIN 1451 Engschrift" />
  </g>
</svg>
