<?xml version="1.0" encoding="UTF-8" standalone="no"?>
<!-- Created with Inkscape (http://www.inkscape.org/) -->

<svg
   xmlns:dc="http://purl.org/dc/elements/1.1/"
   xmlns:cc="http://creativecommons.org/ns#"
   xmlns:rdf="http://www.w3.org/1999/02/22-rdf-syntax-ns#"
   xmlns:svg="http://www.w3.org/2000/svg"
   xmlns="http://www.w3.org/2000/svg"
   xmlns:sodipodi="http://sodipodi.sourceforge.net/DTD/sodipodi-0.dtd"
   xmlns:inkscape="http://www.inkscape.org/namespaces/inkscape"
   version="1.1"
   width="711"
   height="534.229"
   id="svg2"
   inkscape:version="0.48.3.1 r9886"
   sodipodi:docname="Zusatzzeichen_1050-32.svg">
  <metadata
     id="metadata8">
    <rdf:RDF>
      <cc:Work
         rdf:about="">
        <dc:format>image/svg+xml</dc:format>
        <dc:type
           rdf:resource="http://purl.org/dc/dcmitype/StillImage" />
      </cc:Work>
    </rdf:RDF>
  </metadata>
  <sodipodi:namedview
     pagecolor="#ffffff"
     bordercolor="#666666"
     borderopacity="1"
     objecttolerance="10"
     gridtolerance="10"
     guidetolerance="10"
     inkscape:pageopacity="0"
     inkscape:pageshadow="2"
     inkscape:window-width="1366"
     inkscape:window-height="706"
     id="namedview6"
     showgrid="false"
     inkscape:zoom="0.62474032"
     inkscape:cx="334.51354"
     inkscape:cy="269.8364"
     inkscape:window-x="-8"
     inkscape:window-y="-8"
     inkscape:window-maximized="1"
     inkscape:current-layer="svg2" />
  <defs
     id="defs4" />
  <g
     transform="translate(-59.013048,-779.75392)"
     id="layer1-1">
    <path
       inkscape:connector-curvature="0"
       d="m 94.360423,1312.5508 c -13.49065,-4.2361 -25.02652,-14.3237 -31.22507,-27.3051 l -3.72204,-7.7949 c 0,-154.0503 0,-308.10061 0,-462.15087 l 4.19882,-8.47357 c 5.39131,-10.88013 13.04159,-18.41802 24.00624,-23.6536 l 7.79494,-3.72205 319.499987,0 319.49998,0 7.8325,3.73987 c 10.6655,5.09262 19.335,13.76212 24.4277,24.42767 l 3.7398,7.83246 0,231.00009 0,231 -3.722,7.7949 c -5.2356,10.9646 -12.7735,18.6149 -23.6536,24.0063 l -8.4735,4.1988 -318.07542,0.1863 c -255.0964,0.1494 -318.877927,-0.066 -322.128337,-1.0863 z"
       id="path2846-7"
       style="fill:#ffffff;fill-opacity:1"
       sodipodi:nodetypes="csccsscccsccccsscsc" />
  </g>
  <g
     transform="translate(-20.428573,-194.59206)"
     id="layer1">
    <path
       d="m 55.375683,727.69207 c -13.49065,-4.23606 -25.02652,-14.32371 -31.22507,-27.30508 l -3.72204,-7.79493 0,-231.07539 0,-231.07539 4.19882,-8.47357 c 5.39131,-10.88013 13.04159,-18.41802 24.00624,-23.6536 l 7.79494,-3.72205 319.499997,0 319.49998,0 7.8325,3.73987 c 10.6655,5.09262 19.335,13.76212 24.4277,24.42767 l 3.7398,7.83246 0,231 0,231 -3.722,7.79493 c -5.2356,10.9646 -12.7735,18.61492 -23.6536,24.00625 l -8.4735,4.19882 -318.07542,0.1863 c -255.0964,0.14942 -318.877937,-0.0657 -322.128347,-1.08629 z m 639.052867,-4.95936 c 7.275,-1.94333 13.1193,-5.20434 18.7263,-10.44903 5.8879,-5.50748 9.3348,-11.10736 11.8897,-19.31652 1.822,-5.85403 1.8836,-13.4651 1.8722,-231.21419 -0.01,-184.63542 -0.2523,-226.06083 -1.3475,-230.16091 -4.036,-15.10892 -15.9953,-27.11236 -30.9909,-31.10507 -7.5744,-2.01676 -629.603017,-2.05149 -637.149777,-0.0356 -15.10892,4.03595 -27.11236,15.99531 -31.10508,30.99084 -2.04383,7.67609 -2.04383,452.62353 0,460.29962 3.92883,14.7556 17.12019,27.91057 31.351,31.26452 2.13074,0.50218 139.533877,0.92307 317.754077,0.97335 258.98548,0.0731 314.87608,-0.14542 318.99998,-1.24703 z m -630.558087,-7.6424 c -12.28704,-2.09601 -23.40687,-11.02352 -28.02797,-22.50215 l -2.41392,-5.9961 0,-225 0,-225 2.38559,-6 c 3.27222,-8.22995 12.38446,-17.34218 20.61441,-20.6144 l 6,-2.3856 313.499997,0 313.49998,0 6,2.3856 c 8.23,3.27222 17.3422,12.38445 20.6144,20.6144 l 2.3856,6 0,225 0,225 -2.3856,6 c -3.2722,8.22995 -12.3844,17.34218 -20.6144,20.6144 l -6,2.3856 -310.49998,0.1379 c -170.775,0.0758 -312.551147,-0.212 -315.058107,-0.63965 z M 692.09205,695.18224 c 1.9343,-1.32541 4.6013,-3.99244 5.9267,-5.92673 l 2.4098,-3.51691 0,-224.14654 0,-224.14654 -2.4098,-3.51691 c -1.3254,-1.9343 -3.9924,-4.60132 -5.9267,-5.92673 l -3.5169,-2.40982 -312.64658,0 -312.646537,0 -3.51691,2.40982 c -1.9343,1.32541 -4.60133,3.99241 -5.92673,5.92667 l -2.40982,3.51684 -0.29336,222.07333 c -0.19646,148.72895 0.0433,223.24101 0.72588,225.60882 1.18764,4.1197 6.27228,9.68881 10.56748,11.57436 2.46376,1.08157 58.692757,1.27883 314.573297,1.10357 l 311.57328,-0.21341 3.5169,-2.40982 z m -265.7687,-38.07621 c -1.7078,-0.38617 -4.2649,-1.5598 -5.6823,-2.60805 -3.101,-2.29333 -6.7125,-8.36879 -6.7125,-11.29207 0,-1.89557 0.568,-2.11385 5.5,-2.11385 3.025,0 5.5,0.41786 5.5,0.92857 0,1.58697 3.0511,4.07143 5,4.07143 3.3901,0 5,-2.78321 5,-8.64401 l 0,-5.50115 -2.6348,2.07258 c -1.7721,1.39393 -4.097,2.07258 -7.1,2.07258 -3.7447,0 -5.0138,-0.54861 -7.8652,-3.4 l -3.4,-3.4 0,-20.13518 c 0,-22.05428 0.366,-23.65134 6.0989,-26.61593 3.8519,-1.99191 7.7983,-1.80895 11.6511,0.54015 2.6519,1.61686 3.25,1.7082 3.25,0.49626 0,-1.15072 1.3683,-1.4853 6.0745,-1.4853 l 6.0744,0 -0.3244,31.75 c -0.3635,35.57407 -0.4561,36.06855 -7.6024,40.63905 -4.3272,2.76754 -8.4581,3.61287 -12.8273,2.62492 z m 6.7765,-33.66896 c 1.595,-1.44343 1.8287,-3.33531 1.8287,-14.8 0,-14.21534 -0.4418,-15.54501 -5.1648,-15.54501 -4.0896,0 -4.8352,2.45693 -4.8352,15.93426 0,10.73241 0.221,12.28675 2,14.06574 2.4327,2.43272 3.7811,2.50811 6.1713,0.34501 z m 118.1038,33.64447 c -6.4977,-1.46404 -10.7667,-5.80152 -12.27,-12.46691 l -0.7945,-3.52257 5.8273,0 c 4.9468,0 5.9232,0.30185 6.4614,1.99768 0.3487,1.09872 1.805,2.29156 3.2361,2.65075 3.8171,0.95803 6.2646,-2.49073 6.2646,-8.82731 l 0,-4.95731 -2.9043,2.0681 c -6.53,4.64973 -15.8641,1.1632 -18.0608,-6.74619 -1.4223,-5.12077 -1.2179,-33.82649 0.2716,-38.15109 1.457,-4.23043 6.7906,-8.03463 11.2647,-8.03463 2.0648,0 4.4126,0.95687 6.3521,2.58889 2.9608,2.49135 3.0767,2.51019 3.0767,0.5 0,-1.86532 0.5887,-2.08889 5.5,-2.08889 l 5.5,0 0,31.61385 c 0,30.03448 -0.1026,31.79635 -2.0533,35.26717 -3.6137,6.42979 -10.6971,9.67993 -17.6716,8.10846 z m 6.7249,-33.98948 c 1.779,-1.77899 2,-3.33333 2,-14.06574 0,-13.47733 -0.7455,-15.93426 -4.8352,-15.93426 -4.7271,0 -5.1648,1.32442 -5.1648,15.62857 0,10.69264 0.3013,13.52982 1.5715,14.8 2.1067,2.10676 4.0208,1.97915 6.4285,-0.42857 z m -416.99998,-25 0,-38 6,0 6,0 0,32 0,32 10.5,0 10.5,0 0,6 0,6 -16.5,0 -16.5,0 0,-38 z m 42.88148,36.49691 c -3.80332,-2.06688 -5.8821,-7.24744 -5.87774,-14.64804 0.006,-10.82721 5.62499,-16.83793 15.74626,-16.84513 l 5.25,-0.004 -0.0153,-3.75 c -0.008,-2.0625 -0.39475,-4.34853 -0.85851,-5.08008 -1.32784,-2.09456 -6.4693,-1.02749 -7.61331,1.58008 -0.86288,1.9668 -1.72821,2.25 -6.875,2.25 l -5.88787,0 0.62706,-3.1353 c 1.50647,-7.53239 8.94253,-13.8647 16.28137,-13.8647 5.06799,0 11.45696,4.07765 14.03882,8.96002 2.19072,4.14271 2.30274,5.36851 2.30274,25.19726 l 0,20.84272 -6,0 c -5.40337,0 -6,-0.20609 -6,-2.07258 l 0,-2.07258 -2.63486,2.07258 c -3.07352,2.41763 -8.61747,2.67054 -12.48366,0.56949 z m 13.18426,-10.53209 c 1.55857,-0.83412 1.93426,-2.12204 1.93426,-6.63085 l 0,-5.59565 -3.66908,0.59541 c -4.35308,0.7064 -5.29515,1.92335 -5.31561,6.86658 -0.0204,4.92617 2.97107,6.94772 7.05043,4.76451 z m 27.68992,10.28039 c -5.05632,-3.13507 -5.75566,-6.29401 -5.75566,-25.99846 0,-17.02992 0.11699,-18.12458 2.28002,-21.3343 4.06765,-6.03599 11.14525,-7.72557 16.08512,-3.83987 l 2.63486,2.07258 0,-12.57258 0,-12.57258 6,0 6,0 0,38 0,38 -6,0 c -4.71155,0 -6,-0.32763 -6,-1.52568 0,-1.36757 -0.30574,-1.36757 -2.95034,0 -3.85021,1.99102 -8.86401,1.89759 -12.294,-0.22911 z m 13.58214,-10.50295 c 1.51358,-1.10675 1.68658,-2.9975 1.44113,-15.75 l -0.27893,-14.49226 -2.81047,-0.32226 c -5.18174,-0.59415 -5.68953,0.77792 -5.68953,15.37328 0,10.76314 0.30032,13.60644 1.57143,14.87755 1.89948,1.89948 3.48008,1.98547 5.76637,0.31369 z m 31.58388,9.98394 c -1.85575,-1.25058 -4.3973,-3.79213 -5.64788,-5.64788 -2.12032,-3.14633 -2.2738,-4.41253 -2.2738,-18.75832 0,-17.39395 0.79243,-20.53442 6.22741,-24.67988 6.19823,-4.72762 14.14726,-4.72007 19.77907,0.0188 4.91347,4.13441 6.26495,7.83623 6.78734,18.59109 l 0.47357,9.75 -11.13369,0 -11.1337,0 0,4 c 0,6.34705 4.82784,10.0293 8.42857,6.42857 0.86429,-0.86428 1.57143,-2.21428 1.57143,-3 0,-1.0765 1.45249,-1.42857 5.8937,-1.42857 l 5.89371,0 -0.92069,4.09766 c -1.16605,5.18971 -3.40397,8.21951 -8.00287,10.83466 -4.95417,2.81716 -11.58311,2.73146 -15.94217,-0.20612 z m 13.07832,-34.0262 c 0,-4.99616 -1.31344,-6.7 -5.16482,-6.7 -3.28942,0 -4.83518,2.37665 -4.83518,7.43426 l 0,3.56574 5,0 5,0 0,-4.3 z m 29.60846,34.55 c -0.88028,-2.9269 -13.60846,-51.42432 -13.60846,-51.85149 0,-0.21918 2.65186,-0.39851 5.89301,-0.39851 3.80624,0 6.05336,0.44264 6.34582,1.25 0.24905,0.6875 1.74515,7.4375 3.32468,15 1.57952,7.5625 3.11621,13.75 3.41487,13.75 0.29865,0 1.90383,-6.6375 3.56705,-14.75 l 3.02405,-14.75 6.29848,-0.29988 c 5.66669,-0.26979 6.24557,-0.11933 5.77108,1.5 -0.42429,1.44801 -8.07368,30.59564 -12.74124,48.54988 -0.95922,3.68971 -1.05357,3.75 -5.86896,3.75 -3.79384,0 -5.01238,-0.39341 -5.42038,-1.75 z m 37.54078,0.0535 c -1.84292,-0.90802 -4.54221,-3.45133 -5.99841,-5.6518 -2.39831,-3.62409 -2.68164,-5.07179 -3.00864,-15.37287 -0.19855,-6.2546 -0.0513,-13.85079 0.32723,-16.88041 1.9419,-15.54243 20.74797,-20.717 29.69637,-8.17109 2.228,3.12373 2.33421,4.0542 2.33421,20.44931 0,15.86191 -0.16012,17.39278 -2.09195,20 -5.19689,7.01382 -13.81442,9.29474 -21.25881,5.62686 z m 10.85076,-11.3035 c 1.7668,-1.7668 2,-3.33333 2,-13.4349 0,-13.71761 -0.82085,-16.5651 -4.77525,-16.5651 -4.79304,0 -5.22475,1.29136 -5.22475,15.62857 0,10.69264 0.30124,13.52982 1.57143,14.8 2.10675,2.10676 4.02085,1.97915 6.42857,-0.42857 z m 23,-14 0,-27 5.5,0 c 5.28562,0 5.5,0.10349 5.5,2.65499 0,2.44642 0.13747,2.53445 1.75,1.12059 2.64228,-2.31675 7.89419,-4.77558 10.20034,-4.77558 1.83844,0 2.04964,0.61821 2.04964,6 l 0,6 -3.77747,0 c -4.94084,0 -7.90288,2.18795 -9.17807,6.77948 -0.56831,2.04629 -1.0358,11.03302 -1.03886,19.97052 l -0.006,16.25 -5.5,0 -5.5,0 0,-27 z m 76.21678,25.4393 c -3.662,-2.56498 -5.2168,-6.78372 -5.2168,-14.15524 0,-11.75813 5.0305,-17.28406 15.7344,-17.28406 l 5.2656,0 0,-3.8 c 0,-4.52881 -1.4083,-6.2 -5.2247,-6.2 -2.093,0 -3.071,0.64768 -3.7753,2.5 -0.8592,2.25993 -1.4936,2.5 -6.6061,2.5 l -5.6556,0 0.5831,-3.59296 c 1.2932,-7.96905 9.2964,-14.04837 17.3058,-13.1456 5.23,0.5895 8.3066,2.47484 12.0562,7.38799 l 2.8166,3.69059 0.3346,21.82999 0.3345,21.82999 -6.0845,0 c -5.4889,0 -6.0846,-0.20289 -6.0846,-2.07258 l 0,-2.07258 -2.6348,2.07258 c -3.1904,2.50955 -9.9221,2.77162 -13.1484,0.51188 z m 14.2118,-11.01073 c 1.0144,-1.01444 1.5714,-3.36471 1.5714,-6.63084 l 0,-5.05941 -3.7467,0.608 c -6.1083,0.99124 -8.3359,6.57106 -4.2533,10.65368 2.4077,2.40772 4.3218,2.53533 6.4286,0.42857 z m 22.5714,-14.42857 0,-27 6,0 c 4.6403,0 6,0.3366 6,1.4853 0,1.21194 0.5982,1.1206 3.25,-0.49626 3.9553,-2.41159 8.0185,-2.53424 11.7102,-0.3535 5.7176,3.37746 6.0398,4.99243 6.0398,30.26875 l 0,23.09571 -5.5,0 -5.5,0 0,-18.9349 c 0,-21.28393 -0.5518,-24.0651 -4.7752,-24.0651 -5.0366,0 -5.2248,0.81774 -5.2248,22.7 l 0,20.3 -6,0 -6,0 0,-27 z m 90.5,25.59749 c -3.7596,-1.65955 -5.9951,-4.14499 -7.9618,-8.85197 -2.5762,-6.16562 -2.2356,-6.74552 3.9618,-6.74552 4.1,0 5.5,0.36364 5.5,1.42857 0,3.75565 7.0057,6.16577 9.8,3.37143 1.5768,-1.57673 1.5384,-6.27432 -0.062,-7.6026 -0.6942,-0.57612 -3.7612,-1.98251 -6.8156,-3.12532 -11.4143,-4.27061 -15.9811,-13.92053 -10.8546,-22.93593 3.0607,-5.38235 6.4922,-7.48388 12.8869,-7.89228 4.2896,-0.27395 6.2836,0.1092 8.8046,1.69185 3.9653,2.48928 7.2321,7.59651 7.2371,11.31428 0,2.66286 -0.1683,2.75 -5.4267,2.75 -4.8702,0 -5.4634,-0.23212 -5.75,-2.25 -0.2308,-1.62498 -1.1002,-2.33952 -3.13,-2.57226 -3.4395,-0.39438 -5.6896,1.31494 -5.6896,4.32226 0,2.79081 1.0137,3.58373 8.2475,6.45163 9.5012,3.76677 13.9556,10.82181 12.324,19.51893 -0.7597,4.04946 -4.611,8.98141 -8.6409,11.06536 -3.4871,1.80322 -10.4179,1.83279 -14.4306,0.0616 z M 219.84102,497.81204 c -4.6651,-3.14381 -5.88117,-6.07774 -5.89397,-14.21998 -0.0179,-11.40695 4.18722,-16.25492 14.94577,-17.23047 l 6.03575,-0.54731 0,-3.73866 c 0,-2.05627 -0.65023,-4.27831 -1.44496,-4.93788 -2.14121,-1.77704 -5.91557,-0.86359 -7.04217,1.70432 -0.85939,1.95885 -1.73284,2.25 -6.75,2.25 -6.40668,0 -6.80421,-0.57195 -4.39884,-6.32881 2.85193,-6.82564 11.20129,-11.23522 18.25933,-9.64337 5.18296,1.16895 8.49794,3.84813 11.12664,8.99261 2.1147,4.13857 2.25,5.6233 2.25,24.69146 l 0,20.28811 -6,0 c -4.46018,0 -6,-0.35729 -6,-1.3922 0,-1.09979 -0.77954,-0.99477 -3.71144,0.5 -4.84303,2.46911 -7.25892,2.38675 -11.37611,-0.38782 z m 13.88755,-10.91998 c 0.66,-0.66 1.2,-3.36 1.2,-6 0,-4.76364 -0.025,-4.8 -3.3,-4.8 -4.24498,0 -5.7,1.5316 -5.7,6 0,4.082 1.4385,6 4.5,6 1.155,0 2.64,-0.54 3.3,-1.2 z m 105.7,12.53059 c -3.2343,-0.86412 -8.36638,-5.18578 -10.25105,-8.63228 -1.45248,-2.65616 -1.74895,-5.82576 -1.74895,-18.69831 0,-16.91508 0.81569,-19.9177 6.57739,-24.21185 5.45668,-4.06682 14.53941,-4.00723 19.59409,0.12855 5.05055,4.1324 6.3208,7.91482 6.32478,18.8333 l 0.004,10.25 -10.55479,0 -10.55479,0 0.30479,4.64757 c 0.19067,2.90746 0.90206,5.02186 1.90001,5.64725 2.27012,1.42263 6.65678,0.0619 7.40552,-2.29714 0.53129,-1.67395 1.5144,-1.99768 6.06665,-1.99768 4.80131,0 5.43261,0.23704 5.43261,2.03984 0,3.58736 -3.82537,9.68911 -7.49701,11.95831 -3.6391,2.24909 -9.42822,3.28753 -13.00299,2.33244 z m 9.5,-35.60808 c 0,-3.9638 -2.42644,-7.72251 -4.98528,-7.72251 -3.01898,0 -5.01472,2.81427 -5.01472,7.07143 l 0,3.92857 5,0 c 4.98296,0 5,-0.0112 5,-3.27749 z m 67.44868,34.775 c -5.9268,-3.02016 -6.4487,-5.19093 -6.4487,-26.82508 0,-19.49176 0,-19.52323 2.5643,-22.56645 4.4568,-5.29661 11.6954,-5.89595 16.6839,-1.38139 1.6603,1.50259 1.7518,0.92446 1.7518,-11.0696 l 0,-12.65499 6,0 6,0 0,37.5 0,37.5 -6,0 c -5.4936,0 -6,-0.18349 -6,-2.17431 l 0,-2.17432 -2.3566,2.21392 c -3.0941,2.90678 -8.3207,3.60633 -12.1947,1.63222 z m 13.5161,-12.43177 c 0.5694,-1.06384 1.0352,-7.5567 1.0352,-14.42857 0,-10.02513 -0.3105,-12.80487 -1.5714,-14.06574 -2.0238,-2.02377 -4.3032,-1.99491 -6.5998,0.0836 -1.5899,1.43878 -1.8288,3.32372 -1.8288,14.42857 0,10.27901 0.3069,13.08047 1.5715,14.34501 2.1723,2.17233 6.1408,1.97758 7.3933,-0.36283 z m 59.9477,11.65424 c -5.5128,-3.71509 -5.8819,-5.32541 -5.894,-25.71998 -0.01,-16.56993 0.1917,-18.83241 1.9318,-21.68618 1.0685,-1.7524 2.9519,-3.72626 4.1853,-4.38636 3.2466,-1.73755 9.1025,-1.4728 12.1915,0.55119 l 2.6729,1.75137 0,-12.11501 0,-12.11501 6,0 6,0 0,37.5 0,37.5 -6,0 c -4.4602,0 -6,-0.35729 -6,-1.3922 0,-1.09979 -0.7795,-0.99477 -3.7114,0.5 -4.843,2.46911 -7.2589,2.38675 -11.3761,-0.38782 z m 13.8875,-10.91998 c 0.8157,-0.81569 1.2,-5.55556 1.2,-14.8 0,-14.27263 -0.4858,-16 -4.5,-16 -4.0142,0 -4.5,1.72737 -4.5,16 0,14.27263 0.4858,16 4.5,16 1.155,0 2.64,-0.54 3.3,-1.2 z m 34.7,12.48212 c -3.224,-0.78323 -8.3696,-5.13006 -10.1611,-8.58381 -1.9538,-3.76646 -2.954,-19.12973 -1.8914,-29.05212 1.1794,-11.01365 6.9508,-16.87696 16.6122,-16.87696 5.9916,0 10.8289,2.90849 13.887,8.34975 1.6949,3.01565 2.0533,5.41868 2.0533,13.76717 l 0,10.11385 -10.5,0 -10.5,0 0,3.56574 c 0,4.8206 1.5693,7.43426 4.4638,7.43426 2.3894,0 5.5362,-2.31424 5.5362,-4.07143 0,-0.51071 2.5339,-0.92857 5.6309,-0.92857 l 5.6308,0 -0.5695,3.5095 c -1.4551,8.96687 -11.0014,15.00541 -20.1922,12.77262 z m 9.5,-35.95338 c 0,-4.01445 -2.2989,-7.32874 -5.0835,-7.32874 -2.9259,0 -4.9165,2.86312 -4.9165,7.07143 l 0,3.92857 5,0 5,0 0,-3.67126 z m 27.5,35.24835 c -4.1033,-1.83915 -7.4505,-5.21441 -9.1102,-9.18659 -2.4149,-5.77975 -2.0221,-6.3905 4.1102,-6.3905 3.9406,0 5.5,0.38136 5.5,1.34501 0,0.73976 0.9137,2.17184 2.0303,3.18239 2.7016,2.44491 7.0572,1.00852 8.3843,-2.76493 1.2526,-3.56161 -0.7394,-5.765 -7.3661,-8.14792 -9.1803,-3.3012 -13.0485,-8.01971 -13.0485,-15.91701 0,-4.89569 2.6546,-9.64631 7.3234,-13.10559 3.895,-2.88603 12.4452,-2.90186 16.2915,-0.0302 3.8467,2.87198 6.2512,6.37232 6.9986,10.18821 l 0.6365,3.25 -5.3878,0 c -4.6283,0 -5.5271,-0.31721 -6.375,-2.25 -1.1807,-2.69104 -5.614,-3.50699 -7.395,-1.36103 -0.6802,0.81955 -1.0917,2.73057 -0.9144,4.24672 0.272,2.32729 1.2025,3.09664 5.9738,4.93956 7.6559,2.95706 10.4368,5.15166 12.9417,10.21313 6.3151,12.76033 -7.6858,27.57396 -20.5933,21.78871 z m -409.42564,-3.32709 c -0.55151,-2.0625 -3.28666,-13.425 -6.07811,-25.25 -2.79145,-11.825 -5.32001,-22.30994 -5.61902,-23.29988 -0.48954,-1.62075 0.0833,-1.77003 5.75569,-1.5 l 6.29934,0.29988 3.09391,15.5 c 2.91013,14.57924 3.13697,15.23268 3.81855,11 0.39854,-2.475 1.6603,-9.5625 2.80392,-15.75 l 2.0793,-11.25 4.27763,0 c 4.95584,0 4.25953,-1.62235 7.6559,17.83768 l 2.32784,13.33768 3.03924,-15.33768 3.03923,-15.33768 6.24735,-0.29853 c 6.07034,-0.29007 6.2319,-0.2334 5.70181,2 -0.30005,1.26419 -3.16242,13.32353 -6.36082,26.79853 l -5.81527,24.5 -5.04994,0.29808 c -5.83383,0.34435 -4.90137,2.20753 -8.40687,-16.79808 l -2.30556,-12.5 -1.79089,9.5 c -0.98498,5.225 -2.27204,11.8625 -2.86012,14.75 l -1.06925,5.25 -4.89055,0 c -4.80638,0 -4.90782,-0.0645 -5.89331,-3.75 z m 89.92566,-33.75 0,-37.5 6,0 6,0 0,12.65499 c 0,11.99406 0.0915,12.57219 1.75183,11.0696 4.98853,-4.51456 12.22709,-3.91522 16.68389,1.38139 l 2.56428,3.04747 0,23.42328 0,23.42327 -5.5,0 -5.5,0 0,-19.27749 c 0,-20.49385 -0.6785,-23.72251 -4.98528,-23.72251 -4.60484,0 -5.01472,1.88577 -5.01472,23.07143 l 0,19.92857 -6,0 -6,0 0,-37.5 z m 43,10.5 0,-27 5.5,0 c 5.1575,0 5.5,0.1513 5.5,2.4296 l 0,2.42961 4.25,-2.31078 c 2.3375,-1.27092 5.4875,-2.59781 7,-2.94865 l 2.75,-0.63788 0,5.88738 0,5.88738 -4.07762,0.54692 c -8.5009,1.14022 -9.90901,4.96925 -9.9168,26.96642 l -0.006,15.75 -5.5,0 -5.5,0 0,-27 z m 70,0 0,-27 5.5,0 c 4.96519,0 5.5,0.20955 5.5,2.15499 0,1.98988 0.13421,2.03352 1.75183,0.5696 4.98853,-4.51456 12.22709,-3.91522 16.68389,1.38139 l 2.56428,3.04747 0,23.42328 0,23.42327 -5.5,0 -5.5,0 0,-19.92857 c 0,-21.17293 -0.41144,-23.07143 -5,-23.07143 -4.58856,0 -5,1.8985 -5,23.07143 l 0,19.92857 -5.5,0 -5.5,0 0,-27 z m -152,-42.5 0,-5.5 5.5,0 5.5,0 0,5.5 0,5.5 -5.5,0 -5.5,0 0,-5.5 z m 15,0 0,-5.5 6,0 6,0 0,5.5 0,5.5 -6,0 -6,0 0,-5.5 z m 372.49998,-45.5118 c -6.4789,-1.38412 -11.6369,-6.44991 -12.9699,-12.7382 l -0.689,-3.25 5.9628,0 c 5.0755,0 6.0389,0.29084 6.474,1.95446 0.6373,2.43724 5.203,3.72126 7.2351,2.03476 1.0111,-0.83917 1.487,-3.13828 1.487,-7.18424 l 0,-5.95014 -2.6348,2.07258 c -5.2505,4.13005 -13.8642,1.75533 -16.9093,-4.66174 -1.3022,-2.74418 -1.5225,-6.63673 -1.2662,-22.37297 l 0.3103,-19.05077 3.7353,-3.42097 c 4.5153,-4.13525 9.93,-4.65197 14.1299,-1.34839 2.1841,1.71808 2.6348,1.8036 2.6348,0.5 0,-1.25651 1.2138,-1.57258 6.0394,-1.57258 l 6.0393,0 -0.2893,32.42843 c -0.2762,30.95308 -0.3832,32.55398 -2.3512,35.18821 -4.374,5.85486 -10.8484,8.67253 -16.9382,7.37156 z m 5.5658,-33.02338 c 1.7758,-0.95038 1.9342,-2.22288 1.9342,-15.53223 0,-14.11948 -0.059,-14.51882 -2.25,-15.33341 -2.4356,-0.90538 -4.8173,-0.37693 -5.9847,1.32788 -0.404,0.59012 -0.7415,7.0033 -0.75,14.25151 -0.012,10.66171 0.2848,13.47869 1.5562,14.75 1.8427,1.84273 2.8664,1.94264 5.4943,0.53625 z m -524.065777,-25.96482 0,-38 15.999997,0 16,0 0,5.5 0,5.5 -10.5,0 -10.499997,0 0,10.5 0,10.5 9.499997,0 9.5,0 0,5.5 0,5.5 -9.5,0 -9.499997,0 0,10.5 0,10.5 10.499997,0 10.5,0 0,6 0,6 -16,0 -15.999997,0 0,-38 z m 49.286247,36.89061 c -1.76757,-0.51095 -4.35507,-2.42534 -5.75,-4.2542 l -2.53625,-3.32519 0,-33.65561 0,-33.65561 5.5,0 5.5,0 0,31.3 c 0,32.51042 0.14826,33.7 4.2,33.7 1.51515,0 1.8,0.87037 1.8,5.5 0,5.3552 -0.0724,5.49763 -2.75,5.40981 -1.5125,-0.0496 -4.19619,-0.50824 -5.96375,-1.0192 z m 22.86299,-0.58708 c -1.84292,-0.90802 -4.54292,-3.45028 -6,-5.64949 -2.51982,-3.8032 -2.665,-4.72461 -2.97182,-18.86065 -0.29479,-13.58216 -0.13581,-15.2479 1.84605,-19.34188 5.9243,-12.23797 22.84235,-12.47549 28.99917,-0.40713 1.56077,3.05936 1.97736,5.88579 1.97736,13.41578 l 0,9.53984 -10.5,0 -10.5,0 0,4.42857 c 0,4.24485 1.81771,7.57143 4.13717,7.57143 2.22265,0 4.86283,-2.19083 4.86283,-4.03518 0,-1.73944 0.70326,-1.96482 6.13084,-1.96482 l 6.13084,0 -0.58305,3.59296 c -1.69139,10.42277 -13.85559,16.47689 -23.52939,11.71057 z m 11.85076,-35.83575 c 0,-3.77486 -0.37599,-4.67805 -2.25,-5.40488 -3.57717,-1.38738 -6.19517,0.92886 -6.5575,5.80167 l -0.3075,4.13543 4.5575,0 4.5575,0 0,-4.53222 z m 20,-0.46778 0,-38 6,0 6,0 0.0164,21.75 0.0165,21.75 6.08045,-10.75 6.08046,-10.75 5.86369,0 5.86369,0 -6.40098,10.6567 -6.40098,10.65669 2.04639,4.01125 c 1.12551,2.20618 4.67876,9.58077 7.89612,16.38798 l 5.84974,12.37674 -6.61534,-0.29468 -6.61533,-0.29468 -4.25721,-10.33347 c -2.34147,-5.68341 -4.46832,-10.54458 -4.72634,-10.8026 -0.25802,-0.25802 -1.42046,1.07016 -2.58319,2.9515 -1.66863,2.69989 -2.11407,5.02873 -2.11407,11.0526 l 0,7.63197 -6,0 -6,0 0,-38 z m 54.4449,36.93172 c -4.11633,-1.19632 -7.42263,-4.92269 -8.50456,-9.58507 -0.49094,-2.11566 -0.90336,-10.70915 -0.91648,-19.09665 l -0.0239,-15.25 -2.5,0 c -2.2963,0 -2.5,-0.36667 -2.5,-4.5 0,-4.13333 0.2037,-4.5 2.5,-4.5 2.45833,0 2.5,-0.13333 2.5,-8 l 0,-8 6,0 6,0 0,8 0,8 3.5,0 c 3.48148,0 3.5,0.0238 3.5,4.5 0,4.47619 -0.0185,4.5 -3.5,4.5 l -3.5,0 0,15.8 c 0,16.72974 0.37968,18.2 4.7,18.2 2.12121,0 2.3,0.42754 2.3,5.5 l 0,5.5 -3.25,-0.0902 c -1.7875,-0.0496 -4.6248,-0.48974 -6.3051,-0.97809 z m 17.5551,-25.93172 0,-27 6,0 c 5.27362,0 6,0.23511 6,1.94202 0,1.84615 0.2098,1.82207 4.25,-0.48795 2.3375,-1.33649 5.4875,-2.4354 7,-2.44202 2.69578,-0.0118 2.75,0.10624 2.75,5.98795 l 0,6 -4.36364,0 c -3.3814,0 -4.95707,0.59343 -7,2.63636 l -2.63636,2.63637 0,18.86363 0,18.86364 -6,0 -6,0 0,-27 z m 36.92168,24.7262 c -1.85575,-1.25058 -4.3973,-3.79213 -5.64788,-5.64788 -2.1327,-3.16471 -2.2738,-4.37961 -2.2738,-19.57832 0,-15.15819 0.14525,-16.41764 2.25,-19.51017 3.86463,-5.67831 7.19025,-7.48983 13.75,-7.48983 6.55975,0 9.88537,1.81152 13.75,7.48983 2.10475,3.09253 2.25,4.35198 2.25,19.51017 0,15.19871 -0.1411,16.41361 -2.2738,19.57832 -3.49267,5.18278 -8.23847,7.92168 -13.7262,7.92168 -3.23712,0 -5.75651,-0.70913 -8.07832,-2.2738 z m 10.85581,-10.2829 c 2.09527,-1.46758 2.22251,-2.27288 2.22251,-14.06575 0,-6.87997 -0.46583,-13.37945 -1.03518,-14.44329 -0.66182,-1.23662 -2.09183,-1.93426 -3.96482,-1.93426 -1.87299,0 -3.303,0.69764 -3.96482,1.93426 -0.56935,1.06384 -1.03518,7.56332 -1.03518,14.44329 0,11.79287 0.12724,12.59817 2.22251,14.06575 1.22237,0.85618 2.47225,1.5567 2.77749,1.5567 0.30524,0 1.55512,-0.70052 2.77749,-1.5567 z m 24.22251,-9.9433 0,-22.5 -2.5,0 c -2.2963,0 -2.5,-0.36667 -2.5,-4.5 0,-4.06275 0.22942,-4.5 2.36111,-4.5 2.15529,0 2.40793,-0.51634 2.89823,-5.92342 0.91732,-10.11641 5.20284,-14.85595 14.27993,-15.79279 l 5.46073,-0.5636 0,5.63991 c 0,5.29836 -0.14644,5.6399 -2.41821,5.6399 -4.74394,0 -5.58179,0.91668 -5.58179,6.10699 l 0,4.89301 4,0 4,0 0,4.5 0,4.5 -4,0 -4,0 0,22.5 0,22.5 -6,0 -6,0 0,-22.5 z m 28.25976,19.09924 c -3.54953,-3.2529 -3.72506,-3.72028 -4.03725,-10.75 -0.54948,-12.37278 4.76938,-18.84924 15.48016,-18.84924 l 5.40691,0 -0.30479,-4.75 c -0.30183,-4.70385 -0.3388,-4.75 -3.80479,-4.75 -2.67048,0 -3.73395,0.53326 -4.48713,2.25 -0.86163,1.96395 -1.72989,2.25 -6.82945,2.25 l -5.84233,0 0.67553,-3.25 c 2.4904,-11.98136 16.40709,-17.62199 25.8005,-10.45729 6.18021,4.71388 6.68288,7.01618 6.68288,30.60842 l 0,21.09887 -6,0 c -4.71155,0 -6,-0.32763 -6,-1.52568 0,-1.36757 -0.30574,-1.36757 -2.95034,0 -5.01937,2.59562 -9.58964,1.97417 -13.7899,-1.87508 z m 14.80598,-8.63442 c 1.55857,-0.83412 1.93426,-2.12204 1.93426,-6.63085 l 0,-5.59565 -3.66908,0.59541 c -2.018,0.32747 -4.03611,1.17385 -4.48469,1.88084 -1.36572,2.15244 -0.94108,7.54773 0.7252,9.214 1.84273,1.84273 2.86643,1.94264 5.49431,0.53625 z m 23.93426,-25.96482 0,-38 5.5,0 5.49998,0 0,13.03896 0,13.03895 2.2301,-2.07765 c 6.3302,-5.89742 16.2816,-2.6764 18.7938,6.08301 0.5369,1.87194 0.9761,12.969 0.9761,24.66013 l 0,21.2566 -6,0 -6,0 0,-20.3 c 0,-14.45556 -0.3455,-20.64548 -1.2,-21.5 -1.9014,-1.90147 -6.5916,-1.45796 -7.7648,0.73426 -0.6124,1.14428 -1.0352,9.92518 -1.0352,21.5 l 0,19.56574 -5.49998,0 -5.5,0 0,-38 z m 41.99998,11 0,-27 6,0 c 5.1874,0 6,0.25245 6,1.86399 0,1.74727 0.2924,1.71596 4.6695,-0.5 2.5682,-1.30019 5.7182,-2.36399 7,-2.36399 2.1818,0 2.3305,0.38302 2.3305,6 l 0,6 -4.4111,0 c -3.698,0 -4.8296,0.49736 -7,3.07673 -2.5802,3.06636 -2.5889,3.13877 -2.5889,21.5 l 0,18.42327 -6,0 -6,0 0,-27 z m 29,22.15403 c 0,-4.00552 1.3875,-7.72903 8,-21.46935 4.4,-9.14286 8,-16.86218 8,-17.15403 0,-0.29186 -3.375,-0.53065 -7.5,-0.53065 l -7.5,0 0,-5 0,-5 14.5,0 14.5,0 0,4.01111 c 0,3.03529 -2.0678,8.14144 -8.5,20.98889 -4.675,9.33778 -8.5,17.20778 -8.5,17.48889 0,0.28111 3.825,0.51111 8.5,0.51111 l 8.5,0 0,5.5 0,5.5 -15,0 -15,0 0,-4.84597 z m 43.9217,2.57217 c -1.8557,-1.25058 -4.3973,-3.79213 -5.6479,-5.64788 -2.1327,-3.16471 -2.2738,-4.37961 -2.2738,-19.57832 0,-15.15819 0.1453,-16.41764 2.25,-19.51017 3.8647,-5.67831 7.1903,-7.48983 13.75,-7.48983 6.5598,0 9.8854,1.81152 13.75,7.48983 1.9756,2.90267 2.25,4.56873 2.25,13.65805 l 0,10.35212 -10.5,0 -10.5,0 0,4.47695 c 0,3.67192 0.4496,4.77149 2.5,6.11501 2.3159,1.51741 2.6842,1.51741 5,0 1.375,-0.90094 2.5,-2.30269 2.5,-3.11501 0,-1.12358 1.316,-1.47695 5.5,-1.47695 5.3811,0 5.5,0.0617 5.5,2.85212 0,6.79338 -8.3173,14.14788 -16,14.14788 -3.2371,0 -5.7565,-0.70913 -8.0783,-2.2738 z m 13.0783,-33.79194 c 0,-4.66461 -1.6365,-6.93426 -5,-6.93426 -3.3634,0 -5,2.26965 -5,6.93426 0,3.01222 0.087,3.06574 5,3.06574 4.9127,0 5,-0.0535 5,-3.06574 z m 23.4,32.66574 -3.4,-3.4 0,-23.6 0,-23.6 5.5,0 5.5,0 0,19.5 c 0,18.16667 0.1368,19.63675 2,21.5 2.4075,2.40751 2.9174,2.44663 5.7775,0.4433 2.1704,-1.52017 2.2225,-2.02478 2.2225,-21.5 l 0,-19.9433 6,0 6,0 0,27 0,27 -6,0 c -5.4033,0 -6,-0.20609 -6,-2.07258 l 0,-2.07258 -2.6348,2.07258 c -1.7721,1.39393 -4.097,2.07258 -7.1,2.07258 -3.7447,0 -5.0138,-0.54861 -7.8652,-3.4 z m 89.5217,1.1262 c -1.8557,-1.25058 -4.3973,-3.79213 -5.6479,-5.64788 -2.1327,-3.16471 -2.2738,-4.37961 -2.2738,-19.57832 0,-15.15819 0.1453,-16.41764 2.25,-19.51017 3.8647,-5.67831 7.1903,-7.48983 13.75,-7.48983 6.5598,0 9.8854,1.81152 13.75,7.48983 1.9756,2.90267 2.25,4.56873 2.25,13.65805 l 0,10.35212 -10.5,0 -10.5,0 0,4 c 0,3.72818 2.5511,8 4.7775,8 1.5949,0 5.2225,-3.16513 5.2225,-4.5567 0,-1.08279 1.3738,-1.4433 5.5,-1.4433 5.2639,0 5.5,0.11221 5.5,2.61385 0,4.04304 -3.8391,9.92742 -8.004,12.26826 -5.0993,2.86594 -11.685,2.80206 -16.0743,-0.15591 z m 13.0783,-34.5262 c 0,-4.50993 -1.4079,-6.2 -5.1648,-6.2 -3.1888,0 -4.8352,2.36107 -4.8352,6.93426 0,3.01222 0.087,3.06574 5,3.06574 l 5,0 0,-3.8 z"
       id="path2846"
       style="fill:#000000" />
  </g>
</svg>
