<?xml version="1.0" encoding="UTF-8" standalone="no"?>
<!-- Created with Inkscape (http://www.inkscape.org/) -->
<svg
   xmlns:svg="http://www.w3.org/2000/svg"
   xmlns="http://www.w3.org/2000/svg"
   version="1.0"
   width="490"
   height="270"
   id="svg2">
  <defs
     id="defs4" />
  <path
     d="M 38.78125,4.984375 C 20.356889,4.9843748 9.96875,12.12016 9.96875,33.203125 L 9.65625,236.79688 C 9.65625,257.87984 20.044391,265.01563 38.46875,265.01563 L 451.21875,264.98438 C 469.64311,264.98438 480.03124,257.84859 480.03125,236.76563 L 480.34375,33.234375 C 480.34375,12.15141 469.95561,5.0156248 451.53125,5.015625 L 38.78125,4.984375 z "
     style="fill:white;fill-opacity:1;fill-rule:evenodd;stroke:black;stroke-width:2;stroke-linecap:butt;stroke-linejoin:miter;stroke-miterlimit:4;stroke-dasharray:none;stroke-opacity:1"
     id="path1881" />
  <path
     d="M 453.3125,17.796875 L 36.78125,17.828125 C 28.356999,17.828125 23.40625,23.829135 23.40625,32.703125 L 23.40625,237.35938 C 23.406249,246.23335 28.35701,252.23438 36.78125,252.23438 L 453.28125,252.20313 C 461.70549,252.20312 466.65625,246.20211 466.65625,237.32813 L 466.65625,32.671875 C 466.65625,23.797885 461.73674,17.796875 453.3125,17.796875 z "
     style="fill:none;fill-opacity:1;fill-rule:evenodd;stroke:black;stroke-width:10.05090809;stroke-linecap:butt;stroke-linejoin:miter;stroke-miterlimit:4;stroke-dasharray:none;stroke-opacity:1"
     id="path3976" />
  <path
     d="M 86.205149,144.798 C 86.205133,146.508 86.272487,147.79117 86.407212,148.64751 C 86.541904,149.50389 87.21751,150.81043 88.43403,152.56712 C 89.650513,154.32385 91.879391,155.2022 95.120671,155.20219 C 96.924092,155.2022 98.591455,154.81938 100.12276,154.05373 C 101.65401,153.2881 102.77979,152.29703 103.5001,151.08051 C 104.22035,149.86403 104.60317,148.60285 104.64856,147.29698 C 104.69389,145.99116 104.71657,145.1128 104.71661,144.66192 L 104.71661,138.31136 C 104.71657,136.50794 104.64922,135.15604 104.51454,134.25566 C 104.3798,133.35535 103.8389,132.38696 102.89185,131.35049 C 101.94473,130.31409 100.59352,129.36838 98.838221,128.51336 C 97.082856,127.65841 94.020296,126.41991 89.650532,124.79787 C 85.280729,123.17591 81.609231,120.63088 78.636028,117.16277 C 75.662807,113.69476 74.176201,108.94216 74.176205,102.90494 L 74.176205,98.851313 C 74.176201,92.726263 76.225697,87.434133 80.324699,82.974923 C 84.42368,78.515873 89.535735,76.286313 95.660881,76.286223 C 101.87669,76.286313 107.07947,78.471203 111.26923,82.840903 C 115.4589,87.210773 117.55375,92.547563 117.5538,98.851313 L 117.5538,102.90494 L 104.71661,102.90494 L 104.71661,98.851313 C 104.71657,97.592263 104.62654,96.511853 104.4465,95.610053 C 104.2664,94.708403 103.54543,93.401863 102.2836,91.690443 C 101.0217,89.979173 98.904859,89.123493 95.933047,89.123413 C 93.321323,89.123493 91.181792,90.047213 89.514449,91.894563 C 87.847066,93.742073 87.013385,96.060983 87.013402,98.851313 L 87.013402,102.90494 C 87.013385,104.61773 87.081426,105.85691 87.217527,106.62249 C 87.353593,107.38819 87.826448,108.26655 88.636093,109.25756 C 89.4457,110.24869 90.616841,111.10437 92.149518,111.82459 C 93.68215,112.54492 96.632681,113.69338 101.00112,115.26997 C 105.36949,116.84667 109.22038,119.41438 112.55377,122.97312 C 115.88708,126.53194 117.55375,131.37389 117.5538,137.49898 L 117.5538,144.798 C 117.55375,147.76986 117.26097,150.38156 116.67545,152.6331 C 116.08983,154.88467 114.26576,158.01528 111.20325,162.02491 C 108.14064,166.03456 102.87051,168.03939 95.392838,168.03939 C 87.645691,168.03939 82.015419,165.49435 78.502007,160.40429 C 74.988577,155.31423 73.231866,150.11214 73.231869,144.798 L 73.231869,141.55262 L 86.205149,141.55262 L 86.205149,144.798 z M 146.97255,154.93002 L 149.94576,154.93002 L 149.94576,167.22701 L 145.89213,167.22701 C 143.4591,167.22701 141.29689,166.97959 139.40549,166.48474 C 137.51405,165.98989 135.66731,164.97614 133.86525,163.44348 C 132.06316,161.91083 130.80199,160.22147 130.08172,158.37541 C 129.36143,156.52936 129.00129,154.25512 129.0013,151.55268 L 129.0013,113.04109 L 122.65074,113.04109 L 122.65074,102.90494 L 129.0013,102.90494 L 129.0013,83.449153 L 141.97458,83.449153 L 141.97458,102.90494 L 149.94576,102.90494 L 149.94576,113.04109 L 141.97458,113.04109 L 141.97458,149.25576 C 141.97456,151.41661 142.26734,152.90253 142.85293,153.71352 C 143.43848,154.52454 144.81169,154.93004 146.97255,154.93002 L 146.97255,154.93002 z M 189.31096,102.09669 L 189.31096,115.33801 C 188.68137,115.15937 188.05113,115.02466 187.42023,114.93389 C 186.78926,114.84322 186.20301,114.79786 185.66145,114.7978 C 181.42772,114.79786 178.18509,116.2391 175.93356,119.12154 C 173.68198,122.00408 172.5562,125.47283 172.55622,129.5278 L 172.55622,167.22701 L 159.58294,167.22701 L 159.58294,102.90494 L 172.55622,102.90494 L 172.55622,109.79983 C 174.80776,107.00675 177.57753,105.02461 180.86555,103.8534 C 184.15351,102.68233 186.96865,102.09676 189.31096,102.09669 L 189.31096,102.09669 z M 215.29464,154.93002 C 217.18879,154.93004 218.72075,154.34447 219.89055,153.17331 C 221.06029,152.00218 221.78125,150.4709 222.05345,148.57947 L 234.89064,148.57947 L 234.89064,150.06401 C 234.8906,152.04617 234.46242,154.02831 233.6061,156.01044 C 232.7497,157.9926 230.97031,160.49295 228.26792,163.51152 C 225.56546,166.5301 221.33176,168.03939 215.56681,168.03939 C 211.87192,168.03939 208.47053,167.04832 205.36262,165.06617 C 202.25468,163.08403 200.11515,160.89914 198.94402,158.51149 C 197.77287,156.12386 197.02991,153.96165 196.71514,152.02485 C 196.40036,150.08808 196.24297,148.17399 196.24297,146.28254 L 196.24297,121.82465 C 196.24297,116.51058 198.15707,111.89406 201.98528,107.97508 C 205.81347,104.05622 210.386,102.09676 215.70289,102.09669 C 221.19843,102.09676 225.77028,104.01086 229.41844,107.839 C 233.06654,111.66726 234.8906,116.32914 234.89064,121.82465 L 234.89064,139.65982 L 209.21625,139.65982 L 209.21625,149.25576 C 209.21623,150.60561 209.86916,151.88878 211.17503,153.10527 C 212.48086,154.32178 213.85406,154.93004 215.29464,154.93002 L 215.29464,154.93002 z M 215.56681,114.7978 C 213.85406,114.79786 212.36745,115.38343 211.10699,116.55452 C 209.84648,117.72571 209.21623,119.7972 209.21625,122.76899 L 209.21625,129.11955 L 221.91736,129.11955 L 221.91736,122.76899 C 221.91733,120.42675 221.4218,118.51265 220.43076,117.02669 C 219.43966,115.54082 217.81834,114.79786 215.56681,114.7978 L 215.56681,114.7978 z M 270.90325,167.22701 L 270.90325,160.74037 C 269.37194,163.08266 267.68259,164.88473 265.83518,166.14659 C 263.98772,167.40845 261.75816,168.03939 259.14648,168.03939 C 256.53476,168.03939 254.08045,167.31842 251.78354,165.87649 C 249.48661,164.43456 247.88729,162.79056 246.98557,160.9445 C 246.08384,159.09844 245.56563,157.58984 245.43092,156.41869 C 245.29621,155.24756 245.22885,153.53484 245.22886,151.28052 L 245.22886,102.90494 L 258.20214,102.90494 L 258.20214,146.41863 C 258.20212,147.40835 258.2248,148.42141 258.27018,149.45782 C 258.31552,150.49427 258.81106,151.68809 259.75679,153.03929 C 260.70248,154.39051 262.34647,155.06612 264.68878,155.06611 C 265.8599,155.06612 266.94031,154.75065 267.93004,154.11971 C 268.91971,153.48879 269.6173,152.74583 270.02284,151.89083 C 270.42831,151.03586 270.67642,150.11283 270.76717,149.12174 C 270.85786,148.13069 270.90322,147.22965 270.90325,146.41863 L 270.90325,102.90494 L 283.87653,102.90494 L 283.87653,167.22701 L 270.90325,167.22701 z M 329.96755,184.93022 C 328.16407,187.63262 325.86646,189.77215 323.07472,191.34882 C 320.28292,192.92543 317.3104,193.71375 314.15714,193.71378 C 308.66155,193.71375 303.95431,191.84433 300.0354,188.1055 C 296.11647,184.36662 294.15701,179.70405 294.15701,174.11778 L 307.13029,174.11778 C 307.13027,175.92122 307.71584,177.45318 308.887,178.71368 C 310.05812,179.97416 311.5894,180.6044 313.48085,180.60442 C 316.18324,180.6044 318.16539,179.3879 319.42728,176.95491 C 319.78739,176.05592 319.96746,174.61537 319.96749,172.63323 L 319.96749,160.60429 C 318.70559,162.76788 316.99356,164.54796 314.83137,165.94453 C 312.66914,167.3411 310.37153,168.03939 307.93854,168.03939 C 305.32683,168.03939 302.91788,167.3411 300.71169,165.94453 C 298.50548,164.54796 296.92884,162.94864 295.98177,161.14656 C 295.03467,159.34449 294.49378,157.90325 294.35907,156.82282 C 294.22436,155.74241 294.15701,154.07505 294.15701,151.82072 L 294.15701,116.15039 C 294.15701,114.52844 294.35976,113.04183 294.76526,111.69057 C 295.17076,110.33941 296.29722,108.37995 298.14467,105.81218 C 299.99209,103.24453 303.21273,101.96067 307.80658,101.96061 C 310.23682,101.96067 312.48838,102.56892 314.56127,103.78536 C 316.63411,105.00193 318.43618,106.6906 319.96749,108.85137 L 319.96749,102.90494 L 332.94077,102.90494 L 332.94077,172.63323 C 332.94072,175.1542 332.73797,177.38308 332.33252,179.31987 C 331.92697,181.25664 331.13865,183.12675 329.96755,184.93022 L 329.96755,184.93022 z M 318.75099,117.23081 C 317.39837,115.42741 315.64166,114.52569 313.48085,114.52564 C 310.9571,114.52569 309.31242,115.26934 308.5468,116.75658 C 307.78114,118.24392 307.35364,119.37039 307.26431,120.13598 C 307.17495,120.90167 307.13027,121.68999 307.13029,122.50095 L 307.13029,146.95884 C 307.13027,148.22072 307.19763,149.23447 307.33235,150.00009 C 307.46705,150.76575 307.98526,151.77882 308.887,153.03929 C 309.78871,154.29979 311.40933,154.93004 313.74889,154.93002 C 316.54201,154.93004 318.25405,154.14172 318.88501,152.56506 C 319.51591,150.98843 319.83137,149.79461 319.8314,148.98359 C 319.83137,148.17261 319.87674,147.49769 319.96749,146.95884 L 319.96749,122.50095 C 319.96746,121.23913 319.89942,120.24806 319.76336,119.52773 C 319.62725,118.8075 319.28979,118.04186 318.75099,117.23081 L 318.75099,117.23081 z M 370.1369,167.22701 L 370.1369,160.74037 C 368.60559,163.08266 366.91623,164.88473 365.06882,166.14659 C 363.22136,167.40845 360.9918,168.03939 358.38012,168.03939 C 355.7684,168.03939 353.31409,167.31842 351.01718,165.87649 C 348.72025,164.43456 347.12093,162.79056 346.21922,160.9445 C 345.31749,159.09844 344.79927,157.58984 344.66457,156.41869 C 344.52985,155.24756 344.4625,153.53484 344.4625,151.28052 L 344.4625,102.90494 L 357.43578,102.90494 L 357.43578,146.41863 C 357.43576,147.40835 357.45844,148.42141 357.50382,149.45782 C 357.54917,150.49427 358.0447,151.68809 358.99043,153.03929 C 359.93612,154.39051 361.58012,155.06612 363.92242,155.06611 C 365.09354,155.06612 366.17396,154.75065 367.16368,154.11971 C 368.15335,153.48879 368.85095,152.74583 369.25648,151.89083 C 369.66195,151.03586 369.91006,150.11283 370.00081,149.12174 C 370.0915,148.13069 370.13686,147.22965 370.1369,146.41863 L 370.1369,102.90494 L 383.11018,102.90494 L 383.11018,167.22701 L 370.1369,167.22701 z M 413.79491,154.93002 L 416.76812,154.93002 L 416.76812,167.22701 L 412.71449,167.22701 C 410.28146,167.22701 408.11925,166.97959 406.22785,166.48474 C 404.33641,165.98989 402.48967,164.97614 400.68761,163.44348 C 398.88552,161.91083 397.62435,160.22147 396.90408,158.37541 C 396.18379,156.52936 395.82365,154.25512 395.82366,151.55268 L 395.82366,113.04109 L 389.4731,113.04109 L 389.4731,102.90494 L 395.82366,102.90494 L 395.82366,83.449153 L 408.79694,83.449153 L 408.79694,102.90494 L 416.76812,102.90494 L 416.76812,113.04109 L 408.79694,113.04109 L 408.79694,149.25576 C 408.79692,151.41661 409.0897,152.90253 409.6753,153.71352 C 410.26084,154.52454 411.63405,154.93004 413.79491,154.93002 L 413.79491,154.93002 z "
     style="font-size:135.12664795px;font-style:normal;font-variant:normal;font-weight:normal;font-stretch:normal;text-indent:0;text-align:center;text-decoration:none;line-height:100%;letter-spacing:normal;word-spacing:normal;text-transform:none;direction:ltr;block-progression:tb;writing-mode:lr-tb;text-anchor:middle;color:black;fill:black;fill-opacity:1;fill-rule:nonzero;stroke:none;stroke-width:1;stroke-linecap:round;stroke-linejoin:miter;marker:none;marker-start:none;marker-mid:none;marker-end:none;stroke-miterlimit:4;stroke-dashoffset:0;stroke-opacity:1;visibility:visible;display:inline;overflow:visible;font-family:DIN 1451 Engschrift"
     id="text2009" />
</svg>
