<?xml version="1.0" encoding="UTF-8" standalone="no"?>
<!-- Created with Inkscape (http://www.inkscape.org/) -->
<svg
   xmlns:svg="http://www.w3.org/2000/svg"
   xmlns="http://www.w3.org/2000/svg"
   version="1.0"
   width="490"
   height="270"
   id="svg2">
  <defs
     id="defs4" />
  <path
     d="M 38.78125,4.984375 C 20.356889,4.9843748 9.96875,12.12016 9.96875,33.203125 L 9.65625,236.79688 C 9.65625,257.87984 20.044391,265.01563 38.46875,265.01563 L 451.21875,264.98438 C 469.64311,264.98438 480.03124,257.84859 480.03125,236.76563 L 480.34375,33.234375 C 480.34375,12.15141 469.95561,5.0156248 451.53125,5.015625 L 38.78125,4.984375 z "
     style="fill:white;fill-opacity:1;fill-rule:evenodd;stroke:black;stroke-width:2;stroke-linecap:butt;stroke-linejoin:miter;stroke-miterlimit:4;stroke-dasharray:none;stroke-opacity:1"
     id="path1881" />
  <path
     d="M 453.3125,17.796875 L 36.78125,17.828125 C 28.356999,17.828125 23.40625,23.829135 23.40625,32.703125 L 23.40625,237.35938 C 23.406249,246.23335 28.35701,252.23438 36.78125,252.23438 L 453.28125,252.20313 C 461.70549,252.20312 466.65625,246.20211 466.65625,237.32813 L 466.65625,32.671875 C 466.65625,23.797885 461.73674,17.796875 453.3125,17.796875 z "
     style="fill:none;fill-opacity:1;fill-rule:evenodd;stroke:black;stroke-width:10.05090809;stroke-linecap:butt;stroke-linejoin:miter;stroke-miterlimit:4;stroke-dasharray:none;stroke-opacity:1"
     id="path3976" />
  <path
     d="M 76.224038,119.93411 L 64.137711,60.65252 L 73.02344,60.65252 L 79.869466,101.80191 L 86.889083,60.65252 L 95.867033,60.65252 L 83.512181,119.93411 L 76.224038,119.93411 z M 111.96496,111.84582 C 113.21082,111.84583 114.21847,111.46067 114.9879,110.69035 C 115.75729,109.92005 116.2315,108.91285 116.41053,107.66877 L 124.85415,107.66877 L 124.85415,108.64522 C 124.85412,109.94898 124.57248,111.25272 124.00924,112.55646 C 123.44595,113.86021 122.27556,115.50481 120.49808,117.49027 C 118.72055,119.47572 115.93585,120.46845 112.14397,120.46845 C 109.71368,120.46845 107.47642,119.81658 105.43221,118.51283 C 103.38798,117.20909 101.98071,115.77198 101.2104,114.20152 C 100.44009,112.63106 99.951408,111.20887 99.744368,109.93495 C 99.53732,108.66106 99.433798,107.40206 99.433801,106.15798 L 99.433801,90.070902 C 99.433798,86.575593 100.69279,83.539096 103.21078,80.961402 C 105.72875,78.383787 108.73632,77.09496 112.23348,77.094917 C 115.84815,77.09496 118.85526,78.353951 121.25483,80.871894 C 123.65435,83.389915 124.85412,86.456248 124.85415,90.070902 L 124.85415,101.80191 L 107.96692,101.80191 L 107.96692,108.1136 C 107.96691,109.00146 108.39637,109.84546 109.2553,110.6456 C 110.1142,111.44575 111.01742,111.84583 111.96496,111.84582 L 111.96496,111.84582 z M 112.14397,85.449021 C 111.01742,85.449055 110.03961,85.834212 109.21054,86.604491 C 108.38145,87.374837 107.96691,88.737351 107.96692,90.692035 L 107.96692,94.869087 L 116.32103,94.869087 L 116.32103,90.692035 C 116.32101,89.151439 115.99507,87.892448 115.34322,86.915058 C 114.69132,85.937734 113.62491,85.449055 112.14397,85.449021 L 112.14397,85.449021 z M 151.11804,77.094917 L 151.11804,85.804342 C 150.70393,85.68684 150.28939,85.598236 149.87442,85.538529 C 149.4594,85.478892 149.0738,85.449055 148.71759,85.449021 C 145.93287,85.449055 143.80005,86.397028 142.31911,88.292943 C 140.83814,90.18892 140.09766,92.470474 140.09768,95.137612 L 140.09768,119.93411 L 131.56456,119.93411 L 131.56456,77.626541 L 140.09768,77.626541 L 140.09768,82.161627 C 141.57862,80.324487 143.40042,79.020741 145.5631,78.250387 C 147.72575,77.480116 149.57739,77.09496 151.11804,77.094917 L 151.11804,77.094917 z M 167.23224,112.46695 C 168.53597,112.46696 169.6616,112.05242 170.60914,111.22333 C 171.55665,110.39426 172.03041,109.32785 172.03043,108.02409 C 172.03041,106.48348 171.63078,105.34292 170.83156,104.60243 C 170.03229,103.86197 168.77285,103.19518 167.05322,102.60206 L 165.36613,101.98093 C 163.58861,101.32817 162.1072,100.69076 160.92191,100.0687 C 159.73659,99.446687 158.46269,98.321054 157.10018,96.691801 C 155.73766,95.062595 155.0564,92.707354 155.0564,89.626073 C 155.0564,86.130764 156.27109,83.168405 158.70048,80.738988 C 161.12985,78.309649 164.12204,77.09496 167.67707,77.094917 C 170.93551,77.09496 173.69038,78.339033 175.94167,80.82714 C 178.19291,83.315325 179.31854,86.12986 179.31857,89.270752 L 171.4988,89.270752 C 171.49878,88.02671 171.09871,87.004599 170.29858,86.204416 C 169.49841,85.404301 168.44646,85.004227 167.14273,85.004192 C 165.95832,85.004227 164.98096,85.448603 164.21066,86.337323 C 163.44033,87.226109 163.05518,88.292522 163.05519,89.536565 C 163.05518,90.840341 163.44033,91.847986 164.21066,92.559503 C 164.98096,93.271075 166.10659,93.893564 167.58756,94.426971 L 170.34333,95.313916 C 171.94361,95.907045 173.2026,96.470314 174.12031,97.003724 C 175.03797,97.537179 175.95611,98.336876 176.87472,99.402816 C 177.79329,100.4688 178.54913,101.71287 179.14226,103.13504 C 179.73534,104.55724 180.03189,106.06848 180.03192,107.66877 C 180.03189,111.10626 178.80229,114.11337 176.3431,116.69012 C 173.88386,119.26687 170.93551,120.55525 167.49805,120.55525 C 165.42398,120.55525 163.33546,119.99243 161.23247,118.86679 C 159.12948,117.74116 157.50025,116.21545 156.34478,114.28967 C 155.18931,112.36389 154.61157,110.18676 154.61158,107.75828 L 162.52085,107.75828 C 162.52084,109.06203 162.98014,110.17275 163.89874,111.09043 C 164.81731,112.00812 165.92848,112.46696 167.23224,112.46695 L 167.23224,112.46695 z M 210.4349,107.75828 C 210.43487,111.25363 209.16096,114.24582 206.61317,116.73487 C 204.06532,119.22392 201.04284,120.46845 197.54571,120.46845 C 195.65065,120.46845 193.76962,119.97932 191.90262,119.00106 C 190.03559,118.0228 188.62833,116.85241 187.68081,115.48989 C 186.73329,114.12738 186.06695,112.73503 185.68179,111.31284 C 185.29663,109.89066 185.10406,108.43909 185.10406,106.95813 L 185.10406,90.426223 C 185.10406,86.930913 186.30383,83.835196 188.70338,81.139063 C 191.10291,78.443007 194.08019,77.09496 197.63522,77.094917 C 201.30956,77.09496 204.36142,78.398253 206.79083,81.0048 C 209.22018,83.611426 210.43487,86.751897 210.4349,90.426223 L 201.99128,90.426223 C 201.99126,89.122507 201.62103,87.967038 200.88057,86.959812 C 200.14007,85.952652 199.11796,85.449055 197.81423,85.449021 C 197.0439,85.449055 196.37711,85.611798 195.81386,85.937248 C 195.25058,86.262766 194.74698,86.766363 194.30307,87.448039 C 193.85913,88.12978 193.63717,89.122507 193.63718,90.426223 L 193.63718,106.95813 C 193.63717,108.49877 193.9631,109.71345 194.61499,110.6022 C 195.26685,111.49096 196.36219,111.93534 197.90103,111.93533 C 199.14689,111.93534 200.14007,111.47604 200.88057,110.55744 C 201.62103,109.63886 201.99126,108.5277 201.99128,107.22394 L 210.4349,107.22394 L 210.4349,107.75828 z M 233.07506,77.094917 C 234.61566,77.09496 236.06768,77.5095 237.43112,78.338539 C 238.79452,79.167661 239.77233,80.130552 240.36455,81.227215 C 240.95673,82.323955 241.32697,83.257461 241.47527,84.027738 C 241.62352,84.798087 241.69766,85.80528 241.69768,87.04932 L 241.69768,119.93411 L 233.16456,119.93411 L 233.16456,90.247206 C 233.16454,88.825955 232.83861,87.670938 232.18675,86.782152 C 231.53486,85.893432 230.49828,85.449055 229.07702,85.449021 C 227.83293,85.449055 226.81082,85.937734 226.01068,86.915058 C 225.21052,87.892448 224.81045,89.003163 224.81046,90.247206 L 224.81046,119.93411 L 216.27734,119.93411 L 216.27734,60.65252 L 224.81046,60.65252 L 224.81046,81.716798 C 226.76516,78.635585 229.52002,77.09496 233.07506,77.094917 L 233.07506,77.094917 z M 273.34564,81.448273 C 274.47214,80.02703 275.71667,78.946151 277.07921,78.205633 C 278.4417,77.465198 279.98277,77.09496 281.70245,77.094917 C 284.60465,77.09496 286.98927,78.11707 288.85633,80.161253 C 290.7233,82.205514 291.65681,84.678743 291.65686,87.580945 L 291.65686,119.93411 L 283.12373,119.93411 L 283.12373,89.981394 C 283.1237,88.619815 282.78284,87.5091 282.10117,86.649245 C 281.41943,85.789458 280.36793,85.359547 278.94668,85.359513 C 277.76044,85.359547 276.76771,85.818842 275.9685,86.737397 C 275.16922,87.65602 274.7696,88.737351 274.76963,89.981394 L 274.76963,119.93411 L 266.23651,119.93411 L 266.23651,89.981394 C 266.23649,88.677678 265.85133,87.581429 265.08104,86.692643 C 264.31071,85.803924 263.27368,85.359547 261.96995,85.359513 C 260.78553,85.359547 259.79326,85.818842 258.99312,86.737397 C 258.19296,87.65602 257.79288,88.737351 257.7929,89.981394 L 257.7929,119.93411 L 249.25978,119.93411 L 249.25978,77.626541 L 257.7929,77.626541 L 257.7929,81.448273 C 259.7476,78.546077 262.41386,77.09496 265.79168,77.094917 C 267.39196,77.09496 268.82906,77.465198 270.10299,78.205633 C 271.37688,78.946151 272.45776,80.02703 273.34564,81.448273 L 273.34564,81.448273 z M 316.05736,119.93411 L 316.05736,115.66755 C 315.05014,117.20818 313.93898,118.39349 312.72385,119.22347 C 311.50869,120.05346 310.04221,120.46845 308.32438,120.46845 C 306.60654,120.46845 304.99223,119.99424 303.48145,119.04581 C 301.97065,118.09739 300.9187,117.01606 300.3256,115.80181 C 299.73249,114.58758 299.39164,113.59531 299.30304,112.82499 C 299.21443,112.05468 299.17013,110.92814 299.17013,109.44537 L 299.17013,77.626541 L 307.70325,77.626541 L 307.70325,106.24749 C 307.70324,106.89847 307.71816,107.56481 307.74801,108.2465 C 307.77783,108.92822 308.10377,109.71345 308.72582,110.6022 C 309.34784,111.49096 310.42917,111.93534 311.96981,111.93533 C 312.74011,111.93534 313.45075,111.72784 314.10174,111.31284 C 314.75269,110.89786 315.21153,110.40918 315.47826,109.8468 C 315.74496,109.28445 315.90815,108.67733 315.96785,108.02545 C 316.0275,107.37358 316.05734,106.78093 316.05736,106.24749 L 316.05736,77.626541 L 324.59048,77.626541 L 324.59048,119.93411 L 316.05736,119.93411 z M 344.77322,111.84582 L 346.72884,111.84582 L 346.72884,119.93411 L 344.06258,119.93411 C 342.46226,119.93411 341.04008,119.77137 339.79602,119.44589 C 338.55193,119.1204 337.33724,118.45361 336.15194,117.44551 C 334.96663,116.43742 334.1371,115.32625 333.66334,114.11201 C 333.18958,112.89778 332.9527,111.4019 332.9527,109.62439 L 332.9527,84.293551 L 328.77565,84.293551 L 328.77565,77.626541 L 332.9527,77.626541 L 332.9527,64.829573 L 341.48582,64.829573 L 341.48582,77.626541 L 346.72884,77.626541 L 346.72884,84.293551 L 341.48582,84.293551 L 341.48582,108.1136 C 341.48581,109.53489 341.67839,110.51225 342.06356,111.04567 C 342.4487,111.57911 343.35192,111.84583 344.77322,111.84582 L 344.77322,111.84582 z M 351.29105,119.93411 L 351.29105,112.91178 L 364.88817,84.914684 L 352.2675,84.914684 L 352.2675,77.626541 L 374.40045,77.626541 L 374.40045,83.759214 L 360.80062,111.84582 L 374.40045,111.84582 L 374.40045,119.93411 L 351.29105,119.93411 z M 392.85815,111.84582 L 394.81377,111.84582 L 394.81377,119.93411 L 392.14751,119.93411 C 390.54719,119.93411 389.12501,119.77137 387.88095,119.44589 C 386.63686,119.1204 385.42217,118.45361 384.23687,117.44551 C 383.05156,116.43742 382.22203,115.32625 381.74827,114.11201 C 381.27451,112.89778 381.03763,111.4019 381.03763,109.62439 L 381.03763,84.293551 L 376.86058,84.293551 L 376.86058,77.626541 L 381.03763,77.626541 L 381.03763,64.829573 L 389.57075,64.829573 L 389.57075,77.626541 L 394.81377,77.626541 L 394.81377,84.293551 L 389.57075,84.293551 L 389.57075,108.1136 C 389.57074,109.53489 389.76332,110.51225 390.14849,111.04567 C 390.53363,111.57911 391.43685,111.84583 392.85815,111.84582 L 392.85815,111.84582 z M 412.9731,111.84582 C 414.21896,111.84583 415.22661,111.46067 415.99604,110.69035 C 416.76543,109.92005 417.23964,108.91285 417.41868,107.66877 L 425.86229,107.66877 L 425.86229,108.64522 C 425.86226,109.94898 425.58062,111.25272 425.01738,112.55646 C 424.45409,113.86021 423.2837,115.50481 421.50622,117.49027 C 419.72869,119.47572 416.94399,120.46845 413.15211,120.46845 C 410.72182,120.46845 408.48456,119.81658 406.44035,118.51283 C 404.39612,117.20909 402.98885,115.77198 402.21855,114.20152 C 401.44823,112.63106 400.95955,111.20887 400.75251,109.93495 C 400.54546,108.66106 400.44194,107.40206 400.44194,106.15798 L 400.44194,90.070902 C 400.44194,86.575593 401.70093,83.539096 404.21892,80.961402 C 406.73689,78.383787 409.74446,77.09496 413.24162,77.094917 C 416.85629,77.09496 419.8634,78.353951 422.26297,80.871894 C 424.66249,83.389915 425.86226,86.456248 425.86229,90.070902 L 425.86229,101.80191 L 408.97506,101.80191 L 408.97506,108.1136 C 408.97505,109.00146 409.40451,109.84546 410.26344,110.6456 C 411.12234,111.44575 412.02556,111.84583 412.9731,111.84582 L 412.9731,111.84582 z M 413.15211,85.449021 C 412.02556,85.449055 411.04775,85.834212 410.21868,86.604491 C 409.38959,87.374837 408.97505,88.737351 408.97506,90.692035 L 408.97506,94.869087 L 417.32917,94.869087 L 417.32917,90.692035 C 417.32915,89.151439 417.00321,87.892448 416.35136,86.915058 C 415.69947,85.937734 414.63305,85.449055 413.15211,85.449021 L 413.15211,85.449021 z M 124.2954,208.81314 L 124.2954,149.53155 L 149.53673,149.53155 L 149.53673,157.53033 L 132.6495,157.53033 L 132.6495,175.3045 L 147.4916,175.3045 L 147.4916,183.21649 L 132.6495,183.21649 L 132.6495,208.81314 L 124.2954,208.81314 z M 156.30952,204.37028 C 155.89362,203.65783 155.62645,202.87215 155.50801,202.01323 C 155.38957,201.15432 155.33035,200.19142 155.33035,199.12455 L 155.33035,194.32636 C 155.33035,191.18546 156.11558,188.84468 157.68605,187.30403 C 159.2565,185.76343 160.67869,184.71194 161.95261,184.14955 C 163.22651,183.58721 164.75222,183.30602 166.52974,183.306 L 172.21758,183.306 L 172.21758,179.66057 C 172.21756,178.83062 172.17326,178.14936 172.08467,177.6168 C 171.99605,177.0843 171.62581,176.40305 170.97396,175.57303 C 170.32207,174.74308 169.43286,174.32808 168.30634,174.32805 C 167.12192,174.32808 166.11473,174.71324 165.28476,175.48352 C 164.45476,176.25387 163.95116,177.26106 163.77397,178.5051 L 155.33035,178.5051 C 155.33035,175.06946 156.55996,172.12202 159.01918,169.66277 C 161.47839,167.2036 164.45566,165.97399 167.95102,165.97394 C 171.38848,165.97399 174.38113,167.18868 176.92897,169.61802 C 179.47676,172.04743 180.75067,175.00979 180.7507,178.5051 L 180.7507,208.81314 L 172.21758,208.81314 L 172.21758,204.54658 C 171.32971,206.02754 170.219,207.19793 168.88543,208.05775 C 167.55183,208.91757 166.05506,209.34748 164.3951,209.34748 C 160.66287,209.34748 157.96768,207.68841 156.30952,204.37028 L 156.30952,204.37028 z M 163.86347,194.23686 L 163.86347,196.36878 C 163.86346,197.49533 164.26354,198.51789 165.0637,199.43647 C 165.86383,200.35507 166.91488,200.81437 168.21683,200.81436 C 168.92926,200.81437 169.59651,200.63671 170.21856,200.28138 C 170.84058,199.92606 171.31434,199.43739 171.63984,198.81534 C 171.96531,198.19331 172.14297,197.39316 172.17282,196.41489 C 172.20264,195.43664 172.21756,194.74047 172.21758,194.32636 L 172.21758,190.23611 L 169.01698,190.23611 C 167.47634,190.23613 166.23227,190.53268 165.28476,191.12577 C 164.33722,191.71889 163.86346,192.75592 163.86347,194.23686 L 163.86347,194.23686 z M 204.95319,165.97394 C 206.4938,165.97399 207.94582,166.38853 209.30926,167.21757 C 210.67265,168.04669 211.65046,169.00958 212.24269,170.10624 C 212.83486,171.20298 213.2051,172.13649 213.35341,172.90677 C 213.50165,173.67712 213.57579,174.68431 213.57582,175.92835 L 213.57582,208.81314 L 205.0427,208.81314 L 205.0427,179.12623 C 205.04268,177.70498 204.71674,176.54997 204.06489,175.66118 C 203.413,174.77246 202.37642,174.32808 200.95516,174.32805 C 199.71107,174.32808 198.68895,174.81676 197.88882,175.79409 C 197.08866,176.77148 196.68858,177.88219 196.68859,179.12623 L 196.68859,208.81314 L 188.15547,208.81314 L 188.15547,149.53155 L 196.68859,149.53155 L 196.68859,170.59583 C 198.6433,167.51461 201.39816,165.97399 204.95319,165.97394 L 204.95319,165.97394 z M 240.6914,165.97394 L 240.6914,174.68337 C 240.27729,174.56587 239.86275,174.47726 239.44778,174.41756 C 239.03276,174.35792 238.64715,174.32808 238.29095,174.32805 C 235.50623,174.32808 233.3734,175.27606 231.89246,177.17197 C 230.4115,179.06795 229.67102,181.3495 229.67103,184.01664 L 229.67103,208.81314 L 221.13791,208.81314 L 221.13791,166.50557 L 229.67103,166.50557 L 229.67103,171.04065 C 231.15197,169.20351 232.97378,167.89977 235.13646,167.12942 C 237.29911,166.35914 239.15075,165.97399 240.6914,165.97394 L 240.6914,165.97394 z M 262.49344,165.97394 C 265.98876,165.97399 268.26986,166.87766 269.33675,168.68496 C 270.40359,170.49234 271.02608,171.91453 271.20422,172.95152 C 271.3823,173.98859 271.47136,174.92119 271.47139,175.74933 L 271.47139,198.94825 C 271.47136,200.42921 271.36739,201.67328 271.15947,202.68047 C 270.95149,203.68767 270.21056,205.05063 268.93668,206.76937 C 267.66274,208.48811 265.48516,209.34748 262.40393,209.34748 C 260.74575,209.34748 259.24988,208.91757 257.91631,208.05775 C 256.58272,207.19793 255.472,206.02754 254.58416,204.54658 L 254.58416,208.81314 L 246.05104,208.81314 L 246.05104,149.53155 L 254.58416,149.53155 L 254.58416,170.59583 C 256.47919,167.51461 259.11562,165.97399 262.49344,165.97394 L 262.49344,165.97394 z M 258.67171,174.32805 C 257.48729,174.32808 256.50993,174.8023 255.73963,175.75069 C 254.96931,176.69915 254.58415,177.7954 254.58416,179.03944 L 254.58416,195.74765 C 254.58415,197.11108 254.83595,198.29638 255.33956,199.30357 C 255.84314,200.31077 256.95386,200.81437 258.67171,200.81436 C 259.91576,200.81437 260.93788,200.44413 261.73804,199.70364 C 262.53817,198.96317 262.93825,198.11827 262.93827,197.16893 L 262.93827,179.03944 C 262.93825,177.67605 262.55309,176.54997 261.7828,175.66118 C 261.01247,174.77246 259.97544,174.32808 258.67171,174.32805 L 258.67171,174.32805 z M 278.86531,204.37028 C 278.44941,203.65783 278.18224,202.87215 278.0638,202.01323 C 277.94536,201.15432 277.88614,200.19142 277.88614,199.12455 L 277.88614,194.32636 C 277.88614,191.18546 278.67137,188.84468 280.24183,187.30403 C 281.81229,185.76343 283.23448,184.71194 284.50839,184.14955 C 285.78229,183.58721 287.308,183.30602 289.08552,183.306 L 294.77336,183.306 L 294.77336,179.66057 C 294.77335,178.83062 294.72904,178.14936 294.64046,177.6168 C 294.55183,177.0843 294.1816,176.40305 293.52974,175.57303 C 292.87785,174.74308 291.98865,174.32808 290.86213,174.32805 C 289.67771,174.32808 288.67052,174.71324 287.84054,175.48352 C 287.01055,176.25387 286.50695,177.26106 286.32975,178.5051 L 277.88614,178.5051 C 277.88614,175.06946 279.11574,172.12202 281.57497,169.66277 C 284.03417,167.2036 287.01145,165.97399 290.5068,165.97394 C 293.94426,165.97399 296.93691,167.18868 299.48475,169.61802 C 302.03255,172.04743 303.30646,175.00979 303.30649,178.5051 L 303.30649,208.81314 L 294.77336,208.81314 L 294.77336,204.54658 C 293.8855,206.02754 292.77478,207.19793 291.44122,208.05775 C 290.10762,208.91757 288.61084,209.34748 286.95089,209.34748 C 283.21865,209.34748 280.52346,207.68841 278.86531,204.37028 L 278.86531,204.37028 z M 286.41926,194.23686 L 286.41926,196.36878 C 286.41925,197.49533 286.81932,198.51789 287.61949,199.43647 C 288.41962,200.35507 289.47066,200.81437 290.77262,200.81436 C 291.48505,200.81437 292.15229,200.63671 292.77435,200.28138 C 293.39637,199.92606 293.87013,199.43739 294.19563,198.81534 C 294.52109,198.19331 294.69875,197.39316 294.72861,196.41489 C 294.75843,195.43664 294.77335,194.74047 294.77336,194.32636 L 294.77336,190.23611 L 291.57277,190.23611 C 290.03212,190.23613 288.78805,190.53268 287.84054,191.12577 C 286.89301,191.71889 286.41925,192.75592 286.41926,194.23686 L 286.41926,194.23686 z M 327.50898,165.97394 C 329.04959,165.97399 330.50161,166.38853 331.86505,167.21757 C 333.22845,168.04669 334.20625,169.00958 334.79848,170.10624 C 335.39066,171.20298 335.76089,172.13649 335.9092,172.90677 C 336.05745,173.67712 336.13158,174.68431 336.13161,175.92835 L 336.13161,208.81314 L 327.59849,208.81314 L 327.59849,179.12623 C 327.59847,177.70498 327.27254,176.54997 326.62068,175.66118 C 325.96879,174.77246 324.93221,174.32808 323.51095,174.32805 C 322.26686,174.32808 321.24475,174.81676 320.44461,175.79409 C 319.64445,176.77148 319.24438,177.88219 319.24439,179.12623 L 319.24439,208.81314 L 310.71127,208.81314 L 310.71127,149.53155 L 319.24439,149.53155 L 319.24439,170.59583 C 321.19909,167.51461 323.95395,165.97399 327.50898,165.97394 L 327.50898,165.97394 z M 367.77956,170.3273 C 368.2551,171.03979 368.58149,171.89961 368.75873,172.90677 C 368.93591,173.914 369.02451,174.92119 369.02454,175.92835 L 369.02454,208.81314 L 360.49142,208.81314 L 360.49142,179.03944 C 360.4914,175.89855 359.09905,174.32808 356.31437,174.32805 C 355.07028,174.32808 354.06309,174.8023 353.29279,175.75069 C 352.52246,176.69915 352.13731,177.7954 352.13732,179.03944 L 352.13732,208.81314 L 343.6042,208.81314 L 343.6042,166.50557 L 352.13732,166.50557 L 352.13732,170.59583 C 354.03416,167.51461 356.67148,165.97399 360.04931,165.97394 C 363.48495,165.97399 366.0617,167.42511 367.77956,170.3273 L 367.77956,170.3273 z "
     style="font-size:88.87899017px;font-style:normal;font-variant:normal;font-weight:normal;font-stretch:normal;text-align:center;line-height:100%;writing-mode:lr-tb;text-anchor:middle;fill:black;fill-opacity:1;stroke:none;stroke-width:1px;stroke-linecap:butt;stroke-linejoin:miter;stroke-opacity:1;font-family:DIN 1451 Engschrift"
     id="text3801" />
</svg>
