<?xml version="1.0" encoding="UTF-8"?>
<!DOCTYPE svg PUBLIC "-//W3C//DTD SVG 1.1//EN" "http://www.w3.org/Graphics/SVG/1.1/DTD/svg11.dtd">
<!-- Creator: CorelDRAW -->
<svg xmlns="http://www.w3.org/2000/svg" xml:space="preserve" width="125.536mm" height="69.8mm" shape-rendering="geometricPrecision" text-rendering="geometricPrecision" image-rendering="optimizeQuality" fill-rule="evenodd" clip-rule="evenodd"
viewBox="0 0 125.536 69.8"
 xmlns:xlink="http://www.w3.org/1999/xlink"
 xmlns:svg="http://www.w3.org/2000/svg"
 version="1.0">
 <g id="Ebene_x0020_1">
  <metadata id="CorelCorpID_0Corel-Layer"/>
  <g id="_89551232">
   <g>
    <path id="path1881" fill="white" stroke="black" stroke-width="0.5292" d="M8.206 0.5c-4.8748,0 -7.6234,1.888 -7.6234,7.4662l-0.0826 53.8676c0,5.5782 2.7485,7.4662 7.6233,7.4662l109.207 -0.0083c4.8748,0 7.6233,-1.888 7.6234,-7.4662l0.0826 -53.851c0,-5.5782 -2.7485,-7.4662 -7.6233,-7.4662l-109.207 -0.0083z"/>
    <path id="path3976" fill="white" stroke="black" stroke-width="2.6593" d="M117.884 3.89l-110.207 0.0083c-2.2289,0 -3.5388,1.5877 -3.5388,3.9357l0 54.1486c0,2.3479 1.3099,3.9357 3.5388,3.9357l110.199 -0.0083c2.229,0 3.5388,-1.5878 3.5388,-3.9357l0 -54.1486c0,-2.3479 -1.3016,-3.9357 -3.5305,-3.9357z"/>
   </g>
   <path id="text3738" fill="black" fill-rule="nonzero" d="M20.0563 24.8871l0 8.1912 6.1862 0c1.5307,0 2.6819,-0.4301 3.4473,-1.284 0.7653,-0.8476 1.1512,-1.8533 1.1512,-2.9982 0,-1.3726 -0.4618,-2.3973 -1.3726,-3.0804 -0.7654,-0.5503 -1.7585,-0.8286 -2.9856,-0.8286l-6.4265 0zm-4.0988 23.3657l0 -27.0028 10.5633 0c2.3087,0 4.1367,0.5946 5.484,1.7837 0.7527,0.6515 1.3916,1.4738 1.9166,2.4606 0.525,0.9931 0.7907,2.0873 0.7907,3.3018 0,1.7395 -0.4681,3.2828 -1.3979,4.6238 -0.9362,1.341 -2.2139,2.2898 -3.8458,2.8401l6.262 11.9928 -4.8515 0 -5.5789 -11.5248 -5.2437 0 0 11.5248 -4.0988 0z"/>
   <path id="text37381" fill="black" fill-rule="nonzero" d="M48.963 48.3287l0 -1.7079 -0.0759 0c-0.3606,0.6705 -0.8982,1.1513 -1.613,1.4485 -0.7654,0.3163 -1.7648,0.4808 -3.0045,0.4808 -2.119,-0.0506 -3.7256,-0.6199 -4.8136,-1.7079 -1.1891,-1.0879 -1.7774,-2.4732 -1.7774,-4.1684 0,-1.6066 0.5123,-2.9539 1.537,-4.0418 1.0248,-1.0817 2.5365,-1.6383 4.5353,-1.6636l5.2121 0 0 -2.0431c0.0126,-1.7015 -1.2651,-2.5301 -3.8395,-2.4795 -0.8855,0 -1.6319,0.1012 -2.2202,0.2973 -0.5819,0.2593 -1.0184,0.6578 -1.3157,1.2018l-2.9665 -2.334c1.4358,-1.9166 3.5421,-2.8464 6.319,-2.7958 2.334,-0.0253 4.2126,0.4301 5.6358,1.3662 1.3916,0.9805 2.1063,2.6314 2.1316,4.9717l0 13.1757 -3.7445 0zm0 -6.7681l0 -1.4042 -4.5037 0c-2.2012,0.0569 -3.2891,0.8349 -3.2638,2.334 0,0.6389 0.2846,1.1955 0.8539,1.6636 0.544,0.5123 1.4358,0.7653 2.6883,0.7653 1.5813,0.019 2.6945,-0.1707 3.3334,-0.5756 0.5946,-0.4111 0.8919,-1.3346 0.8919,-2.7831z"/>
   <path id="text373812" fill="black" fill-rule="nonzero" d="M57.0025 41.801l0 -12.7835 3.8774 0 0 11.4678c0,1.3093 0.3605,2.3277 1.0816,3.0488 0.7211,0.7274 1.6383,1.0879 2.7515,1.0879 1.0753,0 1.9735,-0.3605 2.6946,-1.0879 0.7274,-0.7211 1.088,-1.7395 1.088,-3.0488l0 -11.4678 3.871 0 0 19.2353 -3.871 0 0 -2.0368 -0.076 0c-1.1954,1.5054 -2.8527,2.2582 -4.9653,2.2582 -1.5181,0 -2.9729,-0.563 -4.3645,-1.6952 -1.3916,-1.1323 -2.0873,-2.7895 -2.0873,-4.978z"/>
   <path id="text3738123" fill="black" fill-rule="nonzero" d="M88.6733 42.5979l2.859 2.5618c-0.8412,0.9614 -1.8406,1.7584 -2.9918,2.3783 -1.1576,0.6262 -2.4669,0.9362 -3.9217,0.9362 -2.2265,0 -4.238,-0.7591 -6.0344,-2.2708 -1.7964,-1.5118 -2.6946,-4.0293 -2.6946,-7.5525 0,-3.5168 0.8982,-6.0406 2.6946,-7.565 1.7964,-1.5308 3.8079,-2.2898 6.0344,-2.2898 1.4548,0 2.7641,0.3163 3.9217,0.9425 1.1512,0.6325 2.1506,1.4295 2.9918,2.3909l-2.859 2.5365c-1.0816,-1.3283 -2.3847,-1.9988 -3.9091,-1.9988 -3.3334,0 -5.0033,1.9925 -5.0033,5.9837 0,3.9787 1.6699,5.9711 5.0033,5.9711 1.5371,0 2.8401,-0.6768 3.9091,-2.0241z"/>
   <path id="text37381234" fill="black" fill-rule="nonzero" d="M94.2143 48.2528l0 -27.0028 3.8774 0 0 9.8232 0.0695 0c1.2019,-1.5181 2.8717,-2.2771 5.0034,-2.2771 1.4991,0 2.9412,0.5693 4.3265,1.7015 1.3916,1.1386 2.0873,2.7958 2.0873,4.9654l0 12.7898 -3.871 0 0 -11.4552c0,-1.2967 -0.3606,-2.3087 -1.088,-3.0361 -0.7211,-0.7274 -1.6193,-1.0943 -2.6946,-1.0943 -1.1132,0 -2.0304,0.3669 -2.7515,1.0943 -0.7211,0.7274 -1.0816,1.7394 -1.0816,3.0361l0 11.4552 -3.8774 0z"/>
  </g>
 </g>
</svg>
