<?xml version="1.0" encoding="UTF-8" standalone="no"?>
<!-- Created with Inkscape (http://www.inkscape.org/) -->

<svg
   xmlns:svg="http://www.w3.org/2000/svg"
   xmlns="http://www.w3.org/2000/svg"
   version="1.1"
   width="710.99994"
   height="534.229"
   id="svg2">
  <defs
     id="defs4" />
  <g
     transform="translate(-8.3591426,-182.88818)"
     id="layer1">
    <path
       d="m 43.306263,715.98819 c -13.49065,-4.23606 -25.02652,-14.32371 -31.22507,-27.30508 l -3.7220504,-7.79493 0,-231.07539 0,-231.07539 4.1988204,-8.47357 c 5.39132,-10.88013 13.04159,-18.41802 24.00625,-23.6536 l 7.79493,-3.72205 319.499997,0 319.49996,0 7.8325,3.73987 c 10.6656,5.09262 19.3351,13.76212 24.4277,24.42767 l 3.7398,7.83246 0,231 0,231 -3.722,7.79493 c -5.2356,10.9646 -12.7735,18.61492 -23.6535,24.00625 l -8.4735,4.19882 -318.0755,0.1863 C 110.3382,717.2239 46.556673,717.00878 43.306263,715.98819 z M 682.3591,711.02883 c 7.275,-1.94333 13.1193,-5.20434 18.7263,-10.44903 5.8879,-5.50748 9.3348,-11.10736 11.8897,-19.31652 1.822,-5.85403 1.8837,-13.4651 1.8722,-231.21419 -0.01,-184.63542 -0.2523,-226.06083 -1.3475,-230.16091 -4.036,-15.10892 -15.9953,-27.11236 -30.9908,-31.10507 -7.5744,-2.01676 -629.603087,-2.05149 -637.149857,-0.0356 -15.10891,4.03595 -27.11236,15.99531 -31.10507,30.99084 -2.04384,7.67609 -2.04384,452.62353 0,460.29962 3.92882,14.7556 17.12019,27.91057 31.351,31.26452 2.13074,0.50218 139.533867,0.92307 317.754067,0.97335 258.98556,0.0731 314.87606,-0.14542 318.99996,-1.24703 z m -630.558067,-7.6424 c -12.28704,-2.09601 -23.40686,-11.02352 -28.02796,-22.50215 l -2.41393,-5.9961 0,-225 0,-225 2.3856,-6 c 3.27222,-8.22995 12.38446,-17.34218 20.6144,-20.6144 l 6,-2.3856 313.499997,0 313.49996,0 6,2.3856 c 8.23,3.27222 17.3422,12.38445 20.6144,20.6144 l 2.3856,6 0,225 0,225 -2.3856,6 c -3.2722,8.22995 -12.3844,17.34218 -20.6144,20.6144 l -6,2.3856 -310.49996,0.1379 c -170.775,0.0758 -312.551147,-0.212 -315.058107,-0.63965 z M 680.0226,683.47836 c 1.9343,-1.32541 4.6013,-3.99244 5.9267,-5.92673 l 2.4098,-3.51691 0,-224.14654 0,-224.14654 -2.4098,-3.51691 c -1.3254,-1.93429 -3.9924,-4.60132 -5.9267,-5.92673 l -3.5169,-2.40982 -312.64656,0 -312.646527,0 -3.51691,2.40982 c -1.9343,1.32541 -4.60133,3.9924 -5.92673,5.92667 l -2.40983,3.51684 -0.29335,222.07333 c -0.19646,148.72895 0.0433,223.24101 0.72587,225.60882 1.18764,4.1197 6.27229,9.68881 10.56748,11.57436 2.46376,1.08157 58.692757,1.27883 314.573297,1.10357 l 311.57336,-0.21341 3.5168,-2.40982 z M 390.66235,632.04807 c -9.47663,-2.67079 -17.23529,-10.35709 -19.81013,-19.62537 -1.81533,-6.53443 -1.22104,-23.35022 1.03869,-29.38988 5.67859,-15.1774 23.68994,-21.81934 38.01947,-14.02024 9.53064,5.18723 13.63071,12.58766 14.60889,26.36835 l 0.63936,9.00725 -20.64975,0 c -20.14984,0 -20.64974,0.0496 -20.64974,2.04966 0,2.93267 2.54227,7.44513 5.50946,9.77912 5.31632,4.18182 15.56237,3.6143 20.69939,-1.14653 l 2.50326,-2.31994 5.26007,4.61329 5.26007,4.6133 -3.7632,3.30413 c -7.56097,6.63862 -19.29362,9.40823 -28.66584,6.76686 z m 19.19679,-42.02503 c 0,-4.74855 -6.90894,-10.63486 -12.48246,-10.63486 -6.34083,0 -11.54185,4.08252 -13.05823,10.25 l -0.67613,2.75 13.10841,0 13.10841,0 0,-2.36514 z m -131,14.86514 0,-27.5 -3,0 c -2.9697,0 -3,-0.0556 -3,-5.5 0,-5.44444 0.0303,-5.5 3,-5.5 2.99634,0 3,-0.007 3,-5.9349 0,-7.02879 1.17163,-10.54306 4.81362,-14.43826 3.80588,-4.0705 8.13573,-5.62684 15.65426,-5.62684 l 6.53212,0 0,6.5 0,6.5 -5.3,0 c -2.915,0 -5.84,0.54 -6.5,1.2 -0.66,0.66 -1.2,3.585 -1.2,6.5 l 0,5.3 6.5,0 6.5,0 0,5.5 0,5.5 -6.5,0 -6.5,0 0,27.5 0,27.5 -7,0 -7,0 0,-27.5 z m 41,-5.5 0,-33 7,0 7,0 0,3.17431 0,3.17432 2.26365,-2.12659 c 5.95753,-5.59681 15.12469,-6.65106 23.5854,-2.71239 l 5.34904,2.49012 -5.18274,5.98251 c -5.16421,5.96113 -5.19299,5.97722 -8.04939,4.50012 -3.60062,-1.86195 -7.07727,-1.88056 -11.43166,-0.0612 -6.03424,2.52129 -6.5343,4.78109 -6.5343,29.52914 l 0,22.04966 -7,0 -7,0 0,-33 z m 121,0 0,-33 7,0 7,0 0,33 0,33 -7,0 -7,0 0,-33 z m 0,-52 0,-7 7,0 7,0 0,7 0,7 -7,0 -7,0 0,-7 z m 99.92046,-25.00103 c -5.3629,-0.91859 -11.0684,-3.70283 -15.7901,-7.70554 l -3.3696,-2.8565 4.8696,-3.95134 c 2.6783,-2.17325 5.0218,-4.30315 5.2079,-4.73313 0.186,-0.42998 1.6689,0.33798 3.2954,1.70658 5.7543,4.84189 15.1651,5.25427 20.0775,0.87978 2.8503,-2.53823 4.7888,-7.51172 4.7888,-12.28609 l 0,-4.01151 -4.4601,3.14381 c -11.0273,7.77277 -26.8356,3.08624 -32.6689,-9.68503 -1.5266,-3.34219 -1.827,-6.63124 -1.827,-20 0,-13.36876 0.3004,-16.65781 1.827,-20 5.8333,-12.77127 21.6416,-17.4578 32.6689,-9.68503 l 4.4601,3.14381 0,-2.97939 0,-2.97939 7.0571,0 7.057,0 -0.307,36.25 -0.3071,36.25 -3,5.42058 c -5.7364,10.36492 -17.7837,16.09884 -29.5795,14.07839 z M 555.0073,479.784 c 3.527,-3.14232 4.8518,-7.75601 4.8518,-16.89582 0,-9.6698 -1.4108,-14.10483 -5.5136,-17.3321 -3.2821,-2.58165 -9.2316,-2.86813 -13.5191,-0.65097 -4.7784,2.47102 -5.9673,6.05371 -5.9673,17.98307 0,11.7732 1.1613,15.39889 5.7626,17.992 3.6164,2.03806 11.5459,1.43384 14.3856,-1.09618 z m -152.01642,16.50168 c -10.22219,-1.95068 -18.38456,-8.69401 -21.61855,-17.86013 -2.12106,-6.01172 -2.05747,-25.0837 0.10478,-31.42959 2.22754,-6.53747 9.72799,-13.89766 16.43145,-16.1242 9.87012,-3.27832 20.67486,-0.7593 27.95058,6.51642 5.80011,5.80011 7.41888,10.19486 7.82725,21.25 l 0.36016,9.75 -20.0937,0 -20.09371,0 0,3.01469 c 0,4.21359 5.34292,9.83121 10.43873,10.97542 5.98915,1.3448 13.35191,-0.62306 16.4933,-4.40821 1.13066,-1.36236 1.93863,-0.99271 6.67533,3.05398 l 5.38898,4.60394 -3.24817,2.92421 c -1.78649,1.60831 -4.8441,3.76678 -6.79468,4.7966 -3.13242,1.65377 -5.2568,2.20052 -13.45349,3.46253 -1.1,0.16936 -3.96572,-0.0672 -6.36826,-0.52566 z m 16.41658,-43.6475 c -0.36767,-1.5125 -2.0001,-4.1 -3.62764,-5.75 -2.63061,-2.66693 -3.621,-3 -8.92068,-3 -5.29968,0 -6.29007,0.33307 -8.92068,3 -1.62754,1.65 -3.25997,4.2375 -3.62764,5.75 l -0.6685,2.75 13.21682,0 13.21682,0 -0.6685,-2.75 z M 612.713,495.95283 c -6.4895,-1.33487 -12.5696,-5.01434 -16.242,-9.82912 -4.7845,-6.27283 -5.6119,-9.73836 -5.6119,-23.50707 0,-11.80373 0.2082,-13.25339 2.5883,-18.02975 4.9966,-10.02679 15.1664,-15.83531 26.2602,-14.9986 10.0748,0.75986 18.2943,6.61549 22.766,16.21864 1.9169,4.11675 2.3679,6.74213 2.3758,13.83125 l 0.01,8.75 -20,0 -20,0 0,2.59571 c 0,3.5617 2.6736,7.78026 6.2816,9.91161 5.6677,3.34798 16.7411,1.78498 20.6404,-2.91337 1.117,-1.3459 1.9433,-0.96215 6.6175,3.07331 l 5.3412,4.61124 -4.6651,3.85503 c -7.3861,6.10353 -16.7952,8.39894 -26.3617,6.43112 z m 18.1461,-41.91677 c 0,-2.20245 -4.3657,-8.02041 -7.03,-9.36857 -5.8978,-2.98434 -14.0881,-0.73506 -17.3344,4.76052 -3.3815,5.7244 -2.9319,5.96017 11.3644,5.96017 10.257,0 13,-0.2853 13,-1.35212 z m -166.55577,40.46599 c -4.99343,-2.26808 -10.73297,-8.79666 -12.28363,-13.97231 -0.73567,-2.45545 -1.16056,-12.34308 -1.16056,-27.00758 l 0,-23.13398 6.94682,0 6.94683,0 0.30317,22.57869 0.30318,22.57869 3.73531,3.42131 c 2.9853,2.73434 4.56065,3.42131 7.84571,3.42131 2.26072,0 5.41006,-0.76773 6.99853,-1.70606 5.35601,-3.16385 5.92041,-5.94743 5.92041,-29.19507 l 0,-21.09887 7,0 7,0 0,32.5 0,32.5 -7,0 -7,0 0,-3.17431 0,-3.17432 -2.2636,2.12659 c -5.57121,5.23387 -15.86715,6.70846 -23.29217,3.33591 z m -375.444187,-26.11387 0,-27 -3,0 c -2.96969,0 -3,-0.0556 -3,-5.5 0,-5.38267 0.0609,-5.5 2.85567,-5.5 2.83946,0 2.85891,-0.043 3.42931,-7.58496 0.98293,-12.99666 6.75031,-18.41504 19.601167,-18.41504 l 7.11385,0 0,6.5 0,6.5 -5.3,0 c -2.915,0 -5.84,0.54 -6.5,1.2 -0.66,0.66 -1.2,3.585 -1.2,6.5 l 0,5.3 6.5,0 6.5,0 0,5.5 0,5.5 -6.5,0 -6.5,0 0,27 0,27 -6.999997,0 -7,0 0,-27 z m 47.499997,25.33837 c -9.74662,-5.13829 -13.90864,-15.63792 -9.95227,-25.10684 3.88769,-9.30455 9.93332,-12.36702 25.70227,-13.01972 l 11.75,-0.48635 0,-3.86273 c 0,-2.4575 -0.6891,-4.55183 -1.89423,-5.75696 -3.79274,-3.79274 -17.31708,-3.89446 -21.05318,-0.15836 -1.73767,1.73767 -1.96236,1.67794 -6.17792,-1.64219 -6.5517,-5.16005 -6.48596,-5.02399 -3.81143,-7.88929 4.70669,-5.0424 9.60589,-6.76777 19.43676,-6.84512 10.34905,-0.0814 15.12232,1.28067 20.24275,5.77647 6.77788,5.95106 7.21062,8.09838 7.23529,35.90272 l 0.022,24.75 -7,0 c -6.86409,0 -7,-0.0503 -7,-2.58889 l 0,-2.5889 -3.07673,2.5889 c -2.83073,2.3819 -3.81015,2.58569 -12.25,2.54885 -6.3676,-0.0278 -10.09083,-0.52376 -12.17327,-1.62159 z m 25.42742,-13.97323 c 1.45172,-1.84556 2.07258,-4.09226 2.07258,-7.5 l 0,-4.86514 -10.38922,0 c -8.42486,0 -10.78774,0.33088 -12.49698,1.75 -3.21578,2.66993 -3.70152,7.23312 -1.11938,10.51578 2.05396,2.61118 2.54921,2.73422 11.00558,2.73422 8.37495,0 8.96716,-0.1428 10.92742,-2.63486 z m 34.07258,-29.86514 0,-45.5 7,0 7,0 0,15.97939 0,15.97939 4.58543,-3.22939 c 4.20967,-2.96475 5.21351,-3.2281 12.25,-3.21359 6.73479,0.0139 8.17043,0.35718 11.8346,2.82997 2.29352,1.54779 5.44352,4.69068 7,6.9842 l 2.82997,4.17003 0.29735,25.75 0.29735,25.75 -7.04735,0 -7.04735,0 0,-21.54966 c 0,-23.90307 -0.46513,-26.08815 -6.18264,-29.04479 -4.22443,-2.18454 -11.14186,-1.38877 -14.38115,1.65437 -3.765,3.53704 -4.42462,7.88276 -4.43063,29.19008 l -0.006,19.75 -7,0 -7,0 0,-45.5 z m 72,13 0,-32.5 7,0 c 6.8,0 7,0.0714 7,2.5 0,2.58517 1.36883,3.33027 2.56435,1.39587 1.31552,-2.12855 8.98119,-4.85216 13.71777,-4.87391 6.35011,-0.0292 16.35791,4.18066 14.00147,5.88977 -0.4461,0.32355 -2.75728,2.94835 -5.13596,5.8329 -4.09935,4.97114 -4.43615,5.16669 -6.45876,3.75 -2.74915,-1.92558 -8.97593,-1.91466 -12.7216,0.0223 -5.48139,2.83453 -5.96727,5.19042 -5.96727,28.93341 l 0,21.54966 -7,0 -7,0 0,-32.5 z m 50.00547,27.25 c 0.005,-5.22828 0.0718,-5.33793 16.03135,-26.5 l 16.02589,-21.25 -15.03135,0 -15.03136,0 0,-6 0,-6 24,0 24,0 0,4.66459 c 0,4.47001 -0.66775,5.55455 -16.00834,26 l -16.00834,21.33541 16.00834,0 16.00834,0 0,6.5 0,6.5 -25,0 -25,0 0.005,-5.25 z M 261.94524,359.27334 c -6.99938,-3.49763 -12.17018,-9.55277 -14.13028,-16.54692 -0.71671,-2.5574 -1.0153,-8.91817 -0.77456,-16.5 0.32392,-10.20129 0.76494,-13.04743 2.54634,-16.43292 8.78832,-16.70188 32.50955,-19.46067 44.71575,-5.20046 4.73188,5.52813 6.55665,11.50433 6.55665,21.47328 l 0,8.32186 -20.13084,0 -20.13084,0 0.58809,3.62403 c 1.145,7.0558 6.95961,10.81266 15.75089,10.17676 4.21435,-0.30484 6.64721,-1.10319 9.08079,-2.97991 l 3.32417,-2.56352 5.24013,4.47678 5.24013,4.47679 -4.68191,3.8689 c -5.92904,4.89947 -11.85638,6.92017 -20.29903,6.92017 -5.45617,0 -7.79048,-0.56384 -12.89548,-3.11484 z m 24.9139,-38.98403 c 0,-0.60438 -0.68227,-2.53665 -1.51616,-4.29394 -4.074,-8.58531 -17.90904,-8.92886 -22.8483,-0.56736 -3.38148,5.7244 -2.93192,5.96017 11.36446,5.96017 8.77978,0 13,-0.35673 13,-1.09887 z m 211.46276,40.50752 c -8.9707,-3.18516 -15.52722,-11.16496 -17.52756,-21.33248 -1.68535,-8.56651 -0.67739,-22.91157 1.99828,-28.43876 10.11968,-20.90451 39.50528,-20.68901 49.44238,0.36259 1.8292,3.87519 2.122,6.30502 2.1084,17.5 -0.018,14.90002 -0.8612,17.69897 -7.5013,24.90268 -7.0429,7.64063 -18.6809,10.49951 -28.5202,7.00597 z m 15.5372,-14.1602 c 5.2289,-2.61211 6.9966,-7.04016 6.9985,-17.53057 0,-10.42368 -1.5518,-14.86545 -6.1883,-17.69225 -7.0465,-4.29612 -17.0119,-1.22584 -19.5037,6.009 -1.9072,5.53738 -1.5801,18.76613 0.5817,23.52565 3.0887,6.80034 10.9459,9.26795 18.1118,5.68817 z m -378.99996,-31.24845 0,-46 29.5,0 29.5,0 0,7 0,7 -22,0 -22,0 0,12.5 0,12.5 19,0 19,0 0,7 0,7 -19,0 -19,0 0,12.5 0,12.5 22,0 22,0 0,7 0,7 -29.5,0 -29.5,0 0,-46 z m 84.01507,44.24845 c -1.98114,-0.99398 -4.45523,-3.47449 -5.73355,-5.74845 -2.22716,-3.96183 -2.24878,-4.38407 -2.26507,-44.25 l -0.0164,-40.25 7,0 7,0 0,37.91821 c 0,20.85502 0.27314,38.63002 0.60699,39.5 0.42603,1.11023 1.91664,1.58179 5,1.58179 l 4.39301,0 0,6.5 0,6.5 -6.25,-0.002 c -3.95206,-9.9e-4 -7.5313,-0.64441 -9.73493,-1.75 z m 98.98493,-44.24845 0,-46 6.98443,0 6.98442,0 0.26558,27.9783 0.26557,27.97829 11.33165,-13.92361 c 6.23241,-7.65799 11.92725,-14.41792 12.6552,-15.02207 0.78115,-0.6483 4.4179,-0.97806 8.87425,-0.80468 l 7.5507,0.29377 -11.06719,12.78114 -11.06719,12.78115 8.95639,14.21885 c 4.92601,7.82038 10.61492,16.80636 12.64202,19.96886 l 3.68563,5.75 -8.78073,-0.0191 -8.78073,-0.0191 -8,-14.46766 c -4.4,-7.95722 -8.3026,-14.47361 -8.67245,-14.48086 -0.36985,-0.007 -2.73235,2.34158 -5.25,5.21963 l -4.57755,5.23274 0,9.26717 0,9.26718 -7,0 -7,0 0,-46 z m 78.98983,43.75 c -7.32764,-4.98715 -7.45279,-5.46412 -7.82436,-29.82116 l -0.33453,-21.92884 -2.91547,0 c -2.89669,0 -2.91547,-0.0387 -2.91547,-6 0,-6 0,-6 3,-6 l 3,0 0,-9.5 0,-9.5 7,0 7,0 0,9.5 0,9.5 5,0 5,0 0,6 0,6 -5,0 -5,0 0,18.56574 c 0,10.88549 0.42823,19.3659 1.03518,20.5 0.75624,1.41305 2.10356,1.93426 5,1.93426 l 3.96482,0 0,6.5 0,6.5 -6.35212,0 c -4.94117,0 -7.08643,-0.49977 -9.65805,-2.25 z m 33.01017,-30.75 0,-33 7,0 7,0 0,3.67431 0,3.67432 2.25,-2.05734 c 6.34212,-5.79907 16.7268,-7.04489 24.55804,-2.94617 l 4.30804,2.25475 -4.86641,6.0878 c -4.66657,5.8378 -4.96669,6.03227 -7.30804,4.7355 -3.30429,-1.83008 -9.38289,-1.76346 -13.07007,0.14325 -5.21315,2.69583 -5.87156,5.99275 -5.87156,29.40146 l 0,21.03212 -7,0 -7,0 0,-33 z m 122.99996,-3 0,-7 20,0 20,0 0,7 0,7 -20,0 -20,0 0,-7 z"
       id="path3018"
       style="fill:#000000" />
  </g>
</svg>
