<?xml version="1.0" encoding="UTF-8" standalone="no"?>
<!-- Created with Inkscape (http://www.inkscape.org/) -->

<svg
   xmlns:dc="http://purl.org/dc/elements/1.1/"
   xmlns:cc="http://creativecommons.org/ns#"
   xmlns:rdf="http://www.w3.org/1999/02/22-rdf-syntax-ns#"
   xmlns:svg="http://www.w3.org/2000/svg"
   xmlns="http://www.w3.org/2000/svg"
   xmlns:sodipodi="http://sodipodi.sourceforge.net/DTD/sodipodi-0.dtd"
   xmlns:inkscape="http://www.inkscape.org/namespaces/inkscape"
   version="1.0"
   width="472.6875"
   height="262.03125"
   id="svg2"
   inkscape:version="0.48.1 r9760"
   sodipodi:docname="Zusatzzeichen_1040-32.svg">
  <metadata
     id="metadata18">
    <rdf:RDF>
      <cc:Work
         rdf:about="">
        <dc:format>image/svg+xml</dc:format>
        <dc:type
           rdf:resource="http://purl.org/dc/dcmitype/StillImage" />
        <dc:title></dc:title>
      </cc:Work>
    </rdf:RDF>
  </metadata>
  <sodipodi:namedview
     pagecolor="#ffffff"
     bordercolor="#666666"
     borderopacity="1"
     objecttolerance="10"
     gridtolerance="10"
     guidetolerance="10"
     inkscape:pageopacity="0"
     inkscape:pageshadow="2"
     inkscape:window-width="640"
     inkscape:window-height="484"
     id="namedview16"
     showgrid="false"
     fit-margin-top="0"
     fit-margin-left="0"
     fit-margin-right="0"
     fit-margin-bottom="0"
     inkscape:zoom="0.87407407"
     inkscape:cx="236.34375"
     inkscape:cy="131.01563"
     inkscape:window-x="0"
     inkscape:window-y="0"
     inkscape:window-maximized="0"
     inkscape:current-layer="svg2" />
  <defs
     id="defs4" />
  <path
     d="M 30.125,1 C 11.700639,0.9999998 1.3125,8.135785 1.3125,29.21875 L 1,232.81251 c 0,21.08296 10.388141,28.21875 28.8125,28.21875 l 412.75,-0.0312 c 18.42436,0 28.81249,-7.13579 28.8125,-28.21875 L 471.6875,29.25005 C 471.6875,8.167085 461.29936,1.0312998 442.875,1.0313 L 30.125,1.00005 z"
     id="path1881"
     style="fill:#ffffff;fill-opacity:1;fill-rule:evenodd;stroke:#000000;stroke-width:2;stroke-linecap:butt;stroke-linejoin:miter;stroke-miterlimit:4;stroke-opacity:1;stroke-dasharray:none"
     inkscape:connector-curvature="0" />
  <path
     d="M 444.65625,13.8125 28.125,13.84375 c -8.424251,0 -13.375,6.00101 -13.375,14.875 l 0,204.65626 c -10e-7,8.87397 4.95076,14.875 13.375,14.875 l 416.5,-0.0312 c 8.42424,-1e-5 13.375,-6.00102 13.375,-14.875 l 0,-204.65626 c 0,-8.87399 -4.91951,-14.875 -13.34375,-14.875 z"
     id="path3976"
     style="fill:none;stroke:#000000;stroke-width:10.05090046;stroke-linecap:butt;stroke-linejoin:miter;stroke-miterlimit:4;stroke-opacity:1;stroke-dasharray:none"
     inkscape:connector-curvature="0" />
  <path
     d="m 71.583131,104.68398 0,50.30523 123.879389,0 0,-50.30523 -123.879389,0 z"
     id="path20922"
     style="fill:#ffffff;fill-opacity:1;fill-rule:evenodd;stroke:none"
     inkscape:connector-curvature="0" />
  <path
     d="m 205.42612,164.23303 0,-9.12178 26.52766,-33.18284 c 1.02384,-1.30307 1.69091,-2.49759 2.0012,-3.58356 0.31024,-1.08588 0.46537,-2.14078 0.4654,-3.1647 -3e-5,-2.35796 -0.83774,-4.55308 -2.51314,-6.58537 -1.67546,-2.03218 -3.95591,-3.0483 -6.84135,-3.04836 -2.63727,6e-5 -4.89444,0.87656 -6.77153,2.6295 -1.87711,1.75305 -2.92426,4.14984 -3.14143,7.19039 l -9.72681,0 c 0.031,-5.49164 1.90813,-10.12233 5.63131,-13.89211 3.72317,-3.769665 8.14444,-5.654515 13.26383,-5.654585 5.64679,7e-5 10.35506,1.90044 14.12481,5.701125 3.76968,3.8008 5.65454,8.38496 5.65458,13.75249 -4e-5,4.59196 -1.3497,8.56335 -4.04896,11.91417 l -21.82714,27.36537 25.8761,0 0,9.68026 -38.67453,0 z m 66.8776,-8.74947 6.79481,-7.72559 c 2.54416,2.04776 5.47616,3.69216 8.79601,4.93321 3.31981,1.24107 6.79478,1.8616 10.4249,1.86159 4.18854,1e-5 7.47735,-0.86873 9.86642,-2.60623 2.389,-1.73747 3.58352,-4.01791 3.58356,-6.84134 -4e-5,-5.33653 -2.94755,-8.39264 -8.84255,-9.16833 -1.55135,-0.18613 -2.99408,-0.37229 -4.32819,-0.55847 -1.33417,-0.18613 -2.88549,-0.40332 -4.65398,-0.65156 -5.86402,-0.80666 -10.33183,-2.95524 -13.40344,-6.44575 -3.07163,-3.49044 -4.60744,-7.70229 -4.60743,-12.63554 -10e-6,-5.77088 1.93139,-10.51792 5.79419,-14.24116 3.86279,-3.723115 9.30017,-5.584705 16.31218,-5.584775 4.18855,7e-5 8.12891,0.66714 11.82109,2.00121 3.69211,1.3342 7.08951,3.025145 10.19221,5.072835 l -5.72439,8.47023 c -2.48216,-1.55127 -5.15044,-2.80784 -8.00484,-3.76972 -2.85447,-0.96176 -5.77095,-1.44267 -8.74947,-1.44273 -3.16472,6e-5 -5.84851,0.80675 -8.05137,2.42007 -2.2029,1.61343 -3.30434,4.03349 -3.30432,7.2602 -2e-5,1.92369 0.74462,3.72322 2.2339,5.39861 1.48926,1.67547 3.95586,2.77691 7.39982,3.30432 0.89974,0.15517 1.98567,0.31806 3.25778,0.48867 1.27206,0.17068 2.7303,0.34908 4.37474,0.5352 6.32937,0.7757 11.0066,3.07166 14.03173,6.88788 3.02503,3.81629 4.53757,8.03589 4.53763,12.65881 -6e-5,6.23634 -2.15639,11.07647 -6.46903,14.5204 -4.31272,3.44394 -10.09916,5.16591 -17.35932,5.16591 -10.20773,0 -18.8486,-3.10264 -25.92264,-9.30795 l 0,0 z m 60.36205,-39.55877 0,-14.66002 9.7268,0 0,14.66002 7.07404,0 0,7.44635 -7.07404,0 0,28.11001 c -10e-6,2.42007 1.14797,3.63011 3.44395,3.6301 l 3.63009,0 0,9.12178 -5.07283,0 c -3.3819,0 -6.18204,-1.02387 -8.40042,-3.07162 -2.2184,-2.04774 -3.3276,-4.97974 -3.32759,-8.79601 l 0,-28.99426 -4.84013,0 0,-7.44635 4.84013,0 z m 54.73073,48.30824 0,-5.02629 c -3.38192,3.72318 -7.53946,5.58477 -12.47265,5.58477 -2.97856,0 -5.53825,-0.58174 -7.67906,-1.74524 -2.14084,-1.16349 -3.89383,-2.66052 -5.25899,-4.49108 -1.36517,-1.70645 -2.28045,-3.73093 -2.74584,-6.07344 -0.46541,-2.34249 -0.6981,-6.49227 -0.6981,-12.44938 0,-5.895 0.23269,-9.99825 0.6981,-12.30976 0.46539,-2.31144 1.38067,-4.33591 2.74584,-6.07344 1.36516,-1.79949 3.11815,-3.29652 5.25899,-4.49108 2.14081,-1.19447 4.7005,-1.79173 7.67906,-1.79178 2.48209,5e-5 4.73151,0.5275 6.74826,1.58235 2.01669,1.05495 3.92482,2.43562 5.72439,4.14204 l 0,-24.666065 9.72681,0 0,67.808395 -9.72681,0 z m -9.49411,-39.13992 c -4.59194,4e-5 -7.34554,1.56688 -8.2608,4.70052 -0.9153,3.13371 -1.37294,6.54662 -1.37292,10.23874 -2e-5,3.78525 0.45762,7.2447 1.37292,10.37836 0.91526,3.13369 3.66886,4.70053 8.2608,4.70052 4.49882,10e-6 7.20587,-1.62888 8.12119,-4.88668 0.91525,-3.25776 1.37289,-6.65516 1.37292,-10.1922 -3e-5,-3.44391 -0.45767,-6.79477 -1.37292,-10.05258 -0.91532,-3.25775 -3.62237,-4.88664 -8.12119,-4.88668 l 0,0 z m 30.43699,39.13992 0,-9.68026 9.72681,0 0,9.68026 -9.72681,0 z"
     id="text3845"
     style="font-size:95.31340027px;font-style:normal;font-variant:normal;font-weight:normal;font-stretch:normal;text-align:center;line-height:100%;text-anchor:middle;fill:#000000;fill-opacity:1;stroke:none"
     inkscape:connector-curvature="0" />
  <g
     transform="matrix(0.18039814,0,0,-0.18039814,54.352401,209.91529)"
     id="g2826">
    <g
       transform="matrix(2.0525389,0,0,2.0525389,-1.0523742,-1.0523742)"
       id="g3657">
      <path
         d="m 0.9998436,0.9998436 0,425.1945564 311.8089564,0 0,-425.1945564 -311.8089564,0 z"
         id="path2834"
         style="fill:#154889;fill-opacity:1;fill-rule:nonzero;stroke:none"
         inkscape:connector-curvature="0" />
      <path
         d="M 141.84375,223.71875 74,280.65625 c 30.29595,36.105 74.9926,56.96875 122.125,56.96875 47.1315,0 91.86075,-20.86375 122.15625,-56.96875 l -67.875,-56.9375 c -13.4655,16.047 -33.33525,25.3125 -54.28125,25.3125 -20.9475,0 -40.8177,-9.2655 -54.28125,-25.3125 z"
         transform="matrix(0.8,0,0,-0.8,0,427)"
         id="path2830"
         style="fill:#ffffff;fill-opacity:1;fill-rule:nonzero;stroke:none"
         inkscape:connector-curvature="0" />
      <path
         d="m 125.9148,233.6184 2.4528,-1.416 -4.2516,-7.3644 -2.454,1.4172 4.2528,7.3632 z m -23.50788,-28.9788 4.20792,-2.43 -0.75888,-1.314 c -0.21288,-0.3696 -0.32484,-0.7884 -0.32484,-1.2156 0,-1.3416 1.08696,-2.4288 2.42904,-2.4288 0.8676,0 1.66968,0.4632 2.10372,1.2144 l 4.10016,7.1016 c 0.21288,0.3684 0.3258,0.7884 0.3258,1.2144 0,1.3428 -1.08792,2.43 -2.43,2.43 -0.6576,0 -1.28904,-0.2676 -1.74564,-0.7404 l -3.73728,2.178 9.11196,15.7812 12.09912,-6.9852 -2.2776,-3.9468 -8.41764,4.86 -4.5768,-7.9284 c 0.43128,0.1008 0.8718,0.1524 1.31484,0.1524 3.18696,0 5.77032,-2.5836 5.77032,-5.7708 0,-1.0128 -0.26628,-2.0076 -0.77304,-2.8848 l -4.55532,-7.8912 c -1.30164,-2.2548 -3.70872,-3.6432 -6.3126,-3.6432 -4.02516,0 -7.28904,3.2628 -7.28904,7.2876 0,1.2804 0.33696,2.5368 0.9768,3.6456 l 0.759,1.314 z m -7.5108,-15.4188 0.85968,1.4904 2.01,0.2436 1.4034,-0.8124 -5.66904,-9.8184 -1.40292,0.81 4.80888,8.3292 -2.01,-0.2424 z m 1.41,-10.5168 8.19096,6.4944 -2.63112,1.5168 -0.81,-1.4028 -1.40208,0.81 1.61904,2.8068 5.61192,-3.24 -0.75984,-1.3152 -8.24112,-6.5808 -1.57776,0.9108 z m 59.18148,46.2312 2.8344,0 0,-8.5032 -2.8344,0 0,8.5032 z m 1.4208,-11.3376 5.4672,0 -5.6052,-14.3352 c 0.6252,0.24 1.2912,0.3648 1.9608,0.3648 3.0192,0 5.4672,-2.448 5.4672,-5.4672 l -0.001,-7.5924 c 0,-4.026 -3.2628,-7.29 -7.2888,-7.29 -4.026,0 -7.2888,3.264 -7.2888,7.29 l 0,6.378 c 0,0.8784 0.1584,1.7496 0.4692,2.5716 l 6.8196,18.0804 z m -2.43,-27.03 c 0,-1.3428 1.0884,-2.43 2.43,-2.43 1.3416,0 2.43,1.0872 2.43,2.43 l 0,6.378 c 0,1.3416 -1.0884,2.4288 -2.43,2.4288 -1.3416,0 -2.43,-1.0872 -2.43,-2.4288 l 0,-6.378 z m -3.8532,-15.5916 0,1.7208 1.62,1.2156 1.62,0 0,-11.3376 -1.62,0 0,9.6168 -1.62,-1.2156 z m 6.9876,-2.5044 c -0.7044,0.5568 -1.116,1.404 -1.116,2.3028 l 0,0 c 0,1.788 1.4508,3.24 3.24,3.24 1.7892,0 3.24,-1.452 3.24,-3.24 l 0,0 c 0,-0.8988 -0.4116,-1.746 -1.116,-2.3028 l 0,0 c 0.8268,-0.5892 1.3176,-1.542 1.3176,-2.556 l 0,0 c 0,-1.9008 -1.5408,-3.4428 -3.4416,-3.4428 -1.9008,0 -3.4416,1.542 -3.4416,3.4428 0,1.014 0.4908,1.9668 1.3176,2.556 z m 0.3024,-2.556 c 0,1.0056 0.816,1.8216 1.8216,1.8216 1.008,0 1.8228,-0.816 1.8228,-1.8216 0,-1.008 -0.8148,-1.824 -1.8228,-1.824 -1.0056,0 -1.8216,0.816 -1.8216,1.824 z m 0.2016,4.8588 c 0,0.894 0.726,1.62 1.62,1.62 0.8952,0 1.62,-0.726 1.62,-1.62 0,-0.894 -0.7248,-1.62 -1.62,-1.62 -0.894,0 -1.62,0.726 -1.62,1.62 z m 27.324,61.428 2.4552,1.416 4.2516,-7.3632 -2.4552,-1.4172 -4.2516,7.3644 z m 4.8396,-20.118 -4.2528,7.3644 12.6252,7.2888 2.2788,-3.9444 7.6284,-29.6136 -4.4724,-2.5812 -7.3644,29.7648 -4.7352,-2.7336 1.9752,-3.42 -3.6828,-2.1252 z m 18.102,-28.9428 -0.8604,1.4892 0.7956,1.8624 1.4028,0.81 5.6688,-9.8196 -1.404,-0.8088 -4.8084,8.328 -0.7944,-1.8612 z m 11.7408,-2.9244 -1.578,-0.912 -0.3324,5.4144 c -0.498,-0.6456 -1.2672,-1.0248 -2.0844,-1.0248 -0.9408,0 -1.8096,0.5004 -2.28,1.3164 l -0.456,0.7884 c -0.2832,0.4932 -0.4332,1.0512 -0.4332,1.62 0,1.7892 1.4496,3.24 3.24,3.24 1.1568,0 2.226,-0.618 2.8056,-1.62 l 0.252,-0.438 c 0.2508,-0.4332 0.3972,-0.9168 0.4284,-1.416 l 0.438,-6.9684 z m -5.328,6.3924 0.2532,-0.438 c 0.2892,-0.5016 0.8244,-0.81 1.404,-0.81 0.8928,0 1.62,0.726 1.62,1.62 0,0.2844 -0.0756,0.564 -0.2172,0.81 l -0.2544,0.438 c -0.2892,0.5016 -0.8232,0.81 -1.4016,0.81 -0.8952,0 -1.62,-0.7248 -1.62,-1.62 0,-0.2844 0.0756,-0.564 0.216,-0.81 z m -43.1676,40.1712 1.368,0.366 2.202,-8.214 -1.3692,-0.3672 -2.2008,8.2152 z m 26.868,15.0888 1.002,1.002 6.0132,-6.0132 -1.002,-1.0008 -6.0132,6.012 z m -84.1848,1.002 1.00212,-1.002 -6.01308,-6.012 -1.00176,1.0008 6.01272,6.0132 z m 26.502,-15.7248 1.3692,-0.366 -2.2008,-8.2152 -1.3692,0.3672 2.2008,8.214"
         id="path2832"
         style="fill:#231f20;fill-opacity:1;fill-rule:evenodd;stroke:none"
         inkscape:connector-curvature="0" />
      <path
         d="m 87.49404,369.5016 5.18904,14.1732 1.77096,0 5.18904,-14.1732 -2.27808,0 -1.06692,3.1632 -5.46,0 -1.06584,-3.1632 -2.2782,0 z m 3.98388,5.0616 4.17984,0 -2.08968,6.2016 -2.09016,-6.2016 z m 10.18932,-5.0616 0,14.1732 2.025,0 6.45372,-10.1232 0,10.1232 2.15112,0 0,-14.1732 -2.025,0 -6.45288,10.1232 0,-10.1232 -2.15196,0 z m 13.92,0 0,14.1732 2.15196,0 0,-7.3392 5.946,7.3392 2.532,0 -4.5552,-5.568 5.0604,-8.6052 -2.5308,0 -3.9216,6.96 -2.5308,-2.658 0,-4.302 -2.15196,0 z m 12.40116,14.1732 2.1516,0 0,-9.2376 c 0,-1.608 1.3032,-2.9112 2.9112,-2.9112 1.6068,0 2.91,1.3032 2.91,2.9112 l 0,9.2376 2.1504,0 0,-9.2376 c 0,-2.796 -2.2656,-5.0616 -5.0604,-5.0616 -2.796,0 -5.0628,2.2656 -5.0628,5.0616 l 0,9.2376 z m 13.1616,-14.1732 0,14.1732 2.0244,0 6.4536,-10.1232 0,10.1232 2.1504,0 0,-14.1732 -2.0232,0 -6.4536,10.1232 0,-10.1232 -2.1516,0 z m 13.92,0 0,14.1732 9.1116,0 0,-2.0244 -6.96,0 0,-4.176 5.9472,0 0,-1.8984 -5.9472,0 0,-6.0744 -2.1516,0 z m 14.2992,0 0,12.276 -3.924,0 0,1.8972 9.9996,0 0,-1.8972 -3.924,0 0,-12.276 -2.1516,0 z m 6.834,1.824 1.3896,1.6416 c 1.0968,-0.9288 2.4888,-1.4388 3.9252,-1.4388 0.4968,0 0.9912,0.06 1.4724,0.1812 l 0,0 c 0.8448,0.2112 1.4376,0.9708 1.4376,1.842 0,0.9516 -0.7056,1.7568 -1.6488,1.8816 l -2.2992,0.3036 c -2.0148,0.2676 -3.5184,1.9848 -3.5184,4.0152 0,2.0484 1.53,3.7728 3.5628,4.02 l 0,0 c 0.33,0.0396 0.6612,0.06 0.9936,0.06 1.6716,0 3.3048,-0.5076 4.6824,-1.4568 L 184.98,380.604 c -1.0188,0.7008 -2.226,1.0776 -3.462,1.0776 -0.246,0 -0.4908,-0.0156 -0.7356,-0.0456 l 0,0 c -0.9528,-0.1152 -1.6692,-0.924 -1.6692,-1.884 0,-0.9516 0.7056,-1.7568 1.6488,-1.8816 l 2.3004,-0.3048 c 2.0124,-0.2664 3.5172,-1.9836 3.5172,-4.014 0,-1.8588 -1.2648,-3.4788 -3.0672,-3.9288 l 0,0 c -0.6528,-0.1644 -1.3224,-0.246 -1.9944,-0.246 -1.9464,0 -3.8304,0.69 -5.3148,1.9488 z m 12.1476,-1.824 0,1.7712 6.4548,10.5048 -6.2016,0 0,1.8972 8.8584,0 0,-1.6452 -6.4536,-10.5036 6.4536,0 0,-2.0244 -9.1116,0 z m 11.8968,0 0,14.1732 9.1104,0 0,-2.0244 -6.96,0 0,-4.0488 5.9472,0 0,-1.8996 -5.9472,0 0,-4.176 6.96,0 0,-2.0244 -9.1104,0 z m 11.8944,0 0,14.1732 2.1504,0 0,-14.1732 -2.1504,0 z m 8.0988,0 0,12.276 -3.9228,0 0,1.8972 9.9972,0 0,-1.8972 -3.9228,0 0,-12.276 -2.1516,0"
         id="path2836"
         style="fill:#ffffff;fill-opacity:1;fill-rule:nonzero;stroke:none"
         inkscape:connector-curvature="0" />
      <path
         d="m 156.9048,241.9428 -24.6852,92.1264 49.3692,0 -24.684,-92.1264"
         id="path2838"
         style="fill:#ffffff;fill-opacity:1;fill-rule:nonzero;stroke:none"
         inkscape:connector-curvature="0" />
      <path
         d="m 107.7708,29.34612 c -4.17468,0 -7.55856,3.38484 -7.55856,7.55904 l 0,98.26644 c 0,4.176 3.38388,7.56 7.55856,7.56 l 98.2668,0 c 4.1748,0 7.56,-3.384 7.56,-7.56 l 0,-98.26644 c 0,-4.1742 -3.3852,-7.55904 -7.56,-7.55904 l -98.2668,0 z m 0,2.835 98.2668,0 c 2.61,0 4.7244,2.115 4.7244,4.72404 l 0,98.26644 c 0,2.61 -2.1144,4.7256 -4.7244,4.7256 l -98.2668,0 c -2.60856,0 -4.72356,-2.1156 -4.72356,-4.7256 l 0,-98.26644 c 0,-2.60904 2.115,-4.72404 4.72356,-4.72404 z m 21.732,14.17308 0,79.3698 31.182,0 c 13.3068,0 24.0936,-10.78788 24.0936,-24.0948 0,-13.30728 -10.7868,-24.0942 -24.0936,-24.0942 l -19.1352,0 0,-31.1808 -12.0468,0 z m 12.0468,42.51888 18.426,0 c 7.044,0 12.756,5.7108 12.756,12.75612 0,7.04484 -5.712,12.75564 -12.756,12.75564 l -18.426,0 0,-25.51176"
         id="path2840"
         style="fill:#ffffff;fill-opacity:1;fill-rule:nonzero;stroke:none"
         inkscape:connector-curvature="0" />
    </g>
  </g>
</svg>
