<?xml version="1.0" encoding="UTF-8" standalone="no"?>
<!-- Created with Inkscape (http://www.inkscape.org/) -->
<svg
   xmlns:dc="http://purl.org/dc/elements/1.1/"
   xmlns:cc="http://web.resource.org/cc/"
   xmlns:rdf="http://www.w3.org/1999/02/22-rdf-syntax-ns#"
   xmlns:svg="http://www.w3.org/2000/svg"
   xmlns="http://www.w3.org/2000/svg"
   xmlns:sodipodi="http://sodipodi.sourceforge.net/DTD/sodipodi-0.dtd"
   xmlns:inkscape="http://www.inkscape.org/namespaces/inkscape"
   version="1.0"
   width="490"
   height="360"
   id="svg2"
   sodipodi:version="0.32"
   inkscape:version="0.44"
   sodipodi:docname="Zusatzzeichen 1028-33.svg"
   sodipodi:docbase="C:\Dokumente und Einstellungen\Internet\Desktop\Wiki\SVG sonstiges (fertig)">
  <metadata
     id="metadata10">
    <rdf:RDF>
      <cc:Work
         rdf:about="">
        <dc:format>image/svg+xml</dc:format>
        <dc:type
           rdf:resource="http://purl.org/dc/dcmitype/StillImage" />
      </cc:Work>
    </rdf:RDF>
  </metadata>
  <sodipodi:namedview
     inkscape:window-height="749"
     inkscape:window-width="1024"
     inkscape:pageshadow="2"
     inkscape:pageopacity="0.0"
     guidetolerance="10.0"
     gridtolerance="10.0"
     objecttolerance="10.0"
     borderopacity="1.0"
     bordercolor="#666666"
     pagecolor="#ffffff"
     id="base"
     inkscape:zoom="0.74246212"
     inkscape:cx="245"
     inkscape:cy="-30.613024"
     inkscape:window-x="-4"
     inkscape:window-y="-4"
     inkscape:current-layer="svg2"
     showguides="true"
     inkscape:guide-bbox="true" />
  <defs
     id="defs4" />
  <path
     d="M 38.78125,4.6190618 C 20.35689,4.6190483 9.96875,14.244672 9.96875,42.683954 L 9.65625,317.31604 C 9.65625,345.75531 20.04439,355.38094 38.46875,355.38094 L 451.21875,355.33878 C 469.64311,355.33878 480.03124,345.71316 480.03125,317.27389 L 480.34375,42.726108 C 480.34375,14.286826 469.95561,4.6612021 451.53125,4.6612156 L 38.78125,4.6190618 z "
     style="fill:white;fill-opacity:1;fill-rule:evenodd;stroke:black;stroke-width:3;stroke-linecap:butt;stroke-linejoin:miter;stroke-miterlimit:4;stroke-dasharray:none;stroke-opacity:1"
     id="path1881" />
  <path
     d="M 453.23342,19.074797 L 36.79782,19.117707 C 28.375505,19.117707 23.425891,27.356247 23.425891,39.539027 L 23.425891,320.50387 C 23.425891,332.68661 28.375515,340.9252 36.79782,340.9252 L 453.20218,340.88229 C 461.62449,340.88228 466.57411,332.64373 466.57411,320.46097 L 466.57411,39.496127 C 466.57411,27.313347 461.65573,19.074797 453.23342,19.074797 z "
     style="fill:none;fill-opacity:1;fill-rule:evenodd;stroke:black;stroke-width:12;stroke-linecap:butt;stroke-linejoin:miter;stroke-miterlimit:4;stroke-dasharray:none;stroke-opacity:1"
     id="path3976" />
  <g
     id="g3909"
     transform="translate(230.1844,-337.4495)">
    <path
       id="path3894"
       style="font-size:104.69000244px;font-style:normal;font-variant:normal;font-weight:normal;font-stretch:normal;text-align:center;line-height:100%;writing-mode:lr-tb;text-anchor:middle;fill:black;fill-opacity:1;stroke:none;stroke-width:1px;stroke-linecap:butt;stroke-linejoin:miter;stroke-opacity:1;font-family:DIN 1451 Mittelschrift"
       d="M -48.18754,649.28982 L -48.18754,604.40808 L -53.55495,604.40808 L -53.55495,596.22917 L -48.18754,596.22917 L -48.18754,589.22598 C -48.18755,584.28462 -46.8244,580.64672 -44.09809,578.31225 C -41.3718,575.97793 -37.92985,574.81073 -33.77222,574.81066 L -26.87126,574.81066 L -26.87126,584.82982 L -32.90321,584.82982 C -36.0044,584.82988 -37.55498,586.29527 -37.55496,589.22598 L -37.55496,596.22917 L -26.87126,596.22917 L -26.87126,604.40808 L -37.55496,604.40808 L -37.55496,649.28982 L -48.18754,649.28982 z M -20.83932,649.28982 L -20.83932,596.22917 L -10.15562,596.22917 L -10.15562,601.90329 L -9.95115,601.90329 C -6.64553,597.71165 -2.0449,595.6158 3.85075,595.61575 C 7.7357,595.6158 11.43324,596.97895 14.9434,599.7052 L 7.22455,608.90647 C 4.90716,607.1685 2.55573,606.29949 0.17025,606.29945 C -2.45385,606.29949 -4.83084,607.17702 -6.96074,608.93203 C -9.09068,610.68713 -10.15564,613.50714 -10.15562,617.39209 L -10.15562,649.28982 L -20.83932,649.28982 z M 60.94974,626.79783 L 27.92741,626.79783 C 27.92739,631.15993 29.11163,634.43149 31.48012,636.61252 C 33.84857,638.79357 36.87306,639.88409 40.55359,639.88408 C 44.94972,639.88409 48.8347,638.18015 52.20853,634.77227 L 59.92738,641.36651 C 57.30327,644.4336 54.34694,646.62316 51.05838,647.93519 C 47.76974,649.24723 44.33631,649.90324 40.75807,649.90324 C 35.30544,649.90324 30.02323,648.13967 24.91143,644.61251 C 19.79961,641.08537 17.2437,633.86919 17.24371,622.96397 C 17.2437,612.63814 19.60366,605.49864 24.32358,601.54546 C 29.04347,597.59237 33.97637,595.6158 39.12228,595.61575 C 44.94972,595.6158 50.04449,597.63497 54.40662,601.67325 C 58.76865,605.71163 60.94969,611.15571 60.94974,618.00551 L 60.94974,626.79783 z M 27.92741,618.00551 L 50.31716,618.00551 C 50.14673,614.01833 49.02213,610.96828 46.94336,608.85536 C 44.86453,606.74251 42.2575,605.68607 39.12228,605.68603 C 35.95293,605.68607 33.32035,606.74251 31.22453,608.85536 C 29.12867,610.96828 28.02963,614.01833 27.92741,618.00551 L 27.92741,618.00551 z M 72.50245,649.28982 L 72.50245,596.22917 L 83.18614,596.22917 L 83.18614,649.28982 L 72.50245,649.28982 z M 72.50245,585.49435 L 72.50245,574.81066 L 83.18614,574.81066 L 83.18614,585.49435 L 72.50245,585.49435 z " />
    <path
       id="text2078"
       style="font-size:104.68567657px;font-style:normal;font-variant:normal;font-weight:normal;font-stretch:normal;text-align:center;line-height:100%;writing-mode:lr-tb;text-anchor:middle;fill:black;fill-opacity:1;stroke:none;stroke-width:1px;stroke-linecap:butt;stroke-linejoin:miter;stroke-opacity:1;font-family:DIN 1451 Engschrift"
       d="M -152.5703,454.82031 L -152.5703,445.8175 L -133.83307,394.31168 L -151.20933,394.31168 L -151.20933,384.99578 L -122.63226,384.99578 L -122.63226,393.05615 L -141.36949,444.76962 L -122.63226,444.76962 L -122.63226,454.82031 L -152.5703,454.82031 z M -95.33949,454.82031 L -95.33949,449.79496 C -96.52583,451.60959 -97.83461,453.00569 -99.26584,453.98328 C -100.69711,454.96088 -102.4244,455.44968 -104.44773,455.44968 C -106.47108,455.44968 -108.37249,454.89113 -110.15196,453.77403 C -111.93144,452.65693 -113.17047,451.38329 -113.86905,449.9531 C -114.56765,448.52293 -114.96912,447.35418 -115.07348,446.44686 C -115.17784,445.53956 -115.23002,444.21268 -115.23002,442.4662 L -115.23002,404.98855 L -105.17933,404.98855 L -105.17933,438.69959 C -105.17934,439.46634 -105.16177,440.25118 -105.12661,441.05412 C -105.09148,441.85708 -104.70758,442.78196 -103.9749,443.82876 C -103.24226,444.87559 -101.96862,445.39899 -100.15398,445.39898 C -99.24669,445.39899 -98.40966,445.15459 -97.6429,444.66579 C -96.87618,444.177 -96.33574,443.60141 -96.02157,442.93902 C -95.70744,442.27666 -95.51522,441.56156 -95.44491,440.79375 C -95.37465,440.02596 -95.33951,439.3279 -95.33949,438.69959 L -95.33949,404.98855 L -85.28879,404.98855 L -85.28879,454.82031 L -95.33949,454.82031 z M -74.28925,454.82031 L -74.28925,412.94668 L -79.20917,412.94668 L -79.20917,404.98855 L -74.28925,404.98855 L -74.28925,398.08149 C -74.28926,394.1733 -73.3122,391.27673 -71.35807,389.39176 C -69.40396,387.50693 -67.58934,386.30304 -65.91421,385.78009 C -64.23911,385.25729 -62.38882,384.99585 -60.36332,384.99578 L -56.9098,384.99578 L -56.9098,394.20626 L -60.57418,394.20626 C -63.01712,394.20632 -64.23858,395.49806 -64.23856,398.08149 L -64.23856,404.98855 L -56.9098,404.98855 L -56.9098,412.94668 L -64.23856,412.94668 L -64.23856,454.82031 L -74.28925,454.82031 z M -51.63526,449.5873 C -52.12512,448.74816 -52.43981,447.82274 -52.57931,446.81106 C -52.71882,445.7994 -52.78857,444.66526 -52.78856,443.40865 L -52.78856,437.75713 C -52.78857,434.05763 -51.86369,431.30056 -50.01392,429.48592 C -48.16417,427.67132 -46.48905,426.43283 -44.98857,425.77042 C -43.48812,425.10807 -41.69107,424.77688 -39.59743,424.77685 L -32.89803,424.77685 L -32.89803,420.4831 C -32.89805,419.50554 -32.95023,418.70313 -33.05457,418.07586 C -33.15896,417.44866 -33.59504,416.64624 -34.36282,415.66861 C -35.13065,414.69105 -36.178,414.20226 -37.50486,414.20222 C -38.89992,414.20226 -40.08624,414.65591 -41.06382,415.56318 C -42.04143,416.47053 -42.63459,417.65685 -42.8433,419.12214 L -52.78856,419.12214 C -52.78857,415.07549 -51.34028,411.60386 -48.4437,408.70724 C -45.54713,405.81071 -42.04036,404.36243 -37.92338,404.36238 C -33.87458,404.36243 -30.34971,405.79314 -27.34874,408.65453 C -24.34784,411.51601 -22.84737,415.00521 -22.84734,419.12214 L -22.84734,454.82031 L -32.89803,454.82031 L -32.89803,449.79496 C -33.9438,451.5393 -35.25205,452.91784 -36.82278,453.93057 C -38.39356,454.94331 -40.15653,455.44968 -42.1117,455.44968 C -46.50769,455.44968 -49.68221,453.49555 -51.63526,449.5873 L -51.63526,449.5873 z M -42.73787,437.65171 L -42.73787,440.16278 C -42.73788,441.48968 -42.26666,442.6941 -41.32419,443.77605 C -40.38176,444.85801 -39.14379,445.39899 -37.61029,445.39898 C -36.77116,445.39899 -35.98525,445.18974 -35.25256,444.77121 C -34.51992,444.35271 -33.96191,443.77712 -33.57851,443.04445 C -33.19517,442.3118 -32.98591,441.36935 -32.95074,440.21709 C -32.91562,439.06487 -32.89805,438.24488 -32.89803,437.75713 L -32.89803,432.93944 L -36.66784,432.93944 C -38.48248,432.93947 -39.9478,433.28876 -41.06382,433.98732 C -42.17987,434.68593 -42.73788,435.90739 -42.73787,437.65171 L -42.73787,437.65171 z M 5.65944,404.36238 C 7.47404,404.36243 9.18429,404.85069 10.79022,405.82717 C 12.39608,406.80375 13.54779,407.93788 14.24534,409.22958 C 14.94283,410.52137 15.37891,411.6209 15.55359,412.52817 C 15.72821,413.43552 15.81553,414.62184 15.81556,416.08712 L 15.81556,454.82031 L 5.76487,454.82031 L 5.76487,419.85374 C 5.76485,418.17972 5.38094,416.81929 4.61316,415.77244 C 3.84533,414.72566 2.62441,414.20226 0.95038,414.20222 C -0.51497,414.20226 -1.71886,414.77785 -2.66129,415.92898 C -3.60376,417.0802 -4.07499,418.38845 -4.07497,419.85374 L -4.07497,454.82031 L -14.12566,454.82031 L -14.12566,384.99578 L -4.07497,384.99578 L -4.07497,409.80624 C -1.77264,406.17705 1.47217,404.36243 5.65944,404.36238 L 5.65944,404.36238 z M 47.75352,404.36238 L 47.75352,414.62073 C 47.26576,414.48233 46.77749,414.37797 46.28872,414.30764 C 45.7999,414.2374 45.34571,414.20226 44.92616,414.20222 C 41.64619,414.20226 39.13405,415.31882 37.38974,417.55192 C 35.64539,419.78508 34.77322,422.4724 34.77323,425.61388 L 34.77323,454.82031 L 24.72254,454.82031 L 24.72254,404.98855 L 34.77323,404.98855 L 34.77323,410.33018 C 36.51755,408.16631 38.66336,406.6307 41.21066,405.72334 C 43.75792,404.81608 45.93887,404.36243 47.75352,404.36238 L 47.75352,404.36238 z M 68.93154,445.29356 L 71.23496,445.29356 L 71.23496,454.82031 L 68.09452,454.82031 C 66.2096,454.82031 64.53448,454.62863 63.06917,454.24525 C 61.60383,453.86189 60.17312,453.07651 58.77702,451.88912 C 57.3809,450.70174 56.40384,449.39296 55.84583,447.96277 C 55.28781,446.5326 55.0088,444.77069 55.00881,442.67705 L 55.00881,412.84125 L 50.08889,412.84125 L 50.08889,404.98855 L 55.00881,404.98855 L 55.00881,389.9157 L 65.0595,389.9157 L 65.0595,404.98855 L 71.23496,404.98855 L 71.23496,412.84125 L 65.0595,412.84125 L 65.0595,440.89758 C 65.05949,442.57164 65.28631,443.72281 65.73998,444.3511 C 66.19362,444.97942 67.25747,445.29357 68.93154,445.29356 L 68.93154,445.29356 z M 116.57489,404.36238 C 120.69183,404.36243 123.37862,405.42681 124.63525,407.55553 C 125.89182,409.68435 126.62502,411.35946 126.83484,412.58088 C 127.04459,413.80238 127.14949,414.90084 127.14952,415.87627 L 127.14952,443.20099 C 127.14949,444.94534 127.02702,446.41066 126.78212,447.59697 C 126.53716,448.7833 125.66446,450.38866 124.16402,452.41306 C 122.66353,454.43747 120.09867,455.44968 116.46946,455.44968 C 114.51638,455.44968 112.75448,454.94331 111.18374,453.93057 C 109.61297,452.91784 108.30472,451.5393 107.25899,449.79496 L 107.25899,454.82031 L 97.20829,454.82031 L 97.20829,384.99578 L 107.25899,384.99578 L 107.25899,409.80624 C 109.49104,406.17705 112.59634,404.36243 116.57489,404.36238 L 116.57489,404.36238 z M 112.07348,414.20222 C 110.67842,414.20226 109.52725,414.76081 108.61995,415.87787 C 107.71263,416.995 107.25897,418.28621 107.25899,419.7515 L 107.25899,439.43118 C 107.25897,441.03709 107.55555,442.4332 108.14873,443.61951 C 108.74187,444.80583 110.05012,445.39899 112.07348,445.39898 C 113.53879,445.39899 114.74267,444.96291 115.68515,444.09073 C 116.62758,443.21858 117.0988,442.22341 117.09883,441.10523 L 117.09883,419.7515 C 117.0988,418.14564 116.64515,416.81929 115.73786,415.77244 C 114.83053,414.72566 113.60907,414.20226 112.07348,414.20222 L 112.07348,414.20222 z M 135.54214,454.82031 L 135.54214,404.98855 L 145.59283,404.98855 L 145.59283,454.82031 L 135.54214,454.82031 z M 135.54214,394.83562 L 135.54214,384.99578 L 145.59283,384.99578 L 145.59283,394.83562 L 135.54214,394.83562 z M 167.12546,446.02515 C 168.66105,446.02516 169.98687,445.5369 171.10293,444.56036 C 172.21894,443.58384 172.77696,442.32777 172.77698,440.79215 C 172.77696,438.97754 172.30626,437.63415 171.3649,436.76197 C 170.42349,435.88982 168.94006,435.10444 166.91461,434.40584 L 164.92747,433.67424 C 162.83383,432.90539 161.08896,432.15462 159.69287,431.42194 C 158.29675,430.6893 156.79628,429.36348 155.19146,427.44447 C 153.58662,425.52552 152.78421,422.75141 152.78421,419.12214 C 152.78421,415.00521 154.21492,411.51601 157.07636,408.65453 C 159.93779,405.79314 163.46213,404.36243 167.6494,404.36238 C 171.48734,404.36243 174.73214,405.82775 177.38381,408.75836 C 180.03543,411.68905 181.36125,415.00414 181.36128,418.70362 L 172.15081,418.70362 C 172.15078,417.23834 171.67956,416.03445 170.73713,415.09196 C 169.79466,414.14954 168.55563,413.67832 167.02003,413.67828 C 165.62497,413.67832 164.4738,414.20173 163.5665,415.2485 C 162.65918,416.29535 162.20553,417.55142 162.20554,419.01671 C 162.20553,420.55236 162.65918,421.73921 163.5665,422.57726 C 164.4738,423.41538 165.79962,424.14858 167.54397,424.77685 L 170.78984,425.82154 C 172.67472,426.52015 174.15762,427.18359 175.23854,427.81187 C 176.3194,428.44019 177.40082,429.38211 178.48281,430.63763 C 179.56473,431.89319 180.455,433.35851 181.15362,435.03361 C 181.85218,436.70874 182.20147,438.48875 182.2015,440.37364 C 182.20147,444.42246 180.75318,447.96438 177.85664,450.99939 C 174.96003,454.0344 171.48734,455.55191 167.43855,455.55191 C 164.99561,455.55191 162.53565,454.889 160.05867,453.56317 C 157.58166,452.23735 155.66268,450.44031 154.30172,448.17203 C 152.94075,445.90376 152.26027,443.33944 152.26027,440.47906 L 161.57617,440.47906 C 161.57616,442.01469 162.11714,443.32294 163.19911,444.40382 C 164.28105,445.48472 165.58983,446.02516 167.12546,446.02515 L 167.12546,446.02515 z " />
    <path
       id="text1880"
       style="font-size:104.69000244px;font-style:normal;font-variant:normal;font-weight:normal;font-stretch:normal;text-align:center;line-height:100%;writing-mode:lr-tb;text-anchor:middle;fill:black;fill-opacity:1;stroke:none;stroke-width:1px;stroke-linecap:butt;stroke-linejoin:miter;stroke-opacity:1;font-family:DIN 1451 Mittelschrift"
       d="M -15.66871,523.73422 L -15.66871,513.10164 L -4.98501,513.10164 L -4.98501,523.73422 L -15.66871,523.73422 z M 9.48143,523.73422 L 9.48143,513.10164 L 20.16512,513.10164 L 20.16512,523.73422 L 9.48143,523.73422 z M 34.63157,523.73422 L 34.63157,513.10164 L 45.31526,513.10164 L 45.31526,523.73422 L 34.63157,523.73422 z " />
  </g>
</svg>
