<?xml version="1.0" encoding="UTF-8" standalone="no"?>
<!-- Created with Inkscape (http://www.inkscape.org/) -->
<svg
   xmlns:svg="http://www.w3.org/2000/svg"
   xmlns="http://www.w3.org/2000/svg"
   version="1.0"
   width="2510"
   height="560"
   id="svg2">
  <defs
     id="defs4" />
  <path
     d="M 66.999975,9.578125 C 36.801544,9.578125 13.062475,30.612491 13.062475,62.140625 L 13.343725,497.85938 C 13.343725,529.38751 37.082824,550.42187 67.281225,550.42188 L 2443,550.42188 C 2473.1984,550.42188 2496.9376,529.38749 2496.9375,497.85938 L 2496.6562,62.140625 C 2496.6562,30.612495 2472.9172,9.578125 2442.7187,9.578125 L 66.999975,9.578125 z "
     style="opacity:1;fill:white;fill-opacity:1;fill-rule:evenodd;stroke:black;stroke-width:3;stroke-linecap:butt;stroke-linejoin:miter;stroke-miterlimit:4;stroke-dasharray:none;stroke-opacity:1"
     id="path2760" />
  <path
     d="M 45.215605,69.620297 L 45.215605,484.84337 C 45.215605,509.53397 58.671957,520.82939 79.234511,520.82939 L 2435.0178,520.82939 C 2454.1131,520.82939 2464.7844,508.6592 2464.7844,487.61152 L 2464.7844,73.772531 C 2464.7844,56.313918 2447.5322,39.170608 2425.0958,39.170608 L 73.564696,39.170608 C 55.720711,39.170608 45.215605,51.462136 45.215605,69.620297 z "
     style="opacity:1;fill:white;fill-opacity:1;fill-rule:evenodd;stroke:black;stroke-width:30.19792747;stroke-linecap:butt;stroke-linejoin:miter;stroke-miterlimit:4;stroke-dasharray:none;stroke-opacity:1"
     id="path1892" />
  <path
     d="M 200.8638,401.13485 L 200.8638,156.85324 L 357.12356,156.85324 L 357.12356,191.89432 L 237.91681,191.89432 L 237.91681,261.47351 L 339.51919,261.47351 L 339.51919,294.50266 L 237.91681,294.50266 L 237.91681,366.26143 L 357.12356,366.26143 L 357.12356,401.13485 L 200.8638,401.13485 z M 388.97909,401.13485 L 388.97909,227.10306 L 424.02017,227.10306 L 424.02017,245.7134 L 424.69081,245.7134 C 435.5328,231.96539 450.62225,225.09131 469.9592,225.09114 C 483.48371,225.09131 496.53328,230.2329 509.10797,240.51592 C 521.68236,250.79926 527.96963,265.77693 527.96979,285.44898 L 527.96979,401.13485 L 492.92871,401.13485 L 492.92871,297.52055 C 492.92858,285.78442 489.6592,276.61898 483.12056,270.0242 C 476.58168,263.42968 468.45015,260.13236 458.72593,260.13222 C 448.66621,260.13236 440.36701,263.42968 433.82832,270.0242 C 427.28949,276.61898 424.02011,285.78442 424.02017,297.52055 L 424.02017,401.13485 L 388.97909,401.13485 z M 677.35547,401.13485 L 677.35547,383.0275 C 665.17201,396.44036 650.19434,403.14678 632.42241,403.14678 C 621.69205,403.14678 612.47072,401.05102 604.75839,396.85951 C 597.04595,392.668 590.73074,387.27492 585.81274,380.68025 C 580.89466,374.53272 577.59733,367.23949 575.92075,358.80053 C 574.24412,350.36166 573.40582,335.41193 573.40584,313.9513 C 573.40582,292.71439 574.24412,277.93232 575.92075,269.60505 C 577.59733,261.27804 580.89466,253.98481 585.81274,247.72533 C 590.73074,241.24261 597.04595,235.84953 604.75839,231.54607 C 612.47072,227.24296 621.69205,225.09131 632.42241,225.09114 C 641.36422,225.09131 649.46781,226.99147 656.7332,230.7916 C 663.99839,234.59208 670.87247,239.566 677.35547,245.7134 L 677.35547,156.85324 L 712.39655,156.85324 L 712.39655,401.13485 L 677.35547,401.13485 z M 643.15269,260.13222 C 626.61009,260.13236 616.69018,265.77693 613.39292,277.06595 C 610.09553,288.35521 608.44687,300.65032 608.44693,313.9513 C 608.44687,327.58777 610.09553,340.05054 613.39292,351.33963 C 616.69018,362.62882 626.61009,368.27339 643.15269,368.27336 C 659.35978,368.27339 669.11203,362.40527 672.40948,350.66899 C 675.70668,338.9328 677.35534,326.69359 677.35547,313.9513 C 677.35534,301.54451 675.70668,289.47295 672.40948,277.73659 C 669.11203,266.00048 659.35978,260.13236 643.15269,260.13222 L 643.15269,260.13222 z M 886.59603,327.36415 L 778.28722,327.36415 C 778.28717,341.67126 782.17131,352.40153 789.93964,359.555 C 797.70785,366.70856 807.62776,370.28532 819.69941,370.28529 C 834.11813,370.28532 846.86033,364.69664 857.92605,353.51922 L 883.24281,375.14745 C 874.63608,385.20711 864.93972,392.38856 854.15368,396.69185 C 843.3674,400.99514 832.1062,403.14678 820.37006,403.14678 C 802.48618,403.14678 785.16126,397.36249 768.39524,385.7939 C 751.62915,374.22534 743.24613,350.55727 743.24614,314.7896 C 743.24613,280.92226 750.98645,257.50568 766.46715,244.53978 C 781.94776,231.57419 798.127,225.09131 815.00491,225.09114 C 834.11813,225.09131 850.82829,231.7139 865.13546,244.95893 C 879.44235,258.20426 886.59587,276.06011 886.59603,298.52652 L 886.59603,327.36415 z M 778.28722,298.52652 L 851.7226,298.52652 C 851.16361,285.4491 847.47508,275.44535 840.657,268.51525 C 833.83869,261.58542 825.28801,258.12043 815.00491,258.12029 C 804.60988,258.12043 795.97536,261.58542 789.10134,268.51525 C 782.2272,275.44535 778.6225,285.4491 778.28722,298.52652 L 778.28722,298.52652 z M 1006.9764,401.13485 L 1006.9764,227.10306 L 1042.0175,227.10306 L 1042.0175,401.13485 L 1006.9764,401.13485 z M 1006.9764,191.89432 L 1006.9764,156.85324 L 1042.0175,156.85324 L 1042.0175,191.89432 L 1006.9764,191.89432 z M 1088.4594,401.13485 L 1088.4594,227.10306 L 1123.5005,227.10306 L 1123.5005,245.7134 L 1124.1712,245.7134 C 1135.0131,231.96539 1150.1026,225.09131 1169.4395,225.09114 C 1182.9641,225.09131 1196.0136,230.2329 1208.5883,240.51592 C 1221.1627,250.79926 1227.45,265.77693 1227.4501,285.44898 L 1227.4501,401.13485 L 1192.4091,401.13485 L 1192.4091,297.52055 C 1192.4089,285.78442 1189.1396,276.61898 1182.6009,270.0242 C 1176.062,263.42968 1167.9305,260.13236 1158.2063,260.13222 C 1148.1466,260.13236 1139.8474,263.42968 1133.3087,270.0242 C 1126.7698,276.61898 1123.5005,285.78442 1123.5005,297.52055 L 1123.5005,401.13485 L 1088.4594,401.13485 z "
     style="font-size:343.36907959px;font-style:normal;font-variant:normal;font-weight:normal;font-stretch:normal;text-align:center;line-height:100%;writing-mode:lr-tb;text-anchor:middle;fill:black;fill-opacity:1;stroke:none;stroke-width:1px;stroke-linecap:butt;stroke-linejoin:miter;stroke-opacity:1;font-family:DIN 1451 Mittelschrift"
     id="text3656" />
  <path
     d="M 2054.1915,398.03726 L 2054.1915,224.00547 L 2089.2326,224.00547 L 2089.2326,242.61581 L 2089.9032,242.61581 C 2100.9687,228.8678 2116.0582,221.99372 2135.1716,221.99354 C 2147.3548,221.99372 2157.0232,224.1733 2164.1769,228.53231 C 2171.3303,232.89165 2178.0367,238.25679 2184.2962,244.62773 C 2198.0442,229.53844 2216.3751,221.99372 2239.2889,221.99354 C 2252.8133,221.99372 2265.8629,227.13531 2278.4376,237.41832 C 2291.0119,247.70166 2297.2992,262.67934 2297.2995,282.35139 L 2297.2995,398.03726 L 2262.2584,398.03726 L 2262.2584,294.42296 C 2262.2582,282.68682 2258.9608,273.52138 2252.3664,266.9266 C 2245.7715,260.33209 2237.6121,257.03477 2227.888,257.03462 C 2217.8281,257.03477 2209.5289,260.33209 2202.9903,266.9266 C 2196.4514,273.52138 2193.182,282.68682 2193.1822,294.42296 L 2193.1822,398.03726 L 2158.3088,398.03726 L 2158.3088,294.42296 C 2158.3086,282.68682 2155.0113,273.52138 2148.4168,266.9266 C 2141.822,260.33209 2133.6625,257.03477 2123.9383,257.03462 C 2113.8786,257.03477 2105.5794,260.33209 2099.0407,266.9266 C 2092.5019,273.52138 2089.2325,282.68682 2089.2326,294.42296 L 2089.2326,398.03726 L 2054.1915,398.03726 z "
     style="font-size:343.36907959px;font-style:normal;font-variant:normal;font-weight:normal;font-stretch:normal;text-align:center;line-height:100%;writing-mode:lr-tb;text-anchor:middle;fill:black;fill-opacity:1;stroke:none;stroke-width:1px;stroke-linecap:butt;stroke-linejoin:miter;stroke-opacity:1;font-family:DIN 1451 Mittelschrift"
     id="text3660" />
  <path
     d="M 1354.8162,395.43823 L 1354.8162,360.56481 L 1389.8573,360.56481 L 1389.8573,395.43823 L 1354.8162,395.43823 z M 1437.3053,395.43823 L 1437.3053,360.56481 L 1472.3464,360.56481 L 1472.3464,395.43823 L 1437.3053,395.43823 z M 1519.7944,395.43823 L 1519.7944,360.56481 L 1554.8355,360.56481 L 1554.8355,395.43823 L 1519.7944,395.43823 z M 1602.2834,395.43823 L 1602.2834,360.56481 L 1637.3245,360.56481 L 1637.3245,395.43823 L 1602.2834,395.43823 z M 1684.7725,395.43823 L 1684.7725,360.56481 L 1719.8136,360.56481 L 1719.8136,395.43823 L 1684.7725,395.43823 z M 1767.2616,395.43823 L 1767.2616,360.56481 L 1802.3026,360.56481 L 1802.3026,395.43823 L 1767.2616,395.43823 z M 1849.7506,395.43823 L 1849.7506,360.56481 L 1884.7917,360.56481 L 1884.7917,395.43823 L 1849.7506,395.43823 z M 1932.2397,395.43823 L 1932.2397,360.56481 L 1967.2807,360.56481 L 1967.2807,395.43823 L 1932.2397,395.43823 z "
     style="font-size:343.36907959px;font-style:normal;font-variant:normal;font-weight:normal;font-stretch:normal;text-align:center;line-height:100%;writing-mode:lr-tb;text-anchor:middle;fill:black;fill-opacity:1;stroke:none;stroke-width:1px;stroke-linecap:butt;stroke-linejoin:miter;stroke-opacity:1;font-family:DIN 1451 Mittelschrift"
     id="text3664" />
</svg>
