<?xml version="1.0" encoding="UTF-8" standalone="no"?>
<!-- Created with Inkscape (http://www.inkscape.org/) -->
<svg
   xmlns:svg="http://www.w3.org/2000/svg"
   xmlns="http://www.w3.org/2000/svg"
   version="1.0"
   width="490"
   height="270"
   id="svg2">
  <defs
     id="defs4" />
  <path
     d="M 38.78125,4.984375 C 20.356889,4.9843748 9.96875,12.12016 9.96875,33.203125 L 9.65625,236.79688 C 9.65625,257.87984 20.044391,265.01563 38.46875,265.01563 L 451.21875,264.98438 C 469.64311,264.98438 480.03124,257.84859 480.03125,236.76563 L 480.34375,33.234375 C 480.34375,12.15141 469.95561,5.0156248 451.53125,5.015625 L 38.78125,4.984375 z "
     style="fill:white;fill-opacity:1;fill-rule:evenodd;stroke:black;stroke-width:2;stroke-linecap:butt;stroke-linejoin:miter;stroke-miterlimit:4;stroke-dasharray:none;stroke-opacity:1"
     id="path1881" />
  <path
     d="M 453.3125,17.796875 L 36.78125,17.828125 C 28.356999,17.828125 23.40625,23.829135 23.40625,32.703125 L 23.40625,237.35938 C 23.406249,246.23335 28.35701,252.23438 36.78125,252.23438 L 453.28125,252.20313 C 461.70549,252.20312 466.65625,246.20211 466.65625,237.32813 L 466.65625,32.671875 C 466.65625,23.797885 461.73674,17.796875 453.3125,17.796875 z "
     style="fill:none;fill-opacity:1;fill-rule:evenodd;stroke:black;stroke-width:10.05090809;stroke-linecap:butt;stroke-linejoin:miter;stroke-miterlimit:4;stroke-dasharray:none;stroke-opacity:1"
     id="path3976" />
  <path
     d="M 80.239381,108.66835 L 80.239381,158.97358 L 204.11877,158.97358 L 204.11877,108.66835 L 80.239381,108.66835 z "
     style="fill:white;fill-opacity:1;fill-rule:evenodd;stroke:none;stroke-width:1px;stroke-linecap:butt;stroke-linejoin:miter;stroke-opacity:1"
     id="path20922" />
  <path
     d="M 102.19246,159.33545 L 91.88847,124.86221 L 91.69854,124.86221 L 81.39455,159.33545 L 72.65753,159.33545 L 56.89291,110.04726 L 67.38683,110.04726 L 76.83611,144.56798 L 77.02604,144.56798 L 88.18474,110.04726 L 95.40227,110.04726 L 106.56097,144.56798 L 106.7509,144.56798 L 116.20018,110.04726 L 126.6941,110.04726 L 110.92948,159.33545 L 102.19246,159.33545 z M 171.56629,138.44257 L 140.89175,138.44257 C 140.89174,142.49454 141.99178,145.5335 144.19188,147.55946 C 146.39194,149.58545 149.2014,150.59844 152.62025,150.59843 C 156.70383,150.59844 160.3126,149.01564 163.44656,145.85005 L 170.61661,151.97546 C 168.17907,154.82449 165.43293,156.85838 162.37817,158.07713 C 159.32335,159.29588 156.13403,159.90525 152.81019,159.90525 C 147.74523,159.90525 142.83857,158.26706 138.09021,154.99068 C 133.34182,151.7143 130.96764,145.01118 130.96764,134.88129 C 130.96764,125.28959 133.1598,118.6577 137.54415,114.98558 C 141.92847,111.31354 146.51065,109.4775 151.29071,109.47745 C 156.70383,109.4775 161.43638,111.35311 165.48836,115.10428 C 169.54027,118.85555 171.56625,123.91257 171.56629,130.27536 L 171.56629,138.44257 z M 140.89175,130.27536 L 161.68966,130.27536 C 161.53135,126.57166 160.4867,123.73846 158.55573,121.77576 C 156.62469,119.81313 154.20302,118.8318 151.29071,118.83176 C 148.34669,118.8318 145.90128,119.81313 143.95446,121.77576 C 142.00761,123.73846 140.98671,126.57166 140.89175,130.27536 L 140.89175,130.27536 z M 182.01273,159.33545 L 182.01273,110.04726 L 191.93684,110.04726 L 191.93684,115.31796 L 192.12678,115.31796 C 195.19738,111.42434 199.47091,109.4775 204.9474,109.47745 C 208.55614,109.4775 211.9908,110.74374 215.25139,113.27616 L 208.08133,121.82324 C 205.9287,120.20883 203.74445,119.40161 201.52857,119.40157 C 199.09104,119.40161 196.88305,120.21675 194.90458,121.84698 C 192.92607,123.4773 191.93682,126.09682 191.93684,129.70555 L 191.93684,159.33545 L 182.01273,159.33545 z M 219.80984,159.33545 L 219.80984,90.151551 L 229.73395,90.151551 L 229.73395,133.21935 L 229.92389,133.21935 L 248.86992,110.04726 L 260.74088,110.04726 L 243.74167,129.32568 L 263.06758,159.33545 L 250.62683,159.33545 L 237.5213,136.3058 L 229.73395,145.18527 L 229.73395,159.33545 L 219.80984,159.33545 z M 270.90241,110.04726 L 270.90241,95.089861 L 280.82652,95.089861 L 280.82652,110.04726 L 288.04406,110.04726 L 288.04406,117.64467 L 280.82652,117.64467 L 280.82652,146.32488 C 280.82651,148.79405 281.99777,150.02863 284.34033,150.02862 L 288.04406,150.02862 L 288.04406,159.33545 L 282.86833,159.33545 C 279.41782,159.33545 276.56088,158.2908 274.2975,156.20152 C 272.0341,154.11223 270.9024,151.12076 270.90241,147.22708 L 270.90241,117.64467 L 265.96409,117.64467 L 265.96409,110.04726 L 270.90241,110.04726 z M 323.18207,159.33545 L 323.18207,154.96694 L 322.94465,154.96694 C 320.9503,158.25915 316.89835,159.90525 310.7888,159.90525 C 305.28066,159.90525 301.00713,158.47282 297.96817,155.60797 C 294.92921,152.74312 293.40972,149.15809 293.40973,144.85289 C 293.40972,140.95923 294.7551,137.55623 297.44585,134.64387 C 300.13659,131.73156 304.14105,130.27539 309.45925,130.27536 L 323.18207,130.27536 L 323.18207,125.14711 C 323.18204,120.93692 319.81069,118.8318 313.06802,118.83176 C 308.38294,118.8318 305.26484,120.08221 303.71371,122.58298 L 295.92637,116.69499 C 299.37685,111.88335 304.91662,109.4775 312.5457,109.47745 C 318.6236,109.4775 323.56191,110.6646 327.36064,113.03874 C 331.15931,115.41297 333.05866,119.63903 333.0587,125.71691 L 333.0587,159.33545 L 323.18207,159.33545 z M 323.18207,142.05134 L 323.18207,138.44257 L 311.31112,138.44257 C 305.58139,138.44259 302.71654,140.42108 302.71655,144.37805 C 302.71654,146.05582 303.43671,147.51199 304.87707,148.74656 C 306.31739,149.98115 308.71532,150.59844 312.07086,150.59843 C 316.1861,150.59844 319.06678,150.13943 320.71291,149.2214 C 322.35899,148.30339 323.18204,145.91337 323.18207,142.05134 L 323.18207,142.05134 z M 373.60988,159.28796 L 373.60988,154.2072 C 370.15936,158.0059 365.91748,159.90525 360.88423,159.90525 C 357.65531,159.90525 354.95665,159.26422 352.78824,157.98216 C 350.6198,156.7001 348.98161,155.34681 347.87366,153.92229 C 346.44914,152.08626 345.47573,150.13943 344.95341,148.08178 C 344.43108,146.02417 344.16992,141.57652 344.16993,134.73884 C 344.16992,127.9012 344.43108,123.45356 344.95341,121.39589 C 345.47573,119.3383 346.44914,117.37564 347.87366,115.5079 C 348.98161,114.11508 350.6198,112.7618 352.78824,111.44803 C 354.95665,110.13436 357.65531,109.4775 360.88423,109.47745 C 365.69589,109.4775 369.93777,111.42434 373.60988,115.31796 L 373.60988,110.04726 L 383.534,110.04726 L 383.534,158.19583 C 383.53395,165.6033 381.37344,171.06393 377.05246,174.57775 C 372.7314,178.09153 367.76935,179.84843 362.16629,179.84845 C 359.00068,179.84843 355.89841,179.08869 352.85946,177.56923 C 349.82049,176.04973 347.20888,174.05541 345.02463,171.58627 L 352.71701,165.46086 C 353.91992,166.66377 355.35235,167.70841 357.0143,168.59479 C 358.67621,169.48114 360.45685,169.92432 362.35622,169.92433 C 365.64841,169.92432 368.34707,169.0063 370.45221,167.17027 C 372.55729,165.33423 373.60985,162.70679 373.60988,159.28796 L 373.60988,159.28796 z M 354.09404,134.73884 C 354.09403,138.69584 354.19691,141.32328 354.40269,142.62115 C 354.60843,143.91905 355.1545,145.12198 356.04088,146.22992 C 356.70563,147.11629 357.68696,147.971 358.98487,148.79404 C 360.28274,149.6171 361.92885,150.02863 363.92319,150.02862 C 365.85417,150.02863 367.4607,149.6171 368.74279,148.79404 C 370.02483,147.971 371.01407,147.11629 371.71053,146.22992 C 372.56521,145.12198 373.09544,143.91905 373.30124,142.62115 C 373.50697,141.32328 373.60985,138.69584 373.60988,134.73884 C 373.60985,130.78188 373.50697,128.15445 373.30124,126.85653 C 373.09544,125.55867 372.56521,124.33992 371.71053,123.20027 C 371.01407,122.3456 370.02483,121.49881 368.74279,120.65989 C 367.4607,119.82105 365.85417,119.40161 363.92319,119.40157 C 361.92885,119.40161 360.28274,119.82105 358.98487,120.65989 C 357.68696,121.49881 356.70563,122.3456 356.04088,123.20027 C 355.1545,124.33992 354.60843,125.55867 354.40269,126.85653 C 354.19691,128.15445 354.09403,130.78188 354.09404,134.73884 L 354.09404,134.73884 z M 390.98896,151.12075 L 397.92159,144.28308 C 402.22678,148.49332 407.40251,150.59844 413.44879,150.59843 C 416.26614,150.59844 418.59284,150.0682 420.42891,149.00772 C 422.26492,147.94726 423.18294,146.37238 423.18297,144.28308 C 423.18294,141.40241 421.17279,139.78797 417.15253,139.43973 L 408.41551,138.63251 C 404.33189,138.31597 400.94472,136.9706 398.25398,134.59639 C 395.56322,132.22222 394.21785,128.91419 394.21785,124.67227 C 394.21785,119.67068 395.97475,115.88781 399.48856,113.32364 C 403.00234,110.75957 407.37085,109.4775 412.59409,109.47745 C 416.89926,109.4775 420.58716,110.08688 423.65781,111.30558 C 426.72839,112.52438 429.48245,114.14674 431.91999,116.17267 L 425.79458,123.39021 C 423.83189,122.0607 421.80591,120.96857 419.71666,120.11383 C 417.62734,119.25916 415.25315,118.8318 412.59409,118.83176 C 409.42848,118.8318 407.2284,119.39369 405.99384,120.51744 C 404.75924,121.64126 404.14196,123.05786 404.14197,124.76724 C 404.14196,125.84357 404.60096,126.84073 405.519,127.75872 C 406.437,128.67677 408.14642,129.23075 410.64725,129.42065 L 418.81446,129.99046 C 423.91102,130.3387 427.56727,131.91358 429.78322,134.71509 C 431.99909,137.51666 433.10705,140.86427 433.10709,144.75792 C 433.10705,149.60128 431.12856,153.33666 427.17161,155.9641 C 423.2146,158.59153 418.38708,159.90525 412.68905,159.90525 C 404.49017,159.90525 397.25681,156.97709 390.98896,151.12075 L 390.98896,151.12075 z "
     style="font-size:97.24682617px;font-style:normal;font-variant:normal;font-weight:normal;font-stretch:normal;text-align:center;line-height:100%;writing-mode:lr-tb;text-anchor:middle;fill:black;fill-opacity:1;stroke:none;stroke-width:1px;stroke-linecap:butt;stroke-linejoin:miter;stroke-opacity:1;font-family:DIN 1451 Mittelschrift"
     id="text3952" />
</svg>
