<?xml version="1.0" encoding="UTF-8" standalone="no"?>
<!-- Created with Inkscape (http://www.inkscape.org/) -->
<svg
   xmlns:svg="http://www.w3.org/2000/svg"
   xmlns="http://www.w3.org/2000/svg"
   version="1.0"
   width="490"
   height="270"
   id="svg2">
  <defs
     id="defs4" />
  <path
     d="M 38.78125,4.984375 C 20.356889,4.9843748 9.96875,12.12016 9.96875,33.203125 L 9.65625,236.79688 C 9.65625,257.87984 20.044391,265.01563 38.46875,265.01563 L 451.21875,264.98438 C 469.64311,264.98438 480.03124,257.84859 480.03125,236.76563 L 480.34375,33.234375 C 480.34375,12.15141 469.95561,5.0156248 451.53125,5.015625 L 38.78125,4.984375 z "
     style="fill:white;fill-opacity:1;fill-rule:evenodd;stroke:black;stroke-width:2;stroke-linecap:butt;stroke-linejoin:miter;stroke-miterlimit:4;stroke-dasharray:none;stroke-opacity:1"
     id="path1881" />
  <path
     d="M 453.3125,17.796875 L 36.78125,17.828125 C 28.356999,17.828125 23.40625,23.829135 23.40625,32.703125 L 23.40625,237.35938 C 23.406249,246.23335 28.35701,252.23438 36.78125,252.23438 L 453.28125,252.20313 C 461.70549,252.20312 466.65625,246.20211 466.65625,237.32813 L 466.65625,32.671875 C 466.65625,23.797885 461.73674,17.796875 453.3125,17.796875 z "
     style="fill:none;fill-opacity:1;fill-rule:evenodd;stroke:black;stroke-width:10.05090809;stroke-linecap:butt;stroke-linejoin:miter;stroke-miterlimit:4;stroke-dasharray:none;stroke-opacity:1"
     id="path3976" />
  <g
     transform="translate(20.58435,-310.1332)"
     id="g1955">
    <path
       d="M 74.410736,363.88466 C 76.251717,363.88472 78.092718,364.29749 79.93374,365.12298 C 81.77472,365.94858 83.71116,367.3773 85.74308,369.40912 C 87.77493,371.44106 88.79087,374.58385 88.79091,378.83748 L 88.79091,383.69482 C 88.79087,388.52216 86.88592,391.95127 83.07605,393.98215 C 86.88592,396.20495 88.79087,399.72998 88.79091,404.55726 L 88.79091,411.98716 C 88.79087,416.43077 87.36216,420.11326 84.50476,423.03463 C 81.6473,425.95601 77.964817,427.4167 73.45729,427.4167 L 59.455009,427.4167 L 59.455009,363.88466 L 74.410736,363.88466 z M 79.83782,382.74428 L 79.83782,378.83748 C 79.83779,376.87056 79.266598,375.3154 78.124232,374.17199 C 76.981819,373.02868 75.458148,372.457 73.553216,372.45695 L 68.408097,372.45695 L 68.408097,389.98233 L 73.838087,389.98233 C 75.932933,389.98237 77.456604,389.33172 78.409103,388.03038 C 79.361555,386.72912 79.83779,384.96709 79.83782,382.74428 L 79.83782,382.74428 z M 79.83782,411.98716 L 79.83782,404.55726 C 79.83779,402.52443 79.282102,400.92082 78.170742,399.74643 C 77.059335,398.57209 75.520161,397.98491 73.553216,397.98488 L 68.408097,397.98488 L 68.408097,418.36769 L 73.646235,418.36769 C 75.489155,418.3677 76.981819,417.76453 78.124232,416.55818 C 79.266598,415.35185 79.83779,413.82818 79.83782,411.98716 L 79.83782,411.98716 z M 97.11321,422.65529 C 96.66749,421.89176 96.38116,421.04975 96.25424,420.12924 C 96.1273,419.20874 96.06383,418.17681 96.06384,417.03345 L 96.06384,411.89123 C 96.06383,408.52512 96.90537,406.01652 98.58843,404.36541 C 100.27149,402.71434 101.79565,401.58746 103.1609,400.98474 C 104.52614,400.38209 106.16124,400.08074 108.06621,400.08072 L 114.16187,400.08072 L 114.16187,396.17391 C 114.16184,395.28445 114.11437,394.55435 114.01943,393.9836 C 113.92445,393.41293 113.52767,392.68282 112.82908,391.7933 C 112.13044,390.90384 111.17748,390.45909 109.97019,390.45905 C 108.70085,390.45909 107.62145,390.87186 106.73196,391.69737 C 105.84246,392.52295 105.30275,393.60236 105.11285,394.9356 L 96.06384,394.9356 C 96.06383,391.25363 97.3816,388.09486 100.01715,385.45928 C 102.65268,382.82378 105.84343,381.50601 109.5894,381.50596 C 113.27332,381.50601 116.48054,382.80779 119.21106,385.41131 C 121.94153,388.01492 123.30677,391.18968 123.30681,394.9356 L 123.30681,427.4167 L 114.16187,427.4167 L 114.16187,422.84423 C 113.21034,424.43137 112.01998,425.68568 110.5908,426.60715 C 109.16159,427.52862 107.55749,427.98935 105.77852,427.98935 C 101.77869,427.98935 98.89025,426.21133 97.11321,422.65529 L 97.11321,422.65529 z M 105.20878,411.79531 L 105.20878,414.08009 C 105.20876,415.28741 105.63752,416.38329 106.49506,417.36773 C 107.35256,418.35219 108.47896,418.84442 109.87427,418.84441 C 110.63778,418.84442 111.35286,418.65402 112.01952,418.27322 C 112.68614,417.89243 113.19386,417.36871 113.54271,416.70207 C 113.89151,416.03544 114.08191,415.17792 114.1139,414.12951 C 114.14586,413.08112 114.16184,412.33503 114.16187,411.89123 L 114.16187,407.50771 L 110.73179,407.50771 C 109.08068,407.50773 107.74741,407.82554 106.73196,408.46115 C 105.71649,409.0968 105.20876,410.20819 105.20878,411.79531 L 105.20878,411.79531 z M 149.43645,427.4167 L 149.43645,422.84423 C 148.35702,424.49532 147.16619,425.76562 145.86394,426.65511 C 144.56165,427.5446 142.99002,427.98935 141.14903,427.98935 C 139.30802,427.98935 137.57796,427.48114 135.95886,426.46471 C 134.33974,425.44828 133.21237,424.28942 132.57674,422.98812 C 131.94111,421.68683 131.57581,420.62341 131.48086,419.79786 C 131.3859,418.97232 131.33842,417.76501 131.33843,416.17593 L 131.33843,382.07571 L 140.48337,382.07571 L 140.48337,412.74875 C 140.48335,413.44641 140.49934,414.16053 140.53133,414.8911 C 140.56329,415.6217 140.9126,416.46323 141.57925,417.4157 C 142.24587,418.36818 143.40473,418.84442 145.05584,418.84441 C 145.88136,418.84442 146.64295,418.62205 147.34062,418.17729 C 148.03824,417.73255 148.52998,417.20884 148.81584,416.60614 C 149.10166,416.00346 149.27655,415.35282 149.34053,414.65419 C 149.40446,413.95559 149.43643,413.32045 149.43645,412.74875 L 149.43645,382.07571 L 158.58139,382.07571 L 158.58139,427.4167 L 149.43645,427.4167 z M 178.21132,419.41415 C 179.60853,419.41416 180.81487,418.9699 181.83035,418.08136 C 182.84579,417.19285 183.35352,416.04997 183.35354,414.65274 C 183.35352,413.00166 182.92524,411.77934 182.06871,410.98575 C 181.21214,410.1922 179.8624,409.4776 178.01947,408.84195 L 176.21141,408.17628 C 174.30645,407.47672 172.71883,406.79361 171.44855,406.12696 C 170.17825,405.46034 168.813,404.254 167.3528,402.50793 C 165.89259,400.76191 165.16249,398.2378 165.16249,394.9356 C 165.16249,391.18968 166.46427,388.01492 169.06784,385.41131 C 171.67139,382.80779 174.87813,381.50601 178.68805,381.50596 C 182.18012,381.50601 185.1325,382.83928 187.54521,385.50579 C 189.95787,388.17237 191.16421,391.18871 191.16423,394.5548 L 182.78379,394.5548 C 182.78377,393.22156 182.35502,392.12616 181.49752,391.26861 C 180.63998,390.41113 179.51261,389.98237 178.1154,389.98233 C 176.84606,389.98237 175.79863,390.4586 174.9731,391.41105 C 174.14754,392.36356 173.73477,393.50643 173.73478,394.83967 C 173.73477,396.23693 174.14754,397.31682 174.9731,398.07935 C 175.79863,398.84194 177.00497,399.50906 178.59212,400.08072 L 181.54548,401.03125 C 183.2605,401.66691 184.60976,402.27056 185.59326,402.84222 C 186.57672,403.41392 187.56069,404.27096 188.54517,405.41333 C 189.52959,406.55574 190.33963,407.88901 190.97529,409.41315 C 191.61089,410.93732 191.92871,412.55692 191.92873,414.27194 C 191.92871,417.95589 190.61094,421.17862 187.97542,423.94011 C 185.33986,426.70162 182.18012,428.08237 178.4962,428.08237 C 176.27341,428.08237 174.03514,427.4792 171.78138,426.27286 C 169.5276,425.06652 167.78155,423.43142 166.54324,421.36755 C 165.30492,419.3037 164.68576,416.97047 164.68577,414.36787 L 173.16213,414.36787 C 173.16212,415.7651 173.65435,416.95546 174.63881,417.93893 C 175.62325,418.92242 176.81409,419.41416 178.21132,419.41415 L 178.21132,419.41415 z M 211.65169,418.74849 L 213.74752,418.74849 L 213.74752,427.4167 L 210.89009,427.4167 C 209.17504,427.4167 207.65088,427.24229 206.31762,426.89347 C 204.98434,426.54465 203.68256,425.83005 202.41228,424.74967 C 201.14198,423.6693 200.25297,422.47846 199.74524,421.17716 C 199.23751,419.87587 198.98364,418.27274 198.98365,416.36778 L 198.98365,389.22074 L 194.50711,389.22074 L 194.50711,382.07571 L 198.98365,382.07571 L 198.98365,368.3612 L 208.12859,368.3612 L 208.12859,382.07571 L 213.74752,382.07571 L 213.74752,389.22074 L 208.12859,389.22074 L 208.12859,414.74866 C 208.12858,416.27186 208.33496,417.3193 208.74775,417.89097 C 209.16051,418.46265 210.12848,418.74849 211.65169,418.74849 L 211.65169,418.74849 z M 233.20886,418.74849 C 234.54406,418.74849 235.62395,418.33572 236.44854,417.51017 C 237.2731,416.68464 237.78131,415.60523 237.97318,414.27194 L 247.0222,414.27194 L 247.0222,415.31841 C 247.02217,416.71564 246.72034,418.11286 246.11672,419.51008 C 245.51303,420.90731 244.25873,422.66983 242.3538,424.79763 C 240.44882,426.92545 237.46447,427.98935 233.40071,427.98935 C 230.79617,427.98935 228.3985,427.29074 226.20772,425.89352 C 224.01692,424.49629 222.50875,422.95615 221.68321,421.27308 C 220.85767,419.59003 220.33395,418.06587 220.11206,416.70061 C 219.89017,415.33538 219.77923,413.98611 219.77923,412.65283 L 219.77923,395.41232 C 219.77923,391.6664 221.12849,388.41219 223.82701,385.64967 C 226.52553,382.88725 229.74873,381.50601 233.49664,381.50596 C 237.37048,381.50601 240.5932,382.85527 243.16481,385.55375 C 245.73637,388.25231 247.02217,391.5385 247.0222,395.41232 L 247.0222,407.98443 L 228.92417,407.98443 L 228.92417,414.74866 C 228.92416,415.70018 229.38441,416.6047 230.30492,417.46221 C 231.22541,418.31973 232.19339,418.74849 233.20886,418.74849 L 233.20886,418.74849 z M 233.40071,390.45905 C 232.19339,390.45909 231.14547,390.87186 230.25696,391.69737 C 229.36842,392.52295 228.92416,393.98315 228.92417,396.07799 L 228.92417,400.55453 L 237.87726,400.55453 L 237.87726,396.07799 C 237.87724,394.42693 237.52793,393.07767 236.82934,392.0302 C 236.13071,390.98281 234.98783,390.45909 233.40071,390.45905 L 233.40071,390.45905 z M 263.35868,363.88466 L 263.35868,414.36787 C 263.35866,415.89107 263.61253,417.00197 264.12027,417.70057 C 264.62799,418.39919 265.64441,418.74849 267.16955,418.74849 L 267.83522,418.74849 L 267.83522,427.4167 L 265.83531,427.4167 C 264.37412,427.4167 263.00887,427.2578 261.73956,426.93998 C 260.47023,426.62217 259.20042,425.97152 257.93014,424.98803 C 256.65984,424.00455 255.72287,422.73475 255.11922,421.17861 C 254.51556,419.62249 254.21373,417.95493 254.21374,416.17593 L 254.21374,363.88466 L 263.35868,363.88466 z M 282.52062,363.88466 L 282.52062,414.36787 C 282.5206,415.89107 282.77447,417.00197 283.28221,417.70057 C 283.78993,418.39919 284.80635,418.74849 286.33149,418.74849 L 286.99716,418.74849 L 286.99716,427.4167 L 284.99725,427.4167 C 283.53606,427.4167 282.17081,427.2578 280.9015,426.93998 C 279.63217,426.62217 278.36236,425.97152 277.09208,424.98803 C 275.82178,424.00455 274.88481,422.73475 274.28116,421.17861 C 273.6775,419.62249 273.37567,417.95493 273.37568,416.17593 L 273.37568,363.88466 L 282.52062,363.88466 z M 305.20564,418.74849 C 306.54084,418.74849 307.62073,418.33572 308.44532,417.51017 C 309.26988,416.68464 309.77809,415.60523 309.96996,414.27194 L 319.01898,414.27194 L 319.01898,415.31841 C 319.01895,416.71564 318.71712,418.11286 318.1135,419.51008 C 317.50981,420.90731 316.25551,422.66983 314.35058,424.79763 C 312.44561,426.92545 309.46125,427.98935 305.39749,427.98935 C 302.79295,427.98935 300.39528,427.29074 298.2045,425.89352 C 296.0137,424.49629 294.50553,422.95615 293.68,421.27308 C 292.85445,419.59003 292.33073,418.06587 292.10884,416.70061 C 291.88695,415.33538 291.77601,413.98611 291.77601,412.65283 L 291.77601,395.41232 C 291.77601,391.6664 293.12527,388.41219 295.82379,385.64967 C 298.52231,382.88725 301.74551,381.50601 305.49342,381.50596 C 309.36726,381.50601 312.58998,382.85527 315.16159,385.55375 C 317.73315,388.25231 319.01895,391.5385 319.01898,395.41232 L 319.01898,407.98443 L 300.92095,407.98443 L 300.92095,414.74866 C 300.92094,415.70018 301.38119,416.6047 302.3017,417.46221 C 303.22219,418.31973 304.19017,418.74849 305.20564,418.74849 L 305.20564,418.74849 z M 305.39749,390.45905 C 304.19017,390.45909 303.14225,390.87186 302.25374,391.69737 C 301.3652,392.52295 300.92094,393.98315 300.92095,396.07799 L 300.92095,400.55453 L 309.87404,400.55453 L 309.87404,396.07799 C 309.87402,394.42693 309.52471,393.07767 308.82612,392.0302 C 308.12749,390.98281 306.98461,390.45909 305.39749,390.45905 L 305.39749,390.45905 z M 352.02332,386.17145 C 352.53295,386.93503 352.88274,387.8565 353.07269,388.93586 C 353.26257,390.01531 353.35753,391.09472 353.35756,392.17409 L 353.35756,427.4167 L 344.21262,427.4167 L 344.21262,395.50824 C 344.2126,392.14215 342.72042,390.45909 339.73608,390.45905 C 338.40279,390.45909 337.32338,390.9673 336.49785,391.98369 C 335.67229,393.00015 335.25952,394.17501 335.25953,395.50824 L 335.25953,427.4167 L 326.11459,427.4167 L 326.11459,382.07571 L 335.25953,382.07571 L 335.25953,386.45923 C 337.29237,383.1571 340.11879,381.50601 343.7388,381.50596 C 347.42078,381.50601 350.18229,383.06117 352.02332,386.17145 L 352.02332,386.17145 z M 362.22926,406.93797 L 362.22926,397.88895 L 389.3763,397.88895 L 389.3763,406.93797 L 362.22926,406.93797 z "
       style="font-size:95.2515564px;font-style:normal;font-variant:normal;font-weight:normal;font-stretch:normal;text-indent:0;text-align:center;text-decoration:none;line-height:100%;letter-spacing:normal;word-spacing:normal;text-transform:none;direction:ltr;block-progression:tb;writing-mode:lr-tb;text-anchor:middle;color:black;fill:black;fill-opacity:1;fill-rule:nonzero;stroke:none;stroke-width:1;stroke-linecap:round;stroke-linejoin:miter;marker:none;marker-start:none;marker-mid:none;marker-end:none;stroke-miterlimit:4;stroke-dashoffset:0;stroke-opacity:1;visibility:visible;display:inline;overflow:visible;font-family:DIN 1451 Engschrift"
       id="text3109" />
    <path
       d="M 107.277,520.95462 C 106.83128,520.19109 106.54495,519.34908 106.41802,518.42857 C 106.29109,517.50808 106.22762,516.47615 106.22763,515.33278 L 106.22763,510.19057 C 106.22762,506.82446 107.06915,504.31585 108.75222,502.66474 C 110.43528,501.01367 111.95943,499.88679 113.32469,499.28408 C 114.68993,498.68142 116.32503,498.38007 118.23,498.38005 L 124.32565,498.38005 L 124.32565,494.47324 C 124.32563,493.58378 124.27815,492.85368 124.18322,492.28294 C 124.08824,491.71226 123.69146,490.98216 122.99287,490.09263 C 122.29423,489.20317 121.34127,488.75842 120.13398,488.75838 C 118.86464,488.75842 117.78523,489.17119 116.89575,489.9967 C 116.00625,490.82228 115.46654,491.90169 115.27664,493.23493 L 106.22763,493.23493 C 106.22762,489.55296 107.54539,486.39419 110.18094,483.75861 C 112.81647,481.12311 116.00721,479.80534 119.75318,479.8053 C 123.43711,479.80534 126.64433,481.10712 129.37485,483.71064 C 132.10532,486.31425 133.47056,489.48901 133.47059,493.23493 L 133.47059,525.71603 L 124.32565,525.71603 L 124.32565,521.14356 C 123.37413,522.73071 122.18377,523.98501 120.75459,524.90648 C 119.32538,525.82795 117.72128,526.28868 115.94231,526.28868 C 111.94248,526.28868 109.05404,524.51066 107.277,520.95462 L 107.277,520.95462 z M 115.37257,510.09464 L 115.37257,512.37942 C 115.37255,513.58674 115.80131,514.68262 116.65885,515.66707 C 117.51635,516.65153 118.64275,517.14375 120.03806,517.14374 C 120.80157,517.14375 121.51665,516.95335 122.18331,516.57255 C 122.84993,516.19176 123.35765,515.66804 123.7065,515.0014 C 124.0553,514.33477 124.24569,513.47725 124.27769,512.42884 C 124.30965,511.38045 124.32563,510.63436 124.32565,510.19057 L 124.32565,505.80704 L 120.89558,505.80704 C 119.24447,505.80706 117.9112,506.12488 116.89575,506.76049 C 115.88028,507.39614 115.37255,508.50752 115.37257,510.09464 L 115.37257,510.09464 z M 159.60024,525.71603 L 159.60024,521.14356 C 158.52081,522.79466 157.32997,524.06495 156.02772,524.95444 C 154.72544,525.84394 153.15381,526.28868 151.31282,526.28868 C 149.4718,526.28868 147.74175,525.78047 146.12264,524.76404 C 144.50352,523.74762 143.37615,522.58875 142.74053,521.28745 C 142.10489,519.98616 141.7396,518.92274 141.64465,518.09719 C 141.54969,517.27165 141.50221,516.06434 141.50221,514.47526 L 141.50221,480.37504 L 150.64715,480.37504 L 150.64715,511.04809 C 150.64714,511.74574 150.66313,512.45986 150.69511,513.19043 C 150.72708,513.92103 151.07638,514.76256 151.74303,515.71503 C 152.40965,516.66751 153.56852,517.14375 155.21962,517.14374 C 156.04515,517.14375 156.80674,516.92138 157.5044,516.47662 C 158.20202,516.03188 158.69377,515.50817 158.97963,514.90547 C 159.26545,514.3028 159.44034,513.65215 159.50431,512.95352 C 159.56824,512.25492 159.60022,511.61978 159.60024,511.04809 L 159.60024,480.37504 L 168.74518,480.37504 L 168.74518,525.71603 L 159.60024,525.71603 z M 188.37511,517.71349 C 189.77232,517.71349 190.97866,517.26923 191.99414,516.3807 C 193.00958,515.49218 193.51731,514.34931 193.51733,512.95207 C 193.51731,511.301 193.08903,510.07867 192.2325,509.28508 C 191.37593,508.49153 190.02619,507.77693 188.18326,507.14128 L 186.3752,506.47562 C 184.47024,505.77605 182.88262,505.09295 181.61233,504.42629 C 180.34204,503.75967 178.97679,502.55333 177.51659,500.80726 C 176.05638,499.06124 175.32628,496.53714 175.32628,493.23493 C 175.32628,489.48901 176.62806,486.31425 179.23163,483.71064 C 181.83518,481.10712 185.04192,479.80534 188.85184,479.8053 C 192.34391,479.80534 195.29629,481.13861 197.709,483.80512 C 200.12165,486.4717 201.32799,489.48804 201.32802,492.85413 L 192.94758,492.85413 C 192.94756,491.52089 192.5188,490.4255 191.6613,489.56794 C 190.80377,488.71046 189.6764,488.2817 188.27919,488.28166 C 187.00985,488.2817 185.96242,488.75794 185.13689,489.71038 C 184.31133,490.66289 183.89856,491.80576 183.89857,493.139 C 183.89856,494.53626 184.31133,495.61615 185.13689,496.37868 C 185.96242,497.14127 187.16876,497.8084 188.75591,498.38005 L 191.70927,499.33059 C 193.42429,499.96624 194.77355,500.5699 195.75705,501.14155 C 196.74051,501.71326 197.72448,502.57029 198.70895,503.71266 C 199.69338,504.85507 200.50342,506.18834 201.13908,507.71248 C 201.77468,509.23665 202.09249,510.85625 202.09252,512.57127 C 202.09249,516.25523 200.77473,519.47795 198.13921,522.23945 C 195.50365,525.00095 192.34391,526.3817 188.65999,526.3817 C 186.4372,526.3817 184.19893,525.77853 181.94517,524.57219 C 179.69139,523.36585 177.94534,521.73075 176.70703,519.66689 C 175.46871,517.60303 174.84955,515.26981 174.84956,512.6672 L 183.32592,512.6672 C 183.32591,514.06444 183.81814,515.25479 184.8026,516.23826 C 185.78704,517.22175 186.97788,517.71349 188.37511,517.71349 L 188.37511,517.71349 z M 210.1939,525.71603 L 210.1939,487.61599 L 205.71736,487.61599 L 205.71736,480.37504 L 210.1939,480.37504 L 210.1939,474.09044 C 210.1939,470.53445 211.08291,467.89891 212.86094,466.18381 C 214.63895,464.46883 216.29003,463.37344 217.8142,462.89762 C 219.33834,462.42193 221.02189,462.18405 222.86485,462.18399 L 226.00715,462.18399 L 226.00715,470.56443 L 222.673,470.56443 C 220.45021,470.56449 219.33883,471.73982 219.33884,474.09044 L 219.33884,480.37504 L 226.00715,480.37504 L 226.00715,487.61599 L 219.33884,487.61599 L 219.33884,525.71603 L 210.1939,525.71603 z M 230.80636,520.95462 C 230.36064,520.19109 230.07431,519.34908 229.94738,518.42857 C 229.82045,517.50808 229.75698,516.47615 229.75698,515.33278 L 229.75698,510.19057 C 229.75698,506.82446 230.59851,504.31585 232.28158,502.66474 C 233.96464,501.01367 235.48879,499.88679 236.85405,499.28408 C 238.21929,498.68142 239.85439,498.38007 241.75935,498.38005 L 247.85501,498.38005 L 247.85501,494.47324 C 247.85499,493.58378 247.80751,492.85368 247.71258,492.28294 C 247.6176,491.71226 247.22081,490.98216 246.52222,490.09263 C 245.82359,489.20317 244.87063,488.75842 243.66334,488.75838 C 242.394,488.75842 241.31459,489.17119 240.42511,489.9967 C 239.5356,490.82228 238.9959,491.90169 238.806,493.23493 L 229.75698,493.23493 C 229.75698,489.55296 231.07475,486.39419 233.7103,483.75861 C 236.34583,481.12311 239.53657,479.80534 243.28254,479.8053 C 246.96647,479.80534 250.17368,481.10712 252.90421,483.71064 C 255.63467,486.31425 256.99992,489.48901 256.99995,493.23493 L 256.99995,525.71603 L 247.85501,525.71603 L 247.85501,521.14356 C 246.90348,522.73071 245.71313,523.98501 244.28395,524.90648 C 242.85474,525.82795 241.25064,526.28868 239.47167,526.28868 C 235.47184,526.28868 232.5834,524.51066 230.80636,520.95462 L 230.80636,520.95462 z M 238.90192,510.09464 L 238.90192,512.37942 C 238.90191,513.58674 239.33067,514.68262 240.1882,515.66707 C 241.04571,516.65153 242.17211,517.14375 243.56741,517.14374 C 244.33093,517.14375 245.04601,516.95335 245.71267,516.57255 C 246.37928,516.19176 246.88701,515.66804 247.23585,515.0014 C 247.58465,514.33477 247.77505,513.47725 247.80705,512.42884 C 247.839,511.38045 247.85499,510.63436 247.85501,510.19057 L 247.85501,505.80704 L 244.42493,505.80704 C 242.77383,505.80706 241.44056,506.12488 240.42511,506.76049 C 239.40964,507.39614 238.90191,508.50752 238.90192,510.09464 L 238.90192,510.09464 z M 282.93775,479.8053 C 284.58881,479.80534 286.14494,480.2496 287.60614,481.13809 C 289.06729,482.02665 290.11521,483.05858 290.7499,484.23388 C 291.38453,485.40925 291.78131,486.40969 291.94025,487.2352 C 292.09913,488.06078 292.17858,489.14019 292.17861,490.47342 L 292.17861,525.71603 L 283.03367,525.71603 L 283.03367,493.9006 C 283.03365,492.37744 282.68435,491.13961 281.98576,490.1871 C 281.28712,489.23466 280.17623,488.75842 278.65306,488.75838 C 277.31977,488.75842 276.22437,489.28214 275.36687,490.32953 C 274.50933,491.377 274.08057,492.56736 274.08059,493.9006 L 274.08059,525.71603 L 264.93565,525.71603 L 264.93565,462.18399 L 274.08059,462.18399 L 274.08059,484.75856 C 276.17544,481.45643 279.12782,479.80534 282.93775,479.8053 L 282.93775,479.8053 z M 321.23835,479.8053 L 321.23835,489.13918 C 320.79455,489.01325 320.35028,488.9183 319.90556,488.85431 C 319.46079,488.7904 319.04753,488.75842 318.66579,488.75838 C 315.68141,488.75842 313.39566,489.77436 311.80854,491.80621 C 310.22139,493.83813 309.42782,496.28327 309.42783,499.14164 L 309.42783,525.71603 L 300.28289,525.71603 L 300.28289,480.37504 L 309.42783,480.37504 L 309.42783,485.23529 C 311.01495,483.26642 312.96738,481.8692 315.28513,481.04361 C 317.60283,480.21811 319.58724,479.80534 321.23835,479.8053 L 321.23835,479.8053 z M 340.50784,517.04782 L 342.60368,517.04782 L 342.60368,525.71603 L 339.74625,525.71603 C 338.0312,525.71603 336.50704,525.54162 335.17378,525.1928 C 333.8405,524.84398 332.53871,524.12938 331.26843,523.049 C 329.99813,521.96863 329.10912,520.77779 328.6014,519.47649 C 328.09367,518.1752 327.8398,516.57207 327.83981,514.66711 L 327.83981,487.52007 L 323.36326,487.52007 L 323.36326,480.37504 L 327.83981,480.37504 L 327.83981,466.66053 L 336.98475,466.66053 L 336.98475,480.37504 L 342.60368,480.37504 L 342.60368,487.52007 L 336.98475,487.52007 L 336.98475,513.048 C 336.98473,514.57119 337.19112,515.61863 337.6039,516.1903 C 338.01666,516.76199 338.98464,517.04783 340.50784,517.04782 L 340.50784,517.04782 z "
       style="font-size:95.2515564px;font-style:normal;font-variant:normal;font-weight:normal;font-stretch:normal;text-indent:0;text-align:center;text-decoration:none;line-height:100%;letter-spacing:normal;word-spacing:normal;text-transform:none;direction:ltr;block-progression:tb;writing-mode:lr-tb;text-anchor:middle;color:black;fill:black;fill-opacity:1;fill-rule:nonzero;stroke:none;stroke-width:1;stroke-linecap:round;stroke-linejoin:miter;marker:none;marker-start:none;marker-mid:none;marker-end:none;stroke-miterlimit:4;stroke-dashoffset:0;stroke-opacity:1;visibility:visible;display:inline;overflow:visible;font-family:DIN 1451 Engschrift"
       id="text3117" />
  </g>
</svg>
