<?xml version="1.0" encoding="UTF-8" standalone="no"?>
<!-- Created with Inkscape (http://www.inkscape.org/) -->
<svg
   xmlns:svg="http://www.w3.org/2000/svg"
   xmlns="http://www.w3.org/2000/svg"
   version="1.0"
   width="490"
   height="270"
   id="svg2">
  <defs
     id="defs4" />
  <path
     d="M 38.78125,4.984375 C 20.356889,4.9843748 9.96875,12.12016 9.96875,33.203125 L 9.65625,236.79688 C 9.65625,257.87984 20.044391,265.01563 38.46875,265.01563 L 451.21875,264.98438 C 469.64311,264.98438 480.03124,257.84859 480.03125,236.76563 L 480.34375,33.234375 C 480.34375,12.15141 469.95561,5.0156248 451.53125,5.015625 L 38.78125,4.984375 z "
     style="fill:white;fill-opacity:1;fill-rule:evenodd;stroke:black;stroke-width:2;stroke-linecap:butt;stroke-linejoin:miter;stroke-miterlimit:4;stroke-dasharray:none;stroke-opacity:1"
     id="path1881" />
  <path
     d="M 453.3125,17.796875 L 36.78125,17.828125 C 28.356999,17.828125 23.40625,23.829135 23.40625,32.703125 L 23.40625,237.35938 C 23.406249,246.23335 28.35701,252.23438 36.78125,252.23438 L 453.28125,252.20313 C 461.70549,252.20312 466.65625,246.20211 466.65625,237.32813 L 466.65625,32.671875 C 466.65625,23.797885 461.73674,17.796875 453.3125,17.796875 z "
     style="fill:none;fill-opacity:1;fill-rule:evenodd;stroke:black;stroke-width:10.05090809;stroke-linecap:butt;stroke-linejoin:miter;stroke-miterlimit:4;stroke-dasharray:none;stroke-opacity:1"
     id="path3976" />
  <path
     d="M 80.239381,108.66835 L 80.239381,158.97358 L 204.11877,158.97358 L 204.11877,108.66835 L 80.239381,108.66835 z "
     style="fill:white;fill-opacity:1;fill-rule:evenodd;stroke:none;stroke-width:1px;stroke-linecap:butt;stroke-linejoin:miter;stroke-opacity:1"
     id="path20922" />
  <g
     transform="translate(152.9384,-326.262)"
     id="g2530">
    <path
       d="M 71.26496,541.27208 L 80.5337,537.24219 L 89.93277,537.28806 L 277.5952,467.52514 L 279.90938,473.93438 L 86.57853,544.093 C 80.37687,544.66125 75.68575,543.15252 71.26496,541.27208 z "
       style="fill:black;fill-opacity:1;fill-rule:evenodd;stroke:none;stroke-width:1px;stroke-linecap:butt;stroke-linejoin:miter;stroke-opacity:1"
       id="path1895" />
    <path
       d="M 196.59446,497.34631 L 155.08662,463.49525 C 152.90904,460.43065 152.27458,457.46892 153.47467,454.6295 L 182.89285,405.46487 C 188.4945,408.85907 194.70174,418.12763 190.14664,426.0173 L 170.80318,457.85341 L 207.37141,488.86425 C 208.041,502.54535 200.27306,496.932 196.59446,497.34631 z "
       style="fill:black;fill-opacity:1;fill-rule:evenodd;stroke:none;stroke-width:1px;stroke-linecap:butt;stroke-linejoin:miter;stroke-opacity:1"
       id="path1897" />
    <path
       d="M 96.65325,451.0026 L 140.57903,457.85341 C 145.23224,456.56602 146.01261,452.76128 146.22087,448.58467 L 132.92224,426.0173 L 162.34042,430.45017 L 177.251,404.2559 L 124.45948,394.58417 C 112.47926,394.58417 105.20589,406.96678 109.54889,415.1366 L 126.87741,443.7488 L 99.87716,438.91294 C 91.40294,438.91294 91.46977,449.61369 96.65325,451.0026 z "
       style="fill:black;fill-opacity:1;fill-rule:evenodd;stroke:none;stroke-width:1px;stroke-linecap:butt;stroke-linejoin:miter;stroke-opacity:1"
       id="path1899" />
    <path
       d="M 189.07089,406.76871 L 228.02759,392.56923 L 225.57719,382.92519 L 228.74093,381.90148 L 232.2752,391.30011 L 238.41266,388.9748 L 239.83936,392.50907 L 233.39154,394.92701 L 237.26386,404.40869 L 234.07242,405.46487 L 230.04253,396.19613 L 191.39743,410.08092 L 189.07089,406.76871 z "
       style="fill:black;fill-opacity:1;fill-rule:evenodd;stroke:none;stroke-width:1px;stroke-linecap:butt;stroke-linejoin:miter;stroke-opacity:1"
       id="path1901" />
    <path
       d="M 104.95919,438.25048 L 114.59264,438.43574 L 122.55876,436.02738 L 120.33566,432.69272 L 104.95919,438.25048 z "
       style="fill:black;fill-opacity:1;fill-rule:evenodd;stroke:none;stroke-width:1px;stroke-linecap:butt;stroke-linejoin:miter;stroke-opacity:1"
       id="path1903" />
    <path
       d="M 109.03487,393.88102 C 109.04021,402.4793 102.07142,409.45241 93.47314,409.45241 C 84.87487,409.45241 77.90608,402.4793 77.91142,393.88102 C 77.90608,385.28274 84.87487,378.30963 93.47314,378.30963 C 102.07142,378.30963 109.04021,385.28274 109.03487,393.88102 z "
       style="fill:black;fill-opacity:1;fill-rule:nonzero;stroke:none;stroke-width:2;stroke-linecap:round;stroke-linejoin:round;stroke-miterlimit:4;stroke-dasharray:none;stroke-dashoffset:0;stroke-opacity:1"
       id="path1905" />
    <path
       d="M -88.687036,502.63807 L -88.687036,460.26914 L -95.786151,465.57353 L -95.786151,458.02744 L -88.687036,452.79603 L -81.590201,452.79603 L -81.590201,502.63807 L -88.687036,502.63807 z M -69.740859,457.12893 C -67.54857,453.94088 -64.583957,452.34683 -60.847011,452.34678 C -59.452895,452.34683 -58.07093,452.62086 -56.701109,453.16889 C -55.331323,453.71701 -54.197929,454.46463 -53.300922,455.41173 L -51.059217,458.39916 C -50.709567,459.24602 -50.472778,460.01833 -50.348849,460.71612 C -50.224967,461.41398 -50.163014,462.36038 -50.16299,463.55531 L -50.16299,491.65303 C -50.163014,493.24785 -50.299842,494.58078 -50.573476,495.65184 C -50.847155,496.72291 -51.743761,498.22992 -53.263295,500.17288 C -54.782869,502.11584 -57.261362,503.08732 -60.69878,503.08732 C -62.143092,503.08732 -63.512895,502.80074 -64.808194,502.22758 C -66.103511,501.65443 -67.249068,500.84486 -68.244868,499.79888 L -70.338343,496.66095 C -70.487338,496.36145 -70.711204,495.813 -71.009943,495.01559 C -71.308687,494.21819 -71.458058,493.14751 -71.458056,491.80354 L -71.458056,463.55531 C -71.458058,462.16122 -71.346315,460.99096 -71.122826,460.04452 C -70.899343,459.09816 -70.438688,458.1263 -69.740859,457.12893 L -69.740859,457.12893 z M -57.18685,463.03308 C -57.186867,462.08596 -57.547941,461.25131 -58.270075,460.52912 C -58.99224,459.80701 -59.876303,459.44594 -60.922266,459.44589 C -61.968256,459.44594 -62.802528,459.8321 -63.425087,460.60437 C -64.047666,461.37674 -64.35895,462.36038 -64.358941,463.55531 L -64.358941,482.08872 L -57.18685,464.75256 L -57.18685,463.03308 z M -64.358941,490.53331 L -64.358941,491.57777 C -64.35895,492.4246 -64.172331,493.35883 -63.799084,494.38047 C -63.425857,495.40213 -62.417509,495.91296 -60.774036,495.91295 C -60.076224,495.91296 -59.42819,495.7138 -58.829932,495.31547 C -58.231703,494.91715 -57.808295,494.44396 -57.559708,493.89587 C -57.311152,493.34781 -57.186867,492.69977 -57.18685,491.95177 L -57.18685,473.34538 L -64.358941,490.53331 z M -43.76854,486.57213 L -43.76854,479.47302 L -22.4712,479.47302 L -22.4712,486.57213 L -43.76854,486.57213 z M -7.24675,502.63807 L -7.24675,460.26914 L -14.34587,465.57353 L -14.34587,458.02744 L -7.24675,452.79603 L -0.14992,452.79603 L -0.14992,502.63807 L -7.24675,502.63807 z M 30.23284,477.15605 C 30.63114,477.80373 30.89263,478.50118 31.01732,479.24839 C 31.14196,479.99565 31.20429,480.91734 31.20432,482.01346 L 31.20432,491.57777 C 31.20429,492.82444 31.09217,493.95821 30.86795,494.9791 C 30.64368,496 29.89644,497.53171 28.62624,499.57425 C 27.356,501.6168 24.90259,502.78782 21.26601,503.08732 C 19.02353,503.08732 17.0057,502.60158 15.21249,501.6301 C 13.41928,500.65862 12.16122,499.4876 11.43831,498.11703 C 10.7154,496.74647 10.2669,495.60053 10.09283,494.67922 C 9.91875,493.75791 9.83171,492.7241 9.83172,491.57777 L 9.83172,483.73294 C 9.83171,482.63681 9.8568,481.85195 9.90697,481.37835 C 9.95714,480.90479 10.13122,480.26968 10.4292,479.47302 L 20.29453,452.79603 L 28.36513,452.79603 L 20.29453,473.71938 C 21.29032,473.36974 22.36138,473.1949 23.50772,473.19487 L 24.17818,473.19487 C 26.86912,473.54457 28.88733,474.86497 30.23284,477.15605 L 30.23284,477.15605 z M 23.43246,480.89375 C 22.68445,479.89645 21.68789,479.39778 20.44276,479.39776 C 19.79509,479.39778 19.18469,479.59694 18.61154,479.99524 C 18.03837,480.39359 17.62751,480.86679 17.37894,481.41484 C 17.13036,481.96293 17.00608,482.73563 17.00609,483.73294 L 17.00609,491.57777 C 17.00608,492.67393 17.30482,493.6952 17.90231,494.64159 C 18.49979,495.58799 19.52068,495.98669 20.96499,495.8377 C 22.26028,495.8377 23.10748,495.40175 23.50658,494.52984 C 23.90564,493.65795 24.10519,492.67393 24.1052,491.57777 L 24.1052,483.73294 C 24.10519,483.08531 24.06756,482.54978 23.99232,482.12635 C 23.91705,481.70296 23.73043,481.29209 23.43246,480.89375 L 23.43246,480.89375 z M 64.25751,466.62026 C 65.5528,466.6203 66.77361,466.96883 67.91995,467.66586 C 69.06625,468.36296 69.88836,469.17253 70.38628,470.09457 C 70.88416,471.01667 71.19545,471.80153 71.32014,472.44916 C 71.44478,473.09684 71.50711,473.94366 71.50714,474.9896 L 71.50714,502.63807 L 64.33277,502.63807 L 64.33277,477.67828 C 64.33275,476.48334 64.05871,475.51224 63.51066,474.76498 C 62.96257,474.01777 62.09104,473.64415 60.89609,473.64412 C 59.8501,473.64415 58.99074,474.05502 58.31802,474.87672 C 57.64527,475.69848 57.3089,476.63233 57.30891,477.67828 L 57.30891,502.63807 L 50.13454,502.63807 L 50.13454,452.79603 L 57.30891,452.79603 L 57.30891,470.50619 C 58.95236,467.91561 61.26855,466.6203 64.25751,466.62026 L 64.25751,466.62026 z "
       style="font-size:74.72657013px;font-style:normal;font-variant:normal;font-weight:normal;font-stretch:normal;text-align:center;line-height:100%;writing-mode:lr-tb;text-anchor:middle;fill:black;fill-opacity:1;stroke:none;stroke-width:1px;stroke-linecap:butt;stroke-linejoin:miter;stroke-opacity:1;font-family:DIN 1451 Engschrift"
       id="text1917" />
    <path
       d="M -64.357798,490.99977 L -64.296027,463.67778 L -57.193455,463.67778 L -57.193455,491.87917 L -64.357798,490.99977 z "
       style="fill:white;fill-opacity:1;fill-rule:evenodd;stroke:none;stroke-width:1px;stroke-linecap:butt;stroke-linejoin:miter;stroke-opacity:1"
       id="path1890" />
  </g>
</svg>
