<?xml version="1.0" encoding="UTF-8" standalone="no"?>
<!-- Created with Inkscape (http://www.inkscape.org/) -->
<svg
   xmlns:svg="http://www.w3.org/2000/svg"
   xmlns="http://www.w3.org/2000/svg"
   version="1.0"
   width="490"
   height="270"
   id="svg2">
  <defs
     id="defs4" />
  <path
     d="M 38.78125,4.984375 C 20.356889,4.9843748 9.96875,12.12016 9.96875,33.203125 L 9.65625,236.79688 C 9.65625,257.87984 20.044391,265.01563 38.46875,265.01563 L 451.21875,264.98438 C 469.64311,264.98438 480.03124,257.84859 480.03125,236.76563 L 480.34375,33.234375 C 480.34375,12.15141 469.95561,5.0156248 451.53125,5.015625 L 38.78125,4.984375 z "
     style="fill:white;fill-opacity:1;fill-rule:evenodd;stroke:black;stroke-width:2;stroke-linecap:butt;stroke-linejoin:miter;stroke-miterlimit:4;stroke-dasharray:none;stroke-opacity:1"
     id="path1881" />
  <path
     d="M 453.3125,17.796875 L 36.78125,17.828125 C 28.356999,17.828125 23.40625,23.829135 23.40625,32.703125 L 23.40625,237.35938 C 23.406249,246.23335 28.35701,252.23438 36.78125,252.23438 L 453.28125,252.20313 C 461.70549,252.20312 466.65625,246.20211 466.65625,237.32813 L 466.65625,32.671875 C 466.65625,23.797885 461.73674,17.796875 453.3125,17.796875 z "
     style="fill:none;fill-opacity:1;fill-rule:evenodd;stroke:black;stroke-width:10.05090809;stroke-linecap:butt;stroke-linejoin:miter;stroke-miterlimit:4;stroke-dasharray:none;stroke-opacity:1"
     id="path3976" />
  <path
     d="M 102.33002,119.90717 C 104.88326,119.90723 107.46303,120.62193 110.06934,122.05126 C 112.67557,123.48072 114.61702,125.14003 115.8937,127.02921 C 117.17029,128.9185 118.03853,130.91061 118.49841,133.00555 C 118.9582,135.1006 119.18812,137.32341 119.18817,139.67399 L 119.18817,162.65812 C 119.18812,164.9059 119.11096,166.79591 118.95669,168.32817 C 118.80233,169.86046 118.21467,172.00533 117.19372,174.76279 C 116.17268,177.52027 113.69579,180.17642 109.76304,182.73125 C 105.83022,185.28608 101.61607,186.56349 97.120596,186.56349 C 93.647616,186.56349 90.353156,185.7202 87.237176,184.0336 C 84.121176,182.34701 81.694946,180.27774 79.958486,177.82578 C 78.221996,175.37384 77.047466,172.89695 76.434876,170.3951 C 75.822266,167.89329 75.515966,165.3143 75.515976,162.65812 L 75.515976,160.05341 L 90.377336,160.05341 L 90.377336,162.65812 C 90.377316,163.67758 90.403036,164.69858 90.454496,165.72112 C 90.505916,166.74369 91.042136,168.02111 92.063146,169.55336 C 93.084126,171.08565 94.872816,171.85179 97.429226,171.85178 C 100.18512,171.85179 102.02291,171.11137 102.94262,169.63052 C 103.86227,168.1497 104.37354,166.97517 104.47645,166.10691 C 104.5793,165.2387 104.63074,164.2933 104.63077,163.27072 L 104.63077,161.58257 L 104.63077,141.6661 C 104.63074,140.74647 104.60502,139.77536 104.55361,138.75275 C 104.50214,137.73025 103.9402,136.45283 102.8678,134.92051 C 101.79533,133.38828 100.03236,132.62215 97.578876,132.62209 C 94.003016,132.62215 91.602506,134.41006 90.377336,137.98584 L 77.353766,137.98584 L 77.353766,83.43651 L 119.18817,83.43651 L 119.18817,97.07268 L 90.377336,97.07268 L 90.377336,124.50399 C 93.953136,121.43951 97.937366,119.90723 102.33002,119.90717 L 102.33002,119.90717 z M 171.79682,185.64226 L 171.79682,97.07268 L 154.63471,97.07268 L 154.63471,83.43651 L 203.82497,83.43651 L 203.82497,97.07268 L 186.35422,97.07268 L 186.35422,185.64226 L 171.79682,185.64226 z M 212.95316,177.98244 C 212.23611,176.75413 211.7755,175.39956 211.5713,173.91871 C 211.3671,172.43789 211.265,170.7778 211.265,168.93843 L 211.265,160.66601 C 211.265,155.25086 212.61879,151.21519 215.32639,148.55901 C 218.03397,145.90289 220.48592,144.09004 222.68225,143.12044 C 224.87854,142.15093 227.50897,141.66615 230.57355,141.6661 L 240.3798,141.6661 L 240.3798,135.38112 C 240.37976,133.95022 240.30338,132.77568 240.15066,131.85751 C 239.99786,130.93945 239.35955,129.76491 238.2357,128.3339 C 237.1118,126.90301 235.57874,126.18753 233.63654,126.18747 C 231.59452,126.18753 229.85804,126.85157 228.42711,128.17958 C 226.99614,129.50772 226.1279,131.24419 225.8224,133.38901 L 211.265,133.38901 C 211.265,127.46572 213.38493,122.38412 217.6248,118.14419 C 221.86466,113.9044 226.9977,111.78447 233.02394,111.78439 C 238.95037,111.78447 244.10991,113.87868 248.50257,118.06703 C 252.89515,122.25552 255.09147,127.36284 255.09151,133.38901 L 255.09151,185.64226 L 240.3798,185.64226 L 240.3798,178.2864 C 238.84905,180.83968 236.9341,182.85751 234.63493,184.3399 C 232.33571,185.8223 229.75517,186.56349 226.89328,186.56349 C 220.45864,186.56349 215.81194,183.70314 212.95316,177.98244 L 212.95316,177.98244 z M 225.97672,160.51169 L 225.97672,164.18728 C 225.9767,166.12953 226.66646,167.89251 228.04599,169.4762 C 229.42549,171.05993 231.23756,171.85179 233.48222,171.85178 C 234.71051,171.85179 235.86088,171.54549 236.93335,170.93288 C 238.00575,170.3203 238.82255,169.47778 239.38374,168.40533 C 239.94487,167.33291 240.25117,165.95339 240.30264,164.26678 C 240.35404,162.58021 240.37976,161.37995 240.3798,160.66601 L 240.3798,153.61411 L 234.86174,153.61411 C 232.20556,153.61414 230.06069,154.12542 228.42711,155.14795 C 226.7935,156.17053 225.9767,157.95845 225.97672,160.51169 L 225.97672,160.51169 z M 295.90179,185.64226 L 286.24518,162.81244 L 275.98065,185.64226 L 260.50202,185.64226 L 279.04364,147.94641 L 261.73189,112.70095 L 277.36017,112.70095 L 286.24518,133.23469 L 295.74747,112.70095 L 311.22611,112.70095 L 293.60104,147.94641 L 311.37575,185.64226 L 295.90179,185.64226 z M 337.02071,171.69746 C 339.16868,171.69747 340.90593,171.03344 342.23248,169.70534 C 343.55896,168.37729 344.37654,166.64081 344.68521,164.49592 L 359.24261,164.49592 L 359.24261,166.1794 C 359.24256,168.42717 358.757,170.67492 357.78593,172.92266 C 356.81477,175.17042 354.79694,178.00583 351.73243,181.42889 C 348.66784,184.85196 343.86682,186.56349 337.32935,186.56349 C 333.13934,186.56349 329.28216,185.43962 325.75779,183.19186 C 322.23339,180.94412 319.80715,178.46645 318.47909,175.75885 C 317.151,173.05127 316.30849,170.59932 315.95153,168.40299 C 315.59457,166.20669 315.41609,164.0361 315.4161,161.89121 L 315.4161,134.15593 C 315.41609,128.12976 317.58668,122.89462 321.92788,118.45049 C 326.26905,114.0065 331.45431,111.78447 337.48367,111.78439 C 343.71562,111.78447 348.9001,113.95506 353.03712,118.29617 C 357.17407,122.63742 359.24256,127.924 359.24261,134.15593 L 359.24261,154.38103 L 330.12781,154.38103 L 330.12781,165.26284 C 330.12779,166.79357 330.86821,168.24869 332.34907,169.62819 C 333.82988,171.00772 335.38709,171.69747 337.02071,171.69746 L 337.02071,171.69746 z M 337.32935,126.18747 C 335.38709,126.18753 333.70128,126.85157 332.27191,128.17958 C 330.84249,129.50772 330.12779,131.85679 330.12781,135.22681 L 330.12781,142.42834 L 344.53089,142.42834 L 344.53089,135.22681 C 344.53086,132.57071 343.96892,130.40011 342.84508,128.71502 C 341.72117,127.03005 339.88259,126.18753 337.32935,126.18747 L 337.32935,126.18747 z M 412.3376,119.28989 C 413.15747,120.51827 413.72018,122.00066 414.02575,123.73708 C 414.33122,125.47361 414.48398,127.21009 414.48403,128.9465 L 414.48403,185.64226 L 399.77232,185.64226 L 399.77232,134.31025 C 399.77228,128.89512 397.37177,126.18753 392.57078,126.18747 C 390.42588,126.18753 388.6894,127.00511 387.36135,128.6402 C 386.03325,130.27541 385.36922,132.16543 385.36924,134.31025 L 385.36924,185.64226 L 370.65752,185.64226 L 370.65752,112.70095 L 385.36924,112.70095 L 385.36924,119.75285 C 388.63952,114.44061 393.18646,111.78447 399.01008,111.78439 C 404.93338,111.78447 409.37588,114.2863 412.3376,119.28989 L 412.3376,119.28989 z "
     style="font-size:153.23379517px;font-style:normal;font-variant:normal;font-weight:normal;font-stretch:normal;text-align:center;line-height:100%;writing-mode:lr-tb;text-anchor:middle;fill:black;fill-opacity:1;stroke:none;stroke-width:1px;stroke-linecap:butt;stroke-linejoin:miter;stroke-opacity:1;font-family:DIN 1451 Engschrift"
     id="text1955" />
</svg>
