<?xml version="1.0" encoding="UTF-8" standalone="no"?>
<!-- Created with Inkscape (http://www.inkscape.org/) -->
<svg
   xmlns:svg="http://www.w3.org/2000/svg"
   xmlns="http://www.w3.org/2000/svg"
   version="1.0"
   width="490"
   height="270"
   id="svg2">
  <defs
     id="defs4" />
  <path
     d="M 38.78125,4.984375 C 20.356889,4.9843748 9.96875,12.12016 9.96875,33.203125 L 9.65625,236.79688 C 9.65625,257.87984 20.044391,265.01563 38.46875,265.01563 L 451.21875,264.98438 C 469.64311,264.98438 480.03124,257.84859 480.03125,236.76563 L 480.34375,33.234375 C 480.34375,12.15141 469.95561,5.0156248 451.53125,5.015625 L 38.78125,4.984375 z "
     style="fill:white;fill-opacity:1;fill-rule:evenodd;stroke:black;stroke-width:2;stroke-linecap:butt;stroke-linejoin:miter;stroke-miterlimit:4;stroke-dasharray:none;stroke-opacity:1"
     id="path1881" />
  <path
     d="M 453.3125,17.796875 L 36.78125,17.828125 C 28.356999,17.828125 23.40625,23.829135 23.40625,32.703125 L 23.40625,237.35938 C 23.406249,246.23335 28.35701,252.23438 36.78125,252.23438 L 453.28125,252.20313 C 461.70549,252.20312 466.65625,246.20211 466.65625,237.32813 L 466.65625,32.671875 C 466.65625,23.797885 461.73674,17.796875 453.3125,17.796875 z "
     style="fill:none;fill-opacity:1;fill-rule:evenodd;stroke:black;stroke-width:10.05090809;stroke-linecap:butt;stroke-linejoin:miter;stroke-miterlimit:4;stroke-dasharray:none;stroke-opacity:1"
     id="path3976" />
  <g
     transform="translate(122.534,-308.5369)"
     id="g2338">
    <path
       d="M -40.506399,412.70376 L -40.506399,354.82671 L -18.062656,354.82671 C -12.421963,354.82677 -8.1516974,356.27667 -5.2518479,359.17642 C -2.3520813,362.07629 -0.9021773,365.80366 -0.90213154,370.35857 C -0.9021773,372.74202 -1.4847871,375.03273 -2.6499628,377.23073 C -3.8152265,379.42879 -6.0794601,381.28255 -9.4426706,382.79201 L -9.4426706,382.9509 C -6.264836,383.69243 -3.8946732,385.36744 -2.3321753,387.97592 C -0.76976597,390.58444 0.011460847,393.35846 0.011507522,396.29798 C 0.011460847,401.30314 -1.5840956,405.28872 -4.7751667,408.25473 C -7.9663215,411.22075 -11.733424,412.70376 -16.076485,412.70376 L -40.506399,412.70376 z M -18.22155,387.00269 L -31.727519,387.00269 L -31.727519,404.44128 L -18.22155,404.44128 C -14.96426,404.44129 -12.574236,403.56075 -11.05147,401.79967 C -9.5287751,400.03861 -8.76741,398.01934 -8.7673721,395.74185 C -8.76741,393.46439 -9.5287751,391.4385 -11.05147,389.66416 C -12.574236,387.88987 -14.96426,387.00272 -18.22155,387.00269 L -18.22155,387.00269 z M -19.016019,362.6125 L -31.727519,362.6125 L -31.727519,379.2169 L -19.016019,379.2169 C -15.864657,379.21693 -13.520977,378.40922 -11.984971,376.79377 C -10.449034,375.17839 -9.6810482,373.2187 -9.6810112,370.9147 C -9.6810482,368.69023 -10.449034,366.7504 -11.984971,365.09522 C -13.520977,363.44012 -15.864657,362.61255 -19.016019,362.6125 L -19.016019,362.6125 z M 40.291071,395.22544 L 14.629731,395.22544 C 14.629719,398.61519 15.549978,401.15749 17.39051,402.85234 C 19.231013,404.54722 21.581314,405.39465 24.44142,405.39464 C 27.857611,405.39465 30.876589,404.07054 33.498364,401.4223 L 39.496603,406.54662 C 37.457432,408.93003 35.160095,410.63152 32.604586,411.65108 C 30.049018,412.67065 27.38093,413.18044 24.600314,413.18044 C 20.36313,413.18044 16.258378,411.80998 12.286048,409.06906 C 8.313699,406.32815 6.3275291,400.72053 6.3275325,392.24619 C 6.3275291,384.22208 8.1614259,378.67404 11.829229,375.60207 C 15.497013,372.53016 19.330321,370.99419 23.329164,370.99415 C 27.857611,370.99419 31.816709,372.56326 35.206471,375.70137 C 38.596169,378.83956 40.291034,383.0701 40.291071,388.39301 L 40.291071,395.22544 z M 14.629731,388.39301 L 32.028596,388.39301 C 31.896156,385.29461 31.022241,382.92445 29.40685,381.28252 C 27.791405,379.64065 25.765512,378.8197 23.329164,378.81966 C 20.866293,378.8197 18.820538,379.64065 17.191893,381.28252 C 15.563219,382.92445 14.709166,385.29461 14.629731,388.39301 L 14.629731,388.39301 z M 81.722616,412.70376 L 73.102631,383.86454 L 72.943737,383.86454 L 64.323751,412.70376 L 57.014638,412.70376 L 43.826457,371.47083 L 52.605337,371.47083 L 60.510301,400.34977 L 60.669195,400.34977 L 70.004202,371.47083 L 76.042165,371.47083 L 85.377173,400.34977 L 85.536066,400.34977 L 93.44103,371.47083 L 102.21991,371.47083 L 89.031729,412.70376 L 81.722616,412.70376 z M 105.79501,392.04757 C 105.79501,387.62505 106.13928,384.32801 106.82782,382.15643 C 107.51636,379.98492 108.65509,378.02523 110.24404,376.27736 C 111.38277,375.03273 112.95184,373.84103 114.95126,372.70225 C 116.95066,371.56356 119.56579,370.99419 122.79664,370.99415 C 125.97449,370.99419 128.56976,371.56356 130.58244,372.70225 C 132.59506,373.84103 134.17076,375.03273 135.30953,376.27736 C 136.89843,378.02523 138.03717,379.98492 138.72574,382.15643 C 139.41424,384.32801 139.75851,387.62505 139.75855,392.04757 C 139.75851,396.54957 139.41424,399.88634 138.72574,402.05787 C 138.03717,404.22943 136.89843,406.18912 135.30953,407.93694 C 134.17076,409.2081 132.59506,410.3998 130.58244,411.51205 C 128.56976,412.62431 125.97449,413.18044 122.79664,413.18044 C 119.56579,413.18044 116.95066,412.62431 114.95126,411.51205 C 112.95184,410.3998 111.38277,409.2081 110.24404,407.93694 C 108.65509,406.18912 107.51636,404.22943 106.82782,402.05787 C 106.13928,399.88634 105.79501,396.54957 105.79501,392.04757 L 105.79501,392.04757 z M 131.49608,392.12701 C 131.49605,389.13454 131.34377,387.0292 131.03926,385.81099 C 130.73468,384.59283 130.21166,383.42761 129.47018,382.31533 C 128.01363,380.3027 125.78912,379.29638 122.79664,379.29634 C 119.75116,379.29638 117.52665,380.3027 116.12311,382.31533 C 115.32862,383.42761 114.79236,384.59283 114.51431,385.81099 C 114.23623,387.0292 114.0972,389.10806 114.09721,392.04757 C 114.0972,395.06657 114.23623,397.19177 114.51431,398.42318 C 114.79236,399.65462 115.32862,400.81322 116.12311,401.89898 C 117.52665,403.91164 119.75116,404.91797 122.79664,404.91796 C 125.78912,404.91797 128.01363,403.91164 129.47018,401.89898 C 130.21166,400.81322 130.73468,399.66124 131.03926,398.44304 C 131.34377,397.22487 131.49605,395.11953 131.49608,392.12701 L 131.49608,392.12701 z M 148.49771,412.70376 L 148.49771,354.82671 L 156.79991,354.82671 L 156.79991,375.88013 L 156.9588,375.88013 C 159.52757,372.62285 163.10267,370.99419 167.68413,370.99415 C 170.88846,370.99419 173.98027,372.21237 176.95955,374.6487 C 179.93877,377.08511 181.4284,380.63373 181.42844,385.29458 L 181.42844,412.70376 L 173.12624,412.70376 L 173.12624,388.15467 C 173.12621,385.37406 172.35161,383.20251 170.80242,381.64003 C 169.25318,380.0776 167.3266,379.29638 165.02266,379.29634 C 162.63924,379.29638 160.67293,380.0776 159.12373,381.64003 C 157.5745,383.20251 156.7999,385.37406 156.79991,388.15467 L 156.79991,412.70376 L 148.49771,412.70376 z M 192.1935,412.70376 L 192.1935,371.47083 L 200.4957,371.47083 L 200.4957,375.88013 L 200.65459,375.88013 C 203.22335,372.62285 206.79846,370.99419 211.37992,370.99415 C 214.58425,370.99419 217.67605,372.21237 220.65534,374.6487 C 223.63456,377.08511 225.12419,380.63373 225.12423,385.29458 L 225.12423,412.70376 L 216.82203,412.70376 L 216.82203,388.15467 C 216.822,385.37406 216.04739,383.20251 214.49821,381.64003 C 212.94897,380.0776 211.02238,379.29638 208.71845,379.29634 C 206.33502,379.29638 204.36871,380.0776 202.81952,381.64003 C 201.27029,383.20251 200.49568,385.37406 200.4957,388.15467 L 200.4957,412.70376 L 192.1935,412.70376 z M 267.82691,395.22544 L 242.16557,395.22544 C 242.16556,398.61519 243.08582,401.15749 244.92635,402.85234 C 246.76685,404.54722 249.11715,405.39465 251.97726,405.39464 C 255.39345,405.39465 258.41243,404.07054 261.0342,401.4223 L 267.03244,406.54662 C 264.99327,408.93003 262.69593,410.63152 260.14043,411.65108 C 257.58486,412.67065 254.91677,413.18044 252.13615,413.18044 C 247.89897,413.18044 243.79422,411.80998 239.82189,409.06906 C 235.84954,406.32815 233.86337,400.72053 233.86337,392.24619 C 233.86337,384.22208 235.69727,378.67404 239.36507,375.60207 C 243.03285,372.53016 246.86616,370.99419 250.865,370.99415 C 255.39345,370.99419 259.35255,372.56326 262.74231,375.70137 C 266.13201,378.83956 267.82687,383.0701 267.82691,388.39301 L 267.82691,395.22544 z M 242.16557,388.39301 L 259.56444,388.39301 C 259.432,385.29461 258.55808,382.92445 256.94269,381.28252 C 255.32724,379.64065 253.30135,378.8197 250.865,378.81966 C 248.40213,378.8197 246.35638,379.64065 244.72773,381.28252 C 243.09906,382.92445 242.24501,385.29461 242.16557,388.39301 L 242.16557,388.39301 z M 276.56609,412.70376 L 276.56609,371.47083 L 284.86828,371.47083 L 284.86828,375.88013 L 285.02718,375.88013 C 287.59594,372.62285 291.17105,370.99419 295.75251,370.99415 C 298.77146,370.99419 301.64479,372.05348 304.37249,374.17202 L 298.37425,381.32224 C 296.57343,379.97168 294.74616,379.29638 292.89242,379.29634 C 290.85326,379.29638 289.00612,379.9783 287.351,381.3421 C 285.69584,382.70597 284.86827,384.89738 284.86828,387.91633 L 284.86828,412.70376 L 276.56609,412.70376 z "
       style="font-size:81.35359955px;font-style:normal;font-variant:normal;font-weight:normal;font-stretch:normal;text-align:center;line-height:100%;writing-mode:lr-tb;text-anchor:middle;fill:black;fill-opacity:1;stroke:none;stroke-width:1px;stroke-linecap:butt;stroke-linejoin:miter;stroke-opacity:1;font-family:DIN 1451 Mittelschrift"
       id="text3949" />
    <path
       d="M 79.935054,531.77044 L 79.935054,496.89326 L 75.764093,496.89326 L 75.764093,490.53751 L 79.935054,490.53751 L 79.935054,485.0954 C 79.935047,481.25552 80.994338,478.42853 83.112929,476.61444 C 85.2315,474.80046 87.906209,473.89345 91.137064,473.89339 L 96.499728,473.89339 L 96.499728,481.67918 L 91.812362,481.67918 C 89.402457,481.67923 88.197514,482.81797 88.197529,485.0954 L 88.197529,490.53751 L 96.499728,490.53751 L 96.499728,496.89326 L 88.197529,496.89326 L 88.197529,531.77044 L 79.935054,531.77044 z M 101.18709,531.77044 L 101.18709,490.53751 L 109.48929,490.53751 L 109.48929,494.94681 L 109.64818,494.94681 C 112.21695,491.68953 115.79206,490.06087 120.37351,490.06083 C 123.39247,490.06087 126.26579,491.12016 128.9935,493.2387 L 122.99526,500.38892 C 121.19444,499.03836 119.36716,498.36306 117.51343,498.36303 C 115.47427,498.36306 113.62713,499.04498 111.97201,500.40878 C 110.31685,501.77265 109.48928,503.96406 109.48929,506.98301 L 109.48929,531.77044 L 101.18709,531.77044 z M 164.74459,514.29212 L 139.08325,514.29212 C 139.08324,517.68187 140.0035,520.22417 141.84403,521.91902 C 143.68454,523.6139 146.03484,524.46133 148.89494,524.46132 C 152.31113,524.46133 155.33011,523.13722 157.95189,520.48898 L 163.95013,525.6133 C 161.91095,527.99671 159.61362,529.6982 157.05811,530.71777 C 154.50254,531.73733 151.83445,532.24712 149.05384,532.24712 C 144.81665,532.24712 140.7119,530.87666 136.73957,528.13574 C 132.76722,525.39483 130.78105,519.78721 130.78106,511.31287 C 130.78105,503.28876 132.61495,497.74073 136.28275,494.66875 C 139.95054,491.59684 143.78384,490.06087 147.78269,490.06083 C 152.31113,490.06087 156.27023,491.62994 159.65999,494.76805 C 163.04969,497.90624 164.74456,502.13678 164.74459,507.45969 L 164.74459,514.29212 z M 139.08325,507.45969 L 156.48212,507.45969 C 156.34968,504.36129 155.47576,501.99113 153.86037,500.3492 C 152.24493,498.70733 150.21903,497.88638 147.78269,497.88634 C 145.31982,497.88638 143.27406,498.70733 141.64542,500.3492 C 140.01674,501.99113 139.16269,504.36129 139.08325,507.45969 L 139.08325,507.45969 z M 173.72209,531.77044 L 173.72209,490.53751 L 182.02429,490.53751 L 182.02429,531.77044 L 173.72209,531.77044 z M 173.72209,482.19559 L 173.72209,473.89339 L 182.02429,473.89339 L 182.02429,482.19559 L 173.72209,482.19559 z "
       style="font-size:81.35359955px;font-style:normal;font-variant:normal;font-weight:normal;font-stretch:normal;text-align:center;line-height:100%;writing-mode:lr-tb;text-anchor:middle;fill:black;fill-opacity:1;stroke:none;stroke-width:1px;stroke-linecap:butt;stroke-linejoin:miter;stroke-opacity:1;font-family:DIN 1451 Mittelschrift"
       id="text3965" />
    <path
       d="M -59.440566,457.4998 L -59.440566,440.34543 L -55.986554,440.34543 L -55.986554,442.17986 L -55.920449,442.17986 C -54.829716,440.82471 -53.342344,440.14713 -51.458329,440.14711 C -50.257425,440.14713 -49.304405,440.36197 -48.599267,440.79164 C -47.894156,441.22135 -47.233102,441.75019 -46.616103,442.37817 C -45.260957,440.89082 -43.454076,440.14713 -41.195454,440.14711 C -39.862349,440.14713 -38.576048,440.65394 -37.336547,441.66754 C -36.097095,442.68117 -35.477356,444.15753 -35.47733,446.09661 L -35.47733,457.4998 L -38.931341,457.4998 L -38.931341,447.28651 C -38.931364,446.12967 -39.256383,445.22623 -39.906397,444.57618 C -40.556456,443.92616 -41.360738,443.60114 -42.319247,443.60113 C -43.310848,443.60114 -44.128902,443.92616 -44.773413,444.57618 C -45.417958,445.22623 -45.740222,446.12967 -45.740205,447.28651 L -45.740205,457.4998 L -49.17769,457.4998 L -49.17769,447.28651 C -49.177703,446.12967 -49.502721,445.22623 -50.152746,444.57618 C -50.802794,443.92616 -51.607077,443.60114 -52.565596,443.60113 C -53.557187,443.60114 -54.375241,443.92616 -55.019762,444.57618 C -55.664297,445.22623 -55.98656,446.12967 -55.986554,447.28651 L -55.986554,457.4998 L -59.440566,457.4998 z M -30.717735,457.4998 L -30.717735,440.34543 L -27.263724,440.34543 L -27.263724,457.4998 L -30.717735,457.4998 z M -30.717735,436.87489 L -30.717735,433.42088 L -27.263724,433.42088 L -27.263724,436.87489 L -30.717735,436.87489 z M -22.487601,440.34543 L -22.487601,435.13962 L -19.03359,435.13962 L -19.03359,440.34543 L -16.521582,440.34543 L -16.521582,442.98965 L -19.03359,442.98965 L -19.03359,452.97158 C -19.033596,453.83095 -18.625946,454.26064 -17.810638,454.26063 L -16.521582,454.26063 L -16.521582,457.4998 L -18.322956,457.4998 C -19.523877,457.4998 -20.518213,457.13622 -21.305965,456.40906 C -22.093725,455.6819 -22.487603,454.64074 -22.487601,453.28558 L -22.487601,442.98965 L -24.206343,442.98965 L -24.206343,440.34543 L -22.487601,440.34543 z M -1.2181631,436.87489 L -1.2181631,444.64229 L 4.2024861,444.64229 C 5.5576354,444.6423 6.5684973,444.23465 7.2350749,443.41934 C 7.9016231,442.60405 8.2349045,441.71714 8.2349202,440.75859 C 8.2349045,439.30429 7.71157,438.23558 6.6649151,437.55247 C 5.9928293,437.10077 5.1279502,436.87491 4.0702751,436.87489 L -1.2181631,436.87489 z M -4.8704907,457.4998 L -4.8704907,433.42088 L 3.8719587,433.42088 C 4.8084407,433.42091 5.7091269,433.52006 6.5740201,433.71836 C 7.4388852,433.9167 8.3395714,434.37944 9.2760815,435.10657 C 10.003224,435.66849 10.620208,436.44247 11.127035,437.42853 C 11.633824,438.41462 11.887229,439.55769 11.887248,440.85775 C 11.887229,442.57651 11.245455,444.21262 9.9619258,445.76608 C 8.6783617,447.31957 6.8026206,448.09631 4.334697,448.0963 L -1.2181631,448.0963 L -1.2181631,457.4998 L -4.8704907,457.4998 z M 23.934968,457.4998 L 23.934968,455.97938 L 23.852336,455.97938 C 23.158218,457.12521 21.747969,457.69812 19.621585,457.69812 C 17.704521,457.69812 16.21715,457.19957 15.159466,456.20248 C 14.101776,455.20539 13.572933,453.95765 13.572934,452.45926 C 13.572933,451.1041 14.04118,449.91972 14.977675,448.90609 C 15.914166,447.89248 17.307889,447.38567 19.158847,447.38566 L 23.934968,447.38566 L 23.934968,445.60082 C 23.934956,444.13549 22.761585,443.40282 20.414851,443.40281 C 18.784243,443.40282 17.699013,443.83802 17.159156,444.70839 L 14.448832,442.65912 C 15.649745,440.98447 17.577819,440.14713 20.233061,440.14711 C 22.348427,440.14713 24.067167,440.56029 25.389288,441.38659 C 26.711384,442.21293 27.372438,443.68377 27.372452,445.79913 L 27.372452,457.4998 L 23.934968,457.4998 z M 23.934968,451.4842 L 23.934968,450.2282 L 19.803375,450.2282 C 17.809188,450.22821 16.812098,450.91681 16.812102,452.294 C 16.812098,452.87793 17.062748,453.38474 17.564052,453.81442 C 18.065347,454.24411 18.899928,454.45895 20.067797,454.45895 C 21.500074,454.45895 22.502672,454.2992 23.075596,453.97969 C 23.6485,453.66018 23.934956,452.82835 23.934968,451.4842 L 23.934968,451.4842 z M 31.851101,457.4998 L 31.851101,440.34543 L 35.305112,440.34543 L 35.305112,442.17986 L 35.371217,442.17986 C 36.439916,440.82471 37.927287,440.14713 39.833337,440.14711 C 41.089329,440.14713 42.284736,440.58783 43.419559,441.46922 L 40.924077,444.44397 C 40.174871,443.88209 39.414659,443.60114 38.643438,443.60113 C 37.795076,443.60114 37.026601,443.88484 36.33801,444.45223 C 35.649405,445.01965 35.305106,445.93136 35.305112,447.18735 L 35.305112,457.4998 L 31.851101,457.4998 z M 45.006092,457.4998 L 45.006092,433.42088 L 48.460103,433.42088 L 48.460103,448.4103 L 48.526208,448.4103 L 55.12023,440.34543 L 59.251822,440.34543 L 53.335382,447.05514 L 60.061614,457.4998 L 55.731705,457.4998 L 51.170427,449.48451 L 48.460103,452.57494 L 48.460103,457.4998 L 45.006092,457.4998 z M 71.597016,457.4998 L 71.597016,455.97938 L 71.514384,455.97938 C 70.820266,457.12521 69.410017,457.69812 67.283634,457.69812 C 65.36657,457.69812 63.879198,457.19957 62.821514,456.20248 C 61.763825,455.20539 61.234981,453.95765 61.234982,452.45926 C 61.234981,451.1041 61.703228,449.91972 62.639724,448.90609 C 63.576215,447.89248 64.969937,447.38567 66.820895,447.38566 L 71.597016,447.38566 L 71.597016,445.60082 C 71.597005,444.13549 70.423634,443.40282 68.076899,443.40281 C 66.446291,443.40282 65.361061,443.83802 64.821205,444.70839 L 62.11088,442.65912 C 63.311793,440.98447 65.239868,440.14713 67.895109,440.14711 C 70.010475,440.14713 71.729216,440.56029 73.051337,441.38659 C 74.373432,442.21293 75.034486,443.68377 75.034501,445.79913 L 75.034501,457.4998 L 71.597016,457.4998 z M 71.597016,451.4842 L 71.597016,450.2282 L 67.465424,450.2282 C 65.471237,450.22821 64.474147,450.91681 64.474151,452.294 C 64.474147,452.87793 64.724796,453.38474 65.226101,453.81442 C 65.727395,454.24411 66.561976,454.45895 67.729846,454.45895 C 69.162122,454.45895 70.164721,454.2992 70.737645,453.97969 C 71.310548,453.66018 71.597005,452.82835 71.597016,451.4842 L 71.597016,451.4842 z M 79.513156,451.74863 L 79.513156,440.34543 L 82.967168,440.34543 L 82.967168,450.57525 C 82.967162,451.74312 83.289426,452.64932 83.93396,453.29384 C 84.578481,453.93837 85.396536,454.26064 86.388126,454.26063 C 87.346645,454.26064 88.148174,453.93837 88.792713,453.29384 C 89.437229,452.64932 89.759493,451.74312 89.759505,450.57525 L 89.759505,440.34543 L 93.213517,440.34543 L 93.213517,457.4998 L 89.759505,457.4998 L 89.759505,455.6819 L 89.6934,455.6819 C 88.624683,457.02605 87.148329,457.69812 85.264333,457.69812 C 83.909164,457.69812 82.611845,457.19407 81.372373,456.18596 C 80.132892,455.17785 79.513154,453.69874 79.513156,451.74863 L 79.513156,451.74863 z M 95.791625,454.64074 L 98.204475,452.26094 C 99.702861,453.72629 101.50423,454.45895 103.6086,454.45895 C 104.58915,454.45895 105.39894,454.27441 106.03797,453.90532 C 106.67698,453.53623 106.99649,452.98811 106.9965,452.26094 C 106.99649,451.25835 106.29688,450.69645 104.89765,450.57525 L 101.8568,450.29431 C 100.43553,450.18414 99.25665,449.71589 98.320159,448.88956 C 97.383663,448.06326 96.915416,446.91192 96.915418,445.43555 C 96.915416,443.69479 97.526892,442.37819 98.749845,441.48575 C 99.972792,440.59334 101.49322,440.14713 103.31112,440.14711 C 104.8095,440.14713 106.09305,440.35922 107.16177,440.78338 C 108.23046,441.20757 109.18899,441.77222 110.03736,442.47733 L 107.90545,444.98934 C 107.22235,444.52662 106.51723,444.14651 105.79008,443.84902 C 105.06291,443.55156 104.23659,443.40282 103.31112,443.40281 C 102.20936,443.40282 101.44364,443.59839 101.01396,443.9895 C 100.58427,444.38063 100.36942,444.87367 100.36943,445.46861 C 100.36942,445.84322 100.52918,446.19027 100.84869,446.50977 C 101.1682,446.82929 101.76315,447.0221 102.63354,447.08819 L 105.47608,447.28651 C 107.2499,447.40771 108.52242,447.95583 109.29367,448.93088 C 110.06488,449.90594 110.4505,451.07105 110.45051,452.42621 C 110.4505,454.1119 109.7619,455.41197 108.38472,456.32643 C 107.00751,457.24089 105.32733,457.69812 103.34418,457.69812 C 100.49062,457.69812 97.973103,456.67899 95.791625,454.64074 L 95.791625,454.64074 z M 127.55531,457.4998 L 123.96908,445.50166 L 123.90298,445.50166 L 120.31676,457.4998 L 117.27591,457.4998 L 111.78915,440.34543 L 115.44148,440.34543 L 118.73023,452.3601 L 118.79633,452.3601 L 122.68003,440.34543 L 125.19204,440.34543 L 129.07573,452.3601 L 129.14184,452.3601 L 132.43059,440.34543 L 136.08291,440.34543 L 130.59616,457.4998 L 127.55531,457.4998 z M 151.70034,450.2282 L 141.0243,450.2282 C 141.0243,451.63846 141.40716,452.69614 142.17288,453.40126 C 142.9386,454.10639 143.91641,454.45895 145.10631,454.45895 C 146.52757,454.45895 147.78357,453.90808 148.87433,452.80631 L 151.36981,454.93822 C 150.52144,455.9298 149.56567,456.63768 148.50248,457.06185 C 147.43928,457.48603 146.32926,457.69812 145.17242,457.69812 C 143.4096,457.69812 141.70188,457.12796 140.04925,455.98764 C 138.39661,454.84732 137.57029,452.51435 137.57029,448.98872 C 137.57029,445.65041 138.33326,443.34223 139.85919,442.06417 C 141.38512,440.78615 142.97992,440.14713 144.64358,440.14711 C 146.52757,440.14713 148.1747,440.79992 149.58496,442.10549 C 150.9952,443.41109 151.70032,445.17114 151.70034,447.38566 L 151.70034,450.2282 z M 141.0243,447.38566 L 148.26285,447.38566 C 148.20775,446.09662 147.84417,445.11055 147.17211,444.42744 C 146.50003,443.74437 145.65718,443.40282 144.64358,443.40281 C 143.61893,443.40282 142.76783,443.74437 142.09025,444.42744 C 141.41267,445.11055 141.05735,446.09662 141.0243,447.38566 L 141.0243,447.38566 z M 155.4353,457.4998 L 155.4353,440.34543 L 158.88931,440.34543 L 158.88931,457.4998 L 155.4353,457.4998 z M 155.4353,436.87489 L 155.4353,433.42088 L 158.88931,433.42088 L 158.88931,436.87489 L 155.4353,436.87489 z M 161.56657,454.64074 L 163.97942,452.26094 C 165.47781,453.72629 167.27918,454.45895 169.38355,454.45895 C 170.3641,454.45895 171.17389,454.27441 171.81292,453.90532 C 172.45193,453.53623 172.77144,452.98811 172.77145,452.26094 C 172.77144,451.25835 172.07182,450.69645 170.6726,450.57525 L 167.63175,450.29431 C 166.21048,450.18414 165.0316,449.71589 164.09511,448.88956 C 163.15861,448.06326 162.69036,446.91192 162.69037,445.43555 C 162.69036,443.69479 163.30184,442.37819 164.52479,441.48575 C 165.74774,440.59334 167.26816,440.14713 169.08607,440.14711 C 170.58445,440.14713 171.868,440.35922 172.93672,440.78338 C 174.00541,441.20757 174.96394,441.77222 175.8123,442.47733 L 173.6804,444.98934 C 172.9973,444.52662 172.29218,444.14651 171.56503,443.84902 C 170.83786,443.55156 170.01154,443.40282 169.08607,443.40281 C 167.98431,443.40282 167.21859,443.59839 166.78891,443.9895 C 166.35921,444.38063 166.14437,444.87367 166.14438,445.46861 C 166.14437,445.84322 166.30413,446.19027 166.62364,446.50977 C 166.94315,446.82929 167.53809,447.0221 168.40849,447.08819 L 171.25103,447.28651 C 173.02484,447.40771 174.29737,447.95583 175.06862,448.93088 C 175.83983,449.90594 176.22545,451.07105 176.22546,452.42621 C 176.22545,454.1119 175.53685,455.41197 174.15967,456.32643 C 172.78246,457.24089 171.10228,457.69812 169.11912,457.69812 C 166.26557,457.69812 163.74805,456.67899 161.56657,454.64074 L 161.56657,454.64074 z M 188.15751,457.4998 L 188.15751,433.42088 L 191.61152,433.42088 L 202.5024,450.5422 L 202.5685,450.5422 L 202.5685,433.42088 L 206.23736,433.42088 L 206.23736,457.4998 L 202.78335,457.4998 L 191.89247,440.37848 L 191.80984,440.37848 L 191.80984,457.4998 L 188.15751,457.4998 z M 210.99695,457.4998 L 210.99695,440.34543 L 214.45096,440.34543 L 214.45096,442.17986 L 214.51707,442.17986 C 215.58577,440.82471 217.07314,440.14713 218.97919,440.14711 C 220.23518,440.14713 221.43059,440.58783 222.56541,441.46922 L 220.06993,444.44397 C 219.32072,443.88209 218.56051,443.60114 217.78929,443.60113 C 216.94093,443.60114 216.17245,443.88484 215.48386,444.45223 C 214.79526,445.01965 214.45096,445.93136 214.45096,447.18735 L 214.45096,457.4998 L 210.99695,457.4998 z M 224.25111,457.4998 L 224.25111,454.06232 L 227.70512,454.06232 L 227.70512,457.4998 L 224.25111,457.4998 z M 240.51304,457.4998 L 240.51304,454.06232 L 243.96705,454.06232 L 243.96705,457.4998 L 240.51304,457.4998 z M 248.64402,457.4998 L 248.64402,454.06232 L 252.09803,454.06232 L 252.09803,457.4998 L 248.64402,457.4998 z M 256.77497,457.4998 L 256.77497,454.06232 L 260.22898,454.06232 L 260.22898,457.4998 L 256.77497,457.4998 z "
       style="font-size:33.84600449px;font-style:normal;font-variant:normal;font-weight:normal;font-stretch:normal;text-align:center;line-height:100%;writing-mode:lr-tb;text-anchor:middle;fill:black;fill-opacity:1;stroke:none;stroke-width:1px;stroke-linecap:butt;stroke-linejoin:miter;stroke-opacity:1;font-family:DIN 1451 Mittelschrift"
       id="text3969" />
  </g>
</svg>
