<?xml version="1.0" encoding="UTF-8" standalone="no"?>
<!-- Created with Inkscape (http://www.inkscape.org/) -->
<svg
   xmlns:dc="http://purl.org/dc/elements/1.1/"
   xmlns:cc="http://web.resource.org/cc/"
   xmlns:rdf="http://www.w3.org/1999/02/22-rdf-syntax-ns#"
   xmlns:svg="http://www.w3.org/2000/svg"
   xmlns="http://www.w3.org/2000/svg"
   xmlns:sodipodi="http://sodipodi.sourceforge.net/DTD/sodipodi-0.dtd"
   xmlns:inkscape="http://www.inkscape.org/namespaces/inkscape"
   version="1.0"
   width="490"
   height="360"
   id="svg2"
   sodipodi:version="0.32"
   inkscape:version="0.44"
   sodipodi:docname="Zusatzzeichen 1042-35.svg"
   sodipodi:docbase="C:\Dokumente und Einstellungen\Internet\Desktop\Wiki\SVG sonstiges (fertig)">
  <metadata
     id="metadata10">
    <rdf:RDF>
      <cc:Work
         rdf:about="">
        <dc:format>image/svg+xml</dc:format>
        <dc:type
           rdf:resource="http://purl.org/dc/dcmitype/StillImage" />
      </cc:Work>
    </rdf:RDF>
  </metadata>
  <sodipodi:namedview
     inkscape:window-height="749"
     inkscape:window-width="1024"
     inkscape:pageshadow="2"
     inkscape:pageopacity="0.0"
     guidetolerance="10.0"
     gridtolerance="10.0"
     objecttolerance="10.0"
     borderopacity="1.0"
     bordercolor="#666666"
     pagecolor="#ffffff"
     id="base"
     inkscape:zoom="0.74246212"
     inkscape:cx="245"
     inkscape:cy="-10.47619"
     inkscape:window-x="-4"
     inkscape:window-y="-4"
     inkscape:current-layer="svg2" />
  <defs
     id="defs4" />
  <path
     d="M 38.78125,4.6190618 C 20.35689,4.6190483 9.96875,14.244672 9.96875,42.683954 L 9.65625,317.31604 C 9.65625,345.75531 20.04439,355.38094 38.46875,355.38094 L 451.21875,355.33878 C 469.64311,355.33878 480.03124,345.71316 480.03125,317.27389 L 480.34375,42.726108 C 480.34375,14.286826 469.95561,4.6612021 451.53125,4.6612156 L 38.78125,4.6190618 z "
     style="fill:white;fill-opacity:1;fill-rule:evenodd;stroke:black;stroke-width:3;stroke-linecap:butt;stroke-linejoin:miter;stroke-miterlimit:4;stroke-dasharray:none;stroke-opacity:1"
     id="path1881" />
  <g
     id="g1956"
     transform="translate(-1.246962,-5.857139)">
    <path
       id="text2016"
       style="font-size:99.56900024px;font-style:normal;font-variant:normal;font-weight:normal;font-stretch:normal;text-align:center;line-height:100%;writing-mode:lr-tb;text-anchor:middle;fill:black;fill-opacity:1;stroke:none;stroke-width:1px;stroke-linecap:butt;stroke-linejoin:miter;stroke-opacity:1;font-family:DIN 1451 Engschrift"
       d="M 89.540435,299.95084 L 89.540435,233.53909 L 117.81769,233.53909 L 117.81769,242.49994 L 98.899338,242.49994 L 98.899338,262.41191 L 115.52658,262.41191 L 115.52658,271.27552 L 98.899338,271.27552 L 98.899338,299.95084 L 89.540435,299.95084 z M 138.34651,290.88972 C 139.74222,290.88973 140.87106,290.45824 141.73303,289.59527 C 142.59496,288.73232 143.12621,287.60398 143.32678,286.21027 L 152.78596,286.21027 L 152.78596,287.30416 C 152.78592,288.76473 152.47042,290.22528 151.83943,291.68583 C 151.20838,293.14639 149.89723,294.9888 147.90596,297.21305 C 145.91463,299.43731 142.795,300.54944 138.54705,300.54944 C 135.82445,300.54944 133.31811,299.81916 131.02803,298.35861 C 128.73792,296.89805 127.1614,295.2881 126.29844,293.52875 C 125.43547,291.7694 124.88802,290.17616 124.65607,288.74902 C 124.42412,287.3219 124.30815,285.91148 124.30815,284.51776 L 124.30815,266.4958 C 124.30815,262.58009 125.71857,259.17837 128.53941,256.29064 C 131.36024,253.403 134.72954,251.95916 138.64733,251.95911 C 142.69675,251.95916 146.06555,253.36958 148.75373,256.19037 C 151.44185,259.01125 152.78592,262.44639 152.78596,266.4958 L 152.78596,279.63776 L 133.8676,279.63776 L 133.8676,286.7086 C 133.86759,287.70325 134.3487,288.64876 135.31094,289.54513 C 136.27315,290.44153 137.285,290.88973 138.34651,290.88972 L 138.34651,290.88972 z M 138.54705,261.31802 C 137.285,261.31805 136.18959,261.74954 135.2608,262.61246 C 134.33199,263.47546 133.86759,265.00185 133.8676,267.19164 L 133.8676,271.87109 L 143.22651,271.87109 L 143.22651,267.19164 C 143.22648,265.46575 142.86134,264.05533 142.13109,262.96038 C 141.40079,261.86551 140.20611,261.31805 138.54705,261.31802 L 138.54705,261.31802 z M 160.30346,299.95084 L 160.30346,252.55468 L 169.86291,252.55468 L 169.86291,299.95084 L 160.30346,299.95084 z M 160.30346,242.89799 L 160.30346,233.53909 L 169.86291,233.53909 L 169.86291,242.89799 L 160.30346,242.89799 z M 191.43701,290.88972 C 192.83272,290.88973 193.96156,290.45824 194.82353,289.59527 C 195.68546,288.73232 196.21671,287.60398 196.41728,286.21027 L 205.87646,286.21027 L 205.87646,287.30416 C 205.87642,288.76473 205.56092,290.22528 204.92993,291.68583 C 204.29888,293.14639 202.98773,294.9888 200.99646,297.21305 C 199.00513,299.43731 195.8855,300.54944 191.63755,300.54944 C 188.91495,300.54944 186.40861,299.81916 184.11853,298.35861 C 181.82842,296.89805 180.2519,295.2881 179.38894,293.52875 C 178.52597,291.7694 177.97852,290.17616 177.74657,288.74902 C 177.51462,287.3219 177.39865,285.91148 177.39865,284.51776 L 177.39865,266.4958 C 177.39865,262.58009 178.80907,259.17837 181.62991,256.29064 C 184.45074,253.403 187.82004,251.95916 191.73783,251.95911 C 195.78725,251.95916 199.15605,253.36958 201.84423,256.19037 C 204.53235,259.01125 205.87642,262.44639 205.87646,266.4958 L 205.87646,279.63776 L 186.9581,279.63776 L 186.9581,286.7086 C 186.95809,287.70325 187.4392,288.64876 188.40144,289.54513 C 189.36365,290.44153 190.3755,290.88973 191.43701,290.88972 L 191.43701,290.88972 z M 191.63755,261.31802 C 190.3755,261.31805 189.28009,261.74954 188.3513,262.61246 C 187.42249,263.47546 186.95809,265.00185 186.9581,267.19164 L 186.9581,271.87109 L 196.31701,271.87109 L 196.31701,267.19164 C 196.31698,265.46575 195.95184,264.05533 195.22159,262.96038 C 194.49129,261.86551 193.29661,261.31805 191.63755,261.31802 L 191.63755,261.31802 z M 235.29926,251.95911 L 235.29926,261.71607 C 234.83534,261.58444 234.37094,261.48518 233.90606,261.41829 C 233.44113,261.35148 233.00914,261.31805 232.6101,261.31802 C 229.49044,261.31805 227.10109,262.38005 225.44203,264.50399 C 223.78294,266.62801 222.9534,269.18398 222.95341,272.17191 L 222.95341,299.95084 L 213.39396,299.95084 L 213.39396,252.55468 L 222.95341,252.55468 L 222.95341,257.63523 C 224.61248,255.57712 226.6534,254.11657 229.0762,253.25356 C 231.49896,252.39064 233.57331,251.95916 235.29926,251.95911 L 235.29926,251.95911 z M 255.44218,290.88972 L 257.63301,290.88972 L 257.63301,299.95084 L 254.64606,299.95084 C 252.85327,299.95084 251.26003,299.76852 249.86634,299.40389 C 248.47262,299.03926 247.11183,298.29227 245.78397,297.16292 C 244.45609,296.03357 243.52679,294.78876 242.99605,293.42847 C 242.4653,292.0682 242.19993,290.39241 242.19994,288.4011 L 242.19994,260.02357 L 237.52048,260.02357 L 237.52048,252.55468 L 242.19994,252.55468 L 242.19994,238.21854 L 251.75939,238.21854 L 251.75939,252.55468 L 257.63301,252.55468 L 257.63301,260.02357 L 251.75939,260.02357 L 251.75939,286.7086 C 251.75937,288.30084 251.97511,289.39575 252.40661,289.99333 C 252.83807,290.59093 253.84993,290.88973 255.44218,290.88972 L 255.44218,290.88972 z M 265.03506,294.9736 C 264.56913,294.17547 264.26983,293.29529 264.13715,292.33305 C 264.00446,291.37084 263.93812,290.29213 263.93812,289.09694 L 263.93812,283.72165 C 263.93812,280.20296 264.81779,277.58065 266.57715,275.8547 C 268.33649,274.1288 269.92973,272.95083 271.35687,272.3208 C 272.78399,271.69083 274.4932,271.37583 276.48452,271.3758 L 282.85647,271.3758 L 282.85647,267.29191 C 282.85645,266.36213 282.80682,265.59894 282.70758,265.00232 C 282.6083,264.40578 282.19353,263.64258 281.46327,262.71274 C 280.73297,261.78296 279.73682,261.31805 278.4748,261.31802 C 277.14793,261.31805 276.0196,261.74954 275.0898,262.61246 C 274.15997,263.47546 273.5958,264.6038 273.3973,265.99747 L 263.93812,265.99747 C 263.93812,262.14861 265.31561,258.84666 268.07062,256.09162 C 270.82561,253.33666 274.16098,251.95916 278.07675,251.95911 C 281.92765,251.95916 285.28024,253.31995 288.13453,256.04148 C 290.98876,258.7631 292.41589,262.08176 292.41592,265.99747 L 292.41592,299.95084 L 282.85647,299.95084 L 282.85647,295.17111 C 281.86181,296.83019 280.61751,298.14135 279.12355,299.10458 C 277.62955,300.06782 275.95275,300.54944 274.09314,300.54944 C 269.91201,300.54944 266.89265,298.69083 265.03506,294.9736 L 265.03506,294.9736 z M 273.49757,283.62137 L 273.49757,286.00972 C 273.49756,287.27176 273.94575,288.41732 274.84215,289.44638 C 275.73853,290.47546 276.91598,290.99 278.37453,290.98999 C 279.17265,290.99 279.92015,290.79097 280.61702,290.3929 C 281.31385,289.99486 281.8446,289.4474 282.20925,288.75054 C 282.57386,288.0537 282.77289,287.15731 282.80633,286.06137 C 282.83974,284.96547 282.85645,284.18556 282.85647,283.72165 L 282.85647,279.13943 L 279.27092,279.13943 C 277.54497,279.13945 276.15127,279.47167 275.0898,280.13609 C 274.0283,280.80056 273.49756,281.96231 273.49757,283.62137 L 273.49757,283.62137 z M 326.30244,312.99557 C 324.97353,314.98685 323.28052,316.56338 321.22342,317.72515 C 319.16626,318.8869 316.97593,319.46777 314.65243,319.46779 C 310.60297,319.46777 307.13441,318.09028 304.24673,315.33529 C 301.35904,312.58028 299.9152,309.14463 299.9152,305.02834 L 309.47465,305.02834 C 309.47464,306.35722 309.90612,307.48606 310.7691,308.41487 C 311.63204,309.34366 312.76038,309.80806 314.1541,309.80807 C 316.14538,309.80806 317.60594,308.91167 318.53577,307.1189 C 318.80112,306.45648 318.9338,305.395 318.93383,303.93445 L 318.93383,295.07084 C 318.00399,296.66509 316.74247,297.97676 315.14924,299.00583 C 313.55599,300.0349 311.86298,300.54944 310.07022,300.54944 C 308.14576,300.54944 306.37071,300.0349 304.74506,299.00583 C 303.1194,297.97676 301.95764,296.79829 301.25978,295.47041 C 300.56191,294.14255 300.16335,293.08056 300.06409,292.28444 C 299.96483,291.48833 299.9152,290.25972 299.9152,288.59861 L 299.9152,262.31468 C 299.9152,261.11953 300.06459,260.02412 300.36339,259.02843 C 300.66219,258.03282 301.49223,256.58898 302.85353,254.6969 C 304.21482,252.8049 306.58797,251.85889 309.97298,251.85884 C 311.76372,251.85889 313.42279,252.30708 314.95022,253.20342 C 316.4776,254.09986 317.80547,255.34416 318.93383,256.93635 L 318.93383,252.55468 L 328.49328,252.55468 L 328.49328,303.93445 C 328.49325,305.79204 328.34385,307.43441 328.04508,308.86154 C 327.74626,310.28867 327.16538,311.66667 326.30244,312.99557 L 326.30244,312.99557 z M 318.03744,263.11079 C 317.04076,261.78195 315.74631,261.11751 314.1541,261.11747 C 312.29446,261.11751 311.08256,261.66547 310.51841,262.76135 C 309.95423,263.85731 309.63923,264.68736 309.57341,265.25149 C 309.50756,265.81569 309.47464,266.39657 309.47465,266.99413 L 309.47465,285.01609 C 309.47464,285.94592 309.52427,286.69291 309.62354,287.25706 C 309.72279,287.82124 310.10464,288.56773 310.7691,289.49652 C 311.43352,290.42533 312.62769,290.88973 314.35161,290.88972 C 316.40974,290.88973 317.67127,290.30885 318.13619,289.14708 C 318.60108,287.98533 318.83353,287.10565 318.83355,286.50805 C 318.83353,285.91047 318.86696,285.41315 318.93383,285.01609 L 318.93383,266.99413 C 318.9338,266.06435 318.88367,265.33407 318.78342,264.8033 C 318.68312,264.27259 318.43446,263.70842 318.03744,263.11079 L 318.03744,263.11079 z M 350.12509,290.88972 C 351.52081,290.88973 352.64965,290.45824 353.51162,289.59527 C 354.37355,288.73232 354.9048,287.60398 355.10537,286.21027 L 364.56454,286.21027 L 364.56454,287.30416 C 364.56451,288.76473 364.249,290.22528 363.61802,291.68583 C 362.98697,293.14639 361.67581,294.9888 359.68454,297.21305 C 357.69322,299.43731 354.57359,300.54944 350.32564,300.54944 C 347.60304,300.54944 345.0967,299.81916 342.80661,298.35861 C 340.51651,296.89805 338.93998,295.2881 338.07703,293.52875 C 337.21406,291.7694 336.6666,290.17616 336.43466,288.74902 C 336.20271,287.3219 336.08674,285.91148 336.08674,284.51776 L 336.08674,266.4958 C 336.08674,262.58009 337.49715,259.17837 340.318,256.29064 C 343.13882,253.403 346.50813,251.95916 350.42592,251.95911 C 354.47534,251.95916 357.84414,253.36958 360.53231,256.19037 C 363.22044,259.01125 364.56451,262.44639 364.56454,266.4958 L 364.56454,279.63776 L 345.64619,279.63776 L 345.64619,286.7086 C 345.64618,287.70325 346.12729,288.64876 347.08953,289.54513 C 348.05174,290.44153 349.06359,290.88973 350.12509,290.88972 L 350.12509,290.88972 z M 350.32564,261.31802 C 349.06359,261.31805 347.96818,261.74954 347.03939,262.61246 C 346.11058,263.47546 345.64618,265.00185 345.64619,267.19164 L 345.64619,271.87109 L 355.00509,271.87109 L 355.00509,267.19164 C 355.00507,265.46575 354.63993,264.05533 353.90968,262.96038 C 353.17938,261.86551 351.9847,261.31805 350.32564,261.31802 L 350.32564,261.31802 z M 399.06485,256.83607 C 399.59759,257.63426 399.96323,258.59749 400.16179,259.72579 C 400.36028,260.85416 400.45954,261.9825 400.45957,263.11079 L 400.45957,299.95084 L 390.90012,299.95084 L 390.90012,266.59607 C 390.9001,263.0774 389.34028,261.31805 386.22067,261.31802 C 384.82695,261.31805 383.69861,261.8493 382.83566,262.91176 C 381.97269,263.9743 381.54121,265.2024 381.54122,266.59607 L 381.54122,299.95084 L 371.98177,299.95084 L 371.98177,252.55468 L 381.54122,252.55468 L 381.54122,257.1369 C 383.6662,253.68509 386.62073,251.95916 390.40483,251.95911 C 394.2537,251.95916 397.14037,253.58481 399.06485,256.83607 L 399.06485,256.83607 z " />
    <path
       id="text1896"
       style="font-size:99.56880188px;font-style:normal;font-variant:normal;font-weight:normal;font-stretch:normal;text-align:center;line-height:100%;writing-mode:lr-tb;text-anchor:middle;fill:black;fill-opacity:1;stroke:none;stroke-width:1px;stroke-linecap:butt;stroke-linejoin:miter;stroke-opacity:1;font-family:DIN 1451 Mittelschrift"
       d="M 136.69317,90.897462 L 155.70265,52.878515 L 167.03054,52.878515 L 152.10495,82.826944 L 152.29942,82.826944 C 153.88757,82.211163 155.68642,81.903252 157.69597,81.90321 C 162.16875,81.903252 166.10677,83.475219 169.51004,86.619115 C 172.91323,89.763086 174.61484,94.770692 174.61489,101.64195 C 174.61484,109.7773 172.44326,115.5871 168.10013,119.07135 C 163.75693,122.55561 158.96,124.29774 153.70933,124.29774 C 148.75032,124.29774 144.22078,122.37735 140.12071,118.53656 C 136.02063,114.69578 133.97059,109.43698 133.97059,102.76015 C 133.97059,98.48183 134.87811,94.527604 136.69317,90.897462 L 136.69317,90.897462 z M 154.29274,90.897462 C 151.4729,90.897495 149.07443,91.845537 147.09734,93.741591 C 145.12021,95.637704 144.13165,98.562859 144.13166,102.51706 C 144.13165,110.29589 147.51867,114.18529 154.29274,114.18528 C 156.62636,114.18529 158.90328,113.30207 161.12351,111.53562 C 163.34368,109.7692 164.45378,106.76302 164.45381,102.51706 C 164.45378,98.562859 163.45712,95.637704 161.46383,93.741591 C 159.47048,91.845537 157.08012,90.897495 154.29274,90.897462 L 154.29274,90.897462 z M 183.5119,101.25301 L 183.5119,91.091932 L 213.50895,91.091932 L 213.50895,101.25301 L 183.5119,101.25301 z M 221.87117,123.71433 L 221.87117,114.18528 L 249.58319,79.520949 C 250.65274,78.159702 251.3496,76.911852 251.67375,75.777395 C 251.99783,74.643034 252.15989,73.541037 252.15992,72.4714 C 252.15989,70.008163 251.28477,67.715036 249.53457,65.592012 C 247.78431,63.469105 245.40205,62.407622 242.38779,62.407561 C 239.63277,62.407622 237.27482,63.323252 235.31393,65.154454 C 233.35301,66.985773 232.25911,69.489576 232.03224,72.66587 L 221.87117,72.66587 C 221.90358,66.929052 223.86449,62.091608 227.7539,58.153523 C 231.64329,54.215568 236.26196,52.246558 241.60991,52.246487 C 247.50881,52.246558 252.42728,54.231774 256.36534,58.20214 C 260.30332,62.172637 262.27233,66.961464 262.27238,72.568635 C 262.27233,77.365616 260.86243,81.514312 258.04265,85.014735 L 235.241,113.60187 L 262.27238,113.60187 L 262.27238,123.71433 L 221.87117,123.71433 z M 269.71088,123.71433 L 269.71088,114.18528 L 297.4229,79.520949 C 298.49245,78.159702 299.1893,76.911852 299.51345,75.777395 C 299.83754,74.643034 299.99959,73.541037 299.99963,72.4714 C 299.99959,70.008163 299.12448,67.715036 297.37428,65.592012 C 295.62402,63.469105 293.24176,62.407622 290.22749,62.407561 C 287.47248,62.407622 285.11453,63.323252 283.15364,65.154454 C 281.19271,66.985773 280.09882,69.489576 279.87195,72.66587 L 269.71088,72.66587 C 269.74328,66.929052 271.70419,62.091608 275.5936,58.153523 C 279.483,54.215568 284.10166,52.246558 289.44961,52.246487 C 295.34852,52.246558 300.26699,54.231774 304.20505,58.20214 C 308.14303,62.172637 310.11204,66.961464 310.11208,72.568635 C 310.11204,77.365616 308.70213,81.514312 305.88235,85.014735 L 283.08071,113.60187 L 310.11208,113.60187 L 310.11208,123.71433 L 269.71088,123.71433 z " />
    <path
       id="text1900"
       style="font-size:99.56900024px;font-style:normal;font-variant:normal;font-weight:normal;font-stretch:normal;text-align:center;line-height:100%;writing-mode:lr-tb;text-anchor:middle;fill:black;fill-opacity:1;stroke:none;stroke-width:1px;stroke-linecap:butt;stroke-linejoin:miter;stroke-opacity:1;font-family:DIN 1451 Engschrift"
       d="M 49.178252,206.95282 C 48.712328,206.15468 48.413026,205.2745 48.280344,204.31227 C 48.147655,203.35006 48.081312,202.27135 48.081315,201.07616 L 48.081315,195.70087 C 48.081312,192.18218 48.960987,189.55987 50.720344,187.83392 C 52.479688,186.10802 54.072928,184.93005 55.500069,184.30002 C 56.927188,183.67004 58.636401,183.35504 60.627714,183.35501 L 66.999669,183.35501 L 66.999669,179.27113 C 66.999646,178.34135 66.950016,177.57816 66.850777,176.98154 C 66.751494,176.385 66.336725,175.6218 65.606468,174.69195 C 64.87617,173.76218 63.880015,173.29727 62.618,173.29723 C 61.291126,173.29727 60.162792,173.72875 59.232995,174.59168 C 58.303168,175.45468 57.739001,176.58301 57.540492,177.97668 L 48.081315,177.97668 C 48.081312,174.12782 49.458811,170.82588 52.213818,168.07083 C 54.968809,165.31588 58.304181,163.93838 62.219943,163.93833 C 66.070847,163.93838 69.423437,165.29917 72.277725,168.0207 C 75.131957,170.74231 76.559087,174.06097 76.559119,177.97668 L 76.559119,211.93005 L 66.999669,211.93005 L 66.999669,207.15033 C 66.005011,208.80941 64.760703,210.12057 63.266743,211.0838 C 61.772745,212.04704 60.095943,212.52866 58.236332,212.52866 C 54.055203,212.52866 51.035846,210.67005 49.178252,206.95282 L 49.178252,206.95282 z M 57.640766,195.60059 L 57.640766,197.98894 C 57.640753,199.25098 58.088947,200.39653 58.985348,201.4256 C 59.881722,202.45468 61.05918,202.96922 62.517727,202.96921 C 63.315848,202.96922 64.063344,202.77019 64.760217,202.37212 C 65.457049,201.97408 65.987792,201.42662 66.352446,200.72976 C 66.717056,200.03292 66.916085,199.13653 66.949532,198.04059 C 66.982934,196.94468 66.999646,196.16478 66.999669,195.70087 L 66.999669,191.11865 L 63.414115,191.11865 C 61.68817,191.11867 60.294465,191.45089 59.232995,192.11531 C 58.171495,192.77977 57.640753,193.94153 57.640766,195.60059 L 57.640766,195.60059 z M 111.83732,168.81529 C 112.37006,169.61347 112.7357,170.57671 112.93426,171.705 C 113.13275,172.83338 113.23201,173.96171 113.23204,175.09001 L 113.23204,211.93005 L 103.67259,211.93005 L 103.67259,178.57529 C 103.67257,175.05662 102.11275,173.29727 98.993139,173.29723 C 97.599415,173.29727 96.471081,173.82852 95.608133,174.89098 C 94.745155,175.95352 94.313674,177.18162 94.313688,178.57529 L 94.313688,211.93005 L 84.754237,211.93005 L 84.754237,164.5339 L 94.313688,164.5339 L 94.313688,169.11611 C 96.438669,165.6643 99.393203,163.93838 103.1773,163.93833 C 107.02617,163.93838 109.91284,165.56403 111.83732,168.81529 L 111.83732,168.81529 z M 147.07906,195.40308 C 147.07904,196.66311 147.12868,197.60862 147.22795,198.23962 C 147.3272,198.87065 147.82502,199.83338 148.72142,201.12781 C 149.6178,202.42227 151.26016,203.06949 153.64852,203.06948 C 154.97738,203.06949 156.20599,202.78741 157.33435,202.22323 C 158.46266,201.65907 159.2922,200.9288 159.82297,200.0324 C 160.35368,199.13602 160.63577,198.20672 160.66922,197.24448 C 160.70262,196.28227 160.71933,195.63505 160.71935,195.30281 L 160.71935,190.62336 C 160.71933,189.2945 160.6697,188.29834 160.57046,187.63489 C 160.47118,186.97149 160.07261,186.25792 159.37477,185.49419 C 158.67688,184.73052 157.68123,184.03366 156.38782,183.40363 C 155.09437,182.77366 152.8377,181.86106 149.61781,180.66585 C 146.39789,179.4707 143.69252,177.59537 141.5017,175.03987 C 139.31086,172.48445 138.21544,168.98246 138.21545,164.5339 L 138.21545,161.54695 C 138.21544,157.03366 139.72563,153.13412 142.74601,149.84832 C 145.76637,146.56264 149.53322,144.91977 154.04658,144.9197 C 158.62674,144.91977 162.46045,146.52972 165.5477,149.74957 C 168.63489,152.96953 170.17849,156.90199 170.17853,161.54695 L 170.17853,164.5339 L 160.71935,164.5339 L 160.71935,161.54695 C 160.71933,160.61921 160.65299,159.8231 160.52033,159.15861 C 160.38761,158.49422 159.85636,157.53149 158.92658,156.27041 C 157.99674,155.00945 156.43693,154.37894 154.24713,154.37888 C 152.32266,154.37894 150.74613,155.05958 149.51754,156.42082 C 148.28891,157.78217 147.67461,159.49088 147.67462,161.54695 L 147.67462,164.5339 C 147.67461,165.79598 147.72475,166.70908 147.82503,167.2732 C 147.9253,167.83741 148.27372,168.48463 148.87031,169.21487 C 149.46688,169.94519 150.32984,170.5757 151.45921,171.1064 C 152.58854,171.63718 154.76266,172.48343 157.98157,173.64515 C 161.20044,174.80695 164.03799,176.69899 166.49422,179.32127 C 168.95039,181.94361 170.17849,185.51144 170.17853,190.02475 L 170.17853,195.40308 C 170.17849,197.59292 169.96275,199.51737 169.53131,201.17643 C 169.09979,202.83552 167.75572,205.14232 165.49908,208.09685 C 163.24238,211.05139 159.35905,212.52866 153.84907,212.52866 C 148.14053,212.52866 143.99183,210.65333 141.40294,206.90268 C 138.81405,203.15204 137.5196,199.31884 137.51961,195.40308 L 137.51961,193.0117 L 147.07906,193.0117 L 147.07906,195.40308 z M 180.00842,169.4139 C 181.40212,167.68801 183.04499,166.34394 184.93704,165.38167 C 186.82906,164.41949 188.86999,163.93838 191.05983,163.93833 C 193.515,163.93838 195.68861,164.38657 197.58067,165.28291 C 199.47268,166.17935 201.24875,167.72245 202.90887,169.91223 C 204.56893,172.10209 205.39897,174.95635 205.399,178.47502 L 205.399,197.39337 C 205.39897,200.97691 204.60235,203.84737 203.00914,206.00477 C 201.41587,208.16219 199.6236,209.78885 197.63233,210.88477 C 195.64101,211.9807 193.61629,212.52866 191.55816,212.52866 C 188.70388,212.52866 186.09828,211.81509 183.74135,210.38796 C 181.38439,208.96083 179.75773,207.36759 178.86135,205.60824 C 177.96495,203.84889 177.4175,202.38834 177.21898,201.22657 C 177.02046,200.06482 176.92119,198.78709 176.9212,197.39337 L 176.9212,178.47502 C 176.92119,174.8895 177.95027,171.86913 180.00842,169.4139 L 180.00842,169.4139 z M 191.25734,173.19696 C 189.79879,173.197 188.63804,173.69482 187.77509,174.69043 C 186.91212,175.68612 186.48064,176.94765 186.48065,178.47502 L 186.48065,197.39337 C 186.48064,198.92079 186.8954,200.23194 187.72496,201.32684 C 188.55448,202.42176 189.73194,202.96922 191.25734,202.96921 C 193.31546,202.96922 194.5937,202.37163 195.09205,201.17643 C 195.59036,199.98126 195.83953,198.65339 195.83955,197.19282 L 195.83955,178.47502 C 195.83953,177.01449 195.42476,175.76968 194.59524,174.74057 C 193.76568,173.71153 192.65305,173.197 191.25734,173.19696 L 191.25734,173.19696 z M 239.99351,168.81529 C 240.52625,169.61347 240.89189,170.57671 241.09045,171.705 C 241.28894,172.83338 241.3882,173.96171 241.38823,175.09001 L 241.38823,211.93005 L 231.82878,211.93005 L 231.82878,178.57529 C 231.82876,175.05662 230.26894,173.29727 227.14933,173.29723 C 225.7556,173.29727 224.62727,173.82852 223.76432,174.89098 C 222.90134,175.95352 222.46986,177.18162 222.46988,178.57529 L 222.46988,211.93005 L 212.91043,211.93005 L 212.91043,164.5339 L 222.46988,164.5339 L 222.46988,169.11611 C 224.59486,165.6643 227.54939,163.93838 231.33349,163.93833 C 235.18236,163.93838 238.06903,165.56403 239.99351,168.81529 L 239.99351,168.81529 z M 276.74848,168.81529 C 277.28122,169.61347 277.64687,170.57671 277.84542,171.705 C 278.04391,172.83338 278.14317,173.96171 278.1432,175.09001 L 278.1432,211.93005 L 268.58375,211.93005 L 268.58375,178.57529 C 268.58373,175.05662 267.02392,173.29727 263.9043,173.29723 C 262.51058,173.29727 261.38224,173.82852 260.5193,174.89098 C 259.65632,175.95352 259.22484,177.18162 259.22485,178.57529 L 259.22485,211.93005 L 249.6654,211.93005 L 249.6654,164.5339 L 259.22485,164.5339 L 259.22485,169.11611 C 261.34983,165.6643 264.30437,163.93838 268.08846,163.93833 C 271.93733,163.93838 274.82401,165.56403 276.74848,168.81529 L 276.74848,168.81529 z M 287.41702,190.52308 L 287.41702,181.06391 L 315.79455,181.06391 L 315.79455,190.52308 L 287.41702,190.52308 z M 361.54681,211.93005 L 361.54681,207.15033 C 360.41846,208.87626 359.17364,210.20413 357.81237,211.13394 C 356.45106,212.06375 354.80818,212.52866 352.88375,212.52866 C 350.95929,212.52866 349.15081,211.99741 347.45832,210.93491 C 345.76581,209.87241 344.58734,208.66102 343.92291,207.30074 C 343.25846,205.94046 342.87661,204.82884 342.77735,203.96587 C 342.67809,203.10292 342.62846,201.84088 342.62846,200.17977 L 342.62846,164.5339 L 352.18791,164.5339 L 352.18791,196.59725 C 352.1879,197.32653 352.20461,198.07302 352.23805,198.83671 C 352.27146,199.60042 352.6366,200.4801 353.33347,201.47573 C 354.0303,202.47139 355.24169,202.96922 356.96764,202.96921 C 357.83058,202.96922 358.62669,202.73676 359.35598,202.27185 C 360.08522,201.80695 360.59925,201.2595 360.89807,200.62948 C 361.19684,199.99949 361.37967,199.31935 361.44654,198.58906 C 361.51337,197.8588 361.54679,197.19486 361.54681,196.59725 L 361.54681,164.5339 L 371.10626,164.5339 L 371.10626,211.93005 L 361.54681,211.93005 z M 406.46043,168.81529 C 406.99317,169.61347 407.35881,170.57671 407.55737,171.705 C 407.75586,172.83338 407.85512,173.96171 407.85515,175.09001 L 407.85515,211.93005 L 398.2957,211.93005 L 398.2957,178.57529 C 398.29568,175.05662 396.73586,173.29727 393.61625,173.29723 C 392.22252,173.29727 391.09419,173.82852 390.23124,174.89098 C 389.36826,175.95352 388.93678,177.18162 388.9368,178.57529 L 388.9368,211.93005 L 379.37735,211.93005 L 379.37735,164.5339 L 388.9368,164.5339 L 388.9368,169.11611 C 391.06178,165.6643 394.01631,163.93838 397.80041,163.93833 C 401.64928,163.93838 404.53595,165.56403 406.46043,168.81529 L 406.46043,168.81529 z M 434.85316,211.93005 L 434.85316,207.05005 C 433.92333,208.64431 432.69523,209.95598 431.16886,210.98505 C 429.64244,212.01412 427.94944,212.52866 426.08983,212.52866 C 421.775,212.52866 419.05342,211.35019 417.9251,208.99324 C 416.79676,206.6363 416.18296,204.9433 416.0837,203.91421 C 415.98444,202.88515 415.93481,201.50765 415.93481,199.78171 L 415.93481,174.19362 C 415.93481,171.3394 416.89703,168.91662 418.82148,166.92528 C 420.74593,164.93403 423.1687,163.93838 426.08983,163.93833 C 427.88259,163.93838 429.55888,164.40278 431.11872,165.33153 C 432.67851,166.26038 433.92333,167.48848 434.85316,169.01584 L 434.85316,145.51831 L 444.41261,145.51831 L 444.41261,211.93005 L 434.85316,211.93005 z M 434.15428,175.58834 C 433.22648,173.99412 431.86619,173.197 430.07344,173.19696 C 429.14361,173.197 428.29736,173.44616 427.53468,173.94446 C 426.77198,174.44282 426.25744,175.04042 425.99107,175.73723 C 425.72467,176.43412 425.57528,177.1644 425.54288,177.92807 C 425.51045,178.6918 425.49425,179.27218 425.49426,179.66919 L 425.49426,196.69449 C 425.49425,197.35895 425.51045,198.02339 425.54288,198.68781 C 425.57528,199.35227 425.89028,200.21523 426.48788,201.27671 C 427.08546,202.3382 428.31407,202.86894 430.17371,202.86893 C 432.09814,202.86894 433.35916,202.3382 433.95677,201.27671 C 434.55434,200.21523 434.85314,199.15273 434.85316,198.08921 L 434.85316,196.69449 L 434.85316,179.66919 C 434.85314,179.00478 434.83643,178.32413 434.80303,177.62724 C 434.76958,176.93043 434.55333,176.25079 434.15428,175.58834 L 434.15428,175.58834 z " />
    <path
       id="text1885"
       style="font-size:99.56900024px;font-style:normal;font-variant:normal;font-weight:normal;font-stretch:normal;text-align:center;line-height:100%;writing-mode:lr-tb;text-anchor:middle;fill:black;fill-opacity:1;stroke:none;stroke-width:1px;stroke-linecap:butt;stroke-linejoin:miter;stroke-opacity:1;font-family:DIN 1451 Engschrift"
       d="M 350.67008,76.306014 C 352.39598,76.306062 354.02265,76.770461 355.55008,77.699214 C 357.07746,78.62806 358.17287,79.706764 358.83633,80.935328 C 359.49973,82.163979 359.9145,83.209765 360.08064,84.072688 C 360.24672,84.935691 360.32977,86.064025 360.32981,87.457693 L 360.32981,124.29774 L 350.77036,124.29774 L 350.77036,91.040208 C 350.77033,89.448014 350.40519,88.154076 349.67494,87.158391 C 348.94464,86.162779 347.78339,85.664955 346.19118,85.664916 C 344.79745,85.664955 343.65241,86.21241 342.75604,87.307282 C 341.85963,88.402229 341.41144,89.646536 341.41145,91.040208 L 341.41145,124.29774 L 331.852,124.29774 L 331.852,57.885992 L 341.41145,57.885992 L 341.41145,81.483796 C 343.60126,78.031988 346.68746,76.306062 350.67008,76.306014 L 350.67008,76.306014 z " />
  </g>
  <path
     d="M 453.23342,19.074797 L 36.79782,19.117707 C 28.375505,19.117707 23.425891,27.356247 23.425891,39.539027 L 23.425891,320.50387 C 23.425891,332.68661 28.375515,340.9252 36.79782,340.9252 L 453.20218,340.88229 C 461.62449,340.88228 466.57411,332.64373 466.57411,320.46097 L 466.57411,39.496127 C 466.57411,27.313347 461.65573,19.074797 453.23342,19.074797 z "
     style="fill:none;fill-opacity:1;fill-rule:evenodd;stroke:black;stroke-width:12;stroke-linecap:butt;stroke-linejoin:miter;stroke-miterlimit:4;stroke-dasharray:none;stroke-opacity:1"
     id="path3976" />
</svg>
