<?xml version="1.0" encoding="UTF-8" standalone="no"?>
<!-- Created with Inkscape (http://www.inkscape.org/) -->
<svg
   xmlns:svg="http://www.w3.org/2000/svg"
   xmlns="http://www.w3.org/2000/svg"
   version="1.0"
   width="490"
   height="270"
   id="svg2">
  <defs
     id="defs4" />
  <path
     d="M 38.75,4.75 C 20.325639,4.7499998 9.9375,11.885785 9.9375,32.96875 L 9.625,236.5625 C 9.625,257.64547 20.013141,264.78126 38.4375,264.78125 L 451.1875,264.75 C 469.61186,264.75 479.99999,257.61421 480,236.53125 L 480.3125,33 C 480.3125,11.917035 469.92436,4.7812498 451.5,4.78125 L 38.75,4.75 z "
     style="fill:white;fill-opacity:1;fill-rule:evenodd;stroke:black;stroke-width:2;stroke-linecap:butt;stroke-linejoin:miter;stroke-miterlimit:4;stroke-dasharray:none;stroke-opacity:1"
     id="path1892" />
  <path
     d="M 453.28125,17.5625 L 36.75,17.59375 C 28.325749,17.59375 23.375,23.59476 23.375,32.46875 L 23.375,237.125 C 23.374999,245.99898 28.32576,252 36.75,252 L 453.25,251.96875 C 461.67424,251.96874 466.625,245.96774 466.625,237.09375 L 466.625,32.4375 C 466.625,23.56351 461.70549,17.5625 453.28125,17.5625 z "
     style="fill:none;fill-opacity:1;fill-rule:evenodd;stroke:black;stroke-width:10.05090809;stroke-linecap:butt;stroke-linejoin:miter;stroke-miterlimit:4;stroke-dasharray:none;stroke-opacity:1"
     id="path3976" />
  <path
     d="M 142.66346,122.45749 L 142.66346,57.536659 L 151.97605,57.536659 L 151.97605,97.950657 L 152.15428,97.950657 L 169.93288,76.206411 L 181.07235,76.206411 L 165.12063,94.296911 L 183.25569,122.45749 L 171.58152,122.45749 L 159.28355,100.84692 L 151.97605,109.17924 L 151.97605,122.45749 L 142.66346,122.45749 z M 225.89758,102.85202 L 197.11319,102.85202 C 197.11317,106.65431 198.14543,109.50601 200.20996,111.40714 C 202.27445,113.30828 204.91079,114.25885 208.11898,114.25884 C 211.95093,114.25885 215.33733,112.77359 218.27818,109.80305 L 225.00642,115.55102 C 222.71907,118.2245 220.14215,120.13306 217.27563,121.27671 C 214.40904,122.42036 211.41624,122.99219 208.29721,122.99219 C 203.54435,122.99219 198.94004,121.45494 194.48427,118.38045 C 190.02848,115.30596 187.80058,109.01588 187.80059,99.510183 C 187.80058,90.509523 189.85767,84.286278 193.97185,80.840431 C 198.08602,77.394666 202.38585,75.671763 206.87136,75.671717 C 211.95093,75.671763 216.39186,77.431798 220.19417,80.951825 C 223.9964,84.471936 225.89753,89.217345 225.89758,95.188068 L 225.89758,102.85202 z M 197.11319,95.188068 L 216.62954,95.188068 C 216.48098,91.712584 215.50071,89.053967 213.68872,87.212208 C 211.87667,85.370519 209.60422,84.449657 206.87136,84.449619 C 204.10875,84.449657 201.81402,85.370519 199.98717,87.212208 C 198.16028,89.053967 197.20229,91.712584 197.11319,95.188068 L 197.11319,95.188068 z M 235.96765,122.45749 L 235.96765,76.206411 L 245.28025,76.206411 L 245.28025,122.45749 L 235.96765,122.45749 z M 235.96765,66.849256 L 235.96765,57.536659 L 245.28025,57.536659 L 245.28025,66.849256 L 235.96765,66.849256 z M 257.62279,122.45749 L 257.62279,76.206411 L 266.93539,76.206411 L 266.93539,81.152336 L 267.11362,81.152336 C 269.99501,77.498635 274.00522,75.671763 279.14425,75.671717 C 282.73855,75.671763 286.20664,77.038204 289.54851,79.771042 C 292.89031,82.503965 294.56123,86.484465 294.56127,91.712554 L 294.56127,122.45749 L 285.24868,122.45749 L 285.24868,94.920721 C 285.24864,91.8017 284.37977,89.365872 282.64204,87.613229 C 280.90425,85.860655 278.7432,84.984351 276.15887,84.984314 C 273.48537,84.984351 271.27976,85.860655 269.54202,87.613229 C 267.80425,89.365872 266.93537,91.8017 266.93539,94.920721 L 266.93539,122.45749 L 257.62279,122.45749 z M 342.46098,102.85202 L 313.67659,102.85202 C 313.67658,106.65431 314.70884,109.50601 316.77337,111.40714 C 318.83786,113.30828 321.4742,114.25885 324.68239,114.25884 C 328.51434,114.25885 331.90073,112.77359 334.84159,109.80305 L 341.56983,115.55102 C 339.28248,118.2245 336.70555,120.13306 333.83903,121.27671 C 330.97245,122.42036 327.97965,122.99219 324.86062,122.99219 C 320.10776,122.99219 315.50345,121.45494 311.04768,118.38045 C 306.59188,115.30596 304.36399,109.01588 304.364,99.510183 C 304.36399,90.509523 306.42108,84.286278 310.53526,80.840431 C 314.64943,77.394666 318.94926,75.671763 323.43477,75.671717 C 328.51434,75.671763 332.95527,77.431798 336.75758,80.951825 C 340.55981,84.471936 342.46094,89.217345 342.46098,95.188068 L 342.46098,102.85202 z M 313.67659,95.188068 L 333.19294,95.188068 C 333.04439,91.712584 332.06411,89.053967 330.25212,87.212208 C 328.44008,85.370519 326.16763,84.449657 323.43477,84.449619 C 320.67216,84.449657 318.37743,85.370519 316.55058,87.212208 C 314.72369,89.053967 313.7657,91.712584 313.67659,95.188068 L 313.67659,95.188068 z M 133.48453,213.71204 L 133.48453,148.79121 L 142.79713,148.79121 L 161.42232,191.12119 L 179.6465,148.79121 L 188.95909,148.79121 L 188.95909,213.71204 L 179.1118,213.71204 L 179.1118,173.20892 L 178.93357,173.20892 L 165.34342,204.444 L 157.14477,204.444 L 143.55461,173.20892 L 143.33182,173.20892 L 143.33182,213.71204 L 133.48453,213.71204 z M 199.56387,190.54194 C 199.56387,185.58119 199.95003,181.88289 200.72238,179.44703 C 201.49471,177.01123 202.77203,174.81305 204.55435,172.85246 C 205.83167,171.45636 207.5917,170.11962 209.83446,168.84225 C 212.07719,167.56497 215.01058,166.92631 218.63464,166.92626 C 222.19925,166.92631 225.11036,167.56497 227.36799,168.84225 C 229.62555,170.11962 231.39301,171.45636 232.67038,172.85246 C 234.45265,174.81305 235.72998,177.01123 236.50235,179.44703 C 237.27465,181.88289 237.66082,185.58119 237.66086,190.54194 C 237.66082,195.59185 237.27465,199.33471 236.50235,201.77053 C 235.72998,204.20637 234.45265,206.40455 232.67038,208.36509 C 231.39301,209.79095 229.62555,211.12768 227.36799,212.3753 C 225.11036,213.62292 222.19925,214.24673 218.63464,214.24673 C 215.01058,214.24673 212.07719,213.62292 209.83446,212.3753 C 207.5917,211.12768 205.83167,209.79095 204.55435,208.36509 C 202.77203,206.40455 201.49471,204.20637 200.72238,201.77053 C 199.95003,199.33471 199.56387,195.59185 199.56387,190.54194 L 199.56387,190.54194 z M 228.39282,190.63106 C 228.39279,187.27439 228.22198,184.91282 227.8804,183.54635 C 227.53876,182.17994 226.95208,180.87291 226.12037,179.62526 C 224.48655,177.3677 221.99131,176.2389 218.63464,176.23886 C 215.21852,176.2389 212.72328,177.3677 211.14892,179.62526 C 210.25775,180.87291 209.65622,182.17994 209.34432,183.54635 C 209.03241,184.91282 208.87645,187.24468 208.87647,190.54194 C 208.87645,193.92836 209.03241,196.3122 209.34432,197.69348 C 209.65622,199.07479 210.25775,200.37439 211.14892,201.59229 C 212.72328,203.8499 215.21852,204.9787 218.63464,204.97869 C 221.99131,204.9787 224.48655,203.8499 226.12037,201.59229 C 226.95208,200.37439 227.53876,199.08222 227.8804,197.71576 C 228.22198,196.34933 228.39279,193.98777 228.39282,190.63106 L 228.39282,190.63106 z M 248.934,213.71204 L 248.934,174.59022 L 244.25542,174.59022 L 244.25542,167.46096 L 248.934,167.46096 L 248.934,161.35653 C 248.93399,157.04932 250.1222,153.87829 252.49863,151.84342 C 254.87504,149.80868 257.87526,148.79127 261.49932,148.79121 L 267.51463,148.79121 L 267.51463,157.52455 L 262.2568,157.52455 C 259.55361,157.52461 258.20202,158.80193 258.20204,161.35653 L 258.20204,167.46096 L 267.51463,167.46096 L 267.51463,174.59022 L 258.20204,174.59022 L 258.20204,213.71204 L 248.934,213.71204 z M 297.05652,213.71204 L 297.05652,209.61271 L 296.83373,209.61271 C 294.96227,212.70206 291.16,214.24673 285.42691,214.24673 C 280.25818,214.24673 276.24798,212.90257 273.39628,210.21424 C 270.54457,207.52593 269.11872,204.16181 269.11873,200.12188 C 269.11872,196.46816 270.3812,193.27484 272.90615,190.54194 C 275.43108,187.80908 279.18879,186.44264 284.17929,186.44262 L 297.05652,186.44262 L 297.05652,181.63036 C 297.05649,177.6796 293.89288,175.7042 287.56569,175.70417 C 283.16929,175.7042 280.24333,176.87756 278.78779,179.22424 L 271.48029,173.69906 C 274.71816,169.18391 279.91657,166.92631 287.07555,166.92626 C 292.77893,166.92631 297.41295,168.04026 300.97761,170.2681 C 304.5422,172.49604 306.32452,176.46169 306.32456,182.16506 L 306.32456,213.71204 L 297.05652,213.71204 z M 297.05652,197.49297 L 297.05652,194.10657 L 285.91705,194.10657 C 280.54038,194.10659 277.85206,195.96317 277.85207,199.67631 C 277.85206,201.2507 278.52785,202.61714 279.87945,203.77563 C 281.23103,204.93414 283.4812,205.5134 286.62997,205.51339 C 290.49163,205.5134 293.19481,205.08267 294.73951,204.22121 C 296.28415,203.35977 297.05649,201.11702 297.05652,197.49297 L 297.05652,197.49297 z M 313.27559,206.00353 L 319.78104,199.58719 C 323.82094,203.538 328.67775,205.5134 334.35147,205.51339 C 336.99521,205.5134 339.17854,205.01583 340.90147,204.0207 C 342.62435,203.02558 343.4858,201.54775 343.48583,199.58719 C 343.4858,196.88403 341.59952,195.36906 337.82698,195.04229 L 329.62833,194.2848 C 325.79634,193.98777 322.61788,192.7253 320.09294,190.49738 C 317.56799,188.26951 316.30552,185.16532 316.30552,181.18479 C 316.30552,176.49139 317.95416,172.94162 321.25145,170.53545 C 324.54872,168.12937 328.64804,166.92631 333.54942,166.92626 C 337.58931,166.92631 341.04997,167.49814 343.93141,168.64174 C 346.81279,169.78544 349.39714,171.30783 351.68448,173.20892 L 345.93652,179.98172 C 344.09476,178.73414 342.19362,177.70931 340.23311,176.90723 C 338.27253,176.10522 336.04464,175.7042 333.54942,175.70417 C 330.57888,175.7042 328.51437,176.23147 327.35588,177.28597 C 326.19736,178.34054 325.61811,179.66985 325.61812,181.2739 C 325.61811,182.28391 326.04883,183.21963 326.9103,184.08105 C 327.77174,184.94253 329.37582,185.46237 331.72255,185.64057 L 339.38651,186.17527 C 344.16902,186.50205 347.59997,187.97989 349.67938,190.60878 C 351.75871,193.23771 352.79839,196.37904 352.79843,200.03277 C 352.79839,204.57768 350.94181,208.0829 347.22869,210.54843 C 343.51551,213.01397 338.98546,214.24673 333.63854,214.24673 C 325.94487,214.24673 319.15722,211.499 313.27559,206.00353 L 313.27559,206.00353 z "
     style="font-size:91.25453949px;font-style:normal;font-variant:normal;font-weight:normal;font-stretch:normal;text-align:center;line-height:100%;writing-mode:lr-tb;text-anchor:middle;fill:black;fill-opacity:1;stroke:none;stroke-width:1px;stroke-linecap:butt;stroke-linejoin:miter;stroke-opacity:1;font-family:DIN 1451 Mittelschrift"
     id="text3877" />
</svg>
