<?xml version="1.0" encoding="UTF-8" standalone="no"?>
<!-- Created with Inkscape (http://www.inkscape.org/) -->
<svg
   xmlns:svg="http://www.w3.org/2000/svg"
   xmlns="http://www.w3.org/2000/svg"
   version="1.0"
   width="490"
   height="270"
   id="svg2">
  <defs
     id="defs4" />
  <path
     d="M 38.78125,4.984375 C 20.356889,4.9843748 9.96875,12.12016 9.96875,33.203125 L 9.65625,236.79688 C 9.65625,257.87984 20.044391,265.01563 38.46875,265.01563 L 451.21875,264.98438 C 469.64311,264.98438 480.03124,257.84859 480.03125,236.76563 L 480.34375,33.234375 C 480.34375,12.15141 469.95561,5.0156248 451.53125,5.015625 L 38.78125,4.984375 z "
     style="fill:white;fill-opacity:1;fill-rule:evenodd;stroke:black;stroke-width:2;stroke-linecap:butt;stroke-linejoin:miter;stroke-miterlimit:4;stroke-dasharray:none;stroke-opacity:1"
     id="path1881" />
  <path
     d="M 453.3125,17.796875 L 36.78125,17.828125 C 28.356999,17.828125 23.40625,23.829135 23.40625,32.703125 L 23.40625,237.35938 C 23.406249,246.23335 28.35701,252.23438 36.78125,252.23438 L 453.28125,252.20313 C 461.70549,252.20312 466.65625,246.20211 466.65625,237.32813 L 466.65625,32.671875 C 466.65625,23.797885 461.73674,17.796875 453.3125,17.796875 z "
     style="fill:none;fill-opacity:1;fill-rule:evenodd;stroke:black;stroke-width:10.05090809;stroke-linecap:butt;stroke-linejoin:miter;stroke-miterlimit:4;stroke-dasharray:none;stroke-opacity:1"
     id="path3976" />
  <g
     transform="translate(32.08589,-383.2288)"
     id="g3588">
    <path
       d="M 83.23651,579.26282 L 83.23651,473.68822 L 49.831065,473.68822 L 49.831065,457.27853 L 135.14472,457.27853 L 135.14472,473.68822 L 101.73927,473.68822 L 101.73927,579.26282 L 83.23651,579.26282 z "
       style="font-size:171.46453857px;font-style:normal;font-variant:normal;font-weight:normal;font-stretch:normal;text-indent:0;text-align:center;text-decoration:none;line-height:100%;letter-spacing:normal;word-spacing:normal;text-transform:none;direction:ltr;block-progression:tb;writing-mode:lr-tb;text-anchor:middle;color:black;fill:black;fill-opacity:1;fill-rule:nonzero;stroke:none;stroke-width:1;stroke-linecap:round;stroke-linejoin:miter;marker:none;marker-start:none;marker-mid:none;marker-end:none;stroke-miterlimit:4;stroke-dashoffset:0;stroke-opacity:1;visibility:visible;display:inline;overflow:visible;font-family:DIN 1451 Mittelschrift"
       id="text2024" />
    <path
       d="M 128.57229,579.26283 L 173.11289,457.19481 L 188.35046,457.19481 L 232.89105,579.26283 L 213.46733,579.26283 L 204.09037,551.71799 L 157.79159,551.71799 L 148.07974,579.26283 L 128.57229,579.26283 z M 163.23358,535.39202 L 198.56466,535.39202 C 195.99708,527.85701 193.97378,521.95455 192.49474,517.68462 C 191.01558,513.41482 189.73183,509.63334 188.64349,506.34016 C 187.55503,503.04714 186.45268,499.69823 185.33643,496.29341 C 184.22007,492.88877 182.74097,488.28401 180.89912,482.47913 C 178.94553,488.50727 177.38271,493.32134 176.21064,496.92134 C 175.03847,500.5215 173.90821,503.996 172.81986,507.34484 C 171.73142,510.69382 170.47557,514.43344 169.05233,518.56371 C 167.629,522.6941 165.68942,528.30353 163.23358,535.39202 L 163.23358,535.39202 z "
       style="font-size:171.46453857px;font-style:normal;font-variant:normal;font-weight:normal;font-stretch:normal;text-indent:0;text-align:center;text-decoration:none;line-height:100%;letter-spacing:normal;word-spacing:normal;text-transform:none;direction:ltr;block-progression:tb;writing-mode:lr-tb;text-anchor:middle;color:black;fill:black;fill-opacity:1;fill-rule:nonzero;stroke:none;stroke-width:1;stroke-linecap:round;stroke-linejoin:miter;marker:none;marker-start:none;marker-mid:none;marker-end:none;stroke-miterlimit:4;stroke-dashoffset:0;stroke-opacity:1;visibility:visible;display:inline;overflow:visible;font-family:DIN 1451 Mittelschrift"
       id="text2030" />
    <path
       d="M 319.20817,579.26282 L 292.50056,533.885 L 265.70923,579.26282 L 244.86222,579.26282 L 282.20264,516.7218 L 247.20646,457.27853 L 268.13719,457.27853 L 292.50056,499.55861 L 316.78021,457.27853 L 337.71094,457.27853 L 302.71476,516.7218 L 340.1389,579.26282 L 319.20817,579.26282 z "
       style="font-size:171.46453857px;font-style:normal;font-variant:normal;font-weight:normal;font-stretch:normal;text-indent:0;text-align:center;text-decoration:none;line-height:100%;letter-spacing:normal;word-spacing:normal;text-transform:none;direction:ltr;block-progression:tb;writing-mode:lr-tb;text-anchor:middle;color:black;fill:black;fill-opacity:1;fill-rule:nonzero;stroke:none;stroke-width:1;stroke-linecap:round;stroke-linejoin:miter;marker:none;marker-start:none;marker-mid:none;marker-end:none;stroke-miterlimit:4;stroke-dashoffset:0;stroke-opacity:1;visibility:visible;display:inline;overflow:visible;font-family:DIN 1451 Mittelschrift"
       id="text2034" />
    <path
       d="M 357.49438,579.26282 L 357.49438,457.27853 L 375.99715,457.27853 L 375.99715,579.26282 L 357.49438,579.26282 z "
       style="font-size:171.46453857px;font-style:normal;font-variant:normal;font-weight:normal;font-stretch:normal;text-indent:0;text-align:center;text-decoration:none;line-height:100%;letter-spacing:normal;word-spacing:normal;text-transform:none;direction:ltr;block-progression:tb;writing-mode:lr-tb;text-anchor:middle;color:black;fill:black;fill-opacity:1;fill-rule:nonzero;stroke:none;stroke-width:1;stroke-linecap:round;stroke-linejoin:miter;marker:none;marker-start:none;marker-mid:none;marker-end:none;stroke-miterlimit:4;stroke-dashoffset:0;stroke-opacity:1;visibility:visible;display:inline;overflow:visible;font-family:DIN 1451 Mittelschrift"
       id="text2038" />
  </g>
</svg>
