<?xml version="1.0" encoding="UTF-8" standalone="no"?>
<svg
   xmlns:dc="http://purl.org/dc/elements/1.1/"
   xmlns:cc="http://creativecommons.org/ns#"
   xmlns:rdf="http://www.w3.org/1999/02/22-rdf-syntax-ns#"
   xmlns:svg="http://www.w3.org/2000/svg"
   xmlns="http://www.w3.org/2000/svg"
   xmlns:sodipodi="http://sodipodi.sourceforge.net/DTD/sodipodi-0.dtd"
   xmlns:inkscape="http://www.inkscape.org/namespaces/inkscape"
   version="1.0"
   width="505.68893"
   height="505.68903"
   id="0"
   inkscape:version="0.48.0 r9654"
   sodipodi:docname="1026-60.svg">
  <metadata
     id="metadata3019">
    <rdf:RDF>
      <cc:Work
         rdf:about="">
        <dc:format>image/svg+xml</dc:format>
        <dc:type
           rdf:resource="http://purl.org/dc/dcmitype/StillImage" />
        <dc:title></dc:title>
      </cc:Work>
    </rdf:RDF>
  </metadata>
  <defs
     id="defs3017" />
  <sodipodi:namedview
     pagecolor="#ffffff"
     bordercolor="#666666"
     borderopacity="1"
     objecttolerance="10"
     gridtolerance="10"
     guidetolerance="10"
     inkscape:pageopacity="0"
     inkscape:pageshadow="2"
     inkscape:window-width="1920"
     inkscape:window-height="1028"
     id="namedview3015"
     showgrid="false"
     inkscape:zoom="1"
     inkscape:cx="266.79209"
     inkscape:cy="244.00076"
     inkscape:window-x="-8"
     inkscape:window-y="-8"
     inkscape:window-maximized="1"
     inkscape:current-layer="0"
     fit-margin-top="0"
     fit-margin-left="0"
     fit-margin-right="0"
     fit-margin-bottom="0" />
  <g
     id="g3029"
     transform="matrix(0.06761676,0,0,0.06761676,0.04231333,0.04231333)">
    <path
       id="2"
       style="fill:#ffffff;fill-opacity:1;fill-rule:evenodd;stroke:none"
       d="m 498.75,7477.5 -15,-1.25 -31.25,-1.25 -31.25,-3.75 -31.25,-6.25 -30,-7.5 -30,-10 -28.75,-11.25 -28.75,-13.75 -27.5,-15 -26.25,-16.25 -25,-18.75 -23.75,-20 -23.75,-21.25 -21.25,-23.75 -20,-23.75 -18.75,-25 L 70,7232.5 55,7205 41.25,7176.25 30,7147.5 l -10,-30 -7.5,-30 L 6.25,7056.25 2.5,7025 1.25,6993.75 0,6978.75 0,498.75 1.25,483.75 2.5,452.5 6.25,421.25 12.5,390 20,360 30,330 41.25,301.25 55,272.5 70,245 86.25,218.75 105,193.75 125,170 146.25,146.25 170,125 193.75,105 218.75,86.25 245,70 272.5,55 301.25,41.25 330,30 360,20 390,12.5 421.25,6.25 452.5,2.5 l 31.25,-1.25 15,-1.25 6480,0 15,1.25 31.25,1.25 31.25,3.75 31.25,6.25 30,7.5 30,10 28.75,11.25 28.75,13.75 27.5,15 26.25,16.25 25,18.75 23.75,20 23.75,21.25 21.25,23.75 20,23.75 18.75,25 16.25,26.25 15,27.5 13.75,28.75 11.25,28.75 10,30 7.5,30 6.25,31.25 3.75,31.25 1.25,31.25 1.25,15 0,6480 -1.25,15 -1.25,31.25 -3.75,31.25 -6.25,31.25 -7.5,30 -10,30 -11.25,28.75 -13.75,28.75 -15,27.5 -16.25,26.25 -18.75,25 -20,23.75 -21.25,23.75 -23.75,21.25 -23.75,20 -25,18.75 -26.25,16.25 -27.5,15 -28.75,13.75 -28.75,11.25 -30,10 -30,7.5 -31.25,6.25 -31.25,3.75 -31.25,1.25 -15,1.25 -6480,0 z"
       inkscape:connector-curvature="0" />
    <path
       id="3"
       style="fill:none;stroke:#000000;stroke-width:1.25px;stroke-linecap:round;stroke-linejoin:round;stroke-opacity:1;stroke-dasharray:none"
       d="m 498.75,7477.5 -15,-1.25 -31.25,-1.25 -31.25,-3.75 -31.25,-6.25 -30,-7.5 -30,-10 -28.75,-11.25 -28.75,-13.75 -27.5,-15 -26.25,-16.25 -25,-18.75 -23.75,-20 -23.75,-21.25 -21.25,-23.75 -20,-23.75 -18.75,-25 L 70,7232.5 55,7205 41.25,7176.25 30,7147.5 l -10,-30 -7.5,-30 L 6.25,7056.25 2.5,7025 1.25,6993.75 0,6978.75 0,498.75 1.25,483.75 2.5,452.5 6.25,421.25 12.5,390 20,360 30,330 41.25,301.25 55,272.5 70,245 86.25,218.75 105,193.75 125,170 146.25,146.25 170,125 193.75,105 218.75,86.25 245,70 272.5,55 301.25,41.25 330,30 360,20 390,12.5 421.25,6.25 452.5,2.5 l 31.25,-1.25 15,-1.25 6480,0 15,1.25 31.25,1.25 31.25,3.75 31.25,6.25 30,7.5 30,10 28.75,11.25 28.75,13.75 27.5,15 26.25,16.25 25,18.75 23.75,20 23.75,21.25 21.25,23.75 20,23.75 18.75,25 16.25,26.25 15,27.5 13.75,28.75 11.25,28.75 10,30 7.5,30 6.25,31.25 3.75,31.25 1.25,31.25 1.25,15 0,6480 -1.25,15 -1.25,31.25 -3.75,31.25 -6.25,31.25 -7.5,30 -10,30 -11.25,28.75 -13.75,28.75 -15,27.5 -16.25,26.25 -18.75,25 -20,23.75 -21.25,23.75 -23.75,21.25 -23.75,20 -25,18.75 -26.25,16.25 -27.5,15 -28.75,13.75 -28.75,11.25 -30,10 -30,7.5 -31.25,6.25 -31.25,3.75 -31.25,1.25 -15,1.25 -6480,0"
       inkscape:connector-curvature="0" />
    <path
       id="4"
       style="fill:#000000;fill-opacity:1;fill-rule:evenodd;stroke:none"
       d="m 498.75,7352.5 -11.25,0 -23.75,-2.5 -22.5,-2.5 -23.75,-3.75 -22.5,-6.25 -22.5,-7.5 -21.25,-8.75 -21.25,-10 -21.25,-11.25 -20,-12.5 -18.75,-13.75 -17.5,-15 -17.5,-16.25 -16.25,-17.5 -15,-17.5 -13.75,-18.75 -12.5,-20 -11.25,-21.25 -10,-21.25 -8.75,-21.25 -7.5,-22.5 -6.25,-22.5 -3.75,-23.75 -2.5,-22.5 -2.5,-23.75 0,-11.25 0,-6480 0,-11.25 2.5,-23.75 2.5,-22.5 3.75,-23.75 6.25,-22.5 7.5,-22.5 8.75,-21.25 10,-21.25 11.25,-21.25 12.5,-20 13.75,-18.75 15,-17.5 16.25,-17.5 17.5,-16.25 17.5,-15 18.75,-13.75 20,-12.5 21.25,-11.25 21.25,-10 21.25,-8.75 22.5,-7.5 22.5,-6.25 23.75,-3.75 22.5,-2.5 23.75,-2.5 11.25,0 6480,0 11.25,0 23.75,2.5 22.5,2.5 23.75,3.75 22.5,6.25 22.5,7.5 21.25,8.75 21.25,10 21.25,11.25 20,12.5 18.75,13.75 17.5,15 17.5,16.25 16.25,17.5 15,17.5 13.75,18.75 12.5,20 11.25,21.25 10,21.25 8.75,21.25 7.5,22.5 6.25,22.5 3.75,23.75 2.5,22.5 2.5,23.75 0,11.25 0,6480 0,11.25 -2.5,23.75 -2.5,22.5 -3.75,23.75 -6.25,22.5 -7.5,22.5 -8.75,21.25 -10,21.25 -11.25,21.25 -12.5,20 -13.75,18.75 -15,17.5 -16.25,17.5 -17.5,16.25 -17.5,15 -18.75,13.75 -20,12.5 -21.25,11.25 -21.25,10 -21.25,8.75 -22.5,7.5 -22.5,6.25 -23.75,3.75 -22.5,2.5 -23.75,2.5 -11.25,0 -6480,0 z"
       inkscape:connector-curvature="0" />
    <path
       id="5"
       style="fill:#ffffff;fill-opacity:1;fill-rule:evenodd;stroke:none"
       d="m 498.75,7165 -5,0 -12.5,0 -11.25,-2.5 -11.25,-1.25 -11.25,-3.75 -11.25,-3.75 -11.25,-3.75 -11.25,-5 -10,-6.25 -10,-6.25 -8.75,-6.25 -10,-7.5 -7.5,-8.75 -8.75,-7.5 -7.5,-10 -6.25,-8.75 -6.25,-10 -6.25,-10 -5,-11.25 -3.75,-11.25 -3.75,-11.25 -3.75,-11.25 -1.25,-11.25 -2.5,-11.25 0,-12.5 0,-5 0,-6480 0,-5 0,-12.5 2.5,-11.25 1.25,-11.25 3.75,-11.25 3.75,-11.25 3.75,-11.25 5,-11.25 6.25,-10 6.25,-10 6.25,-8.75 7.5,-10 8.75,-7.5 7.5,-8.75 10,-7.5 8.75,-6.25 10,-6.25 10,-6.25 11.25,-5 11.25,-3.75 11.25,-3.75 11.25,-3.75 11.25,-1.25 11.25,-2.5 12.5,0 5,0 6480,0 5,0 12.5,0 11.25,2.5 11.25,1.25 11.25,3.75 11.25,3.75 11.25,3.75 11.25,5 10,6.25 10,6.25 8.75,6.25 10,7.5 7.5,8.75 8.75,7.5 7.5,10 6.25,8.75 6.25,10 6.25,10 5,11.25 3.75,11.25 3.75,11.25 3.75,11.25 1.25,11.25 2.5,11.25 0,12.5 0,5 0,6480 0,5 0,12.5 -2.5,11.25 -1.25,11.25 -3.75,11.25 -3.75,11.25 -3.75,11.25 -5,11.25 -6.25,10 -6.25,10 -6.25,8.75 -7.5,10 -8.75,7.5 -7.5,8.75 -10,7.5 -8.75,6.25 -10,6.25 -10,6.25 -11.25,5 -11.25,3.75 -11.25,3.75 -11.25,3.75 -11.25,1.25 -11.25,2.5 -12.5,0 -5,0 -6480,0 z"
       inkscape:connector-curvature="0" />
    <path
       id="6"
       style="fill:#000000;fill-opacity:1;fill-rule:evenodd;stroke:none"
       d="m 676.25,1750 0,-785 336.25,0 0,105 -225,0 0,231.25 197.5,0 0,105 -197.5,0 0,232.5 225,0 0,111.25 -336.25,0 0,0 z m 602.5,0 -42.5,0 -3.75,0 -7.5,0 -7.5,-1.25 -8.75,-1.25 -7.5,-2.5 -7.5,-2.5 -7.5,-2.5 -6.25,-3.75 -7.5,-3.75 -6.25,-3.75 -6.25,-5 -6.25,-5 -6.25,-5 -5,-6.25 -5,-6.25 -5,-6.25 -3.75,-6.25 -5,-7.5 -2.5,-7.5 -3.75,-6.25 -2.5,-7.5 -1.25,-8.75 -1.25,-7.5 -1.25,-7.5 0,-7.5 -1.25,-5 0,-658.75 112.5,0 0,645 0,1.25 0,2.5 1.25,2.5 0,2.5 1.25,2.5 1.25,2.5 0,2.5 1.25,2.5 2.5,2.5 1.25,1.25 1.25,2.5 2.5,1.25 2.5,2.5 1.25,1.25 2.5,1.25 2.5,1.25 2.5,1.25 2.5,0 2.5,1.25 2.5,0 2.5,0 1.25,0 21.25,0 0,105 0,0 z m 406.25,-161.25 0,6.25 0,10 -1.25,10 -2.5,11.25 -2.5,10 -3.75,10 -3.75,10 -3.75,8.75 -5,10 -6.25,8.75 -6.25,8.75 -6.25,7.5 -7.5,7.5 -7.5,7.5 -8.75,7.5 -8.75,6.25 -8.75,5 -8.75,5 -10,5 -10,3.75 -10,3.75 -10,2.5 -10,1.25 -11.25,1.25 -10,1.25 -11.25,0 -10,-1.25 -10,-1.25 -11.25,-1.25 -10,-2.5 -10,-3.75 -10,-3.75 -8.75,-5 -10,-5 -8.75,-5 -8.75,-6.25 -7.5,-7.5 -7.5,-7.5 -7.5,-7.5 -7.5,-7.5 -6.25,-8.75 -5,-8.75 -5,-10 -5,-8.75 -3.75,-10 -3.75,-10 -2.5,-10 -1.25,-11.25 -1.25,-10 -1.25,-10 0,-6.25 0,-237.5 0,-6.25 1.25,-10 1.25,-10 1.25,-11.25 2.5,-10 3.75,-10 3.75,-10 5,-8.75 5,-10 5,-8.75 6.25,-8.75 7.5,-7.5 7.5,-8.75 7.5,-6.25 7.5,-7.5 8.75,-6.25 8.75,-5 10,-5 8.75,-5 10,-3.75 10,-3.75 10,-2.5 11.25,-1.25 10,-1.25 10,-1.25 11.25,0 10,1.25 11.25,1.25 10,1.25 10,2.5 10,3.75 10,3.75 10,5 8.75,5 8.75,5 8.75,6.25 8.75,7.5 7.5,6.25 7.5,8.75 6.25,7.5 6.25,8.75 6.25,8.75 5,10 3.75,8.75 3.75,10 3.75,10 2.5,10 2.5,11.25 1.25,10 0,10 0,6.25 0,161.25 -223.75,0 0,76.25 0,2.5 0,3.75 0,2.5 1.25,3.75 1.25,3.75 1.25,2.5 1.25,3.75 1.25,3.75 1.25,2.5 2.5,3.75 1.25,2.5 2.5,2.5 2.5,2.5 2.5,2.5 2.5,2.5 3.75,1.25 2.5,2.5 2.5,1.25 3.75,1.25 3.75,2.5 2.5,0 3.75,1.25 3.75,1.25 3.75,0 2.5,0 3.75,0 3.75,0 3.75,0 3.75,-1.25 2.5,-1.25 3.75,0 3.75,-2.5 2.5,-1.25 3.75,-1.25 2.5,-2.5 2.5,-1.25 2.5,-2.5 2.5,-2.5 2.5,-2.5 2.5,-2.5 2.5,-2.5 1.25,-3.75 2.5,-2.5 1.25,-3.75 1.25,-3.75 1.25,-2.5 1.25,-3.75 0,-3.75 0,-2.5 1.25,-3.75 0,-2.5 111.25,0 0,0 z m -223.75,-167.5 0,-70 0,-2.5 0,-3.75 0,-2.5 1.25,-3.75 1.25,-3.75 1.25,-3.75 1.25,-2.5 1.25,-3.75 1.25,-2.5 2.5,-3.75 1.25,-2.5 2.5,-2.5 2.5,-2.5 2.5,-2.5 2.5,-2.5 3.75,-1.25 2.5,-2.5 2.5,-1.25 3.75,-2.5 3.75,-1.25 2.5,0 3.75,-1.25 3.75,-1.25 3.75,0 2.5,0 3.75,0 3.75,0 3.75,0 3.75,1.25 2.5,1.25 3.75,0 3.75,1.25 2.5,2.5 3.75,1.25 2.5,2.5 2.5,1.25 2.5,2.5 2.5,2.5 2.5,2.5 2.5,2.5 2.5,2.5 1.25,3.75 2.5,2.5 1.25,3.75 1.25,2.5 1.25,3.75 1.25,3.75 0,3.75 0,2.5 1.25,3.75 0,2.5 0,70 -112.5,0 0,0 z m 322.5,328.75 0,-785 112.5,0 0,470 140,-245 111.25,0 -132.5,223.75 161.25,336.25 -126.25,0 -98.75,-237.5 -55,83.75 0,153.75 -112.5,0 0,0 z m 658.75,0 -56.25,0 -3.75,0 -7.5,0 -8.75,-1.25 -7.5,-1.25 -7.5,-2.5 -7.5,-2.5 -7.5,-2.5 -7.5,-3.75 -6.25,-3.75 -7.5,-3.75 -6.25,-5 -6.25,-5 -5,-5 -6.25,-6.25 -5,-6.25 -3.75,-6.25 -5,-6.25 -3.75,-7.5 -3.75,-7.5 -2.5,-6.25 -2.5,-7.5 -1.25,-8.75 -2.5,-7.5 0,-7.5 -1.25,-7.5 0,-5 0,-342.5 -56.25,0 0,-91.25 56.25,0 0,-168.75 112.5,0 0,168.75 70,0 0,91.25 -70,0 0,328.75 0,1.25 0,2.5 0,2.5 1.25,2.5 0,2.5 1.25,2.5 1.25,2.5 1.25,2.5 1.25,2.5 2.5,1.25 1.25,2.5 2.5,1.25 1.25,2.5 2.5,1.25 2.5,1.25 2.5,1.25 2.5,1.25 2.5,0 2.5,1.25 2.5,0 2.5,0 1.25,0 35,0 0,105 0,0 z m 98.75,0 0,-560 111.25,0 0,62.5 3.75,-3.75 7.5,-8.75 8.75,-7.5 7.5,-7.5 10,-6.25 8.75,-6.25 10,-6.25 10,-5 10,-5 10,-3.75 11.25,-3.75 11.25,-2.5 11.25,-1.25 11.25,-1.25 11.25,-1.25 5,0 0,117.5 -3.75,-1.25 -6.25,-1.25 -6.25,-1.25 -7.5,-1.25 -6.25,0 -7.5,0 -6.25,0 -6.25,1.25 -7.5,1.25 -6.25,1.25 -6.25,1.25 -7.5,2.5 -6.25,2.5 -5,3.75 -6.25,3.75 -6.25,3.75 -5,3.75 -5,5 -5,5 -5,5 -3.75,5 -3.75,5 -3.75,6.25 -3.75,6.25 -2.5,6.25 -2.5,6.25 -1.25,6.25 -2.5,7.5 -1.25,6.25 0,6.25 -1.25,7.5 0,2.5 0,343.75 -111.25,0 0,0 z m 301.25,-161.25 0,-237.5 0,-6.25 0,-10 1.25,-10 2.5,-11.25 2.5,-10 3.75,-10 3.75,-10 3.75,-8.75 5,-10 6.25,-8.75 6.25,-8.75 6.25,-7.5 7.5,-8.75 7.5,-6.25 8.75,-7.5 8.75,-6.25 8.75,-5 8.75,-5 10,-5 10,-3.75 10,-3.75 10,-2.5 10,-1.25 11.25,-1.25 10,-1.25 10,0 11.25,1.25 10,1.25 11.25,1.25 10,2.5 10,3.75 10,3.75 8.75,5 10,5 8.75,5 8.75,6.25 7.5,7.5 7.5,6.25 7.5,8.75 7.5,7.5 6.25,8.75 5,8.75 5,10 5,8.75 3.75,10 3.75,10 2.5,10 1.25,11.25 1.25,10 1.25,10 0,6.25 0,237.5 0,6.25 -1.25,10 -1.25,10 -1.25,11.25 -2.5,10 -3.75,10 -3.75,10 -5,8.75 -5,10 -5,8.75 -6.25,8.75 -7.5,7.5 -7.5,7.5 -7.5,7.5 -7.5,7.5 -8.75,6.25 -8.75,5 -10,5 -8.75,5 -10,3.75 -10,3.75 -10,2.5 -11.25,1.25 -10,1.25 -11.25,1.25 -10,0 -10,-1.25 -11.25,-1.25 -10,-1.25 -10,-2.5 -10,-3.75 -10,-3.75 -10,-5 -8.75,-5 -8.75,-5 -8.75,-6.25 -8.75,-7.5 -7.5,-7.5 -7.5,-7.5 -6.25,-7.5 -6.25,-8.75 -6.25,-8.75 -5,-10 -3.75,-8.75 -3.75,-10 -3.75,-10 -2.5,-10 -2.5,-11.25 -1.25,-10 0,-10 0,-6.25 0,0 z m 111.25,0 0,-237.5 0,-2.5 1.25,-3.75 0,-2.5 0,-3.75 1.25,-3.75 1.25,-3.75 1.25,-2.5 1.25,-3.75 2.5,-2.5 1.25,-3.75 2.5,-2.5 2.5,-2.5 2.5,-2.5 2.5,-2.5 2.5,-2.5 2.5,-1.25 2.5,-2.5 3.75,-1.25 2.5,-2.5 3.75,-1.25 3.75,0 2.5,-1.25 3.75,-1.25 3.75,0 3.75,0 3.75,0 2.5,0 3.75,0 3.75,1.25 3.75,1.25 2.5,0 3.75,1.25 3.75,2.5 2.5,1.25 2.5,2.5 3.75,1.25 2.5,2.5 2.5,2.5 2.5,2.5 2.5,2.5 1.25,2.5 2.5,3.75 1.25,2.5 1.25,3.75 1.25,2.5 1.25,3.75 1.25,3.75 1.25,3.75 0,2.5 0,3.75 0,2.5 0,237.5 0,2.5 0,3.75 0,2.5 -1.25,3.75 -1.25,3.75 -1.25,2.5 -1.25,3.75 -1.25,3.75 -1.25,2.5 -2.5,3.75 -1.25,2.5 -2.5,2.5 -2.5,2.5 -2.5,2.5 -2.5,2.5 -3.75,1.25 -2.5,2.5 -2.5,1.25 -3.75,1.25 -3.75,2.5 -2.5,0 -3.75,1.25 -3.75,1.25 -3.75,0 -2.5,0 -3.75,0 -3.75,0 -3.75,0 -3.75,-1.25 -2.5,-1.25 -3.75,0 -3.75,-2.5 -2.5,-1.25 -3.75,-1.25 -2.5,-2.5 -2.5,-1.25 -2.5,-2.5 -2.5,-2.5 -2.5,-2.5 -2.5,-2.5 -2.5,-2.5 -1.25,-3.75 -2.5,-2.5 -1.25,-3.75 -1.25,-3.75 -1.25,-2.5 -1.25,-3.75 0,-3.75 0,-2.5 -1.25,-3.75 0,-2.5 0,0 z M 3305,1750 l 0,-468.75 -56.25,0 0,-91.25 56.25,0 0,-85 0,-3.75 0,-8.75 1.25,-8.75 1.25,-8.75 2.5,-8.75 2.5,-8.75 3.75,-7.5 3.75,-8.75 3.75,-7.5 5,-7.5 5,-6.25 6.25,-7.5 6.25,-6.25 6.25,-6.25 6.25,-5 7.5,-5 7.5,-5 7.5,-5 7.5,-3.75 8.75,-2.5 8.75,-2.5 7.5,-2.5 8.75,-1.25 8.75,-1.25 8.75,-1.25 5,0 56.25,0 0,105 -48.75,0 -1.25,0 -3.75,0 -2.5,1.25 -2.5,0 -2.5,1.25 -2.5,1.25 -2.5,1.25 -1.25,1.25 -2.5,1.25 -2.5,1.25 -1.25,2.5 -2.5,1.25 -1.25,2.5 -1.25,1.25 -1.25,2.5 -1.25,2.5 -1.25,2.5 -1.25,2.5 0,2.5 0,2.5 0,2.5 0,1.25 0,85 83.75,0 0,91.25 -83.75,0 0,468.75 -112.5,0 0,0 z m 587.5,0 -112.5,0 0,-56.25 -1.25,3.75 -3.75,6.25 -5,6.25 -3.75,5 -5,6.25 -6.25,5 -5,5 -6.25,3.75 -5,5 -6.25,2.5 -6.25,3.75 -6.25,2.5 -7.5,2.5 -7.5,2.5 -6.25,1.25 -7.5,1.25 -7.5,1.25 -7.5,0 -7.5,0 -7.5,-1.25 -6.25,-1.25 -7.5,-1.25 -7.5,-2.5 -6.25,-1.25 -7.5,-3.75 -6.25,-2.5 -6.25,-3.75 -6.25,-5 -6.25,-3.75 -5,-5 -5,-5 -5,-5 -5,-6.25 -3.75,-6.25 -5,-6.25 -2.5,-6.25 -3.75,-6.25 -2.5,-7.5 -2.5,-6.25 -1.25,-7.5 -1.25,-7.5 -1.25,-7.5 0,-7.5 0,-2.5 0,-85 0,-3.75 0,-8.75 1.25,-8.75 1.25,-8.75 2.5,-8.75 2.5,-8.75 3.75,-7.5 3.75,-8.75 3.75,-7.5 5,-7.5 5,-6.25 6.25,-7.5 6.25,-6.25 6.25,-6.25 6.25,-5 7.5,-6.25 7.5,-3.75 7.5,-5 7.5,-3.75 8.75,-2.5 8.75,-2.5 7.5,-2.5 8.75,-2.5 8.75,0 8.75,-1.25 5,0 82.5,0 0,-62.5 0,-2.5 0,-3.75 0,-2.5 -1.25,-3.75 -1.25,-3.75 -1.25,-3.75 -1.25,-2.5 -1.25,-3.75 -1.25,-2.5 -2.5,-3.75 -1.25,-2.5 -2.5,-2.5 -2.5,-2.5 -2.5,-2.5 -2.5,-2.5 -2.5,-1.25 -3.75,-2.5 -2.5,-1.25 -3.75,-2.5 -3.75,-1.25 -2.5,0 -2.5,-1.25 -3.75,-1.25 -2.5,0 -3.75,0 -3.75,0 -3.75,0 -3.75,0 -3.75,1.25 -2.5,1.25 -3.75,0 -3.75,1.25 -2.5,2.5 -3.75,1.25 -2.5,2.5 -2.5,1.25 -2.5,2.5 -2.5,2.5 -2.5,2.5 -2.5,2.5 -2.5,2.5 -1.25,3.75 -2.5,2.5 -1.25,3.75 -1.25,2.5 -1.25,3.75 -1.25,3.75 0,3.75 0,2.5 -1.25,3.75 0,2.5 -111.25,0 0,-6.25 0,-10 1.25,-10 2.5,-11.25 2.5,-10 3.75,-10 3.75,-10 3.75,-8.75 5,-10 6.25,-8.75 6.25,-8.75 6.25,-7.5 7.5,-8.75 7.5,-6.25 8.75,-7.5 8.75,-6.25 8.75,-5 8.75,-5 10,-5 10,-3.75 10,-3.75 10,-2.5 10,-1.25 11.25,-1.25 10,-1.25 11.25,0 8.75,1.25 10,1.25 11.25,1.25 10,2.5 10,3.75 10,3.75 8.75,5 10,5 8.75,5 8.75,6.25 7.5,7.5 7.5,6.25 7.5,8.75 7.5,7.5 6.25,8.75 5,8.75 5,10 5,8.75 3.75,10 3.75,10 2.5,10 1.25,11.25 1.25,10 1.25,10 0,6.25 0,398.75 0,0 z m -112.5,-245 0,83.75 0,2.5 0,3.75 0,2.5 -1.25,3.75 -1.25,3.75 -1.25,2.5 -1.25,3.75 -1.25,3.75 -1.25,2.5 -2.5,3.75 -1.25,2.5 -2.5,2.5 -2.5,2.5 -2.5,2.5 -2.5,2.5 -2.5,1.25 -3.75,2.5 -2.5,1.25 -3.75,1.25 -3.75,2.5 -2.5,0 -2.5,1.25 -3.75,1.25 -2.5,0 -3.75,0 -3.75,0 -3.75,0 -3.75,0 -3.75,-1.25 -2.5,-1.25 -3.75,0 -3.75,-2.5 -2.5,-1.25 -3.75,-1.25 -2.5,-2.5 -2.5,-1.25 -2.5,-2.5 -2.5,-2.5 -2.5,-2.5 -2.5,-2.5 -2.5,-2.5 -1.25,-3.75 -2.5,-2.5 -1.25,-3.75 -1.25,-3.75 -1.25,-2.5 -1.25,-3.75 0,-3.75 0,-2.5 -1.25,-3.75 0,-2.5 0,-27.5 0,-2.5 1.25,-2.5 0,-3.75 0,-3.75 1.25,-3.75 1.25,-2.5 1.25,-3.75 1.25,-2.5 2.5,-3.75 1.25,-2.5 2.5,-3.75 2.5,-2.5 2.5,-2.5 2.5,-2.5 2.5,-2.5 2.5,-1.25 2.5,-2.5 3.75,-1.25 2.5,-1.25 3.75,-1.25 3.75,-1.25 2.5,-1.25 3.75,0 3.75,-1.25 3.75,0 1.25,0 55,0 0,0 z m 225,245 0,-785 111.25,0 0,281.25 2.5,-3.75 3.75,-6.25 3.75,-6.25 5,-5 5,-6.25 5,-5 6.25,-5 5,-3.75 6.25,-5 6.25,-3.75 6.25,-2.5 7.5,-2.5 6.25,-2.5 7.5,-2.5 7.5,-1.25 7.5,-1.25 6.25,-1.25 7.5,0 7.5,0 7.5,1.25 7.5,1.25 7.5,1.25 6.25,1.25 7.5,2.5 6.25,3.75 6.25,2.5 7.5,3.75 5,3.75 6.25,5 6.25,5 5,5 5,5 5,6.25 3.75,6.25 3.75,6.25 3.75,6.25 2.5,6.25 2.5,7.5 2.5,6.25 2.5,7.5 1.25,7.5 0,7.5 1.25,6.25 0,3.75 0,448.75 -112.5,0 0,-398.75 0,-2.5 0,-3.75 0,-2.5 -1.25,-3.75 -1.25,-3.75 -1.25,-3.75 -1.25,-2.5 -1.25,-3.75 -1.25,-2.5 -2.5,-3.75 -1.25,-2.5 -2.5,-2.5 -2.5,-2.5 -2.5,-2.5 -2.5,-2.5 -3.75,-1.25 -2.5,-2.5 -2.5,-1.25 -3.75,-2.5 -3.75,-1.25 -2.5,0 -3.75,-1.25 -3.75,-1.25 -3.75,0 -2.5,0 -3.75,0 -3.75,0 -3.75,0 -3.75,1.25 -2.5,1.25 -3.75,0 -3.75,1.25 -2.5,2.5 -3.75,1.25 -2.5,2.5 -2.5,1.25 -2.5,2.5 -3.75,2.5 -1.25,2.5 -2.5,2.5 -2.5,2.5 -1.25,3.75 -2.5,2.5 -1.25,3.75 -1.25,2.5 -1.25,3.75 -1.25,3.75 0,3.75 0,2.5 -1.25,3.75 0,2.5 0,398.75 -111.25,0 0,0 z m 448.75,0 0,-560 111.25,0 0,62.5 3.75,-3.75 7.5,-8.75 8.75,-7.5 7.5,-7.5 10,-6.25 8.75,-6.25 10,-6.25 10,-5 10,-5 10,-3.75 11.25,-3.75 11.25,-2.5 11.25,-1.25 11.25,-1.25 11.25,-1.25 5,0 0,117.5 -3.75,-1.25 -6.25,-1.25 -6.25,-1.25 -7.5,-1.25 -6.25,0 -7.5,0 -6.25,0 -6.25,1.25 -7.5,1.25 -6.25,1.25 -6.25,1.25 -7.5,2.5 -6.25,2.5 -5,3.75 -6.25,3.75 -6.25,3.75 -5,3.75 -5,5 -5,5 -5,5 -3.75,5 -3.75,5 -3.75,6.25 -3.75,6.25 -2.5,6.25 -2.5,6.25 -1.25,6.25 -2.5,7.5 -1.25,6.25 0,6.25 -1.25,7.5 0,2.5 0,343.75 -111.25,0 0,0 z m 301.25,0 0,-91.25 181.25,-371.25 -167.5,0 0,-97.5 293.75,0 0,83.75 -181.25,371.25 181.25,0 0,105 -307.5,0 0,0 z m 715,-161.25 0,6.25 -1.25,10 -1.25,10 -2.5,11.25 -2.5,10 -2.5,10 -3.75,10 -5,8.75 -5,10 -6.25,8.75 -6.25,8.75 -6.25,7.5 -7.5,7.5 -7.5,7.5 -7.5,7.5 -8.75,6.25 -8.75,5 -10,5 -8.75,5 -10,3.75 -10,3.75 -11.25,2.5 -10,1.25 -10,1.25 -11.25,1.25 -10,0 -11.25,-1.25 -10,-1.25 -10,-1.25 -10,-2.5 -10,-3.75 -10,-3.75 -10,-5 -8.75,-5 -10,-5 -7.5,-6.25 -8.75,-7.5 -7.5,-7.5 -7.5,-7.5 -6.25,-7.5 -6.25,-8.75 -6.25,-8.75 -5,-10 -3.75,-8.75 -5,-10 -2.5,-10 -2.5,-10 -2.5,-11.25 -1.25,-10 0,-10 0,-6.25 0,-237.5 0,-6.25 0,-10 1.25,-10 2.5,-11.25 2.5,-10 2.5,-10 5,-10 3.75,-8.75 5,-10 6.25,-8.75 6.25,-8.75 6.25,-7.5 7.5,-8.75 7.5,-6.25 8.75,-7.5 7.5,-6.25 10,-5 8.75,-5 10,-5 10,-3.75 10,-3.75 10,-2.5 10,-1.25 10,-1.25 11.25,-1.25 10,0 11.25,1.25 10,1.25 10,1.25 11.25,2.5 10,3.75 10,3.75 8.75,5 10,5 8.75,5 8.75,6.25 7.5,7.5 7.5,6.25 7.5,8.75 6.25,7.5 6.25,8.75 6.25,8.75 5,10 5,8.75 3.75,10 2.5,10 2.5,10 2.5,11.25 1.25,10 1.25,10 0,6.25 0,161.25 -225,0 0,76.25 0,2.5 0,3.75 1.25,2.5 0,3.75 1.25,3.75 1.25,2.5 1.25,3.75 1.25,3.75 1.25,2.5 2.5,3.75 2.5,2.5 1.25,2.5 2.5,2.5 2.5,2.5 3.75,2.5 2.5,1.25 2.5,2.5 3.75,1.25 2.5,1.25 3.75,2.5 3.75,0 2.5,1.25 3.75,1.25 3.75,0 3.75,0 3.75,0 2.5,0 3.75,0 3.75,-1.25 3.75,-1.25 2.5,0 3.75,-2.5 2.5,-1.25 3.75,-1.25 2.5,-2.5 3.75,-1.25 2.5,-2.5 2.5,-2.5 2.5,-2.5 2.5,-2.5 1.25,-2.5 2.5,-3.75 1.25,-2.5 1.25,-3.75 1.25,-3.75 1.25,-2.5 1.25,-3.75 0,-3.75 1.25,-2.5 0,-3.75 0,-2.5 112.5,0 0,0 z m -225,-167.5 0,-70 0,-2.5 0,-3.75 1.25,-2.5 0,-3.75 1.25,-3.75 1.25,-3.75 1.25,-2.5 1.25,-3.75 1.25,-2.5 2.5,-3.75 2.5,-2.5 1.25,-2.5 2.5,-2.5 2.5,-2.5 3.75,-2.5 2.5,-1.25 2.5,-2.5 3.75,-1.25 2.5,-2.5 3.75,-1.25 3.75,0 2.5,-1.25 3.75,-1.25 3.75,0 3.75,0 3.75,0 2.5,0 3.75,0 3.75,1.25 3.75,1.25 2.5,0 3.75,1.25 2.5,2.5 3.75,1.25 2.5,2.5 3.75,1.25 2.5,2.5 2.5,2.5 2.5,2.5 2.5,2.5 1.25,2.5 2.5,3.75 1.25,2.5 1.25,3.75 1.25,2.5 1.25,3.75 1.25,3.75 0,3.75 1.25,2.5 0,3.75 0,2.5 0,70 -112.5,0 0,0 z m 658.75,328.75 -111.25,0 0,-56.25 -2.5,3.75 -3.75,6.25 -3.75,6.25 -5,5 -5,6.25 -5,5 -5,5 -6.25,3.75 -6.25,5 -6.25,2.5 -6.25,3.75 -7.5,2.5 -6.25,2.5 -7.5,2.5 -7.5,1.25 -7.5,1.25 -6.25,1.25 -7.5,0 -7.5,0 -7.5,-1.25 -7.5,-1.25 -7.5,-1.25 -6.25,-2.5 -7.5,-1.25 -6.25,-3.75 -6.25,-2.5 -7.5,-3.75 -5,-5 -6.25,-3.75 -6.25,-5 -5,-5 -5,-5 -3.75,-6.25 -5,-6.25 -3.75,-6.25 -3.75,-6.25 -2.5,-6.25 -2.5,-7.5 -2.5,-6.25 -2.5,-7.5 -1.25,-7.5 0,-7.5 -1.25,-7.5 0,-2.5 0,-448.75 112.5,0 0,398.75 0,2.5 0,3.75 1.25,2.5 0,3.75 1.25,3.75 1.25,2.5 1.25,3.75 1.25,3.75 1.25,2.5 2.5,3.75 1.25,2.5 2.5,2.5 2.5,2.5 2.5,2.5 2.5,2.5 3.75,1.25 2.5,2.5 2.5,1.25 3.75,1.25 3.75,2.5 2.5,0 3.75,1.25 3.75,1.25 3.75,0 2.5,0 3.75,0 3.75,0 3.75,0 3.75,-1.25 2.5,-1.25 3.75,0 3.75,-2.5 2.5,-1.25 3.75,-1.25 2.5,-2.5 2.5,-1.25 2.5,-2.5 3.75,-2.5 1.25,-2.5 2.5,-2.5 2.5,-2.5 1.25,-3.75 2.5,-2.5 1.25,-3.75 1.25,-3.75 1.25,-2.5 1.25,-3.75 0,-3.75 0,-2.5 1.25,-3.75 0,-2.5 0,-398.75 111.25,0 0,560 0,0 z m 225,63.75 0,1.25 0,3.75 0,3.75 1.25,3.75 1.25,2.5 1.25,3.75 1.25,3.75 1.25,2.5 1.25,3.75 2.5,2.5 1.25,2.5 2.5,2.5 2.5,2.5 2.5,2.5 2.5,2.5 3.75,2.5 2.5,1.25 2.5,2.5 3.75,1.25 3.75,1.25 2.5,1.25 3.75,1.25 3.75,0 3.75,0 2.5,1.25 3.75,0 3.75,-1.25 3.75,0 3.75,0 2.5,-1.25 3.75,-1.25 3.75,-1.25 2.5,-1.25 3.75,-2.5 2.5,-1.25 2.5,-2.5 2.5,-2.5 2.5,-2.5 2.5,-2.5 2.5,-2.5 2.5,-2.5 1.25,-2.5 2.5,-3.75 1.25,-2.5 1.25,-3.75 1.25,-3.75 1.25,-2.5 0,-3.75 0,-3.75 1.25,-3.75 0,-1.25 0,-120 -2.5,3.75 -3.75,6.25 -3.75,6.25 -5,5 -5,6.25 -5,5 -6.25,5 -5,3.75 -6.25,5 -6.25,2.5 -6.25,3.75 -7.5,2.5 -6.25,2.5 -7.5,2.5 -7.5,1.25 -7.5,1.25 -6.25,1.25 -7.5,0 -7.5,0 -7.5,-1.25 -7.5,-1.25 -7.5,-1.25 -6.25,-2.5 -7.5,-1.25 -6.25,-3.75 -7.5,-2.5 -6.25,-3.75 -6.25,-5 -5,-3.75 -6.25,-5 -5,-5 -5,-5 -5,-6.25 -3.75,-6.25 -3.75,-6.25 -3.75,-6.25 -2.5,-6.25 -2.5,-7.5 -2.5,-6.25 -2.5,-7.5 -1.25,-7.5 0,-7.5 -1.25,-7.5 0,-2.5 0,-337.5 0,-3.75 1.25,-6.25 0,-7.5 1.25,-7.5 2.5,-7.5 2.5,-6.25 2.5,-7.5 2.5,-6.25 3.75,-6.25 3.75,-6.25 3.75,-6.25 5,-6.25 5,-5 5,-5 6.25,-5 5,-5 6.25,-3.75 6.25,-3.75 7.5,-2.5 6.25,-3.75 7.5,-2.5 6.25,-1.25 7.5,-1.25 7.5,-1.25 7.5,-1.25 7.5,0 7.5,0 6.25,1.25 7.5,1.25 7.5,1.25 7.5,2.5 6.25,2.5 7.5,2.5 6.25,2.5 6.25,3.75 6.25,5 5,3.75 6.25,5 5,5 5,6.25 5,5 3.75,6.25 3.75,6.25 2.5,3.75 0,-56.25 111.25,0 0,623.75 0,5 0,10 -1.25,11.25 -2.5,10 -2.5,10 -3.75,10 -3.75,10 -3.75,10 -5,8.75 -6.25,8.75 -6.25,8.75 -6.25,8.75 -7.5,7.5 -7.5,7.5 -8.75,6.25 -8.75,6.25 -8.75,6.25 -8.75,5 -10,3.75 -10,3.75 -10,3.75 -10,2.5 -10,2.5 -11.25,1.25 -10,0 -10,0 -11.25,0 -10,-1.25 -11.25,-2.5 -10,-2.5 -10,-3.75 -10,-3.75 -8.75,-3.75 -10,-5 -8.75,-6.25 -8.75,-6.25 -7.5,-6.25 -7.5,-7.5 -7.5,-7.5 -7.5,-8.75 -6.25,-8.75 -5,-8.75 -5,-8.75 -5,-10 -3.75,-10 -3.75,-10 -2.5,-10 -1.25,-10 -1.25,-11.25 -1.25,-10 0,-5 112.5,0 0,0 z m 112.5,-225 0,2.5 -1.25,3.75 0,2.5 0,3.75 -1.25,3.75 -1.25,2.5 -1.25,3.75 -1.25,3.75 -2.5,2.5 -1.25,3.75 -2.5,2.5 -2.5,2.5 -2.5,2.5 -2.5,2.5 -2.5,2.5 -2.5,1.25 -2.5,2.5 -3.75,1.25 -2.5,1.25 -3.75,2.5 -3.75,0 -2.5,1.25 -3.75,1.25 -3.75,0 -3.75,0 -3.75,0 -2.5,0 -3.75,0 -3.75,-1.25 -3.75,-1.25 -2.5,0 -3.75,-2.5 -3.75,-1.25 -2.5,-1.25 -2.5,-2.5 -3.75,-1.25 -2.5,-2.5 -2.5,-2.5 -2.5,-2.5 -2.5,-2.5 -1.25,-2.5 -2.5,-3.75 -1.25,-2.5 -1.25,-3.75 -1.25,-3.75 -1.25,-2.5 -1.25,-3.75 -1.25,-3.75 0,-2.5 0,-3.75 0,-2.5 0,-237.5 0,-2.5 0,-3.75 0,-2.5 1.25,-3.75 1.25,-3.75 1.25,-3.75 1.25,-2.5 1.25,-3.75 1.25,-2.5 2.5,-3.75 1.25,-2.5 2.5,-2.5 2.5,-2.5 2.5,-2.5 2.5,-2.5 3.75,-1.25 2.5,-2.5 2.5,-1.25 3.75,-2.5 3.75,-1.25 2.5,0 3.75,-1.25 3.75,-1.25 3.75,0 2.5,0 3.75,0 3.75,0 3.75,0 3.75,1.25 2.5,1.25 3.75,0 3.75,1.25 2.5,2.5 3.75,1.25 2.5,2.5 2.5,1.25 2.5,2.5 2.5,2.5 2.5,2.5 2.5,2.5 2.5,2.5 1.25,3.75 2.5,2.5 1.25,3.75 1.25,2.5 1.25,3.75 1.25,3.75 0,3.75 0,2.5 1.25,3.75 0,2.5 0,237.5 0,0 z m 560,0 0,6.25 0,10 -1.25,10 -2.5,11.25 -2.5,10 -3.75,10 -3.75,10 -3.75,8.75 -5,10 -6.25,8.75 -6.25,8.75 -6.25,7.5 -7.5,7.5 -7.5,7.5 -8.75,7.5 -8.75,6.25 -8.75,5 -8.75,5 -10,5 -10,3.75 -10,3.75 -10,2.5 -10,1.25 -11.25,1.25 -10,1.25 -11.25,0 -10,-1.25 -10,-1.25 -11.25,-1.25 -10,-2.5 -10,-3.75 -10,-3.75 -8.75,-5 -10,-5 -8.75,-5 -8.75,-6.25 -7.5,-7.5 -8.75,-7.5 -6.25,-7.5 -7.5,-7.5 -6.25,-8.75 -5,-8.75 -5,-10 -5,-8.75 -3.75,-10 -3.75,-10 -2.5,-10 -1.25,-11.25 -1.25,-10 -1.25,-10 0,-6.25 0,-237.5 0,-6.25 1.25,-10 1.25,-10 1.25,-11.25 2.5,-10 3.75,-10 3.75,-10 5,-8.75 5,-10 5,-8.75 6.25,-8.75 7.5,-7.5 6.25,-8.75 8.75,-6.25 7.5,-7.5 8.75,-6.25 8.75,-5 10,-5 8.75,-5 10,-3.75 10,-3.75 10,-2.5 11.25,-1.25 10,-1.25 10,-1.25 11.25,0 10,1.25 11.25,1.25 10,1.25 10,2.5 10,3.75 10,3.75 10,5 8.75,5 8.75,5 8.75,6.25 8.75,7.5 7.5,6.25 7.5,8.75 6.25,7.5 6.25,8.75 6.25,8.75 5,10 3.75,8.75 3.75,10 3.75,10 2.5,10 2.5,11.25 1.25,10 0,10 0,6.25 0,161.25 -223.75,0 0,76.25 0,2.5 0,3.75 0,2.5 1.25,3.75 1.25,3.75 0,2.5 1.25,3.75 2.5,3.75 1.25,2.5 2.5,3.75 1.25,2.5 2.5,2.5 2.5,2.5 2.5,2.5 2.5,2.5 2.5,1.25 3.75,2.5 2.5,1.25 3.75,1.25 2.5,2.5 3.75,0 3.75,1.25 3.75,1.25 2.5,0 3.75,0 3.75,0 3.75,0 3.75,0 2.5,-1.25 3.75,-1.25 3.75,0 2.5,-2.5 3.75,-1.25 2.5,-1.25 3.75,-2.5 2.5,-1.25 2.5,-2.5 2.5,-2.5 2.5,-2.5 2.5,-2.5 2.5,-2.5 1.25,-3.75 2.5,-2.5 1.25,-3.75 1.25,-3.75 1.25,-2.5 0,-3.75 1.25,-3.75 0,-2.5 0,-3.75 1.25,-2.5 111.25,0 0,0 z m -223.75,-167.5 0,-70 0,-2.5 0,-3.75 0,-2.5 1.25,-3.75 1.25,-3.75 0,-3.75 1.25,-2.5 2.5,-3.75 1.25,-2.5 2.5,-3.75 1.25,-2.5 2.5,-2.5 2.5,-2.5 2.5,-2.5 2.5,-2.5 2.5,-1.25 3.75,-2.5 2.5,-1.25 3.75,-2.5 2.5,-1.25 3.75,0 3.75,-1.25 3.75,-1.25 2.5,0 3.75,0 3.75,0 3.75,0 3.75,0 2.5,1.25 3.75,1.25 3.75,0 2.5,1.25 3.75,2.5 2.5,1.25 3.75,2.5 2.5,1.25 2.5,2.5 2.5,2.5 2.5,2.5 2.5,2.5 2.5,2.5 1.25,3.75 2.5,2.5 1.25,3.75 1.25,2.5 1.25,3.75 0,3.75 1.25,3.75 0,2.5 0,3.75 1.25,2.5 0,70 -112.5,0 z"
       inkscape:connector-curvature="0" />
    <path
       id="7"
       style="fill:#000000;fill-opacity:1;fill-rule:evenodd;stroke:none"
       d="m 1535,3313.75 -133.75,-561.25 120,0 70,350 62.5,-350 83.75,0 63.75,350 70,-350 118.75,0 -132.5,561.25 -98.75,0 -62.5,-337.5 -63.75,337.5 -97.5,0 0,0 z m 833.75,0 -112.5,0 0,-56.25 -1.25,2.5 -3.75,6.25 -5,6.25 -3.75,6.25 -5,5 -5,5 -6.25,5 -5,3.75 -6.25,5 -6.25,3.75 -7.5,2.5 -6.25,3.75 -7.5,2.5 -6.25,1.25 -7.5,1.25 -7.5,1.25 -7.5,1.25 -7.5,0 -6.25,0 -7.5,-1.25 -7.5,0 -7.5,-2.5 -7.5,-1.25 -6.25,-2.5 -6.25,-3.75 -7.5,-2.5 -6.25,-3.75 -6.25,-3.75 -5,-5 -6.25,-5 -5,-5 -5,-5 -5,-6.25 -3.75,-5 -3.75,-6.25 -3.75,-7.5 -3.75,-6.25 -2.5,-6.25 -1.25,-7.5 -2.5,-7.5 -1.25,-7.5 -1.25,-6.25 0,-7.5 0,-3.75 0,-85 0,-3.75 0,-8.75 1.25,-8.75 2.5,-8.75 1.25,-8.75 3.75,-7.5 2.5,-8.75 3.75,-7.5 5,-8.75 3.75,-7.5 5,-6.25 6.25,-7.5 6.25,-6.25 6.25,-6.25 6.25,-5 7.5,-5 7.5,-5 7.5,-3.75 8.75,-3.75 7.5,-3.75 8.75,-2.5 8.75,-2.5 8.75,-1.25 8.75,-1.25 8.75,-1.25 3.75,0 83.75,0 0,-62.5 0,-2.5 0,-2.5 0,-3.75 -1.25,-3.75 0,-3.75 -1.25,-2.5 -1.25,-3.75 -2.5,-3.75 -1.25,-2.5 -1.25,-2.5 -2.5,-3.75 -2.5,-2.5 -2.5,-2.5 -2.5,-2.5 -2.5,-2.5 -2.5,-1.25 -3.75,-2.5 -2.5,-1.25 -3.75,-1.25 -2.5,-1.25 -3.75,-1.25 -3.75,-1.25 -2.5,0 -3.75,-1.25 -3.75,0 -3.75,0 -3.75,0 -3.75,1.25 -2.5,0 -3.75,1.25 -3.75,1.25 -2.5,1.25 -3.75,1.25 -2.5,1.25 -3.75,2.5 -2.5,1.25 -2.5,2.5 -2.5,2.5 -2.5,2.5 -2.5,2.5 -2.5,3.75 -1.25,2.5 -1.25,2.5 -2.5,3.75 -1.25,3.75 -1.25,2.5 0,3.75 -1.25,3.75 0,3.75 0,2.5 0,2.5 -112.5,0 0,-5 1.25,-11.25 1.25,-10 1.25,-10 2.5,-11.25 3.75,-10 3.75,-10 5,-8.75 5,-10 5,-8.75 6.25,-8.75 7.5,-7.5 6.25,-7.5 8.75,-7.5 7.5,-6.25 8.75,-6.25 8.75,-6.25 8.75,-5 10,-5 10,-3.75 10,-2.5 10,-2.5 10,-2.5 11.25,-1.25 10,-1.25 11.25,0 10,1.25 11.25,1.25 10,2.5 10,2.5 10,2.5 10,3.75 10,5 8.75,5 8.75,6.25 8.75,6.25 8.75,6.25 7.5,7.5 6.25,7.5 7.5,7.5 6.25,8.75 5,8.75 5,10 5,8.75 3.75,10 3.75,10 2.5,11.25 1.25,10 2.5,10 0,11.25 0,5 0,400 0,0 z m -112.5,-246.25 0,85 0,1.25 0,3.75 0,3.75 -1.25,2.5 0,3.75 -1.25,3.75 -1.25,2.5 -2.5,3.75 -1.25,2.5 -1.25,3.75 -2.5,2.5 -2.5,2.5 -2.5,2.5 -2.5,2.5 -2.5,2.5 -2.5,2.5 -3.75,1.25 -2.5,2.5 -3.75,1.25 -2.5,1.25 -3.75,1.25 -3.75,0 -2.5,1.25 -3.75,0 -3.75,0 -3.75,0 -3.75,0 -3.75,0 -2.5,-1.25 -3.75,0 -3.75,-1.25 -2.5,-1.25 -3.75,-1.25 -2.5,-2.5 -3.75,-1.25 -2.5,-2.5 -2.5,-2.5 -2.5,-2.5 -2.5,-2.5 -2.5,-2.5 -2.5,-2.5 -1.25,-3.75 -1.25,-2.5 -2.5,-3.75 -1.25,-2.5 -1.25,-3.75 0,-3.75 -1.25,-2.5 0,-3.75 0,-3.75 0,-1.25 0,-28.75 0,-1.25 0,-3.75 0,-3.75 1.25,-3.75 0,-2.5 1.25,-3.75 1.25,-3.75 2.5,-2.5 1.25,-3.75 1.25,-2.5 2.5,-2.5 2.5,-3.75 2.5,-2.5 2.5,-2.5 2.5,-1.25 2.5,-2.5 3.75,-2.5 2.5,-1.25 3.75,-1.25 2.5,-1.25 3.75,-1.25 3.75,-1.25 2.5,0 3.75,-1.25 3.75,0 2.5,0 55,0 0,0 z M 2060,2640 l 0,-112.5 112.5,0 0,112.5 -112.5,0 0,0 z m 168.75,0 0,-112.5 112.5,0 0,112.5 -112.5,0 0,0 z m 252.5,673.75 0,-786.25 112.5,0 0,281.25 1.25,-3.75 3.75,-6.25 3.75,-6.25 5,-5 5,-6.25 5,-5 6.25,-5 5,-3.75 6.25,-3.75 6.25,-3.75 7.5,-3.75 6.25,-2.5 7.5,-2.5 6.25,-2.5 7.5,-1.25 7.5,-1.25 7.5,-1.25 7.5,0 6.25,0 7.5,1.25 7.5,1.25 7.5,1.25 6.25,2.5 7.5,2.5 6.25,2.5 7.5,3.75 6.25,2.5 6.25,5 5,3.75 6.25,5 5,5 5,6.25 5,5 3.75,6.25 3.75,6.25 3.75,6.25 2.5,6.25 3.75,7.5 1.25,6.25 2.5,7.5 1.25,7.5 1.25,7.5 0,7.5 0,3.75 0,448.75 -112.5,0 0,-400 0,-2.5 0,-2.5 0,-3.75 -1.25,-3.75 0,-3.75 -1.25,-2.5 -1.25,-3.75 -2.5,-3.75 -1.25,-2.5 -1.25,-2.5 -2.5,-3.75 -2.5,-2.5 -2.5,-2.5 -2.5,-2.5 -2.5,-2.5 -2.5,-1.25 -3.75,-2.5 -2.5,-1.25 -3.75,-1.25 -2.5,-1.25 -3.75,-1.25 -3.75,-1.25 -3.75,0 -2.5,-1.25 -3.75,0 -3.75,0 -3.75,0 -3.75,1.25 -2.5,0 -3.75,1.25 -3.75,1.25 -2.5,1.25 -3.75,1.25 -2.5,1.25 -3.75,2.5 -2.5,1.25 -2.5,2.5 -2.5,2.5 -2.5,2.5 -2.5,2.5 -2.5,3.75 -1.25,2.5 -2.5,2.5 -1.25,3.75 -1.25,3.75 -1.25,2.5 0,3.75 -1.25,3.75 0,3.75 0,2.5 0,2.5 0,400 -112.5,0 0,0 z m 448.75,0 0,-561.25 111.25,0 0,63.75 3.75,-5 7.5,-8.75 8.75,-7.5 8.75,-7.5 8.75,-6.25 8.75,-6.25 10,-6.25 10,-5 10,-5 11.25,-3.75 10,-2.5 11.25,-2.5 11.25,-2.5 11.25,-1.25 11.25,-1.25 5,0 0,117.5 -2.5,0 -7.5,-2.5 -6.25,-1.25 -6.25,-1.25 -7.5,0 -6.25,0 -7.5,0 -6.25,1.25 -7.5,1.25 -6.25,1.25 -6.25,2.5 -6.25,1.25 -6.25,3.75 -6.25,2.5 -6.25,3.75 -5,3.75 -6.25,3.75 -5,5 -5,5 -3.75,5 -5,5 -3.75,6.25 -3.75,5 -2.5,6.25 -3.75,6.25 -2.5,6.25 -1.25,6.25 -1.25,7.5 -1.25,6.25 -1.25,7.5 0,6.25 -1.25,3.75 0,343.75 -111.25,0 0,0 z m 637.5,-161.25 0,5 0,10 -2.5,11.25 -1.25,10 -2.5,10 -3.75,10 -3.75,10 -5,10 -5,8.75 -5,8.75 -6.25,8.75 -7.5,8.75 -6.25,7.5 -7.5,7.5 -8.75,6.25 -8.75,6.25 -8.75,5 -8.75,5 -10,5 -10,3.75 -10,3.75 -10,2.5 -10,1.25 -11.25,2.5 -10,0 -11.25,0 -10,0 -11.25,-2.5 -10,-1.25 -10,-2.5 -10,-3.75 -10,-3.75 -10,-5 -8.75,-5 -8.75,-5 -8.75,-6.25 -8.75,-6.25 -7.5,-7.5 -6.25,-7.5 -7.5,-8.75 -6.25,-8.75 -5,-8.75 -5,-8.75 -5,-10 -3.75,-10 -3.75,-10 -2.5,-10 -1.25,-10 -1.25,-11.25 -1.25,-10 0,-5 0,-238.75 0,-5 1.25,-11.25 1.25,-10 1.25,-10 2.5,-11.25 3.75,-10 3.75,-10 5,-8.75 5,-10 5,-8.75 6.25,-8.75 7.5,-7.5 6.25,-7.5 7.5,-7.5 8.75,-6.25 8.75,-6.25 8.75,-6.25 8.75,-5 10,-5 10,-3.75 10,-2.5 10,-2.5 10,-2.5 11.25,-1.25 10,-1.25 11.25,0 10,1.25 11.25,1.25 10,2.5 10,2.5 10,2.5 10,3.75 10,5 8.75,5 8.75,6.25 8.75,6.25 8.75,6.25 7.5,7.5 6.25,7.5 7.5,7.5 6.25,8.75 5,8.75 5,10 5,8.75 3.75,10 3.75,10 2.5,11.25 1.25,10 2.5,10 0,11.25 0,5 0,161.25 -223.75,0 0,77.5 0,1.25 0,3.75 0,3.75 1.25,2.5 0,3.75 1.25,3.75 1.25,2.5 2.5,3.75 1.25,2.5 1.25,3.75 2.5,2.5 2.5,2.5 2.5,2.5 2.5,2.5 2.5,2.5 2.5,2.5 3.75,1.25 2.5,2.5 3.75,1.25 2.5,1.25 3.75,1.25 3.75,0 2.5,1.25 3.75,0 3.75,0 3.75,0 3.75,0 3.75,0 2.5,-1.25 3.75,0 3.75,-1.25 2.5,-1.25 3.75,-1.25 2.5,-2.5 3.75,-1.25 2.5,-2.5 2.5,-2.5 2.5,-2.5 2.5,-2.5 2.5,-2.5 2.5,-2.5 1.25,-3.75 1.25,-2.5 2.5,-3.75 1.25,-2.5 1.25,-3.75 0,-3.75 1.25,-2.5 0,-3.75 0,-3.75 0,-1.25 112.5,0 0,0 z m -223.75,-168.75 0,-70 0,-2.5 0,-2.5 0,-3.75 1.25,-3.75 0,-3.75 1.25,-2.5 1.25,-3.75 2.5,-3.75 1.25,-2.5 1.25,-2.5 2.5,-3.75 2.5,-2.5 2.5,-2.5 2.5,-2.5 2.5,-2.5 2.5,-1.25 3.75,-2.5 2.5,-1.25 3.75,-1.25 2.5,-1.25 3.75,-1.25 3.75,-1.25 2.5,0 3.75,-1.25 3.75,0 3.75,0 3.75,0 3.75,1.25 2.5,0 3.75,1.25 3.75,1.25 2.5,1.25 3.75,1.25 2.5,1.25 3.75,2.5 2.5,1.25 2.5,2.5 2.5,2.5 2.5,2.5 2.5,2.5 2.5,3.75 1.25,2.5 1.25,2.5 2.5,3.75 1.25,3.75 1.25,2.5 0,3.75 1.25,3.75 0,3.75 0,2.5 0,2.5 0,70 -111.25,0 0,0 z m 322.5,330 0,-561.25 110,0 0,56.25 2.5,-3.75 3.75,-6.25 3.75,-6.25 5,-5 5,-6.25 5,-5 6.25,-5 5,-3.75 6.25,-3.75 6.25,-3.75 6.25,-3.75 7.5,-2.5 6.25,-2.5 7.5,-2.5 7.5,-1.25 7.5,-1.25 6.25,-1.25 7.5,0 7.5,0 7.5,1.25 7.5,1.25 7.5,1.25 6.25,2.5 7.5,2.5 6.25,2.5 6.25,3.75 7.5,2.5 5,5 6.25,3.75 6.25,5 5,5 5,6.25 5,5 3.75,6.25 3.75,6.25 3.75,6.25 2.5,6.25 2.5,7.5 2.5,6.25 2.5,7.5 1.25,7.5 0,7.5 1.25,7.5 0,3.75 0,448.75 -112.5,0 0,-400 0,-2.5 0,-2.5 0,-3.75 -1.25,-3.75 -1.25,-3.75 -1.25,-2.5 -1.25,-3.75 -1.25,-3.75 -1.25,-2.5 -2.5,-2.5 -1.25,-3.75 -2.5,-2.5 -2.5,-2.5 -2.5,-2.5 -2.5,-2.5 -3.75,-1.25 -2.5,-2.5 -2.5,-1.25 -3.75,-1.25 -3.75,-1.25 -2.5,-1.25 -3.75,-1.25 -3.75,0 -3.75,-1.25 -2.5,0 -3.75,0 -3.75,0 -3.75,1.25 -3.75,0 -2.5,1.25 -3.75,1.25 -3.75,1.25 -2.5,1.25 -3.75,1.25 -2.5,2.5 -2.5,1.25 -2.5,2.5 -3.75,2.5 -1.25,2.5 -2.5,2.5 -2.5,3.75 -1.25,2.5 -2.5,2.5 -1.25,3.75 -1.25,3.75 -1.25,2.5 -1.25,3.75 0,3.75 0,3.75 -1.25,2.5 0,2.5 0,400 -110,0 0,0 z m 770,0 -112.5,0 0,-56.25 -2.5,2.5 -3.75,6.25 -3.75,6.25 -5,6.25 -5,5 -5,5 -5,5 -6.25,3.75 -6.25,5 -6.25,3.75 -6.25,2.5 -7.5,3.75 -6.25,2.5 -7.5,1.25 -7.5,1.25 -6.25,1.25 -7.5,1.25 -7.5,0 -7.5,0 -7.5,-1.25 -7.5,0 -6.25,-2.5 -7.5,-1.25 -7.5,-2.5 -6.25,-3.75 -6.25,-2.5 -6.25,-3.75 -6.25,-3.75 -6.25,-5 -6.25,-5 -5,-5 -5,-5 -3.75,-6.25 -5,-5 -3.75,-6.25 -3.75,-7.5 -2.5,-6.25 -2.5,-6.25 -2.5,-7.5 -1.25,-7.5 -2.5,-7.5 0,-6.25 -1.25,-7.5 0,-3.75 0,-336.25 0,-3.75 1.25,-7.5 0,-7.5 2.5,-7.5 1.25,-7.5 2.5,-6.25 2.5,-7.5 2.5,-6.25 3.75,-6.25 3.75,-6.25 5,-6.25 3.75,-5 5,-6.25 5,-5 6.25,-5 6.25,-3.75 6.25,-5 6.25,-2.5 6.25,-3.75 6.25,-2.5 7.5,-2.5 7.5,-2.5 6.25,-1.25 7.5,-1.25 7.5,-1.25 7.5,0 7.5,0 7.5,1.25 6.25,1.25 7.5,1.25 7.5,2.5 6.25,2.5 7.5,2.5 6.25,3.75 6.25,3.75 6.25,3.75 6.25,3.75 5,5 5,5 5,6.25 5,5 3.75,6.25 3.75,6.25 2.5,3.75 0,-281.25 112.5,0 0,786.25 0,0 z m -112.5,-161.25 0,1.25 0,3.75 -1.25,3.75 0,2.5 -1.25,3.75 -1.25,3.75 -1.25,2.5 -1.25,3.75 -1.25,2.5 -2.5,3.75 -2.5,2.5 -1.25,2.5 -2.5,2.5 -2.5,2.5 -3.75,2.5 -2.5,2.5 -2.5,1.25 -3.75,2.5 -2.5,1.25 -3.75,1.25 -3.75,1.25 -2.5,0 -3.75,1.25 -3.75,0 -3.75,0 -2.5,0 -3.75,0 -3.75,0 -3.75,-1.25 -3.75,0 -2.5,-1.25 -3.75,-1.25 -2.5,-1.25 -3.75,-2.5 -2.5,-1.25 -3.75,-2.5 -2.5,-2.5 -2.5,-2.5 -2.5,-2.5 -2.5,-2.5 -1.25,-2.5 -2.5,-3.75 -1.25,-2.5 -1.25,-3.75 -1.25,-2.5 -1.25,-3.75 -1.25,-3.75 0,-2.5 -1.25,-3.75 0,-3.75 0,-1.25 0,-238.75 0,-2.5 0,-2.5 1.25,-3.75 0,-3.75 1.25,-3.75 1.25,-2.5 1.25,-3.75 1.25,-3.75 1.25,-2.5 2.5,-2.5 1.25,-3.75 2.5,-2.5 2.5,-2.5 2.5,-2.5 2.5,-2.5 3.75,-1.25 2.5,-2.5 3.75,-1.25 2.5,-1.25 3.75,-1.25 2.5,-1.25 3.75,-1.25 3.75,0 3.75,-1.25 3.75,0 2.5,0 3.75,0 3.75,1.25 3.75,0 2.5,1.25 3.75,1.25 3.75,1.25 2.5,1.25 3.75,1.25 2.5,2.5 2.5,1.25 3.75,2.5 2.5,2.5 2.5,2.5 1.25,2.5 2.5,3.75 2.5,2.5 1.25,2.5 1.25,3.75 1.25,3.75 1.25,2.5 1.25,3.75 0,3.75 1.25,3.75 0,2.5 0,2.5 0,238.75 0,0 z m 897.5,161.25 -112.5,0 0,-56.25 -2.5,2.5 -3.75,6.25 -3.75,6.25 -5,6.25 -5,5 -5,5 -5,5 -6.25,3.75 -6.25,5 -6.25,3.75 -6.25,2.5 -7.5,3.75 -6.25,2.5 -7.5,1.25 -7.5,1.25 -6.25,1.25 -7.5,1.25 -7.5,0 -7.5,0 -7.5,-1.25 -7.5,0 -6.25,-2.5 -7.5,-1.25 -7.5,-2.5 -6.25,-3.75 -6.25,-2.5 -6.25,-3.75 -6.25,-3.75 -6.25,-5 -5,-5 -6.25,-5 -5,-5 -3.75,-6.25 -5,-5 -3.75,-6.25 -3.75,-7.5 -2.5,-6.25 -2.5,-6.25 -2.5,-7.5 -1.25,-7.5 -1.25,-7.5 -1.25,-6.25 -1.25,-7.5 0,-3.75 0,-336.25 0,-3.75 1.25,-7.5 1.25,-7.5 1.25,-7.5 1.25,-7.5 2.5,-6.25 2.5,-7.5 2.5,-6.25 3.75,-6.25 3.75,-6.25 5,-6.25 3.75,-5 5,-6.25 6.25,-5 5,-5 6.25,-3.75 6.25,-5 6.25,-2.5 6.25,-3.75 6.25,-2.5 7.5,-2.5 7.5,-2.5 6.25,-1.25 7.5,-1.25 7.5,-1.25 7.5,0 7.5,0 7.5,1.25 6.25,1.25 7.5,1.25 7.5,2.5 6.25,2.5 7.5,2.5 6.25,3.75 6.25,3.75 6.25,3.75 6.25,3.75 5,5 5,5 5,6.25 5,5 3.75,6.25 3.75,6.25 2.5,3.75 0,-281.25 112.5,0 0,786.25 0,0 z m -112.5,-161.25 0,1.25 0,3.75 -1.25,3.75 0,2.5 -1.25,3.75 -1.25,3.75 -1.25,2.5 -1.25,3.75 -1.25,2.5 -2.5,3.75 -2.5,2.5 -1.25,2.5 -2.5,2.5 -2.5,2.5 -2.5,2.5 -3.75,2.5 -2.5,1.25 -3.75,2.5 -2.5,1.25 -3.75,1.25 -2.5,1.25 -3.75,0 -3.75,1.25 -3.75,0 -3.75,0 -2.5,0 -3.75,0 -3.75,0 -3.75,-1.25 -2.5,0 -3.75,-1.25 -3.75,-1.25 -2.5,-1.25 -3.75,-2.5 -2.5,-1.25 -2.5,-2.5 -3.75,-2.5 -2.5,-2.5 -2.5,-2.5 -1.25,-2.5 -2.5,-2.5 -2.5,-3.75 -1.25,-2.5 -1.25,-3.75 -1.25,-2.5 -1.25,-3.75 -1.25,-3.75 0,-2.5 -1.25,-3.75 0,-3.75 0,-1.25 0,-238.75 0,-2.5 0,-2.5 1.25,-3.75 0,-3.75 1.25,-3.75 1.25,-2.5 1.25,-3.75 1.25,-3.75 1.25,-2.5 2.5,-2.5 2.5,-3.75 1.25,-2.5 2.5,-2.5 2.5,-2.5 3.75,-2.5 2.5,-1.25 2.5,-2.5 3.75,-1.25 2.5,-1.25 3.75,-1.25 3.75,-1.25 2.5,-1.25 3.75,0 3.75,-1.25 3.75,0 2.5,0 3.75,0 3.75,1.25 3.75,0 3.75,1.25 2.5,1.25 3.75,1.25 2.5,1.25 3.75,1.25 2.5,2.5 3.75,1.25 2.5,2.5 2.5,2.5 2.5,2.5 1.25,2.5 2.5,3.75 2.5,2.5 1.25,2.5 1.25,3.75 1.25,3.75 1.25,2.5 1.25,3.75 0,3.75 1.25,3.75 0,2.5 0,2.5 0,238.75 0,0 z m 561.25,0 -1.25,5 0,10 -1.25,11.25 -2.5,10 -2.5,10 -2.5,10 -5,10 -3.75,10 -5,8.75 -6.25,8.75 -6.25,8.75 -6.25,8.75 -7.5,7.5 -7.5,7.5 -8.75,6.25 -7.5,6.25 -10,5 -8.75,5 -10,5 -8.75,3.75 -11.25,3.75 -10,2.5 -10,1.25 -10,2.5 -11.25,0 -10,0 -11.25,0 -10,-2.5 -10,-1.25 -11.25,-2.5 -10,-3.75 -10,-3.75 -8.75,-5 -10,-5 -8.75,-5 -8.75,-6.25 -7.5,-6.25 -7.5,-7.5 -7.5,-7.5 -6.25,-8.75 -6.25,-8.75 -6.25,-8.75 -5,-8.75 -5,-10 -3.75,-10 -2.5,-10 -2.5,-10 -2.5,-10 -1.25,-11.25 -1.25,-10 0,-5 0,-238.75 0,-5 1.25,-11.25 1.25,-10 2.5,-10 2.5,-11.25 2.5,-10 3.75,-10 5,-8.75 5,-10 6.25,-8.75 6.25,-8.75 6.25,-7.5 7.5,-7.5 7.5,-7.5 7.5,-6.25 8.75,-6.25 8.75,-6.25 10,-5 8.75,-5 10,-3.75 10,-2.5 11.25,-2.5 10,-2.5 10,-1.25 11.25,-1.25 10,0 11.25,1.25 10,1.25 10,2.5 10,2.5 11.25,2.5 8.75,3.75 10,5 8.75,5 10,6.25 7.5,6.25 8.75,6.25 7.5,7.5 7.5,7.5 6.25,7.5 6.25,8.75 6.25,8.75 5,10 3.75,8.75 5,10 2.5,10 2.5,11.25 2.5,10 1.25,10 0,11.25 1.25,5 0,161.25 -225,0 0,77.5 0,1.25 0,3.75 1.25,3.75 0,2.5 1.25,3.75 1.25,3.75 1.25,2.5 1.25,3.75 1.25,2.5 2.5,3.75 1.25,2.5 2.5,2.5 2.5,2.5 2.5,2.5 2.5,2.5 3.75,2.5 2.5,1.25 3.75,2.5 2.5,1.25 3.75,1.25 2.5,1.25 3.75,0 3.75,1.25 3.75,0 3.75,0 2.5,0 3.75,0 3.75,0 3.75,-1.25 2.5,0 3.75,-1.25 3.75,-1.25 2.5,-1.25 3.75,-2.5 2.5,-1.25 2.5,-2.5 3.75,-2.5 2.5,-2.5 2.5,-2.5 1.25,-2.5 2.5,-2.5 2.5,-3.75 1.25,-2.5 1.25,-3.75 1.25,-2.5 1.25,-3.75 1.25,-3.75 0,-2.5 1.25,-3.75 0,-3.75 0,-1.25 112.5,0 0,0 z m -225,-168.75 0,-70 0,-2.5 0,-2.5 1.25,-3.75 0,-3.75 1.25,-3.75 1.25,-2.5 1.25,-3.75 1.25,-3.75 1.25,-2.5 2.5,-2.5 1.25,-3.75 2.5,-2.5 2.5,-2.5 2.5,-2.5 2.5,-2.5 3.75,-1.25 2.5,-2.5 3.75,-1.25 2.5,-1.25 3.75,-1.25 2.5,-1.25 3.75,-1.25 3.75,0 3.75,-1.25 3.75,0 2.5,0 3.75,0 3.75,1.25 3.75,0 2.5,1.25 3.75,1.25 3.75,1.25 2.5,1.25 3.75,1.25 2.5,2.5 2.5,1.25 3.75,2.5 2.5,2.5 2.5,2.5 1.25,2.5 2.5,3.75 2.5,2.5 1.25,2.5 1.25,3.75 1.25,3.75 1.25,2.5 1.25,3.75 0,3.75 1.25,3.75 0,2.5 0,2.5 0,70 -112.5,0 0,0 z m 295,168.75 105,0 0,1.25 0,3.75 0,3.75 1.25,3.75 1.25,3.75 1.25,3.75 1.25,3.75 1.25,3.75 2.5,3.75 1.25,3.75 2.5,2.5 2.5,3.75 2.5,2.5 3.75,2.5 2.5,2.5 2.5,2.5 3.75,2.5 3.75,1.25 3.75,2.5 3.75,1.25 3.75,1.25 3.75,1.25 3.75,0 3.75,1.25 3.75,0 3.75,0 3.75,0 3.75,0 3.75,-1.25 3.75,-1.25 3.75,-1.25 3.75,-1.25 3.75,-1.25 3.75,-2.5 3.75,-1.25 2.5,-2.5 3.75,-2.5 2.5,-2.5 2.5,-2.5 2.5,-3.75 2.5,-2.5 2.5,-3.75 2.5,-2.5 1.25,-3.75 1.25,-3.75 1.25,-3.75 1.25,-3.75 1.25,-3.75 0,-3.75 1.25,-3.75 0,-5 0,-3.75 -1.25,-3.75 0,-3.75 -1.25,-3.75 -1.25,-3.75 -1.25,-3.75 -1.25,-3.75 -1.25,-3.75 -2.5,-2.5 -2.5,-3.75 -2.5,-2.5 -2.5,-3.75 -2.5,-2.5 -2.5,-2.5 -3.75,-2.5 -2.5,-2.5 -3.75,-2.5 -3.75,-1.25 -1.25,-1.25 -91.25,-32.5 -5,-2.5 -8.75,-5 -8.75,-5 -7.5,-5 -8.75,-6.25 -7.5,-7.5 -6.25,-6.25 -7.5,-7.5 -5,-8.75 -6.25,-7.5 -5,-8.75 -5,-8.75 -3.75,-10 -2.5,-8.75 -3.75,-10 -1.25,-10 -2.5,-10 -1.25,-10 0,-10 0,-10 1.25,-10 1.25,-10 2.5,-10 2.5,-8.75 3.75,-10 3.75,-8.75 5,-10 5,-7.5 5,-8.75 6.25,-8.75 6.25,-7.5 7.5,-6.25 7.5,-7.5 7.5,-6.25 8.75,-5 8.75,-5 8.75,-5 8.75,-3.75 10,-3.75 8.75,-3.75 10,-1.25 10,-2.5 10,-1.25 10,0 10,0 10,1.25 10,1.25 10,1.25 10,2.5 8.75,3.75 10,3.75 8.75,5 8.75,3.75 8.75,6.25 7.5,6.25 7.5,6.25 7.5,6.25 7.5,7.5 6.25,7.5 5,8.75 6.25,8.75 3.75,8.75 5,8.75 3.75,10 2.5,8.75 2.5,10 2.5,10 1.25,10 0,10 0,5 -105,0 0,-2.5 0,-2.5 0,-3.75 -1.25,-3.75 -1.25,-3.75 -1.25,-2.5 -1.25,-3.75 -1.25,-2.5 -1.25,-3.75 -2.5,-2.5 -1.25,-2.5 -2.5,-3.75 -2.5,-2.5 -2.5,-2.5 -2.5,-1.25 -2.5,-2.5 -3.75,-2.5 -2.5,-1.25 -3.75,-1.25 -2.5,-1.25 -3.75,-1.25 -2.5,-1.25 -3.75,0 -3.75,-1.25 -3.75,0 -3.75,0 -2.5,0 -3.75,0 -3.75,1.25 -3.75,1.25 -2.5,0 -3.75,1.25 -2.5,2.5 -3.75,1.25 -2.5,1.25 -3.75,2.5 -2.5,2.5 -2.5,1.25 -2.5,2.5 -2.5,3.75 -1.25,2.5 -2.5,2.5 -1.25,3.75 -1.25,2.5 -2.5,3.75 -1.25,2.5 0,3.75 -1.25,3.75 0,2.5 -1.25,3.75 0,3.75 0,3.75 1.25,3.75 0,2.5 1.25,3.75 1.25,3.75 0,2.5 2.5,3.75 1.25,2.5 1.25,3.75 2.5,2.5 2.5,2.5 1.25,2.5 2.5,2.5 2.5,2.5 3.75,2.5 2.5,2.5 2.5,1.25 3.75,1.25 1.25,1.25 91.25,32.5 5,2.5 8.75,5 8.75,5 8.75,6.25 8.75,6.25 7.5,7.5 7.5,7.5 6.25,7.5 6.25,8.75 6.25,8.75 5,8.75 5,8.75 3.75,10 3.75,10 3.75,10 1.25,10 2.5,11.25 1.25,10 0,10 0,11.25 -1.25,10 -1.25,10 -2.5,10 -3.75,10 -2.5,10 -5,10 -3.75,10 -6.25,8.75 -5,8.75 -6.25,7.5 -7.5,8.75 -7.5,7.5 -7.5,6.25 -8.75,7.5 -7.5,5 -10,6.25 -8.75,5 -10,3.75 -8.75,3.75 -10,2.5 -11.25,2.5 -10,2.5 -10,1.25 -11.25,0 -10,0 -10,-1.25 -11.25,-1.25 -10,-1.25 -10,-3.75 -10,-2.5 -10,-5 -8.75,-3.75 -8.75,-5 -8.75,-6.25 -8.75,-6.25 -8.75,-6.25 -7.5,-7.5 -6.25,-7.5 -7.5,-8.75 -6.25,-7.5 -5,-10 -5,-8.75 -5,-8.75 -3.75,-10 -2.5,-10 -2.5,-10 -2.5,-11.25 -1.25,-10 0,-10 0,-5 z"
       inkscape:connector-curvature="0" />
    <path
       id="8"
       style="fill:#000000;fill-opacity:1;fill-rule:evenodd;stroke:none"
       d="m 1261.25,4875 0,-785 112.5,0 0,672.5 223.75,0 0,112.5 -336.25,0 0,0 z m 728.75,0 -111.25,0 0,-56.25 -2.5,2.5 -3.75,6.25 -3.75,6.25 -5,6.25 -5,5 -5,5 -6.25,5 -5,5 -6.25,3.75 -6.25,3.75 -7.5,3.75 -6.25,2.5 -6.25,2.5 -7.5,1.25 -7.5,2.5 -7.5,1.25 -7.5,0 -6.25,0 -7.5,0 -7.5,0 -7.5,-1.25 -7.5,-1.25 -6.25,-2.5 -7.5,-2.5 -6.25,-2.5 -7.5,-3.75 -6.25,-3.75 -6.25,-3.75 -5,-5 -6.25,-3.75 -5,-6.25 -5,-5 -5,-5 -3.75,-6.25 -3.75,-6.25 -3.75,-6.25 -2.5,-7.5 -2.5,-6.25 -2.5,-7.5 -2.5,-7.5 -1.25,-6.25 -1.25,-7.5 0,-7.5 0,-3.75 0,-83.75 0,-5 1.25,-8.75 0,-8.75 2.5,-8.75 2.5,-8.75 2.5,-7.5 2.5,-8.75 3.75,-7.5 5,-7.5 3.75,-7.5 6.25,-7.5 5,-6.25 6.25,-7.5 6.25,-5 6.25,-6.25 7.5,-5 7.5,-5 7.5,-3.75 8.75,-3.75 7.5,-3.75 8.75,-2.5 8.75,-2.5 8.75,-1.25 8.75,-1.25 8.75,0 3.75,0 85,0 0,-63.75 0,-1.25 -1.25,-3.75 0,-3.75 -1.25,-3.75 0,-2.5 -1.25,-3.75 -1.25,-3.75 -1.25,-2.5 -2.5,-3.75 -1.25,-2.5 -2.5,-2.5 -2.5,-3.75 -2.5,-2.5 -2.5,-2.5 -2.5,-1.25 -2.5,-2.5 -2.5,-2.5 -3.75,-1.25 -3.75,-1.25 -2.5,-1.25 -3.75,-1.25 -3.75,-1.25 -2.5,0 -3.75,-1.25 -3.75,0 -3.75,0 -3.75,0 -2.5,1.25 -3.75,0 -3.75,1.25 -3.75,1.25 -2.5,1.25 -3.75,1.25 -2.5,1.25 -3.75,2.5 -2.5,2.5 -2.5,1.25 -2.5,2.5 -2.5,2.5 -2.5,3.75 -1.25,2.5 -2.5,2.5 -1.25,3.75 -1.25,2.5 -2.5,3.75 0,3.75 -1.25,2.5 -1.25,3.75 0,3.75 0,3.75 0,1.25 -112.5,0 0,-5 1.25,-11.25 1.25,-10 1.25,-10 2.5,-10 3.75,-10 3.75,-10 5,-10 5,-8.75 5,-10 6.25,-7.5 7.5,-8.75 7.5,-7.5 7.5,-7.5 7.5,-6.25 8.75,-6.25 8.75,-6.25 10,-5 8.75,-3.75 10,-5 10,-2.5 10,-2.5 11.25,-2.5 10,-1.25 10,0 11.25,0 10,0 11.25,1.25 10,2.5 10,2.5 10,2.5 10,5 10,3.75 8.75,5 8.75,6.25 8.75,6.25 8.75,6.25 7.5,7.5 7.5,7.5 6.25,8.75 6.25,7.5 6.25,10 5,8.75 3.75,10 3.75,10 3.75,10 2.5,10 2.5,10 1.25,10 0,11.25 0,5 0,400 0,0 z m -111.25,-246.25 0,85 0,1.25 -1.25,3.75 0,3.75 -1.25,3.75 0,2.5 -1.25,3.75 -1.25,3.75 -1.25,2.5 -2.5,3.75 -1.25,2.5 -2.5,2.5 -2.5,2.5 -2.5,3.75 -2.5,1.25 -2.5,2.5 -2.5,2.5 -2.5,1.25 -3.75,2.5 -3.75,1.25 -2.5,1.25 -3.75,1.25 -3.75,1.25 -2.5,0 -3.75,0 -3.75,1.25 -3.75,0 -3.75,-1.25 -2.5,0 -3.75,0 -3.75,-1.25 -3.75,-1.25 -2.5,-1.25 -3.75,-1.25 -2.5,-2.5 -3.75,-1.25 -2.5,-2.5 -2.5,-2.5 -2.5,-1.25 -2.5,-3.75 -2.5,-2.5 -1.25,-2.5 -2.5,-2.5 -1.25,-3.75 -1.25,-2.5 -2.5,-3.75 0,-3.75 -1.25,-2.5 -1.25,-3.75 0,-3.75 0,-3.75 0,-1.25 0,-28.75 0,-1.25 0,-3.75 0,-3.75 1.25,-2.5 1.25,-3.75 0,-3.75 2.5,-2.5 1.25,-3.75 1.25,-2.5 2.5,-3.75 1.25,-2.5 2.5,-2.5 2.5,-2.5 2.5,-2.5 2.5,-2.5 2.5,-2.5 3.75,-1.25 2.5,-2.5 3.75,-1.25 2.5,-1.25 3.75,-1.25 3.75,0 3.75,-1.25 2.5,0 3.75,0 2.5,-1.25 56.25,0 0,0 z M 2425,4875 l -112.5,0 0,-56.25 -1.25,2.5 -3.75,6.25 -5,6.25 -3.75,6.25 -5,5 -5,5 -6.25,5 -6.25,5 -6.25,3.75 -6.25,3.75 -6.25,3.75 -6.25,2.5 -7.5,2.5 -6.25,1.25 -7.5,2.5 -7.5,1.25 -7.5,0 -7.5,0 -7.5,0 -6.25,0 -7.5,-1.25 -7.5,-1.25 -7.5,-2.5 -6.25,-2.5 -7.5,-2.5 -6.25,-3.75 -6.25,-3.75 -6.25,-3.75 -6.25,-5 -5,-3.75 -5,-6.25 -5,-5 -5,-5 -3.75,-6.25 -3.75,-6.25 -3.75,-6.25 -3.75,-7.5 -2.5,-6.25 -2.5,-7.5 -1.25,-7.5 -1.25,-6.25 -1.25,-7.5 0,-7.5 0,-3.75 0,-336.25 0,-3.75 0,-7.5 1.25,-7.5 1.25,-7.5 1.25,-6.25 2.5,-7.5 2.5,-6.25 3.75,-7.5 3.75,-6.25 3.75,-6.25 3.75,-6.25 5,-5 5,-6.25 5,-5 5,-3.75 6.25,-5 6.25,-3.75 6.25,-3.75 6.25,-3.75 7.5,-2.5 6.25,-2.5 7.5,-2.5 7.5,-1.25 7.5,-1.25 6.25,0 7.5,0 7.5,0 7.5,0 7.5,1.25 7.5,1.25 6.25,2.5 7.5,2.5 6.25,2.5 6.25,3.75 6.25,3.75 6.25,3.75 6.25,5 6.25,5 5,5 5,5 3.75,6.25 5,5 3.75,6.25 1.25,3.75 0,-280 112.5,0 0,785 0,0 z m -112.5,-161.25 0,1.25 0,3.75 0,3.75 -1.25,3.75 -1.25,2.5 0,3.75 -1.25,3.75 -2.5,2.5 -1.25,3.75 -2.5,2.5 -1.25,2.5 -2.5,2.5 -2.5,3.75 -2.5,1.25 -2.5,2.5 -2.5,2.5 -3.75,1.25 -2.5,2.5 -3.75,1.25 -2.5,1.25 -3.75,1.25 -3.75,1.25 -3.75,0 -2.5,0 -3.75,1.25 -3.75,0 -3.75,-1.25 -3.75,0 -2.5,0 -3.75,-1.25 -3.75,-1.25 -2.5,-1.25 -3.75,-1.25 -2.5,-2.5 -3.75,-1.25 -2.5,-2.5 -2.5,-2.5 -2.5,-1.25 -2.5,-3.75 -2.5,-2.5 -2.5,-2.5 -1.25,-2.5 -2.5,-3.75 -1.25,-2.5 -1.25,-3.75 -1.25,-3.75 0,-2.5 -1.25,-3.75 0,-3.75 0,-3.75 0,-1.25 0,-238.75 0,-1.25 0,-3.75 0,-3.75 1.25,-3.75 0,-2.5 1.25,-3.75 1.25,-3.75 1.25,-2.5 2.5,-3.75 1.25,-2.5 2.5,-2.5 2.5,-3.75 2.5,-2.5 2.5,-2.5 2.5,-1.25 2.5,-2.5 3.75,-2.5 2.5,-1.25 3.75,-1.25 2.5,-1.25 3.75,-1.25 3.75,-1.25 2.5,0 3.75,-1.25 3.75,0 3.75,0 3.75,0 2.5,1.25 3.75,0 3.75,1.25 3.75,1.25 2.5,1.25 3.75,1.25 2.5,1.25 3.75,2.5 2.5,2.5 2.5,1.25 2.5,2.5 2.5,2.5 2.5,3.75 1.25,2.5 2.5,2.5 1.25,3.75 2.5,2.5 1.25,3.75 0,3.75 1.25,2.5 1.25,3.75 0,3.75 0,3.75 0,1.25 0,238.75 0,0 z m 561.25,0 0,5 -1.25,10 -1.25,11.25 -1.25,10 -2.5,10 -3.75,10 -3.75,10 -5,10 -5,8.75 -5,8.75 -6.25,8.75 -7.5,8.75 -7.5,7.5 -7.5,7.5 -7.5,6.25 -8.75,6.25 -8.75,6.25 -10,5 -8.75,3.75 -10,3.75 -10,3.75 -10,2.5 -11.25,2.5 -10,1.25 -10,0 -11.25,0 -10,0 -11.25,-1.25 -10,-2.5 -10,-2.5 -10,-3.75 -10,-3.75 -10,-3.75 -8.75,-5 -8.75,-6.25 -8.75,-6.25 -8.75,-6.25 -7.5,-7.5 -7.5,-7.5 -6.25,-8.75 -6.25,-8.75 -6.25,-8.75 -5,-8.75 -3.75,-10 -3.75,-10 -3.75,-10 -2.5,-10 -2.5,-10 -1.25,-11.25 0,-10 0,-5 0,-238.75 0,-5 0,-11.25 1.25,-10 2.5,-10 2.5,-10 3.75,-10 3.75,-10 3.75,-10 5,-8.75 6.25,-10 6.25,-7.5 6.25,-8.75 7.5,-7.5 7.5,-7.5 8.75,-6.25 8.75,-6.25 8.75,-6.25 8.75,-5 10,-3.75 10,-5 10,-2.5 10,-2.5 10,-2.5 11.25,-1.25 10,0 11.25,0 10,0 10,1.25 11.25,2.5 10,2.5 10,2.5 10,5 8.75,3.75 10,5 8.75,6.25 8.75,6.25 7.5,6.25 7.5,7.5 7.5,7.5 7.5,8.75 6.25,7.5 5,10 5,8.75 5,10 3.75,10 3.75,10 2.5,10 1.25,10 1.25,10 1.25,11.25 0,5 0,161.25 -225,0 0,77.5 0,1.25 1.25,3.75 0,3.75 1.25,3.75 0,2.5 1.25,3.75 1.25,3.75 1.25,2.5 2.5,3.75 1.25,2.5 2.5,2.5 2.5,2.5 2.5,3.75 2.5,1.25 2.5,2.5 2.5,2.5 2.5,1.25 3.75,2.5 2.5,1.25 3.75,1.25 3.75,1.25 3.75,1.25 2.5,0 3.75,0 3.75,1.25 3.75,0 3.75,-1.25 2.5,0 3.75,0 3.75,-1.25 2.5,-1.25 3.75,-1.25 3.75,-1.25 2.5,-2.5 3.75,-1.25 2.5,-2.5 2.5,-2.5 2.5,-1.25 2.5,-3.75 2.5,-2.5 1.25,-2.5 2.5,-2.5 1.25,-3.75 1.25,-2.5 2.5,-3.75 0,-3.75 1.25,-2.5 1.25,-3.75 0,-3.75 0,-3.75 0,-1.25 112.5,0 0,0 z m -225,-168.75 0,-70 0,-1.25 1.25,-3.75 0,-3.75 1.25,-3.75 0,-2.5 1.25,-3.75 1.25,-3.75 1.25,-2.5 2.5,-3.75 1.25,-2.5 2.5,-2.5 2.5,-3.75 2.5,-2.5 2.5,-2.5 2.5,-1.25 2.5,-2.5 2.5,-2.5 3.75,-1.25 2.5,-1.25 3.75,-1.25 3.75,-1.25 3.75,-1.25 2.5,0 3.75,-1.25 3.75,0 3.75,0 3.75,0 2.5,1.25 3.75,0 3.75,1.25 2.5,1.25 3.75,1.25 3.75,1.25 2.5,1.25 3.75,2.5 2.5,2.5 2.5,1.25 2.5,2.5 2.5,2.5 2.5,3.75 1.25,2.5 2.5,2.5 1.25,3.75 1.25,2.5 2.5,3.75 0,3.75 1.25,2.5 1.25,3.75 0,3.75 0,3.75 0,1.25 0,70 -112.5,0 0,0 z m 428.75,330 -147.5,-561.25 118.75,0 77.5,365 76.25,-365 120,0 -147.5,561.25 -97.5,0 0,0 z m 301.25,-161.25 0,-238.75 0,-5 0,-11.25 1.25,-10 2.5,-10 2.5,-10 3.75,-10 3.75,-10 3.75,-10 5,-8.75 6.25,-10 6.25,-7.5 6.25,-8.75 7.5,-7.5 7.5,-7.5 8.75,-6.25 8.75,-6.25 8.75,-6.25 8.75,-5 10,-3.75 10,-5 10,-2.5 10,-2.5 10,-2.5 11.25,-1.25 10,0 11.25,0 10,0 10,1.25 11.25,2.5 10,2.5 10,2.5 10,5 8.75,3.75 10,5 8.75,6.25 8.75,6.25 7.5,6.25 7.5,7.5 7.5,7.5 7.5,8.75 6.25,7.5 5,10 5,8.75 5,10 3.75,10 3.75,10 2.5,10 1.25,10 1.25,10 1.25,11.25 0,5 0,238.75 0,5 -1.25,10 -1.25,11.25 -1.25,10 -2.5,10 -3.75,10 -3.75,10 -5,10 -5,8.75 -5,8.75 -6.25,8.75 -7.5,8.75 -7.5,7.5 -7.5,7.5 -7.5,6.25 -8.75,6.25 -8.75,6.25 -10,5 -8.75,3.75 -10,3.75 -10,3.75 -10,2.5 -11.25,2.5 -10,1.25 -10,0 -11.25,0 -10,0 -11.25,-1.25 -10,-2.5 -10,-2.5 -10,-3.75 -10,-3.75 -10,-3.75 -8.75,-5 -8.75,-6.25 -8.75,-6.25 -8.75,-6.25 -7.5,-7.5 -7.5,-7.5 -6.25,-8.75 -6.25,-8.75 -6.25,-8.75 -5,-8.75 -3.75,-10 -3.75,-10 -3.75,-10 -2.5,-10 -2.5,-10 -1.25,-11.25 0,-10 0,-5 0,0 z m 111.25,0 0,-238.75 0,-1.25 1.25,-3.75 0,-3.75 0,-3.75 1.25,-2.5 1.25,-3.75 1.25,-3.75 1.25,-2.5 2.5,-3.75 1.25,-2.5 2.5,-2.5 2.5,-3.75 2.5,-2.5 2.5,-2.5 2.5,-1.25 2.5,-2.5 2.5,-2.5 3.75,-1.25 2.5,-1.25 3.75,-1.25 3.75,-1.25 2.5,-1.25 3.75,0 3.75,-1.25 3.75,0 3.75,0 2.5,0 3.75,1.25 3.75,0 3.75,1.25 2.5,1.25 3.75,1.25 3.75,1.25 2.5,1.25 2.5,2.5 3.75,2.5 2.5,1.25 2.5,2.5 2.5,2.5 2.5,3.75 1.25,2.5 2.5,2.5 1.25,3.75 1.25,2.5 1.25,3.75 1.25,3.75 1.25,2.5 1.25,3.75 0,3.75 0,3.75 0,1.25 0,238.75 0,1.25 0,3.75 0,3.75 -1.25,3.75 -1.25,2.5 -1.25,3.75 -1.25,3.75 -1.25,2.5 -1.25,3.75 -2.5,2.5 -1.25,2.5 -2.5,2.5 -2.5,3.75 -2.5,1.25 -2.5,2.5 -3.75,2.5 -2.5,1.25 -2.5,2.5 -3.75,1.25 -3.75,1.25 -2.5,1.25 -3.75,1.25 -3.75,0 -3.75,0 -2.5,1.25 -3.75,0 -3.75,-1.25 -3.75,0 -3.75,0 -2.5,-1.25 -3.75,-1.25 -3.75,-1.25 -2.5,-1.25 -3.75,-2.5 -2.5,-1.25 -2.5,-2.5 -2.5,-2.5 -2.5,-1.25 -2.5,-3.75 -2.5,-2.5 -2.5,-2.5 -1.25,-2.5 -2.5,-3.75 -1.25,-2.5 -1.25,-3.75 -1.25,-3.75 -1.25,-2.5 0,-3.75 0,-3.75 -1.25,-3.75 0,-1.25 0,0 z m 336.25,161.25 0,-561.25 111.25,0 0,63.75 3.75,-5 7.5,-7.5 8.75,-8.75 8.75,-7.5 8.75,-6.25 8.75,-6.25 10,-6.25 10,-5 10,-3.75 10,-3.75 11.25,-3.75 11.25,-2.5 11.25,-2.5 11.25,-1.25 11.25,0 5,0 0,117.5 -3.75,-1.25 -6.25,-1.25 -6.25,-2.5 -7.5,0 -6.25,-1.25 -6.25,0 -7.5,1.25 -6.25,0 -7.5,1.25 -6.25,1.25 -6.25,2.5 -6.25,2.5 -6.25,2.5 -6.25,2.5 -6.25,3.75 -6.25,3.75 -5,5 -5,3.75 -5,5 -5,5 -3.75,5 -3.75,6.25 -3.75,6.25 -2.5,5 -3.75,6.25 -2.5,6.25 -1.25,7.5 -2.5,6.25 -1.25,6.25 0,7.5 -1.25,6.25 0,3.75 0,343.75 -111.25,0 0,0 z m 427.5,62.5 0,2.5 0,2.5 0,3.75 1.25,3.75 0,3.75 1.25,2.5 1.25,3.75 2.5,3.75 1.25,2.5 1.25,2.5 2.5,3.75 2.5,2.5 2.5,2.5 2.5,2.5 2.5,2.5 2.5,1.25 3.75,2.5 2.5,1.25 3.75,1.25 2.5,1.25 3.75,1.25 3.75,1.25 3.75,1.25 2.5,0 3.75,0 3.75,0 3.75,0 3.75,0 2.5,-1.25 3.75,-1.25 3.75,-1.25 2.5,-1.25 3.75,-1.25 2.5,-1.25 3.75,-2.5 2.5,-1.25 2.5,-2.5 2.5,-2.5 2.5,-2.5 2.5,-2.5 2.5,-3.75 1.25,-2.5 2.5,-2.5 1.25,-3.75 1.25,-3.75 1.25,-2.5 0,-3.75 1.25,-3.75 0,-3.75 0,-2.5 0,-2.5 0,-118.75 -1.25,2.5 -3.75,6.25 -3.75,6.25 -5,6.25 -5,5 -5,5 -6.25,5 -5,5 -6.25,3.75 -6.25,3.75 -7.5,3.75 -6.25,2.5 -7.5,2.5 -6.25,1.25 -7.5,2.5 -7.5,1.25 -7.5,0 -7.5,0 -6.25,0 -7.5,0 -7.5,-1.25 -7.5,-1.25 -6.25,-2.5 -7.5,-2.5 -6.25,-2.5 -7.5,-3.75 -6.25,-3.75 -6.25,-3.75 -5,-5 -6.25,-3.75 -5,-6.25 -5,-5 -5,-5 -3.75,-6.25 -3.75,-6.25 -3.75,-6.25 -2.5,-7.5 -3.75,-6.25 -1.25,-7.5 -2.5,-7.5 -1.25,-6.25 -1.25,-7.5 0,-7.5 0,-3.75 0,-336.25 0,-3.75 0,-7.5 1.25,-7.5 1.25,-7.5 2.5,-6.25 1.25,-7.5 3.75,-6.25 2.5,-7.5 3.75,-6.25 3.75,-6.25 3.75,-6.25 5,-5 5,-6.25 5,-5 6.25,-3.75 5,-5 6.25,-3.75 6.25,-3.75 7.5,-3.75 6.25,-2.5 7.5,-2.5 6.25,-2.5 7.5,-1.25 7.5,-1.25 7.5,0 6.25,0 7.5,0 7.5,0 7.5,1.25 7.5,1.25 6.25,2.5 7.5,2.5 6.25,2.5 7.5,3.75 6.25,3.75 6.25,3.75 5,5 6.25,5 5,5 5,5 5,6.25 3.75,5 3.75,6.25 1.25,3.75 0,-56.25 112.5,0 0,623.75 0,5 0,11.25 -2.5,10 -1.25,11.25 -2.5,10 -3.75,10 -3.75,10 -5,8.75 -5,10 -5,8.75 -6.25,8.75 -6.25,7.5 -7.5,7.5 -7.5,7.5 -8.75,7.5 -8.75,6.25 -8.75,5 -8.75,5 -10,5 -10,3.75 -10,2.5 -10,3.75 -10,1.25 -11.25,1.25 -10,1.25 -11.25,0 -10,-1.25 -10,-1.25 -11.25,-1.25 -10,-3.75 -10,-2.5 -10,-3.75 -10,-5 -8.75,-5 -8.75,-5 -8.75,-6.25 -7.5,-7.5 -8.75,-7.5 -6.25,-7.5 -7.5,-7.5 -6.25,-8.75 -5,-8.75 -5,-10 -5,-8.75 -3.75,-10 -3.75,-10 -2.5,-10 -1.25,-11.25 -1.25,-10 -1.25,-11.25 0,-5 112.5,0 0,0 z m 111.25,-223.75 0,1.25 0,3.75 0,3.75 -1.25,3.75 0,2.5 -1.25,3.75 -1.25,3.75 -1.25,2.5 -2.5,3.75 -1.25,2.5 -2.5,2.5 -2.5,2.5 -2.5,3.75 -2.5,1.25 -2.5,2.5 -2.5,2.5 -3.75,1.25 -2.5,2.5 -3.75,1.25 -2.5,1.25 -3.75,1.25 -3.75,1.25 -2.5,0 -3.75,0 -3.75,1.25 -3.75,0 -3.75,-1.25 -2.5,0 -3.75,0 -3.75,-1.25 -3.75,-1.25 -2.5,-1.25 -3.75,-1.25 -2.5,-2.5 -3.75,-1.25 -2.5,-2.5 -2.5,-2.5 -2.5,-1.25 -2.5,-3.75 -2.5,-2.5 -2.5,-2.5 -1.25,-2.5 -1.25,-3.75 -2.5,-2.5 -1.25,-3.75 -1.25,-3.75 0,-2.5 -1.25,-3.75 0,-3.75 0,-3.75 0,-1.25 0,-238.75 0,-1.25 0,-3.75 0,-3.75 1.25,-3.75 0,-2.5 1.25,-3.75 1.25,-3.75 2.5,-2.5 1.25,-3.75 1.25,-2.5 2.5,-2.5 2.5,-3.75 2.5,-2.5 2.5,-2.5 2.5,-1.25 2.5,-2.5 3.75,-2.5 2.5,-1.25 3.75,-1.25 2.5,-1.25 3.75,-1.25 3.75,-1.25 3.75,0 2.5,-1.25 3.75,0 3.75,0 3.75,0 3.75,1.25 2.5,0 3.75,1.25 3.75,1.25 2.5,1.25 3.75,1.25 2.5,1.25 3.75,2.5 2.5,2.5 2.5,1.25 2.5,2.5 2.5,2.5 2.5,3.75 2.5,2.5 1.25,2.5 2.5,3.75 1.25,2.5 1.25,3.75 1.25,3.75 0,2.5 1.25,3.75 0,3.75 0,3.75 0,1.25 0,238.75 0,0 z m 547.5,161.25 -112.5,0 0,-56.25 -1.25,2.5 -3.75,6.25 -5,6.25 -3.75,6.25 -5,5 -6.25,5 -5,5 -6.25,5 -6.25,3.75 -6.25,3.75 -6.25,3.75 -6.25,2.5 -7.5,2.5 -7.5,1.25 -6.25,2.5 -7.5,1.25 -7.5,0 -7.5,0 -7.5,0 -7.5,0 -6.25,-1.25 -7.5,-1.25 -7.5,-2.5 -6.25,-2.5 -7.5,-2.5 -6.25,-3.75 -6.25,-3.75 -6.25,-3.75 -6.25,-5 -5,-3.75 -5,-6.25 -5,-5 -5,-5 -3.75,-6.25 -5,-6.25 -2.5,-6.25 -3.75,-7.5 -2.5,-6.25 -2.5,-7.5 -1.25,-7.5 -1.25,-6.25 -1.25,-7.5 0,-7.5 0,-3.75 0,-83.75 0,-5 0,-8.75 1.25,-8.75 1.25,-8.75 2.5,-8.75 2.5,-7.5 3.75,-8.75 3.75,-7.5 3.75,-7.5 5,-7.5 5,-7.5 6.25,-6.25 6.25,-7.5 6.25,-5 6.25,-6.25 7.5,-5 7.5,-5 7.5,-3.75 7.5,-3.75 8.75,-3.75 8.75,-2.5 7.5,-2.5 8.75,-1.25 8.75,-1.25 8.75,0 5,0 83.75,0 0,-63.75 0,-1.25 0,-3.75 0,-3.75 -1.25,-3.75 -1.25,-2.5 -1.25,-3.75 -1.25,-3.75 -1.25,-2.5 -1.25,-3.75 -2.5,-2.5 -1.25,-2.5 -2.5,-3.75 -2.5,-2.5 -2.5,-2.5 -2.5,-1.25 -3.75,-2.5 -2.5,-2.5 -2.5,-1.25 -3.75,-1.25 -3.75,-1.25 -2.5,-1.25 -3.75,-1.25 -3.75,0 -3.75,-1.25 -2.5,0 -3.75,0 -3.75,0 -3.75,1.25 -3.75,0 -2.5,1.25 -3.75,1.25 -3.75,1.25 -2.5,1.25 -3.75,1.25 -2.5,2.5 -2.5,2.5 -2.5,1.25 -2.5,2.5 -2.5,2.5 -2.5,3.75 -2.5,2.5 -1.25,2.5 -2.5,3.75 -1.25,2.5 -1.25,3.75 -1.25,3.75 -1.25,2.5 0,3.75 0,3.75 -1.25,3.75 0,1.25 -111.25,0 0,-5 0,-11.25 1.25,-10 2.5,-10 2.5,-10 3.75,-10 3.75,-10 3.75,-10 5,-8.75 6.25,-10 6.25,-7.5 6.25,-8.75 7.5,-7.5 7.5,-7.5 8.75,-6.25 8.75,-6.25 8.75,-6.25 8.75,-5 10,-3.75 10,-5 10,-2.5 10,-2.5 10,-2.5 11.25,-1.25 10,0 10,0 11.25,0 10,1.25 11.25,2.5 10,2.5 10,2.5 10,5 8.75,3.75 10,5 8.75,6.25 8.75,6.25 7.5,6.25 7.5,7.5 7.5,7.5 7.5,8.75 6.25,7.5 5,10 5,8.75 5,10 3.75,10 3.75,10 2.5,10 1.25,10 1.25,10 1.25,11.25 0,5 0,400 0,0 z m -112.5,-246.25 0,85 0,1.25 0,3.75 0,3.75 -1.25,3.75 -1.25,2.5 -1.25,3.75 -1.25,3.75 -1.25,2.5 -1.25,3.75 -2.5,2.5 -1.25,2.5 -2.5,2.5 -2.5,3.75 -2.5,1.25 -2.5,2.5 -3.75,2.5 -2.5,1.25 -2.5,2.5 -3.75,1.25 -3.75,1.25 -2.5,1.25 -3.75,1.25 -3.75,0 -3.75,0 -2.5,1.25 -3.75,0 -3.75,-1.25 -3.75,0 -3.75,0 -2.5,-1.25 -3.75,-1.25 -3.75,-1.25 -2.5,-1.25 -3.75,-2.5 -2.5,-1.25 -2.5,-2.5 -2.5,-2.5 -2.5,-1.25 -2.5,-3.75 -2.5,-2.5 -2.5,-2.5 -1.25,-2.5 -2.5,-3.75 -1.25,-2.5 -1.25,-3.75 -1.25,-3.75 -1.25,-2.5 0,-3.75 0,-3.75 -1.25,-3.75 0,-1.25 0,-28.75 0,-1.25 1.25,-3.75 0,-3.75 0,-2.5 1.25,-3.75 1.25,-3.75 1.25,-2.5 1.25,-3.75 2.5,-2.5 1.25,-3.75 2.5,-2.5 2.5,-2.5 2.5,-2.5 2.5,-2.5 2.5,-2.5 2.5,-2.5 2.5,-1.25 3.75,-2.5 2.5,-1.25 3.75,-1.25 3.75,-1.25 2.5,0 3.75,-1.25 3.75,0 3.75,0 1.25,-1.25 56.25,0 0,0 z m 225,246.25 0,-561.25 111.25,0 0,56.25 2.5,-3.75 3.75,-6.25 3.75,-5 5,-6.25 5,-5 5,-5 5,-5 6.25,-5 6.25,-3.75 6.25,-3.75 6.25,-3.75 7.5,-2.5 6.25,-2.5 7.5,-2.5 7.5,-1.25 7.5,-1.25 6.25,0 7.5,0 7.5,0 7.5,0 7.5,1.25 7.5,1.25 6.25,2.5 7.5,2.5 6.25,2.5 6.25,3.75 7.5,3.75 5,3.75 6.25,5 6.25,3.75 5,5 5,6.25 3.75,5 5,6.25 3.75,6.25 3.75,6.25 2.5,7.5 2.5,6.25 2.5,7.5 2.5,6.25 1.25,7.5 0,7.5 1.25,7.5 0,3.75 0,448.75 -112.5,0 0,-400 0,-1.25 0,-3.75 -1.25,-3.75 0,-3.75 -1.25,-2.5 -1.25,-3.75 -1.25,-3.75 -1.25,-2.5 -1.25,-3.75 -2.5,-2.5 -1.25,-2.5 -2.5,-3.75 -2.5,-2.5 -2.5,-2.5 -2.5,-1.25 -3.75,-2.5 -2.5,-2.5 -2.5,-1.25 -3.75,-1.25 -3.75,-1.25 -2.5,-1.25 -3.75,-1.25 -3.75,0 -3.75,-1.25 -2.5,0 -3.75,0 -3.75,0 -3.75,1.25 -3.75,0 -2.5,1.25 -3.75,1.25 -3.75,1.25 -2.5,1.25 -3.75,1.25 -2.5,2.5 -2.5,2.5 -2.5,1.25 -3.75,2.5 -1.25,2.5 -2.5,3.75 -2.5,2.5 -1.25,2.5 -2.5,3.75 -1.25,2.5 -1.25,3.75 -1.25,3.75 -1.25,2.5 0,3.75 0,3.75 -1.25,3.75 0,1.25 0,400 -111.25,0 0,0 z m 546.25,62.5 0,2.5 0,2.5 1.25,3.75 0,3.75 1.25,3.75 1.25,2.5 1.25,3.75 1.25,3.75 1.25,2.5 2.5,2.5 1.25,3.75 2.5,2.5 2.5,2.5 2.5,2.5 2.5,2.5 3.75,1.25 2.5,2.5 3.75,1.25 2.5,1.25 3.75,1.25 2.5,1.25 3.75,1.25 3.75,1.25 3.75,0 2.5,0 3.75,0 3.75,0 3.75,0 3.75,-1.25 2.5,-1.25 3.75,-1.25 3.75,-1.25 2.5,-1.25 3.75,-1.25 2.5,-2.5 2.5,-1.25 3.75,-2.5 2.5,-2.5 2.5,-2.5 1.25,-2.5 2.5,-3.75 2.5,-2.5 1.25,-2.5 1.25,-3.75 1.25,-3.75 1.25,-2.5 1.25,-3.75 0,-3.75 1.25,-3.75 0,-2.5 0,-2.5 0,-118.75 -2.5,2.5 -3.75,6.25 -3.75,6.25 -5,6.25 -5,5 -5,5 -5,5 -6.25,5 -6.25,3.75 -6.25,3.75 -6.25,3.75 -7.5,2.5 -6.25,2.5 -7.5,1.25 -7.5,2.5 -6.25,1.25 -7.5,0 -7.5,0 -7.5,0 -7.5,0 -7.5,-1.25 -6.25,-1.25 -7.5,-2.5 -7.5,-2.5 -6.25,-2.5 -6.25,-3.75 -6.25,-3.75 -6.25,-3.75 -6.25,-5 -6.25,-3.75 -5,-6.25 -5,-5 -3.75,-5 -5,-6.25 -3.75,-6.25 -3.75,-6.25 -2.5,-7.5 -2.5,-6.25 -2.5,-7.5 -1.25,-7.5 -2.5,-6.25 0,-7.5 -1.25,-7.5 0,-3.75 0,-336.25 0,-3.75 1.25,-7.5 0,-7.5 2.5,-7.5 1.25,-6.25 2.5,-7.5 2.5,-6.25 2.5,-7.5 3.75,-6.25 3.75,-6.25 5,-6.25 3.75,-5 5,-6.25 5,-5 6.25,-3.75 6.25,-5 6.25,-3.75 6.25,-3.75 6.25,-3.75 6.25,-2.5 7.5,-2.5 7.5,-2.5 6.25,-1.25 7.5,-1.25 7.5,0 7.5,0 7.5,0 7.5,0 6.25,1.25 7.5,1.25 7.5,2.5 6.25,2.5 7.5,2.5 6.25,3.75 6.25,3.75 6.25,3.75 6.25,5 5,5 5,5 5,5 5,6.25 3.75,5 3.75,6.25 2.5,3.75 0,-56.25 111.25,0 0,623.75 0,5 0,11.25 -1.25,10 -2.5,11.25 -2.5,10 -2.5,10 -5,10 -3.75,8.75 -5,10 -6.25,8.75 -6.25,8.75 -6.25,7.5 -7.5,7.5 -7.5,7.5 -8.75,7.5 -7.5,6.25 -10,5 -8.75,5 -10,5 -10,3.75 -10,2.5 -10,3.75 -10,1.25 -10,1.25 -11.25,1.25 -10,0 -11.25,-1.25 -10,-1.25 -10,-1.25 -11.25,-3.75 -10,-2.5 -10,-3.75 -8.75,-5 -10,-5 -8.75,-5 -8.75,-6.25 -7.5,-7.5 -7.5,-7.5 -7.5,-7.5 -6.25,-7.5 -6.25,-8.75 -6.25,-8.75 -5,-10 -5,-8.75 -3.75,-10 -2.5,-10 -2.5,-10 -2.5,-11.25 -1.25,-10 -1.25,-11.25 0,-5 112.5,0 0,0 z m 112.5,-223.75 0,1.25 0,3.75 -1.25,3.75 0,3.75 -1.25,2.5 -1.25,3.75 -1.25,3.75 -1.25,2.5 -1.25,3.75 -2.5,2.5 -2.5,2.5 -1.25,2.5 -2.5,3.75 -2.5,1.25 -3.75,2.5 -2.5,2.5 -2.5,1.25 -3.75,2.5 -2.5,1.25 -3.75,1.25 -3.75,1.25 -2.5,1.25 -3.75,0 -3.75,0 -3.75,1.25 -3.75,0 -2.5,-1.25 -3.75,0 -3.75,0 -3.75,-1.25 -2.5,-1.25 -3.75,-1.25 -2.5,-1.25 -3.75,-2.5 -2.5,-1.25 -3.75,-2.5 -2.5,-2.5 -2.5,-1.25 -2.5,-3.75 -2.5,-2.5 -1.25,-2.5 -2.5,-2.5 -1.25,-3.75 -1.25,-2.5 -1.25,-3.75 -1.25,-3.75 -1.25,-2.5 0,-3.75 -1.25,-3.75 0,-3.75 0,-1.25 0,-238.75 0,-1.25 0,-3.75 1.25,-3.75 0,-3.75 1.25,-2.5 1.25,-3.75 1.25,-3.75 1.25,-2.5 1.25,-3.75 2.5,-2.5 1.25,-2.5 2.5,-3.75 2.5,-2.5 2.5,-2.5 2.5,-1.25 3.75,-2.5 2.5,-2.5 3.75,-1.25 2.5,-1.25 3.75,-1.25 2.5,-1.25 3.75,-1.25 3.75,0 3.75,-1.25 2.5,0 3.75,0 3.75,0 3.75,1.25 3.75,0 2.5,1.25 3.75,1.25 3.75,1.25 2.5,1.25 3.75,1.25 2.5,2.5 2.5,2.5 3.75,1.25 2.5,2.5 2.5,2.5 1.25,3.75 2.5,2.5 2.5,2.5 1.25,3.75 1.25,2.5 1.25,3.75 1.25,3.75 1.25,2.5 0,3.75 1.25,3.75 0,3.75 0,1.25 0,238.75 0,0 z m 196.25,0 105,0 0,1.25 0,3.75 1.25,5 0,3.75 1.25,3.75 1.25,3.75 1.25,3.75 1.25,2.5 2.5,3.75 1.25,3.75 2.5,2.5 2.5,3.75 2.5,2.5 3.75,2.5 2.5,2.5 3.75,2.5 2.5,2.5 3.75,2.5 3.75,1.25 3.75,1.25 3.75,1.25 3.75,1.25 3.75,1.25 3.75,0 3.75,0 3.75,0 3.75,0 3.75,0 5,-1.25 3.75,-1.25 3.75,0 3.75,-2.5 2.5,-1.25 3.75,-1.25 3.75,-2.5 2.5,-2.5 3.75,-2.5 2.5,-2.5 2.5,-2.5 3.75,-2.5 1.25,-3.75 2.5,-2.5 2.5,-3.75 1.25,-3.75 1.25,-3.75 1.25,-3.75 1.25,-3.75 1.25,-3.75 0,-3.75 1.25,-3.75 0,-3.75 0,-3.75 -1.25,-5 0,-3.75 -1.25,-3.75 -1.25,-3.75 -1.25,-3.75 -1.25,-3.75 -1.25,-2.5 -2.5,-3.75 -2.5,-3.75 -2.5,-2.5 -2.5,-3.75 -2.5,-2.5 -2.5,-2.5 -3.75,-2.5 -2.5,-2.5 -3.75,-1.25 -3.75,-2.5 -1.25,0 -91.25,-33.75 -5,-2.5 -8.75,-3.75 -8.75,-5 -7.5,-6.25 -7.5,-6.25 -7.5,-6.25 -7.5,-7.5 -6.25,-7.5 -6.25,-7.5 -6.25,-8.75 -5,-8.75 -3.75,-8.75 -5,-10 -2.5,-8.75 -3.75,-10 -1.25,-10 -2.5,-10 0,-10 -1.25,-10 1.25,-10 0,-10 2.5,-10 1.25,-8.75 3.75,-10 2.5,-10 3.75,-8.75 5,-8.75 5,-8.75 5,-8.75 6.25,-7.5 7.5,-7.5 6.25,-7.5 7.5,-6.25 7.5,-6.25 8.75,-6.25 8.75,-5 8.75,-5 8.75,-3.75 10,-3.75 10,-2.5 8.75,-2.5 10,-2.5 10,0 10,-1.25 10,0 10,1.25 10,1.25 10,2.5 10,2.5 8.75,2.5 10,3.75 8.75,5 8.75,5 8.75,5 7.5,6.25 7.5,6.25 7.5,7.5 7.5,6.25 6.25,8.75 5,7.5 6.25,8.75 5,8.75 3.75,8.75 3.75,10 2.5,8.75 2.5,10 2.5,10 1.25,10 0,10 0,5 -105,0 0,-1.25 0,-3.75 0,-3.75 -1.25,-3.75 -1.25,-2.5 0,-3.75 -1.25,-3.75 -2.5,-2.5 -1.25,-3.75 -1.25,-2.5 -2.5,-2.5 -2.5,-2.5 -2.5,-2.5 -2.5,-2.5 -2.5,-2.5 -2.5,-2.5 -2.5,-1.25 -3.75,-2.5 -2.5,-1.25 -3.75,-1.25 -3.75,-1.25 -2.5,-1.25 -3.75,0 -3.75,-1.25 -3.75,0 -2.5,0 -3.75,0 -3.75,1.25 -3.75,0 -2.5,1.25 -3.75,1.25 -3.75,1.25 -2.5,1.25 -3.75,1.25 -2.5,1.25 -2.5,2.5 -3.75,2.5 -2.5,2.5 -2.5,2.5 -1.25,2.5 -2.5,2.5 -2.5,2.5 -1.25,3.75 -1.25,2.5 -1.25,3.75 -1.25,2.5 -1.25,3.75 -1.25,3.75 0,3.75 0,2.5 0,3.75 0,3.75 0,3.75 0,3.75 1.25,2.5 1.25,3.75 1.25,3.75 1.25,2.5 1.25,3.75 1.25,2.5 2.5,2.5 2.5,3.75 2.5,2.5 1.25,2.5 3.75,1.25 2.5,2.5 2.5,2.5 2.5,1.25 3.75,2.5 1.25,0 91.25,33.75 5,1.25 8.75,5 8.75,6.25 8.75,5 8.75,7.5 7.5,6.25 7.5,7.5 6.25,7.5 7.5,8.75 5,8.75 5,8.75 5,10 5,8.75 2.5,10 3.75,10 2.5,11.25 1.25,10 1.25,10 0,10 0,11.25 -1.25,10 -1.25,10 -2.5,11.25 -2.5,10 -3.75,10 -3.75,8.75 -5,10 -5,8.75 -6.25,8.75 -6.25,8.75 -7.5,7.5 -7.5,7.5 -7.5,7.5 -7.5,6.25 -8.75,6.25 -8.75,5 -10,5 -8.75,3.75 -10,3.75 -10,3.75 -10,2.5 -11.25,1.25 -10,1.25 -10,0 -11.25,0 -10,0 -10,-2.5 -11.25,-1.25 -10,-2.5 -10,-3.75 -8.75,-3.75 -10,-5 -8.75,-5 -8.75,-6.25 -8.75,-6.25 -7.5,-6.25 -7.5,-7.5 -7.5,-7.5 -6.25,-7.5 -6.25,-8.75 -6.25,-8.75 -5,-10 -3.75,-8.75 -3.75,-10 -3.75,-10 -2.5,-10 -2.5,-10 -1.25,-11.25 0,-10 0,-5 z"
       inkscape:connector-curvature="0" />
    <path
       id="9"
       style="fill:#000000;fill-opacity:1;fill-rule:evenodd;stroke:none"
       d="m 2848.75,6562.5 0,-575 -68.75,0 0,-111.25 68.75,0 0,-102.5 0,-5 0,-11.25 1.25,-10 2.5,-11.25 2.5,-10 3.75,-10 3.75,-10 5,-10 5,-10 5,-8.75 6.25,-8.75 7.5,-8.75 7.5,-7.5 7.5,-7.5 8.75,-6.25 8.75,-6.25 8.75,-6.25 8.75,-5 10,-5 10,-3.75 10,-3.75 11.25,-2.5 10,-1.25 11.25,-1.25 10,-1.25 6.25,0 102.5,0 0,128.75 -93.75,0 -1.25,0 -3.75,0 -2.5,0 -2.5,1.25 -2.5,0 -2.5,1.25 -2.5,1.25 -2.5,1.25 -2.5,1.25 -2.5,1.25 -1.25,1.25 -2.5,1.25 -2.5,2.5 -1.25,1.25 -1.25,2.5 -2.5,2.5 -1.25,2.5 -1.25,2.5 -1.25,1.25 -1.25,2.5 0,3.75 -1.25,2.5 0,2.5 -1.25,2.5 0,2.5 0,1.25 0,102.5 137.5,0 0,111.25 -137.5,0 0,575 -136.25,0 0,0 z m 427.5,0 0,-686.25 137.5,0 0,77.5 5,-5 8.75,-10 10,-10 11.25,-8.75 11.25,-8.75 11.25,-7.5 12.5,-7.5 12.5,-6.25 12.5,-5 12.5,-5 13.75,-3.75 13.75,-3.75 13.75,-2.5 13.75,-1.25 13.75,0 15,0 13.75,1.25 13.75,1.25 13.75,2.5 13.75,3.75 12.5,5 13.75,5 12.5,6.25 12.5,6.25 11.25,7.5 11.25,7.5 5,5 -96.25,120 -3.75,-2.5 -6.25,-5 -7.5,-5 -6.25,-5 -7.5,-3.75 -7.5,-2.5 -7.5,-3.75 -8.75,-2.5 -7.5,-1.25 -8.75,-2.5 -7.5,0 -8.75,-1.25 -7.5,0 -8.75,1.25 -8.75,0 -7.5,2.5 -8.75,1.25 -7.5,2.5 -7.5,2.5 -7.5,3.75 -7.5,3.75 -7.5,5 -6.25,3.75 -6.25,6.25 -6.25,5 -6.25,6.25 -5,6.25 -6.25,6.25 -3.75,6.25 -5,7.5 -3.75,7.5 -3.75,7.5 -2.5,7.5 -2.5,7.5 -2.5,8.75 -1.25,7.5 -1.25,8.75 0,8.75 0,3.75 0,420 -137.5,0 0,0 z m 1096.25,-291.25 -428.75,0 0,16.25 0,5 0,8.75 1.25,8.75 2.5,7.5 1.25,8.75 2.5,8.75 3.75,7.5 2.5,8.75 5,7.5 3.75,7.5 5,7.5 5,6.25 6.25,6.25 6.25,6.25 6.25,6.25 6.25,5 7.5,5 7.5,5 7.5,3.75 7.5,3.75 3.75,2.5 0,0 5,1.25 11.25,3.75 11.25,2.5 11.25,2.5 11.25,2.5 11.25,0 11.25,1.25 11.25,-1.25 11.25,-1.25 11.25,-1.25 11.25,-2.5 11.25,-2.5 10,-3.75 11.25,-5 10,-5 10,-5 8.75,-6.25 10,-6.25 8.75,-7.5 7.5,-7.5 8.75,-8.75 3.75,-3.75 103.75,88.75 -6.25,7.5 -13.75,13.75 -15,13.75 -15,12.5 -15,11.25 -16.25,10 -17.5,10 -17.5,8.75 -17.5,6.25 -18.75,6.25 -18.75,6.25 -18.75,3.75 -20,2.5 -18.75,2.5 -20,0 -18.75,0 -20,-2.5 -18.75,-2.5 -18.75,-3.75 -18.75,-5 -18.75,-6.25 -8.75,-3.75 0,0 -8.75,-2.5 -15,-7.5 -15,-7.5 -13.75,-10 -13.75,-8.75 -13.75,-11.25 -12.5,-11.25 -11.25,-11.25 -11.25,-13.75 -10,-12.5 -8.75,-13.75 -8.75,-15 -8.75,-15 -6.25,-15 -6.25,-16.25 -5,-16.25 -3.75,-16.25 -2.5,-16.25 -2.5,-16.25 -1.25,-17.5 0,-8.75 0,-136.25 0,-8.75 1.25,-18.75 2.5,-17.5 3.75,-17.5 3.75,-16.25 6.25,-17.5 6.25,-16.25 7.5,-16.25 8.75,-15 8.75,-15 11.25,-15 11.25,-13.75 12.5,-12.5 12.5,-12.5 13.75,-11.25 13.75,-10 15,-10 16.25,-8.75 16.25,-7.5 16.25,-6.25 16.25,-6.25 17.5,-3.75 17.5,-3.75 17.5,-1.25 17.5,-1.25 18.75,0 17.5,1.25 17.5,1.25 17.5,3.75 17.5,3.75 16.25,6.25 16.25,6.25 16.25,7.5 16.25,8.75 15,10 13.75,10 13.75,11.25 12.5,12.5 12.5,12.5 11.25,13.75 11.25,15 8.75,15 8.75,15 7.5,16.25 6.25,16.25 6.25,17.5 3.75,16.25 3.75,17.5 2.5,17.5 1.25,18.75 0,8.75 0,120 0,0 z m -428.75,-120 0,-5 1.25,-8.75 0,-10 2.5,-8.75 2.5,-8.75 2.5,-8.75 3.75,-8.75 3.75,-7.5 3.75,-8.75 5,-7.5 5,-7.5 6.25,-6.25 6.25,-7.5 6.25,-6.25 7.5,-5 7.5,-6.25 7.5,-5 8.75,-3.75 7.5,-3.75 8.75,-3.75 8.75,-2.5 8.75,-2.5 8.75,-1.25 10,-1.25 8.75,-1.25 8.75,0 8.75,1.25 10,1.25 8.75,1.25 8.75,2.5 8.75,2.5 8.75,3.75 7.5,3.75 8.75,3.75 7.5,5 7.5,6.25 7.5,5 6.25,6.25 6.25,7.5 6.25,6.25 5,7.5 5,7.5 3.75,8.75 3.75,7.5 3.75,8.75 2.5,8.75 2.5,8.75 2.5,8.75 1.25,10 0,8.75 0,5 -291.25,0 0,0 z m 617.5,411.25 0,-686.25 136.25,0 0,686.25 -136.25,0 0,0 z m 0,-822.5 0,-137.5 136.25,0 0,137.5 -136.25,0 z"
       inkscape:connector-curvature="0" />
  </g>
</svg>
