<?xml version="1.0" encoding="UTF-8" standalone="no"?>
<!-- Created with Inkscape (http://www.inkscape.org/) -->
<svg
   xmlns:svg="http://www.w3.org/2000/svg"
   xmlns="http://www.w3.org/2000/svg"
   version="1.0"
   width="490"
   height="270"
   id="svg2">
  <defs
     id="defs4" />
  <path
     d="M 38.78125,4.984375 C 20.356889,4.9843748 9.96875,12.12016 9.96875,33.203125 L 9.65625,236.79688 C 9.65625,257.87984 20.044391,265.01563 38.46875,265.01563 L 451.21875,264.98438 C 469.64311,264.98438 480.03124,257.84859 480.03125,236.76563 L 480.34375,33.234375 C 480.34375,12.15141 469.95561,5.0156248 451.53125,5.015625 L 38.78125,4.984375 z "
     style="fill:white;fill-opacity:1;fill-rule:evenodd;stroke:black;stroke-width:2;stroke-linecap:butt;stroke-linejoin:miter;stroke-miterlimit:4;stroke-dasharray:none;stroke-opacity:1"
     id="path1881" />
  <path
     d="M 453.3125,17.796875 L 36.78125,17.828125 C 28.356999,17.828125 23.40625,23.829135 23.40625,32.703125 L 23.40625,237.35938 C 23.406249,246.23335 28.35701,252.23438 36.78125,252.23438 L 453.28125,252.20313 C 461.70549,252.20312 466.65625,246.20211 466.65625,237.32813 L 466.65625,32.671875 C 466.65625,23.797885 461.73674,17.796875 453.3125,17.796875 z "
     style="fill:none;fill-opacity:1;fill-rule:evenodd;stroke:black;stroke-width:10.05090809;stroke-linecap:butt;stroke-linejoin:miter;stroke-miterlimit:4;stroke-dasharray:none;stroke-opacity:1"
     id="path3976" />
  <g
     transform="matrix(5.109517,0,0,5.109517,342.6028,-1459.973)"
     id="g8408">
    <path
       d="M -35.212572,318.50098 C -35.211894,322.66083 -38.583928,326.03341 -42.743778,326.03341 C -46.903628,326.03341 -50.275662,322.66083 -50.274984,318.50098 C -50.275662,314.34113 -46.903628,310.96855 -42.743778,310.96855 C -38.583928,310.96855 -35.211894,314.34113 -35.212572,318.50098 L -35.212572,318.50098 z "
       transform="matrix(1.103775,0,0,1.103775,8.653227,-30.10701)"
       style="opacity:1;fill:none;fill-opacity:1;fill-rule:nonzero;stroke:black;stroke-width:1.81196344;stroke-linecap:round;stroke-linejoin:round;stroke-miterlimit:4;stroke-dasharray:none;stroke-dashoffset:0;stroke-opacity:1"
       id="path3069" />
    <path
       d="M -36.78532,312.21483 C -36.78532,316.98239 -36.78532,314.68153 -36.78532,314.68153"
       style="fill:none;fill-opacity:1;fill-rule:evenodd;stroke:white;stroke-width:1.76695538px;stroke-linecap:butt;stroke-linejoin:miter;stroke-opacity:1"
       id="path6617" />
    <path
       d="M -47.292192,317.15326 C -41.96024,317.15326 -44.051937,317.15326 -44.051937,317.15326"
       style="fill:none;fill-opacity:1;fill-rule:evenodd;stroke:white;stroke-width:1.976125px;stroke-linecap:butt;stroke-linejoin:miter;stroke-opacity:1"
       id="path5730" />
    <path
       d="M -44.56103,313.67108 C -39.229078,313.67108 -41.320775,313.67108 -41.320775,313.67108"
       style="fill:none;fill-opacity:1;fill-rule:evenodd;stroke:white;stroke-width:1.976125px;stroke-linecap:butt;stroke-linejoin:miter;stroke-opacity:1"
       id="path8406" />
    <path
       d="M -55.667836,330.11748 C -54.347105,325.16278 -51.67252,315.22275 -51.515523,314.89338 C -51.186883,314.20393 -51.121917,313.65381 -50.034883,313.60631 L -42.886955,313.69168 L -42.886955,310.66214 L -50.333498,310.66214 C -50.178853,309.98746 -50.383012,309.31278 -49.164921,308.6381 L -42.934292,308.6381 L -42.934292,302.66225 C -42.934292,301.09614 -37.064554,301.09983 -37.064554,302.66225 L -37.064554,314.73308 C -37.064554,315.9654 -38.193966,316.81589 -39.857413,316.81589 L -49.324732,316.81589 L -53.490353,330.16481 C -53.745584,331.11734 -55.667836,330.83456 -55.667836,330.11748 z "
       style="fill:black;fill-opacity:1;fill-rule:evenodd;stroke:none;stroke-width:1px;stroke-linecap:butt;stroke-linejoin:miter;stroke-opacity:1"
       id="path6630" />
    <path
       d="M -53.443015,298.59131 C -53.442426,300.16032 -54.714197,301.43257 -56.283211,301.43257 C -57.852224,301.43257 -59.123995,300.16032 -59.123406,298.59131 C -59.123995,297.0223 -57.852224,295.75005 -56.283211,295.75005 C -54.714197,295.75005 -53.442426,297.0223 -53.443015,298.59131 z "
       transform="matrix(1.083333,0,0,1.083333,20.67569,-26.8545)"
       style="opacity:1;fill:black;fill-opacity:1;fill-rule:nonzero;stroke:none;stroke-width:2;stroke-linecap:round;stroke-linejoin:round;stroke-miterlimit:4;stroke-dasharray:none;stroke-dashoffset:0;stroke-opacity:1"
       id="path6632" />
  </g>
  <path
     d="M 193.34846,98.648056 L 193.34846,81.288525 L 196.84378,81.288525 L 196.84378,83.144891 L 196.91068,83.144891 C 198.01446,81.773539 199.51962,81.087855 201.42616,81.087837 C 202.64143,81.087855 203.60585,81.305267 204.31942,81.740074 C 205.03296,82.174915 205.70192,82.710083 206.3263,83.34558 C 207.69765,81.840435 209.52614,81.087855 211.81178,81.087837 C 213.16083,81.087855 214.46251,81.600724 215.71684,82.626447 C 216.97111,83.652202 217.59826,85.146212 217.59829,87.108484 L 217.59829,98.648056 L 214.10297,98.648056 L 214.10297,88.312613 C 214.10295,87.141943 213.77404,86.227698 213.11625,85.569874 C 212.45842,84.912076 211.64452,84.583171 210.67454,84.583157 C 209.67108,84.583171 208.84325,84.912076 208.19103,85.569874 C 207.53877,86.227698 207.21266,87.141943 207.21267,88.312613 L 207.21267,98.648056 L 203.73408,98.648056 L 203.73408,88.312613 C 203.73406,87.141943 203.40516,86.227698 202.74736,85.569874 C 202.08954,84.912076 201.27564,84.583171 200.30565,84.583157 C 199.3022,84.583171 198.47437,84.912076 197.82214,85.569874 C 197.16989,86.227698 196.84378,87.141943 196.84378,88.312613 L 196.84378,98.648056 L 193.34846,98.648056 z M 222.41481,98.648056 L 222.41481,81.288525 L 225.91013,81.288525 L 225.91013,98.648056 L 222.41481,98.648056 z M 222.41481,77.776481 L 222.41481,74.281162 L 225.91013,74.281162 L 225.91013,77.776481 L 222.41481,77.776481 z M 230.74337,81.288525 L 230.74337,76.02046 L 234.23869,76.02046 L 234.23869,81.288525 L 236.78074,81.288525 L 236.78074,83.964368 L 234.23869,83.964368 L 234.23869,94.065675 C 234.23868,94.935328 234.65121,95.370152 235.47626,95.370149 L 236.78074,95.370149 L 236.78074,98.648056 L 234.95782,98.648056 C 233.74254,98.648056 232.73631,98.280128 231.93913,97.544271 C 231.14195,96.808416 230.74336,95.754804 230.74337,94.383432 L 230.74337,83.964368 L 229.00407,83.964368 L 229.00407,81.288525 L 230.74337,81.288525 z M 252.26718,77.776481 L 252.26718,85.63677 L 257.75266,85.63677 C 259.12402,85.636783 260.14697,85.224258 260.82152,84.399193 C 261.49604,83.574156 261.8333,82.676635 261.83332,81.706626 C 261.8333,80.234931 261.30371,79.153445 260.24454,78.462166 C 259.56441,78.005064 258.68919,77.776502 257.61887,77.776481 L 252.26718,77.776481 z M 248.57117,98.648056 L 248.57117,74.281162 L 257.41818,74.281162 C 258.36586,74.281186 259.27732,74.38153 260.15256,74.582194 C 261.02776,74.782906 261.93922,75.251178 262.88693,75.987012 C 263.62277,76.55565 264.24714,77.338891 264.76002,78.336736 C 265.27287,79.334622 265.52931,80.491365 265.52933,81.80697 C 265.52931,83.546283 264.87986,85.201959 263.58098,86.774003 C 262.28206,88.346071 260.38389,89.132099 257.88645,89.13209 L 252.26718,89.13209 L 252.26718,98.648056 L 248.57117,98.648056 z M 277.72113,98.648056 L 277.72113,97.109447 L 277.63751,97.109447 C 276.93509,98.268979 275.50798,98.848744 273.35617,98.848745 C 271.41617,98.848744 269.91101,98.344237 268.84068,97.335221 C 267.77034,96.326208 267.23517,95.063545 267.23517,93.547231 C 267.23517,92.175868 267.70902,90.977314 268.65672,89.951567 C 269.60441,88.925837 271.0148,88.412967 272.88789,88.412957 L 277.72113,88.412957 L 277.72113,86.606763 C 277.72112,85.123914 276.53372,84.382483 274.15892,84.382469 C 272.50881,84.382483 271.4106,84.822882 270.86429,85.703666 L 268.12155,83.629888 C 269.33682,81.935204 271.28796,81.087855 273.97495,81.087837 C 276.11562,81.087855 277.85491,81.505955 279.19285,82.342138 C 280.53075,83.178355 281.19971,84.666791 281.19973,86.807451 L 281.19973,98.648056 L 277.72113,98.648056 z M 277.72113,92.560514 L 277.72113,91.289488 L 273.54013,91.289488 C 271.52209,91.289496 270.51308,91.986329 270.51308,93.379991 C 270.51308,93.970911 270.76673,94.48378 271.27402,94.9186 C 271.78131,95.353428 272.62588,95.57084 273.80771,95.570837 C 275.25712,95.57084 276.27171,95.409175 276.85149,95.085841 C 277.43124,94.762513 277.72112,93.920739 277.72113,92.560514 L 277.72113,92.560514 z M 285.73194,98.648056 L 285.73194,81.288525 L 289.22726,81.288525 L 289.22726,83.144891 L 289.29416,83.144891 C 290.37564,81.773539 291.8808,81.087855 293.80964,81.087837 C 295.08066,81.087855 296.29036,81.533828 297.43875,82.425759 L 294.91343,85.436082 C 294.15526,84.867479 293.38596,84.583171 292.60551,84.583157 C 291.747,84.583171 290.96934,84.870266 290.27251,85.444444 C 289.57567,86.018648 289.22725,86.941255 289.22726,88.212269 L 289.22726,98.648056 L 285.73194,98.648056 z M 299.04426,98.648056 L 299.04426,74.281162 L 302.53958,74.281162 L 302.53958,89.449846 L 302.60647,89.449846 L 309.27936,81.288525 L 313.46036,81.288525 L 307.47316,88.078477 L 314.27984,98.648056 L 309.89815,98.648056 L 305.28232,90.536908 L 302.53958,93.664299 L 302.53958,98.648056 L 299.04426,98.648056 z M 325.9532,98.648056 L 325.9532,97.109447 L 325.86958,97.109447 C 325.16717,98.268979 323.74005,98.848744 321.58824,98.848745 C 319.64824,98.848744 318.14308,98.344237 317.07275,97.335221 C 316.00241,96.326208 315.46724,95.063545 315.46725,93.547231 C 315.46724,92.175868 315.94109,90.977314 316.88879,89.951567 C 317.83648,88.925837 319.24687,88.412967 321.11996,88.412957 L 325.9532,88.412957 L 325.9532,86.606763 C 325.95319,85.123914 324.76579,84.382483 322.39099,84.382469 C 320.74088,84.382483 319.64267,84.822882 319.09636,85.703666 L 316.35362,83.629888 C 317.56889,81.935204 319.52003,81.087855 322.20702,81.087837 C 324.34769,81.087855 326.08699,81.505955 327.42492,82.342138 C 328.76283,83.178355 329.43179,84.666791 329.4318,86.807451 L 329.4318,98.648056 L 325.9532,98.648056 z M 325.9532,92.560514 L 325.9532,91.289488 L 321.7722,91.289488 C 319.75416,91.289496 318.74515,91.986329 318.74515,93.379991 C 318.74515,93.970911 318.9988,94.48378 319.5061,94.9186 C 320.01339,95.353428 320.85795,95.57084 322.03978,95.570837 C 323.48919,95.57084 324.50378,95.409175 325.08356,95.085841 C 325.66331,94.762513 325.95319,93.920739 325.9532,92.560514 L 325.9532,92.560514 z M 333.96401,92.828098 L 333.96401,81.288525 L 337.45933,81.288525 L 337.45933,91.640693 C 337.45933,92.822529 337.78544,93.739562 338.43769,94.391794 C 339.08992,95.044034 339.91775,95.370152 340.9212,95.370149 C 341.89119,95.370152 342.7023,95.044034 343.35455,94.391794 C 344.00677,93.739562 344.33289,92.822529 344.3329,91.640693 L 344.3329,81.288525 L 347.82822,81.288525 L 347.82822,98.648056 L 344.3329,98.648056 L 344.3329,96.808414 L 344.26601,96.808414 C 343.18451,98.168635 341.6905,98.848744 339.78397,98.848745 C 338.41259,98.848744 337.09976,98.338662 335.84546,97.318497 C 334.59116,96.298334 333.96401,94.801536 333.96401,92.828098 L 333.96401,92.828098 z M 350.43717,95.754801 L 352.87888,93.346543 C 354.39519,94.829409 356.2181,95.57084 358.34763,95.570837 C 359.33992,95.57084 360.15939,95.384089 360.80606,95.010582 C 361.45271,94.637083 361.77605,94.082404 361.77606,93.346543 C 361.77605,92.331958 361.06806,91.763342 359.65211,91.640693 L 356.57489,91.356384 C 355.13662,91.244898 353.94364,90.771052 352.99595,89.934843 C 352.04825,89.098651 351.5744,87.933546 351.57441,86.439523 C 351.5744,84.67794 352.19319,83.345595 353.43077,82.442483 C 354.66834,81.539403 356.20695,81.087855 358.0466,81.087837 C 359.5629,81.087855 360.8618,81.302479 361.9433,81.731712 C 363.02477,82.160978 363.99476,82.732381 364.85328,83.445924 L 362.69588,85.987975 C 362.00461,85.519715 361.29105,85.135063 360.5552,84.834017 C 359.81934,84.532999 358.98314,84.382483 358.0466,84.382469 C 356.93166,84.382483 356.15678,84.580384 355.72196,84.976171 C 355.28713,85.371986 355.06972,85.870919 355.06973,86.472971 C 355.06972,86.852061 355.23139,87.203265 355.55472,87.526584 C 355.87805,87.849926 356.48011,88.045039 357.36092,88.111925 L 360.23745,88.312613 C 362.03248,88.435266 363.32023,88.989945 364.1007,89.976653 C 364.88114,90.963378 365.27136,92.14242 365.27138,93.513783 C 365.27136,95.219636 364.57453,96.535258 363.18087,97.460651 C 361.78719,98.386047 360.08692,98.848744 358.08005,98.848745 C 355.19236,98.848744 352.64474,97.817431 350.43717,95.754801 L 350.43717,95.754801 z M 382.58074,98.648056 L 378.95163,86.506419 L 378.88473,86.506419 L 375.25562,98.648056 L 372.1784,98.648056 L 366.62602,81.288525 L 370.32203,81.288525 L 373.65011,93.446887 L 373.71701,93.446887 L 377.64715,81.288525 L 380.1892,81.288525 L 384.11935,93.446887 L 384.18624,93.446887 L 387.51432,81.288525 L 391.21033,81.288525 L 385.65796,98.648056 L 382.58074,98.648056 z M 407.01452,91.289488 L 396.21081,91.289488 C 396.2108,92.71661 396.59824,93.786947 397.37313,94.5005 C 398.148,95.214061 399.1375,95.57084 400.34164,95.570837 C 401.77989,95.57084 403.05092,95.013373 404.15472,93.898435 L 406.68004,96.055834 C 405.82153,97.059276 404.85432,97.775621 403.77843,98.20487 C 402.7025,98.63412 401.57921,98.848744 400.40854,98.848745 C 398.62463,98.848744 396.89649,98.271766 395.22409,97.117809 C 393.55169,95.963854 392.71549,93.602983 392.71549,90.035187 C 392.71549,86.656947 393.48758,84.321162 395.03176,83.027823 C 396.57594,81.734516 398.18981,81.087855 399.87337,81.087837 C 401.77989,81.087855 403.44672,81.748453 404.87385,83.069633 C 406.30095,84.390845 407.01451,86.171951 407.01452,88.412957 L 407.01452,91.289488 z M 396.21081,88.412957 L 403.53593,88.412957 C 403.48017,87.108495 403.11224,86.11063 402.43214,85.419358 C 401.75202,84.728112 400.8991,84.382483 399.87337,84.382469 C 398.83647,84.382483 397.97518,84.728112 397.28951,85.419358 C 396.60382,86.11063 396.24425,87.108495 396.21081,88.412957 L 396.21081,88.412957 z M 410.79415,98.648056 L 410.79415,81.288525 L 414.28947,81.288525 L 414.28947,98.648056 L 410.79415,98.648056 z M 410.79415,77.776481 L 410.79415,74.281162 L 414.28947,74.281162 L 414.28947,77.776481 L 410.79415,77.776481 z M 416.99876,95.754801 L 419.44046,93.346543 C 420.95677,94.829409 422.77969,95.57084 424.90922,95.570837 C 425.9015,95.57084 426.72098,95.384089 427.36765,95.010582 C 428.0143,94.637083 428.33763,94.082404 428.33764,93.346543 C 428.33763,92.331958 427.62965,91.763342 426.21369,91.640693 L 423.13647,91.356384 C 421.6982,91.244898 420.50522,90.771052 419.55753,89.934843 C 418.60984,89.098651 418.13599,87.933546 418.13599,86.439523 C 418.13599,84.67794 418.75478,83.345595 419.99236,82.442483 C 421.22993,81.539403 422.76854,81.087855 424.60819,81.087837 C 426.12449,81.087855 427.42338,81.302479 428.50488,81.731712 C 429.58636,82.160978 430.55635,82.732381 431.41486,83.445924 L 429.25746,85.987975 C 428.56619,85.519715 427.85263,85.135063 427.11679,84.834017 C 426.38092,84.532999 425.54472,84.382483 424.60819,84.382469 C 423.49324,84.382483 422.71837,84.580384 422.28355,84.976171 C 421.84872,85.371986 421.63131,85.870919 421.63131,86.472971 C 421.63131,86.852061 421.79297,87.203265 422.11631,87.526584 C 422.43963,87.849926 423.0417,88.045039 423.9225,88.111925 L 426.79903,88.312613 C 428.59406,88.435266 429.88181,88.989945 430.66228,89.976653 C 431.44272,90.963378 431.83295,92.14242 431.83296,93.513783 C 431.83295,95.219636 431.13611,96.535258 429.74246,97.460651 C 428.34878,98.386047 426.64851,98.848744 424.64163,98.848745 C 421.75395,98.848744 419.20633,97.817431 416.99876,95.754801 L 416.99876,95.754801 z "
     style="font-size:34.25078964px;font-style:normal;font-variant:normal;font-weight:normal;font-stretch:normal;text-align:center;line-height:100%;writing-mode:lr-tb;text-anchor:middle;fill:black;fill-opacity:1;stroke:none;stroke-width:1px;stroke-linecap:butt;stroke-linejoin:miter;stroke-opacity:1;font-family:DIN 1451 Mittelschrift"
     id="text8416" />
  <path
     d="M 231.79433,134.30843 L 231.79433,109.94153 L 235.28965,109.94153 L 246.31077,127.26761 L 246.37767,127.26761 L 246.37767,109.94153 L 250.0904,109.94153 L 250.0904,134.30843 L 246.59508,134.30843 L 235.57395,116.98234 L 235.49033,116.98234 L 235.49033,134.30843 L 231.79433,134.30843 z M 254.90692,134.30843 L 254.90692,116.9489 L 258.40224,116.9489 L 258.40224,118.80526 L 258.46914,118.80526 C 259.55061,117.43391 261.05578,116.74822 262.98462,116.74821 C 264.25563,116.74822 265.46534,117.1942 266.61373,118.08613 L 264.08841,121.09645 C 263.33024,120.52785 262.56094,120.24354 261.78049,120.24353 C 260.92198,120.24354 260.14432,120.53064 259.44749,121.10481 C 258.75065,121.67902 258.40223,122.60163 258.40224,123.87264 L 258.40224,134.30843 L 254.90692,134.30843 z M 268.31958,134.30843 L 268.31958,130.82983 L 271.8149,130.82983 L 271.8149,134.30843 L 268.31958,134.30843 z "
     style="font-size:34.25078964px;font-style:normal;font-variant:normal;font-weight:normal;font-stretch:normal;text-align:center;line-height:100%;writing-mode:lr-tb;text-anchor:middle;fill:black;fill-opacity:1;stroke:none;stroke-width:1px;stroke-linecap:butt;stroke-linejoin:miter;stroke-opacity:1;font-family:DIN 1451 Mittelschrift"
     id="text8420" />
  <path
     d="M 257.95449,205.45253 L 257.95449,169.17061 L 253.61553,169.17061 L 253.61553,162.55887 L 257.95449,162.55887 L 257.95449,156.89756 C 257.95448,152.90302 259.05644,149.96218 261.26036,148.07502 C 263.46426,146.18798 266.2467,145.24443 269.60768,145.24437 L 275.18634,145.24437 L 275.18634,153.34375 L 270.31018,153.34375 C 267.80321,153.3438 266.54974,154.52841 266.54975,156.89756 L 266.54975,162.55887 L 275.18634,162.55887 L 275.18634,169.17061 L 266.54975,169.17061 L 266.54975,205.45253 L 257.95449,205.45253 z M 280.0625,205.45253 L 280.0625,162.55887 L 288.69908,162.55887 L 288.69908,167.14576 L 288.86438,167.14576 C 291.53661,163.75729 295.25571,162.06303 300.02169,162.06298 C 303.16224,162.06303 306.15129,163.16498 308.98886,165.36886 L 302.74903,172.80706 C 300.87568,171.4021 298.97481,170.69961 297.04641,170.69957 C 294.92512,170.69961 293.00358,171.40899 291.2818,172.82773 C 289.55997,174.24653 288.69907,176.5262 288.69908,179.66674 L 288.69908,205.45253 L 280.0625,205.45253 z M 346.1799,187.27025 L 319.485,187.27025 C 319.48499,190.79652 320.44231,193.44122 322.35698,195.20433 C 324.27161,196.96747 326.71657,197.84904 329.69188,197.84903 C 333.24566,197.84904 336.38623,196.47159 339.11361,193.71669 L 345.35344,199.04741 C 343.23213,201.52682 340.84227,203.29683 338.18383,204.35746 C 335.52533,205.4181 332.74978,205.94841 329.85717,205.94841 C 325.44932,205.94841 321.17925,204.52276 317.04692,201.67144 C 312.91458,198.82014 310.84841,192.98666 310.84842,184.17099 C 310.84841,175.8237 312.75617,170.05221 316.5717,166.8565 C 320.38722,163.66086 324.37492,162.06303 328.53482,162.06298 C 333.24566,162.06303 337.36422,163.6953 340.89051,166.95981 C 344.41674,170.22439 346.17987,174.62532 346.1799,180.16262 L 346.1799,187.27025 z M 319.485,180.16262 L 337.58464,180.16262 C 337.44687,176.93943 336.53775,174.4738 334.8573,172.76574 C 333.17679,171.05774 331.0693,170.20373 328.53482,170.20369 C 325.97275,170.20373 323.8446,171.05774 322.15036,172.76574 C 320.45609,174.4738 319.56764,176.93943 319.485,180.16262 L 319.485,180.16262 z M 355.51899,205.45253 L 355.51899,162.55887 L 364.15557,162.55887 L 364.15557,205.45253 L 355.51899,205.45253 z M 355.51899,153.88096 L 355.51899,145.24437 L 364.15557,145.24437 L 364.15557,153.88096 L 355.51899,153.88096 z "
     style="font-size:84.63027954px;font-style:normal;font-variant:normal;font-weight:normal;font-stretch:normal;text-align:center;line-height:100%;writing-mode:lr-tb;text-anchor:middle;fill:black;fill-opacity:1;stroke:none;stroke-width:1px;stroke-linecap:butt;stroke-linejoin:miter;stroke-opacity:1;font-family:DIN 1451 Mittelschrift"
     id="text8424" />
</svg>
