<?xml version="1.0" encoding="UTF-8" standalone="no"?>
<!-- Created with Inkscape (http://www.inkscape.org/) -->

<svg
   xmlns:dc="http://purl.org/dc/elements/1.1/"
   xmlns:cc="http://creativecommons.org/ns#"
   xmlns:rdf="http://www.w3.org/1999/02/22-rdf-syntax-ns#"
   xmlns:svg="http://www.w3.org/2000/svg"
   xmlns="http://www.w3.org/2000/svg"
   xmlns:xlink="http://www.w3.org/1999/xlink"
   xmlns:sodipodi="http://sodipodi.sourceforge.net/DTD/sodipodi-0.dtd"
   xmlns:inkscape="http://www.inkscape.org/namespaces/inkscape"
   version="1.0"
   width="490"
   height="360"
   id="svg2"
   sodipodi:version="0.32"
   inkscape:version="0.47 "
   sodipodi:docname="Zusatzzeichen_1024-17.svg">
  <metadata
     id="metadata10">
    <rdf:RDF>
      <cc:Work
         rdf:about="">
        <dc:format>image/svg+xml</dc:format>
        <dc:type
           rdf:resource="http://purl.org/dc/dcmitype/StillImage" />
        <dc:title></dc:title>
      </cc:Work>
    </rdf:RDF>
  </metadata>
  <sodipodi:namedview
     inkscape:window-height="964"
     inkscape:window-width="1280"
     inkscape:pageshadow="2"
     inkscape:pageopacity="0.0"
     guidetolerance="10.0"
     gridtolerance="10.0"
     objecttolerance="10.0"
     borderopacity="1.0"
     bordercolor="#666666"
     pagecolor="#ffffff"
     id="base"
     inkscape:zoom="0.90509668"
     inkscape:cx="129.44538"
     inkscape:cy="244.57999"
     inkscape:window-x="-4"
     inkscape:window-y="-4"
     inkscape:current-layer="svg2"
     showguides="true"
     inkscape:guide-bbox="true"
     showgrid="false"
     inkscape:window-maximized="1" />
  <defs
     id="defs4">
    <inkscape:perspective
       sodipodi:type="inkscape:persp3d"
       inkscape:vp_x="0 : 180 : 1"
       inkscape:vp_y="0 : 1000 : 0"
       inkscape:vp_z="490 : 180 : 1"
       inkscape:persp3d-origin="245 : 120 : 1"
       id="perspective15" />
    <inkscape:perspective
       id="perspective12688"
       inkscape:persp3d-origin="0.5 : 0.33333333 : 1"
       inkscape:vp_z="1 : 0.5 : 1"
       inkscape:vp_y="0 : 1000 : 0"
       inkscape:vp_x="0 : 0.5 : 1"
       sodipodi:type="inkscape:persp3d" />
    <inkscape:perspective
       id="perspective2886"
       inkscape:persp3d-origin="0.5 : 0.33333333 : 1"
       inkscape:vp_z="1 : 0.5 : 1"
       inkscape:vp_y="0 : 1000 : 0"
       inkscape:vp_x="0 : 0.5 : 1"
       sodipodi:type="inkscape:persp3d" />
    <inkscape:perspective
       id="perspective2866"
       inkscape:persp3d-origin="0.5 : 0.33333333 : 1"
       inkscape:vp_z="1 : 0.5 : 1"
       inkscape:vp_y="0 : 1000 : 0"
       inkscape:vp_x="0 : 0.5 : 1"
       sodipodi:type="inkscape:persp3d" />
    <inkscape:perspective
       id="perspective2866-4"
       inkscape:persp3d-origin="0.5 : 0.33333333 : 1"
       inkscape:vp_z="1 : 0.5 : 1"
       inkscape:vp_y="0 : 1000 : 0"
       inkscape:vp_x="0 : 0.5 : 1"
       sodipodi:type="inkscape:persp3d" />
  </defs>
  <path
     d="M 38.78125,4.6190618 C 20.35689,4.6190483 9.96875,14.244672 9.96875,42.683954 L 9.65625,317.31604 C 9.65625,345.75531 20.04439,355.38094 38.46875,355.38094 L 451.21875,355.33878 C 469.64311,355.33878 480.03124,345.71316 480.03125,317.27389 L 480.34375,42.726108 C 480.34375,14.286826 469.95561,4.6612021 451.53125,4.6612156 L 38.78125,4.6190618 z "
     style="fill:white;fill-opacity:1;fill-rule:evenodd;stroke:black;stroke-width:3;stroke-linecap:butt;stroke-linejoin:miter;stroke-miterlimit:4;stroke-dasharray:none;stroke-opacity:1;opacity:1"
     id="path1881" />
  <path
     d="M 453.23342,19.074797 L 36.79782,19.117707 C 28.375505,19.117707 23.425891,27.356247 23.425891,39.539027 L 23.425891,320.50387 C 23.425891,332.68661 28.375515,340.9252 36.79782,340.9252 L 453.20218,340.88229 C 461.62449,340.88228 466.57411,332.64373 466.57411,320.46097 L 466.57411,39.496127 C 466.57411,27.313347 461.65573,19.074797 453.23342,19.074797 z "
     style="fill:none;fill-opacity:1;fill-rule:evenodd;stroke:black;stroke-width:12;stroke-linecap:butt;stroke-linejoin:miter;stroke-miterlimit:4;stroke-dasharray:none;stroke-opacity:1;opacity:1"
     id="path3976" />
  <g
     style="opacity:1"
     transform="matrix(0.473007,0,0,0.473007,126.7482,36.5098)"
     id="layer1">
    <g
       transform="translate(10.1636,8.029761)"
       id="g4548">
      <path
         d="m 295.23238,14.905561 c -15.27689,2.60844 -22.93441,10.06106 -29,18.53125 l -17.78125,107.687499 -211.062497,0 c -22.633974,3.4177 -18.15625,13.70231 -18.15625,21.96875 l 17.15625,105.0625 15.125,0 c 11.923756,-39.65325 92.739157,-38.21796 105.312497,0 l 90.6875,0 c -4.37792,-69.28605 95.27097,-166.91193 195.96875,-71.75 l 0,-56.90625 0.25,0 0,-124.593749 -148.5,0 z m -6,27.59375 110.375,0 0.3125,97.374999 -129.84375,1.0625 15.9375,-92.937499 c 0.55544,-1.89677 0.83604,-3.80624 3.21875,-5.5 z"
         style="fill:#000000;fill-opacity:1;fill-rule:evenodd;stroke:none"
         id="path1882" />
      <path
         d="m 665.82779,917.76086 c 0,42.6206 -34.55082,77.17142 -77.17142,77.17142 -42.6206,0 -77.17142,-34.55082 -77.17142,-77.17142 0,-42.6206 34.55082,-77.17142 77.17142,-77.17142 42.6206,0 77.17142,34.55082 77.17142,77.17142 z"
         transform="translate(-230.0275,-650.8975)"
         style="fill:none;stroke:#000000;stroke-width:50;stroke-linecap:round;stroke-linejoin:round;stroke-miterlimit:4;stroke-opacity:1;stroke-dasharray:none;stroke-dashoffset:0"
         id="path1887" />
      <path
         d="m 665.82779,917.76086 c 0,42.6206 -34.55082,77.17142 -77.17142,77.17142 -42.6206,0 -77.17142,-34.55082 -77.17142,-77.17142 0,-42.6206 34.55082,-77.17142 77.17142,-77.17142 42.6206,0 77.17142,34.55082 77.17142,77.17142 z"
         transform="matrix(0.591604,0,0,0.591604,-244.0191,-234.3611)"
         style="fill:none;stroke:#000000;stroke-width:50;stroke-linecap:round;stroke-linejoin:round;stroke-miterlimit:4;stroke-opacity:1;stroke-dasharray:none;stroke-dashoffset:0"
         id="path2776" />
    </g>
  </g>
  <use
     id="use5815"
     xlink:href="#TBAS_VZ_1049-11"
     x="177.86443"
     y="-11866.218"
     width="1"
     height="1"
     transform="matrix(2.6175254,0,0,2.6175254,97214.837,15.20719)" />
  <path
     d="m 100.39187,273.74019 0,-3.39132 c -0.645815,1.10727 -1.499674,2.01877 -2.560765,2.73365 -1.0615,0.7153 -2.237855,1.07295 -3.529885,1.07295 -2.999338,0 -4.89099,-0.81912 -5.675364,-2.4455 -0.784373,-1.62638 -1.211507,-2.7917 -1.280584,-3.50699 -0.06908,-0.70344 -0.10382,-1.66112 -0.10382,-2.84933 l 0,-17.68376 c 0,-1.97258 0.669108,-3.64515 2.007325,-5.01811 1.337808,-1.37255 3.022229,-2.06496 5.052443,-2.06496 1.245842,0 2.410753,0.32332 3.495142,0.96913 1.084389,0.64622 1.949693,1.49967 2.595508,2.56076 l 0,-16.54174 6.64448,0 0,46.16522 -6.64448,0 z m -0.484363,-25.36686 c -0.646219,-0.89963 -1.592044,-1.34966 -2.837886,-1.34966 -0.64581,0 -1.233988,0.17331 -1.764942,0.5191 -0.530546,0.33476 -0.888194,0.75004 -1.072536,1.22295 -0.18475,0.48436 -0.288571,0.99202 -0.31146,1.51112 -0.0233,0.53054 -0.03474,0.92294 -0.03474,1.19965 l 0,11.72023 c 0,0.45003 0.01144,0.91109 0.03474,1.37255 0.02289,0.45003 0.241974,1.05006 0.657255,1.7768 0.41528,0.72674 1.26914,1.09583 2.561169,1.09583 1.337808,0 2.214557,-0.40383 2.629837,-1.22295 0.415276,-0.81912 0.622926,-1.62638 0.622926,-2.44549 l 0,-0.99202 0,-12.08932 c 0,-0.38054 -0.0114,-0.76148 -0.0343,-1.15347 -0.0233,-0.40383 -0.17331,-0.78437 -0.450023,-1.16532 z"
     class="fil0"
     id="36231896"
     style="opacity:1;fill:#000000;fill-opacity:1" />
  <path
     d="m 126.0011,273.74019 0,-3.32225 c -0.78478,1.19966 -1.64967,2.12259 -2.5955,2.7684 -0.94624,0.64622 -2.08826,0.96913 -3.42607,0.96913 -1.33821,0 -2.5955,-0.36909 -3.77226,-1.10728 -1.17677,-0.73859 -1.99547,-1.5806 -2.45694,-2.52643 -0.46147,-0.94582 -0.72674,-1.71875 -0.79623,-2.31878 -0.0691,-0.59962 -0.10382,-1.47637 -0.10382,-2.62984 l 0,-24.77868 6.64449,0 0,22.287 c 0,0.50724 0.0118,1.02635 0.0347,1.5573 0.0229,0.53054 0.27672,1.14202 0.76149,1.83402 0.48435,0.692 1.32636,1.0382 2.52601,1.0382 0.60003,0 1.15347,-0.16145 1.66112,-0.48436 0.50766,-0.32331 0.86531,-0.70385 1.07295,-1.14202 0.20764,-0.43858 0.33435,-0.91149 0.38054,-1.41915 0.0462,-0.50724 0.0695,-0.96871 0.0695,-1.38399 l 0,-22.287 6.64449,0 0,32.94573 -6.64449,0 z m 0.13816,-39.10545 0,-7.68269 5.74485,0 0,7.68269 -5.74485,0 z m -12.45842,0 0,-7.68269 5.74485,0 0,7.68269 -5.74485,0 z"
     class="fil0"
     id="path10"
     style="opacity:1;fill:#000000;fill-opacity:1" />
  <path
     d="m 153.68633,240.37918 0,6.78305 c -0.3229,-0.0924 -0.64581,-0.16145 -0.96871,-0.20764 -0.32332,-0.0462 -0.62292,-0.0691 -0.90005,-0.0691 -2.16878,0 -3.8299,0.73818 -4.98336,2.21455 -1.15347,1.47678 -1.7302,3.25317 -1.7302,5.32957 l 0,19.31055 -6.64449,0 0,-32.94573 6.64449,0 0,3.52989 c 1.15346,-1.43019 2.5722,-2.4455 4.25662,-3.04512 1.68401,-0.60003 3.12605,-0.90005 4.3257,-0.90005 z"
     class="fil0"
     id="path12"
     style="opacity:1;fill:#000000;fill-opacity:1" />
  <path
     d="m 159.29262,273.74019 0,-27.68523 -3.25317,0 0,-5.2605 3.25317,0 0,-4.56767 c 0,-2.58406 0.64581,-4.49901 1.93784,-5.74485 1.29203,-1.24584 2.49168,-2.04166 3.59937,-2.38787 1.10728,-0.3462 2.32982,-0.5191 3.66804,-0.5191 l 2.28404,0 0,6.09065 -2.4222,0 c -1.61534,0 -2.4226,0.85386 -2.4226,2.56117 l 0,4.56767 4.8448,0 0,5.2605 -4.8448,0 0,27.68523 -6.64449,0 z"
     class="fil0"
     id="path14"
     style="opacity:1;fill:#000000;fill-opacity:1" />
  <path
     d="m 183.27507,267.4419 c 0.95727,0 1.74164,-0.30001 2.32982,-0.90004 0.58859,-0.59963 0.95768,-1.384 1.09624,-2.35312 l 6.64449,0 0,0.76148 c 0,1.0149 -0.21949,2.03021 -0.65766,3.04512 -0.43858,1.01531 -1.34966,2.29589 -2.73407,3.84134 -1.38399,1.54586 -3.55277,2.31879 -6.50592,2.31879 -1.89165,0 -3.63371,-0.50766 -5.22575,-1.52256 -1.59164,-1.01531 -2.68747,-2.13404 -3.2875,-3.35699 -0.60003,-1.22295 -0.98057,-2.33023 -1.14202,-3.32224 -0.16146,-0.99202 -0.24239,-1.97258 -0.24239,-2.94171 l 0,-12.52749 c 0,-2.72221 0.98057,-5.08719 2.94171,-7.09451 1.96114,-2.00692 4.30281,-3.01079 7.02502,-3.01079 2.81459,0 5.15668,0.98057 7.02544,2.94171 1.86876,1.96114 2.80314,4.349 2.80314,7.16359 l 0,9.13617 -13.15082,0 0,4.91429 c 0,0.692 0.33476,1.34966 0.99201,1.97258 0.65767,0.62292 1.36152,0.93438 2.08826,0.93438 z m 0.1729,-20.55638 c -0.87675,0 -1.63824,0.30001 -2.28405,0.89964 -0.64581,0.60003 -0.96912,1.66112 -0.96912,3.18368 l 0,3.25316 6.50633,0 0,-3.25316 c 0,-1.19966 -0.25382,-2.18023 -0.76148,-2.9413 -0.50766,-0.76148 -1.33822,-1.14202 -2.49168,-1.14202 z"
     class="fil0"
     id="path16"
     style="opacity:1;fill:#000000;fill-opacity:1" />
  <path
     d="m 217.29333,243.77091 c 0.36909,0.55344 0.62292,1.22255 0.76148,2.00692 0.13857,0.78478 0.20764,1.56916 0.20764,2.35353 l 0,25.60883 -6.64449,0 0,-23.18663 c 0,-2.4455 -1.08438,-3.66804 -3.25316,-3.66804 -0.96872,0 -1.75309,0.36909 -2.35312,1.10728 -0.60003,0.73818 -0.89964,1.59204 -0.89964,2.56076 l 0,23.18663 -6.64449,0 0,-32.94573 6.64449,0 0,3.18409 c 1.47637,-2.3993 3.52988,-3.59937 6.15972,-3.59937 2.67644,0 4.68335,1.13058 6.02157,3.39173 z"
     class="fil0"
     id="path18"
     style="opacity:1;fill:#000000;fill-opacity:1" />
  <path
     d="m 249.54705,273.74019 0,-3.32225 c -0.78478,1.19966 -1.64967,2.12259 -2.5955,2.7684 -0.94623,0.64622 -2.08825,0.96913 -3.42606,0.96913 -1.33822,0 -2.59551,-0.36909 -3.77227,-1.10728 -1.17677,-0.73859 -1.99547,-1.5806 -2.45694,-2.52643 -0.46147,-0.94582 -0.72674,-1.71875 -0.79623,-2.31878 -0.0691,-0.59962 -0.10382,-1.47637 -0.10382,-2.62984 l 0,-24.77868 6.64449,0 0,22.287 c 0,0.50724 0.0119,1.02635 0.0347,1.5573 0.0229,0.53054 0.27672,1.14202 0.76149,1.83402 0.48435,0.692 1.32636,1.0382 2.52601,1.0382 0.60004,0 1.15347,-0.16145 1.66113,-0.48436 0.50765,-0.32331 0.8653,-0.70385 1.07294,-1.14202 0.20764,-0.43858 0.33435,-0.91149 0.38054,-1.41915 0.0462,-0.50724 0.0695,-0.96871 0.0695,-1.38399 l 0,-22.287 6.64449,0 0,32.94573 -6.64449,0 z m 0.13816,-39.10545 0,-7.68269 5.74485,0 0,7.68269 -5.74485,0 z m -12.45842,0 0,-7.68269 5.74485,0 0,7.68269 -5.74485,0 z"
     class="fil0"
     id="path20"
     style="opacity:1;fill:#000000;fill-opacity:1" />
  <path
     d="m 274.87917,240.58682 c 2.72221,0 4.499,0.70386 5.32956,2.0997 0.83057,1.39585 1.31492,2.50313 1.45349,3.29895 0.13815,0.80767 0.20764,1.52297 0.20764,2.16878 l 0,17.94944 c 0,1.15346 -0.0809,2.11114 -0.24239,2.89551 -0.16145,0.77293 -0.73818,1.83402 -1.7302,3.1608 -0.99242,1.32636 -2.68787,1.99547 -5.08718,1.99547 -1.29203,0 -2.45735,-0.33435 -3.49555,-1.00346 -1.0382,-0.66911 -1.9031,-1.5806 -2.59551,-2.73407 l 0,3.32225 -6.64448,0 0,-46.16522 6.64448,0 0,16.61122 c 1.47678,-2.3993 3.52989,-3.59937 6.16014,-3.59937 z m -2.97605,6.50634 c -0.92293,0 -1.68442,0.36909 -2.28404,1.10728 -0.60003,0.73818 -0.90005,1.59204 -0.90005,2.56076 l 0,13.08133 c 0,0.99202 0.1962,1.84588 0.58859,2.57262 0.39198,0.72674 1.25729,1.09583 2.5955,1.09583 0.96872,0 1.76495,-0.28857 2.38787,-0.85345 0.62292,-0.57714 0.93438,-1.22295 0.93438,-1.96114 l 0,-13.96953 c 0,-1.04964 -0.30002,-1.92639 -0.90005,-2.60695 -0.59962,-0.68096 -1.40729,-1.02675 -2.4222,-1.02675 z"
     class="fil0"
     id="path22"
     style="opacity:1;fill:#000000;fill-opacity:1" />
  <path
     d="m 296.57757,267.4419 c 0.95727,0 1.74165,-0.30001 2.32982,-0.90004 0.58859,-0.59963 0.95768,-1.384 1.09625,-2.35312 l 6.64448,0 0,0.76148 c 0,1.0149 -0.21949,2.03021 -0.65766,3.04512 -0.43858,1.01531 -1.34966,2.29589 -2.73407,3.84134 -1.38399,1.54586 -3.55277,2.31879 -6.50592,2.31879 -1.89165,0 -3.63371,-0.50766 -5.22575,-1.52256 -1.59164,-1.01531 -2.68747,-2.13404 -3.2875,-3.35699 -0.60003,-1.22295 -0.98057,-2.33023 -1.14202,-3.32224 -0.16146,-0.99202 -0.24239,-1.97258 -0.24239,-2.94171 l 0,-12.52749 c 0,-2.72221 0.98057,-5.08719 2.94171,-7.09451 1.96114,-2.00692 4.30281,-3.01079 7.02503,-3.01079 2.81458,0 5.15667,0.98057 7.02543,2.94171 1.86876,1.96114 2.80314,4.349 2.80314,7.16359 l 0,9.13617 -13.15082,0 0,4.91429 c 0,0.692 0.33476,1.34966 0.99202,1.97258 0.65766,0.62292 1.36151,0.93438 2.08825,0.93438 z m 0.1729,-20.55638 c -0.87675,0 -1.63823,0.30001 -2.28404,0.89964 -0.64581,0.60003 -0.96913,1.66112 -0.96913,3.18368 l 0,3.25316 6.50634,0 0,-3.25316 c 0,-1.19966 -0.25383,-2.18023 -0.76149,-2.9413 -0.50765,-0.76148 -1.33821,-1.14202 -2.49168,-1.14202 z"
     class="fil0"
     id="path24"
     style="opacity:1;fill:#000000;fill-opacity:1" />
  <path
     d="m 327.06595,240.37918 0,6.78305 c -0.32291,-0.0924 -0.64581,-0.16145 -0.96872,-0.20764 -0.32331,-0.0462 -0.62292,-0.0691 -0.90005,-0.0691 -2.16877,0 -3.8299,0.73818 -4.98336,2.21455 -1.15347,1.47678 -1.7302,3.25317 -1.7302,5.32957 l 0,19.31055 -6.64449,0 0,-32.94573 6.64449,0 0,3.52989 c 1.15347,-1.43019 2.5722,-2.4455 4.25662,-3.04512 1.68402,-0.60003 3.12605,-0.90005 4.32571,-0.90005 z"
     class="fil0"
     id="path26"
     style="opacity:1;fill:#000000;fill-opacity:1" />
  <path
     d="m 344.30009,240.58682 c 1.19965,0 2.33023,0.32332 3.39132,0.95768 1.0615,0.64581 1.82257,1.39585 2.28404,2.23786 0.46147,0.85345 0.75004,1.56875 0.86531,2.16878 0.11526,0.59962 0.17289,1.37255 0.17289,2.34167 l 0,25.44738 -6.64448,0 0,-22.94425 c 0,-1.09583 -0.25383,-1.98403 -0.76108,-2.67603 -0.50766,-0.68096 -1.31533,-1.02675 -2.42261,-1.02675 -0.96912,0 -1.76494,0.36909 -2.38786,1.11872 -0.62292,0.75004 -0.93438,1.60349 -0.93438,2.54932 l 0,22.97899 -6.64449,0 0,-46.16522 6.64449,0 0,16.61122 c 1.52256,-2.3993 3.66845,-3.59937 6.43685,-3.59937 z"
     class="fil0"
     id="path28"
     style="opacity:1;fill:#000000;fill-opacity:1" />
  <path
     d="m 358.55819,244.18619 c 0.96912,-1.19965 2.11114,-2.13403 3.42606,-2.80314 1.31492,-0.66911 2.73407,-1.00387 4.25663,-1.00387 1.70731,0 3.21842,0.31146 4.53334,0.93438 1.31533,0.62293 2.54932,1.69587 3.70319,3.21843 1.15347,1.52297 1.7302,3.50699 1.7302,5.95249 l 0,13.15041 c 0,2.49169 -0.55384,4.48757 -1.66112,5.98724 -1.10728,1.49966 -2.35312,2.62983 -3.73753,3.39132 -1.3844,0.76148 -2.7917,1.14202 -4.22188,1.14202 -1.98443,0 -3.79516,-0.49621 -5.43339,-1.48823 -1.63823,-0.99201 -2.7684,-2.09929 -3.39132,-3.32224 -0.62292,-1.22254 -1.00387,-2.23786 -1.14202,-3.04512 -0.13856,-0.80767 -0.20764,-1.69586 -0.20764,-2.66499 l 0,-13.15041 c 0,-2.49168 0.71489,-4.59098 2.14548,-6.29829 z m 7.82125,2.62984 c -1.01531,0 -1.82257,0.3462 -2.42261,1.0382 -0.60003,0.69241 -0.89963,1.56916 -0.89963,2.63025 l 0,13.15041 c 0,1.0615 0.28816,1.97258 0.86489,2.73407 0.57674,0.76148 1.39585,1.14202 2.45735,1.14202 1.43018,0 2.31838,-0.41528 2.66458,-1.24584 0.3462,-0.83056 0.5191,-1.7535 0.5191,-2.7684 l 0,-13.01226 c 0,-1.0149 -0.28857,-1.88021 -0.8653,-2.5955 -0.57674,-0.7153 -1.34966,-1.07295 -2.31838,-1.07295 z"
     class="fil0"
     id="path30"
     style="opacity:1;fill:#000000;fill-opacity:1" />
  <path
     d="m 388.11218,227.57497 0,36.68284 c 0,1.10769 0.18475,1.91495 0.55385,2.42261 0.36909,0.50765 1.10727,0.76148 2.21455,0.76148 l 0.48477,0 0,6.29829 -1.45348,0 c -1.0615,0 -2.05352,-0.11527 -2.97645,-0.34621 -0.92253,-0.23053 -1.84547,-0.70344 -2.7684,-1.41873 -0.92294,-0.7153 -1.60349,-1.63824 -2.04166,-2.76841 -0.43858,-1.13057 -0.65767,-2.34167 -0.65767,-3.6337 l 0,-37.99817 6.64449,0 z"
     class="fil0"
     id="path32"
     style="opacity:1;fill:#000000;fill-opacity:1" />
  <path
     d="m 405.34632,267.4419 1.52256,0 0,6.29829 -2.0764,0 c -1.24584,0 -2.35312,-0.12671 -3.32224,-0.38054 -0.96913,-0.25383 -1.91495,-0.77293 -2.83789,-1.5573 -0.92253,-0.78438 -1.56875,-1.64968 -1.93784,-2.59551 -0.36909,-0.94623 -0.55384,-2.11114 -0.55384,-3.49555 l 0,-19.72582 -3.25276,0 0,-5.19101 3.25276,0 0,-9.96632 6.64448,0 0,9.96632 4.08373,0 0,5.19101 -4.08373,0 0,18.54947 c 0,1.10728 0.15001,1.86876 0.45003,2.28404 0.30001,0.41528 1.00346,0.62292 2.11114,0.62292 z"
     class="fil0"
     id="path34"
     style="opacity:1;fill:#000000;fill-opacity:1" />
  <path
     d="m 190.9925,328.21709 -3.73752,-19.7949 -3.73753,19.7949 -5.74485,0 -7.89033,-32.94572 6.99069,0 4.15281,20.48731 3.73752,-20.48731 4.84481,0 3.80701,20.48731 4.08332,-20.48731 6.99069,0 -7.82125,32.94572 -5.67537,0 z"
     class="fil0"
     id="path36"
     style="fill:#000000;fill-opacity:1" />
  <path
     d="m 216.70556,321.91881 c 0.95727,0 1.74164,-0.30002 2.32982,-0.90005 0.58859,-0.59962 0.95768,-1.38399 1.09624,-2.35312 l 6.64449,0 0,0.76149 c 0,1.0149 -0.21949,2.03021 -0.65766,3.04511 -0.43858,1.01532 -1.34966,2.2959 -2.73407,3.84135 -1.38399,1.54586 -3.55277,2.31878 -6.50592,2.31878 -1.89165,0 -3.63371,-0.50765 -5.22575,-1.52255 -1.59164,-1.01532 -2.68747,-2.13404 -3.2875,-3.35699 -0.60003,-1.22295 -0.98057,-2.33023 -1.14202,-3.32225 -0.16146,-0.99201 -0.24239,-1.97258 -0.24239,-2.9417 l 0,-12.52749 c 0,-2.72222 0.98057,-5.08719 2.94171,-7.09452 1.96114,-2.00691 4.30281,-3.01078 7.02502,-3.01078 2.81459,0 5.15668,0.98057 7.02544,2.94171 1.86876,1.96113 2.80314,4.349 2.80314,7.16359 l 0,9.13617 -13.15082,0 0,4.91429 c 0,0.69199 0.33476,1.34966 0.99201,1.97258 0.65767,0.62292 1.36152,0.93438 2.08826,0.93438 z m 0.1729,-20.55639 c -0.87675,0 -1.63824,0.30002 -2.28405,0.89964 -0.64581,0.60003 -0.96912,1.66112 -0.96912,3.18368 l 0,3.25317 6.50633,0 0,-3.25317 c 0,-1.19965 -0.25382,-2.18022 -0.76148,-2.94129 -0.50766,-0.76149 -1.33822,-1.14203 -2.49168,-1.14203 z"
     class="fil0"
     id="path38"
     style="fill:#000000;fill-opacity:1" />
  <path
     d="m 247.19393,294.85609 0,6.78305 c -0.3229,-0.0924 -0.64581,-0.16145 -0.96871,-0.20764 -0.32331,-0.0462 -0.62292,-0.0691 -0.90005,-0.0691 -2.16878,0 -3.8299,0.73819 -4.98336,2.21456 -1.15347,1.47678 -1.7302,3.25317 -1.7302,5.32957 l 0,19.31054 -6.64449,0 0,-32.94572 6.64449,0 0,3.52989 c 1.15346,-1.43019 2.5722,-2.4455 4.25662,-3.04512 1.68401,-0.60003 3.12605,-0.90005 4.3257,-0.90005 z"
     class="fil0"
     id="path40"
     style="fill:#000000;fill-opacity:1" />
  <path
     d="m 264.28951,328.21709 0,-3.39132 c -0.64581,1.10728 -1.49967,2.01877 -2.56076,2.73366 -1.0615,0.7153 -2.23785,1.07294 -3.52988,1.07294 -2.99934,0 -4.89099,-0.81911 -5.67537,-2.44549 -0.78437,-1.62638 -1.2115,-2.7917 -1.28058,-3.507 -0.0691,-0.70344 -0.10382,-1.66112 -0.10382,-2.84933 l 0,-17.68375 c 0,-1.97258 0.66911,-3.64515 2.00732,-5.01811 1.33781,-1.37255 3.02223,-2.06496 5.05245,-2.06496 1.24584,0 2.41075,0.32331 3.49514,0.96912 1.08439,0.64622 1.94969,1.49967 2.5955,2.56077 l 0,-16.54174 6.64449,0 0,46.16521 -6.64449,0 z m -0.48436,-25.36685 c -0.64621,-0.89964 -1.59204,-1.34966 -2.83788,-1.34966 -0.64581,0 -1.23399,0.1733 -1.76494,0.5191 -0.53055,0.33476 -0.8882,0.75004 -1.07254,1.22295 -0.18475,0.48436 -0.28857,0.99201 -0.31146,1.51112 -0.0233,0.53054 -0.0347,0.92293 -0.0347,1.19965 l 0,11.72023 c 0,0.45002 0.0114,0.91108 0.0347,1.37255 0.0229,0.45002 0.24197,1.05005 0.65726,1.7768 0.41528,0.72674 1.26913,1.09583 2.56116,1.09583 1.33781,0 2.21456,-0.40384 2.62984,-1.22295 0.41528,-0.81912 0.62292,-1.62638 0.62292,-2.4455 l 0,-0.99201 0,-12.08932 c 0,-0.38054 -0.0114,-0.76149 -0.0343,-1.15347 -0.0233,-0.40384 -0.17331,-0.78437 -0.45003,-1.16532 z"
     class="fil0"
     id="path42"
     style="fill:#000000;fill-opacity:1" />
  <path
     d="m 285.84976,321.91881 c 0.95728,0 1.74165,-0.30002 2.32983,-0.90005 0.58858,-0.59962 0.95768,-1.38399 1.09624,-2.35312 l 6.64449,0 0,0.76149 c 0,1.0149 -0.2195,2.03021 -0.65767,3.04511 -0.43858,1.01532 -1.34966,2.2959 -2.73406,3.84135 -1.384,1.54586 -3.55278,2.31878 -6.50593,2.31878 -1.89165,0 -3.6337,-0.50765 -5.22575,-1.52255 -1.59163,-1.01532 -2.68747,-2.13404 -3.2875,-3.35699 -0.60003,-1.22295 -0.98057,-2.33023 -1.14202,-3.32225 -0.16145,-0.99201 -0.24238,-1.97258 -0.24238,-2.9417 l 0,-12.52749 c 0,-2.72222 0.98057,-5.08719 2.9417,-7.09452 1.96114,-2.00691 4.30282,-3.01078 7.02503,-3.01078 2.81459,0 5.15667,0.98057 7.02543,2.94171 1.86877,1.96113 2.80315,4.349 2.80315,7.16359 l 0,9.13617 -13.15082,0 0,4.91429 c 0,0.69199 0.33475,1.34966 0.99201,1.97258 0.65766,0.62292 1.36151,0.93438 2.08825,0.93438 z m 0.1729,-20.55639 c -0.87675,0 -1.63823,0.30002 -2.28404,0.89964 -0.64581,0.60003 -0.96912,1.66112 -0.96912,3.18368 l 0,3.25317 6.50633,0 0,-3.25317 c 0,-1.19965 -0.25383,-2.18022 -0.76148,-2.94129 -0.50766,-0.76149 -1.33822,-1.14203 -2.49169,-1.14203 z"
     class="fil0"
     id="path44"
     style="fill:#000000;fill-opacity:1" />
  <path
     d="m 319.86802,298.24782 c 0.3691,0.55344 0.62292,1.22254 0.76149,2.00692 0.13856,0.78478 0.20764,1.56915 0.20764,2.35353 l 0,25.60882 -6.64449,0 0,-23.18663 c 0,-2.44549 -1.08439,-3.66804 -3.25317,-3.66804 -0.96871,0 -1.75309,0.3691 -2.35312,1.10728 -0.60003,0.73819 -0.89964,1.59205 -0.89964,2.56076 l 0,23.18663 -6.64448,0 0,-32.94572 6.64448,0 0,3.18409 c 1.47638,-2.39931 3.52989,-3.59937 6.15973,-3.59937 2.67643,0 4.68335,1.13058 6.02156,3.39173 z"
     class="fil0"
     id="path46"
     style="fill:#000000;fill-opacity:1" />
</svg>
