<?xml version="1.0" encoding="UTF-8" standalone="no"?>
<!-- Created with Inkscape (http://www.inkscape.org/) -->

<svg
   xmlns:dc="http://purl.org/dc/elements/1.1/"
   xmlns:cc="http://creativecommons.org/ns#"
   xmlns:rdf="http://www.w3.org/1999/02/22-rdf-syntax-ns#"
   xmlns:svg="http://www.w3.org/2000/svg"
   xmlns="http://www.w3.org/2000/svg"
   xmlns:sodipodi="http://sodipodi.sourceforge.net/DTD/sodipodi-0.dtd"
   xmlns:inkscape="http://www.inkscape.org/namespaces/inkscape"
   version="1.0"
   width="473.6875"
   height="353.76187"
   id="svg2"
   sodipodi:version="0.32"
   inkscape:version="0.48.1 r9760"
   sodipodi:docname="Zusatzzeichen_1052-31.svg">
  <metadata
     id="metadata10">
    <rdf:RDF>
      <cc:Work
         rdf:about="">
        <dc:format>image/svg+xml</dc:format>
        <dc:type
           rdf:resource="http://purl.org/dc/dcmitype/StillImage" />
        <dc:title />
      </cc:Work>
    </rdf:RDF>
  </metadata>
  <sodipodi:namedview
     inkscape:window-height="976"
     inkscape:window-width="1280"
     inkscape:pageshadow="2"
     inkscape:pageopacity="0.0"
     guidetolerance="10.0"
     gridtolerance="10.0"
     objecttolerance="10.0"
     borderopacity="1.0"
     bordercolor="#666666"
     pagecolor="#ffffff"
     id="base"
     inkscape:zoom="0.74246212"
     inkscape:cx="591.71505"
     inkscape:cy="149.06184"
     inkscape:window-x="10"
     inkscape:window-y="0"
     inkscape:current-layer="svg2"
     showguides="true"
     inkscape:guide-bbox="true"
     showgrid="false"
     inkscape:window-maximized="0"
     fit-margin-top="0"
     fit-margin-left="0"
     fit-margin-right="0"
     fit-margin-bottom="0" />
  <defs
     id="defs4" />
  <path
     d="M 30.625,1.5 C 12.20064,1.4999865 1.8125,11.12561 1.8125,39.564892 L 1.5,314.19698 c 0,28.43927 10.38814,38.0649 28.8125,38.0649 l 412.75,-0.0422 c 18.42436,0 28.81249,-9.62562 28.8125,-38.06489 l 0.3125,-274.547784 c 0,-28.439282 -10.38814,-38.0649057 -28.8125,-38.0648922 L 30.625,1.4999598 z"
     style="fill:#ffffff;fill-opacity:1;fill-rule:evenodd;stroke:#000000;stroke-width:3;stroke-linecap:butt;stroke-linejoin:miter;stroke-miterlimit:4;stroke-opacity:1;stroke-dasharray:none"
     id="path1881"
     inkscape:connector-curvature="0" />
  <path
     d="m 445.07717,15.955735 -416.4356,0.04291 c -8.422315,0 -13.371929,8.23854 -13.371929,20.42132 l 0,280.964845 c 0,12.18274 4.949624,20.42133 13.371929,20.42133 l 416.40436,-0.0429 c 8.42231,-10e-6 13.37193,-8.23856 13.37193,-20.42132 l 0,-280.964845 c 0,-12.18278 -4.91838,-20.42133 -13.34069,-20.42133 z"
     style="fill:none;stroke:#000000;stroke-width:12;stroke-linecap:butt;stroke-linejoin:miter;stroke-miterlimit:4;stroke-opacity:1;stroke-dasharray:none"
     id="path3976"
     inkscape:connector-curvature="0" />
  <path
     id="path5599"
     style="fill:#154889;fill-opacity:1;fill-rule:evenodd;stroke:none"
     d="m 137.92918,268.30576 c 9.89383,-3.75013 20.08057,-6.5556 41.35805,0 11.39255,3.46693 23.30204,3.73723 35.85959,0 12.52914,-4.40442 25.60484,-5.36533 39.68461,0 12.1382,4.3189 26.44387,2.58269 40.13274,-0.96877 13.55325,-4.68674 24.54058,-2.34073 37.08489,0.96877 l 0,10.87837 c -13.70632,-5.56113 -27.41265,-4.33212 -41.11898,0 -14.27595,5.55111 -24.87745,3.14017 -35.1424,0 -15.34591,-6.86311 -28.79811,-4.44627 -41.83618,0 -14.92356,5.5458 -25.57318,2.65955 -36.33771,0 -17.97365,-6.35607 -28.96785,-3.20417 -39.92368,0 l 0.23907,-10.87837 z"
     inkscape:connector-curvature="0" />
  <path
     id="path5597"
     style="fill:#154889;fill-opacity:1;fill-rule:evenodd;stroke:none"
     d="m 137.92918,288.37974 c 9.89383,-3.75013 20.08057,-6.5556 41.35805,0 11.39255,3.46694 23.30204,3.73723 35.85959,0 12.52914,-4.40442 25.60484,-5.36532 39.68461,0 12.1382,4.3189 26.44387,2.58269 40.13274,-0.96876 13.55325,-4.68675 24.54058,-2.34073 37.08489,0.96876 l 0,10.87837 c -13.70632,-5.56113 -27.41265,-4.33211 -41.11898,0 -14.27595,5.55111 -24.87745,3.14018 -35.1424,0 -15.34591,-6.86311 -28.79811,-4.44626 -41.83618,0 -14.92356,5.5458 -25.57318,2.65955 -36.33771,0 -17.97365,-6.35607 -28.96785,-3.20417 -39.92368,0 l 0.23907,-10.87837 z"
     inkscape:connector-curvature="0" />
  <g
     transform="matrix(0.70924342,0,0,0.71030035,584.9002,-374.79413)"
     style="fill:#000000;fill-opacity:1"
     id="g3818">
    <path
       inkscape:connector-curvature="0"
       d="m -613.62771,804.14653 28.2567,0 3.41413,5.1636 0.10603,72.52375 -5.30144,5.15301 -25.51056,0.31809 -4.37899,-4.40021 0.21206,-75.18507 3.20207,-3.57317 z"
       style="fill:#000000;fill-opacity:1;fill-rule:evenodd;stroke:none"
       id="path3780" />
    <path
       inkscape:connector-curvature="0"
       d="m -572.4182,804.6503 -3.21875,3.5625 -0.21875,75.1875 4.40625,4.40625 25.5,-0.3125 5.3125,-5.15625 -0.0312,-23.75 2.90625,-3.0625 20.125,-0.0937 0.0312,0.9375 2.8125,-0.0625 c 0.085,2.00605 11.24413,12.24998 21.53125,12.25 l 0,-0.0625 c 10.2784,-0.0206 21.38382,-10.21473 21.46875,-12.21875 l 2.8125,0.0625 0.0625,-0.96875 20.125,0.125 2.78125,2.90625 -0.0625,25 4.375,4.40625 25.5,-0.3125 5.3125,-5.15625 -0.125,-72.53125 -3.40625,-5.15625 -28.25,0 -3.21875,3.5625 -0.0625,23.75 -4.03125,4.15625 -18.96875,-0.0625 0.0312,-0.96875 -3.0625,-0.0312 c 10e-6,-2.89056 -11.0087,-12.0625 -21.3125,-12.0625 l 0,0.0312 c -10.29457,0.0191 -21.28126,9.20618 -21.28125,12.09375 l -3.0625,0 0,1 -18.96875,0.0312 -4.125,-4.25 -0.0312,-22.09375 -3.40625,-5.15625 -28.25,0 z"
       style="fill:#000000;fill-opacity:1;fill-rule:evenodd;stroke:none"
       id="path3784" />
    <path
       inkscape:connector-curvature="0"
       d="m -401.78864,804.05321 28.2567,0 3.41413,5.1636 0.10603,72.52375 -5.30144,5.15301 -25.51056,0.31809 -4.37899,-4.40021 0.21206,-75.18507 3.20207,-3.57317 z"
       style="fill:#000000;fill-opacity:1;fill-rule:evenodd;stroke:none"
       id="path3788" />
  </g>
  <path
     inkscape:connector-curvature="0"
     d="m 137.24451,162.93608 0,29.73506 194.62494,0 0.10419,-29.74498 -26.79278,0.001 c -39.76085,24.09167 -100.79624,23.51713 -140.97485,0.007 l -26.9615,0.001 z"
     style="fill:#000000;fill-opacity:1;fill-rule:evenodd;stroke:none"
     id="path3823" />
  <path
     inkscape:connector-curvature="0"
     d="m 325.37447,114.69072 a 90.504887,57.497906 0 1 1 -181.00977,0 90.504887,57.497906 0 1 1 181.00977,0 z"
     style="fill:#ec7c25;fill-opacity:1;fill-rule:nonzero;stroke:#000000;stroke-width:11.18332576999999972;stroke-linecap:round;stroke-linejoin:round;stroke-miterlimit:4;stroke-opacity:1;stroke-dasharray:none;stroke-dashoffset:0"
     id="path3827" />
</svg>
