<?xml version="1.0" encoding="UTF-8" standalone="no"?>
<!-- Created with Inkscape (http://www.inkscape.org/) -->
<svg
   xmlns:svg="http://www.w3.org/2000/svg"
   xmlns="http://www.w3.org/2000/svg"
   version="1.0"
   width="490"
   height="270"
   id="svg2">
  <defs
     id="defs4" />
  <path
     d="M 38.78125,4.984375 C 20.356889,4.9843748 9.96875,12.12016 9.96875,33.203125 L 9.65625,236.79688 C 9.65625,257.87984 20.044391,265.01563 38.46875,265.01563 L 451.21875,264.98438 C 469.64311,264.98438 480.03124,257.84859 480.03125,236.76563 L 480.34375,33.234375 C 480.34375,12.15141 469.95561,5.0156248 451.53125,5.015625 L 38.78125,4.984375 z "
     style="fill:white;fill-opacity:1;fill-rule:evenodd;stroke:black;stroke-width:2;stroke-linecap:butt;stroke-linejoin:miter;stroke-miterlimit:4;stroke-dasharray:none;stroke-opacity:1"
     id="path1881" />
  <path
     d="M 453.3125,17.796875 L 36.78125,17.828125 C 28.356999,17.828125 23.40625,23.829135 23.40625,32.703125 L 23.40625,237.35938 C 23.406249,246.23335 28.35701,252.23438 36.78125,252.23438 L 453.28125,252.20313 C 461.70549,252.20312 466.65625,246.20211 466.65625,237.32813 L 466.65625,32.671875 C 466.65625,23.797885 461.73674,17.796875 453.3125,17.796875 z "
     style="fill:none;fill-opacity:1;fill-rule:evenodd;stroke:black;stroke-width:10.05090809;stroke-linecap:butt;stroke-linejoin:miter;stroke-miterlimit:4;stroke-dasharray:none;stroke-opacity:1"
     id="path3976" />
  <path
     d="M 70.119712,93.565282 L 70.784536,175.12999 L 142.90561,214.82323 L 214.56945,175.18188 L 214.79106,93.83879 L 142.90561,53.207213 L 70.119712,93.565282 z "
     style="fill:black;fill-opacity:1;fill-rule:evenodd;stroke:none;stroke-width:1px;stroke-linecap:butt;stroke-linejoin:miter;stroke-opacity:1"
     id="path20920" />
  <path
     d="M 80.239381,108.66835 L 80.239381,158.97358 L 204.11877,158.97358 L 204.11877,108.66835 L 80.239381,108.66835 z "
     style="fill:white;fill-opacity:1;fill-rule:evenodd;stroke:none;stroke-width:1px;stroke-linecap:butt;stroke-linejoin:miter;stroke-opacity:1"
     id="path20922" />
  <path
     d="M 268.24488,174.03299 L 268.24488,125.57292 L 262.44955,125.57292 L 262.44955,116.74193 L 268.24488,116.74193 L 268.24488,109.18039 C 268.24487,103.84507 269.7167,99.917119 272.66038,97.396533 C 275.60402,94.8761 279.3204,93.615847 283.80951,93.615768 L 291.26066,93.615768 L 291.26066,104.43374 L 284.7478,104.43374 C 281.39936,104.4338 279.72516,106.01602 279.72518,109.18039 L 279.72518,116.74193 L 291.26066,116.74193 L 291.26066,125.57292 L 279.72518,125.57292 L 279.72518,174.03299 L 268.24488,174.03299 z M 301.75712,174.03299 L 301.75712,116.74193 L 313.2926,116.74193 L 313.2926,122.86843 L 313.51338,122.86843 C 317.08255,118.3426 322.04998,116.07966 328.41568,116.0796 C 332.61036,116.07966 336.6027,117.55149 340.39272,120.4951 L 332.05847,130.42997 C 329.55632,128.55343 327.01741,127.61514 324.44174,127.61509 C 321.60843,127.61514 319.04193,128.56262 316.74221,130.45756 C 314.44245,132.35259 313.29258,135.39744 313.2926,139.59212 L 313.2926,174.03299 L 301.75712,174.03299 z M 394.05065,149.74776 L 358.39552,149.74776 C 358.39551,154.45765 359.67416,157.99004 362.23148,160.34496 C 364.78877,162.6999 368.05439,163.87737 372.02837,163.87735 C 376.77499,163.87737 380.96971,162.03757 384.61253,158.35798 L 392.94678,165.47797 C 390.11345,168.7896 386.92142,171.15372 383.37067,172.57036 C 379.81984,173.987 376.11266,174.69532 372.24914,174.69532 C 366.36178,174.69532 360.65845,172.79114 355.13909,168.98277 C 349.61971,165.17441 346.86003,157.38291 346.86004,145.60824 C 346.86003,134.45915 349.40814,126.75044 354.50436,122.48207 C 359.60057,118.21382 364.92675,116.07966 370.48294,116.0796 C 376.77499,116.07966 382.27596,118.25981 386.98586,122.62006 C 391.69567,126.98041 394.0506,132.85853 394.05065,140.25445 L 394.05065,149.74776 z M 358.39552,140.25445 L 382.57037,140.25445 C 382.38634,135.94937 381.17208,132.65616 378.92758,130.37477 C 376.683,128.09348 373.86812,126.95281 370.48294,126.95276 C 367.06091,126.95281 364.21843,128.09348 361.95551,130.37477 C 359.69255,132.65616 358.50589,135.94937 358.39552,140.25445 L 358.39552,140.25445 z M 410.50804,174.03299 L 410.50804,116.74193 L 422.04352,116.74193 L 422.04352,174.03299 L 410.50804,174.03299 z M 410.50804,105.15125 L 410.50804,93.615768 L 422.04352,93.615768 L 422.04352,105.15125 L 410.50804,105.15125 z "
     style="font-size:170.25292969px;font-style:normal;font-variant:normal;font-weight:normal;font-stretch:normal;text-align:center;line-height:100%;letter-spacing:6px;writing-mode:lr-tb;text-anchor:middle;fill:black;fill-opacity:1;stroke:none;stroke-width:1px;stroke-linecap:butt;stroke-linejoin:miter;stroke-opacity:1;font-family:DIN 1451 Mittelschrift"
     id="text20924" />
</svg>
