<?xml version="1.0" encoding="UTF-8" standalone="no"?>
<!-- Created with Inkscape (http://www.inkscape.org/) -->

<svg
   xmlns:svg="http://www.w3.org/2000/svg"
   xmlns="http://www.w3.org/2000/svg"
   version="1.1"
   width="490"
   height="270"
   id="svg2"
   xml:space="preserve"><defs
     id="defs6" /><g
     transform="matrix(1.25,0,0,-1.25,0,270)"
     id="g12"><g
       transform="matrix(0.02761867,0,0,0.02761867,0.769724,-0.83027603)"
       id="g14"><path
         d="M 953.207,8.33203 C 431.367,8.33203 8.33203,431.367 8.33203,953.207 l 0,5905.473 c 0,521.84 423.03497,944.88 944.87497,944.88 l 12283.393,0 c 521.8,0 944.9,-423.04 944.9,-944.88 l 0,-5905.473 c 0,-521.84 -423.1,-944.87497 -944.9,-944.87497 l -12283.393,0"
         id="path16"
         style="fill:#ffffff;fill-opacity:1;fill-rule:nonzero;stroke:none" /><path
         d="M 953.207,8.33203 C 431.367,8.33203 8.33203,431.367 8.33203,953.207 l 0,5905.473 c 0,521.84 423.03497,944.88 944.87497,944.88 l 12283.393,0 c 521.8,0 944.9,-423.04 944.9,-944.88 l 0,-5905.473 c 0,-521.84 -423.1,-944.87497 -944.9,-944.87497 l -12283.393,0 z"
         id="path18"
         style="fill:none;stroke:none" /><path
         d="m 953.207,244.551 c -391.383,0 -708.656,317.273 -708.656,708.656 l 0,5905.473 c 0,391.39 317.273,708.66 708.656,708.66 l 12283.393,0 c 391.4,0 708.7,-317.27 708.7,-708.66 l 0,-5905.473 c 0,-391.383 -317.3,-708.656 -708.7,-708.656 l -12283.393,0"
         id="path20"
         style="fill:#231f20;fill-opacity:1;fill-rule:nonzero;stroke:none" /><path
         d="m 953.207,598.883 c -195.691,0 -354.324,158.633 -354.324,354.324 l 0,5905.473 c 0,195.7 158.633,354.33 354.324,354.33 l 12283.393,0 c 195.7,0 354.3,-158.63 354.3,-354.33 l 0,-5905.473 c 0,-195.691 -158.6,-354.324 -354.3,-354.324 l -12283.393,0"
         id="path22"
         style="fill:#ffffff;fill-opacity:1;fill-rule:nonzero;stroke:none" /><path
         d="m 1776.27,4425.63 0,1818.89 422.25,0 c 233.19,0 422.24,-189.06 422.24,-422.25 l 0,-974.4 c 0,-233.19 -189.05,-422.24 -422.24,-422.24 l -422.25,0 z m 259.85,243.6 146.17,0 c 98.65,0 178.64,79.98 178.64,178.64 l 0,974.4 c 0,98.66 -79.99,178.65 -178.64,178.65 l -146.17,0 0,-1331.69 z m 1624.01,-243.6 -259.84,0 0,129.92 c -47.99,-89.97 -141.65,-146.16 -243.61,-146.16 -152.47,0 -276.08,123.6 -276.08,276.07 l 0,1039.37 259.84,0 0,-925.68 c 0,-71.75 58.17,-129.92 129.93,-129.92 71.75,0 129.92,58.17 129.92,129.92 l 0,925.68 259.84,0 0,-1299.2 z m 259.83,0 0,1299.2 259.85,0 0,-146.64 c 83.24,103.02 208.59,162.88 341.04,162.88 l 0,-272.86 c -26.21,8.63 -53.62,13.02 -81.2,13.02 -143.51,0 -259.84,-116.33 -259.84,-259.84 l 0,-795.76 -259.85,0 z m 1477.85,389.76 0,-16.24 c 0,-215.26 -174.5,-389.76 -389.76,-389.76 -215.26,0 -389.76,174.5 -389.76,389.76 l 0,552.16 c 0,215.26 174.5,389.76 389.76,389.76 215.26,0 389.76,-174.5 389.76,-389.76 l 0,-16.24 -259.85,0 0,16.24 c 0,71.76 -58.16,129.92 -129.91,129.92 -71.75,0 -129.92,-58.16 -129.92,-129.92 l 0,-552.16 c 0,-71.75 58.17,-129.92 129.92,-129.92 71.75,0 129.91,58.17 129.91,129.92 l 0,16.24 259.85,0 z m 162.4,-389.76 0,1818.89 259.84,0 0,-649.61 c 47.98,89.97 141.64,146.16 243.6,146.16 152.48,0 276.08,-123.61 276.08,-276.08 l 0,-1039.36 -259.84,0 0,925.68 c 0,71.76 -58.16,129.92 -129.91,129.92 -71.77,0 -129.93,-58.16 -129.93,-129.92 l 0,-925.68 -259.84,0 z m 1266.72,-146.17 c 0,-71.75 58.17,-129.91 129.93,-129.91 71.75,0 129.91,58.16 129.91,129.91 l 0,276.09 c -47.98,-89.97 -141.64,-146.16 -243.59,-146.16 -152.48,0 -276.09,123.6 -276.09,276.07 l 0,779.53 c 0,152.47 123.61,276.08 276.09,276.08 101.95,0 195.61,-56.19 243.59,-146.16 l 0,129.92 259.85,0 0,-1445.37 c 0,-215.25 -174.5,-389.75 -389.76,-389.75 -215.26,0 -389.77,174.5 -389.77,389.75 l 259.84,0 z m 259.84,519.69 0,552.16 c 0,71.76 -58.16,129.92 -129.91,129.92 -71.76,0 -129.93,-58.16 -129.93,-129.92 l 0,-552.16 c 0,-71.75 58.17,-129.92 129.93,-129.92 71.75,0 129.91,58.17 129.91,129.92 z m 1266.73,-373.52 -259.84,0 0,129.92 c -47.98,-89.97 -141.64,-146.16 -243.6,-146.16 -152.48,0 -276.08,123.6 -276.08,276.07 l 0,194.89 c 0,179.38 145.42,324.8 324.8,324.8 l 194.88,0 0,146.16 c 0,71.76 -58.17,129.92 -129.92,129.92 -71.76,0 -129.92,-58.16 -129.92,-129.92 l -259.84,0 c 0,215.26 174.5,389.76 389.76,389.76 215.26,0 389.76,-174.5 389.76,-389.76 l 0,-925.68 z m -259.84,568.4 -129.92,0 c -71.76,0 -129.92,-58.16 -129.92,-129.92 l 0,-64.96 c 0,-71.75 58.16,-129.92 129.92,-129.92 71.75,0 129.92,58.17 129.92,129.92 l 0,194.88 z m 519.68,-568.4 0,1299.2 259.84,0 0,-129.92 c 47.99,89.97 141.64,146.16 243.61,146.16 152.47,0 276.08,-123.61 276.08,-276.08 l 0,-1039.36 -259.85,0 0,925.68 c 0,71.76 -58.16,129.92 -129.92,129.92 -71.75,0 -129.92,-58.16 -129.92,-129.92 l 0,-925.68 -259.84,0 z m 1266.73,-146.17 c 0,-71.75 58.16,-129.91 129.93,-129.91 71.7,0 129.9,58.16 129.9,129.91 l 0,276.09 c -48,-89.97 -141.63,-146.16 -243.59,-146.16 -152.48,0 -276.08,123.6 -276.08,276.07 l 0,779.53 c 0,152.47 123.6,276.08 276.08,276.08 101.96,0 195.59,-56.19 243.59,-146.16 l 0,129.92 259.9,0 0,-1445.37 c 0,-215.25 -174.5,-389.75 -389.8,-389.75 -215.28,0 -389.77,174.5 -389.77,389.75 l 259.84,0 z m 259.83,519.69 0,552.16 c 0,71.76 -58.2,129.92 -129.9,129.92 -71.77,0 -129.93,-58.16 -129.93,-129.92 l 0,-552.16 c 0,-71.75 58.16,-129.92 129.93,-129.92 71.7,0 129.9,58.17 129.9,129.92 z m 454.7,0 243.6,0 c 0,-80.72 65.5,-146.16 146.2,-146.16 80.7,0 146.2,65.44 146.2,146.16 0,57.82 -34.1,110.21 -87,133.64 l -210.5,77.02 c -135.1,59.86 -222.2,193.73 -222.2,341.5 0,206.29 167.2,373.52 373.5,373.52 206.3,0 373.5,-167.23 373.5,-373.52 l -243.6,0 c 0,71.76 -58.2,129.92 -129.9,129.92 -71.8,0 -129.9,-58.16 -129.9,-129.92 0,-51.39 30.3,-97.96 77.3,-118.79 l 210.5,-77.02 c 141,-62.46 231.8,-202.16 231.8,-356.35 0,-215.26 -174.5,-389.76 -389.7,-389.76 -215.3,0 -389.8,174.5 -389.8,389.76 z m 1039.4,211.12 0,259.84 779.5,0 0,-259.84 -779.5,0"
         id="path24"
         style="fill:#231f20;fill-opacity:1;fill-rule:nonzero;stroke:none" /><path
         d="m 4204.18,1567.38 -341.05,1299.2 276.08,0 178.64,-844.48 178.64,844.48 276.08,0 -341.04,-1299.2 -227.35,0 z m 1477.84,373.52 c 0,-215.26 -174.5,-389.76 -389.76,-389.76 -215.26,0 -389.77,174.5 -389.77,389.76 l 0,552.16 c 0,215.26 174.51,389.76 389.77,389.76 215.26,0 389.76,-174.5 389.76,-389.76 l 0,-373.52 -519.69,0 0,-178.64 c 0,-71.75 58.17,-129.92 129.93,-129.92 71.75,0 129.92,58.17 129.92,129.92 l 259.84,0 z m -519.69,389.76 259.85,0 0,162.4 c 0,71.76 -58.17,129.92 -129.92,129.92 -71.76,0 -129.93,-58.16 -129.93,-129.92 l 0,-162.4 z m 747.05,-763.28 0,1299.2 259.83,0 0,-146.64 c 83.25,103.02 208.61,162.88 341.05,162.88 l 0,-272.86 c -26.2,8.63 -53.61,13.02 -81.2,13.02 -143.5,0 -259.85,-116.33 -259.85,-259.84 l 0,-795.76 -259.83,0 z m 763.28,0 0,1818.89 259.84,0 0,-1088.09 324.8,568.4 259.84,0 -308.56,-519.68 373.53,-779.52 -292.33,0 -227.35,552.16 -129.93,-194.88 0,-357.28 -259.84,0 z m 1786.41,373.52 c 0,-215.26 -174.5,-389.76 -389.76,-389.76 -215.26,0 -389.77,174.5 -389.77,389.76 l 0,552.16 c 0,215.26 174.51,389.76 389.77,389.76 215.26,0 389.76,-174.5 389.76,-389.76 l 0,-373.52 -519.69,0 0,-178.64 c 0,-71.75 58.17,-129.92 129.93,-129.92 71.75,0 129.91,58.17 129.91,129.92 l 259.85,0 z m -519.69,389.76 259.84,0 0,162.4 c 0,71.76 -58.16,129.92 -129.91,129.92 -71.76,0 -129.93,-58.16 -129.93,-129.92 l 0,-162.4 z m 747.05,-763.28 0,1818.89 259.84,0 0,-649.6 c 47.98,89.96 141.64,146.15 243.6,146.15 152.47,0 276.08,-123.61 276.08,-276.08 l 0,-1039.36 -259.84,0 0,925.68 c 0,71.76 -58.17,129.92 -129.92,129.92 -71.76,0 -129.92,-58.16 -129.92,-129.92 l 0,-925.68 -259.84,0 z m 1039.36,0 0,1299.2 259.84,0 0,-146.64 c 83.27,103.02 208.57,162.88 341.07,162.88 l 0,-272.86 c -26.2,8.63 -53.6,13.02 -81.2,13.02 -143.5,0 -259.87,-116.33 -259.87,-259.84 l 0,-795.76 -259.84,0"
         id="path26"
         style="fill:#231f20;fill-opacity:1;fill-rule:nonzero;stroke:none" /></g></g></svg>