<?xml version="1.0" encoding="UTF-8" standalone="no"?>
<!-- Created with Inkscape (http://www.inkscape.org/) -->
<svg
   xmlns:svg="http://www.w3.org/2000/svg"
   xmlns="http://www.w3.org/2000/svg"
   version="1.0"
   width="490"
   height="270"
   id="svg2">
  <defs
     id="defs4" />
  <path
     d="M 38.75,4.75 C 20.325639,4.7499998 9.9375,11.885785 9.9375,32.96875 L 9.625,236.5625 C 9.625,257.64547 20.013141,264.78126 38.4375,264.78125 L 451.1875,264.75 C 469.61186,264.75 479.99999,257.61421 480,236.53125 L 480.3125,33 C 480.3125,11.917035 469.92436,4.7812498 451.5,4.78125 L 38.75,4.75 z "
     style="fill:white;fill-opacity:1;fill-rule:evenodd;stroke:black;stroke-width:2;stroke-linecap:butt;stroke-linejoin:miter;stroke-miterlimit:4;stroke-dasharray:none;stroke-opacity:1"
     id="path1892" />
  <path
     d="M 23.163837,32.186397 L 23.163837,235.10799 C 23.163837,247.1744 29.516661,252.69452 39.224371,252.69452 L 452.78318,252.69452 C 461.79816,252.69452 466.83616,246.74689 466.83616,236.46079 L 466.83616,34.215611 C 466.83616,25.6835 458.69131,17.305482 448.09888,17.305482 L 36.547616,17.305482 C 28.12336,17.305482 23.163837,23.312408 23.163837,32.186397 z "
     style="fill:none;fill-opacity:1;fill-rule:evenodd;stroke:black;stroke-width:10.05090809;stroke-linecap:butt;stroke-linejoin:miter;stroke-miterlimit:4;stroke-dasharray:none;stroke-opacity:1"
     id="path1884" />
  <path
     d="M 109.24404,183.19775 L 109.24404,87.799916 L 170.26722,87.799916 L 170.26722,101.4843 L 123.71413,101.4843 L 123.71413,128.65664 L 163.39229,128.65664 L 163.39229,141.55532 L 123.71413,141.55532 L 123.71413,169.57885 L 170.26722,169.57885 L 170.26722,183.19775 L 109.24404,183.19775 z M 182.70757,183.19775 L 182.70757,115.23416 L 196.39196,115.23416 L 196.39196,122.50194 L 196.65386,122.50194 C 200.88792,117.13302 206.78071,114.44852 214.33225,114.44845 C 219.6139,114.44852 224.71007,116.45644 229.62079,120.4722 C 234.53139,124.48809 236.98672,130.33723 236.98678,138.01964 L 236.98678,183.19775 L 223.3024,183.19775 L 223.3024,142.73388 C 223.30235,138.15064 222.02558,134.57131 219.47208,131.99589 C 216.91849,129.42058 213.74293,128.13289 209.94539,128.13284 C 206.01683,128.13289 202.77579,129.42058 200.22228,131.99589 C 197.66871,134.57131 196.39194,138.15064 196.39196,142.73388 L 196.39196,183.19775 L 182.70757,183.19775 z M 295.32548,183.19775 L 295.32548,176.1264 C 290.56754,181.36444 284.7184,183.98346 277.77804,183.98346 C 273.58758,183.98346 269.98643,183.16502 266.97458,181.52813 C 263.96268,179.89124 261.49644,177.78512 259.57584,175.20974 C 257.65521,172.80898 256.36753,169.9608 255.71279,166.66518 C 255.05802,163.3696 254.73064,157.53137 254.73065,149.15048 C 254.73064,140.85696 255.05802,135.0842 255.71279,131.83221 C 256.36753,128.58031 257.65521,125.73213 259.57584,123.28765 C 261.49644,120.75599 263.96268,118.64986 266.97458,116.96926 C 269.98643,115.28879 273.58758,114.44852 277.77804,114.44845 C 281.27003,114.44852 284.43468,115.19058 287.27199,116.67462 C 290.10922,118.1588 292.79371,120.10124 295.32548,122.50194 L 295.32548,87.799916 L 309.00986,87.799916 L 309.00986,183.19775 L 295.32548,183.19775 z M 281.96847,128.13284 C 275.50819,128.13289 271.63422,130.33723 270.34657,134.74587 C 269.05886,139.1546 268.41501,143.95613 268.41504,149.15048 C 268.41501,154.47585 269.05886,159.34286 270.34657,163.75152 C 271.63422,168.16022 275.50819,170.36456 281.96847,170.36455 C 288.29773,170.36456 292.10622,168.07292 293.39395,163.48962 C 294.68159,158.90636 295.32543,154.12665 295.32548,149.15048 C 295.32543,144.30533 294.68159,139.5911 293.39395,135.00777 C 292.10622,130.42453 288.29773,128.13289 281.96847,128.13284 L 281.96847,128.13284 z M 377.03893,154.38852 L 334.74174,154.38852 C 334.74172,159.97579 336.25857,164.16622 339.29229,166.95982 C 342.32596,169.75346 346.19993,171.15027 350.91419,171.15026 C 356.54505,171.15027 361.52118,168.96775 365.84261,164.60271 L 375.72942,173.04905 C 372.36828,176.97759 368.58162,179.78212 364.36941,181.46265 C 360.15711,183.14319 355.75934,183.98346 351.1761,183.98346 C 344.19201,183.98346 337.42621,181.72456 330.87868,177.20674 C 324.33112,172.68894 321.05735,163.44599 321.05736,149.47786 C 321.05735,136.25185 324.08013,127.10711 330.12572,122.04362 C 336.17127,116.98024 342.48965,114.44852 349.08088,114.44845 C 356.54505,114.44852 363.07077,117.0348 368.65806,122.2073 C 374.24525,127.37993 377.03887,134.35306 377.03893,143.12673 L 377.03893,154.38852 z M 334.74174,143.12673 L 363.42002,143.12673 C 363.20172,138.01969 361.76126,134.11299 359.09864,131.40661 C 356.43592,128.70035 353.09667,127.34719 349.08088,127.34713 C 345.02137,127.34719 341.64938,128.70035 338.96491,131.40661 C 336.28039,134.11299 334.87267,138.01969 334.74174,143.12673 L 334.74174,143.12673 z "
     style="font-size:134.09387207px;font-style:normal;font-variant:normal;font-weight:normal;font-stretch:normal;text-align:center;line-height:100%;writing-mode:lr-tb;text-anchor:middle;fill:black;fill-opacity:1;stroke:none;stroke-width:1px;stroke-linecap:butt;stroke-linejoin:miter;stroke-opacity:1;font-family:DIN 1451 Mittelschrift"
     id="text3847" />
</svg>
