<?xml version="1.0" encoding="UTF-8" standalone="no"?>
<!-- Created with Inkscape (http://www.inkscape.org/) -->
<svg
   xmlns:svg="http://www.w3.org/2000/svg"
   xmlns="http://www.w3.org/2000/svg"
   version="1.0"
   width="490"
   height="270"
   id="svg2">
  <defs
     id="defs4" />
  <path
     d="M 38.78125,4.984375 C 20.356889,4.9843748 9.96875,12.12016 9.96875,33.203125 L 9.65625,236.79688 C 9.65625,257.87984 20.044391,265.01563 38.46875,265.01563 L 451.21875,264.98438 C 469.64311,264.98438 480.03124,257.84859 480.03125,236.76563 L 480.34375,33.234375 C 480.34375,12.15141 469.95561,5.0156248 451.53125,5.015625 L 38.78125,4.984375 z "
     style="fill:white;fill-opacity:1;fill-rule:evenodd;stroke:black;stroke-width:2;stroke-linecap:butt;stroke-linejoin:miter;stroke-miterlimit:4;stroke-dasharray:none;stroke-opacity:1"
     id="path1881" />
  <path
     d="M 453.3125,17.796875 L 36.78125,17.828125 C 28.356999,17.828125 23.40625,23.829135 23.40625,32.703125 L 23.40625,237.35938 C 23.406249,246.23335 28.35701,252.23438 36.78125,252.23438 L 453.28125,252.20313 C 461.70549,252.20312 466.65625,246.20211 466.65625,237.32813 L 466.65625,32.671875 C 466.65625,23.797885 461.73674,17.796875 453.3125,17.796875 z "
     style="fill:none;fill-opacity:1;fill-rule:evenodd;stroke:black;stroke-width:10.05090809;stroke-linecap:butt;stroke-linejoin:miter;stroke-miterlimit:4;stroke-dasharray:none;stroke-opacity:1"
     id="path3976" />
  <g
     transform="matrix(0.819637,0,0,0.819637,68.68771,-376.4709)"
     id="g1980">
    <path
       d="M 59.09712,568.39649 C 58.77873,544.92563 57.50511,565.12148 71.65131,530.32458 C 81.88569,506.67178 71.51485,513.03984 124.46071,512.17561 C 171.58437,513.13082 162.07776,506.30788 172.90346,531.41624 C 186.45833,563.57495 185.41215,546.74507 185.32118,567.71419 C 184.82084,590.73016 193.32675,584.81699 122.00447,585.59024 C 51.22803,584.63504 59.59747,590.63923 59.09712,568.39649 z M 73.42525,545.74439 L 83.1138,523.3652 C 84.92146,519.38993 84.34474,519.97676 88.57216,519.95374 L 156.30944,519.94643 C 159.97642,519.95992 159.43844,519.72182 160.94902,523.22144 L 170.58368,545.47146 L 73.42525,545.74439 z M 66.49621,588.15766 L 84.61486,588.11725 C 84.55926,610.86539 86.44442,609.59684 76.56381,609.74339 C 64.79805,609.6979 66.65793,610.88559 66.49621,588.15766 z M 159.80346,588.3194 L 177.95242,588.3194 C 177.83113,611.1029 179.48885,609.54629 169.21908,609.60692 C 158.6006,609.4654 159.95002,611.14334 159.80346,588.3194 z "
       style="fill:black;fill-rule:evenodd;stroke:none"
       id="path3794" />
    <path
       d="M 130.89964,592.97486 L 143.62738,561.75249 C 146.76264,553.5871 152.39119,553.89443 157.6303,553.64318 L 192.00216,553.84001"
       style="fill:none;fill-opacity:0.75;fill-rule:evenodd;stroke:white;stroke-width:1px;stroke-linecap:butt;stroke-linejoin:miter;stroke-opacity:1"
       id="path4683" />
    <path
       d="M 134.55283,593.90986 L 151.32337,557.88426 L 205.56881,558.29835 L 205.36176,599.08595 L 134.13875,598.46482 L 134.55283,593.90986 z "
       style="fill:white;fill-opacity:1;fill-rule:evenodd;stroke:none;stroke-width:1px;stroke-linecap:butt;stroke-linejoin:miter;stroke-opacity:1"
       id="path4693" />
    <path
       d="M 123.93047,620.03882 C 123.55838,592.60998 122.06999,616.21153 138.60171,575.54669 C 150.56196,547.90523 138.44224,555.34716 200.31658,554.33719 C 255.38689,555.45347 244.27714,547.47997 256.92843,576.82245 C 272.76911,614.40421 271.54651,594.73624 271.44019,619.24146 C 270.85547,646.13871 280.79577,639.22838 197.44613,640.13202 C 114.73437,639.01574 124.51519,646.03244 123.93047,620.03882 z M 140.67481,593.56681 L 151.99718,567.41372 C 154.10966,562.76809 153.43569,563.45388 158.37599,563.42697 L 237.53609,563.41844 C 241.82144,563.43419 241.19274,563.15594 242.95806,567.24572 L 254.21744,593.24785 L 140.67481,593.56681 z M 132.57729,643.1324 L 153.75136,643.08517 C 153.68638,669.66942 155.88944,668.18695 144.34263,668.35822 C 130.59277,668.30506 132.76629,669.69303 132.57729,643.1324 z M 241.61932,643.32142 L 262.82881,643.32142 C 262.68706,669.94699 264.62433,668.12787 252.62273,668.19874 C 240.21361,668.03335 241.79059,669.99424 241.61932,643.32142 z "
       style="fill:black;fill-rule:evenodd;stroke:none"
       id="path3792" />
    <path
       d="M 208.36173,640.32694 L 221.08947,609.10457 C 223.73753,601.40485 229.82204,601.30319 235.09239,600.99526 L 269.46425,601.19209"
       style="fill:none;fill-opacity:0.75;fill-rule:evenodd;stroke:white;stroke-width:1px;stroke-linecap:butt;stroke-linejoin:miter;stroke-opacity:1"
       id="path3796" />
    <path
       d="M 214.5752,646.18838 L 231.34574,610.16278 L 285.59118,610.57687 L 285.38413,651.36447 L 214.16112,650.74334 L 214.5752,646.18838 z "
       style="fill:white;fill-opacity:1;fill-rule:evenodd;stroke:none;stroke-width:1px;stroke-linecap:butt;stroke-linejoin:miter;stroke-opacity:1"
       id="path4691" />
    <path
       d="M 197.02344,678.99217 C 196.58413,646.60929 194.82692,674.47362 214.34451,626.46413 C 228.46495,593.83023 214.15624,602.61627 287.20597,601.42389 C 352.22275,602.74179 339.10643,593.32816 354.04272,627.97031 C 372.74445,672.33987 371.30103,649.11959 371.17551,678.0508 C 370.48518,709.80607 382.22084,701.64764 283.81707,702.71449 C 186.16639,701.3966 197.71377,709.68061 197.02344,678.99217 z M 216.79204,647.73893 L 230.1594,616.86223 C 232.65342,611.37754 231.85772,612.18718 237.6903,612.15542 L 331.14785,612.14535 C 336.20719,612.16394 335.46494,611.83544 337.5491,616.66388 L 350.84208,647.36238 L 216.79204,647.73893 z M 207.232,706.25679 L 232.2304,706.20101 C 232.15369,737.58676 234.75465,735.83654 221.12232,736.03874 C 204.88904,735.97598 207.45513,737.61464 207.232,706.25679 z M 335.96856,706.47994 L 361.0088,706.47994 C 360.84144,737.91447 363.12861,735.76679 348.95935,735.85046 C 334.30896,735.6552 336.17077,737.97025 335.96856,706.47994 z "
       style="fill:black;fill-rule:evenodd;stroke:none"
       id="Car" />
  </g>
</svg>
