<?xml version="1.0" encoding="UTF-8" standalone="no"?>
<!-- Created with Inkscape (http://www.inkscape.org/) -->
<svg
   xmlns:svg="http://www.w3.org/2000/svg"
   xmlns="http://www.w3.org/2000/svg"
   version="1.0"
   width="490"
   height="270"
   id="svg2">
  <defs
     id="defs4" />
  <path
     d="M 38.78125,4.984375 C 20.356889,4.9843748 9.96875,12.12016 9.96875,33.203125 L 9.65625,236.79688 C 9.65625,257.87984 20.044391,265.01563 38.46875,265.01563 L 451.21875,264.98438 C 469.64311,264.98438 480.03124,257.84859 480.03125,236.76563 L 480.34375,33.234375 C 480.34375,12.15141 469.95561,5.0156248 451.53125,5.015625 L 38.78125,4.984375 z "
     style="fill:white;fill-opacity:1;fill-rule:evenodd;stroke:black;stroke-width:2;stroke-linecap:butt;stroke-linejoin:miter;stroke-miterlimit:4;stroke-dasharray:none;stroke-opacity:1"
     id="path1881" />
  <path
     d="M 453.3125,17.796875 L 36.78125,17.828125 C 28.356999,17.828125 23.40625,23.829135 23.40625,32.703125 L 23.40625,237.35938 C 23.406249,246.23335 28.35701,252.23438 36.78125,252.23438 L 453.28125,252.20313 C 461.70549,252.20312 466.65625,246.20211 466.65625,237.32813 L 466.65625,32.671875 C 466.65625,23.797885 461.73674,17.796875 453.3125,17.796875 z "
     style="fill:none;fill-opacity:1;fill-rule:evenodd;stroke:black;stroke-width:10.05090809;stroke-linecap:butt;stroke-linejoin:miter;stroke-miterlimit:4;stroke-dasharray:none;stroke-opacity:1"
     id="path3976" />
  <path
     d="M 79.802228,113.68557 L 86.245096,106.36012 C 88.657484,108.30182 91.437623,109.86105 94.585521,111.03782 C 97.733387,112.21461 101.02837,112.80299 104.47047,112.80299 C 108.44207,112.80299 111.56053,111.97925 113.82587,110.33175 C 116.09113,108.68427 117.22378,106.52194 117.22382,103.84475 C 117.22378,98.784622 114.42893,95.886805 108.83926,95.151292 C 107.36826,94.974802 106.00026,94.798285 104.73524,94.621741 C 103.47018,94.445251 101.99921,94.239315 100.32232,94.003932 C 94.762022,93.239053 90.525619,91.201756 87.613102,87.892033 C 84.700566,84.582377 83.244303,80.588686 83.244308,75.910946 C 83.244303,70.438972 85.075665,65.937795 88.738397,62.4074 C 92.40111,58.877124 97.55687,57.111957 104.20569,57.111892 C 108.1773,57.111957 111.91357,57.744475 115.41452,59.009449 C 118.9154,60.274549 122.13683,61.877909 125.07882,63.819536 L 119.65093,71.851056 C 117.29733,70.380133 114.76725,69.188645 112.0607,68.276588 C 109.35407,67.364639 106.58864,66.908637 103.7644,66.908582 C 100.76359,66.908637 98.218808,67.673543 96.130044,69.203302 C 94.041245,70.733167 92.996854,73.027885 92.996869,76.087463 C 92.996854,77.911515 93.702921,79.617844 95.115072,81.206454 C 96.527189,82.795145 98.866036,83.839536 102.13162,84.339629 C 102.98476,84.486764 104.01444,84.641216 105.22067,84.802986 C 106.42684,84.96483 107.80955,85.133992 109.36881,85.310472 C 115.37035,86.045996 119.80534,88.223036 122.67378,91.841599 C 125.54213,95.460223 126.97633,99.461269 126.97638,103.84475 C 126.97633,109.75808 124.93168,114.34752 120.84242,117.61307 C 116.75307,120.87864 111.26634,122.51142 104.38221,122.51142 C 94.703183,122.51142 86.509863,119.56947 79.802228,113.68557 L 79.802228,113.68557 z M 137.03785,76.175721 L 137.03785,62.275012 L 146.26086,62.275012 L 146.26086,76.175721 L 152.9685,76.175721 L 152.9685,83.236398 L 146.26086,83.236398 L 146.26086,109.89046 C 146.26084,112.18519 147.34936,113.33254 149.52642,113.33254 L 152.9685,113.33254 L 152.9685,121.98187 L 148.15841,121.98187 C 144.95167,121.98187 142.29657,121.01102 140.19309,119.06934 C 138.08958,117.12765 137.03784,114.34752 137.03785,110.72891 L 137.03785,83.236398 L 132.44841,83.236398 L 132.44841,76.175721 L 137.03785,76.175721 z M 161.5737,121.98187 L 161.5737,76.175721 L 170.79671,76.175721 L 170.79671,81.074066 L 170.97323,81.074066 C 173.8269,77.455513 177.79853,75.646217 182.88812,75.64617 C 186.24191,75.646217 189.43392,76.822995 192.46417,79.176509 L 185.80065,87.119771 C 183.8001,85.619413 181.77015,84.869217 179.71082,84.86918 C 177.44549,84.869217 175.39349,85.626768 173.55479,87.141836 C 171.71605,88.656973 170.7967,91.091433 170.79671,94.445224 L 170.79671,121.98187 L 161.5737,121.98187 z M 220.751,121.98187 L 220.751,117.92198 L 220.53036,117.92198 C 218.6769,120.9816 214.91121,122.51142 209.23327,122.51142 C 204.11427,122.51142 200.14264,121.18019 197.31838,118.51772 C 194.49411,115.85526 193.08197,112.52351 193.08197,108.52245 C 193.08197,104.90387 194.3323,101.74128 196.83296,99.034664 C 199.33361,96.328097 203.05517,94.974802 207.99765,94.974775 L 220.751,94.974775 L 220.751,90.208817 C 220.75097,86.296061 217.6178,84.339667 211.35148,84.339629 C 206.99738,84.339667 204.09956,85.501736 202.65802,87.825839 L 195.42082,82.353814 C 198.62754,77.882095 203.77594,75.646217 210.86605,75.64617 C 216.51457,75.646217 221.10401,76.749446 224.63438,78.955863 C 228.16468,81.162365 229.92984,85.089863 229.92988,90.738368 L 229.92988,121.98187 L 220.751,121.98187 z M 220.751,105.91882 L 220.751,102.565 L 209.71869,102.565 C 204.39375,102.56502 201.73129,104.40374 201.7313,108.08116 C 201.73129,109.6404 202.40059,110.9937 203.73918,112.14105 C 205.07776,113.28842 207.30628,113.86209 210.42476,113.86209 C 214.24927,113.86209 216.92644,113.43551 218.45628,112.58234 C 219.98607,111.72918 220.75097,109.50801 220.751,105.91882 L 220.751,105.91882 z M 259.05518,87.119771 L 259.05518,78.470441 L 264.57134,78.470441 C 267.80745,78.470485 269.42552,76.690607 269.42555,73.130804 C 269.42552,70.777296 268.95481,69.144516 268.01342,68.232459 C 266.33648,66.879218 263.67401,66.246699 260.02603,66.334902 C 256.67218,66.423216 254.34069,66.945411 253.03154,67.90149 C 251.72236,68.857676 251.02365,70.262455 250.9354,72.115832 L 250.9354,121.98187 L 241.71239,121.98187 L 241.71239,72.115832 C 241.71239,67.085154 243.52904,63.326818 247.16235,60.840812 C 250.79565,58.354929 255.39244,57.111957 260.95274,57.111892 C 266.18938,57.111957 270.44784,58.502026 273.72815,61.282105 C 277.00838,64.062304 278.64852,67.761801 278.64856,72.380607 C 278.64852,77.352545 276.45677,80.765203 272.07331,82.618589 C 276.45677,84.383796 278.64852,87.722905 278.64856,92.635925 L 278.64856,109.00787 C 278.64852,112.59706 277.4791,115.65668 275.14029,118.18675 C 272.8014,120.71683 269.73442,121.98187 265.93934,121.98187 L 260.24667,121.98187 L 260.24667,113.33254 L 263.46811,113.33254 C 267.4397,113.33254 269.42552,111.72918 269.42555,108.52245 L 269.42555,92.459408 C 269.42552,88.899683 267.74861,87.119806 264.39482,87.119771 L 259.05518,87.119771 z M 325.91096,102.565 L 297.40347,102.565 C 297.40346,106.33071 298.42579,109.15498 300.47046,111.03782 C 302.51509,112.92067 305.12607,113.86209 308.30339,113.86209 C 312.09848,113.86209 315.4523,112.39112 318.36486,109.44916 L 325.02837,115.14183 C 322.76304,117.78959 320.2109,119.67979 317.37195,120.81244 C 314.53294,121.94509 311.56893,122.51142 308.47991,122.51142 C 303.77277,122.51142 299.21276,120.98896 294.79985,117.94404 C 290.38692,114.89913 288.18046,108.66956 288.18046,99.25531 C 288.18046,90.341237 290.21776,84.17786 294.29236,80.765161 C 298.36695,77.352545 302.62541,75.646217 307.06778,75.64617 C 312.09848,75.646217 316.49669,77.38932 320.26242,80.875484 C 324.02807,84.361732 325.91092,89.06149 325.91096,94.974775 L 325.91096,102.565 z M 297.40347,94.974775 L 316.73208,94.974775 C 316.58495,91.532725 315.61411,88.899683 313.81955,87.075642 C 312.02493,85.25167 309.77434,84.339667 307.06778,84.339629 C 304.33174,84.339667 302.05909,85.25167 300.24981,87.075642 C 298.4405,88.899683 297.49172,91.532725 297.40347,94.974775 L 297.40347,94.974775 z M 335.61939,121.98187 L 335.61939,76.175721 L 344.8424,76.175721 L 344.8424,81.074066 L 345.01892,81.074066 C 347.87259,77.455513 351.84422,75.646217 356.93381,75.64617 C 360.49354,75.646217 363.92826,76.999512 367.23799,79.70606 C 370.54764,82.412692 372.20249,86.3549 372.20253,91.532694 L 372.20253,121.98187 L 362.97952,121.98187 L 362.97952,94.709999 C 362.97949,91.620983 362.11897,89.208587 360.39796,87.472805 C 358.67689,85.737091 356.53662,84.869217 353.97716,84.86918 C 351.32938,84.869217 349.14498,85.737091 347.42396,87.472805 C 345.70291,89.208587 344.84239,91.620983 344.8424,94.709999 L 344.8424,121.98187 L 335.61939,121.98187 z M 382.97005,101.59416 L 382.97005,92.37115 L 410.19779,92.37115 L 410.19779,101.59416 L 382.97005,101.59416 z M 88.716333,204.72419 L 95.159201,198.36958 C 99.16024,202.28239 103.97032,204.23878 109.58946,204.23877 C 112.20777,204.23878 114.3701,203.746 116.07646,202.76044 C 117.78276,201.7749 118.63592,200.31128 118.63595,198.36958 C 118.63592,195.69243 116.76779,194.19204 113.03154,193.8684 L 104.91176,193.11821 C 101.11663,192.82403 97.968752,191.5737 95.468106,189.36722 C 92.967444,187.16078 91.717117,184.08645 91.717121,180.14421 C 91.717117,175.49597 93.349897,171.98034 96.615466,169.59732 C 99.881017,167.21439 103.9409,166.0229 108.79513,166.02286 C 112.79616,166.0229 116.22353,166.58923 119.07725,167.72183 C 121.9309,168.85453 124.49039,170.36227 126.75573,172.24508 L 121.06306,178.95272 C 119.23902,177.71714 117.35618,176.70217 115.41452,175.9078 C 113.47281,175.11352 111.26635,174.71635 108.79513,174.71632 C 105.85317,174.71635 103.80851,175.23855 102.66117,176.2829 C 101.5138,177.32733 100.94012,178.64385 100.94013,180.23247 C 100.94012,181.23276 101.3667,182.15948 102.21988,183.01261 C 103.07303,183.8658 104.66168,184.38065 106.98584,184.55713 L 114.57606,185.08669 C 119.31257,185.41033 122.71052,186.87394 124.76992,189.47754 C 126.82924,192.08119 127.85892,195.1923 127.85896,198.81088 C 127.85892,203.31207 126.02021,206.78356 122.34281,209.22538 C 118.66534,211.66719 114.17887,212.8881 108.88339,212.8881 C 101.26373,212.8881 94.541385,210.1668 88.716333,204.72419 L 88.716333,204.72419 z M 164.13319,198.89914 L 170.92909,204.98897 C 168.92853,207.28369 166.55291,209.1739 163.80222,210.65958 C 161.05147,212.14526 157.94036,212.8881 154.46889,212.8881 C 149.17336,212.8881 144.38535,211.08616 140.10482,207.48227 C 135.82428,203.87839 133.68402,197.88418 133.68402,189.49961 C 133.68402,181.11509 135.82428,175.10616 140.10482,171.47282 C 144.38535,167.83955 149.17336,166.0229 154.46889,166.02286 C 157.94036,166.0229 161.05147,166.7731 163.80222,168.27345 C 166.55291,169.77388 168.92853,171.67144 170.92909,173.96612 L 164.13319,180.01182 C 161.54425,176.83455 158.44049,175.2459 154.82192,175.24587 C 146.87865,175.2459 142.90702,179.99715 142.90703,189.49961 C 142.90702,198.9727 146.87865,203.70923 154.82192,203.70922 C 158.46991,203.70923 161.57367,202.10587 164.13319,198.89914 L 164.13319,198.89914 z M 177.2837,212.35855 L 177.2837,148.06226 L 186.50671,148.06226 L 186.50671,171.45075 L 186.68323,171.45075 C 189.5369,167.8322 193.50853,166.0229 198.59812,166.02286 C 202.15785,166.0229 205.59257,167.3762 208.9023,170.08275 C 212.21195,172.78938 213.86679,176.73159 213.86684,181.90938 L 213.86684,212.35855 L 204.64383,212.35855 L 204.64383,185.08669 C 204.64379,181.99767 203.78328,179.58527 202.06227,177.84949 C 200.3412,176.11378 198.20093,175.2459 195.64146,175.24587 C 192.99369,175.2459 190.80929,176.11378 189.08827,177.84949 C 187.36722,179.58527 186.5067,181.99767 186.50671,185.08669 L 186.50671,212.35855 L 177.2837,212.35855 z M 249.8763,212.35855 L 249.8763,208.29866 L 249.65565,208.29866 C 247.80219,211.35829 244.0365,212.8881 238.35857,212.8881 C 233.23956,212.8881 229.26793,211.55687 226.44367,208.89441 C 223.6194,206.23195 222.20726,202.9002 222.20727,198.89914 C 222.20726,195.28056 223.45759,192.11796 225.95825,189.41135 C 228.4589,186.70478 232.18046,185.35149 237.12295,185.35146 L 249.8763,185.35146 L 249.8763,180.5855 C 249.87627,176.67275 246.74309,174.71635 240.47677,174.71632 C 236.12267,174.71635 233.22485,175.87842 231.78331,178.20252 L 224.54611,172.7305 C 227.75283,168.25878 232.90124,166.0229 239.99135,166.02286 C 245.63986,166.0229 250.2293,167.12613 253.75967,169.33255 C 257.28997,171.53905 259.05514,175.46655 259.05518,181.11505 L 259.05518,212.35855 L 249.8763,212.35855 z M 249.8763,196.29551 L 249.8763,192.94169 L 238.84399,192.94169 C 233.51905,192.94171 230.85658,194.78042 230.8566,198.45784 C 230.85658,200.01709 231.52588,201.37038 232.86448,202.51773 C 234.20305,203.6651 236.43157,204.23878 239.55005,204.23877 C 243.37456,204.23878 246.05174,203.8122 247.58157,202.95903 C 249.11136,202.10587 249.87627,199.8847 249.8763,196.29551 L 249.8763,196.29551 z M 245.5075,159.4476 L 245.5075,149.69504 L 255.26006,149.69504 L 255.26006,159.4476 L 245.5075,159.4476 z M 229.62098,159.4476 L 229.62098,149.69504 L 239.37354,149.69504 L 239.37354,159.4476 L 229.62098,159.4476 z M 298.37431,212.35855 L 298.37431,207.59259 C 295.16756,211.12293 291.22535,212.8881 286.54768,212.8881 C 283.72339,212.8881 281.29628,212.33649 279.26635,211.23326 C 277.2364,210.13003 275.5742,208.71054 274.27975,206.97479 C 272.98528,205.35672 272.11741,203.4371 271.67613,201.21592 C 271.23483,198.99476 271.01418,195.05991 271.01419,189.41135 C 271.01418,183.82168 271.23483,179.93095 271.67613,177.73917 C 272.11741,175.54745 272.98528,173.62783 274.27975,171.9803 C 275.5742,170.27401 277.2364,168.85453 279.26635,167.72183 C 281.29628,166.58923 283.72339,166.0229 286.54768,166.02286 C 288.90121,166.0229 291.03412,166.52303 292.94642,167.52325 C 294.85865,168.52356 296.66795,169.83272 298.37431,171.45075 L 298.37431,148.06226 L 307.59732,148.06226 L 307.59732,212.35855 L 298.37431,212.35855 z M 289.37195,175.24587 C 285.01784,175.2459 282.40687,176.73159 281.53901,179.70292 C 280.67112,182.67432 280.23718,185.91046 280.2372,189.41135 C 280.23718,193.00055 280.67112,196.28082 281.53901,199.25217 C 282.40687,202.22355 285.01784,203.70923 289.37195,203.70922 C 293.63775,203.70923 296.20459,202.16471 297.0725,199.07565 C 297.94034,195.98662 298.37428,192.76519 298.37431,189.41135 C 298.37428,186.14581 297.94034,182.96851 297.0725,179.87944 C 296.20459,176.79042 293.63775,175.2459 289.37195,175.24587 L 289.37195,175.24587 z M 353.44761,192.94169 L 324.94013,192.94169 C 324.94011,196.7074 325.96244,199.53167 328.00711,201.4145 C 330.05175,203.29736 332.66272,204.23878 335.84005,204.23877 C 339.63513,204.23878 342.98895,202.76781 345.90151,199.82585 L 352.56503,205.51852 C 350.29969,208.16628 347.74755,210.05648 344.90861,211.18913 C 342.06959,212.32178 339.10558,212.8881 336.01657,212.8881 C 331.30943,212.8881 326.74941,211.36565 322.3365,208.32073 C 317.92357,205.27582 315.71711,199.04625 315.71712,189.632 C 315.71711,180.71792 317.75441,174.55455 321.82902,171.14185 C 325.9036,167.72923 330.16207,166.0229 334.60443,166.02286 C 339.63513,166.0229 344.03334,167.76601 347.79907,171.25217 C 351.56473,174.73842 353.44757,179.43818 353.44761,185.35146 L 353.44761,192.94169 z M 324.94013,185.35146 L 344.26873,185.35146 C 344.1216,181.90941 343.15076,179.27637 341.3562,177.45233 C 339.56159,175.62836 337.311,174.71635 334.60443,174.71632 C 331.8684,174.71635 329.59574,175.62836 327.78646,177.45233 C 325.97715,179.27637 325.02837,181.90941 324.94013,185.35146 L 324.94013,185.35146 z M 363.15603,212.35855 L 363.15603,166.55241 L 372.37904,166.55241 L 372.37904,171.45075 L 372.55556,171.45075 C 375.40923,167.8322 379.38086,166.0229 384.47045,166.02286 C 388.03018,166.0229 391.4649,167.3762 394.77463,170.08275 C 398.08428,172.78938 399.73912,176.73159 399.73917,181.90938 L 399.73917,212.35855 L 390.51616,212.35855 L 390.51616,185.08669 C 390.51612,181.99767 389.6556,179.58527 387.9346,177.84949 C 386.21353,176.11378 384.07326,175.2459 381.51379,175.24587 C 378.86602,175.2459 376.68162,176.11378 374.9606,177.84949 C 373.23955,179.58527 372.37903,181.99767 372.37904,185.08669 L 372.37904,212.35855 L 363.15603,212.35855 z "
     style="font-size:90.37667084px;font-style:normal;font-variant:normal;font-weight:normal;font-stretch:normal;text-align:center;line-height:100%;writing-mode:lr-tb;text-anchor:middle;fill:black;fill-opacity:1;stroke:none;stroke-width:1px;stroke-linecap:butt;stroke-linejoin:miter;stroke-opacity:1;font-family:DIN 1451 Mittelschrift"
     id="text3782" />
</svg>
