<?xml version="1.0" encoding="UTF-8" standalone="no"?>
<!-- Created with Inkscape (http://www.inkscape.org/) -->
<svg
   xmlns:svg="http://www.w3.org/2000/svg"
   xmlns="http://www.w3.org/2000/svg"
   version="1.0"
   width="490"
   height="270"
   id="svg2">
  <defs
     id="defs4" />
  <path
     d="M 38.75,4.75 C 20.325639,4.7499998 9.9375,11.885785 9.9375,32.96875 L 9.625,236.5625 C 9.625,257.64547 20.013141,264.78126 38.4375,264.78125 L 451.1875,264.75 C 469.61186,264.75 479.99999,257.61421 480,236.53125 L 480.3125,33 C 480.3125,11.917035 469.92436,4.7812498 451.5,4.78125 L 38.75,4.75 z "
     style="fill:white;fill-opacity:1;fill-rule:evenodd;stroke:black;stroke-width:2;stroke-linecap:butt;stroke-linejoin:miter;stroke-miterlimit:4;stroke-dasharray:none;stroke-opacity:1"
     id="path1892" />
  <path
     d="M 453.28125,17.5625 L 36.75,17.59375 C 28.325749,17.59375 23.375,23.59476 23.375,32.46875 L 23.375,237.125 C 23.374999,245.99898 28.32576,252 36.75,252 L 453.25,251.96875 C 461.67424,251.96874 466.625,245.96774 466.625,237.09375 L 466.625,32.4375 C 466.625,23.56351 461.70549,17.5625 453.28125,17.5625 z "
     style="fill:none;fill-opacity:1;fill-rule:evenodd;stroke:black;stroke-width:10.05090809;stroke-linecap:butt;stroke-linejoin:miter;stroke-miterlimit:4;stroke-dasharray:none;stroke-opacity:1"
     id="path3976" />
  <path
     d="M 129.02401,123.69299 L 129.02401,64.742745 L 137.48015,64.742745 L 137.48015,86.186554 C 139.04459,84.703059 140.69671,83.502746 142.4365,82.585613 C 144.17626,81.668561 146.13857,81.210014 148.32344,81.209972 C 150.88588,81.210014 153.09769,81.729251 154.95888,82.767683 C 156.82001,83.806196 158.35749,85.107659 159.57132,86.672074 C 160.73114,88.182617 161.52011,89.942626 161.93823,91.952106 C 162.35628,93.96165 162.56532,97.528871 162.56536,102.65378 C 162.56532,107.83268 162.35628,111.44036 161.93823,113.47684 C 161.52011,115.51333 160.73114,117.27334 159.57132,118.75687 C 158.35749,120.3483 156.82001,121.64976 154.95888,122.66126 C 153.09769,123.67276 150.88588,124.17851 148.32344,124.17851 C 144.00768,124.17851 140.39326,122.56011 137.48015,119.32331 L 137.48015,123.69299 L 129.02401,123.69299 z M 145.77446,89.666115 C 141.80936,89.666149 139.4357,91.082249 138.65349,93.914417 C 137.87125,96.746645 137.48014,99.659764 137.48015,102.65378 C 137.48014,105.72876 137.87125,108.68234 138.65349,111.51453 C 139.4357,114.34674 141.80936,115.76284 145.77446,115.76283 C 149.73951,115.76284 152.11991,114.40068 152.91565,111.67637 C 153.71133,108.95207 154.10919,105.94455 154.10922,102.65378 C 154.10919,99.443977 153.71133,96.476912 152.91565,93.752577 C 152.11991,91.028302 149.73951,89.666149 145.77446,89.666115 L 145.77446,89.666115 z M 204.60332,105.89058 L 178.46615,105.89058 C 178.46614,109.34319 179.40346,111.93262 181.27812,113.65891 C 183.15275,115.38521 185.54663,116.24836 188.45977,116.24835 C 191.93931,116.24836 195.01427,114.89969 197.68466,112.20235 L 203.79412,117.42169 C 201.71714,119.84929 199.3772,121.58233 196.77431,122.6208 C 194.17135,123.65927 191.45379,124.17851 188.62161,124.17851 C 184.30586,124.17851 180.125,122.78264 176.07901,119.9909 C 172.033,117.19917 170.01,111.48757 170.01001,102.85608 C 170.01,94.683186 171.8779,89.032276 175.61372,85.903334 C 179.34951,82.774467 183.2539,81.210014 187.32689,81.209972 C 191.93931,81.210014 195.97182,82.808183 199.42444,86.004484 C 202.87699,89.20086 204.60328,93.509847 204.60332,98.931459 L 204.60332,105.89058 z M 178.46615,98.931459 L 196.18764,98.931459 C 196.05274,95.775606 195.16262,93.361494 193.51728,91.689116 C 191.87188,90.016803 189.80842,89.18063 187.32689,89.180595 C 184.81835,89.18063 182.73466,90.016803 181.07582,91.689116 C 179.41695,93.361494 178.54706,95.775606 178.46615,98.931459 L 178.46615,98.931459 z M 213.74728,123.69299 L 213.74728,81.695492 L 222.20343,81.695492 L 222.20343,123.69299 L 213.74728,123.69299 z M 213.74728,73.198889 L 213.74728,64.742745 L 222.20343,64.742745 L 222.20343,73.198889 L 213.74728,73.198889 z M 262.98712,72.672908 L 262.98712,90.556236 L 276.50077,90.556236 C 279.84543,90.556269 282.35395,89.625689 284.02633,87.764495 C 285.69864,85.903372 286.53481,83.718533 286.53485,81.209972 C 286.53481,78.215976 285.5368,75.977191 283.54081,74.493609 C 281.86843,73.279859 279.69708,72.672959 277.02675,72.672908 L 262.98712,72.672908 z M 254.04546,123.69299 L 254.04546,64.742745 L 277.10767,64.742745 C 282.15165,64.742804 286.1437,66.037523 289.08383,68.626907 C 290.72916,70.056548 292.12503,71.850273 293.27144,74.008089 C 294.41776,76.166004 294.99095,78.566629 294.99099,81.209972 C 294.99095,85.013252 293.9727,88.378174 291.93626,91.304746 C 289.89973,94.231383 287.10125,96.301586 283.54081,97.515359 L 297.21629,123.69299 L 286.61577,123.69299 L 274.4373,98.526859 L 262.98712,98.526859 L 262.98712,123.69299 L 254.04546,123.69299 z M 301.74783,102.65378 C 301.74782,98.149258 302.09848,94.79108 302.79979,92.579237 C 303.50109,90.367456 304.66094,88.37143 306.27935,86.591154 C 307.43919,85.323445 309.03736,84.109646 311.07386,82.949753 C 313.11033,81.789941 315.77395,81.210014 319.06471,81.209972 C 322.30149,81.210014 324.94487,81.789941 326.99488,82.949753 C 329.04482,84.109646 330.64973,85.323445 331.80962,86.591154 C 333.42798,88.37143 334.58784,90.367456 335.28918,92.579237 C 335.99045,94.79108 336.3411,98.149258 336.34114,102.65378 C 336.3411,107.23927 335.99045,110.63791 335.28918,112.84971 C 334.58784,115.06153 333.42798,117.05756 331.80962,118.83779 C 330.64973,120.13251 329.04482,121.34631 326.99488,122.47919 C 324.94487,123.61207 322.30149,124.17851 319.06471,124.17851 C 315.77395,124.17851 313.11033,123.61207 311.07386,122.47919 C 309.03736,121.34631 307.43919,120.13251 306.27935,118.83779 C 304.66094,117.05756 303.50109,115.06153 302.79979,112.84971 C 302.09848,110.63791 301.74782,107.23927 301.74783,102.65378 L 301.74783,102.65378 z M 327.92546,102.7347 C 327.92543,99.686737 327.77033,97.542358 327.46017,96.301558 C 327.14994,95.060813 326.61722,93.873987 325.862,92.741077 C 324.37844,90.691135 322.11268,89.666149 319.06471,89.666115 C 315.96276,89.666149 313.697,90.691135 312.26743,92.741077 C 311.45822,93.873987 310.91201,95.060813 310.6288,96.301558 C 310.34557,97.542358 310.20396,99.659764 310.20397,102.65378 C 310.20396,105.72876 310.34557,107.89337 310.6288,109.14762 C 310.91201,110.40189 311.45822,111.58197 312.26743,112.68787 C 313.697,114.73785 315.96276,115.76284 319.06471,115.76283 C 322.11268,115.76284 324.37844,114.73785 325.862,112.68787 C 326.61722,111.58197 327.14994,110.40863 327.46017,109.16785 C 327.77033,107.92709 327.92543,105.78271 327.92546,102.7347 L 327.92546,102.7347 z M 345.72785,81.695492 L 345.72785,68.950587 L 354.184,68.950587 L 354.184,81.695492 L 360.33392,81.695492 L 360.33392,88.169095 L 354.184,88.169095 L 354.184,112.60695 C 354.18398,114.71088 355.18199,115.76284 357.17804,115.76283 L 360.33392,115.76283 L 360.33392,123.69299 L 355.92378,123.69299 C 352.98367,123.69299 350.54933,122.80287 348.62074,121.02263 C 346.69214,119.24239 345.72785,116.69342 345.72785,113.37569 L 345.72785,88.169095 L 341.52001,88.169095 L 341.52001,81.695492 L 345.72785,81.695492 z M 61.536704,206.55511 L 61.536704,147.60486 L 69.992848,147.60486 L 69.992848,169.04867 L 70.154688,169.04867 C 72.771086,165.73099 76.412483,164.07213 81.078892,164.07209 C 84.342639,164.07213 87.491774,165.3129 90.526306,167.79441 C 93.56077,170.27599 95.078019,173.89042 95.078058,178.63769 L 95.078058,206.55511 L 86.621915,206.55511 L 86.621915,181.55082 C 86.621884,178.71864 85.832915,176.50683 84.255004,174.91537 C 82.677036,173.32398 80.714728,172.52827 78.368071,172.52823 C 75.94045,172.52827 73.937682,173.32398 72.359759,174.91537 C 70.781803,176.50683 69.992834,178.71864 69.992848,181.55082 L 69.992848,206.55511 L 61.536704,206.55511 z M 106.28548,206.55511 L 106.28548,164.55761 L 114.74162,164.55761 L 114.74162,206.55511 L 106.28548,206.55511 z M 106.28548,156.061 L 106.28548,147.60486 L 114.74162,147.60486 L 114.74162,156.061 L 106.28548,156.061 z M 158.4789,188.7527 L 132.34173,188.7527 C 132.34172,192.2053 133.27904,194.79474 135.1537,196.52102 C 137.02833,198.24732 139.42221,199.11047 142.33535,199.11046 C 145.81489,199.11047 148.88985,197.7618 151.56024,195.06446 L 157.6697,200.2838 C 155.59272,202.71141 153.25278,204.44444 150.64989,205.48291 C 148.04693,206.52139 145.32937,207.04063 142.49719,207.04063 C 138.18144,207.04063 134.00058,205.64476 129.95459,202.85301 C 125.90858,200.06128 123.88558,194.34968 123.88559,185.7182 C 123.88558,177.5453 125.75349,171.89439 129.4893,168.76545 C 133.22509,165.63658 137.12948,164.07213 141.20247,164.07209 C 145.81489,164.07213 149.8474,165.6703 153.30002,168.8666 C 156.75257,172.06298 158.47886,176.37196 158.4789,181.79358 L 158.4789,188.7527 z M 132.34173,181.79358 L 150.06322,181.79358 C 149.92832,178.63772 149.0382,176.22361 147.39286,174.55123 C 145.74746,172.87892 143.684,172.04275 141.20247,172.04271 C 138.69393,172.04275 136.61025,172.87892 134.9514,174.55123 C 133.29253,176.22361 132.42264,178.63772 132.34173,181.79358 L 132.34173,181.79358 z M 167.38011,206.55511 L 167.38011,164.55761 L 175.83625,164.55761 L 175.83625,169.04867 L 175.99809,169.04867 C 178.61449,165.73099 182.25589,164.07213 186.9223,164.07209 C 189.99723,164.07213 192.92383,165.15106 195.70212,167.30889 L 189.59266,174.59169 C 187.75844,173.21608 185.89728,172.52827 184.00917,172.52823 C 181.93221,172.52827 180.05082,173.22283 178.365,174.61192 C 176.67915,176.00108 175.83624,178.23312 175.83625,181.30805 L 175.83625,206.55511 L 167.38011,206.55511 z M 219.4926,206.55511 L 219.4926,147.60486 L 227.94875,147.60486 L 227.94875,169.04867 L 228.11059,169.04867 C 230.72698,165.73099 234.36838,164.07213 239.03479,164.07209 C 242.29854,164.07213 245.44767,165.3129 248.48221,167.79441 C 251.51667,170.27599 253.03392,173.89042 253.03396,178.63769 L 253.03396,206.55511 L 244.57781,206.55511 L 244.57781,181.55082 C 244.57778,178.71864 243.78881,176.50683 242.2109,174.91537 C 240.63294,173.32398 238.67063,172.52827 236.32397,172.52823 C 233.89635,172.52827 231.89358,173.32398 230.31566,174.91537 C 228.7377,176.50683 227.94873,178.71864 227.94875,181.55082 L 227.94875,206.55511 L 219.4926,206.55511 z M 286.04934,206.55511 L 286.04934,202.83278 L 285.84704,202.83278 C 284.14769,205.63801 280.69511,207.04063 275.48928,207.04063 C 270.7959,207.04063 267.1545,205.82008 264.56507,203.37899 C 261.97563,200.93791 260.68091,197.88318 260.68091,194.2148 C 260.68091,190.89709 261.82727,187.99746 264.12001,185.5159 C 266.41274,183.03437 269.82486,181.7936 274.35639,181.79358 L 286.04934,181.79358 L 286.04934,177.42389 C 286.04931,173.83647 283.17665,172.04275 277.43136,172.04271 C 273.43929,172.04275 270.78241,173.10819 269.46073,175.23905 L 262.82529,170.22201 C 265.76538,166.1221 270.48571,164.07213 276.9863,164.07209 C 282.16515,164.07213 286.37299,165.08363 289.60982,167.10659 C 292.84659,169.12963 294.46499,172.73057 294.46502,177.90941 L 294.46502,206.55511 L 286.04934,206.55511 z M 286.04934,191.82766 L 286.04934,188.7527 L 275.93434,188.7527 C 271.05215,188.75272 268.61106,190.43855 268.61107,193.8102 C 268.61106,195.2398 269.22471,196.48057 270.452,197.53252 C 271.67928,198.58449 273.72251,199.11047 276.5817,199.11046 C 280.08821,199.11047 282.54278,198.71936 283.94542,197.93712 C 285.34801,197.1549 286.04931,195.11842 286.04934,191.82766 L 286.04934,191.82766 z M 305.42968,196.39964 L 305.42968,147.60486 L 313.88582,147.60486 L 313.88582,195.71182 C 313.88581,197.65391 314.93777,198.62495 317.0417,198.62494 L 319.91436,198.62494 L 319.91436,206.55511 L 316.19204,206.55511 C 313.11707,206.55511 310.5546,205.8066 308.50464,204.30957 C 306.45466,202.81256 305.42967,200.17592 305.42968,196.39964 L 305.42968,196.39964 z M 327.27808,164.55761 L 327.27808,151.8127 L 335.73422,151.8127 L 335.73422,164.55761 L 341.88415,164.55761 L 341.88415,171.03121 L 335.73422,171.03121 L 335.73422,195.46906 C 335.73421,197.57299 336.73222,198.62495 338.72827,198.62494 L 341.88415,198.62494 L 341.88415,206.55511 L 337.47401,206.55511 C 334.5339,206.55511 332.09956,205.66499 330.17097,203.88474 C 328.24237,202.10451 327.27807,199.55553 327.27808,196.2378 L 327.27808,171.03121 L 323.07024,171.03121 L 323.07024,164.55761 L 327.27808,164.55761 z M 382.30371,188.7527 L 356.16654,188.7527 C 356.16652,192.2053 357.10385,194.79474 358.97851,196.52102 C 360.85314,198.24732 363.24702,199.11047 366.16016,199.11046 C 369.6397,199.11047 372.71465,197.7618 375.38504,195.06446 L 381.49451,200.2838 C 379.41752,202.71141 377.07759,204.44444 374.47469,205.48291 C 371.87174,206.52139 369.15418,207.04063 366.322,207.04063 C 362.00625,207.04063 357.82538,205.64476 353.7794,202.85301 C 349.73339,200.06128 347.71039,194.34968 347.71039,185.7182 C 347.71039,177.5453 349.57829,171.89439 353.3141,168.76545 C 357.0499,165.63658 360.95429,164.07213 365.02728,164.07209 C 369.6397,164.07213 373.67221,165.6703 377.12482,168.8666 C 380.57738,172.06298 382.30367,176.37196 382.30371,181.79358 L 382.30371,188.7527 z M 356.16654,181.79358 L 373.88802,181.79358 C 373.75313,178.63772 372.86301,176.22361 371.21766,174.55123 C 369.57226,172.87892 367.5088,172.04275 365.02728,172.04271 C 362.51874,172.04275 360.43505,172.87892 358.77621,174.55123 C 357.11733,176.22361 356.24744,178.63772 356.16654,181.79358 L 356.16654,181.79358 z M 391.20491,206.55511 L 391.20491,164.55761 L 399.66106,164.55761 L 399.66106,169.04867 L 399.8229,169.04867 C 402.4393,165.73099 406.08069,164.07213 410.7471,164.07209 C 414.01085,164.07213 417.15998,165.3129 420.19452,167.79441 C 423.22898,170.27599 424.74623,173.89042 424.74627,178.63769 L 424.74627,206.55511 L 416.29012,206.55511 L 416.29012,181.55082 C 416.29009,178.71864 415.50112,176.50683 413.92321,174.91537 C 412.34525,173.32398 410.38294,172.52827 408.03628,172.52823 C 405.60866,172.52827 403.60589,173.32398 402.02797,174.91537 C 400.45001,176.50683 399.66104,178.71864 399.66106,181.55082 L 399.66106,206.55511 L 391.20491,206.55511 z "
     style="font-size:82.86211395px;font-style:normal;font-variant:normal;font-weight:normal;font-stretch:normal;text-align:center;line-height:100%;writing-mode:lr-tb;text-anchor:middle;fill:black;fill-opacity:1;stroke:none;stroke-width:1px;stroke-linecap:butt;stroke-linejoin:miter;stroke-opacity:1;font-family:DIN 1451 Mittelschrift"
     id="text3917" />
</svg>
