<?xml version="1.0" encoding="UTF-8" standalone="no"?>
<!-- Created with Inkscape (http://www.inkscape.org/) -->
<svg
   xmlns:svg="http://www.w3.org/2000/svg"
   xmlns="http://www.w3.org/2000/svg"
   version="1.0"
   width="490"
   height="270"
   id="svg2">
  <defs
     id="defs4" />
  <path
     d="M 38.78125,4.984375 C 20.356889,4.9843748 9.96875,12.12016 9.96875,33.203125 L 9.65625,236.79688 C 9.65625,257.87984 20.044391,265.01563 38.46875,265.01563 L 451.21875,264.98438 C 469.64311,264.98438 480.03124,257.84859 480.03125,236.76563 L 480.34375,33.234375 C 480.34375,12.15141 469.95561,5.0156248 451.53125,5.015625 L 38.78125,4.984375 z "
     style="fill:white;fill-opacity:1;fill-rule:evenodd;stroke:black;stroke-width:2;stroke-linecap:butt;stroke-linejoin:miter;stroke-miterlimit:4;stroke-dasharray:none;stroke-opacity:1"
     id="path1881" />
  <path
     d="M 453.3125,17.796875 L 36.78125,17.828125 C 28.356999,17.828125 23.40625,23.829135 23.40625,32.703125 L 23.40625,237.35938 C 23.406249,246.23335 28.35701,252.23438 36.78125,252.23438 L 453.28125,252.20313 C 461.70549,252.20312 466.65625,246.20211 466.65625,237.32813 L 466.65625,32.671875 C 466.65625,23.797885 461.73674,17.796875 453.3125,17.796875 z "
     style="fill:none;fill-opacity:1;fill-rule:evenodd;stroke:black;stroke-width:10.05090809;stroke-linecap:butt;stroke-linejoin:miter;stroke-miterlimit:4;stroke-dasharray:none;stroke-opacity:1"
     id="path3976" />
  <path
     d="M 57.822837,131.78936 C 57.822837,120.18256 58.131757,112.7021 58.749627,109.34796 C 59.367467,105.99396 60.470787,102.90469 62.059567,100.08012 C 64.310307,95.887614 68.006407,91.937754 73.147867,88.230532 C 78.289287,84.523493 84.655397,82.669928 92.246227,82.669831 C 99.792847,82.669928 106.1369,84.523493 111.2784,88.230532 C 116.41978,91.937754 120.16001,95.887614 122.4991,100.08012 C 124.04367,102.90469 125.12491,105.99396 125.74284,109.34796 C 126.36062,112.7021 126.66955,120.18256 126.66963,131.78936 C 126.66955,143.39626 126.36062,150.87672 125.74284,154.23076 C 125.12491,157.58486 124.04367,160.67414 122.4991,163.4986 C 120.16001,167.73534 116.41978,171.67416 111.2784,175.31509 C 106.1369,178.95603 99.792847,180.77649 92.246227,180.77649 C 84.655397,180.77649 78.289287,178.95603 73.147867,175.31509 C 68.006407,171.67416 64.310307,167.73534 62.059567,163.4986 C 60.470787,160.67414 59.367467,157.58486 58.749627,154.23076 C 58.131757,150.87672 57.822837,143.39626 57.822837,131.78936 L 57.822837,131.78936 z M 72.452777,131.78936 C 72.452757,141.71922 72.794787,148.16257 73.478867,151.11942 C 74.162897,154.07633 75.453767,156.74634 77.351497,159.12948 C 78.807837,161.07133 80.793807,162.73733 83.309387,164.12749 C 85.824907,165.51768 88.803857,166.21277 92.246227,166.21275 C 95.688527,166.21277 98.667467,165.51768 101.18308,164.12749 C 103.69858,162.73733 105.68454,161.07133 107.14097,159.12948 C 109.03861,156.74634 110.32949,154.07633 111.0136,151.11942 C 111.6976,148.16257 112.03962,141.71922 112.03969,131.78936 C 112.03962,121.90373 111.6976,115.48245 111.0136,112.5255 C 110.32949,109.56869 109.03861,106.85454 107.14097,104.38305 C 105.68454,102.52956 103.69858,100.89666 101.18308,99.484332 C 98.667467,98.072173 95.688527,97.366053 92.246227,97.36597 C 88.803857,97.366053 85.824907,98.072173 83.309387,99.484332 C 80.793807,100.89666 78.807837,102.52956 77.351497,104.38305 C 75.453767,106.85454 74.162897,109.56869 73.478867,112.5255 C 72.794787,115.48245 72.452757,121.90373 72.452777,131.78936 L 72.452777,131.78936 z M 96.880147,76.844334 L 96.880147,62.214393 L 111.5101,62.214393 L 111.5101,76.844334 L 96.880147,76.844334 z M 72.982367,76.844334 L 72.982367,62.214393 L 87.678507,62.214393 L 87.678507,76.844334 L 72.982367,76.844334 z M 142.49115,163.3662 L 142.49115,83.530415 L 156.3267,83.530415 L 156.3267,162.24082 C 156.32668,165.41838 158.04785,167.00715 161.49021,167.00714 L 166.19033,167.00714 L 166.19033,179.98211 L 160.10003,179.98211 C 155.0689,179.98211 150.87631,178.75743 147.52226,176.30807 C 144.16817,173.85872 142.49114,169.54477 142.49115,163.3662 L 142.49115,163.3662 z M 169.83126,168.52971 L 179.49629,158.99708 C 185.4983,164.86672 192.71396,167.80154 201.14331,167.80152 C 205.07107,167.80154 208.31481,167.06232 210.87453,165.58386 C 213.43418,164.10544 214.71402,161.90985 214.71407,158.99708 C 214.71402,154.98104 211.9116,152.73028 206.30681,152.2448 L 194.12623,151.11942 C 188.43311,150.67812 183.71093,148.80249 179.95968,145.49252 C 176.20841,142.18262 174.33278,137.57077 174.33278,131.65696 C 174.33278,124.68408 176.78213,119.41024 181.68085,115.83545 C 186.57955,112.26078 192.66983,110.47341 199.95173,110.47334 C 205.95372,110.47341 211.09515,111.32296 215.37605,113.022 C 219.65686,114.72116 223.49639,116.98295 226.89465,119.80737 L 218.355,129.8696 C 215.61874,128.01608 212.79425,126.49351 209.88155,125.30188 C 206.96876,124.11035 203.65883,123.51457 199.95173,123.51451 C 195.53844,123.51457 192.47124,124.29792 190.75009,125.86457 C 189.0289,127.43133 188.16832,129.40626 188.16834,131.78936 C 188.16832,133.28992 188.80824,134.68009 190.0881,135.95989 C 191.36792,137.23978 193.75108,138.01209 197.23758,138.27685 L 208.62377,139.07123 C 215.72907,139.55673 220.82637,141.75232 223.9157,145.65802 C 227.00492,149.56378 228.54956,154.23079 228.54962,159.65907 C 228.54956,166.41136 225.79128,171.619 220.27477,175.28199 C 214.75815,178.94499 208.02794,180.77649 200.08412,180.77649 C 188.65377,180.77649 178.5695,176.69424 169.83126,168.52971 L 169.83126,168.52971 z M 242.58378,207.78561 L 242.58378,111.26773 L 256.41934,111.26773 L 256.41934,118.4834 C 261.22976,113.14343 267.14351,110.47341 274.16062,110.47334 C 278.35317,110.47341 281.97204,111.32296 285.01723,113.022 C 288.06232,114.72116 290.57787,116.85056 292.5639,119.41018 C 294.46153,121.88166 295.75241,124.76131 296.43653,128.04913 C 297.12052,131.33705 297.46254,137.21771 297.46261,145.69112 C 297.46254,154.12046 297.12052,159.99008 296.43653,163.3 C 295.75241,166.60996 294.46153,169.47857 292.5639,171.90585 C 290.57787,174.50968 288.06232,176.63907 285.01723,178.29404 C 281.97204,179.94901 278.35317,180.77649 274.16062,180.77649 C 270.58585,180.77649 267.37521,180.04831 264.52869,178.59193 C 261.68212,177.13556 258.979,175.17166 256.41934,172.70024 L 256.41934,207.78561 L 242.58378,207.78561 z M 269.9901,167.00714 C 276.47754,167.00715 280.37223,164.77846 281.67419,160.32106 C 282.97605,155.86369 283.627,150.98705 283.62705,145.69112 C 283.627,140.39525 282.97605,135.50757 281.67419,131.02808 C 280.37223,126.54868 276.47754,124.30895 269.9901,124.3089 C 263.50258,124.30895 259.61892,126.62591 258.3391,131.25977 C 257.05924,135.89373 256.41931,140.70418 256.41934,145.69112 C 256.41931,150.67812 257.05924,155.47753 258.3391,160.08936 C 259.61892,164.70123 263.50258,167.00715 269.9901,167.00714 L 269.9901,167.00714 z M 313.01933,156.94492 L 313.01933,111.26773 L 326.85488,111.26773 L 326.85488,152.2448 C 326.85486,156.92287 328.14574,160.55277 330.72751,163.13451 C 333.30924,165.71627 336.58608,167.00715 340.55804,167.00714 C 344.39753,167.00715 347.60817,165.71627 350.18997,163.13451 C 352.77168,160.55277 354.06255,156.92287 354.0626,152.2448 L 354.0626,111.26773 L 367.89816,111.26773 L 367.89816,179.98211 L 354.0626,179.98211 L 354.0626,172.70024 L 353.79781,172.70024 C 349.5169,178.08441 343.60315,180.77649 336.05652,180.77649 C 330.62819,180.77649 325.43159,178.75743 320.4667,174.7193 C 315.50177,170.68118 313.01932,164.75639 313.01933,156.94492 L 313.01933,156.94492 z M 385.83802,179.98211 L 385.83802,111.26773 L 399.67358,111.26773 L 399.67358,118.6158 L 399.93837,118.6158 C 404.2192,113.18756 410.17709,110.47341 417.81206,110.47334 C 422.84307,110.47341 427.63147,112.23871 432.17717,115.76925 L 422.18118,127.68504 C 419.18012,125.43433 416.13498,124.30895 413.04574,124.3089 C 409.6475,124.30895 406.56926,125.44536 403.81101,127.71813 C 401.0527,129.99101 399.67356,133.64298 399.67358,138.67404 L 399.67358,179.98211 L 385.83802,179.98211 z "
     style="font-size:135.57519531px;font-style:normal;font-variant:normal;font-weight:normal;font-stretch:normal;text-align:center;line-height:100%;writing-mode:lr-tb;text-anchor:middle;fill:black;fill-opacity:1;stroke:none;stroke-width:1px;stroke-linecap:butt;stroke-linejoin:miter;stroke-opacity:1;font-family:DIN 1451 Mittelschrift"
     id="text3722" />
</svg>
