<?xml version="1.0" encoding="UTF-8" standalone="no"?>
<!-- Created with Inkscape (http://www.inkscape.org/) -->
<svg
   xmlns:svg="http://www.w3.org/2000/svg"
   xmlns="http://www.w3.org/2000/svg"
   version="1.0"
   width="490"
   height="270"
   id="svg2">
  <defs
     id="defs4" />
  <path
     d="M 38.75,4.75 C 20.325639,4.7499998 9.9375,11.885785 9.9375,32.96875 L 9.625,236.5625 C 9.625,257.64547 20.013141,264.78126 38.4375,264.78125 L 451.1875,264.75 C 469.61186,264.75 479.99999,257.61421 480,236.53125 L 480.3125,33 C 480.3125,11.917035 469.92436,4.7812498 451.5,4.78125 L 38.75,4.75 z "
     style="fill:white;fill-opacity:1;fill-rule:evenodd;stroke:black;stroke-width:2;stroke-linecap:butt;stroke-linejoin:miter;stroke-miterlimit:4;stroke-dasharray:none;stroke-opacity:1"
     id="path1892" />
  <path
     d="M 453.28125,17.5625 L 36.75,17.59375 C 28.325749,17.59375 23.375,23.59476 23.375,32.46875 L 23.375,237.125 C 23.374999,245.99898 28.32576,252 36.75,252 L 453.25,251.96875 C 461.67424,251.96874 466.625,245.96774 466.625,237.09375 L 466.625,32.4375 C 466.625,23.56351 461.70549,17.5625 453.28125,17.5625 z "
     style="fill:none;fill-opacity:1;fill-rule:evenodd;stroke:black;stroke-width:10.05090809;stroke-linecap:butt;stroke-linejoin:miter;stroke-miterlimit:4;stroke-dasharray:none;stroke-opacity:1"
     id="path3976" />
  <path
     d="M 95.829604,112.62205 C 94.424492,114.92163 92.572166,116.71013 90.272618,117.98756 C 87.973016,119.265 85.450305,119.90372 82.704476,119.90372 C 80.278211,119.90372 77.947455,119.32882 75.712203,118.17903 C 73.476926,117.02925 71.737142,115.60809 70.492846,113.91556 C 69.248535,112.22304 68.418836,110.531 68.003749,108.83944 C 67.588651,107.1479 67.381105,105.21567 67.381109,103.04275 L 67.381109,71.051345 C 67.381105,69.326712 67.556496,67.746242 67.907283,66.309929 C 68.258061,64.873722 69.423439,62.60679 71.40342,59.509125 C 73.383384,56.41158 77.246865,54.862777 82.993872,54.862713 C 85.54677,54.862777 87.940861,55.469339 90.176153,56.682399 C 92.41139,57.895585 94.103916,59.380565 95.253736,61.137342 C 96.403491,62.894237 97.153776,64.53853 97.504593,66.070227 C 97.855341,67.602031 98.030732,69.262402 98.030767,71.051345 L 98.030767,73.731911 L 89.027339,73.731911 L 89.027339,71.051345 C 89.027313,69.965916 88.979567,69.119653 88.884102,68.512553 C 88.788586,67.905556 88.30967,66.99547 87.447354,65.782293 C 86.584989,64.569223 85.068342,63.962662 82.897407,63.962607 C 80.406831,63.962662 78.762538,64.617456 77.964522,65.926991 C 77.166477,67.236633 76.703639,68.210541 76.576006,68.84872 C 76.448347,69.487 76.384524,70.221208 76.384537,71.051345 L 76.384537,103.04275 C 76.384524,104.25686 76.43227,105.16744 76.527774,105.77447 C 76.623251,106.38153 77.102167,107.35544 77.964522,108.6962 C 78.826848,110.03698 80.438986,110.70737 82.800942,110.70736 C 85.355788,110.70737 86.968414,110.03698 87.638823,108.6962 C 88.309183,107.35544 88.708198,106.36546 88.83587,105.72624 C 88.96349,105.08705 89.027313,104.19255 89.027339,103.04275 L 89.027339,91.838157 L 81.652128,91.838157 L 81.652128,83.887077 L 98.030767,83.887077 L 98.030767,103.04275 C 98.030732,105.72625 97.871419,107.65848 97.552825,108.83944 C 97.234163,110.02042 96.659757,111.28128 95.829604,112.62205 L 95.829604,112.62205 z M 127.2656,73.158966 L 127.2656,82.545332 C 126.8193,82.418697 126.37254,82.323207 125.92532,82.258859 C 125.47804,82.194586 125.06246,82.162431 124.67858,82.162394 C 121.67741,82.162431 119.37881,83.184086 117.78277,85.22736 C 116.18669,87.270703 115.38866,89.729591 115.38867,92.604033 L 115.38867,119.32785 L 106.19232,119.32785 L 106.19232,73.731911 L 115.38867,73.731911 L 115.38867,78.619487 C 116.98472,76.639554 118.94813,75.234475 121.2789,74.404245 C 123.60964,73.574105 125.6052,73.159012 127.2656,73.158966 L 127.2656,73.158966 z M 151.24162,119.32785 L 151.24162,114.72967 C 150.15612,116.39004 148.95858,117.66748 147.64901,118.56197 C 146.33941,119.45647 144.75894,119.90372 142.9076,119.90372 C 141.05623,119.90372 139.31645,119.39264 137.68824,118.3705 C 136.06002,117.34836 134.92631,116.18298 134.28711,114.87437 C 133.6479,113.56576 133.28055,112.49636 133.18506,111.66616 C 133.08957,110.83599 133.04182,109.62189 133.04183,108.02387 L 133.04183,73.731911 L 142.23819,73.731911 L 142.23819,104.57743 C 142.23817,105.27901 142.25425,105.99713 142.28642,106.73182 C 142.31856,107.46652 142.66983,108.31279 143.34023,109.27061 C 144.0106,110.22845 145.17598,110.70737 146.83637,110.70736 C 147.66653,110.70737 148.43241,110.48374 149.134,110.03648 C 149.83554,109.58925 150.33005,109.06258 150.61751,108.4565 C 150.90494,107.85044 151.08082,107.19613 151.14515,106.49358 C 151.20944,105.79105 151.24159,105.15233 151.24162,104.57743 L 151.24162,73.731911 L 160.43797,73.731911 L 160.43797,119.32785 L 151.24162,119.32785 z M 151.3907,65.295582 L 151.3907,54.663936 L 159.33886,54.663936 L 159.33886,65.295582 L 151.3907,65.295582 z M 134.14679,65.295582 L 134.14679,54.663936 L 142.09787,54.663936 L 142.09787,65.295582 L 134.14679,65.295582 z M 194.4493,77.850687 C 194.9618,78.618553 195.31356,79.545203 195.50457,80.630642 C 195.69552,81.716158 195.79101,82.801635 195.79104,83.887077 L 195.79104,119.32785 L 186.59468,119.32785 L 186.59468,87.239977 C 186.59466,83.854957 185.09409,82.162431 182.09297,82.162394 C 180.75218,82.162431 179.6667,82.673502 178.83653,83.695608 C 178.00633,84.717785 177.59124,85.89924 177.59125,87.239977 L 177.59125,119.32785 L 168.3949,119.32785 L 168.3949,73.731911 L 177.59125,73.731911 L 177.59125,78.140083 C 179.63552,74.819383 182.47784,73.159012 186.1182,73.158966 C 189.82089,73.159012 192.59791,74.722917 194.4493,77.850687 L 194.4493,77.850687 z M 216.58955,110.61089 C 217.93225,110.6109 219.01822,110.19581 219.84745,109.36561 C 220.67664,108.53544 221.18771,107.44996 221.38066,106.10918 L 230.48056,106.10918 L 230.48056,107.16153 C 230.48053,108.56662 230.177,109.9717 229.56998,111.37677 C 228.9629,112.78185 227.70155,114.55428 225.78591,116.69405 C 223.87022,118.83383 220.86908,119.90372 216.78248,119.90372 C 214.16329,119.90372 211.75215,119.20118 209.54905,117.7961 C 207.34593,116.39102 205.82928,114.84222 204.9991,113.14968 C 204.16891,111.45716 203.64225,109.92444 203.41911,108.5515 C 203.19597,107.17859 203.08441,105.82174 203.08441,104.48096 L 203.08441,87.143512 C 203.08441,83.376529 204.44125,80.10402 207.15495,77.325974 C 209.86864,74.548013 213.10997,73.159012 216.87895,73.158966 C 220.77457,73.159012 224.01541,74.515858 226.60148,77.229509 C 229.1875,79.943244 230.48053,83.247908 230.48056,87.143512 L 230.48056,99.786313 L 212.28077,99.786313 L 212.28077,106.58858 C 212.28076,107.54545 212.74359,108.45505 213.66928,109.31738 C 214.59495,110.17973 215.56837,110.6109 216.58955,110.61089 L 216.58955,110.61089 z M 216.78248,82.162394 C 215.56837,82.162431 214.51456,82.577524 213.62105,83.407673 C 212.72752,84.237895 212.28076,85.70631 212.28077,87.812922 L 212.28077,92.314637 L 221.2842,92.314637 L 221.2842,87.812922 C 221.28418,86.152583 220.93291,84.795737 220.23039,83.742379 C 219.52783,82.689092 218.37853,82.162431 216.78248,82.162394 L 216.78248,82.162394 z "
     style="font-size:95.78712463px;font-style:normal;font-variant:normal;font-weight:normal;font-stretch:normal;text-align:center;line-height:100%;writing-mode:lr-tb;text-anchor:middle;fill:black;fill-opacity:1;stroke:none;stroke-width:1px;stroke-linecap:butt;stroke-linejoin:miter;stroke-opacity:1;font-family:DIN 1451 Engschrift"
     id="text3893" />
  <path
     d="M 295.37931,120.1774 L 287.90763,81.287267 L 280.53242,120.1774 L 272.10194,120.1774 L 262.81204,56.288137 L 272.58134,56.288137 L 277.08305,94.888875 L 284.45827,56.288137 L 291.26053,56.288137 L 298.73221,94.888875 L 303.32746,56.288137 L 313.00323,56.288137 L 303.9998,120.1774 L 295.37931,120.1774 z M 330.25882,111.46045 C 331.60152,111.46046 332.68749,111.04536 333.51672,110.21517 C 334.34591,109.38499 334.85698,108.29952 335.04993,106.95873 L 344.14983,106.95873 L 344.14983,108.01108 C 344.1498,109.41617 343.84627,110.82125 343.23925,112.22632 C 342.63217,113.63141 341.37082,115.40384 339.45518,117.54361 C 337.53949,119.68338 334.53835,120.75327 330.45175,120.75327 C 327.83256,120.75327 325.42142,120.05073 323.21832,118.64565 C 321.0152,117.24057 319.49855,115.69177 318.66837,113.99924 C 317.83818,112.30672 317.31152,110.77399 317.08839,109.40106 C 316.86525,108.02815 316.75368,106.6713 316.75368,105.33052 L 316.75368,87.993068 C 316.75368,84.226085 318.11052,80.953576 320.82422,78.17553 C 323.53791,75.397569 326.77924,74.008568 330.54822,74.008522 C 334.44384,74.008568 337.68468,75.365414 340.27075,78.079065 C 342.85677,80.7928 344.1498,84.097464 344.14983,87.993068 L 344.14983,100.63587 L 325.95004,100.63587 L 325.95004,107.43814 C 325.95003,108.39501 326.41286,109.3046 327.33855,110.16694 C 328.26422,111.02929 329.23764,111.46046 330.25882,111.46045 L 330.25882,111.46045 z M 330.45175,83.01195 C 329.23764,83.011987 328.18383,83.42708 327.29032,84.257229 C 326.39679,85.087451 325.95003,86.555866 325.95004,88.662478 L 325.95004,93.164193 L 334.95347,93.164193 L 334.95347,88.662478 C 334.95345,87.002139 334.60218,85.645293 333.89966,84.591935 C 333.1971,83.538648 332.0478,83.011987 330.45175,83.01195 L 330.45175,83.01195 z M 360.57816,56.288137 L 360.57816,107.0552 C 360.57815,108.58696 360.83344,109.70411 361.34403,110.40664 C 361.8546,111.10919 362.87675,111.46046 364.41046,111.46045 L 365.07987,111.46045 L 365.07987,120.1774 L 363.06872,120.1774 C 361.59931,120.1774 360.22639,120.0176 358.94994,119.698 C 357.67347,119.3784 356.39652,118.72409 355.1191,117.73508 C 353.84166,116.74607 352.89942,115.46912 352.29237,113.90424 C 351.68532,112.33936 351.3818,110.66243 351.3818,108.87342 L 351.3818,56.288137 L 360.57816,56.288137 z M 379.84784,56.288137 L 379.84784,107.0552 C 379.84782,108.58696 380.10311,109.70411 380.61371,110.40664 C 381.12428,111.10919 382.14642,111.46046 383.68014,111.46045 L 384.34955,111.46045 L 384.34955,120.1774 L 382.33839,120.1774 C 380.86899,120.1774 379.49606,120.0176 378.21962,119.698 C 376.94315,119.3784 375.6662,118.72409 374.38878,117.73508 C 373.11133,116.74607 372.16909,115.46912 371.56205,113.90424 C 370.955,112.33936 370.65147,110.66243 370.65148,108.87342 L 370.65148,56.288137 L 379.84784,56.288137 z M 402.66042,111.46045 C 404.00312,111.46046 405.08908,111.04536 405.91832,110.21517 C 406.74751,109.38499 407.25858,108.29952 407.45153,106.95873 L 416.55142,106.95873 L 416.55142,108.01108 C 416.55139,109.41617 416.24787,110.82125 415.64085,112.22632 C 415.03377,113.63141 413.77241,115.40384 411.85678,117.54361 C 409.94109,119.68338 406.93995,120.75327 402.85335,120.75327 C 400.23416,120.75327 397.82301,120.05073 395.61991,118.64565 C 393.41679,117.24057 391.90015,115.69177 391.06997,113.99924 C 390.23978,112.30672 389.71311,110.77399 389.48998,109.40106 C 389.26684,108.02815 389.15527,106.6713 389.15528,105.33052 L 389.15528,87.993068 C 389.15527,84.226085 390.51212,80.953576 393.22582,78.17553 C 395.93951,75.397569 399.18083,74.008568 402.94981,74.008522 C 406.84543,74.008568 410.08627,75.365414 412.67235,78.079065 C 415.25837,80.7928 416.55139,84.097464 416.55142,87.993068 L 416.55142,100.63587 L 398.35164,100.63587 L 398.35164,107.43814 C 398.35162,108.39501 398.81446,109.3046 399.74015,110.16694 C 400.66581,111.02929 401.63923,111.46046 402.66042,111.46045 L 402.66042,111.46045 z M 402.85335,83.01195 C 401.63923,83.011987 400.58543,83.42708 399.69192,84.257229 C 398.79838,85.087451 398.35162,86.555866 398.35164,88.662478 L 398.35164,93.164193 L 407.35506,93.164193 L 407.35506,88.662478 C 407.35504,87.002139 407.00377,85.645293 406.30125,84.591935 C 405.59869,83.538648 404.44939,83.011987 402.85335,83.01195 L 402.85335,83.01195 z "
     style="font-size:95.78712463px;font-style:normal;font-variant:normal;font-weight:normal;font-stretch:normal;text-align:center;line-height:100%;writing-mode:lr-tb;text-anchor:middle;fill:black;fill-opacity:1;stroke:none;stroke-width:1px;stroke-linecap:butt;stroke-linejoin:miter;stroke-opacity:1;font-family:DIN 1451 Engschrift"
     id="text1882" />
  <g
     transform="translate(-6.799741,0.891688)"
     id="g1921">
    <path
       d="M 95.859099,168.11683 C 99.626092,168.11687 102.08449,169.09078 103.23431,171.03856 C 104.38407,172.98642 105.05494,174.51914 105.24693,175.63673 C 105.43885,176.75441 105.53483,177.7595 105.53486,178.65201 L 105.53486,203.65406 C 105.53483,205.25013 105.42277,206.5909 105.19869,207.67637 C 104.97455,208.76185 104.17603,210.23076 102.80314,212.08308 C 101.43019,213.93541 99.083353,214.86157 95.762633,214.86157 C 93.975569,214.86157 92.363431,214.39825 90.926214,213.4716 C 89.488963,212.54495 88.291917,211.28359 87.335074,209.68753 L 87.335074,214.28571 L 78.138714,214.28571 L 78.138714,150.39644 L 87.335074,150.39644 L 87.335074,173.09794 C 89.377394,169.77724 92.218733,168.11687 95.859099,168.11683 L 95.859099,168.11683 z M 91.740322,177.12025 C 90.463846,177.12029 89.410524,177.63136 88.580353,178.65347 C 87.750153,179.67565 87.33506,180.8571 87.335074,182.19784 L 87.335074,200.20469 C 87.33506,201.6741 87.60643,202.95153 88.149182,204.037 C 88.691907,205.12249 89.888952,205.66522 91.740322,205.66522 C 93.081074,205.66522 94.182628,205.26621 95.04499,204.46817 C 95.907309,203.67015 96.33848,202.75957 96.338502,201.73645 L 96.338502,182.19784 C 96.33848,180.72848 95.923387,179.51487 95.093223,178.557 C 94.263016,177.59921 93.145384,177.12029 91.740322,177.12025 L 91.740322,177.12025 z M 125.95335,205.56875 C 127.29605,205.56876 128.38201,205.15367 129.21125,204.32347 C 130.04044,203.49329 130.55151,202.40782 130.74446,201.06704 L 139.84435,201.06704 L 139.84435,202.11938 C 139.84432,203.52448 139.5408,204.92955 138.93378,206.33463 C 138.3267,207.73971 137.06534,209.51214 135.14971,211.65191 C 133.23402,213.79169 130.23288,214.86157 126.14628,214.86157 C 123.52709,214.86157 121.11594,214.15903 118.91284,212.75395 C 116.70972,211.34888 115.19308,209.80007 114.3629,208.10754 C 113.53271,206.41502 113.00604,204.8823 112.78291,203.50936 C 112.55977,202.13645 112.4482,200.7796 112.44821,199.43882 L 112.44821,182.10137 C 112.4482,178.33439 113.80505,175.06188 116.51875,172.28383 C 119.23244,169.50587 122.47376,168.11687 126.24274,168.11683 C 130.13836,168.11687 133.3792,169.47372 135.96528,172.18737 C 138.5513,174.9011 139.84432,178.20577 139.84435,182.10137 L 139.84435,194.74417 L 121.64457,194.74417 L 121.64457,201.54644 C 121.64455,202.50331 122.10739,203.41291 123.03308,204.27524 C 123.95874,205.13759 124.93217,205.56876 125.95335,205.56875 L 125.95335,205.56875 z M 126.14628,177.12025 C 124.93217,177.12029 123.87836,177.53538 122.98485,178.36553 C 122.09131,179.19576 121.64455,180.66417 121.64457,182.77078 L 121.64457,187.2725 L 130.64799,187.2725 L 130.64799,182.77078 C 130.64797,181.11044 130.2967,179.7536 129.59418,178.70024 C 128.89162,177.64695 127.74232,177.12029 126.14628,177.12025 L 126.14628,177.12025 z M 147.07632,214.28571 L 147.07632,168.68977 L 156.27268,168.68977 L 156.27268,214.28571 L 147.07632,214.28571 z M 147.07632,159.39987 L 147.07632,150.39644 L 156.27268,150.39644 L 156.27268,159.39987 L 147.07632,159.39987 z "
       style="font-size:95.78712463px;font-style:normal;font-variant:normal;font-weight:normal;font-stretch:normal;text-align:center;line-height:100%;writing-mode:lr-tb;text-anchor:middle;fill:black;fill-opacity:1;stroke:none;stroke-width:1px;stroke-linecap:butt;stroke-linejoin:miter;stroke-opacity:1;font-family:DIN 1451 Engschrift"
       id="text1886" />
    <path
       d="M 273.86534,213.57143 L 273.86534,149.68216 L 283.06169,149.68216 L 283.06169,187.70996 L 294.55568,167.97549 L 303.65558,167.97549 L 292.831,186.08174 L 305.85966,213.57143 L 295.61095,213.57143 L 287.65987,194.12636 L 283.06169,200.92863 L 283.06169,213.57143 L 273.86534,213.57143 z M 336.3047,172.09427 C 337.51877,170.56256 338.86002,169.39767 340.32847,168.59959 C 341.79685,167.80161 343.45771,167.40259 345.31105,167.40255 C 348.43882,167.40259 351.00879,168.50415 353.02097,170.70721 C 355.03305,172.91037 356.03911,175.57583 356.03916,178.7036 L 356.03916,213.57143 L 346.8428,213.57143 L 346.8428,181.29063 C 346.84276,179.82322 346.47541,178.62617 345.74076,177.69949 C 345.00602,176.77287 343.8728,176.30955 342.34109,176.30951 C 341.06264,176.30955 339.99276,176.80454 339.13142,177.79449 C 338.27002,178.78451 337.83934,179.94989 337.83937,181.29063 L 337.83937,213.57143 L 328.64301,213.57143 L 328.64301,181.29063 C 328.64299,179.88558 328.2279,178.70413 327.39773,177.74626 C 326.56753,176.78846 325.4499,176.30955 324.04483,176.30951 C 322.76836,176.30955 321.69896,176.80454 320.83663,177.79449 C 319.97428,178.78451 319.54311,179.94989 319.54312,181.29063 L 319.54312,213.57143 L 310.34676,213.57143 L 310.34676,167.97549 L 319.54312,167.97549 L 319.54312,172.09427 C 321.64975,168.9665 324.52325,167.40259 328.16361,167.40255 C 329.88827,167.40259 331.43707,167.80161 332.81002,168.59959 C 334.18292,169.39767 335.34781,170.56256 336.3047,172.09427 L 336.3047,172.09427 z M 365.95755,213.57143 L 378.31388,149.68216 L 384.63381,149.68216 L 372.27749,213.57143 L 365.95755,213.57143 z M 412.4509,167.40255 C 414.11125,167.40259 415.67613,167.84935 417.14555,168.74283 C 418.61491,169.6364 419.66872,170.67413 420.30698,171.85603 C 420.94518,173.03801 421.34419,174.04408 421.50403,174.87422 C 421.6638,175.70445 421.7437,176.78992 421.74373,178.13066 L 421.74373,213.57143 L 412.54737,213.57143 L 412.54737,181.5771 C 412.54735,180.04538 412.19608,178.80059 411.49356,177.84272 C 410.791,176.88493 409.67385,176.40601 408.14212,176.40598 C 406.80133,176.40601 405.69978,176.93267 404.83745,177.98596 C 403.9751,179.03932 403.54393,180.23636 403.54394,181.5771 L 403.54394,213.57143 L 394.34758,213.57143 L 394.34758,149.68216 L 403.54394,149.68216 L 403.54394,172.38366 C 405.65057,169.06296 408.61956,167.40259 412.4509,167.40255 L 412.4509,167.40255 z "
       style="font-size:95.78712463px;font-style:normal;font-variant:normal;font-weight:normal;font-stretch:normal;text-align:center;line-height:100%;writing-mode:lr-tb;text-anchor:middle;fill:black;fill-opacity:1;stroke:none;stroke-width:1px;stroke-linecap:butt;stroke-linejoin:miter;stroke-opacity:1;font-family:DIN 1451 Engschrift"
       id="text1890" />
    <path
       d="M 201.9782,215.21429 L 201.9782,206.1144 L 211.0781,206.1144 L 211.0781,215.21429 L 201.9782,215.21429 z M 220.31246,215.21429 L 220.31246,206.1144 L 229.41235,206.1144 L 229.41235,215.21429 L 220.31246,215.21429 z "
       style="font-size:95.78712463px;font-style:normal;font-variant:normal;font-weight:normal;font-stretch:normal;text-align:center;line-height:100%;writing-mode:lr-tb;text-anchor:middle;fill:black;fill-opacity:1;stroke:none;stroke-width:1px;stroke-linecap:butt;stroke-linejoin:miter;stroke-opacity:1;font-family:DIN 1451 Engschrift"
       id="text1894" />
  </g>
</svg>
