<?xml version="1.0" encoding="UTF-8" standalone="no"?>
<!-- Created with Inkscape (http://www.inkscape.org/) -->
<svg
   xmlns:svg="http://www.w3.org/2000/svg"
   xmlns="http://www.w3.org/2000/svg"
   version="1.0"
   width="490"
   height="270"
   id="svg2">
  <defs
     id="defs4" />
  <path
     d="M 38.78125,4.984375 C 20.356889,4.9843748 9.96875,12.12016 9.96875,33.203125 L 9.65625,236.79688 C 9.65625,257.87984 20.044391,265.01563 38.46875,265.01563 L 451.21875,264.98438 C 469.64311,264.98438 480.03124,257.84859 480.03125,236.76563 L 480.34375,33.234375 C 480.34375,12.15141 469.95561,5.0156248 451.53125,5.015625 L 38.78125,4.984375 z "
     style="fill:white;fill-opacity:1;fill-rule:evenodd;stroke:black;stroke-width:2;stroke-linecap:butt;stroke-linejoin:miter;stroke-miterlimit:4;stroke-dasharray:none;stroke-opacity:1"
     id="path1881" />
  <path
     d="M 453.3125,17.796875 L 36.78125,17.828125 C 28.356999,17.828125 23.40625,23.829135 23.40625,32.703125 L 23.40625,237.35938 C 23.406249,246.23335 28.35701,252.23438 36.78125,252.23438 L 453.28125,252.20313 C 461.70549,252.20312 466.65625,246.20211 466.65625,237.32813 L 466.65625,32.671875 C 466.65625,23.797885 461.73674,17.796875 453.3125,17.796875 z "
     style="fill:none;fill-opacity:1;fill-rule:evenodd;stroke:black;stroke-width:10.05090809;stroke-linecap:butt;stroke-linejoin:miter;stroke-miterlimit:4;stroke-dasharray:none;stroke-opacity:1"
     id="path3976" />
  <g
     transform="translate(19.76174,-379.3558)"
     id="g3892">
    <path
       d="M 228.46341,506.28738 L 228.46341,515.45006 L 314.46796,515.45006 C 314.46796,491.36319 350.02165,490.91111 350.02165,515.45006 L 396.30693,515.45006 L 408.50515,471.55178 L 396.33155,425.62417 L 258.45034,425.62417 L 250.53712,471.53028 L 257.80621,506.3247 L 228.46341,506.28738 z "
       style="color:black;fill:black;fill-opacity:1;fill-rule:nonzero;stroke:none;stroke-width:1;stroke-linecap:round;stroke-linejoin:miter;marker:none;marker-start:none;marker-mid:none;marker-end:none;stroke-miterlimit:4;stroke-dasharray:none;stroke-dashoffset:0;stroke-opacity:1;visibility:visible;display:inline;overflow:visible"
       id="path3312" />
    <path
       d="M 38.718956,586.92394 L 42.525207,582.59628 C 43.950372,583.74338 45.592794,584.66453 47.452476,585.35973 C 49.31214,586.05494 51.258714,586.40254 53.292203,586.40253 C 55.638504,586.40254 57.480797,585.9159 58.819088,584.9426 C 60.157336,583.96932 60.826471,582.69188 60.826494,581.11028 C 60.826471,578.12091 59.175359,576.40897 55.873154,575.97445 C 55.00413,575.87019 54.195954,575.7659 53.448625,575.66161 C 52.701264,575.55734 51.832258,575.43568 50.841604,575.29663 C 47.556748,574.84476 45.05401,573.64119 43.333383,571.6859 C 41.612746,569.73066 40.75243,567.37131 40.752433,564.60784 C 40.75243,561.37516 41.834342,558.71601 43.998174,556.63036 C 46.161993,554.54478 49.207859,553.50197 53.135782,553.50193 C 55.482083,553.50197 57.689359,553.87564 59.757615,554.62295 C 61.825828,555.37033 63.728951,556.31755 65.466991,557.4646 L 62.260355,562.20938 C 60.869921,561.3404 59.375231,560.63651 57.776279,560.09769 C 56.177288,559.55894 54.543557,559.28955 52.87508,559.28952 C 51.102293,559.28955 49.598912,559.74143 48.364934,560.64517 C 47.130935,561.54897 46.51394,562.90461 46.513949,564.71212 C 46.51394,565.78971 46.931063,566.79776 47.765319,567.73626 C 48.599555,568.67482 49.981275,569.29181 51.910482,569.58725 C 52.414492,569.67417 53.022796,569.76542 53.735397,569.86099 C 54.447966,569.9566 55.264832,570.05653 56.185996,570.16079 C 59.731523,570.59532 62.351577,571.88145 64.046165,574.01918 C 65.7407,576.15696 66.587981,578.52065 66.58801,581.11028 C 66.587981,584.6037 65.380063,587.315 62.964251,589.24419 C 60.548389,591.17338 57.306996,592.13798 53.240063,592.13798 C 47.521987,592.13798 42.681623,590.39997 38.718956,586.92394 L 38.718956,586.92394 z M 88.122,583.87372 L 92.13681,587.47141 C 90.95494,588.82707 89.5515,589.94374 87.92648,590.82143 C 86.30141,591.69913 84.46347,592.13798 82.41263,592.13798 C 79.284191,592.13798 76.455576,591.07345 73.926773,588.94438 C 71.39796,586.81532 70.133556,583.27412 70.133558,578.32077 C 70.133556,573.36745 71.39796,569.81756 73.926773,567.67109 C 76.455576,565.52467 79.284191,564.45145 82.41263,564.45142 C 84.46347,564.45145 86.30141,564.89464 87.92648,565.781 C 89.5515,566.66741 90.95494,567.78843 92.13681,569.14406 L 88.122,572.71567 C 86.59253,570.83864 84.75893,569.90011 82.62119,569.90009 C 77.928541,569.90011 75.582225,572.707 75.582232,578.32077 C 75.582225,583.91718 77.928541,586.71538 82.62119,586.71538 C 84.77631,586.71538 86.60991,585.76817 88.122,583.87372 L 88.122,583.87372 z M 95.89092,591.82514 L 95.89092,553.84084 L 101.3396,553.84084 L 101.3396,567.65805 L 101.44388,567.65805 C 103.12974,565.52032 105.47606,564.45145 108.48283,564.45142 C 110.58581,564.45145 112.61494,565.25093 114.57023,566.84988 C 116.52547,568.44887 117.5031,570.77781 117.50313,573.83669 L 117.50313,591.82514 L 112.05445,591.82514 L 112.05445,575.71375 C 112.05443,573.88885 111.54607,572.46368 110.52935,571.43823 C 109.51259,570.41283 108.24819,569.90011 106.73613,569.90009 C 105.17191,569.90011 103.88143,570.41283 102.8647,571.43823 C 101.84796,572.46368 101.33959,573.88885 101.3396,575.71375 L 101.3396,591.82514 L 95.89092,591.82514 z M 124.56815,585.28152 L 124.56815,553.84084 L 130.01683,553.84084 L 130.01683,584.83832 C 130.01682,586.0897 130.69464,586.71538 132.0503,586.71538 L 133.90129,586.71538 L 133.90129,591.82514 L 131.50283,591.82514 C 129.52149,591.82514 127.87037,591.34284 126.54949,590.37824 C 125.2286,589.41365 124.56815,587.71474 124.56815,585.28152 L 124.56815,585.28152 z M 159.29367,580.35425 L 142.45232,580.35425 C 142.45231,582.57891 143.05627,584.2474 144.2642,585.35973 C 145.4721,586.47206 147.01459,587.02822 148.89166,587.02822 C 151.13368,587.02822 153.11501,586.15922 154.83567,584.4212 L 158.77227,587.78426 C 157.43397,589.34847 155.92625,590.46514 154.24909,591.13428 C 152.57188,591.80341 150.82084,592.13798 148.99594,592.13798 C 146.2151,592.13798 143.52119,591.23856 140.91417,589.43971 C 138.30715,587.64087 137.00364,583.96063 137.00364,578.39898 C 137.00364,573.13282 138.20721,569.49168 140.61437,567.47556 C 143.02151,565.45949 145.53728,564.45145 148.16169,564.45142 C 151.13368,564.45145 153.73201,565.48122 155.95668,567.54074 C 158.18132,569.60031 159.29365,572.37678 159.29367,575.87017 L 159.29367,580.35425 z M 142.45232,575.87017 L 153.87107,575.87017 C 153.78415,573.83671 153.2106,572.28119 152.15043,571.2036 C 151.09023,570.12606 149.76065,569.58727 148.16169,569.58725 C 146.54533,569.58727 145.20271,570.12606 144.13384,571.2036 C 143.06496,572.28119 142.50445,573.83671 142.45232,575.87017 L 142.45232,575.87017 z M 165.02912,582.75271 L 165.02912,564.76426 L 170.4778,564.76426 L 170.4778,580.90172 C 170.47779,582.74402 170.98616,584.17354 172.0029,585.19027 C 173.01963,586.20701 174.3101,586.71538 175.87433,586.71538 C 177.38639,586.71538 178.65079,586.20701 179.66755,585.19027 C 180.68426,584.17354 181.19263,582.74402 181.19265,580.90172 L 181.19265,564.76426 L 186.64133,564.76426 L 186.64133,591.82514 L 181.19265,591.82514 L 181.19265,588.95741 L 181.08837,588.95741 C 179.40248,591.07779 177.07354,592.13798 174.10156,592.13798 C 171.96379,592.13798 169.91728,591.34284 167.96202,589.75256 C 166.00675,588.16228 165.02912,585.829 165.02912,582.75271 L 165.02912,582.75271 z M 209.86988,591.82514 L 209.86988,589.00956 C 207.97542,591.09517 205.64649,592.13798 202.88306,592.13798 C 201.21455,592.13798 199.78069,591.8121 198.58147,591.16035 C 197.38224,590.50859 196.40026,589.67 195.63554,588.64457 C 194.87081,587.68867 194.3581,586.55462 194.0974,585.24241 C 193.83669,583.93022 193.70634,581.60563 193.70635,578.26863 C 193.70634,574.96642 193.83669,572.6679 194.0974,571.37306 C 194.3581,570.07826 194.87081,568.94421 195.63554,567.9709 C 196.40026,566.96287 197.38224,566.12428 198.58147,565.45512 C 199.78069,564.78601 201.21455,564.45145 202.88306,564.45142 C 204.27346,564.45145 205.53352,564.74691 206.66324,565.33781 C 207.79293,565.92876 208.86181,566.70217 209.86988,567.65805 L 209.86988,553.84084 L 215.31855,553.84084 L 215.31855,591.82514 L 209.86988,591.82514 z M 204.55155,569.90009 C 201.97928,569.90011 200.43679,570.77781 199.92409,572.53318 C 199.41137,574.28859 199.15501,576.20041 199.15502,578.26863 C 199.15501,580.38902 199.41137,582.3269 199.92409,584.08229 C 200.43679,585.83769 201.97928,586.71538 204.55155,586.71538 C 207.07166,586.71538 208.58807,585.80293 209.1008,583.978 C 209.6135,582.1531 209.86986,580.24998 209.86988,578.26863 C 209.86986,576.33945 209.6135,574.4624 209.1008,572.63746 C 208.58807,570.81257 207.07166,569.90011 204.55155,569.90009 L 204.55155,569.90009 z M 242.4055,580.35425 L 225.56415,580.35425 C 225.56414,582.57891 226.1681,584.2474 227.37603,585.35973 C 228.58394,586.47206 230.12642,587.02822 232.00349,587.02822 C 234.24551,587.02822 236.22684,586.15922 237.9475,584.4212 L 241.8841,587.78426 C 240.5458,589.34847 239.03808,590.46514 237.36092,591.13428 C 235.68372,591.80341 233.93267,592.13798 232.10777,592.13798 C 229.32694,592.13798 226.63302,591.23856 224.026,589.43971 C 221.41898,587.64087 220.11547,583.96063 220.11547,578.39898 C 220.11547,573.13282 221.31904,569.49168 223.7262,567.47556 C 226.13334,565.45949 228.64911,564.45145 231.27352,564.45142 C 234.24551,564.45145 236.84384,565.48122 239.06852,567.54074 C 241.29315,569.60031 242.40548,572.37678 242.4055,575.87017 L 242.4055,580.35425 z M 225.56415,575.87017 L 236.9829,575.87017 C 236.89598,573.83671 236.32244,572.28119 235.26227,571.2036 C 234.20206,570.12606 232.87248,569.58727 231.27352,569.58725 C 229.65716,569.58727 228.31454,570.12606 227.24568,571.2036 C 226.17679,572.28119 225.61628,573.83671 225.56415,575.87017 L 225.56415,575.87017 z M 248.14095,591.82514 L 248.14095,564.76426 L 253.58962,564.76426 L 253.58962,567.65805 L 253.6939,567.65805 C 255.37976,565.52032 257.72608,564.45145 260.73286,564.45142 C 262.71418,564.45145 264.59992,565.14665 266.39009,566.53703 L 262.45349,571.22967 C 261.27163,570.34331 260.0724,569.90011 258.8558,569.90009 C 257.51752,569.90011 256.30526,570.34765 255.21901,571.24271 C 254.13274,572.1378 253.58961,573.57601 253.58962,575.55733 L 253.58962,591.82514 L 248.14095,591.82514 z M 284.09177,591.79907 L 284.09177,589.00956 C 282.19732,591.09517 279.86838,592.13798 277.10495,592.13798 C 275.33217,592.13798 273.85051,591.78603 272.65998,591.08214 C 271.46944,590.37824 270.57002,589.63524 269.96172,588.85313 C 269.17961,587.84509 268.64517,586.77621 268.3584,585.6465 C 268.07162,584.5168 267.92824,582.07489 267.92824,578.32077 C 267.92824,574.56668 268.07162,572.12477 268.3584,570.99504 C 268.64517,569.86535 269.17961,568.78779 269.96172,567.76233 C 270.57002,566.99763 271.46944,566.25463 272.65998,565.53333 C 273.85051,564.81208 275.33217,564.45145 277.10495,564.45142 C 279.74672,564.45145 282.07566,565.52032 284.09177,567.65805 L 284.09177,564.76426 L 289.54044,564.76426 L 289.54044,591.19945 C 289.54042,595.2664 288.35423,598.26447 285.98186,600.19367 C 283.60945,602.12286 280.88512,603.08746 277.80885,603.08747 C 276.07083,603.08746 274.36757,602.67033 272.69909,601.8361 C 271.03059,601.00184 269.59673,599.90689 268.3975,598.55125 L 272.62088,595.18819 C 273.28132,595.84864 274.06777,596.42218 274.98023,596.90883 C 275.89268,597.39547 276.87031,597.63879 277.91313,597.63879 C 279.72065,597.63879 281.20231,597.13477 282.3581,596.12672 C 283.51386,595.11867 284.09175,593.67612 284.09177,591.79907 L 284.09177,591.79907 z M 273.37691,578.32077 C 273.37691,580.4933 273.43339,581.93585 273.54637,582.64842 C 273.65933,583.36102 273.95914,584.02146 274.44579,584.62976 C 274.81077,585.11641 275.34955,585.58567 276.06215,586.03755 C 276.77472,586.48944 277.67849,586.71538 278.77345,586.71538 C 279.83362,586.71538 280.71566,586.48944 281.41957,586.03755 C 282.12345,585.58567 282.66658,585.11641 283.04896,584.62976 C 283.51821,584.02146 283.80932,583.36102 283.92231,582.64842 C 284.03527,581.93585 284.09175,580.4933 284.09177,578.32077 C 284.09175,576.14827 284.03527,574.70572 283.92231,573.99311 C 283.80932,573.28055 283.51821,572.61141 283.04896,571.98571 C 282.66658,571.51647 282.12345,571.05155 281.41957,570.59095 C 280.71566,570.1304 279.83362,569.90011 278.77345,569.90009 C 277.67849,569.90011 276.77472,570.1304 276.06215,570.59095 C 275.34955,571.05155 274.81077,571.51647 274.44579,571.98571 C 273.95914,572.61141 273.65933,573.28055 273.54637,573.99311 C 273.43339,574.70572 273.37691,576.14827 273.37691,578.32077 L 273.37691,578.32077 z M 317.59198,580.35425 L 300.75063,580.35425 C 300.75062,582.57891 301.35458,584.2474 302.5625,585.35973 C 303.77041,586.47206 305.3129,587.02822 307.18997,587.02822 C 309.43199,587.02822 311.41332,586.15922 313.13397,584.4212 L 317.07058,587.78426 C 315.73228,589.34847 314.22456,590.46514 312.54739,591.13428 C 310.87019,591.80341 309.11915,592.13798 307.29425,592.13798 C 304.51341,592.13798 301.81949,591.23856 299.21248,589.43971 C 296.60546,587.64087 295.30195,583.96063 295.30195,578.39898 C 295.30195,573.13282 296.50552,569.49168 298.91268,567.47556 C 301.31982,565.45949 303.83559,564.45145 306.46,564.45142 C 309.43199,564.45145 312.03032,565.48122 314.25499,567.54074 C 316.47963,569.60031 317.59196,572.37678 317.59198,575.87017 L 317.59198,580.35425 z M 300.75063,575.87017 L 312.16938,575.87017 C 312.08246,573.83671 311.50891,572.28119 310.44874,571.2036 C 309.38854,570.12606 308.05896,569.58727 306.46,569.58725 C 304.84364,569.58727 303.50102,570.12606 302.43215,571.2036 C 301.36327,572.28119 300.80276,573.83671 300.75063,575.87017 L 300.75063,575.87017 z M 324.18774,591.82514 L 324.18774,568.93549 L 321.45037,568.93549 L 321.45037,564.76426 L 324.18774,564.76426 L 324.18774,561.19264 C 324.18774,558.67255 324.88294,556.81723 326.27336,555.62665 C 327.66376,554.43615 329.41915,553.84088 331.53954,553.84084 L 335.05902,553.84084 L 335.05902,558.9506 L 331.98273,558.9506 C 330.40113,558.95064 329.61033,559.69798 329.61034,561.19264 L 329.61034,564.76426 L 335.05902,564.76426 L 335.05902,568.93549 L 329.61034,568.93549 L 329.61034,591.82514 L 324.18774,591.82514 z M 352.34358,591.82514 L 352.34358,589.42668 L 352.21323,589.42668 C 351.11826,591.23421 348.89361,592.13798 345.53926,592.13798 C 342.5151,592.13798 340.16879,591.35153 338.5003,589.77863 C 336.8318,588.20573 335.99756,586.23743 335.99756,583.87372 C 335.99756,581.73598 336.73621,579.86761 338.21353,578.26863 C 339.69083,576.66967 341.88942,575.87019 344.80929,575.87017 L 352.34358,575.87017 L 352.34358,573.05459 C 352.34356,570.74305 350.49258,569.58727 346.79063,569.58725 C 344.21836,569.58727 342.50641,570.27379 341.65479,571.6468 L 337.37928,568.41409 C 339.27371,565.77233 342.31523,564.45145 346.50385,564.45142 C 349.84082,564.45145 352.55212,565.1032 354.63776,566.40668 C 356.72335,567.71022 357.76616,570.03046 357.76618,573.36743 L 357.76618,591.82514 L 352.34358,591.82514 z M 352.34358,582.33558 L 352.34358,580.35425 L 345.82603,580.35425 C 342.68021,580.35426 341.10731,581.44051 341.10732,583.61302 C 341.10731,584.53418 341.50271,585.33366 342.29351,586.01148 C 343.0843,586.68931 344.40085,587.02822 346.24315,587.02822 C 348.50256,587.02822 350.08415,586.77621 350.98793,586.27218 C 351.89168,585.76817 352.34356,584.45597 352.34358,582.33558 L 352.34358,582.33558 z M 364.83121,591.82514 L 364.83121,553.84084 L 370.27988,553.84084 L 370.27988,567.65805 L 370.38416,567.65805 C 372.07003,565.52032 374.41634,564.45145 377.42312,564.45142 C 379.5261,564.45145 381.55523,565.25093 383.51051,566.84988 C 385.46575,568.44887 386.44339,570.77781 386.44341,573.83669 L 386.44341,591.82514 L 380.99474,591.82514 L 380.99474,575.71375 C 380.99472,573.88885 380.48635,572.46368 379.46963,571.43823 C 378.45288,570.41283 377.18847,569.90011 375.67642,569.90009 C 374.11219,569.90011 372.82172,570.41283 371.80499,571.43823 C 370.78824,572.46368 370.27987,573.88885 370.27988,575.71375 L 370.27988,591.82514 L 364.83121,591.82514 z M 393.50842,591.82514 L 393.50842,564.76426 L 398.9571,564.76426 L 398.9571,567.65805 L 399.06138,567.65805 C 400.74724,565.52032 403.09356,564.45145 406.10034,564.45142 C 408.08165,564.45145 409.9674,565.14665 411.75757,566.53703 L 407.82097,571.22967 C 406.6391,570.34331 405.43987,569.90011 404.22328,569.90009 C 402.885,569.90011 401.67273,570.34765 400.58649,571.24271 C 399.50022,572.1378 398.95709,573.57601 398.9571,575.55733 L 398.9571,591.82514 L 393.50842,591.82514 z "
       style="font-size:53.39178848px;font-style:normal;font-variant:normal;font-weight:normal;font-stretch:normal;text-indent:0;text-align:center;text-decoration:none;line-height:100%;letter-spacing:normal;word-spacing:normal;text-transform:none;direction:ltr;block-progression:tb;writing-mode:lr-tb;text-anchor:middle;color:black;fill:black;fill-opacity:1;fill-rule:nonzero;stroke:none;stroke-width:1;stroke-linecap:round;stroke-linejoin:miter;marker:none;marker-start:none;marker-mid:none;marker-end:none;stroke-miterlimit:4;stroke-dashoffset:0;stroke-opacity:1;visibility:visible;display:inline;overflow:visible;font-family:DIN 1451 Mittelschrift"
       id="text3263" />
    <path
       d="M 86.97768,514.47312 C 86.97768,522.41296 80.54116,528.84947 72.60132,528.84947 C 64.661476,528.84947 58.224964,522.41296 58.224964,514.47312 C 58.224964,506.53328 64.661476,500.09676 72.60132,500.09676 C 80.54116,500.09676 86.97768,506.53328 86.97768,514.47312 L 86.97768,514.47312 z "
       style="fill:black;fill-opacity:1;fill-rule:nonzero;stroke:none;stroke-width:30;stroke-linecap:round;stroke-linejoin:round;stroke-miterlimit:4;stroke-dasharray:none;stroke-dashoffset:0;stroke-opacity:1"
       id="path25345" />
    <path
       d="M 118.46534,459.57086 C 119.2309,458.68455 120.10329,457.92287 121.71349,458.02196 L 191.26178,458.02196 L 225.82699,485.46675 C 226.2084,486.2729 226.4014,486.89063 226.49817,487.41213 L 226.62953,511.73208 C 225.98707,513.1261 225.23123,514.31606 223.88323,514.44012 L 215.86073,514.44012 C 215.86073,490.66283 180.70907,490.61427 180.70907,514.44012 L 90.39554,514.44012 C 90.39554,490.75506 54.976373,490.66418 54.976373,514.44012 L 45.190055,514.44012 C 44.355608,514.0498 43.604856,514.41276 42.502338,511.60982 L 42.39533,494.12083 C 42.964431,492.52961 43.674227,491.92329 44.382426,491.30578 L 95.21891,482.86063 L 118.46534,459.57086 z "
       style="fill:black;fill-opacity:1;fill-rule:evenodd;stroke:none;stroke-width:1px;stroke-linecap:butt;stroke-linejoin:miter;stroke-opacity:1"
       id="path24454" />
    <path
       d="M 212.51329,514.46707 C 212.51329,522.40692 206.07678,528.84343 198.13693,528.84343 C 190.19709,528.84343 183.76058,522.40692 183.76058,514.46707 C 183.76058,506.52723 190.19709,500.09072 198.13693,500.09072 C 206.07678,500.09072 212.51329,506.52723 212.51329,514.46707 L 212.51329,514.46707 z "
       style="fill:black;fill-opacity:1;fill-rule:nonzero;stroke:none;stroke-width:30;stroke-linecap:round;stroke-linejoin:round;stroke-miterlimit:4;stroke-dasharray:none;stroke-dashoffset:0;stroke-opacity:1"
       id="path25343" />
    <path
       d="M 199.70754,480.99083 L 184.8617,466.0396 C 184.47111,465.70766 184.16391,465.25065 183.48498,465.35123 L 157.56968,465.35123 L 157.56968,486.28887 L 201.73671,486.28887 C 203.82668,485.87211 201.07645,483.05241 199.70754,480.99083 z "
       style="fill:white;fill-opacity:1;fill-rule:evenodd;stroke:none;stroke-width:1px;stroke-linecap:butt;stroke-linejoin:miter;stroke-opacity:1"
       id="path26236" />
    <path
       d="M 102.34121,483.13084 L 119.66496,466.03655 C 120.05556,465.70462 120.36275,465.2476 121.04169,465.34819 L 151.84583,465.34819 L 151.84583,486.28583 L 103.66057,486.28583 C 101.82624,485.5623 101.57803,484.46556 102.34121,483.13084 z "
       style="fill:white;fill-opacity:1;fill-rule:evenodd;stroke:none;stroke-width:1px;stroke-linecap:butt;stroke-linejoin:miter;stroke-opacity:1"
       id="path25349" />
    <path
       d="M 272.93811,506.28264 L 305.26405,506.28264 L 305.26405,439.99324 L 273.11476,439.99324 L 272.93811,506.28264 z "
       style="color:black;fill:white;fill-opacity:1;fill-rule:nonzero;stroke:none;stroke-width:1;stroke-linecap:round;stroke-linejoin:miter;marker:none;marker-start:none;marker-mid:none;marker-end:none;stroke-miterlimit:4;stroke-dasharray:none;stroke-dashoffset:0;stroke-opacity:1;visibility:visible;display:inline;overflow:visible"
       id="path3318" />
    <path
       d="M 345.00905,440.01128 L 345.00905,462.42708 L 387.40371,462.42708 L 387.40371,439.99324 L 345.00905,440.01128 z "
       style="color:black;fill:white;fill-opacity:1;fill-rule:nonzero;stroke:none;stroke-width:1;stroke-linecap:round;stroke-linejoin:miter;marker:none;marker-start:none;marker-mid:none;marker-end:none;stroke-miterlimit:4;stroke-dasharray:none;stroke-dashoffset:0;stroke-opacity:1;visibility:visible;display:inline;overflow:visible"
       id="path3320" />
    <path
       d="M 347.00601,514.56525 C 347.00601,522.5051 340.5695,528.94161 332.62965,528.94161 C 324.68981,528.94161 318.2533,522.5051 318.2533,514.56525 C 318.2533,506.62541 324.68981,500.1889 332.62965,500.1889 C 340.5695,500.1889 347.00601,506.62541 347.00601,514.56525 L 347.00601,514.56525 z "
       style="fill:black;fill-opacity:1;fill-rule:nonzero;stroke:none;stroke-width:30;stroke-linecap:round;stroke-linejoin:round;stroke-miterlimit:4;stroke-dasharray:none;stroke-dashoffset:0;stroke-opacity:1"
       id="path3335" />
  </g>
</svg>
