<?xml version="1.0" encoding="UTF-8" standalone="no"?>
<!-- Created with Inkscape (http://www.inkscape.org/) -->

<svg
   xmlns:dc="http://purl.org/dc/elements/1.1/"
   xmlns:cc="http://creativecommons.org/ns#"
   xmlns:rdf="http://www.w3.org/1999/02/22-rdf-syntax-ns#"
   xmlns:svg="http://www.w3.org/2000/svg"
   xmlns="http://www.w3.org/2000/svg"
   xmlns:sodipodi="http://sodipodi.sourceforge.net/DTD/sodipodi-0.dtd"
   xmlns:inkscape="http://www.inkscape.org/namespaces/inkscape"
   version="1.0"
   width="490"
   height="490"
   id="svg2"
   sodipodi:version="0.32"
   inkscape:version="0.48.0 r9654"
   sodipodi:docname="Zusatzzeichen_1006-39.svg">
  <metadata
     id="metadata10">
    <rdf:RDF>
      <cc:Work
         rdf:about="">
        <dc:format>image/svg+xml</dc:format>
        <dc:type
           rdf:resource="http://purl.org/dc/dcmitype/StillImage" />
        <dc:title></dc:title>
      </cc:Work>
    </rdf:RDF>
  </metadata>
  <sodipodi:namedview
     inkscape:window-height="732"
     inkscape:window-width="1008"
     inkscape:pageshadow="2"
     inkscape:pageopacity="0.0"
     guidetolerance="10.0"
     gridtolerance="10.0"
     objecttolerance="10.0"
     borderopacity="1.0"
     bordercolor="#666666"
     pagecolor="#ffffff"
     id="base"
     inkscape:zoom="0.64"
     inkscape:cx="647.45803"
     inkscape:cy="350.16597"
     inkscape:window-x="-4"
     inkscape:window-y="-4"
     inkscape:current-layer="svg2"
     showgrid="false"
     inkscape:window-maximized="0" />
  <defs
     id="defs4" />
  <path
     sodipodi:nodetypes="ccccccccc"
     d="M 38.781255,9.665355 C 20.356895,9.665345 9.968755,19.290965 9.968755,47.730255 L 9.656255,442.26975 C 9.656255,470.70902 20.044395,480.33465 38.468755,480.33465 L 451.21875,480.29249 C 469.6431,480.29249 480.03124,470.66687 480.03125,442.2276 L 480.34375,47.772405 C 480.34375,19.333125 469.9556,9.707495 451.53125,9.707515 L 38.781255,9.665355 z "
     style="fill:white;fill-opacity:1;fill-rule:evenodd;stroke:black;stroke-width:3;stroke-linecap:butt;stroke-linejoin:miter;stroke-miterlimit:4;stroke-dasharray:none;stroke-opacity:1"
     id="path1881" />
  <path
     sodipodi:nodetypes="ccccccccc"
     d="M 453.23342,24.769243 L 36.797822,24.812153 C 28.375507,24.812153 23.425893,33.050693 23.425893,45.233473 L 23.425893,444.80943 C 23.425893,456.99217 28.375517,465.23076 36.797822,465.23076 L 453.20218,465.18785 C 461.62449,465.18784 466.57411,456.94929 466.57411,444.76653 L 466.57411,45.190573 C 466.57411,33.007793 461.65573,24.769243 453.23342,24.769243 z "
     style="fill:none;fill-opacity:1;fill-rule:evenodd;stroke:black;stroke-width:12;stroke-linecap:butt;stroke-linejoin:miter;stroke-miterlimit:4;stroke-dasharray:none;stroke-opacity:1"
     id="path3976" />
  <g
     id="g3025"
     transform="matrix(0.25519369,0,0,0.25519369,122.671,55.297609)">
    <path
       id="path3011"
       d="m 295.78419,86.816926 0,248.265594 391.93206,0.32058 c -22.99976,18.79086 -37.35891,44.69108 -37.17122,78.68503 l -389.0657,-0.23146 C 257.75238,281.97351 70.642616,282.42223 66.576854,413.09434 38.473995,412.88466 34.575813,406.50199 34.30487,380.61469 l -2e-6,-99 C 33.952015,237.37253 28.42681,266.57731 61.177014,182.67997 94.875059,93.246445 85.585107,101.51291 116.0648,99.204795 L 295.78419,86.816926 z m -77.84554,146.382734 1.55116,-105.4792 -100.05012,6.20466 c -18.23966,1.22192 -18.39146,1.33642 -24.81864,22.49189 l -25.594218,68.25124 c -8.59824,20.93425 -7.229702,27.1029 16.28723,24.04306 L 217.93865,233.19966 z m 748.69629,102.39108 0.19058,55.77718 -64.6075,22.86991 -56.72662,-0.0363 C 845.7223,381.859 832.28136,354.65708 808.44981,335.5489 l 158.18513,0.0418 z"
       style="fill:#000000;fill-rule:evenodd;stroke:none"
       inkscape:connector-curvature="0" />
    <rect
       id="rect3013"
       style="fill:#000000;stroke:none"
       width="631.32404"
       height="301.70154"
       y="12.158683"
       x="335.82718" />
    <circle
       id="circle3015"
       style="fill:#000000;stroke:none"
       cy="412"
       cx="164"
       r="77"
       sodipodi:cx="164"
       sodipodi:cy="412"
       sodipodi:rx="77"
       sodipodi:ry="77"
       d="m 241,412 c 0,42.52593 -34.47407,77 -77,77 -42.52593,0 -77,-34.47407 -77,-77 0,-42.52593 34.47407,-77 77,-77 42.52593,0 77,34.47407 77,77 z" />
    <circle
       id="circle3017"
       style="fill:#000000;stroke:none"
       cy="412"
       cx="748"
       r="77"
       sodipodi:cx="748"
       sodipodi:cy="412"
       sodipodi:rx="77"
       sodipodi:ry="77"
       d="m 825,412 c 0,42.52593 -34.47407,77 -77,77 -42.52593,0 -77,-34.47407 -77,-77 0,-42.52593 34.47407,-77 77,-77 42.52593,0 77,34.47407 77,77 z" />
  </g>
  <g
     id="layer1"
     transform="matrix(0.45582987,0,0,0.45582987,95.527366,202.83447)">
    <path
       id="path1966"
       style="fill:#000000;fill-opacity:1;fill-rule:evenodd;stroke:none"
       d="M 31.761217,26.619391 31.306216,5.7140301 C 31.754181,4.3093648 31.994305,2.6968585 33.909231,2.7591539 L 628.71325,2.3775139 C 655.69631,7.7477606 661.04445,77.952922 675,117.14286 l 0,85 c -6.79808,15.9756 -14.13944,17.28258 -21.42857,20 L 565,221.42857 c 0,-77.22798 -117.14286,-76.79773 -117.14286,0 l -237.85714,0 c 0,-76.94563 -114.285714,-76.96669 -114.285714,0 l -82.142857,0 C 9.6780696,220.28672 7.0245746,216.66514 4.6428571,212.5 L 5.5969572,136.28675 40.376483,35.905105 C 41.587822,29.237159 34.6359,29.712067 31.761217,26.619391 z"
       inkscape:connector-curvature="0" />
    <path
       id="path2856"
       style="fill:#000000;fill-opacity:1;fill-rule:nonzero;stroke:none"
       transform="matrix(1.08125,0,0,1.08125,-58.95434,-28.22524)"
       d="m 566.16677,231.14012 a 43.177639,43.177639 0 1 1 -86.35527,0 43.177639,43.177639 0 1 1 86.35527,0 z"
       inkscape:connector-curvature="0" />
    <path
       id="path3745"
       style="fill:#000000;fill-opacity:1;fill-rule:nonzero;stroke:none"
       transform="matrix(1.08125,0,0,1.08125,-412.2014,-27.95538)"
       d="m 566.16677,231.14012 a 43.177639,43.177639 0 1 1 -86.35527,0 43.177639,43.177639 0 1 1 86.35527,0 z"
       inkscape:connector-curvature="0" />
    <path
       id="path3747"
       style="fill:#ffffff;fill-opacity:1;fill-rule:evenodd;stroke:none"
       d="M 531.61675,40.718007 552.142,110.69117 c 1.20831,2.85368 2.39422,5.72479 5.7385,6.91716 l 71.15977,-0.17462 c 2.83855,-2.4727 5.76469,-4.78515 6.21075,-9.88958 L 615.09087,37.58684 c -1.64733,-5.519056 -3.91787,-7.091147 -6.28615,-8.044229 l -72.52098,0.09128 c -3.53544,2.110888 -4.77695,6.056918 -4.66699,11.08412 z"
       inkscape:connector-curvature="0" />
    <path
       id="path4634"
       style="fill:#ffffff;fill-opacity:1;fill-rule:evenodd;stroke:none"
       d="m 429.39705,40.58628 20.52525,69.97316 c 1.20831,2.85368 2.39422,5.72479 5.7385,6.91716 l 71.15977,-0.17462 c 2.83855,-2.4727 5.76469,-4.78515 6.21075,-9.88958 L 512.87117,37.455113 c -1.64733,-5.519056 -3.91787,-7.091147 -6.28615,-8.044229 l -72.52098,0.09128 c -3.53544,2.110888 -4.77695,6.056918 -4.66699,11.08412 z"
       inkscape:connector-curvature="0" />
    <path
       id="path4636"
       style="fill:#ffffff;fill-opacity:1;fill-rule:evenodd;stroke:none"
       d="m 327.98862,40.586273 20.52525,69.973167 c 1.20831,2.85368 2.39422,5.72479 5.7385,6.91716 l 71.15977,-0.17462 c 2.83855,-2.4727 5.76469,-4.78515 6.21075,-9.88958 L 411.46274,37.455106 c -1.64733,-5.519056 -3.91787,-7.091147 -6.28615,-8.044229 l -72.52098,0.09128 c -3.53544,2.110888 -4.77695,6.056918 -4.66699,11.08412 z"
       inkscape:connector-curvature="0" />
    <path
       id="path4638"
       style="fill:#ffffff;fill-opacity:1;fill-rule:evenodd;stroke:none"
       d="m 227.1726,40.586276 20.52525,69.973164 c 1.20831,2.85368 2.39422,5.72479 5.7385,6.91716 l 71.15977,-0.17462 c 2.83855,-2.4727 5.76469,-4.78515 6.21075,-9.88958 L 310.64672,37.455109 c -1.64733,-5.519056 -3.91787,-7.091147 -6.28615,-8.044229 l -72.52098,0.09128 c -3.53544,2.110888 -4.77695,6.056918 -4.66699,11.08412 z"
       inkscape:connector-curvature="0" />
    <path
       id="path4640"
       style="fill:#ffffff;fill-opacity:1;fill-rule:evenodd;stroke:none"
       d="m 142.51433,35.694816 -0.012,75.267214 c 1.20831,2.85368 3.30699,5.54224 6.65127,6.73461 l 73.89807,-0.2659 c 2.83855,-2.4727 5.76469,-4.78515 6.21075,-9.88958 L 209.10226,37.583869 c -1.64733,-5.519056 -3.91787,-7.091147 -6.28615,-8.044229 l -54.8133,-0.09128 c -3.53544,2.110888 -4.32056,2.132019 -5.48848,6.246453 z"
       inkscape:connector-curvature="0" />
    <path
       id="path4642"
       style="fill:#ffffff;fill-opacity:1;fill-rule:evenodd;stroke:none"
       d="m 124.8189,37.998446 -0.12986,72.813024 c -1.20831,2.85368 -2.39422,5.72479 -5.7385,6.91716 l -83.680988,-0.43279 c -2.83855,-2.4727 -5.76469,-4.78515 -6.21075,-9.88958 L 54.124173,37.707145 c 1.64733,-5.519056 3.917867,-7.091147 6.286147,-8.044229 l 59.74159,0.22036 c 3.53544,2.110888 4.77695,3.087968 4.66699,8.11517 z"
       inkscape:connector-curvature="0" />
  </g>
  <g
     id="layer1-9"
     transform="matrix(0.32435589,0,0,0.32435589,89.249897,355.64395)">
    <path
       id="path25345"
       style="fill:#000000;fill-opacity:1;fill-rule:nonzero;stroke:none"
       d="m 160.58312,199.08511 c 0,27.7265 -22.47676,50.20326 -50.20326,50.20326 -27.726498,0 -50.203259,-22.47676 -50.203259,-50.20326 0,-27.72649 22.476761,-50.20326 50.203259,-50.20326 27.7265,0 50.20326,22.47677 50.20326,50.20326 l 0,0 z"
       inkscape:connector-curvature="0" />
    <path
       id="path24454"
       style="fill:#000000;fill-opacity:1;fill-rule:evenodd;stroke:none"
       d="m 270.54027,7.362515 c 2.67342,-3.0950623 5.71987,-5.7549147 11.34279,-5.4088863 l 242.86757,0 L 645.45481,97.7928 c 1.33193,2.81513 2.0059,4.97229 2.34382,6.79341 l 0.45873,84.92698 c -2.24353,4.86804 -4.88297,9.02345 -9.59029,9.45667 l -28.01514,0 c 0,-83.03197 -122.75209,-83.20155 -122.75209,0 l -315.38129,0 c 0,-82.70991 -123.686261,-83.02726 -123.686261,0 l -34.174517,0 c -2.913956,-1.36302 -5.5356302,-0.0955 -9.3857027,-9.88359 L 4.8983948,128.01346 c 1.9873321,-5.55663 4.4659904,-7.67397 6.9390732,-9.83035 L 189.36209,88.692043 270.54027,7.362515 z"
       inkscape:connector-curvature="0" />
    <path
       id="path25343"
       style="fill:#000000;fill-opacity:1;fill-rule:nonzero;stroke:none"
       d="m 598.96242,199.064 c 0,27.7265 -22.47676,50.20326 -50.20326,50.20326 -27.7265,0 -50.20326,-22.47676 -50.20326,-50.20326 0,-27.72649 22.47676,-50.20326 50.20326,-50.20326 27.7265,0 50.20326,22.47677 50.20326,50.20326 l 0,0 z"
       inkscape:connector-curvature="0" />
    <path
       id="path26236"
       style="fill:#ffffff;fill-opacity:1;fill-rule:evenodd;stroke:none"
       d="M 554.24382,82.162579 502.4011,29.951795 c -1.36397,-1.159122 -2.43673,-2.755059 -4.80761,-2.403805 l -90.49807,0 0,73.11573 154.23441,0 c 7.29833,-1.455382 -2.30567,-11.301951 -7.08601,-18.501141 z"
       inkscape:connector-curvature="0" />
    <path
       id="path28093"
       style="fill:#000000;fill-opacity:1;fill-rule:evenodd;stroke:none"
       d="m 787.13419,173.56057 -79.23174,0 0,12.91442 -49.0399,0 0,13.08895 124.08318,0 c 0.94574,-8.74286 0.67998,-17.68763 4.18846,-26.00337 z"
       inkscape:connector-curvature="0" />
    <path
       id="path25349"
       style="fill:#ffffff;fill-opacity:1;fill-rule:evenodd;stroke:none"
       d="m 214.23369,89.635648 60.49577,-59.694494 c 1.36397,-1.159122 2.43673,-2.755058 4.80761,-2.403805 l 107.57028,0 0,73.115741 -168.26636,0 c -6.40563,-2.526634 -7.2724,-6.356517 -4.6073,-11.017442 z"
       inkscape:connector-curvature="0" />
    <path
       id="path26315"
       style="fill:#000000;fill-opacity:1;fill-rule:nonzero;stroke:none"
       d="m 893.91893,199.09866 c 0,27.7265 -22.47676,50.20326 -50.20326,50.20326 -27.7265,0 -50.20326,-22.47676 -50.20326,-50.20326 0,-27.72649 22.47676,-50.20326 50.20326,-50.20326 27.7265,0 50.20326,22.47677 50.20326,50.20326 l 0,0 z"
       inkscape:connector-curvature="0" />
    <path
       id="path26317"
       style="fill:#000000;fill-opacity:1;fill-rule:evenodd;stroke:none"
       d="m 708.07697,162.39134 0,-113.786547 c 2.46922,-17.736087 11.56002,-19.441779 19.8952,-21.989424 l 232.11059,0 c 6.32279,1.634987 14.06325,2.984296 17.97548,20.59327 l 0,115.182701 -85.86345,0 c -17.62644,-36.18633 -78.53367,-36.34914 -97.20723,0 l -86.91059,0 z"
       inkscape:connector-curvature="0" />
    <path
       id="path27206"
       style="fill:#000000;fill-opacity:1;fill-rule:evenodd;stroke:none"
       d="m 978.1455,173.56057 -12.47812,26.00337 -61.43078,0 c -1.83043,-8.71379 -1.71329,-17.7058 -6.45721,-26.00337 l 80.36611,0 z"
       inkscape:connector-curvature="0" />
  </g>
</svg>
