<?xml version="1.0" encoding="UTF-8" standalone="no"?>
<!-- Created with Inkscape (http://www.inkscape.org/) -->
<svg
   xmlns:dc="http://purl.org/dc/elements/1.1/"
   xmlns:cc="http://web.resource.org/cc/"
   xmlns:rdf="http://www.w3.org/1999/02/22-rdf-syntax-ns#"
   xmlns:svg="http://www.w3.org/2000/svg"
   xmlns="http://www.w3.org/2000/svg"
   xmlns:sodipodi="http://sodipodi.sourceforge.net/DTD/sodipodi-0.dtd"
   xmlns:inkscape="http://www.inkscape.org/namespaces/inkscape"
   version="1.0"
   width="490"
   height="360"
   id="svg2"
   sodipodi:version="0.32"
   inkscape:version="0.44"
   sodipodi:docname="Zusatzzeichen 1042-37.svg"
   sodipodi:docbase="C:\Dokumente und Einstellungen\Internet\Desktop\Wiki\SVG sonstiges (fertig)">
  <metadata
     id="metadata10">
    <rdf:RDF>
      <cc:Work
         rdf:about="">
        <dc:format>image/svg+xml</dc:format>
        <dc:type
           rdf:resource="http://purl.org/dc/dcmitype/StillImage" />
      </cc:Work>
    </rdf:RDF>
  </metadata>
  <sodipodi:namedview
     inkscape:window-height="749"
     inkscape:window-width="1024"
     inkscape:pageshadow="2"
     inkscape:pageopacity="0.0"
     guidetolerance="10.0"
     gridtolerance="10.0"
     objecttolerance="10.0"
     borderopacity="1.0"
     bordercolor="#666666"
     pagecolor="#ffffff"
     id="base"
     inkscape:zoom="0.74246212"
     inkscape:cx="245"
     inkscape:cy="104.07398"
     inkscape:window-x="-4"
     inkscape:window-y="-4"
     inkscape:current-layer="svg2" />
  <defs
     id="defs4" />
  <path
     d="M 38.78125,4.6190618 C 20.35689,4.6190483 9.96875,14.244672 9.96875,42.683954 L 9.65625,317.31604 C 9.65625,345.75531 20.04439,355.38094 38.46875,355.38094 L 451.21875,355.33878 C 469.64311,355.33878 480.03124,345.71316 480.03125,317.27389 L 480.34375,42.726108 C 480.34375,14.286826 469.95561,4.6612021 451.53125,4.6612156 L 38.78125,4.6190618 z "
     style="fill:white;fill-opacity:1;fill-rule:evenodd;stroke:black;stroke-width:3;stroke-linecap:butt;stroke-linejoin:miter;stroke-miterlimit:4;stroke-dasharray:none;stroke-opacity:1"
     id="path1881" />
  <path
     d="M 453.23342,19.074797 L 36.79782,19.117707 C 28.375505,19.117707 23.425891,27.356247 23.425891,39.539027 L 23.425891,320.50387 C 23.425891,332.68661 28.375515,340.9252 36.79782,340.9252 L 453.20218,340.88229 C 461.62449,340.88228 466.57411,332.64373 466.57411,320.46097 L 466.57411,39.496127 C 466.57411,27.313347 461.65573,19.074797 453.23342,19.074797 z "
     style="fill:none;fill-opacity:1;fill-rule:evenodd;stroke:black;stroke-width:12;stroke-linecap:butt;stroke-linejoin:miter;stroke-miterlimit:4;stroke-dasharray:none;stroke-opacity:1"
     id="path3976" />
  <g
     id="g3795"
     transform="translate(9.030719,-405.7035)">
    <path
       id="text2049"
       d="M 57.819162,610.11505 L 64.535727,602.47841 C 67.050594,604.50259 69.948835,606.12806 73.230457,607.35482 C 76.512047,608.5816 79.946999,609.19498 83.535324,609.19497 C 87.67564,609.19498 90.926577,608.33624 93.288143,606.61876 C 95.649636,604.90129 96.830401,602.64711 96.830441,599.85619 C 96.830401,594.5811 93.916825,591.56018 88.089706,590.79343 C 86.556214,590.60944 85.130096,590.42542 83.811347,590.24138 C 82.492543,590.05739 80.959083,589.84271 79.21096,589.59733 C 73.414456,588.79996 68.998089,586.67611 65.961846,583.22579 C 62.925585,579.77554 61.407459,575.61219 61.407464,570.73574 C 61.407459,565.03131 63.316617,560.33892 67.134945,556.65856 C 70.953252,552.97831 76.328031,551.13816 83.2593,551.13809 C 87.399618,551.13816 91.294608,551.79755 94.944283,553.11626 C 98.593881,554.4351 101.95216,556.10657 105.01913,558.13068 L 99.360654,566.50338 C 96.907074,564.96998 94.269521,563.72787 91.447989,562.77707 C 88.626386,561.82638 85.74348,561.35101 82.799262,561.35095 C 79.670976,561.35101 77.018089,562.14841 74.840593,563.74315 C 72.66306,565.33801 71.574303,567.73021 71.574318,570.91976 C 71.574303,572.82129 72.310364,574.60011 73.782504,576.2562 C 75.254609,577.91238 77.692811,579.00114 81.097119,579.52248 C 81.986501,579.67586 83.059924,579.83688 84.317389,580.00552 C 85.574799,580.17424 87.016252,580.35059 88.641753,580.53456 C 94.89824,581.30133 99.521624,583.57085 102.51192,587.34314 C 105.50212,591.11548 106.99725,595.28649 106.9973,599.85619 C 106.99725,606.02072 104.86573,610.80512 100.60276,614.20939 C 96.339693,617.61368 90.619885,619.31582 83.443316,619.31582 C 73.353118,619.31582 64.811741,616.2489 57.819162,610.11505 L 57.819162,610.11505 z M 142.00624,618.76378 L 142.00624,614.53142 L 141.77622,614.53142 C 139.84403,617.72102 135.91837,619.31582 129.99923,619.31582 C 124.66277,619.31582 120.52242,617.92804 117.57819,615.15247 C 114.63393,612.37691 113.16181,608.90362 113.16181,604.7326 C 113.16181,600.9603 114.46525,597.66336 117.07214,594.84177 C 119.67902,592.02022 123.55868,590.60944 128.71112,590.60941 L 142.00624,590.60941 L 142.00624,585.64099 C 142.00621,581.56202 138.73994,579.52252 132.20742,579.52248 C 127.66835,579.52252 124.64743,580.73395 123.14465,583.15678 L 115.60002,577.4523 C 118.94296,572.79063 124.31007,570.45977 131.70137,570.45972 C 137.58984,570.45977 142.37424,571.60986 146.05458,573.91001 C 149.73485,576.21024 151.575,580.30458 151.57504,586.19304 L 151.57504,618.76378 L 142.00624,618.76378 z M 142.00624,602.01837 L 142.00624,598.52208 L 130.50527,598.52208 C 124.95412,598.5221 122.17856,600.43892 122.17857,604.27256 C 122.17856,605.89804 122.87629,607.30883 124.27175,608.50491 C 125.66718,609.70102 127.99038,610.29907 131.24133,610.29907 C 135.22831,610.29907 138.01921,609.85437 139.61404,608.96495 C 141.20881,608.07556 142.00621,605.76003 142.00624,602.01837 L 142.00624,602.01837 z "
       style="font-size:94.21591949px;font-style:normal;font-variant:normal;font-weight:normal;font-stretch:normal;text-align:center;line-height:100%;writing-mode:lr-tb;text-anchor:middle;fill:black;fill-opacity:1;stroke:none;stroke-width:1px;stroke-linecap:butt;stroke-linejoin:miter;stroke-opacity:1;font-family:DIN 1451 Mittelschrift" />
    <path
       id="text2055"
       d="M 318.01732,611.37311 L 324.73388,603.73647 C 327.24875,605.76065 330.14699,607.38612 333.42862,608.61287 C 336.7102,609.83965 340.14516,610.45304 343.73348,610.45303 C 347.8738,610.45304 351.12474,609.5943 353.4863,607.87681 C 355.84779,606.15935 357.02856,603.90516 357.0286,601.11424 C 357.02856,595.83916 354.11498,592.81824 348.28786,592.05148 C 346.75437,591.8675 345.32825,591.68348 344.00951,591.49944 C 342.6907,591.31545 341.15724,591.10077 339.40912,590.85538 C 333.61261,590.05801 329.19625,587.93417 326.16,584.48385 C 323.12374,581.0336 321.60562,576.87025 321.60562,571.9938 C 321.60562,566.28937 323.51478,561.59698 327.3331,557.91661 C 331.15141,554.23637 336.52619,552.39622 343.45746,552.39615 C 347.59778,552.39622 351.49277,553.05561 355.14244,554.37432 C 358.79204,555.69316 362.15032,557.36463 365.21729,559.38874 L 359.55881,567.76144 C 357.10523,566.22803 354.46768,564.98593 351.64615,564.03513 C 348.82454,563.08444 345.94164,562.60907 342.99742,562.60901 C 339.86913,562.60907 337.21625,563.40646 335.03875,565.00121 C 332.86122,566.59606 331.77246,568.98826 331.77248,572.17781 C 331.77246,574.07935 332.50852,575.85817 333.98066,577.51426 C 335.45277,579.17044 337.89097,580.2592 341.29528,580.78054 C 342.18466,580.93392 343.25808,581.09493 344.51555,581.26358 C 345.77296,581.4323 347.21441,581.60864 348.83991,581.79262 C 355.0964,582.55939 359.71978,584.82891 362.71008,588.60119 C 365.70028,592.37354 367.1954,596.54455 367.19545,601.11424 C 367.1954,607.27878 365.06389,612.06317 360.80092,615.46745 C 356.53785,618.87174 350.81804,620.57388 343.64147,620.57388 C 333.55128,620.57388 325.0099,617.50696 318.01732,611.37311 L 318.01732,611.37311 z M 374.78609,596.09982 C 374.78609,590.97809 375.18479,587.15977 375.98219,584.64486 C 376.77959,582.13002 378.09836,579.8605 379.93853,577.83629 C 381.25729,576.39488 383.07444,575.01476 385.38998,573.69594 C 387.70549,572.37721 390.73408,571.71782 394.47575,571.71777 C 398.15603,571.71782 401.16161,572.37721 403.49251,573.69594 C 405.82333,575.01476 407.64815,576.39488 408.96697,577.83629 C 410.80708,579.8605 412.12586,582.13002 412.9233,584.64486 C 413.72066,587.15977 414.11936,590.97809 414.1194,596.09982 C 414.11936,601.31361 413.72066,605.17793 412.9233,607.6928 C 412.12586,610.20769 410.80708,612.47721 408.96697,614.50137 C 407.64815,615.9735 405.82333,617.35361 403.49251,618.64172 C 401.16161,619.92983 398.15603,620.57388 394.47575,620.57388 C 390.73408,620.57388 387.70549,619.92983 385.38998,618.64172 C 383.07444,617.35361 381.25729,615.9735 379.93853,614.50137 C 378.09836,612.47721 376.77959,610.20769 375.98219,607.6928 C 375.18479,605.17793 374.78609,601.31361 374.78609,596.09982 L 374.78609,596.09982 z M 404.55059,596.19183 C 404.55056,592.72623 404.37421,590.28803 404.02155,588.87722 C 403.66882,587.46646 403.0631,586.11702 402.2044,584.82888 C 400.51756,582.49805 397.94134,581.33262 394.47575,581.33258 C 390.94876,581.33262 388.37255,582.49805 386.7471,584.82888 C 385.82701,586.11702 385.20595,587.46646 384.88394,588.87722 C 384.5619,590.28803 384.40089,592.69556 384.4009,596.09982 C 384.40089,599.59614 384.5619,602.05734 384.88394,603.48344 C 385.20595,604.90958 385.82701,606.25136 386.7471,607.50878 C 388.37255,609.83965 390.94876,611.00508 394.47575,611.00508 C 397.94134,611.00508 400.51756,609.83965 402.2044,607.50878 C 403.0631,606.25136 403.66882,604.91725 404.02155,603.50645 C 404.37421,602.09568 404.55056,599.65748 404.55059,596.19183 L 404.55059,596.19183 z "
       style="font-size:94.21591949px;font-style:normal;font-variant:normal;font-weight:normal;font-stretch:normal;text-align:center;line-height:100%;writing-mode:lr-tb;text-anchor:middle;fill:black;fill-opacity:1;stroke:none;stroke-width:1px;stroke-linecap:butt;stroke-linejoin:miter;stroke-opacity:1;font-family:DIN 1451 Mittelschrift" />
    <path
       id="text2059"
       d="M 108.84099,463.20709 L 108.84099,484.82891 L 123.93025,484.82891 C 127.70253,484.82894 130.51644,483.69418 132.37196,481.42462 C 134.22741,479.15514 135.15515,476.68627 135.1552,474.018 C 135.15515,469.96971 133.69837,466.9948 130.78483,465.09325 C 128.91397,463.83587 126.50644,463.20715 123.56222,463.20709 L 108.84099,463.20709 z M 98.674131,520.61992 L 98.674131,453.59228 L 123.01018,453.59228 C 125.61703,453.59235 128.12424,453.86837 130.53181,454.42035 C 132.9393,454.97246 135.44651,456.26057 138.05344,458.28468 C 140.07756,459.84887 141.79504,462.00338 143.20587,464.74822 C 144.61661,467.49317 145.322,470.6751 145.32205,474.29402 C 145.322,479.07847 143.53552,483.63285 139.9626,487.95717 C 136.38959,492.28156 131.16816,494.44374 124.29828,494.44372 L 108.84099,494.44372 L 108.84099,520.61992 L 98.674131,520.61992 z M 178.85887,520.61992 L 178.85887,516.38756 L 178.62885,516.38756 C 176.69666,519.57716 172.771,521.17196 166.85186,521.17196 C 161.5154,521.17196 157.37505,519.78418 154.43082,517.00861 C 151.48656,514.23305 150.01444,510.75977 150.01444,506.58874 C 150.01444,502.81644 151.31788,499.5195 153.92477,496.69791 C 156.53165,493.87636 160.41131,492.46558 165.56375,492.46555 L 178.85887,492.46555 L 178.85887,487.49713 C 178.85884,483.41816 175.59257,481.37866 169.06005,481.37862 C 164.52098,481.37866 161.50006,482.59009 159.99728,485.01292 L 152.45265,479.30844 C 155.79559,474.64677 161.1627,472.31591 168.554,472.31586 C 174.44247,472.31591 179.22687,473.466 182.90721,475.76615 C 186.58748,478.06638 188.42763,482.16072 188.42767,488.04918 L 188.42767,520.61992 L 178.85887,520.61992 z M 178.85887,503.87451 L 178.85887,500.37822 L 167.3579,500.37822 C 161.80675,500.37824 159.03119,502.29506 159.0312,506.1287 C 159.03119,507.75418 159.72892,509.16497 161.12438,510.36106 C 162.51981,511.55716 164.84301,512.15521 168.09396,512.15521 C 172.08094,512.15521 174.87184,511.71051 176.46667,510.82109 C 178.06144,509.9317 178.85884,507.61617 178.85887,503.87451 L 178.85887,503.87451 z M 200.89472,520.61992 L 200.89472,472.8679 L 210.50953,472.8679 L 210.50953,477.97433 L 210.69355,477.97433 C 213.66844,474.20206 217.80879,472.31591 223.11459,472.31586 C 226.61085,472.31591 229.93846,473.54267 233.09743,475.99617 L 226.15084,484.27686 C 224.06531,482.71277 221.94913,481.9307 219.80231,481.93067 C 217.44076,481.9307 215.30158,482.72044 213.38477,484.29986 C 211.46793,485.87937 210.50951,488.41724 210.50953,491.9135 L 210.50953,520.61992 L 200.89472,520.61992 z M 237.5138,520.61992 L 237.5138,453.59228 L 247.12861,453.59228 L 247.12861,495.31779 L 247.31262,495.31779 L 265.66817,472.8679 L 277.16913,472.8679 L 260.69975,491.54547 L 279.42332,520.61992 L 267.37031,520.61992 L 254.67324,498.30804 L 247.12861,506.91077 L 247.12861,520.61992 L 237.5138,520.61992 z M 323.44903,500.37822 L 293.73053,500.37822 C 293.73052,504.3039 294.79627,507.24814 296.9278,509.21096 C 299.05929,511.1738 301.78119,512.15521 305.09349,512.15521 C 309.04979,512.15521 312.54608,510.62175 315.58237,507.55482 L 322.52895,513.48932 C 320.16738,516.24955 317.50683,518.22005 314.54728,519.40081 C 311.58767,520.58158 308.49775,521.17196 305.2775,521.17196 C 300.3704,521.17196 295.61668,519.58483 291.0163,516.41056 C 286.41591,513.2363 284.11572,506.7421 284.11572,496.92793 C 284.11572,487.63518 286.23956,481.20998 290.48726,477.65231 C 294.73494,474.09472 299.1743,472.31591 303.80538,472.31586 C 309.04979,472.31591 313.63484,474.13306 317.56054,477.76732 C 321.48616,481.40166 323.44899,486.30107 323.44903,492.46555 L 323.44903,500.37822 z M 293.73053,492.46555 L 313.88023,492.46555 C 313.72685,488.87728 312.71476,486.13239 310.84397,484.23086 C 308.97312,482.3294 306.62692,481.37866 303.80538,481.37862 C 300.95312,481.37866 298.58392,482.3294 296.69778,484.23086 C 294.81161,486.13239 293.82253,488.87728 293.73053,492.46555 L 293.73053,492.46555 z M 333.56988,520.61992 L 333.56988,472.8679 L 343.18469,472.8679 L 343.18469,477.97433 L 343.3687,477.97433 C 346.3436,474.20206 350.48394,472.31591 355.78974,472.31586 C 359.50069,472.31591 363.08132,473.72669 366.53165,476.54821 C 369.9819,479.36982 371.70704,483.4795 371.70708,488.87725 L 371.70708,520.61992 L 362.09227,520.61992 L 362.09227,492.18953 C 362.09224,488.96929 361.19517,486.45441 359.40105,484.64489 C 357.60687,482.83545 355.37568,481.9307 352.70749,481.93067 C 349.94723,481.9307 347.67004,482.83545 345.87591,484.64489 C 344.08174,486.45441 343.18467,488.96929 343.18469,492.18953 L 343.18469,520.61992 L 333.56988,520.61992 z "
       style="font-size:94.21591949px;font-style:normal;font-variant:normal;font-weight:normal;font-stretch:normal;text-align:center;line-height:100%;writing-mode:lr-tb;text-anchor:middle;fill:black;fill-opacity:1;stroke:none;stroke-width:1px;stroke-linecap:butt;stroke-linejoin:miter;stroke-opacity:1;font-family:DIN 1451 Mittelschrift" />
    <path
       id="text2063"
       d="M 134.03674,696.29878 L 103.28596,696.29878 C 103.28595,700.36082 104.38872,703.40734 106.59429,705.43833 C 108.79982,707.46935 111.61626,708.48486 115.04361,708.48485 C 119.13734,708.48486 122.75507,706.89813 125.89683,703.72467 L 133.0847,709.8653 C 130.6411,712.72142 127.88813,714.76036 124.82578,715.98214 C 121.76337,717.20392 118.56612,717.81481 115.23402,717.81481 C 110.15647,717.81481 105.23762,716.17255 100.47745,712.88802 C 95.717264,709.6035 93.337175,702.88372 93.337179,692.72865 C 93.337175,683.11311 95.53479,676.46473 99.930031,672.78348 C 104.32525,669.10232 108.91882,667.26172 113.71076,667.26167 C 119.13734,667.26172 123.88165,669.14199 127.9437,672.90249 C 132.00568,676.66307 134.03669,681.73266 134.03674,688.11127 L 134.03674,696.29878 z M 103.28596,688.11127 L 124.13556,688.11127 C 123.97685,684.39836 122.92961,681.55812 120.99384,679.59054 C 119.058,677.62304 116.63031,676.63927 113.71076,676.63923 C 110.75942,676.63927 108.30793,677.62304 106.35628,679.59054 C 104.40459,681.55812 103.38115,684.39836 103.28596,688.11127 L 103.28596,688.11127 z M 144.50914,717.24359 L 144.50914,667.83289 L 154.45792,667.83289 L 154.45792,673.1167 L 154.64833,673.1167 C 157.72656,669.21339 162.01072,667.26172 167.50082,667.26167 C 171.11852,667.26172 174.56172,668.5311 177.83041,671.06982 L 170.64254,679.63815 C 168.48456,678.01972 166.29488,677.21049 164.07349,677.21045 C 161.6299,677.21049 159.41642,678.02766 157.43303,679.66195 C 155.44961,681.29631 154.4579,683.92234 154.45792,687.54005 L 154.45792,717.24359 L 144.50914,717.24359 z M 182.40019,705.29553 L 182.40019,647.88773 L 192.34897,647.88773 L 192.34897,704.4863 C 192.34895,706.7712 193.5866,707.91364 196.06191,707.91363 L 199.44164,707.91363 L 199.44164,717.24359 L 195.06227,717.24359 C 191.44452,717.24359 188.42974,716.36295 186.01793,714.60168 C 183.60609,712.84042 182.40018,709.73837 182.40019,705.29553 L 182.40019,705.29553 z M 233.47695,717.24359 L 233.47695,712.86422 L 233.23894,712.86422 C 231.23963,716.16461 227.17761,717.81481 221.05287,717.81481 C 215.53104,717.81481 211.24688,716.37882 208.20038,713.50684 C 205.15386,710.63487 203.6306,707.04094 203.6306,702.72503 C 203.6306,698.8217 204.97932,695.41024 207.67676,692.49064 C 210.37419,689.57109 214.3886,688.1113 219.72002,688.11127 L 233.47695,688.11127 L 233.47695,682.97027 C 233.47691,678.74962 230.09719,676.63927 223.33776,676.63923 C 218.64103,676.63927 215.51518,677.89278 213.9602,680.39977 L 206.1535,674.49715 C 209.61256,669.67355 215.1661,667.26172 222.81414,667.26167 C 228.90714,667.26172 233.85773,668.45177 237.66591,670.83181 C 241.47401,673.21194 243.37808,677.4485 243.37813,683.5415 L 243.37813,717.24359 L 233.47695,717.24359 z M 233.47695,699.91652 L 233.47695,696.29878 L 221.57649,696.29878 C 215.83252,696.2988 212.96055,698.28221 212.96056,702.24901 C 212.96055,703.93096 213.68251,705.39074 215.12644,706.62838 C 216.57035,707.86604 218.97424,708.48486 222.33812,708.48485 C 226.46359,708.48486 229.35143,708.02471 231.00165,707.1044 C 232.65182,706.18411 233.47691,703.78815 233.47695,699.91652 L 233.47695,699.91652 z M 256.27822,700.67815 L 256.27822,667.83289 L 266.227,667.83289 L 266.227,697.29842 C 266.22699,700.6623 267.15522,703.27246 269.01171,705.12892 C 270.86816,706.9854 273.22445,707.91364 276.08058,707.91363 C 278.84146,707.91364 281.15014,706.9854 283.00665,705.12892 C 284.86308,703.27246 285.79132,700.6623 285.79135,697.29842 L 285.79135,667.83289 L 295.74013,667.83289 L 295.74013,717.24359 L 285.79135,717.24359 L 285.79135,712.00739 L 285.60095,712.00739 C 282.52266,715.879 278.27024,717.81481 272.84366,717.81481 C 268.94029,717.81481 265.20355,716.36295 261.63343,713.45924 C 258.06328,710.55554 256.27822,706.29518 256.27822,700.67815 L 256.27822,700.67815 z M 308.64022,717.24359 L 308.64022,647.88773 L 318.589,647.88773 L 318.589,673.1167 C 320.42959,671.37134 322.37333,669.95916 324.42023,668.88013 C 326.46708,667.80121 328.77577,667.26172 331.34629,667.26167 C 334.36104,667.26172 336.96327,667.87261 339.15299,669.09434 C 341.34264,670.31617 343.1515,671.84736 344.5796,673.68792 C 345.94414,675.46509 346.87238,677.53577 347.36431,679.89996 C 347.85615,682.26421 348.10209,686.4611 348.10213,692.49064 C 348.10209,698.58369 347.85615,702.82818 347.36431,705.22413 C 346.87238,707.62009 345.94414,709.69077 344.5796,711.43616 C 343.1515,713.30851 341.34264,714.8397 339.15299,716.02974 C 336.96327,717.21978 334.36104,717.81481 331.34629,717.81481 C 326.26874,717.81481 322.01632,715.91074 318.589,712.10259 L 318.589,717.24359 L 308.64022,717.24359 z M 328.34738,677.21045 C 323.68238,677.21049 320.88974,678.87655 319.96946,682.20864 C 319.04914,685.5408 318.58899,688.96813 318.589,692.49064 C 318.58899,696.1084 319.04914,699.58333 319.96946,702.91544 C 320.88974,706.24758 323.68238,707.91364 328.34738,707.91363 C 333.01233,707.91364 335.8129,706.31104 336.7491,703.10584 C 337.68523,699.90067 338.15332,696.36227 338.15335,692.49064 C 338.15332,688.71426 337.68523,685.22346 336.7491,682.01824 C 335.8129,678.81309 333.01233,677.21049 328.34738,677.21045 L 328.34738,677.21045 z M 359.85978,667.83289 L 359.85978,652.83832 L 369.80856,652.83832 L 369.80856,667.83289 L 377.04403,667.83289 L 377.04403,675.44919 L 369.80856,675.44919 L 369.80856,704.20069 C 369.80854,706.67599 370.98272,707.91364 373.33109,707.91363 L 377.04403,707.91363 L 377.04403,717.24359 L 371.85543,717.24359 C 368.39635,717.24359 365.53231,716.19635 363.26331,714.10187 C 360.99428,712.00739 359.85977,709.00848 359.85978,705.10512 L 359.85978,675.44919 L 354.90919,675.44919 L 354.90919,667.83289 L 359.85978,667.83289 z "
       style="font-size:97.48853302px;font-style:normal;font-variant:normal;font-weight:normal;font-stretch:normal;text-align:center;line-height:100%;writing-mode:lr-tb;text-anchor:middle;fill:black;fill-opacity:1;stroke:none;stroke-width:1px;stroke-linecap:butt;stroke-linejoin:miter;stroke-opacity:1;font-family:DIN 1451 Mittelschrift" />
    <path
       id="text2067"
       d="M 188.02372,609.23089 L 188.02372,587.49008 L 194.60898,587.49008 L 194.60898,606.99379 C 194.60897,609.22039 195.22338,610.9481 196.45222,612.17692 C 197.68103,613.40576 199.2407,614.02017 201.13122,614.02017 C 202.95869,614.02017 204.48684,613.40576 205.71569,612.17692 C 206.9445,610.9481 207.55891,609.22039 207.55894,606.99379 L 207.55894,587.49008 L 214.14419,587.49008 L 214.14419,620.19582 L 207.55894,620.19582 L 207.55894,616.72989 L 207.4329,616.72989 C 205.39534,619.29257 202.58059,620.57392 198.98865,620.57392 C 196.40494,620.57392 193.93154,619.61291 191.56841,617.6909 C 189.20528,615.76889 188.02371,612.94889 188.02372,609.23089 L 188.02372,609.23089 z M 222.68297,620.19582 L 222.68297,587.49008 L 229.26823,587.49008 L 229.26823,590.98751 L 229.39427,590.98751 C 231.4318,588.40386 234.26755,587.11201 237.90154,587.11198 C 240.4432,587.11201 242.8956,588.07827 245.25875,590.01075 C 247.62186,591.9433 248.80342,594.75805 248.80345,598.45501 L 248.80345,620.19582 L 242.21819,620.19582 L 242.21819,600.72361 C 242.21817,598.51805 241.60375,596.79559 240.37495,595.55623 C 239.1461,594.31693 237.61794,593.69726 235.79047,593.69724 C 233.89995,593.69726 232.34029,594.31693 231.11147,595.55623 C 229.88264,596.79559 229.26822,598.51805 229.26823,600.72361 L 229.26823,620.19582 L 222.68297,620.19582 z M 276.87745,620.19582 L 276.87745,616.79291 C 274.58781,619.31358 271.77307,620.57392 268.43319,620.57392 C 266.41664,620.57392 264.68368,620.18006 263.2343,619.39235 C 261.78491,618.60464 260.59809,617.59112 259.67385,616.35179 C 258.7496,615.19648 258.12993,613.82587 257.81486,612.23994 C 257.49977,610.65403 257.34223,607.84453 257.34223,603.81144 C 257.34223,599.82039 257.49977,597.0424 257.81486,595.47746 C 258.12993,593.91257 258.7496,592.54196 259.67385,591.36561 C 260.59809,590.14732 261.78491,589.1338 263.2343,588.32505 C 264.68368,587.51637 266.41664,587.11201 268.43319,587.11198 C 270.11362,587.11201 271.63653,587.46911 273.00191,588.18326 C 274.36726,588.89749 275.6591,589.83224 276.87745,590.98751 L 276.87745,574.28805 L 283.46271,574.28805 L 283.46271,620.19582 L 276.87745,620.19582 z M 270.44973,593.69724 C 267.34089,593.69726 265.47664,594.75805 264.85699,596.87959 C 264.23731,599.00118 263.92748,601.31179 263.92749,603.81144 C 263.92748,606.37414 264.23731,608.71626 264.85699,610.83782 C 265.47664,612.95939 267.34089,614.02017 270.44973,614.02017 C 273.49552,614.02017 275.32826,612.91738 275.94795,610.71178 C 276.56759,608.5062 276.87742,606.20609 276.87745,603.81144 C 276.87742,601.47983 276.56759,599.21123 275.94795,597.00562 C 275.32826,594.80006 273.49552,593.69726 270.44973,593.69724 L 270.44973,593.69724 z "
       style="font-size:64.52923584px;font-style:normal;font-variant:normal;font-weight:normal;font-stretch:normal;text-align:center;line-height:100%;writing-mode:lr-tb;text-anchor:middle;fill:black;fill-opacity:1;stroke:none;stroke-width:1px;stroke-linecap:butt;stroke-linejoin:miter;stroke-opacity:1;font-family:DIN 1451 Mittelschrift" />
  </g>
</svg>
