<?xml version="1.0" encoding="UTF-8" standalone="no"?>
<!-- Created with Inkscape (http://www.inkscape.org/) -->
<svg
   xmlns:svg="http://www.w3.org/2000/svg"
   xmlns="http://www.w3.org/2000/svg"
   version="1.0"
   width="490"
   height="270"
   id="svg2">
  <defs
     id="defs4" />
  <path
     d="M 38.75,4.75 C 20.325639,4.7499998 9.9375,11.885785 9.9375,32.96875 L 9.625,236.5625 C 9.625,257.64547 20.013141,264.78126 38.4375,264.78125 L 451.1875,264.75 C 469.61186,264.75 479.99999,257.61421 480,236.53125 L 480.3125,33 C 480.3125,11.917035 469.92436,4.7812498 451.5,4.78125 L 38.75,4.75 z "
     style="fill:white;fill-opacity:1;fill-rule:evenodd;stroke:black;stroke-width:2;stroke-linecap:butt;stroke-linejoin:miter;stroke-miterlimit:4;stroke-dasharray:none;stroke-opacity:1"
     id="path1892" />
  <path
     d="M 453.28125,17.5625 L 36.75,17.59375 C 28.325749,17.59375 23.375,23.59476 23.375,32.46875 L 23.375,237.125 C 23.374999,245.99898 28.32576,252 36.75,252 L 453.25,251.96875 C 461.67424,251.96874 466.625,245.96774 466.625,237.09375 L 466.625,32.4375 C 466.625,23.56351 461.70549,17.5625 453.28125,17.5625 z "
     style="fill:none;fill-opacity:1;fill-rule:evenodd;stroke:black;stroke-width:10.05090809;stroke-linecap:butt;stroke-linejoin:miter;stroke-miterlimit:4;stroke-dasharray:none;stroke-opacity:1"
     id="path3976" />
  <g
     transform="translate(3.539454,0)"
     id="g4271">
    <path
       d="M 172.31132,181.59225 C 172.31128,184.38053 171.61421,187.30849 170.22013,190.37613 C 168.82595,193.44379 166.54826,196.06966 163.38704,198.25375 C 160.22575,200.43784 156.78722,201.52989 153.07146,201.52989 C 149.07483,201.52989 145.40301,200.50734 142.05598,198.46223 C 138.70892,196.41713 136.43122,194.11675 135.22289,191.56107 C 134.01454,189.00541 133.27139,186.89081 132.99342,185.21728 C 132.71544,183.54377 132.57645,181.82344 132.57645,180.0563 L 132.57645,163.74368 C 132.57645,161.23627 133.15722,158.9834 134.31876,156.98505 C 135.48029,154.9868 137.13042,153.19769 139.26913,151.61772 C 134.80734,148.27072 132.57645,143.66995 132.57645,137.81539 L 132.57645,125.26821 C 132.57645,123.50116 132.92463,121.71134 133.62099,119.89875 C 134.31734,118.08632 135.99015,115.46045 138.63943,112.02113 C 141.2887,108.58198 146.00576,106.86237 152.79065,106.86227 C 155.39451,106.86237 157.85799,107.39704 160.1811,108.4663 C 162.50415,109.53575 165.10662,111.58085 167.98852,114.60162 C 170.87035,117.62255 172.31128,121.68865 172.31132,126.79991 L 172.31132,138.78972 C 172.31128,144.18193 170.08039,148.45793 165.61864,151.61772 C 170.08039,154.684 172.31128,159.05218 172.31132,164.72227 L 172.31132,181.59225 z M 152.51409,120.10723 C 150.56257,120.10731 148.93585,120.75828 147.63392,122.06015 C 146.33196,123.36217 145.68099,124.94209 145.681,126.79991 L 145.681,138.78972 C 145.68099,140.92849 146.26176,142.7644 147.42331,144.29746 C 148.58483,145.83064 150.23495,146.5972 152.37368,146.59714 C 154.69674,146.5972 156.39295,145.87673 157.46234,144.43574 C 158.53166,142.99487 159.06634,141.11286 159.06637,138.78972 L 159.06637,126.79991 C 159.06634,125.03286 158.43876,123.47563 157.18365,122.12822 C 155.92848,120.78097 154.37196,120.10731 152.51409,120.10723 L 152.51409,120.10723 z M 152.51409,156.63404 C 150.46896,156.63408 148.81884,157.30845 147.56372,158.65716 C 146.30856,160.00595 145.68099,161.70145 145.681,163.74368 L 145.681,180.0563 C 145.68099,182.473 146.23835,184.4252 147.35311,185.91292 C 148.46783,187.40067 150.28034,188.14454 152.79065,188.14453 C 155.2073,188.14454 156.85743,187.35458 157.74102,185.77464 C 158.62455,184.19474 159.06634,182.28863 159.06637,180.0563 L 159.06637,163.74368 C 159.06634,161.70145 158.48557,160.00595 157.32406,158.65716 C 156.16249,157.30845 154.55917,156.63408 152.51409,156.63404 L 152.51409,156.63404 z "
       style="font-size:139.41880798px;font-style:normal;font-variant:normal;font-weight:normal;font-stretch:normal;text-indent:0;text-align:center;text-decoration:none;line-height:100%;letter-spacing:normal;word-spacing:normal;text-transform:none;direction:ltr;block-progression:tb;writing-mode:lr-tb;text-anchor:middle;color:black;fill:black;fill-opacity:1;fill-rule:nonzero;stroke:none;stroke-width:1;stroke-linecap:round;stroke-linejoin:miter;marker:none;marker-start:none;marker-mid:none;marker-end:none;stroke-miterlimit:4;stroke-dashoffset:0;stroke-opacity:1;visibility:visible;display:inline;overflow:visible;font-family:DIN 1451 Engschrift"
       id="text5392" />
    <path
       d="M 72.672733,67.610438 L 41.610233,98.672938 L 41.610233,120.92294 L 63.422733,99.079188 L 63.422733,208.04794 L 81.953983,208.04794 L 81.953983,99.079188 L 103.79773,120.92294 L 103.79773,98.672938 L 72.672733,67.610438 z "
       style="color:black;fill:black;fill-opacity:1;fill-rule:nonzero;stroke:none;stroke-width:1;stroke-linecap:round;stroke-linejoin:miter;marker:none;marker-start:none;marker-mid:none;marker-end:none;stroke-miterlimit:4;stroke-dashoffset:0;stroke-opacity:1;visibility:visible;display:inline;overflow:visible"
       id="path5371" />
    <path
       d="M 410.18586,67.608052 L 379.12336,98.670551 L 379.12336,120.92055 L 400.93586,99.076801 L 400.93586,208.04555 L 419.46711,208.04555 L 419.46711,99.076801 L 441.31086,120.92055 L 441.31086,98.670551 L 410.18586,67.608052 z "
       style="color:black;fill:black;fill-opacity:1;fill-rule:nonzero;stroke:none;stroke-width:1;stroke-linecap:round;stroke-linejoin:miter;marker:none;marker-start:none;marker-mid:none;marker-end:none;stroke-miterlimit:4;stroke-dashoffset:0;stroke-opacity:1;visibility:visible;display:inline;overflow:visible"
       id="path5378" />
    <path
       d="M 187.84985,115.78443 C 191.94004,109.83641 197.47118,106.86236 204.44327,106.86227 C 207.0443,106.86236 209.62266,107.37364 212.17836,108.3961 C 214.734,109.41874 216.84859,110.81358 218.52216,112.58062 L 222.70455,118.15431 C 223.3569,119.73431 223.79868,121.17524 224.0299,122.47711 C 224.26103,123.77913 224.37661,125.54484 224.37666,127.77424 L 224.37666,180.1967 C 224.37661,183.17219 224.12133,185.65907 223.61081,187.65736 C 223.1002,189.65567 221.42738,192.46733 218.59236,196.09235 C 215.75726,199.71737 211.13309,201.52989 204.71983,201.52989 C 202.02515,201.52989 199.46948,200.99521 197.05282,199.92585 C 194.63612,198.8565 192.49883,197.34608 190.64095,195.39457 L 186.73511,189.54007 C 186.45713,188.9813 186.03946,187.95804 185.48209,186.47029 C 184.92472,184.98257 184.64604,182.98498 184.64604,180.47751 L 184.64604,127.77424 C 184.64604,125.17326 184.85452,122.98988 185.27148,121.22409 C 185.68844,119.45846 186.5479,117.64524 187.84985,115.78443 L 187.84985,115.78443 z M 211.27211,126.79991 C 211.27207,125.03285 210.59841,123.47563 209.25111,122.12822 C 207.90375,120.78097 206.25434,120.10731 204.30287,120.10723 C 202.35134,120.10731 200.79483,120.82777 199.63331,122.26863 C 198.47175,123.70964 197.89098,125.54484 197.891,127.77424 L 197.891,162.35238 L 211.27211,130.00797 L 211.27211,126.79991 z M 197.891,178.10763 L 197.891,180.05629 C 197.89098,181.63623 198.23916,183.37925 198.93553,185.28535 C 199.63187,187.19148 201.51316,188.14454 204.57942,188.14452 C 205.88134,188.14454 207.09039,187.77296 208.20658,187.02979 C 209.3227,186.28664 210.11266,185.40379 210.57646,184.38122 C 211.04019,183.35868 211.27207,182.14964 211.27211,180.75407 L 211.27211,146.03977 L 197.891,178.10763 z "
       style="font-size:139.41880798px;font-style:normal;font-variant:normal;font-weight:normal;font-stretch:normal;text-indent:0;text-align:center;text-decoration:none;line-height:100%;letter-spacing:normal;word-spacing:normal;text-transform:none;direction:ltr;block-progression:tb;writing-mode:lr-tb;text-anchor:middle;color:black;fill:black;fill-opacity:1;fill-rule:nonzero;stroke:none;stroke-width:1;stroke-linecap:round;stroke-linejoin:miter;marker:none;marker-start:none;marker-mid:none;marker-end:none;stroke-miterlimit:4;stroke-dashoffset:0;stroke-opacity:1;visibility:visible;display:inline;overflow:visible;font-family:DIN 1451 Engschrift"
       id="text5398" />
    <path
       d="M 197.80761,127.13378 L 197.80761,181.42555 L 211.36875,181.42555 L 211.36875,128.00477 L 197.80761,127.13378 z "
       style="color:black;fill:white;fill-opacity:1;fill-rule:nonzero;stroke:none;stroke-width:1;stroke-linecap:round;stroke-linejoin:miter;marker:none;marker-start:none;marker-mid:none;marker-end:none;stroke-miterlimit:4;stroke-dasharray:none;stroke-dashoffset:0;stroke-opacity:1;visibility:visible;display:inline;overflow:visible"
       id="path5404" />
    <path
       d="M 241.826,115.78443 C 245.91619,109.83641 251.44733,106.86236 258.41942,106.86227 C 261.02045,106.86236 263.59881,107.37364 266.15451,108.3961 C 268.71015,109.41874 270.82474,110.81358 272.49831,112.58062 L 276.6807,118.15431 C 277.33305,119.73431 277.77483,121.17524 278.00605,122.47711 C 278.23718,123.77913 278.35276,125.54484 278.35281,127.77424 L 278.35281,180.1967 C 278.35276,183.17219 278.09748,185.65907 277.58696,187.65736 C 277.07635,189.65567 275.40353,192.46733 272.56851,196.09235 C 269.73341,199.71737 265.10924,201.52989 258.69598,201.52989 C 256.0013,201.52989 253.44563,200.99521 251.02897,199.92585 C 248.61227,198.8565 246.47498,197.34608 244.6171,195.39457 L 240.71126,189.54007 C 240.43328,188.9813 240.01561,187.95804 239.45824,186.47029 C 238.90087,184.98257 238.62219,182.98498 238.62219,180.47751 L 238.62219,127.77424 C 238.62219,125.17326 238.83067,122.98988 239.24763,121.22409 C 239.66459,119.45846 240.52405,117.64524 241.826,115.78443 L 241.826,115.78443 z M 265.24826,126.79991 C 265.24822,125.03285 264.57456,123.47563 263.22726,122.12822 C 261.8799,120.78097 260.23049,120.10731 258.27902,120.10723 C 256.32749,120.10731 254.77098,120.82777 253.60946,122.26863 C 252.4479,123.70964 251.86713,125.54484 251.86715,127.77424 L 251.86715,162.35238 L 265.24826,130.00797 L 265.24826,126.79991 z M 251.86715,178.10763 L 251.86715,180.05629 C 251.86713,181.63623 252.21531,183.37925 252.91168,185.28535 C 253.60802,187.19148 255.48931,188.14454 258.55557,188.14452 C 259.85749,188.14454 261.06654,187.77296 262.18273,187.02979 C 263.29885,186.28664 264.08881,185.40379 264.55261,184.38122 C 265.01634,183.35868 265.24822,182.14964 265.24826,180.75407 L 265.24826,146.03977 L 251.86715,178.10763 z "
       style="font-size:139.41880798px;font-style:normal;font-variant:normal;font-weight:normal;font-stretch:normal;text-indent:0;text-align:center;text-decoration:none;line-height:100%;letter-spacing:normal;word-spacing:normal;text-transform:none;direction:ltr;block-progression:tb;writing-mode:lr-tb;text-anchor:middle;color:black;fill:black;fill-opacity:1;fill-rule:nonzero;stroke:none;stroke-width:1;stroke-linecap:round;stroke-linejoin:miter;marker:none;marker-start:none;marker-mid:none;marker-end:none;stroke-miterlimit:4;stroke-dashoffset:0;stroke-opacity:1;visibility:visible;display:inline;overflow:visible;font-family:DIN 1451 Engschrift"
       id="path5412" />
    <path
       d="M 334.62137,141.1596 C 336.38845,138.93019 338.34066,137.23469 340.478,136.07308 C 342.61523,134.91161 345.03262,134.33084 347.73017,134.33077 C 352.28267,134.33084 356.02328,135.93416 358.95201,139.14074 C 361.88061,142.34744 363.34494,146.22704 363.34501,150.77954 L 363.34501,201.52989 L 349.95965,201.52989 L 349.95965,154.54497 C 349.95959,152.40915 349.42491,150.66684 348.35562,149.31804 C 347.28621,147.96934 345.63679,147.29497 343.40737,147.29492 C 341.54659,147.29497 339.98936,148.01544 338.73569,149.45632 C 337.48191,150.8973 336.85505,152.59352 336.8551,154.54497 L 336.8551,201.52989 L 323.46974,201.52989 L 323.46974,154.54497 C 323.4697,152.49991 322.86553,150.7803 321.65722,149.38611 C 320.44885,147.99204 318.82213,147.29497 316.77705,147.29492 C 314.91913,147.29497 313.36262,148.01544 312.10749,149.45632 C 310.85233,150.8973 310.22476,152.59352 310.22478,154.54497 L 310.22478,201.52989 L 296.83942,201.52989 L 296.83942,135.1647 L 310.22478,135.1647 L 310.22478,141.1596 C 313.29099,136.60711 317.47338,134.33084 322.77196,134.33077 C 325.28221,134.33084 327.53651,134.91161 329.53484,136.07308 C 331.53311,137.23469 333.22861,138.93019 334.62137,141.1596 L 334.62137,141.1596 z "
       style="font-size:139.41880798px;font-style:normal;font-variant:normal;font-weight:normal;font-stretch:normal;text-indent:0;text-align:center;text-decoration:none;line-height:100%;letter-spacing:normal;word-spacing:normal;text-transform:none;direction:ltr;block-progression:tb;writing-mode:lr-tb;text-anchor:middle;color:black;fill:black;fill-opacity:1;fill-rule:nonzero;stroke:none;stroke-width:1;stroke-linecap:round;stroke-linejoin:miter;marker:none;marker-start:none;marker-mid:none;marker-end:none;stroke-miterlimit:4;stroke-dashoffset:0;stroke-opacity:1;visibility:visible;display:inline;overflow:visible;font-family:DIN 1451 Engschrift"
       id="text5416" />
    <path
       d="M 251.76154,125.7172 L 251.76154,180.00897 L 265.32268,180.00897 L 265.32268,126.58819 L 251.76154,125.7172 z "
       style="color:black;fill:white;fill-opacity:1;fill-rule:nonzero;stroke:none;stroke-width:1;stroke-linecap:round;stroke-linejoin:miter;marker:none;marker-start:none;marker-mid:none;marker-end:none;stroke-miterlimit:4;stroke-dasharray:none;stroke-dashoffset:0;stroke-opacity:1;visibility:visible;display:inline;overflow:visible"
       id="path5425" />
  </g>
</svg>
