<?xml version="1.0" encoding="UTF-8" standalone="no"?>
<!-- Created with Inkscape (http://www.inkscape.org/) -->

<svg
   xmlns:dc="http://purl.org/dc/elements/1.1/"
   xmlns:cc="http://creativecommons.org/ns#"
   xmlns:rdf="http://www.w3.org/1999/02/22-rdf-syntax-ns#"
   xmlns:svg="http://www.w3.org/2000/svg"
   xmlns="http://www.w3.org/2000/svg"
   xmlns:sodipodi="http://sodipodi.sourceforge.net/DTD/sodipodi-0.dtd"
   xmlns:inkscape="http://www.inkscape.org/namespaces/inkscape"
   version="1.1"
   width="574.03436"
   height="315.75903"
   id="svg2"
   inkscape:version="0.48.3.1 r9886"
   sodipodi:docname="Zusatzzeichen_1014-51.svg">
  <metadata
     id="metadata8">
    <rdf:RDF>
      <cc:Work
         rdf:about="">
        <dc:format>image/svg+xml</dc:format>
        <dc:type
           rdf:resource="http://purl.org/dc/dcmitype/StillImage" />
      </cc:Work>
    </rdf:RDF>
  </metadata>
  <sodipodi:namedview
     pagecolor="#ffffff"
     bordercolor="#666666"
     borderopacity="1"
     objecttolerance="10"
     gridtolerance="10"
     guidetolerance="10"
     inkscape:pageopacity="0"
     inkscape:pageshadow="2"
     inkscape:window-width="1366"
     inkscape:window-height="706"
     id="namedview6"
     showgrid="false"
     inkscape:zoom="1.2194392"
     inkscape:cx="287.01718"
     inkscape:cy="157.87952"
     inkscape:window-x="-8"
     inkscape:window-y="-8"
     inkscape:window-maximized="1"
     inkscape:current-layer="svg2" />
  <defs
     id="defs4" />
  <g
     transform="translate(-277.10327,-713.12512)"
     id="layer1-1"
     style="fill:#ffffff;fill-opacity:1">
    <path
       inkscape:connector-curvature="0"
       d="m 306.13761,1028.2806 c -11.58546,-2.8592 -24.57954,-14.8864 -27.81889,-25.7489 -1.6206,-5.43435 -1.6206,-257.19699 0,-262.63132 3.33152,-11.17156 15.99762,-22.79102 27.54403,-25.26799 9.52558,-2.04345 508.56224,-1.9931 517.12432,0.0522 15.57942,6.2142 21.37549,14.05793 28.15055,27.03146 l 0,129.5 0,129.50005 -3.3059,6.3322 c -4.20028,8.0454 -10.31654,14.1617 -18.36189,18.3619 l -6.33221,3.3059 -257,0.1525 c -141.35,0.084 -258.35001,-0.1807 -260.00001,-0.588 z"
       id="path3050-7"
       style="fill:#ffffff;fill-opacity:1"
       sodipodi:nodetypes="csssccccsscscc" />
  </g>
  <g
     transform="translate(-128.99129,-313.02907)"
     id="layer1">
    <path
       d="m 158.02563,628.18464 c -11.58547,-2.85922 -24.57955,-14.8864 -27.81889,-25.74886 -1.6206,-5.43433 -1.6206,-257.19697 0,-262.6313 3.33152,-11.17156 15.99762,-22.79102 27.54402,-25.26799 9.52559,-2.04345 508.56221,-1.9931 517.12431,0.0522 9.9995,2.38864 19.3604,10.19926 24.8715,20.75239 l 3.2791,6.27907 0,129.5 0,129.5 -3.3059,6.33221 c -4.2003,8.04535 -10.3166,14.16161 -18.3619,18.36189 l -6.3322,3.3059 -257.00004,0.15245 c -141.35,0.0838 -258.35,-0.18073 -260,-0.58794 z m 523.27904,-3.84358 c 7.9621,-4.15797 13.2839,-9.47978 17.4419,-17.44186 l 3.2791,-6.27907 0,-129.5 0,-129.5 -3.2451,-6.21176 c -5.3851,-10.30807 -14.005,-17.4547 -23.9055,-19.8197 -8.5621,-2.04528 -507.59872,-2.09563 -517.12431,-0.0522 -11.37853,2.44095 -23.27965,13.32161 -26.54402,24.26799 -1.6206,5.43433 -1.6206,257.19697 0,262.6313 3.17744,10.65487 15.39515,21.92955 26.81889,24.74886 1.65,0.40721 118.65,0.67178 260,0.58794 l 257.00004,-0.15245 6.279,-3.27907 z m -520.27904,-6.25015 c -9.14263,-1.87377 -13.38805,-5.14781 -20.0608,-15.47078 -1.88936,-2.92289 -1.94601,-6.26332 -2.20428,-129.95904 l -0.26508,-126.95904 2.62715,-5.3697 c 3.32953,-6.80531 7.80527,-11.28342 14.60004,-14.60779 l 5.35451,-2.61972 255.97423,0.25764 255.97427,0.25765 7.197,4.7916 c 6.0392,4.02071 7.648,5.70999 10,10.5 l 2.803,5.7084 0,127.20004 c 0,100.42672 -0.2631,127.46313 -1.25,128.45 -0.6875,0.68748 -1.25,1.95727 -1.25,2.82176 0,2.93867 -8.339,10.79064 -14.0218,13.20283 l -5.4782,2.32537 -253.00004,0.14529 c -139.15,0.0799 -254.8,-0.22362 -257,-0.67451 z m 510.59384,-15.51933 c 1.6471,-0.8517 3.873,-2.9892 4.9466,-4.75 1.9082,-3.12955 1.9522,-5.97722 1.9558,-126.80357 l 0,-123.60211 -2.25,-3.29628 c -1.2375,-1.81295 -3.818,-4.12949 -5.7344,-5.14788 -3.3647,-1.788 -12.1209,-1.85161 -254.86388,-1.85161 l -251.37945,0 -3.76827,2.11789 c -2.07255,1.16483 -4.72132,3.8136 -5.88615,5.88615 l -2.11789,3.76827 0,122.22769 0,122.22769 2.15656,3.83707 c 4.2311,7.52825 -19.98868,6.88715 261.1431,6.91247 226.3065,0.0204 253.11348,-0.13952 255.79418,-1.52578 z M 399.21718,554.97501 c -13.30639,-3.8818 -23.81862,-11.63745 -31.62544,-23.33244 -10.0972,-15.12608 -11.051,-20.22028 -11.051,-59.02244 0,-30.41207 0.80287,-39.52734 4.03236,-45.78079 1.07389,-2.07944 1.95253,-4.24163 1.95253,-4.80487 0,-0.56324 1.8637,-3.81189 4.14155,-7.21921 11.28839,-16.8857 30.06317,-27.06995 49.85845,-27.04536 9.6663,0.012 18.58488,2.18579 27.12831,6.61217 6.73258,3.48817 21.74512,17.11468 24.0829,21.85947 3.72698,7.56432 5.69457,12.57338 6.33542,16.12859 l 0.67595,3.75 -12.86129,-0.001 -12.86129,-10e-4 -2.91465,-5.24899 c -3.87261,-6.97417 -5.80117,-8.80648 -14.08535,-13.3824 -6.66917,-3.68384 -7.42535,-3.86658 -16,-3.86658 -8.27644,0 -9.45257,0.2565 -14.62937,3.19047 -10.39267,5.89009 -15.94954,12.90368 -18.46817,23.30953 -1.92592,7.95705 -1.90856,58.50968 0.0226,65.76399 2.00411,7.52841 5.78024,13.42034 11.81862,18.44072 6.08874,5.06226 10.05593,6.61837 19.00296,7.45386 13.76384,1.28529 27.14297,-6.20186 32.82184,-18.36758 l 2.43153,-5.20901 12.87781,-0.041 12.87781,-0.041 -0.64198,4.0147 c -3.00934,18.81938 -20.54896,36.98673 -41.61046,43.09965 -8.84695,2.56776 -24.02545,2.44953 -33.31163,-0.25947 z"
       id="path3082"
       style="fill:#000000" />
  </g>
</svg>
