<?xml version="1.0" encoding="UTF-8" standalone="no"?>
<!-- Created with Inkscape (http://www.inkscape.org/) -->

<svg
   xmlns:dc="http://purl.org/dc/elements/1.1/"
   xmlns:cc="http://creativecommons.org/ns#"
   xmlns:rdf="http://www.w3.org/1999/02/22-rdf-syntax-ns#"
   xmlns:svg="http://www.w3.org/2000/svg"
   xmlns="http://www.w3.org/2000/svg"
   xmlns:sodipodi="http://sodipodi.sourceforge.net/DTD/sodipodi-0.dtd"
   xmlns:inkscape="http://www.inkscape.org/namespaces/inkscape"
   version="1.1"
   width="711"
   height="392.229"
   id="svg2"
   inkscape:version="0.48.3.1 r9886"
   sodipodi:docname="Zusatzzeichen_1050-33.svg">
  <metadata
     id="metadata8">
    <rdf:RDF>
      <cc:Work
         rdf:about="">
        <dc:format>image/svg+xml</dc:format>
        <dc:type
           rdf:resource="http://purl.org/dc/dcmitype/StillImage" />
      </cc:Work>
    </rdf:RDF>
  </metadata>
  <sodipodi:namedview
     pagecolor="#ffffff"
     bordercolor="#666666"
     borderopacity="1"
     objecttolerance="10"
     gridtolerance="10"
     guidetolerance="10"
     inkscape:pageopacity="0"
     inkscape:pageshadow="2"
     inkscape:window-width="1366"
     inkscape:window-height="706"
     id="namedview6"
     showgrid="false"
     inkscape:zoom="0.69616701"
     inkscape:cx="487.42866"
     inkscape:cy="215.54691"
     inkscape:window-x="-8"
     inkscape:window-y="-8"
     inkscape:window-maximized="1"
     inkscape:current-layer="layer1" />
  <defs
     id="defs4" />
  <g
     transform="translate(66.402364,-237.41286)"
     id="layer1"
     style="stroke:none">
    <path
       d="m -31.455242,628.59452 c -13.49065,-4.23606 -25.02652,-14.32371 -31.22507,-27.30508 l -3.72204,-7.79493 0,-160.00001 0,-160 3.72204,-7.79493 c 5.23558,-10.96466 12.77348,-18.61494 23.6536,-24.00625 l 8.47357,-4.19882 319.575382,0 319.57537,0 7.5237,3.59322 c 11.01611,5.26118 18.93841,13.00762 24.23541,23.69755 l 4.2409,8.55845 0,160.07539 0,160.0754 -3.722,7.79493 c -5.2356,10.9646 -12.7735,18.61492 -23.65361,24.00625 l -8.4735,4.19882 -318.07542,0.1863 c -255.096385,0.14942 -318.877922,-0.0657 -322.128332,-1.08629 z"
       id="path2830-5"
       style="fill:#ffffff;fill-opacity:1;stroke:none"
       inkscape:connector-curvature="0"
       sodipodi:nodetypes="cscccsscccsscccsscsc" />
    <path
       d="m -31.455258,629.52859 c -13.49065,-4.23606 -25.02652,-14.32371 -31.22507,-27.30508 l -3.72204,-7.79493 0,-160 0,-160 3.72204,-7.79493 c 5.23558,-10.96466 12.77348,-18.61494 23.6536,-24.00625 l 8.47357,-4.19882 319.575388,0 319.57537,0 7.5237,3.59322 c 11.0161,5.26118 18.9384,13.00762 24.2354,23.69755 l 4.2409,8.55845 0,160.07539 0,160.07539 -3.722,7.79493 c -5.2356,10.9646 -12.7735,18.61492 -23.6536,24.00625 l -8.4735,4.19882 -318.07542,0.1863 C 35.576693,630.7643 -28.204848,630.54918 -31.455258,629.52859 z M 615.2242,621.71062 c 9.3166,-4.60457 16.7253,-12.13631 21.172,-21.52351 l 3.2014,-6.75853 0,-159.05186 0,-159.05187 -3.7179,-7.52277 c -4.6046,-9.3167 -12.1363,-16.72538 -21.5235,-21.17205 l -6.7586,-3.20145 -318.49998,0 -318.499988,0 -6.75853,3.20145 c -9.38728,4.44667 -16.91896,11.85535 -21.52352,21.17205 l -3.71795,7.52277 0,159.05187 0,159.05186 3.20145,6.75853 c 5.56769,11.75385 17.53691,21.95015 28.91629,24.6331 2.31317,0.54538 131.822748,0.8533 320.434198,0.76185 l 316.55193,-0.15348 7.5227,-3.71796 z m -638.184678,-4.78379 c -12.28704,-2.09601 -23.40687,-11.02352 -28.02797,-22.50215 l -2.41392,-5.9961 0,-154 0,-154 2.38559,-6 c 3.27222,-8.22995 12.38446,-17.34218 20.61441,-20.6144 l 6,-2.3856 313.499988,0 313.49998,0 6,2.3856 c 8.23,3.27222 17.3422,12.38445 20.6144,20.6144 l 2.3856,6 0,154 0,154 -2.3856,6 c -3.2722,8.22995 -12.3844,17.34218 -20.6144,20.6144 l -6,2.3856 -310.49998,0.1379 c -170.775,0.0758 -312.551138,-0.212 -315.058098,-0.63965 z M 605.2611,597.01876 c 1.9343,-1.32541 4.6013,-3.99244 5.9267,-5.92673 l 2.4098,-3.51691 0,-153.14654 0,-153.14654 -2.4098,-3.51691 c -1.3254,-1.9343 -3.9924,-4.60132 -5.9267,-5.92673 l -3.5169,-2.40982 -312.64658,0 -312.646528,0 -3.51691,2.40982 c -1.9343,1.32541 -4.60133,3.99237 -5.92673,5.9266 l -2.40982,3.51677 -0.29493,151.0734 c -0.19652,100.66555 0.0457,152.25308 0.72587,154.60889 1.18968,4.12039 6.27484,9.68924 10.56906,11.57436 2.46376,1.08157 58.692761,1.27883 314.573288,1.10357 l 311.57328,-0.21341 3.5169,-2.40982 z M 460.83814,570.55928 c -4.11295,-1.53332 -5.64506,-2.55612 -10.41947,-6.95584 l -3.17896,-2.92947 5.17896,-4.27139 c 5.06354,-4.17621 5.22352,-4.23057 7.17895,-2.43931 2.82015,2.58338 6.94349,3.96592 11.8151,3.96157 8.20239,-0.007 13.6849,-5.98578 13.6849,-14.92284 l 0,-3.99081 -4.99489,3.105 c -9.0452,5.6228 -18.60219,4.87463 -26.29212,-2.0583 -6.80059,-6.13114 -7.66583,-9.25471 -7.69103,-27.76512 -0.0213,-15.68939 0.0541,-16.2804 2.72804,-21.36232 4.08479,-7.76334 9.57868,-11.34205 18.15584,-11.82671 7.17772,-0.40558 11.2399,0.90611 15.84416,5.11613 l 2.25,2.05734 0,-3.67432 0,-3.67431 7,0 6.99998,0 0,34.3185 c 0,39.42577 -0.35871,41.86075 -7.27197,49.36075 -2.27596,2.46913 -5.95834,5.42594 -8.18306,6.57071 -5.16376,2.65708 -17.3944,3.39761 -22.80443,1.38074 z m 18.06966,-40.65633 c 4.68241,-2.85479 6.18982,-7.24835 6.18982,-18.04112 0,-13.85902 -3.5328,-18.93325 -13.18179,-18.93325 -4.99439,0 -8.17234,1.85034 -10.32392,6.01104 -2.11528,4.09049 -2.06347,21.98724 0.0767,26.49731 2.88819,6.08639 11.0945,8.21233 17.2392,4.46602 z m -153.81665,15.09129 c -7.05994,-2.14754 -14.40872,-8.34843 -17.6772,-14.916 -1.5038,-3.02167 -1.81633,-6.14466 -1.81633,-18.14966 0,-13.00899 0.22531,-14.92105 2.19109,-18.59468 8.94768,-16.72135 32.54377,-19.46335 44.75226,-5.20046 4.73188,5.52813 6.55665,11.50433 6.55665,21.47328 l 0,8.32186 -20,0 -20,0 0.004,2.25 c 0.006,3.37777 3.49871,8.44135 7.11237,10.31004 4.73642,2.4493 13.68472,1.59199 18.03762,-1.72813 l 3.34926,-2.55461 5.17746,4.23405 5.17746,4.23404 -3.17896,3.0666 c -5.28454,5.09778 -13.16182,8.18039 -20.67895,8.09229 -3.575,-0.0419 -7.62791,-0.41928 -9.00647,-0.83862 z m 20.00647,-41.66137 c 0,-2.57366 -3.05105,-7.00323 -6.03983,-8.76875 -5.94005,-3.50887 -14.92601,-1.34911 -18.32463,4.40429 -3.38148,5.7244 -2.93192,5.96017 11.36446,5.96017 11.23543,0 13,-0.2166 13,-1.59571 z m 44.5,40.21829 c -5.95831,-2.8098 -8.67418,-5.57483 -11.41597,-11.62258 -1.87138,-4.12783 -2.04192,-6.5056 -2.06207,-28.75 l -0.022,-24.25 7,0 7,0 0.004,21.75 c 0.003,19.80797 0.17803,22.03585 1.95578,24.95145 4.3208,7.08636 13.58978,8.20902 19.4471,2.35544 l 3.09338,-3.0914 0.30226,-22.98275 0.30226,-22.98274 6.94774,0 6.94774,0 0,33 0,33 -7,0 -7,0 0,-3.05089 0,-3.05089 -3.25,2.41279 c -7.0087,5.20323 -14.47356,5.97876 -22.25,2.31157 z M 534.9799,544.548 c -5.565,-1.98866 -10.403,-5.30222 -13.3142,-9.11901 -4.4623,-5.85046 -5.5701,-10.61953 -5.5461,-23.87614 0.018,-10.02006 0.3751,-12.90526 2.0566,-16.62427 6.4147,-14.18758 23.5069,-20.27649 37.0532,-13.19982 5.9835,3.12583 11.9282,10.11885 13.7386,16.16145 0.6213,2.07372 1.1296,7.4307 1.1296,11.90439 l 0,8.13398 -20,0 -20,0 0,2.86514 c 0,3.40056 3.0594,7.59709 7.0387,9.65484 5.495,2.84162 14.6862,1.44425 19.9613,-3.0348 1.2558,-1.06628 2.3432,-0.57894 6.679,2.99328 l 5.1789,4.26693 -3.1789,3.0666 c -5.2459,5.06046 -13.1606,8.17382 -20.679,8.13435 -3.575,-0.0188 -8.1279,-0.61588 -10.1177,-1.32692 z m 20.691,-42.36942 c -0.3539,-1.5125 -2.1961,-4.2125 -4.0937,-6 -2.8536,-2.68804 -4.2394,-3.25 -8.0145,-3.25 -5.6781,0 -9.9711,2.14404 -11.9481,5.96727 -3.0576,5.91271 -2.827,6.03273 11.5914,6.03273 l 13.1084,0 -0.6435,-2.75 z m -541.573267,15.75 0,-27 -3,0 c -3.0000012,0 -3.0000012,0 -3.0000012,-6 0,-5.93226 0.0322,-6 2.8549612,-6 2.81385,0 2.86347,-0.10144 3.44549,-7.04376 1.05328,-12.56357 6.124,-17.51044 19.07058,-18.60483 l 7.62897,-0.64488 0,7.14673 0,7.14674 -5.89301,0 c -6.66456,0 -7.10699,0.47199 -7.10699,7.58179 l 0,4.41821 6.5,0 6.5,0 0,6 0,6 -6.5,0 -6.5,0 0,27 0,27 -7,0 -7,0 0,-27 z m 47.21382,24.87681 c -11.59965,-5.7417 -14.5311,-20.75118 -5.95953,-30.51366 5.04285,-5.74349 7.87833,-6.68943 21.4957,-7.1712 l 12.25,-0.43339 0,-3.7685 c 0,-2.22047 -0.78527,-4.73826 -1.91165,-6.12928 -1.74405,-2.15381 -2.67475,-2.36078 -10.61572,-2.36078 -7.67739,0 -8.89684,0.24927 -10.33835,2.1133 l -1.63428,2.11329 -5.25,-4.10012 c -2.8875,-2.25507 -5.25,-4.39016 -5.25,-4.74464 0,-1.52381 6.63144,-6.94203 9.91683,-8.10254 4.67074,-1.64986 20.55454,-1.62837 25.26993,0.0342 4.56925,1.61103 9.46802,6.41655 11.913297,11.68652 1.64811,3.55193 1.85848,6.77244 1.87798,28.75 l 0.022,24.74999 -6.999997,0 c -6.77722,0 -7,-0.0786 -7,-2.46986 l 0,-2.46987 -3.63955,2.46987 c -3.13067,2.12453 -4.77353,2.46975 -11.75,2.46907 -6.25077,-6.1e-4 -9.09324,-0.48726 -12.39662,-2.1224 z m 25.33162,-13.33136 c 1.95742,-1.95741 2.45455,-3.47643 2.45455,-7.5 l 0,-5.04545 -10.54545,0 c -9.98779,0 -10.68117,0.13571 -13.11175,2.56629 -2.07002,2.07002 -2.44741,3.18194 -1.95153,5.75 1.01901,5.27731 3.70504,6.68371 12.76497,6.68371 7.09113,0 8.19561,-0.26094 10.38921,-2.45455 z m 34.454547,-30.54545 0,-46 7,0 7,0 0,16.67431 0,16.67432 2.26365,-2.12659 c 8.16493,-7.67056 23.92573,-6.71738 31.17926,1.88566 5.30706,6.29444 5.55709,7.8404 5.55709,34.36018 l 0,24.53212 -7,0 -7,0 0,-22.6 0,-22.6 -3.4,-3.4 c -2.9642,-2.9642 -4.04386,-3.4 -8.42327,-3.4 -6.1366,0 -10.59215,3.23446 -12.1419,8.81428 -0.56302,2.02714 -1.02619,12.57322 -1.02925,23.43572 l -0.006,19.75 -7,0 -7,0 0,-46 z m 72,13 0,-33 7,0 7,0 0,3.01419 0,3.01419 4.13948,-2.73938 c 5.97124,-3.95158 15.66217,-4.44457 22.18678,-1.12867 l 4.65803,2.36728 -5.09477,6.22102 c -4.83707,5.90635 -5.20199,6.14591 -7.21465,4.73619 -2.77917,-1.9466 -10.6338,-1.90232 -13.45808,0.0759 -4.76278,3.33597 -5.21679,5.8502 -5.21679,28.88962 l 0,21.54966 -7,0 -7,0 0,-33 z m 50,27.6199 0,-5.38011 15.95623,-21.11989 15.95623,-21.1199 -14.95623,0 -14.95623,0 0,-6.5 0,-6.5 24,0 24,0 -0.0382,5.25 c -0.038,5.21649 -0.13996,5.38405 -15.97437,26.25 l -15.93614,21 15.97437,0.27477 15.97437,0.27477 0,6.47523 0,6.47523 -25,0 -25,0 0,-5.3801 z m -50.19679,-123.9643 c -9.45864,-2.65708 -17.58024,-10.40013 -19.88457,-18.95776 -0.5915,-2.19665 -0.92767,-9.4398 -0.74705,-16.09588 0.36775,-13.55168 1.44377,-16.83977 7.57762,-23.15559 13.49951,-13.90001 35.55972,-9.86287 43.89314,8.03268 1.88643,4.05098 2.34,6.71131 2.34788,13.77095 l 0.01,8.75 -20,0 -20,0 0,2.59571 c 0,10.9248 16.21925,15.97412 25.70453,8.00225 l 2.79547,-2.34945 5.30128,4.7511 5.30128,4.7511 -3.97178,3.14571 c -8.44445,6.68813 -19.33236,9.28607 -28.32757,6.75918 z m 19.19679,-41.20526 c 0,-2.88598 -3.08151,-7.52928 -6.29855,-9.49082 -7.45703,-4.54682 -17.66434,-0.39506 -19.31457,7.8561 l -0.63688,3.18438 13.125,0 c 11.18693,0 13.125,-0.22883 13.125,-1.54966 z m -151.999997,-4.45034 0,-46 29.5,0 29.499997,0 0,7 0,7 -21.999997,0 -22,0 0,12.5 0,12.5 19,0 18.999997,0 0,6.5 0,6.5 -18.999997,0 -19,0 0,13 0,13 22,0 21.999997,0 0,7 0,7 -29.499997,0 -29.5,0 0,-46 z m 88.122797,44.99792 c -4.58234,-1.08188 -8.27232,-3.95275 -10.37125,-8.069 -1.57767,-3.09402 -1.74859,-7.31122 -1.75,-43.17892 l -0.002,-39.75 6.98826,0 6.98825,0 0.26175,38.75 0.26174,38.75 4.75,0.30479 4.75,0.30479 0,6.94521 0,6.94521 -4.25,-0.10236 c -2.3375,-0.0563 -5.76974,-0.46117 -7.6272,-0.89972 z m 94.8772,-44.99792 0,-46 6.98418,0 6.98418,0 0.26582,27.6512 0.26582,27.65121 11.92901,-14.65121 11.92901,-14.6512 7.82099,0 c 4.30154,0 7.82099,0.26162 7.82099,0.58137 0,0.31976 -4.725,5.90814 -10.5,12.41863 -5.775,6.51049 -10.5,12.06788 -10.5,12.34976 0,0.28187 5.625,9.35839 12.5,20.17003 6.875,10.81164 12.5,19.84263 12.5,20.06887 0,0.22624 -3.80769,0.41134 -8.46154,0.41134 l -8.46153,0 -8.15061,-14.51029 c -4.48284,-7.98066 -8.47923,-14.71339 -8.88087,-14.96162 -0.40165,-0.24823 -2.82618,1.97636 -5.38786,4.94354 l -4.65759,5.39487 0,9.56675 0,9.56675 -7,0 -7,0 0,-46 z m 83.5,45.06957 c -4.46947,-1.08117 -7.36003,-3.16493 -9.8068,-7.06957 -2.05142,-3.27374 -2.21483,-4.90604 -2.52773,-25.25 l -0.33453,-21.75 -2.91547,0 c -2.86724,0 -2.91547,-0.091 -2.91547,-5.5 0,-5.44444 0.0303,-5.5 3,-5.5 l 3,0 0,-10 0,-10 7,0 7,0 0,10 0,10 5,0 5,0 0,5.5 0,5.5 -5,0 -5,0 0,18.91821 c 0,10.40502 0.27314,19.63002 0.60699,20.5 0.42603,1.11023 1.91664,1.58179 5,1.58179 l 4.39301,0 0,7 0,7 -4.25,-0.10236 c -2.3375,-0.0563 -5.6,-0.42893 -7.25,-0.82807 z m 28.5,-32.06957 0,-33 7,0 7,0 0,3.08889 0,3.0889 3.04547,-2.5626 c 6.13955,-5.16608 17.53508,-5.89165 24.53984,-1.56247 l 3.44742,2.13063 -4.20278,5.15832 c -2.31153,2.83708 -4.48583,5.50277 -4.83179,5.92376 -0.34596,0.42099 -2.10361,0.0298 -3.90589,-0.86929 -4.7465,-2.36786 -10.61194,-1.3375 -14.49889,2.54697 l -3.09338,3.0914 -0.30226,22.98275 -0.30226,22.98274 -6.94774,0 -6.94774,0 0,-33 z m 66.5,30.64715 c -5.59483,-2.6109 -11.93803,-9.05791 -14.17156,-14.40351 -2.10912,-5.04783 -2.86375,-19.84533 -1.39324,-27.31981 5.25314,-26.70118 38.62442,-31.21143 51.22936,-6.92383 2.09672,4.04002 2.33544,5.82882 2.33544,17.5 0,11.17429 -0.29831,13.63198 -2.12416,17.5 -6.42696,13.61544 -22.68833,19.80126 -35.87584,13.64715 z m 18.31018,-13.67278 c 1.82059,-1.10999 3.95809,-3.56886 4.75,-5.46415 1.89535,-4.53622 1.90988,-19.44944 0.0233,-23.96456 -4.09525,-9.80129 -19.25672,-9.87907 -23.68842,-0.12152 -2.16876,4.77509 -2.49931,17.99389 -0.58867,23.54123 2.49186,7.23484 12.45724,10.30512 19.50374,6.009 z m 38.18982,-20.97437 0,-7 20,0 19.99998,0 0,7 0,7 -19.99998,0 -20,0 0,-7 z"
       id="path2830"
       style="fill:#000000;fill-opacity:1;stroke:none"
       inkscape:connector-curvature="0" />
  </g>
</svg>
