<?xml version="1.0" encoding="UTF-8" standalone="no"?>
<!-- Created with Inkscape (http://www.inkscape.org/) -->
<svg
   xmlns:svg="http://www.w3.org/2000/svg"
   xmlns="http://www.w3.org/2000/svg"
   version="1.0"
   width="490"
   height="270"
   id="svg2">
  <defs
     id="defs4" />
  <path
     d="M 38.75,4.75 C 20.325639,4.7499998 9.9375,11.885785 9.9375,32.96875 L 9.625,236.5625 C 9.625,257.64547 20.013141,264.78126 38.4375,264.78125 L 451.1875,264.75 C 469.61186,264.75 479.99999,257.61421 480,236.53125 L 480.3125,33 C 480.3125,11.917035 469.92436,4.7812498 451.5,4.78125 L 38.75,4.75 z "
     style="fill:white;fill-opacity:1;fill-rule:evenodd;stroke:black;stroke-width:2;stroke-linecap:butt;stroke-linejoin:miter;stroke-miterlimit:4;stroke-dasharray:none;stroke-opacity:1"
     id="path1892" />
  <path
     d="M 453.28125,17.5625 L 36.75,17.59375 C 28.325749,17.59375 23.375,23.59476 23.375,32.46875 L 23.375,237.125 C 23.374999,245.99898 28.32576,252 36.75,252 L 453.25,251.96875 C 461.67424,251.96874 466.625,245.96774 466.625,237.09375 L 466.625,32.4375 C 466.625,23.56351 461.70549,17.5625 453.28125,17.5625 z "
     style="fill:none;fill-opacity:1;fill-rule:evenodd;stroke:black;stroke-width:10.05090809;stroke-linecap:butt;stroke-linejoin:miter;stroke-miterlimit:4;stroke-dasharray:none;stroke-opacity:1"
     id="path3976" />
  <path
     d="M 80.535851,189.32396 L 80.535851,98.730967 L 65.363723,109.79856 L 65.363723,93.600296 L 80.535851,82.532706 L 95.854569,82.532706 L 95.854569,189.32396 L 80.535851,189.32396 z M 174.57372,158.61323 L 174.57372,113.24344 C 174.57367,108.11285 173.19328,104.10604 170.43254,101.22301 C 167.67171,98.34015 164.04359,96.898677 159.54819,96.898585 C 155.00385,96.898677 151.36352,98.34015 148.62719,101.22301 C 145.89081,104.10604 144.52263,108.11285 144.52265,113.24344 L 144.52265,158.61323 C 144.52263,163.79279 145.89081,167.81181 148.62719,170.67031 C 151.36352,173.52884 155.00385,174.9581 159.54819,174.95808 C 164.04359,174.9581 167.67171,173.52884 170.43254,170.67031 C 173.19328,167.81181 174.57367,163.79279 174.57372,158.61323 L 174.57372,158.61323 z M 129.20393,159.49278 L 129.20393,112.3639 C 129.20393,102.54241 132.28233,94.956354 138.43914,89.605702 C 144.59592,84.25525 151.63227,81.579974 159.54819,81.579867 C 167.41517,81.579974 174.4393,84.25525 180.62059,89.605702 C 186.80176,94.956354 189.89238,102.54241 189.89244,112.3639 L 189.89244,159.49278 C 189.89238,169.31437 186.80176,176.88821 180.62059,182.21432 C 174.4393,187.54045 167.41517,190.20351 159.54819,190.20351 C 151.63227,190.20351 144.59592,187.54045 138.43914,182.21432 C 132.28233,176.88821 129.20393,169.31437 129.20393,159.49278 L 129.20393,159.49278 z M 246.69631,158.61323 L 246.69631,113.24344 C 246.69626,108.11285 245.31586,104.10604 242.55512,101.22301 C 239.79429,98.34015 236.16617,96.898677 231.67077,96.898585 C 227.12643,96.898677 223.4861,98.34015 220.74977,101.22301 C 218.01339,104.10604 216.64521,108.11285 216.64523,113.24344 L 216.64523,158.61323 C 216.64521,163.79279 218.01339,167.81181 220.74977,170.67031 C 223.4861,173.52884 227.12643,174.9581 231.67077,174.95808 C 236.16617,174.9581 239.79429,173.52884 242.55512,170.67031 C 245.31586,167.81181 246.69626,163.79279 246.69631,158.61323 L 246.69631,158.61323 z M 201.32651,159.49278 L 201.32651,112.3639 C 201.32651,102.54241 204.40491,94.956354 210.56172,89.605702 C 216.71851,84.25525 223.75485,81.579974 231.67077,81.579867 C 239.53775,81.579974 246.56188,84.25525 252.74317,89.605702 C 258.92434,94.956354 262.01496,102.54241 262.01502,112.3639 L 262.01502,159.49278 C 262.01496,169.31437 258.92434,176.88821 252.74317,182.21432 C 246.56188,187.54045 239.53775,190.20351 231.67077,190.20351 C 223.75485,190.20351 216.71851,187.54045 210.56172,182.21432 C 204.40491,176.88821 201.32651,169.31437 201.32651,159.49278 L 201.32651,159.49278 z M 314.64105,189.32396 L 314.64105,113.24344 L 329.95977,113.24344 L 329.95977,121.37922 L 330.25295,121.37922 C 335.09041,115.36908 341.68698,112.36397 350.04268,112.3639 C 355.36876,112.36397 359.59545,113.31681 362.72277,115.22241 C 365.84998,117.12816 368.78179,119.47361 371.51821,122.25876 C 377.52835,115.66226 385.54196,112.36397 395.55907,112.3639 C 401.47146,112.36397 407.17627,114.61169 412.67352,119.10706 C 418.17055,123.60257 420.91913,130.15028 420.91924,138.7502 L 420.91924,189.32396 L 405.60052,189.32396 L 405.60052,144.02747 C 405.60042,138.89685 404.15895,134.89004 401.2761,132.00704 C 398.39306,129.12415 394.82602,127.68268 390.57499,127.68261 C 386.17719,127.68268 382.54907,129.12415 379.69063,132.00704 C 376.83204,134.89004 375.40279,138.89685 375.40286,144.02747 L 375.40286,189.32396 L 360.15744,189.32396 L 360.15744,144.02747 C 360.15738,138.89685 358.71591,134.89004 355.83301,132.00704 C 352.95002,129.12415 349.38298,127.68268 345.1319,127.68261 C 340.73414,127.68268 337.10603,129.12415 334.24755,132.00704 C 331.389,134.89004 329.95975,138.89685 329.95977,144.02747 L 329.95977,189.32396 L 314.64105,189.32396 z "
     style="font-size:150.10877991px;font-style:normal;font-variant:normal;font-weight:normal;font-stretch:normal;text-align:center;line-height:100%;writing-mode:lr-tb;text-anchor:middle;fill:black;fill-opacity:1;stroke:none;stroke-width:1px;stroke-linecap:butt;stroke-linejoin:miter;stroke-opacity:1;font-family:DIN 1451 Mittelschrift"
     id="text1881" />
</svg>
