<?xml version="1.0" encoding="UTF-8" standalone="no"?>
<!-- Created with Inkscape (http://www.inkscape.org/) -->
<svg
   xmlns:svg="http://www.w3.org/2000/svg"
   xmlns="http://www.w3.org/2000/svg"
   version="1.0"
   width="750"
   height="270"
   id="svg2">
  <defs
     id="defs4" />
  <path
     d="M 3.6125604,25.302996 L 3.6125604,241.47631 C 3.6125604,254.93964 16.310754,266.21877 27.695412,266.21877 L 729.69329,266.5486 C 740.26557,266.5486 746.38744,260.2226 746.38744,248.74571 L 746.51544,25.391157 C 746.51544,15.8713 740.06662,3.7812345 727.64437,3.7812345 L 23.276271,3.5794011 C 13.39678,3.5794011 3.6125604,15.40171 3.6125604,25.302996 z "
     style="fill:white;fill-opacity:1;fill-rule:evenodd;stroke:black;stroke-width:2.00788236;stroke-linecap:butt;stroke-linejoin:miter;stroke-miterlimit:4;stroke-dasharray:none;stroke-opacity:1"
     id="path3664" />
  <path
     d="M 17.763943,30.98195 L 17.763943,236.28072 C 17.763943,248.48849 24.930297,254.07327 35.881154,254.07327 L 721.84163,254.25628 C 732.01107,254.25628 732.23606,248.05598 732.23606,237.64938 L 732.23606,33.034939 C 732.23606,24.402876 729.23412,16.109715 717.28522,16.109715 L 32.861619,15.926709 C 23.358573,15.926709 17.763943,22.004008 17.763943,30.98195 z "
     style="fill:none;fill-opacity:1;fill-rule:evenodd;stroke:black;stroke-width:9.97193146;stroke-linecap:butt;stroke-linejoin:miter;stroke-miterlimit:4;stroke-dasharray:none;stroke-opacity:1"
     id="path1892" />
  <path
     d="M 69.980553,112.78554 L 77.022219,104.77926 C 79.658814,106.90142 82.697338,108.60557 86.1378,109.8917 C 89.578228,111.17786 93.179442,111.82094 96.941452,111.82093 C 101.28217,111.82094 104.69046,110.92063 107.16634,109.12001 C 109.64213,107.31942 110.88005,104.95612 110.88009,102.03012 C 110.88005,96.4997 107.82545,93.332561 101.71628,92.52869 C 100.10856,92.335797 98.613416,92.142875 97.230836,91.949923 C 95.848198,91.75703 94.240514,91.531955 92.407777,91.274695 C 86.330705,90.438729 81.700573,88.212086 78.517367,84.594758 C 75.334142,80.977505 73.742534,76.612641 73.742539,71.500153 C 73.742534,65.519617 75.744101,60.600101 79.747247,56.741593 C 83.750371,52.883215 89.385306,50.953993 96.652069,50.953923 C 100.99279,50.953993 105.07631,51.645298 108.90264,53.027838 C 112.72889,54.410515 116.24972,56.162892 119.46514,58.284972 L 113.53277,67.062939 C 110.96043,65.455309 108.19522,64.153085 105.23711,63.156261 C 102.27894,62.159556 99.25649,61.661173 96.169763,61.661113 C 92.890059,61.661173 90.108764,62.497169 87.825871,64.169104 C 85.54294,65.841153 84.401483,68.349142 84.401499,71.693076 C 84.401483,73.686655 85.173172,75.551569 86.716567,77.287824 C 88.259927,79.024168 90.816145,80.165624 94.385231,80.712196 C 95.317662,80.873005 96.443042,81.041812 97.761372,81.218617 C 99.079645,81.395503 100.59087,81.580386 102.29505,81.773269 C 108.85437,82.577151 113.70154,84.956524 116.83657,88.911396 C 119.97151,92.866333 121.539,97.239235 121.53905,102.03012 C 121.539,108.49303 119.30432,113.509 114.835,117.07806 C 110.36559,120.64712 104.36893,122.43165 96.844991,122.43165 C 86.266398,122.43165 77.311594,119.21628 69.980553,112.78554 L 69.980553,112.78554 z M 173.73425,100.63143 L 142.57729,100.63143 C 142.57728,104.74712 143.69462,107.83388 145.92932,109.8917 C 148.16398,111.94955 151.01762,112.97847 154.49025,112.97846 C 158.63805,112.97847 162.30357,111.37078 165.48682,108.1554 L 172.76964,114.37715 C 170.29376,117.27099 167.50443,119.33686 164.40164,120.57478 C 161.29877,121.8127 158.05928,122.43165 154.68317,122.43165 C 149.53855,122.43165 144.55473,120.7677 139.73169,117.43979 C 134.90862,114.11189 132.4971,107.30334 132.4971,97.014135 C 132.4971,87.27159 134.72374,80.535391 139.17704,76.805518 C 143.63031,73.075735 148.28456,71.21082 153.13979,71.21077 C 158.63805,71.21082 163.44503,73.115927 167.56074,76.926094 C 171.67637,80.736352 173.73421,85.872905 173.73425,92.335767 L 173.73425,100.63143 z M 142.57729,92.335767 L 163.70229,92.335767 C 163.54149,88.573815 162.48042,85.696059 160.51907,83.702492 C 158.55767,81.709001 156.09791,80.712237 153.13979,80.712196 C 150.14947,80.712237 147.6656,81.709001 145.68817,83.702492 C 143.7107,85.696059 142.67374,88.573815 142.57729,92.335767 L 142.57729,92.335767 z M 187.63437,121.85289 L 187.63437,71.789537 L 197.71456,71.789537 L 197.71456,121.85289 L 187.63437,121.85289 z M 187.63437,61.661113 L 187.63437,51.58092 L 197.71456,51.58092 L 197.71456,61.661113 L 187.63437,61.661113 z M 214.6532,71.789537 L 214.6532,56.596901 L 224.73339,56.596901 L 224.73339,71.789537 L 232.06444,71.789537 L 232.06444,79.506431 L 224.73339,79.506431 L 224.73339,108.63771 C 224.73338,111.14571 225.92306,112.3997 228.30246,112.39969 L 232.06444,112.39969 L 232.06444,121.85289 L 226.80731,121.85289 C 223.30254,121.85289 220.40067,120.79182 218.10169,118.66967 C 215.80269,116.54753 214.65319,113.509 214.6532,109.55409 L 214.6532,79.506431 L 209.63722,79.506431 L 209.63722,71.789537 L 214.6532,71.789537 z M 283.2468,100.63143 L 252.08984,100.63143 C 252.08983,104.74712 253.20717,107.83388 255.44187,109.8917 C 257.67653,111.94955 260.53017,112.97847 264.0028,112.97846 C 268.1506,112.97847 271.81612,111.37078 274.99937,108.1554 L 282.28219,114.37715 C 279.80631,117.27099 277.01698,119.33686 273.91418,120.57478 C 270.81131,121.8127 267.57183,122.43165 264.19572,122.43165 C 259.0511,122.43165 254.06728,120.7677 249.24424,117.43979 C 244.42117,114.11189 242.00964,107.30334 242.00965,97.014135 C 242.00964,87.27159 244.23629,80.535391 248.68958,76.805518 C 253.14286,73.075735 257.79711,71.21082 262.65234,71.21077 C 268.1506,71.21082 272.95757,73.115927 277.07329,76.926094 C 281.18892,80.736352 283.24676,85.872905 283.2468,92.335767 L 283.2468,100.63143 z M 252.08984,92.335767 L 273.21484,92.335767 C 273.05403,88.573815 271.99296,85.696059 270.03162,83.702492 C 268.07021,81.709001 265.61045,80.712237 262.65234,80.712196 C 259.66202,80.712237 257.17815,81.709001 255.20071,83.702492 C 253.22324,85.696059 252.18629,88.573815 252.08984,92.335767 L 252.08984,92.335767 z M 296.85753,121.85289 L 296.85753,71.789537 L 306.93772,71.789537 L 306.93772,77.143132 L 307.13065,77.143132 C 310.24954,73.188272 314.59029,71.21082 320.1529,71.21077 C 324.04347,71.21082 327.79741,72.68989 331.41475,75.647984 C 335.032,78.60617 336.84064,82.914765 336.84069,88.573782 L 336.84069,121.85289 L 326.76049,121.85289 L 326.76049,92.046384 C 326.76046,88.670276 325.81996,86.033673 323.93901,84.136567 C 322.05798,82.239537 319.7188,81.291003 316.92145,81.290963 C 314.0276,81.291003 311.64018,82.239537 309.75921,84.136567 C 307.8782,86.033673 306.93771,88.670276 306.93772,92.046384 L 306.93772,121.85289 L 296.85753,121.85289 z M 347.36466,113.509 L 354.40633,106.56379 C 358.77922,110.84025 364.03635,112.97847 370.17773,112.97846 C 373.03939,112.97847 375.40268,112.43989 377.26763,111.36273 C 379.13251,110.2856 380.06497,108.68595 380.065,106.56379 C 380.06497,103.63782 378.02321,101.99798 373.93972,101.64427 L 365.06529,100.82435 C 360.91744,100.50284 357.477,99.136303 354.74394,96.724751 C 352.01087,94.313249 350.64434,90.953188 350.64434,86.644558 C 350.64434,81.56431 352.42887,77.721943 355.99794,75.117447 C 359.56699,72.513045 364.0042,71.21082 369.30958,71.21077 C 373.68246,71.21082 377.42836,71.829779 380.54731,73.067647 C 383.66618,74.305613 386.46355,75.95349 388.93943,78.011283 L 382.71768,85.342332 C 380.72412,83.991913 378.66628,82.882611 376.54417,82.014422 C 374.42199,81.146312 372.01047,80.712237 369.30958,80.712196 C 366.09419,80.712237 363.85951,81.282965 362.60553,82.424382 C 361.35152,83.565877 360.72452,85.004755 360.72454,86.741019 C 360.72452,87.83428 361.19075,88.847121 362.12322,89.779546 C 363.05566,90.712035 364.79196,91.274725 367.33213,91.467617 L 375.62779,92.046384 C 380.8045,92.400104 384.51825,93.999751 386.76905,96.845327 C 389.01977,99.690954 390.14515,103.09121 390.14519,107.0461 C 390.14515,111.96563 388.13554,115.75976 384.11637,118.42852 C 380.09712,121.09728 375.19368,122.43165 369.40604,122.43165 C 361.07821,122.43165 353.73109,119.45744 347.36466,113.509 L 347.36466,113.509 z M 403.94884,71.789537 L 403.94884,56.596901 L 414.02903,56.596901 L 414.02903,71.789537 L 421.36008,71.789537 L 421.36008,79.506431 L 414.02903,79.506431 L 414.02903,108.63771 C 414.02902,111.14571 415.2187,112.3997 417.5981,112.39969 L 421.36008,112.39969 L 421.36008,121.85289 L 416.10295,121.85289 C 412.59818,121.85289 409.69631,120.79182 407.39733,118.66967 C 405.09833,116.54753 403.94883,113.509 403.94884,109.55409 L 403.94884,79.506431 L 398.93286,79.506431 L 398.93286,71.789537 L 403.94884,71.789537 z M 433.76506,121.85289 L 433.76506,71.789537 L 443.84525,71.789537 L 443.84525,77.143132 L 444.03818,77.143132 C 447.15707,73.188272 451.49782,71.21082 457.06044,71.21077 C 460.72593,71.21082 464.2146,72.496968 467.52647,75.069217 L 460.24365,83.750723 C 458.05717,82.110922 455.83857,81.291003 453.58783,81.290963 C 451.11197,81.291003 448.86925,82.118961 446.85967,83.774838 C 444.85004,85.430791 443.84524,88.091509 443.84525,91.757 L 443.84525,121.85289 L 433.76506,121.85289 z M 513.934,100.63143 L 482.77704,100.63143 C 482.77702,104.74712 483.89436,107.83388 486.12906,109.8917 C 488.36373,111.94955 491.21737,112.97847 494.68999,112.97846 C 498.83779,112.97847 502.50331,111.37078 505.68656,108.1554 L 512.96938,114.37715 C 510.4935,117.27099 507.70417,119.33686 504.60138,120.57478 C 501.49851,121.8127 498.25902,122.43165 494.88291,122.43165 C 489.7383,122.43165 484.75447,120.7677 479.93143,117.43979 C 475.10837,114.11189 472.69684,107.30334 472.69684,97.014135 C 472.69684,87.27159 474.92348,80.535391 479.37678,76.805518 C 483.83005,73.075735 488.4843,71.21082 493.33953,71.21077 C 498.83779,71.21082 503.64477,73.115927 507.76048,76.926094 C 511.87611,80.736352 513.93395,85.872905 513.934,92.335767 L 513.934,100.63143 z M 482.77704,92.335767 L 503.90203,92.335767 C 503.74123,88.573815 502.68016,85.696059 500.71881,83.702492 C 498.75741,81.709001 496.29765,80.712237 493.33953,80.712196 C 490.34922,80.712237 487.86534,81.709001 485.88791,83.702492 C 483.91044,85.696059 482.87348,88.573815 482.77704,92.335767 L 482.77704,92.335767 z M 527.83411,121.85289 L 527.83411,71.789537 L 537.9143,71.789537 L 537.9143,121.85289 L 527.83411,121.85289 z M 527.83411,61.661113 L 527.83411,51.58092 L 537.9143,51.58092 L 537.9143,61.661113 L 527.83411,61.661113 z M 555.8658,121.85289 L 555.8658,79.506431 L 550.80158,79.506431 L 550.80158,71.789537 L 555.8658,71.789537 L 555.8658,65.181946 C 555.86579,60.519717 557.15194,57.08731 559.72424,54.884716 C 562.29653,52.682254 565.54405,51.58099 569.46682,51.58092 L 575.97795,51.58092 L 575.97795,61.034116 L 570.28674,61.034116 C 567.36073,61.034176 565.89774,62.416785 565.89776,65.181946 L 565.89776,71.789537 L 575.97795,71.789537 L 575.97795,79.506431 L 565.89776,79.506431 L 565.89776,121.85289 L 555.8658,121.85289 z M 623.44654,100.63143 L 592.28958,100.63143 C 592.28956,104.74712 593.4069,107.83388 595.6416,109.8917 C 597.87627,111.94955 600.72991,112.97847 604.20253,112.97846 C 608.35033,112.97847 612.01585,111.37078 615.19911,108.1554 L 622.48193,114.37715 C 620.00605,117.27099 617.21671,119.33686 614.11392,120.57478 C 611.01105,121.8127 607.77157,122.43165 604.39546,122.43165 C 599.25084,122.43165 594.26702,120.7677 589.44397,117.43979 C 584.62091,114.11189 582.20938,107.30334 582.20938,97.014135 C 582.20938,87.27159 584.43602,80.535391 588.88932,76.805518 C 593.3426,73.075735 597.99684,71.21082 602.85208,71.21077 C 608.35033,71.21082 613.15731,73.115927 617.27302,76.926094 C 621.38866,80.736352 623.44649,85.872905 623.44654,92.335767 L 623.44654,100.63143 z M 592.28958,92.335767 L 613.41458,92.335767 C 613.25377,88.573815 612.1927,85.696059 610.23136,83.702492 C 608.26995,81.709001 605.81019,80.712237 602.85208,80.712196 C 599.86176,80.712237 597.37789,81.709001 595.40045,83.702492 C 593.42298,85.696059 592.38602,88.573815 592.28958,92.335767 L 592.28958,92.335767 z M 637.05727,121.85289 L 637.05727,71.789537 L 647.13746,71.789537 L 647.13746,77.143132 L 647.33038,77.143132 C 650.44927,73.188272 654.79002,71.21082 660.35264,71.21077 C 664.24321,71.21082 667.99715,72.68989 671.61448,75.647984 C 675.23173,78.60617 677.04038,82.914765 677.04043,88.573782 L 677.04043,121.85289 L 666.96023,121.85289 L 666.96023,92.046384 C 666.9602,88.670276 666.0197,86.033673 664.13874,84.136567 C 662.25772,82.239537 659.91854,81.291003 657.12119,81.290963 C 654.22733,81.291003 651.83992,82.239537 649.95895,84.136567 C 648.07794,86.033673 647.13744,88.670276 647.13746,92.046384 L 647.13746,121.85289 L 637.05727,121.85289 z "
     transform="scale(1.003988,0.996028)"
     style="font-size:98.77624512px;font-style:normal;font-variant:normal;font-weight:normal;font-stretch:normal;text-align:center;line-height:100%;letter-spacing:3.00000024px;writing-mode:lr-tb;text-anchor:middle;fill:black;fill-opacity:1;stroke:none;stroke-width:1px;stroke-linecap:butt;stroke-linejoin:miter;stroke-opacity:1;font-family:DIN 1451 Mittelschrift"
     id="text3654" />
  <path
     d="M 210.3406,220.32466 L 210.3406,170.2613 L 220.4208,170.2613 L 220.4208,175.6149 L 220.61372,175.6149 C 223.73261,171.66004 228.07336,169.68259 233.63598,169.68254 C 237.30147,169.68259 240.79015,170.96874 244.10202,173.54098 L 236.8192,182.22249 C 234.63271,180.58269 232.41411,179.76277 230.16338,179.76273 C 227.68752,179.76277 225.4448,180.59073 223.43521,182.24661 C 221.42558,183.90256 220.42078,186.56328 220.4208,190.22877 L 220.4208,220.32466 L 210.3406,220.32466 z M 278.01783,220.32466 L 278.01783,215.88744 L 277.77668,215.88744 C 275.75096,219.23143 271.63529,220.90343 265.42964,220.90343 C 259.83488,220.90343 255.49413,219.44847 252.40738,216.53856 C 249.32062,213.62865 247.77724,209.98725 247.77725,205.61433 C 247.77724,201.65944 249.14378,198.20292 251.87685,195.24475 C 254.60991,192.28664 258.67735,190.80757 264.07919,190.80754 L 278.01783,190.80754 L 278.01783,185.59863 C 278.0178,181.32223 274.59343,179.184 267.74471,179.18396 C 262.98594,179.184 259.8188,180.45408 258.24329,182.99418 L 250.33347,177.01359 C 253.83822,172.12627 259.46511,169.68259 267.21418,169.68254 C 273.38766,169.68259 278.40364,170.88835 282.26212,173.29983 C 286.12053,175.71141 288.04975,180.00392 288.04979,186.1774 L 288.04979,220.32466 L 278.01783,220.32466 z M 278.01783,202.76872 L 278.01783,199.1032 L 265.96018,199.1032 C 260.14034,199.10322 257.23043,201.11283 257.23044,205.13202 C 257.23043,206.83618 257.96193,208.31525 259.42494,209.56924 C 260.88791,210.82324 263.32356,211.45024 266.73187,211.45023 C 270.91183,211.45024 273.83782,210.98401 275.50984,210.05154 C 277.1818,209.1191 278.0178,206.69149 278.01783,202.76872 L 278.01783,202.76872 z M 273.243,162.49618 L 273.243,151.83722 L 283.90196,151.83722 L 283.90196,162.49618 L 273.243,162.49618 z M 255.87999,162.49618 L 255.87999,151.83722 L 266.53895,151.83722 L 266.53895,162.49618 L 255.87999,162.49618 z M 304.12028,203.54041 L 304.12028,170.2613 L 314.20048,170.2613 L 314.20048,200.11604 C 314.20046,203.52435 315.14096,206.16899 317.02197,208.04997 C 318.90294,209.93098 321.29035,210.87147 324.18421,210.87146 C 326.98155,210.87147 329.32074,209.93098 331.20176,208.04997 C 333.08272,206.16899 334.02321,203.52435 334.02325,200.11604 L 334.02325,170.2613 L 344.10344,170.2613 L 344.10344,220.32466 L 334.02325,220.32466 L 334.02325,215.01929 L 333.83033,215.01929 C 330.71138,218.94205 326.40279,220.90343 320.90453,220.90343 C 316.9496,220.90343 313.1635,219.43239 309.54622,216.49033 C 305.92892,213.54827 304.12028,209.23163 304.12028,203.54041 L 304.12028,203.54041 z M 360.7527,220.32466 L 360.7527,170.2613 L 370.83289,170.2613 L 370.83289,175.6149 L 371.02582,175.6149 C 374.20901,171.66004 378.54976,169.68259 384.04808,169.68254 C 387.5528,169.68259 390.33409,170.30958 392.39197,171.56353 C 394.44977,172.81757 396.37899,174.36095 398.17964,176.19367 C 402.1345,171.85296 407.40771,169.68259 413.99927,169.68254 C 417.88981,169.68259 421.64375,171.16166 425.26112,174.11975 C 428.87834,177.07794 430.68698,181.38653 430.68706,187.04555 L 430.68706,220.32466 L 420.60686,220.32466 L 420.60686,190.51815 C 420.6068,187.14204 419.65826,184.50544 417.76126,182.60834 C 415.86413,180.71131 413.51691,179.76277 410.71959,179.76273 C 407.8257,179.76277 405.43829,180.71131 403.55735,182.60834 C 401.67631,184.50544 400.73581,187.14204 400.73586,190.51815 L 400.73586,220.32466 L 390.7039,220.32466 L 390.7039,190.51815 C 390.70386,187.14204 389.75533,184.50544 387.85829,182.60834 C 385.96119,180.71131 383.61397,179.76277 380.81663,179.76273 C 377.92277,179.76277 375.53535,180.71131 373.65438,182.60834 C 371.77337,184.50544 370.83288,187.14204 370.83289,190.51815 L 370.83289,220.32466 L 360.7527,220.32466 z M 486.06548,199.1032 L 454.90852,199.1032 C 454.9085,203.21889 456.02584,206.30565 458.26054,208.36347 C 460.49521,210.42132 463.34885,211.45024 466.82147,211.45023 C 470.96927,211.45024 474.6348,209.84255 477.81805,206.62717 L 485.10087,212.84892 C 482.62499,215.74276 479.83566,217.80863 476.73286,219.04655 C 473.62999,220.28447 470.39051,220.90343 467.0144,220.90343 C 461.86978,220.90343 456.88596,219.23947 452.06291,215.91156 C 447.23985,212.58366 444.82832,205.77511 444.82832,195.4859 C 444.82832,185.74336 447.05496,179.00716 451.50826,175.27729 C 455.96154,171.5475 460.61578,169.68259 465.47102,169.68254 C 470.96927,169.68259 475.77625,171.58769 479.89196,175.39786 C 484.0076,179.20812 486.06543,184.34467 486.06548,190.80754 L 486.06548,199.1032 z M 454.90852,190.80754 L 476.03352,190.80754 C 475.87271,187.04558 474.81164,184.16783 472.8503,182.17426 C 470.88889,180.18077 468.42913,179.184 465.47102,179.18396 C 462.4807,179.184 459.99683,180.18077 458.01939,182.17426 C 456.04192,184.16783 455.00496,187.04558 454.90852,190.80754 L 454.90852,190.80754 z M 499.67621,220.32466 L 499.67621,170.2613 L 509.7564,170.2613 L 509.7564,175.6149 L 509.94932,175.6149 C 513.06821,171.66004 517.40896,169.68259 522.97158,169.68254 C 526.86215,169.68259 530.61609,171.16166 534.23343,174.11975 C 537.85067,177.07794 539.65932,181.38653 539.65937,187.04555 L 539.65937,220.32466 L 529.57917,220.32466 L 529.57917,190.51815 C 529.57914,187.14204 528.63864,184.50544 526.75768,182.60834 C 524.87666,180.71131 522.53748,179.76277 519.74013,179.76273 C 516.84627,179.76277 514.45886,180.71131 512.57789,182.60834 C 510.69688,184.50544 509.75638,187.14204 509.7564,190.51815 L 509.7564,220.32466 L 499.67621,220.32466 z "
     style="font-size:98.77625275px;font-style:normal;font-variant:normal;font-weight:normal;font-stretch:normal;text-align:center;line-height:100%;letter-spacing:3px;writing-mode:lr-tb;text-anchor:middle;fill:black;fill-opacity:1;stroke:none;stroke-width:1px;stroke-linecap:butt;stroke-linejoin:miter;stroke-opacity:1;font-family:DIN 1451 Mittelschrift"
     id="text6351" />
</svg>
