<?xml version="1.0" encoding="UTF-8" standalone="no"?>
<!-- Created with Inkscape (http://www.inkscape.org/) -->
<svg
   xmlns:svg="http://www.w3.org/2000/svg"
   xmlns="http://www.w3.org/2000/svg"
   version="1.0"
   width="490"
   height="270"
   id="svg2">
  <defs
     id="defs4" />
  <path
     d="M 38.75,4.75 C 20.325639,4.7499998 9.9375,11.885785 9.9375,32.96875 L 9.625,236.5625 C 9.625,257.64547 20.013141,264.78126 38.4375,264.78125 L 451.1875,264.75 C 469.61186,264.75 479.99999,257.61421 480,236.53125 L 480.3125,33 C 480.3125,11.917035 469.92436,4.7812498 451.5,4.78125 L 38.75,4.75 z "
     style="fill:white;fill-opacity:1;fill-rule:evenodd;stroke:black;stroke-width:2;stroke-linecap:butt;stroke-linejoin:miter;stroke-miterlimit:4;stroke-dasharray:none;stroke-opacity:1"
     id="path1892" />
  <path
     d="M 23.163837,32.186397 L 23.163837,235.10799 C 23.163837,247.1744 29.516661,252.69452 39.224371,252.69452 L 452.78318,252.69452 C 461.79816,252.69452 466.83616,246.74689 466.83616,236.46079 L 466.83616,34.215611 C 466.83616,25.6835 458.69131,17.305482 448.09888,17.305482 L 36.547616,17.305482 C 28.12336,17.305482 23.163837,23.312408 23.163837,32.186397 z "
     style="fill:none;fill-opacity:1;fill-rule:evenodd;stroke:black;stroke-width:10.05090809;stroke-linecap:butt;stroke-linejoin:miter;stroke-miterlimit:4;stroke-dasharray:none;stroke-opacity:1"
     id="path1884" />
  <path
     d="M 78.210222,72.96593 L 78.210222,90.992541 L 91.832141,90.992541 C 95.203601,90.992574 97.732218,90.054539 99.418003,88.178432 C 101.1037,86.302397 101.94658,84.100053 101.94662,81.571394 C 101.94658,78.55341 100.94057,76.296687 98.928593,74.801218 C 97.242809,73.577744 95.054059,72.965981 92.362335,72.96593 L 78.210222,72.96593 z M 69.196917,124.39479 L 69.196917,64.972229 L 92.443903,64.972229 C 97.528298,64.972289 101.55233,66.277381 104.51602,68.887511 C 106.17453,70.328607 107.58159,72.136704 108.73718,74.311808 C 109.89269,76.487013 110.47046,78.906872 110.47051,81.571394 C 110.47046,85.405146 109.44406,88.797028 107.39131,91.747048 C 105.33846,94.697134 102.51756,96.783923 98.928593,98.007421 L 112.71364,124.39479 L 102.02818,124.39479 L 89.752147,99.027026 L 78.210222,99.027026 L 78.210222,124.39479 L 69.196917,124.39479 z M 141.58885,124.39479 L 141.58885,120.64265 L 141.38493,120.64265 C 139.67196,123.47035 136.19172,124.8842 130.94417,124.8842 C 126.2132,124.8842 122.54262,123.65388 119.93244,121.19323 C 117.32225,118.73259 116.01716,115.65339 116.01716,111.95562 C 116.01716,108.61133 117.17271,105.68846 119.48382,103.18702 C 121.79491,100.68561 125.23438,99.434893 129.80222,99.434868 L 141.58885,99.434868 L 141.58885,95.030176 C 141.58882,91.41401 138.69314,89.605913 132.90181,89.605879 C 128.87776,89.605913 126.1996,90.679896 124.86733,92.827829 L 118.17872,87.77059 C 121.14237,83.637833 125.90052,81.571436 132.45319,81.571394 C 137.67354,81.571436 141.91509,82.59104 145.17786,84.630208 C 148.44056,86.669455 150.07192,90.299244 150.07196,95.519586 L 150.07196,124.39479 L 141.58885,124.39479 z M 141.58885,109.54935 L 141.58885,106.44975 L 131.3928,106.44975 C 126.4715,106.44977 124.01085,108.14911 124.01086,111.54777 C 124.01085,112.98883 124.62941,114.23954 125.86654,115.29992 C 127.10365,116.36032 129.16325,116.89051 132.04535,116.8905 C 135.57995,116.89051 138.05419,116.49626 139.46807,115.70776 C 140.88189,114.91928 141.58882,112.86647 141.58885,109.54935 L 141.58885,109.54935 z M 186.41067,124.39479 L 186.41067,119.9901 C 183.44699,123.25284 179.80361,124.8842 175.48051,124.8842 C 172.8703,124.8842 170.62717,124.3744 168.75112,123.3548 C 166.87503,122.33519 165.33883,121.0233 164.1425,119.41912 C 162.94616,117.92371 162.14407,116.1496 161.73624,114.09679 C 161.32839,112.04399 161.12447,108.40741 161.12447,103.18702 C 161.12447,98.021042 161.32839,94.42524 161.73624,92.399595 C 162.14407,90.374015 162.94616,88.599904 164.1425,87.077259 C 165.33883,85.500309 166.87503,84.188419 168.75112,83.141585 C 170.62717,82.094833 172.8703,81.571436 175.48051,81.571394 C 177.65564,81.571436 179.62687,82.033657 181.39421,82.958056 C 183.1615,83.882538 184.83365,85.092468 186.41067,86.587849 L 186.41067,64.972229 L 194.93456,64.972229 L 194.93456,124.39479 L 186.41067,124.39479 z M 178.09069,90.095289 C 174.06664,90.095323 171.65357,91.468389 170.8515,94.214492 C 170.0494,96.960654 169.64835,99.951492 169.64837,103.18702 C 169.64835,106.50415 170.0494,109.53577 170.8515,112.28189 C 171.65357,115.02803 174.06664,116.4011 178.09069,116.40109 C 182.03314,116.4011 184.40542,114.97365 185.20754,112.11875 C 186.00959,109.26387 186.41064,106.28663 186.41067,103.18702 C 186.41064,100.16901 186.00959,97.232549 185.20754,94.377629 C 184.40542,91.522768 182.03314,90.095323 178.09069,90.095289 L 178.09069,90.095289 z M 205.86472,124.39479 L 205.86472,88.586274 L 201.58238,88.586274 L 201.58238,82.060804 L 205.86472,82.060804 L 205.86472,76.47337 C 205.86471,72.530951 206.95229,69.628479 209.12746,67.765946 C 211.3026,65.903527 214.04873,64.972289 217.36586,64.972229 L 222.87173,64.972229 L 222.87173,72.96593 L 218.05919,72.96593 C 215.58494,72.965981 214.34782,74.135127 214.34783,76.47337 L 214.34783,82.060804 L 222.87173,82.060804 L 222.87173,88.586274 L 214.34783,88.586274 L 214.34783,124.39479 L 205.86472,124.39479 z M 249.91165,124.39479 L 249.91165,120.64265 L 249.70773,120.64265 C 247.99476,123.47035 244.51452,124.8842 239.26697,124.8842 C 234.536,124.8842 230.86542,123.65388 228.25524,121.19323 C 225.64505,118.73259 224.33996,115.65339 224.33996,111.95562 C 224.33996,108.61133 225.49551,105.68846 227.80662,103.18702 C 230.11771,100.68561 233.55718,99.434893 238.12502,99.434868 L 249.91165,99.434868 L 249.91165,95.030176 C 249.91162,91.41401 247.01594,89.605913 241.22461,89.605879 C 237.20056,89.605913 234.5224,90.679896 233.19013,92.827829 L 226.50152,87.77059 C 229.46517,83.637833 234.22332,81.571436 240.77599,81.571394 C 245.99634,81.571436 250.23789,82.59104 253.50065,84.630208 C 256.76336,86.669455 258.39472,90.299244 258.39476,95.519586 L 258.39476,124.39479 L 249.91165,124.39479 z M 249.91165,109.54935 L 249.91165,106.44975 L 239.7156,106.44975 C 234.79429,106.44977 232.33365,108.14911 232.33366,111.54777 C 232.33365,112.98883 232.95221,114.23954 234.18934,115.29992 C 235.42645,116.36032 237.48605,116.89051 240.36815,116.8905 C 243.90275,116.89051 246.37699,116.49626 247.79087,115.70776 C 249.20469,114.91928 249.91162,112.86647 249.91165,109.54935 L 249.91165,109.54935 z M 269.44728,124.39479 L 269.44728,64.972229 L 277.97118,64.972229 L 277.97118,86.587849 L 278.13431,86.587849 C 280.77167,83.243586 284.44225,81.571436 289.14604,81.571394 C 292.43594,81.571436 295.6103,82.82215 298.66915,85.323539 C 301.72793,87.825006 303.25733,91.468389 303.25737,96.253701 L 303.25737,124.39479 L 294.73348,124.39479 L 294.73348,99.190163 C 294.73345,96.335298 293.93815,94.105764 292.3476,92.501556 C 290.75699,90.897411 288.77896,90.095323 286.4135,90.095289 C 283.96643,90.095323 281.94762,90.897411 280.35705,92.501556 C 278.76645,94.105764 277.97116,96.335298 277.97118,99.190163 L 277.97118,124.39479 L 269.44728,124.39479 z M 314.30987,124.39479 L 314.30987,82.060804 L 322.83377,82.060804 L 322.83377,86.587849 L 322.99691,86.587849 C 325.63427,83.243586 329.30484,81.571436 334.00864,81.571394 C 337.10821,81.571436 340.05826,82.659014 342.85881,84.834129 L 336.70039,92.175282 C 334.85148,90.788654 332.97541,90.095323 331.07218,90.095289 C 328.97857,90.095323 327.0821,90.795451 325.38278,92.195674 C 323.68343,93.595962 322.83376,95.845888 322.83377,98.945458 L 322.83377,124.39479 L 314.30987,124.39479 z M 379.56459,106.44975 L 353.21801,106.44975 C 353.218,109.93002 354.16283,112.5402 356.05251,114.28031 C 357.94216,116.02045 360.35522,116.89051 363.2917,116.8905 C 366.79912,116.89051 369.89871,115.53104 372.5905,112.81208 L 378.74891,118.07324 C 376.65529,120.5203 374.2966,122.26722 371.67285,123.31401 C 369.04904,124.36081 366.30971,124.8842 363.45484,124.8842 C 359.10451,124.8842 354.89015,123.47715 350.81174,120.66304 C 346.73332,117.84894 344.69411,112.09157 344.69411,103.39094 C 344.69411,95.152557 346.57698,89.456371 350.34272,86.302359 C 354.10845,83.148423 358.04412,81.571436 362.14975,81.571394 C 366.79912,81.571436 370.86394,83.18241 374.34422,86.40432 C 377.82443,89.626305 379.56456,93.969817 379.56459,99.434868 L 379.56459,106.44975 z M 353.21801,99.434868 L 371.08148,99.434868 C 370.94551,96.253729 370.04826,93.820275 368.38973,92.134498 C 366.73114,90.448786 364.65115,89.605913 362.14975,89.605879 C 359.62111,89.605913 357.52073,90.448786 355.84859,92.134498 C 354.17643,93.820275 353.29957,96.253729 353.21801,99.434868 L 353.21801,99.434868 z M 388.53711,124.39479 L 388.53711,82.060804 L 397.061,82.060804 L 397.061,86.587849 L 397.22414,86.587849 C 399.8615,83.243586 403.53207,81.571436 408.23587,81.571394 C 411.33544,81.571436 414.28549,82.659014 417.08604,84.834129 L 410.92763,92.175282 C 409.07872,90.788654 407.20265,90.095323 405.29941,90.095289 C 403.2058,90.095323 401.30934,90.795451 399.61002,92.195674 C 397.91066,93.595962 397.06099,95.845888 397.061,98.945458 L 397.061,124.39479 L 388.53711,124.39479 z "
     style="font-size:83.52601624px;font-style:normal;font-variant:normal;font-weight:normal;font-stretch:normal;text-indent:0;text-align:center;text-decoration:none;line-height:100%;letter-spacing:normal;word-spacing:normal;text-transform:none;direction:ltr;block-progression:tb;writing-mode:lr-tb;text-anchor:middle;color:black;fill:black;fill-opacity:1;fill-rule:nonzero;stroke:none;stroke-width:1;stroke-linecap:round;stroke-linejoin:miter;marker:none;marker-start:none;marker-mid:none;marker-end:none;stroke-miterlimit:4;stroke-dashoffset:0;stroke-opacity:1;visibility:visible;display:inline;overflow:visible;font-family:DIN 1451 Mittelschrift"
     id="text1918" />
  <path
     d="M 102.41564,204.44952 L 102.41564,200.69737 L 102.21172,200.69737 C 100.49876,203.52508 97.018515,204.93893 91.770972,204.93893 C 87.039994,204.93893 83.369421,203.70861 80.759242,201.24796 C 78.14905,198.78732 76.843958,195.70812 76.84396,192.01034 C 76.843958,188.66605 77.999508,185.74319 80.310616,183.24174 C 82.621712,180.74033 86.061175,179.48962 90.629015,179.4896 L 102.41564,179.4896 L 102.41564,175.0849 C 102.41561,171.46874 99.519943,169.66064 93.728613,169.66061 C 89.704558,169.66064 87.0264,170.73462 85.694128,172.88256 L 79.005522,167.82532 C 81.969165,163.69256 86.727316,161.62616 93.279987,161.62612 C 98.500343,161.62616 102.74189,162.64577 106.00465,164.68494 C 109.26735,166.72418 110.89872,170.35397 110.89875,175.57431 L 110.89875,204.44952 L 102.41564,204.44952 z M 102.41564,189.60407 L 102.41564,186.50448 L 92.219598,186.50448 C 87.298294,186.50449 84.83765,188.20383 84.837661,191.6025 C 84.83765,193.04355 85.45621,194.29427 86.693341,195.35464 C 87.930448,196.41504 89.990048,196.94524 92.872145,196.94523 C 96.406753,196.94524 98.880993,196.55099 100.29486,195.76249 C 101.70869,194.974 102.41561,192.9212 102.41564,189.60407 L 102.41564,189.60407 z M 121.95127,204.44952 L 121.95127,145.02696 L 130.47516,145.02696 L 130.47516,166.64258 C 132.05214,165.1472 133.71749,163.93727 135.47123,163.01278 C 137.22493,162.08838 139.20296,161.62616 141.40533,161.62612 C 143.9883,161.62616 146.21783,162.14956 148.09393,163.19631 C 149.96997,164.24315 151.51977,165.55504 152.74333,167.13199 C 153.91244,168.65463 154.70773,170.42874 155.1292,172.45432 C 155.5506,174.47997 155.76132,178.07577 155.76136,183.24174 C 155.76132,188.46213 155.5506,192.09872 155.1292,194.15151 C 154.70773,196.20432 153.91244,197.97843 152.74333,199.47385 C 151.51977,201.07803 149.96997,202.38992 148.09393,203.40952 C 146.21783,204.42913 143.9883,204.93893 141.40533,204.93893 C 137.05499,204.93893 133.41161,203.30756 130.47516,200.04483 L 130.47516,204.44952 L 121.95127,204.44952 z M 138.83592,170.15002 C 134.83905,170.15005 132.44638,171.5775 131.6579,174.43236 C 130.8694,177.28728 130.47515,180.22373 130.47516,183.24174 C 130.47515,186.34136 130.8694,189.3186 131.6579,192.17348 C 132.44638,195.02838 134.83905,196.45583 138.83592,196.45582 C 142.83275,196.45583 145.23221,195.08276 146.03433,192.33661 C 146.83639,189.59049 147.23743,186.55887 147.23746,183.24174 C 147.23743,180.00622 146.83639,177.01538 146.03433,174.26922 C 145.23221,171.52312 142.83275,170.15005 138.83592,170.15002 L 138.83592,170.15002 z M 160.65546,197.39385 L 166.60995,191.52093 C 170.3077,195.13714 174.75318,196.94524 179.94638,196.94523 C 182.36622,196.94524 184.36464,196.48981 185.94165,195.57896 C 187.51861,194.66812 188.30711,193.31545 188.30714,191.52093 C 188.30711,189.04671 186.58058,187.66004 183.12755,187.36094 L 175.62325,186.66761 C 172.1158,186.39574 169.20653,185.24019 166.89544,183.20096 C 164.58433,181.16177 163.42878,178.32047 163.42878,174.67706 C 163.42878,170.38116 164.93779,167.13202 167.95583,164.92964 C 170.97385,162.72734 174.72599,161.62616 179.21226,161.62612 C 182.91001,161.62616 186.07758,162.14956 188.71498,163.19631 C 191.35232,164.24315 193.71781,165.63661 195.81143,167.37669 L 190.55027,173.57589 C 188.86449,172.43396 187.12437,171.49593 185.32989,170.76178 C 183.53536,170.0277 181.49616,169.66064 179.21226,169.66061 C 176.4933,169.66064 174.60364,170.14325 173.54326,171.10844 C 172.48286,172.0737 171.95267,173.29043 171.95268,174.75863 C 171.95267,175.6831 172.34691,176.53957 173.13542,177.32803 C 173.9239,178.11655 175.39213,178.59237 177.54011,178.75548 L 184.55499,179.24489 C 188.93247,179.544 192.07284,180.89667 193.97614,183.30292 C 195.87936,185.7092 196.831,188.58449 196.83103,191.92877 C 196.831,196.08877 195.13166,199.29712 191.73301,201.55384 C 188.3343,203.81057 184.18791,204.93893 179.29383,204.93893 C 172.25175,204.93893 166.03896,202.42391 160.65546,197.39385 L 160.65546,197.39385 z M 205.96669,162.11553 L 205.96669,149.26851 L 214.49059,149.26851 L 214.49059,162.11553 L 220.68979,162.11553 L 220.68979,168.641 L 214.49059,168.641 L 214.49059,193.27465 C 214.49058,195.39544 215.49658,196.45583 217.50862,196.45582 L 220.68979,196.45582 L 220.68979,204.44952 L 216.24431,204.44952 C 213.28065,204.44952 210.8268,203.55227 208.88276,201.75776 C 206.93871,199.96326 205.96669,197.39386 205.96669,194.04955 L 205.96669,168.641 L 201.72514,168.641 L 201.72514,162.11553 L 205.96669,162.11553 z M 261.43318,186.50448 L 235.0866,186.50448 C 235.08659,189.98474 236.03142,192.59493 237.9211,194.33504 C 239.81075,196.07517 242.22381,196.94524 245.16029,196.94523 C 248.66771,196.94524 251.7673,195.58576 254.45909,192.86681 L 260.6175,198.12797 C 258.52388,200.57502 256.16519,202.32195 253.54144,203.36874 C 250.91763,204.41553 248.1783,204.93893 245.32343,204.93893 C 240.9731,204.93893 236.75874,203.53187 232.68033,200.71777 C 228.60191,197.90366 226.5627,192.1463 226.5627,183.44566 C 226.5627,175.20728 228.44557,169.5111 232.21131,166.35709 C 235.97704,163.20315 239.91271,161.62616 244.01834,161.62612 C 248.66771,161.62616 252.73253,163.23714 256.21281,166.45905 C 259.69302,169.68103 261.43315,174.02454 261.43318,179.4896 L 261.43318,186.50448 z M 235.0866,179.4896 L 252.95007,179.4896 C 252.8141,176.30846 251.91684,173.875 250.25832,172.18923 C 248.59973,170.50351 246.51974,169.66064 244.01834,169.66061 C 241.4897,169.66064 239.38931,170.50351 237.71718,172.18923 C 236.04501,173.875 235.16816,176.30846 235.0866,179.4896 L 235.0866,179.4896 z M 270.65042,204.44952 L 270.65042,162.11553 L 279.17431,162.11553 L 279.17431,204.44952 L 270.65042,204.44952 z M 270.65042,153.55085 L 270.65042,145.02696 L 279.17431,145.02696 L 279.17431,153.55085 L 270.65042,153.55085 z M 314.24871,204.40873 L 314.24871,200.04483 C 311.28503,203.30756 307.64164,204.93893 303.31854,204.93893 C 300.5452,204.93893 298.2273,204.38834 296.36484,203.28717 C 294.50235,202.186 293.0953,201.02365 292.14368,199.80012 C 290.92014,198.22314 290.08407,196.55099 289.63545,194.78367 C 289.18682,193.01636 288.96251,189.19625 288.96251,183.32331 C 288.96251,177.45041 289.18682,173.6303 289.63545,171.86295 C 290.08407,170.09567 290.92014,168.40993 292.14368,166.80571 C 293.0953,165.60942 294.50235,164.44707 296.36484,163.31867 C 298.2273,162.19034 300.5452,161.62616 303.31854,161.62612 C 307.45132,161.62616 311.0947,163.29831 314.24871,166.64258 L 314.24871,162.11553 L 322.7726,162.11553 L 322.7726,203.4707 C 322.77256,209.83303 320.91688,214.5232 317.20556,217.54124 C 313.49417,220.55926 309.23223,222.06827 304.41972,222.06829 C 301.70075,222.06827 299.03619,221.41572 296.42602,220.11065 C 293.81582,218.80554 291.57269,217.0926 289.69662,214.97184 L 296.30366,209.71068 C 297.33685,210.74387 298.56717,211.64112 299.99463,212.40243 C 301.42206,213.16373 302.95147,213.54438 304.58285,213.54439 C 307.41053,213.54438 309.72843,212.75589 311.53656,211.17891 C 313.34463,209.60192 314.24868,207.34519 314.24871,204.40873 L 314.24871,204.40873 z M 297.4864,183.32331 C 297.48639,186.72201 297.57476,188.97873 297.7515,190.09348 C 297.92822,191.20827 298.39724,192.24146 299.15856,193.19308 C 299.72952,193.9544 300.57239,194.68851 301.68718,195.39543 C 302.80193,196.10236 304.21578,196.45583 305.92873,196.45582 C 307.58727,196.45583 308.96713,196.10236 310.06833,195.39543 C 311.16947,194.68851 312.01914,193.9544 312.61734,193.19308 C 313.35143,192.24146 313.80685,191.20827 313.98361,190.09348 C 314.16031,188.97873 314.24868,186.72201 314.24871,183.32331 C 314.24868,179.92465 314.16031,177.66793 313.98361,176.55313 C 313.80685,175.4384 313.35143,174.3916 312.61734,173.41275 C 312.01914,172.67867 311.16947,171.95135 310.06833,171.2308 C 308.96713,170.51031 307.58727,170.15005 305.92873,170.15002 C 304.21578,170.15005 302.80193,170.51031 301.68718,171.2308 C 300.57239,171.95135 299.72952,172.67867 299.15856,173.41275 C 298.39724,174.3916 297.92822,175.4384 297.7515,176.55313 C 297.57476,177.66793 297.48639,179.92465 297.4864,183.32331 L 297.4864,183.32331 z M 366.65639,186.50448 L 340.3098,186.50448 C 340.30979,189.98474 341.25463,192.59493 343.14431,194.33504 C 345.03396,196.07517 347.44702,196.94524 350.3835,196.94523 C 353.89091,196.94524 356.99051,195.58576 359.68229,192.86681 L 365.84071,198.12797 C 363.74708,200.57502 361.3884,202.32195 358.76465,203.36874 C 356.14084,204.41553 353.4015,204.93893 350.54664,204.93893 C 346.1963,204.93893 341.98194,203.53187 337.90354,200.71777 C 333.82511,197.90366 331.78591,192.1463 331.78591,183.44566 C 331.78591,175.20728 333.66877,169.5111 337.43452,166.35709 C 341.20025,163.20315 345.13592,161.62616 349.24154,161.62612 C 353.89091,161.62616 357.95573,163.23714 361.43601,166.45905 C 364.91623,169.68103 366.65635,174.02454 366.65639,179.4896 L 366.65639,186.50448 z M 340.3098,179.4896 L 358.17328,179.4896 C 358.0373,176.30846 357.14005,173.875 355.48152,172.18923 C 353.82294,170.50351 351.74295,169.66064 349.24154,169.66061 C 346.7129,169.66064 344.61252,170.50351 342.94038,172.18923 C 341.26822,173.875 340.39136,176.30846 340.3098,179.4896 L 340.3098,179.4896 z M 375.6289,204.44952 L 375.6289,162.11553 L 384.1528,162.11553 L 384.1528,166.64258 L 384.31594,166.64258 C 386.9533,163.29831 390.62387,161.62616 395.32767,161.62612 C 398.61756,161.62616 401.79193,162.87688 404.85077,165.37827 C 407.90955,167.87973 409.43896,171.52312 409.43899,176.30843 L 409.43899,204.44952 L 400.9151,204.44952 L 400.9151,179.24489 C 400.91507,176.39003 400.11978,174.16049 398.52922,172.55628 C 396.93861,170.95214 394.96058,170.15005 392.59513,170.15002 C 390.14805,170.15005 388.12924,170.95214 386.53867,172.55628 C 384.94808,174.16049 384.15278,176.39003 384.1528,179.24489 L 384.1528,204.44952 L 375.6289,204.44952 z "
     style="font-size:83.52601624px;font-style:normal;font-variant:normal;font-weight:normal;font-stretch:normal;text-indent:0;text-align:center;text-decoration:none;line-height:100%;letter-spacing:normal;word-spacing:normal;text-transform:none;direction:ltr;block-progression:tb;writing-mode:lr-tb;text-anchor:middle;color:black;fill:black;fill-opacity:1;fill-rule:nonzero;stroke:none;stroke-width:1;stroke-linecap:round;stroke-linejoin:miter;marker:none;marker-start:none;marker-mid:none;marker-end:none;stroke-miterlimit:4;stroke-dashoffset:0;stroke-opacity:1;visibility:visible;display:inline;overflow:visible;font-family:DIN 1451 Mittelschrift"
     id="text1922" />
</svg>
