<?xml version="1.0" encoding="UTF-8" standalone="no"?>
<!-- Created with Inkscape (http://www.inkscape.org/) -->
<svg
   xmlns:svg="http://www.w3.org/2000/svg"
   xmlns="http://www.w3.org/2000/svg"
   version="1.0"
   width="490"
   height="270"
   id="svg2">
  <defs
     id="defs4" />
  <path
     d="M 38.78125,4.984375 C 20.356889,4.9843748 9.96875,12.12016 9.96875,33.203125 L 9.65625,236.79688 C 9.65625,257.87984 20.044391,265.01563 38.46875,265.01563 L 451.21875,264.98438 C 469.64311,264.98438 480.03124,257.84859 480.03125,236.76563 L 480.34375,33.234375 C 480.34375,12.15141 469.95561,5.0156248 451.53125,5.015625 L 38.78125,4.984375 z "
     style="fill:white;fill-opacity:1;fill-rule:evenodd;stroke:black;stroke-width:2;stroke-linecap:butt;stroke-linejoin:miter;stroke-miterlimit:4;stroke-dasharray:none;stroke-opacity:1"
     id="path1881" />
  <path
     d="M 453.3125,17.796875 L 36.78125,17.828125 C 28.356999,17.828125 23.40625,23.829135 23.40625,32.703125 L 23.40625,237.35938 C 23.406249,246.23335 28.35701,252.23438 36.78125,252.23438 L 453.28125,252.20313 C 461.70549,252.20312 466.65625,246.20211 466.65625,237.32813 L 466.65625,32.671875 C 466.65625,23.797885 461.73674,17.796875 453.3125,17.796875 z "
     style="fill:none;fill-opacity:1;fill-rule:evenodd;stroke:black;stroke-width:10.05090809;stroke-linecap:butt;stroke-linejoin:miter;stroke-miterlimit:4;stroke-dasharray:none;stroke-opacity:1"
     id="path3976" />
  <path
     d="M 80.239381,108.66835 L 80.239381,158.97358 L 204.11877,158.97358 L 204.11877,108.66835 L 80.239381,108.66835 z "
     style="fill:white;fill-opacity:1;fill-rule:evenodd;stroke:none;stroke-width:1px;stroke-linecap:butt;stroke-linejoin:miter;stroke-opacity:1"
     id="path20922" />
  <g
     transform="matrix(1.078805,0,0,1.078805,84.95426,-453.0698)"
     id="g2918">
    <path
       d="M 22.120725,601.60943 L 17.136687,601.60943 L 17.136687,591.70291 L 34.044033,591.70291 L 34.044033,596.86436 L 24.789257,631.27106 L 18.798637,631.27106 L 28.408251,596.98204 L 22.120725,596.98204 L 22.120725,601.60943 z M 38.823495,618.51677 L 38.823495,612.88099 L 55.730841,612.88099 L 55.730841,618.51677 L 38.823495,618.51677 z M 61.171099,611.27879 C 60.894709,610.72482 60.726945,610.20071 60.667807,609.70645 C 60.608666,609.21223 60.579096,608.47088 60.579097,607.48237 L 60.579097,599.41522 C 60.579096,598.6235 60.727247,597.85197 61.023551,597.10062 C 61.319851,596.34934 62.012028,595.20245 63.100082,593.65995 C 64.188129,592.11753 66.135818,591.3463 68.943155,591.34626 C 71.593571,591.3463 73.680058,592.24607 75.202621,594.04557 C 76.725151,595.84514 77.486424,597.8921 77.486443,600.18645 L 77.486443,606.6514 C 77.486424,608.15406 77.169604,609.69652 76.535982,611.27879 L 69.062642,631.27106 L 62.655629,631.27106 L 69.240061,614.60087 C 68.211743,614.83866 67.420598,614.95754 66.866624,614.95752 C 65.640372,614.95754 64.50344,614.61145 63.455826,613.91926 C 62.408203,613.2271 61.646628,612.34694 61.171099,611.27879 L 61.171099,611.27879 z M 69.120575,596.9223 C 68.171915,596.92233 67.460427,597.23885 66.986111,597.87185 C 66.511778,598.50492 66.274615,599.27646 66.274623,600.18645 L 66.274623,606.6514 C 66.274615,607.6399 66.531692,608.45066 67.045854,609.08367 C 67.559999,609.71673 68.311315,610.03325 69.299805,610.03323 C 70.169993,610.03325 70.812685,609.72669 71.227883,609.11355 C 71.643056,608.50045 71.850648,607.67973 71.850661,606.6514 L 71.850661,600.18645 C 71.850648,599.1968 71.643056,598.40535 71.227883,597.81211 C 70.812685,597.21894 70.11025,596.92233 69.120575,596.9223 L 69.120575,596.9223 z M 103.72642,602.67757 C 104.75471,602.67759 105.72388,602.95428 106.63392,603.50764 C 107.54393,604.06104 108.19658,604.70373 108.59187,605.43571 C 108.98712,606.16774 109.23424,606.79082 109.33323,607.30495 C 109.43218,607.81913 109.48166,608.49139 109.48168,609.32174 L 109.48168,631.27106 L 103.78616,631.27106 L 103.78616,611.45621 C 103.78614,610.50758 103.56859,609.73665 103.13351,609.14342 C 102.6984,608.55023 102.00652,608.25363 101.05788,608.2536 C 100.2275,608.25363 99.545282,608.5798 99.011223,609.23213 C 98.477146,609.8845 98.210112,610.62586 98.21012,611.45621 L 98.21012,631.27106 L 92.514595,631.27106 L 92.514595,591.70291 L 98.21012,591.70291 L 98.21012,605.76249 C 99.514807,603.7059 101.35357,602.67759 103.72642,602.67757 L 103.72642,602.67757 z M 152.39908,631.27106 L 152.39908,597.6356 L 146.7633,601.84659 L 146.7633,595.85597 L 152.39908,591.70291 L 158.03305,591.70291 L 158.03305,631.27106 L 152.39908,631.27106 z M 173.25491,631.27106 L 173.25491,597.6356 L 167.61913,601.84659 L 167.61913,595.85597 L 173.25491,591.70291 L 178.88888,591.70291 L 178.88888,631.27106 L 173.25491,631.27106 z M 188.05857,618.51677 L 188.05857,612.88099 L 204.96592,612.88099 L 204.96592,618.51677 L 188.05857,618.51677 z M 217.05215,631.27106 L 217.05215,597.6356 L 211.41637,601.84659 L 211.41637,595.85597 L 217.05215,591.70291 L 222.68613,591.70291 L 222.68613,631.27106 L 217.05215,631.27106 z M 247.99193,622.1937 L 247.99193,622.907 C 247.99191,623.1834 247.98195,623.48965 247.96206,623.82578 C 247.94212,624.16192 247.87303,624.62689 247.75477,625.22069 C 247.20077,627.11921 246.15254,628.66167 244.6101,629.84808 C 243.06762,631.0345 241.30791,631.62771 239.33097,631.62771 C 237.74867,631.62771 236.26534,631.15308 234.881,630.20383 C 233.49664,629.25457 232.58721,628.27575 232.15272,627.26735 C 231.71822,626.25896 231.43157,625.44821 231.29278,624.83508 C 231.15398,624.22196 231.08458,623.3415 231.08458,622.1937 L 231.08458,619.88182 L 236.72037,619.88182 L 236.72037,621.71938 C 236.72036,622.19492 236.73031,622.65989 236.75024,623.11429 C 236.77014,623.56871 236.97774,624.142 237.37302,624.83417 C 237.76828,625.52636 238.48007,625.87244 239.50838,625.87244 C 240.53668,625.87244 241.26839,625.52636 241.7035,624.83417 C 242.13858,624.142 242.35613,623.26185 242.35615,622.1937 L 242.35615,616.08359 C 242.35613,615.09513 242.11897,614.40326 241.64466,614.00797 C 241.17032,613.61271 240.70565,613.37555 240.25065,613.29648 C 239.79562,613.21744 239.31104,613.17792 238.7969,613.1779 L 237.7885,613.1779 L 237.7885,608.19386 L 238.7969,608.19386 C 241.16972,608.19388 242.35613,607.08652 242.35615,604.87177 L 242.35615,600.12671 C 242.35613,599.57276 242.32656,599.16723 242.26744,598.91012 C 242.20828,598.65307 241.97112,598.2575 241.55595,597.7234 C 241.14075,597.18937 240.49806,596.92233 239.62787,596.9223 C 238.63938,596.92233 237.90768,597.21894 237.43276,597.81211 C 236.95782,598.40535 236.72036,599.17688 236.72037,600.12671 L 236.72037,603.0324 L 231.08458,603.0324 L 231.08458,600.12671 C 231.08458,597.63442 231.88538,595.54794 233.48699,593.86724 C 235.08858,592.18663 237.13554,591.3463 239.62787,591.34626 C 241.01221,591.3463 242.34708,591.70234 243.63248,592.4144 C 244.91785,593.12653 245.8668,593.9572 246.47934,594.90641 C 247.09184,595.8557 247.49707,596.73556 247.69502,597.54598 C 247.89294,598.35647 247.99191,599.21671 247.99193,600.12671 L 247.99193,604.7541 C 247.99191,607.32489 246.86463,609.28254 244.6101,610.62704 C 245.87616,611.49726 246.75631,612.37712 247.25057,613.26661 C 247.74479,614.15614 247.99191,615.35221 247.99193,616.85482 L 247.99193,622.1937 z M 273.81732,602.67757 C 274.84561,602.67759 275.81478,602.95428 276.72483,603.50764 C 277.63484,604.06104 278.28749,604.70373 278.68278,605.43571 C 279.07803,606.16774 279.32515,606.79082 279.42413,607.30495 C 279.52308,607.81913 279.57257,608.49139 279.57259,609.32174 L 279.57259,631.27106 L 273.87706,631.27106 L 273.87706,611.45621 C 273.87705,610.50758 273.6595,609.73665 273.22441,609.14342 C 272.7893,608.55023 272.09743,608.25363 271.14879,608.2536 C 270.31841,608.25363 269.63619,608.5798 269.10213,609.23213 C 268.56805,609.8845 268.30102,610.62586 268.30102,611.45621 L 268.30102,631.27106 L 262.6055,631.27106 L 262.6055,591.70291 L 268.30102,591.70291 L 268.30102,605.76249 C 269.60571,603.7059 271.44447,602.67759 273.81732,602.67757 L 273.81732,602.67757 z "
       style="font-size:59.32325745px;font-style:normal;font-variant:normal;font-weight:normal;font-stretch:normal;text-align:center;line-height:100%;writing-mode:lr-tb;text-anchor:middle;fill:black;fill-opacity:1;stroke:none;stroke-width:1px;stroke-linecap:butt;stroke-linejoin:miter;stroke-opacity:1;font-family:DIN 1451 Engschrift"
       id="text4022" />
    <path
       d="M -4.4652343,508.46704 L 1.2142112,502.00958 C 3.3407527,503.72121 5.7914699,505.09569 8.5663702,506.13302 C 11.341242,507.17037 14.245796,507.68904 17.28004,507.68903 C 20.781042,507.68904 23.529994,506.9629 25.526906,505.51061 C 27.523756,504.05835 28.522196,502.15223 28.52223,499.79227 C 28.522196,495.33172 26.058512,492.77727 21.131171,492.1289 C 19.834469,491.97333 18.62856,491.81773 17.513442,491.6621 C 16.398278,491.50652 15.101602,491.32499 13.623411,491.1175 C 8.7219572,490.44325 4.9875309,488.64735 2.4201209,485.7298 C -0.14730511,482.81231 -1.4310141,479.29184 -1.43101,475.16837 C -1.4310141,470.34478 0.18334721,466.37695 3.4120788,463.26487 C 6.6407926,460.1529 11.185641,458.59689 17.046638,458.59684 C 20.54764,458.59689 23.841197,459.15446 26.927317,460.26955 C 30.013373,461.38475 32.853093,462.79812 35.446486,464.50968 L 30.661747,471.58954 C 28.58703,470.29291 26.356748,469.2426 23.970894,468.43861 C 21.584981,467.63472 19.14723,467.23275 16.657635,467.2327 C 14.012394,467.23275 11.769145,467.90702 9.9278811,469.25552 C 8.086586,470.60411 7.1659462,472.62692 7.165959,475.32397 C 7.1659462,476.93189 7.7883506,478.43603 9.0331739,479.83641 C 10.277968,481.23685 12.339683,482.15749 15.218324,482.59833 C 15.970375,482.72803 16.878048,482.86418 17.941345,483.00678 C 19.004596,483.14945 20.223471,483.29857 21.597975,483.45414 C 26.888385,484.10251 30.797862,486.02159 33.326419,489.21138 C 35.854898,492.40123 37.119157,495.92819 37.119199,499.79227 C 37.119157,505.00492 35.316777,509.05055 31.712056,511.92916 C 28.10726,514.80779 23.270659,516.2471 17.202239,516.2471 C 8.6700901,516.2471 1.4476061,513.65375 -4.4652343,508.46704 L -4.4652343,508.46704 z M 69.250855,503.9157 L 75.241503,509.28394 C 73.477989,511.30676 71.383858,512.97299 68.959103,514.28263 C 66.53429,515.59228 63.791821,516.2471 60.731687,516.2471 C 56.063633,516.2471 51.842954,514.65867 48.069635,511.48181 C 44.296301,508.30496 42.409638,503.021 42.40964,495.62993 C 42.409638,488.2389 44.296301,482.94198 48.069635,479.73916 C 51.842954,476.5364 56.063633,474.93501 60.731687,474.93497 C 63.791821,474.93501 66.53429,475.59631 68.959103,476.91888 C 71.383858,478.24153 73.477989,479.91424 75.241503,481.93702 L 69.250855,487.26637 C 66.968677,484.46557 64.232691,483.06516 61.042889,483.06513 C 54.040819,483.06516 50.539795,487.25343 50.539805,495.62993 C 50.539795,503.98054 54.040819,508.15584 61.042889,508.15583 C 64.258624,508.15584 66.99461,506.74246 69.250855,503.9157 L 69.250855,503.9157 z M 80.843152,515.78029 L 80.843152,459.10254 L 88.973317,459.10254 L 88.973317,479.71971 L 89.128919,479.71971 C 91.644456,476.52992 95.145481,474.93501 99.632003,474.93497 C 102.76993,474.93501 105.79767,476.12795 108.71523,478.5138 C 111.63271,480.89972 113.09147,484.37481 113.09151,488.93908 L 113.09151,515.78029 L 104.96135,515.78029 L 104.96135,491.7399 C 104.96132,489.01691 104.20276,486.89036 102.68568,485.36025 C 101.16854,483.8302 99.281876,483.06516 97.025682,483.06513 C 94.691644,483.06516 92.766081,483.8302 91.248986,485.36025 C 89.731859,486.89036 88.973304,489.01691 88.973317,491.7399 L 88.973317,515.78029 L 80.843152,515.78029 z M 123.6335,502.24299 L 123.6335,475.40177 L 131.76366,475.40177 L 131.76366,499.48106 C 131.76365,502.23003 132.5222,504.36306 134.03933,505.88016 C 135.55642,507.39729 137.48199,508.15584 139.81603,508.15583 C 142.07222,508.15584 143.95888,507.39729 145.47602,505.88016 C 146.99311,504.36306 147.75166,502.23003 147.75169,499.48106 L 147.75169,475.40177 L 155.88186,475.40177 L 155.88186,515.78029 L 147.75169,515.78029 L 147.75169,511.50126 L 147.59609,511.50126 C 145.08051,514.66515 141.60542,516.2471 137.17081,516.2471 C 133.98096,516.2471 130.92729,515.06064 128.00978,512.68772 C 125.09225,510.31481 123.63349,506.83323 123.6335,502.24299 L 123.6335,502.24299 z M 166.42384,506.01632 L 166.42384,459.10254 L 174.55401,459.10254 L 174.55401,505.35501 C 174.55399,507.22223 175.5654,508.15584 177.58823,508.15583 L 180.35015,508.15583 L 180.35015,515.78029 L 176.77132,515.78029 C 173.81489,515.78029 171.3512,515.06064 169.38026,513.62133 C 167.40931,512.18202 166.42384,509.64702 166.42384,506.01632 L 166.42384,506.01632 z M 186.96319,515.78029 L 186.96319,459.10254 L 195.09336,459.10254 L 195.09336,479.71971 C 196.59749,478.2934 198.18592,477.13936 199.85865,476.25758 C 201.53134,475.37588 203.418,474.93501 205.51864,474.93497 C 207.9823,474.93501 210.10885,475.43423 211.89829,476.43263 C 213.68768,477.43111 215.16589,478.6824 216.33293,480.18651 C 217.44804,481.63882 218.20659,483.33098 218.6086,485.263 C 219.01053,487.19508 219.21151,490.62478 219.21155,495.55213 C 219.21151,500.53139 219.01053,503.99999 218.6086,505.95797 C 218.20659,507.91596 217.44804,509.60812 216.33293,511.03446 C 215.16589,512.56454 213.68768,513.81583 211.89829,514.78834 C 210.10885,515.76084 207.9823,516.2471 205.51864,516.2471 C 201.36926,516.2471 197.89416,514.69109 195.09336,511.57906 L 195.09336,515.78029 L 186.96319,515.78029 z M 203.06792,483.06513 C 199.25567,483.06516 196.97352,484.42667 196.22147,487.14966 C 195.46938,489.87271 195.09334,492.67353 195.09336,495.55213 C 195.09334,498.50857 195.46938,501.34829 196.22147,504.0713 C 196.97352,506.79433 199.25567,508.15584 203.06792,508.15583 C 206.88013,508.15584 209.16876,506.8462 209.93383,504.2269 C 210.69884,501.60763 211.08136,498.71604 211.08139,495.55213 C 211.08136,492.46606 210.69884,489.61338 209.93383,486.99406 C 209.16876,484.37481 206.88013,483.06516 203.06792,483.06513 L 203.06792,483.06513 z M 228.35313,502.24299 L 228.35313,475.40177 L 236.4833,475.40177 L 236.4833,499.48106 C 236.48328,502.23003 237.24184,504.36306 238.75896,505.88016 C 240.27606,507.39729 242.20162,508.15584 244.53566,508.15583 C 246.79186,508.15584 248.67852,507.39729 250.19566,505.88016 C 251.71274,504.36306 252.4713,502.23003 252.47132,499.48106 L 252.47132,475.40177 L 260.60149,475.40177 L 260.60149,515.78029 L 252.47132,515.78029 L 252.47132,511.50126 L 252.31572,511.50126 C 249.80014,514.66515 246.32505,516.2471 241.89044,516.2471 C 238.7006,516.2471 235.64693,515.06064 232.72942,512.68772 C 229.81189,510.31481 228.35313,506.83323 228.35313,502.24299 L 228.35313,502.24299 z M 266.66996,509.05054 L 272.3494,503.4489 C 275.87635,506.89807 280.11648,508.62264 285.0698,508.62264 C 287.37787,508.62264 289.28398,508.18826 290.78815,507.31948 C 292.29227,506.45071 293.04434,505.16052 293.04437,503.4489 C 293.04434,501.08896 291.39756,499.76635 288.10403,499.48106 L 280.94637,498.81976 C 277.60093,498.56044 274.82604,497.45827 272.6217,495.51323 C 270.41735,493.56824 269.31517,490.85819 269.31518,487.38307 C 269.31517,483.2856 270.75448,480.18654 273.63311,478.08589 C 276.51172,475.98531 280.09055,474.93501 284.3696,474.93497 C 287.89654,474.93501 290.91779,475.43423 293.43337,476.43263 C 295.94889,477.43111 298.20511,478.7602 300.20202,480.41991 L 295.18388,486.33276 C 293.57598,485.24358 291.91623,484.34887 290.20464,483.64864 C 288.49301,482.94846 286.54799,482.59836 284.3696,482.59833 C 281.77623,482.59836 279.97385,483.05868 278.96245,483.97929 C 277.95103,484.89996 277.44533,486.06049 277.44534,487.46087 C 277.44533,488.34263 277.82137,489.15954 278.57345,489.91159 C 279.32551,490.66368 280.72592,491.11752 282.77468,491.2731 L 289.46554,491.7399 C 293.64081,492.02519 296.63613,493.31539 298.45151,495.61048 C 300.26682,497.90562 301.1745,500.64809 301.17453,503.8379 C 301.1745,507.80574 299.55365,510.86589 296.31199,513.01837 C 293.07027,515.17086 289.11541,516.2471 284.4474,516.2471 C 277.7306,516.2471 271.80479,513.84825 266.66996,509.05054 L 266.66996,509.05054 z "
       style="font-size:79.66783905px;font-style:normal;font-variant:normal;font-weight:normal;font-stretch:normal;text-align:center;line-height:100%;writing-mode:lr-tb;text-anchor:middle;fill:black;fill-opacity:1;stroke:none;stroke-width:1px;stroke-linecap:butt;stroke-linejoin:miter;stroke-opacity:1;font-family:DIN 1451 Mittelschrift"
       id="text4030" />
    <path
       d="M 63.32462,572.23256 L 57.189453,551.70661 L 57.076363,551.70661 L 50.941196,572.23256 L 45.739027,572.23256 L 36.352504,542.88554 L 42.600761,542.88554 L 48.227021,563.43976 L 48.340111,563.43976 L 54.984186,542.88554 L 59.28163,542.88554 L 65.925705,563.43976 L 66.038795,563.43976 L 71.665054,542.88554 L 77.913312,542.88554 L 68.526789,572.23256 L 63.32462,572.23256 z M 104.63098,559.79259 L 86.366839,559.79259 C 86.36683,562.2052 87.021813,564.01465 88.331788,565.22094 C 89.641743,566.42724 91.314541,567.03039 93.350185,567.03039 C 95.781616,567.03039 97.930336,566.08797 99.796351,564.20312 L 104.06552,567.8503 C 102.61417,569.54666 100.97907,570.75767 99.160217,571.48333 C 97.341323,572.209 95.442345,572.57183 93.463276,572.57183 C 90.447513,572.57183 87.526008,571.59642 84.698752,569.64561 C 81.871482,567.6948 80.457851,563.70365 80.457853,557.67214 C 80.457851,551.96108 81.763104,548.01234 84.373616,545.82589 C 86.984116,543.6395 89.712425,542.5463 92.558551,542.54627 C 95.781616,542.5463 98.599455,543.66306 101.01208,545.89658 C 103.42465,548.13014 104.63095,551.14118 104.63098,554.92969 L 104.63098,559.79259 z M 86.366839,554.92969 L 98.750263,554.92969 C 98.656,552.72444 98.034002,551.03751 96.884268,549.86888 C 95.734495,548.7003 94.292591,548.116 92.558551,548.11598 C 90.805633,548.116 89.349593,548.7003 88.190425,549.86888 C 87.031237,551.03751 86.423376,552.72444 86.366839,554.92969 L 86.366839,554.92969 z M 110.85096,572.23256 L 110.85096,542.88554 L 116.75995,542.88554 L 116.75995,546.0238 L 116.87304,546.0238 C 118.70132,543.70547 121.24586,542.5463 124.50666,542.54627 C 126.65536,542.5463 128.70041,543.30023 130.64182,544.80808 L 126.37265,549.89716 C 125.09094,548.93591 123.7904,548.45528 122.47102,548.45525 C 121.01968,548.45528 119.705,548.94062 118.52699,549.91129 C 117.34895,550.88201 116.75994,552.44172 116.75995,554.59042 L 116.75995,572.23256 L 110.85096,572.23256 z M 133.356,572.23256 L 133.356,531.03929 L 139.26498,531.03929 L 139.26498,556.6826 L 139.37807,556.6826 L 150.65886,542.88554 L 157.72703,542.88554 L 147.60542,554.36424 L 159.11239,572.23256 L 151.70495,572.23256 L 143.9017,558.52032 L 139.26498,563.80731 L 139.26498,572.23256 L 133.356,572.23256 z M 163.77738,542.88554 L 163.77738,533.97965 L 169.68636,533.97965 L 169.68636,542.88554 L 173.98381,542.88554 L 173.98381,547.40916 L 169.68636,547.40916 L 169.68636,564.48585 C 169.68635,565.95603 170.38374,566.69112 171.77854,566.69112 L 173.98381,566.69112 L 173.98381,572.23256 L 170.90209,572.23256 C 168.8476,572.23256 167.14653,571.61056 165.79887,570.36656 C 164.4512,569.12257 163.77737,567.34139 163.77738,565.02303 L 163.77738,547.40916 L 160.83702,547.40916 L 160.83702,542.88554 L 163.77738,542.88554 z M 194.90557,572.23256 L 194.90557,569.63147 L 194.76421,569.63147 C 193.57674,571.59171 191.16414,572.57183 187.52641,572.57183 C 184.24677,572.57183 181.70223,571.71894 179.89279,570.01315 C 178.08334,568.30737 177.17861,566.17279 177.17861,563.6094 C 177.17861,561.29105 177.97967,559.26484 179.58179,557.53077 C 181.1839,555.79673 183.56823,554.92971 186.73477,554.92969 L 194.90557,554.92969 L 194.90557,551.87624 C 194.90555,549.36942 192.8982,548.116 188.88349,548.11598 C 186.09392,548.116 184.23735,548.86052 183.31378,550.34952 L 178.67707,546.84371 C 180.73154,543.97878 184.03001,542.5463 188.5725,542.54627 C 192.19138,542.5463 195.13173,543.25311 197.39357,544.66672 C 199.65535,546.08037 200.78626,548.59664 200.78628,552.21552 L 200.78628,572.23256 L 194.90557,572.23256 z M 194.90557,561.94131 L 194.90557,559.79259 L 187.83741,559.79259 C 184.42583,559.7926 182.72005,560.97063 182.72006,563.32667 C 182.72005,564.32565 183.14885,565.19267 184.00646,565.92775 C 184.86406,566.66285 186.29182,567.03039 188.28977,567.03039 C 190.74005,567.03039 192.45526,566.75709 193.43539,566.21048 C 194.41549,565.66388 194.90555,564.24083 194.90557,561.94131 L 194.90557,561.94131 z M 224.93113,572.20428 L 224.93113,569.17911 C 222.87664,571.44092 220.35095,572.57183 217.35406,572.57183 C 215.43151,572.57183 213.82468,572.19015 212.53357,571.42679 C 211.24245,570.66343 210.26704,569.85766 209.60735,569.00947 C 208.75917,567.91627 208.17958,566.75709 207.86859,565.53194 C 207.55758,564.3068 207.40208,561.65859 207.40209,557.58732 C 207.40208,553.51608 207.55758,550.86787 207.86859,549.6427 C 208.17958,548.41758 208.75917,547.24898 209.60735,546.13689 C 210.26704,545.30759 211.24245,544.50182 212.53357,543.71958 C 213.82468,542.9374 215.43151,542.5463 217.35406,542.54627 C 220.21901,542.5463 222.7447,543.70547 224.93113,546.0238 L 224.93113,542.88554 L 230.84012,542.88554 L 230.84012,571.55401 C 230.84009,575.96454 229.55369,579.2159 226.9809,581.30808 C 224.40807,583.40025 221.45358,584.44633 218.11742,584.44635 C 216.23257,584.44633 214.38542,583.99397 212.57598,583.08926 C 210.76653,582.18452 209.21153,580.99707 207.91099,579.5269 L 212.49116,575.87973 C 213.2074,576.59597 214.06029,577.21796 215.04984,577.74573 C 216.03937,578.27348 217.0996,578.53735 218.23051,578.53736 C 220.19074,578.53735 221.79756,577.99075 223.051,576.89755 C 224.3044,575.80433 224.93111,574.23991 224.93113,572.20428 L 224.93113,572.20428 z M 213.31107,557.58732 C 213.31106,559.94339 213.37232,561.50781 213.49484,562.28058 C 213.61735,563.05338 213.94249,563.76962 214.47025,564.4293 C 214.86606,564.95707 215.45036,565.46597 216.22316,565.95603 C 216.99593,566.44609 217.97605,566.69112 219.16351,566.69112 C 220.31325,566.69112 221.26981,566.44609 222.03319,565.95603 C 222.79653,565.46597 223.38554,564.95707 223.80023,564.4293 C 224.30912,563.76962 224.62483,563.05338 224.74736,562.28058 C 224.86986,561.50781 224.93111,559.94339 224.93113,557.58732 C 224.93111,555.23128 224.86986,553.66686 224.74736,552.89406 C 224.62483,552.12129 224.30912,551.39563 223.80023,550.71706 C 223.38554,550.20818 222.79653,549.70398 222.03319,549.20448 C 221.26981,548.70502 220.31325,548.45528 219.16351,548.45525 C 217.97605,548.45528 216.99593,548.70502 216.22316,549.20448 C 215.45036,549.70398 214.86606,550.20818 214.47025,550.71706 C 213.94249,551.39563 213.61735,552.12129 213.49484,552.89406 C 213.37232,553.66686 213.31106,555.23128 213.31107,557.58732 L 213.31107,557.58732 z M 235.27893,567.34139 L 239.40673,563.27012 C 241.97012,565.77697 245.05183,567.03039 248.65189,567.03039 C 250.32939,567.03039 251.71475,566.71468 252.80797,566.08325 C 253.90117,565.45184 254.44777,564.51413 254.44779,563.27012 C 254.44777,561.55493 253.25089,560.59366 250.85716,560.38631 L 245.65499,559.90568 C 243.22353,559.71721 241.20675,558.91615 239.60464,557.5025 C 238.00252,556.08889 237.20146,554.11923 237.20147,551.59352 C 237.20146,548.61549 238.24755,546.3631 240.33973,544.83635 C 242.4319,543.30966 245.03298,542.5463 248.14299,542.54627 C 250.70636,542.5463 252.9022,542.90913 254.73052,543.63476 C 256.55879,544.36046 258.1986,545.32644 259.64996,546.53271 L 256.00279,550.83015 C 254.83416,550.03854 253.62786,549.38827 252.38388,548.87934 C 251.13987,548.37046 249.72624,548.116 248.14299,548.11598 C 246.25813,548.116 244.94817,548.45056 244.21309,549.11966 C 243.47799,549.7888 243.11044,550.63227 243.11045,551.65006 C 243.11044,552.29093 243.38375,552.88465 243.93036,553.43124 C 244.47695,553.97786 245.49477,554.30771 246.98381,554.42078 L 251.8467,554.76005 C 254.88128,554.9674 257.05828,555.90511 258.37769,557.57318 C 259.69705,559.24128 260.35675,561.2345 260.35677,563.55285 C 260.35675,566.43667 259.17872,568.66078 256.82269,570.2252 C 254.46662,571.78962 251.59223,572.57183 248.19953,572.57183 C 243.31778,572.57183 239.01091,570.82835 235.27893,567.34139 L 235.27893,567.34139 z "
       style="font-size:57.90240479px;font-style:normal;font-variant:normal;font-weight:normal;font-stretch:normal;text-align:center;line-height:100%;writing-mode:lr-tb;text-anchor:middle;fill:black;fill-opacity:1;stroke:none;stroke-width:1px;stroke-linecap:butt;stroke-linejoin:miter;stroke-opacity:1;font-family:DIN 1451 Mittelschrift"
       id="text4034" />
  </g>
</svg>
