<?xml version="1.0" encoding="UTF-8" standalone="no"?>
<!-- Created with Inkscape (http://www.inkscape.org/) -->
<svg
   xmlns:dc="http://purl.org/dc/elements/1.1/"
   xmlns:cc="http://web.resource.org/cc/"
   xmlns:rdf="http://www.w3.org/1999/02/22-rdf-syntax-ns#"
   xmlns:svg="http://www.w3.org/2000/svg"
   xmlns="http://www.w3.org/2000/svg"
   xmlns:sodipodi="http://sodipodi.sourceforge.net/DTD/sodipodi-0.dtd"
   xmlns:inkscape="http://www.inkscape.org/namespaces/inkscape"
   version="1.0"
   width="490"
   height="360"
   id="svg2"
   sodipodi:version="0.32"
   inkscape:version="0.44"
   sodipodi:docname="Zusatzzeichen 1008-31.svg"
   sodipodi:docbase="C:\Dokumente und Einstellungen\Internet\Desktop\Wiki\SVG sonstiges (fertig)">
  <metadata
     id="metadata10">
    <rdf:RDF>
      <cc:Work
         rdf:about="">
        <dc:format>image/svg+xml</dc:format>
        <dc:type
           rdf:resource="http://purl.org/dc/dcmitype/StillImage" />
      </cc:Work>
    </rdf:RDF>
  </metadata>
  <sodipodi:namedview
     inkscape:window-height="749"
     inkscape:window-width="1024"
     inkscape:pageshadow="2"
     inkscape:pageopacity="0.0"
     guidetolerance="10.0"
     gridtolerance="10.0"
     objecttolerance="10.0"
     borderopacity="1.0"
     bordercolor="#666666"
     pagecolor="#ffffff"
     id="base"
     inkscape:zoom="1.05"
     inkscape:cx="485.44864"
     inkscape:cy="-82.23997"
     inkscape:window-x="-4"
     inkscape:window-y="-4"
     inkscape:current-layer="svg2"
     showguides="true"
     inkscape:guide-bbox="true" />
  <defs
     id="defs4" />
  <path
     d="M 38.78125,4.6190618 C 20.35689,4.6190483 9.96875,14.244672 9.96875,42.683954 L 9.65625,317.31604 C 9.65625,345.75531 20.04439,355.38094 38.46875,355.38094 L 451.21875,355.33878 C 469.64311,355.33878 480.03124,345.71316 480.03125,317.27389 L 480.34375,42.726108 C 480.34375,14.286826 469.95561,4.6612021 451.53125,4.6612156 L 38.78125,4.6190618 z "
     style="fill:white;fill-opacity:1;fill-rule:evenodd;stroke:black;stroke-width:3;stroke-linecap:butt;stroke-linejoin:miter;stroke-miterlimit:4;stroke-dasharray:none;stroke-opacity:1"
     id="path1881" />
  <path
     d="M 453.23342,19.074797 L 36.79782,19.117707 C 28.375505,19.117707 23.425891,27.356247 23.425891,39.539027 L 23.425891,320.50387 C 23.425891,332.68661 28.375515,340.9252 36.79782,340.9252 L 453.20218,340.88229 C 461.62449,340.88228 466.57411,332.64373 466.57411,320.46097 L 466.57411,39.496127 C 466.57411,27.313347 461.65573,19.074797 453.23342,19.074797 z "
     style="fill:none;fill-opacity:1;fill-rule:evenodd;stroke:black;stroke-width:12;stroke-linecap:butt;stroke-linejoin:miter;stroke-miterlimit:4;stroke-dasharray:none;stroke-opacity:1"
     id="path3976" />
  <g
     id="g5836"
     transform="translate(-65.47619,-278.1547)">
    <path
       id="text1886"
       d="M 137.13694,387.69065 L 115.44981,321.99803 L 125.95522,321.99803 L 140.9243,372.00017 L 141.10465,372.00017 L 156.07373,321.99803 L 166.57914,321.99803 L 144.89201,387.69065 L 137.13694,387.69065 z M 209.09674,367.85211 L 179.97015,367.85211 C 179.97014,371.6996 181.01467,374.58521 183.10374,376.50893 C 185.19278,378.43268 187.86046,379.39455 191.10679,379.39454 C 194.9843,379.39455 198.41095,377.89163 201.38676,374.88578 L 208.19499,380.70208 C 205.88045,383.40734 203.27289,385.33859 200.37229,386.49583 C 197.47163,387.65308 194.44324,388.2317 191.28714,388.23171 C 186.47778,388.2317 181.81873,386.67618 177.30999,383.56514 C 172.80122,380.4541 170.54684,374.08924 170.54685,364.47054 C 170.54684,355.36288 172.62839,349.06565 176.79148,345.57884 C 180.95455,342.09211 185.3055,340.34873 189.84434,340.34868 C 194.9843,340.34873 199.47802,342.12969 203.32553,345.69156 C 207.17296,349.25352 209.0967,354.05534 209.09674,360.09705 L 209.09674,367.85211 z M 179.97015,360.09705 L 199.71852,360.09705 C 199.5682,356.58024 198.57627,353.89002 196.74274,352.02637 C 194.90915,350.16278 192.60968,349.23098 189.84434,349.23094 C 187.04889,349.23098 184.72688,350.16278 182.8783,352.02637 C 181.0297,353.89002 180.06032,356.58024 179.97015,360.09705 L 179.97015,360.09705 z M 219.01601,387.69065 L 219.01601,340.88973 L 228.43931,340.88973 L 228.43931,345.89445 L 228.61967,345.89445 C 231.53531,342.19732 235.59319,340.34873 240.79332,340.34868 C 244.21994,340.34873 247.48127,341.55106 250.57732,343.95569 L 243.7691,352.07146 C 241.7251,350.53851 239.65107,349.77202 237.54701,349.77199 C 235.23249,349.77202 233.13592,350.54603 231.25729,352.094 C 229.37862,353.64204 228.4393,356.12937 228.43931,359.556 L 228.43931,387.69065 L 219.01601,387.69065 z M 254.90573,387.69065 L 254.90573,321.99803 L 264.32904,321.99803 L 264.32904,362.89248 L 264.50939,362.89248 L 282.49934,340.88973 L 293.77124,340.88973 L 277.62988,359.19529 L 295.98053,387.69065 L 284.16758,387.69065 L 271.72341,365.82317 L 264.32904,374.25455 L 264.32904,387.69065 L 254.90573,387.69065 z M 339.12936,367.85211 L 310.00278,367.85211 C 310.00276,371.6996 311.04729,374.58521 313.13637,376.50893 C 315.22541,378.43268 317.89309,379.39455 321.13941,379.39454 C 325.01692,379.39455 328.44357,377.89163 331.41939,374.88578 L 338.22761,380.70208 C 335.91308,383.40734 333.30551,385.33859 330.40491,386.49583 C 327.50425,387.65308 324.47587,388.2317 321.31976,388.23171 C 316.5104,388.2317 311.85135,386.67618 307.34261,383.56514 C 302.83384,380.4541 300.57947,374.08924 300.57947,364.47054 C 300.57947,355.36288 302.66101,349.06565 306.8241,345.57884 C 310.98718,342.09211 315.33812,340.34873 319.87696,340.34868 C 325.01692,340.34873 329.51064,342.12969 333.35815,345.69156 C 337.20559,349.25352 339.12932,354.05534 339.12936,360.09705 L 339.12936,367.85211 z M 310.00278,360.09705 L 329.75114,360.09705 C 329.60082,356.58024 328.60889,353.89002 326.77536,352.02637 C 324.94177,350.16278 322.64231,349.23098 319.87696,349.23094 C 317.08151,349.23098 314.7595,350.16278 312.91093,352.02637 C 311.06232,353.89002 310.09294,356.58024 310.00278,360.09705 L 310.00278,360.09705 z M 349.04863,387.69065 L 349.04863,321.99803 L 358.47194,321.99803 L 358.47194,345.89445 L 358.65229,345.89445 C 361.56793,342.19732 365.62581,340.34873 370.82594,340.34868 C 374.46297,340.34873 377.97229,341.73141 381.35389,344.49674 C 384.73542,347.26215 386.4262,351.28997 386.42625,356.58021 L 386.42625,387.69065 L 377.00294,387.69065 L 377.00294,359.82652 C 377.00291,356.67042 376.1237,354.20563 374.36532,352.43215 C 372.60687,350.65875 370.42012,349.77202 367.80507,349.77199 C 365.09979,349.77202 362.86796,350.65875 361.10956,352.43215 C 359.35113,354.20563 358.47192,356.67042 358.47194,359.82652 L 358.47194,387.69065 L 349.04863,387.69065 z M 398.64501,387.69065 L 398.64501,340.88973 L 408.06831,340.88973 L 408.06831,345.89445 L 408.24866,345.89445 C 411.16431,342.19732 415.22219,340.34873 420.42231,340.34868 C 423.84894,340.34873 427.11027,341.55106 430.20632,343.95569 L 423.39809,352.07146 C 421.3541,350.53851 419.28007,349.77202 417.17601,349.77199 C 414.86149,349.77202 412.76492,350.54603 410.88629,352.094 C 409.00762,353.64204 408.0683,356.12937 408.06831,359.556 L 408.06831,387.69065 L 398.64501,387.69065 z M 429.34964,379.8905 L 435.93243,373.39789 C 440.02036,377.39566 444.9349,379.39455 450.67607,379.39454 C 453.35125,379.39455 455.56054,378.89107 457.30395,377.8841 C 459.04731,376.87716 459.919,375.38175 459.91903,373.39789 C 459.919,370.66259 458.01029,369.12961 454.19291,368.79895 L 445.89679,368.03246 C 442.01924,367.7319 438.803,366.45442 436.24804,364.20002 C 433.69307,361.94566 432.41559,358.80456 432.4156,354.77671 C 432.41559,350.02752 434.08383,346.43555 437.42032,344.00077 C 440.75679,341.56609 444.90485,340.34873 449.8645,340.34868 C 453.95241,340.34873 457.45421,340.92735 460.36991,342.08455 C 463.28554,343.24185 465.90061,344.78234 468.21515,346.70603 L 462.39885,353.55935 C 460.5352,352.29693 458.61146,351.25991 456.62764,350.4483 C 454.64376,349.63676 452.38938,349.23098 449.8645,349.23094 C 446.85864,349.23098 444.76958,349.76451 443.59732,350.83155 C 442.42503,351.89865 441.83889,353.24377 441.83891,354.86689 C 441.83889,355.8889 442.27474,356.83574 443.14645,357.7074 C 444.01812,358.57913 445.64128,359.10515 448.01591,359.28547 L 455.77097,359.82652 C 460.61034,360.15719 464.08208,361.65259 466.18621,364.31274 C 468.29025,366.97293 469.3423,370.1516 469.34234,373.84876 C 469.3423,378.44771 467.46365,381.99459 463.70639,384.48944 C 459.94906,386.98428 455.36516,388.2317 449.95467,388.23171 C 442.16953,388.2317 435.3012,385.45131 429.34964,379.8905 L 429.34964,379.8905 z M 477.68353,366.86019 L 477.68353,357.43688 L 505.50258,357.43688 L 505.50258,366.86019 L 477.68353,366.86019 z "
       style="font-size:92.33939362px;font-style:normal;font-variant:normal;font-weight:normal;font-stretch:normal;text-indent:0;text-align:center;text-decoration:none;line-height:100%;letter-spacing:normal;word-spacing:normal;text-transform:none;direction:ltr;block-progression:tb;writing-mode:lr-tb;text-anchor:middle;color:black;fill:black;fill-opacity:1;fill-rule:nonzero;stroke:none;stroke-width:1;stroke-linecap:round;stroke-linejoin:miter;marker:none;marker-start:none;marker-mid:none;marker-end:none;stroke-miterlimit:4;stroke-dashoffset:0;stroke-opacity:1;visibility:visible;display:inline;overflow:visible;font-family:DIN 1451 Mittelschrift" />
    <path
       id="text1890"
       d="M 165.7901,481.31493 L 165.7901,441.72802 L 161.0559,441.72802 L 161.0559,434.51401 L 165.7901,434.51401 L 165.7901,428.33701 C 165.79009,423.9786 166.99242,420.76987 169.3971,418.7108 C 171.80176,416.65187 174.83766,415.62237 178.5048,415.6223 L 184.59162,415.6223 L 184.59162,424.45947 L 179.27129,424.45947 C 176.53596,424.45953 175.1683,425.75204 175.16832,428.33701 L 175.16832,434.51401 L 184.59162,434.51401 L 184.59162,441.72802 L 175.16832,441.72802 L 175.16832,481.31493 L 165.7901,481.31493 z M 189.91196,465.62445 L 189.91196,434.51401 L 199.33527,434.51401 L 199.33527,462.42323 C 199.33525,465.60943 200.21446,468.08173 201.97289,469.84014 C 203.73129,471.59856 205.96312,472.47777 208.6684,472.47776 C 211.28345,472.47777 213.4702,471.59856 215.22865,469.84014 C 216.98703,468.08173 217.86624,465.60943 217.86627,462.42323 L 217.86627,434.51401 L 227.28958,434.51401 L 227.28958,481.31493 L 217.86627,481.31493 L 217.86627,476.35529 L 217.68592,476.35529 C 214.77022,480.02242 210.7424,481.85598 205.60244,481.85598 C 201.90524,481.85598 198.36587,480.48081 194.98432,477.73047 C 191.60274,474.98013 189.91196,470.94479 189.91196,465.62445 L 189.91196,465.62445 z M 211.23839,427.2549 L 211.23839,417.29055 L 221.20275,417.29055 L 221.20275,427.2549 L 211.23839,427.2549 z M 194.96177,427.2549 L 194.96177,417.29055 L 204.97122,417.29055 L 204.97122,427.2549 L 194.96177,427.2549 z M 239.50831,481.31493 L 239.50831,415.6223 L 248.93162,415.6223 L 248.93162,439.51873 L 249.11197,439.51873 C 252.02762,435.82159 256.0855,433.973 261.28562,433.97296 C 264.92266,433.973 268.43197,435.35569 271.81358,438.12101 C 275.1951,440.88643 276.88589,444.91425 276.88593,450.20449 L 276.88593,481.31493 L 267.46262,481.31493 L 267.46262,453.4508 C 267.46259,450.2947 266.58338,447.82991 264.825,446.05643 C 263.06655,444.28302 260.87981,443.3963 258.26475,443.39626 C 255.55948,443.3963 253.32764,444.28302 251.56925,446.05643 C 249.81081,447.82991 248.93161,450.2947 248.93162,453.4508 L 248.93162,481.31493 L 239.50831,481.31493 z M 289.10467,481.31493 L 289.10467,434.51401 L 298.52798,434.51401 L 298.52798,439.51873 L 298.70833,439.51873 C 301.62398,435.82159 305.68186,433.973 310.88198,433.97296 C 314.30861,433.973 317.56994,435.17534 320.66599,437.57996 L 313.85776,445.69573 C 311.81376,444.16279 309.73974,443.3963 307.63568,443.39626 C 305.32116,443.3963 303.22459,444.1703 301.34596,445.71827 C 299.46729,447.26632 298.52797,449.75364 298.52798,453.18027 L 298.52798,481.31493 L 289.10467,481.31493 z M 324.99439,465.62445 L 324.99439,434.51401 L 334.4177,434.51401 L 334.4177,462.42323 C 334.41768,465.60943 335.29689,468.08173 337.05532,469.84014 C 338.81372,471.59856 341.04555,472.47777 343.75083,472.47776 C 346.36588,472.47777 348.55263,471.59856 350.31108,469.84014 C 352.06946,468.08173 352.94867,465.60943 352.9487,462.42323 L 352.9487,434.51401 L 362.37201,434.51401 L 362.37201,481.31493 L 352.9487,481.31493 L 352.9487,476.35529 L 352.76835,476.35529 C 349.85265,480.02242 345.82483,481.85598 340.68487,481.85598 C 336.98767,481.85598 333.4483,480.48081 330.06675,477.73047 C 326.68517,474.98013 324.99438,470.94479 324.99439,465.62445 L 324.99439,465.62445 z M 374.59075,481.31493 L 374.59075,434.51401 L 384.01406,434.51401 L 384.01406,439.51873 L 384.19441,439.51873 C 387.11005,435.82159 391.16793,433.973 396.36806,433.97296 C 400.00509,433.973 403.51441,435.35569 406.89601,438.12101 C 410.27754,440.88643 411.96832,444.91425 411.96837,450.20449 L 411.96837,481.31493 L 402.54506,481.31493 L 402.54506,453.4508 C 402.54502,450.2947 401.66582,447.82991 399.90743,446.05643 C 398.14899,444.28302 395.96224,443.3963 393.34719,443.39626 C 390.64191,443.3963 388.41008,444.28302 386.65168,446.05643 C 384.89325,447.82991 384.01404,450.2947 384.01406,453.4508 L 384.01406,481.31493 L 374.59075,481.31493 z M 450.47316,481.26984 L 450.47316,476.44547 C 447.19677,480.05248 443.16895,481.85598 438.38969,481.85598 C 435.32371,481.85598 432.76124,481.2473 430.70225,480.02993 C 428.64324,478.81257 427.08772,477.52758 426.03569,476.17494 C 424.68305,474.43156 423.75876,472.58297 423.2628,470.62917 C 422.76683,468.67539 422.51885,464.45219 422.51885,457.95956 C 422.51885,451.46697 422.76683,447.24377 423.2628,445.28994 C 423.75876,443.33618 424.68305,441.47257 426.03569,439.69908 C 427.08772,438.37655 428.64324,437.09156 430.70225,435.84409 C 432.76124,434.59671 435.32371,433.973 438.38969,433.97296 C 442.95854,433.973 446.98636,435.82159 450.47316,439.51873 L 450.47316,434.51401 L 459.89647,434.51401 L 459.89647,480.23283 C 459.89643,487.26649 457.84494,492.45155 453.74201,495.78805 C 449.63901,499.12451 444.92736,500.79275 439.60705,500.79277 C 436.60119,500.79275 433.65547,500.07135 430.76988,498.62857 C 427.88427,497.18575 425.40445,495.29207 423.33043,492.94753 L 430.63462,487.13123 C 431.77683,488.27344 433.13697,489.26537 434.71505,490.10701 C 436.2931,490.94864 437.98388,491.36945 439.7874,491.36946 C 442.91345,491.36945 445.47593,490.49776 447.47484,488.75438 C 449.47369,487.01099 450.47313,484.51615 450.47316,481.26984 L 450.47316,481.26984 z M 431.94216,457.95956 C 431.94215,461.71687 432.03984,464.21172 432.23523,465.4441 C 432.4306,466.67651 432.9491,467.81872 433.79075,468.87075 C 434.42196,469.7124 435.35377,470.52398 436.58618,471.30548 C 437.81856,472.08701 439.38159,472.47777 441.27529,472.47776 C 443.10883,472.47777 444.63429,472.08701 445.85168,471.30548 C 447.06902,470.52398 448.00834,469.7124 448.66966,468.87075 C 449.4812,467.81872 449.98468,466.67651 450.18009,465.4441 C 450.37544,464.21172 450.47313,461.71687 450.47316,457.95956 C 450.47313,454.20228 450.37544,451.70744 450.18009,450.47501 C 449.98468,449.24265 449.4812,448.08541 448.66966,447.00327 C 448.00834,446.19173 447.06902,445.38767 445.85168,444.59108 C 444.63429,443.79457 443.10883,443.3963 441.27529,443.39626 C 439.38159,443.3963 437.81856,443.79457 436.58618,444.59108 C 435.35377,445.38767 434.42196,446.19173 433.79075,447.00327 C 432.9491,448.08541 432.4306,449.24265 432.23523,450.47501 C 432.03984,451.70744 431.94215,454.20228 431.94216,457.95956 L 431.94216,457.95956 z "
       style="font-size:92.33939362px;font-style:normal;font-variant:normal;font-weight:normal;font-stretch:normal;text-indent:0;text-align:center;text-decoration:none;line-height:100%;letter-spacing:normal;word-spacing:normal;text-transform:none;direction:ltr;block-progression:tb;writing-mode:lr-tb;text-anchor:middle;color:black;fill:black;fill-opacity:1;fill-rule:nonzero;stroke:none;stroke-width:1;stroke-linecap:round;stroke-linejoin:miter;marker:none;marker-start:none;marker-mid:none;marker-end:none;stroke-miterlimit:4;stroke-dashoffset:0;stroke-opacity:1;visibility:visible;display:inline;overflow:visible;font-family:DIN 1451 Mittelschrift" />
    <path
       id="text1894"
       d="M 169.21674,574.78837 L 169.21674,569.96399 C 165.94035,573.571 161.91253,575.3745 157.13327,575.3745 C 154.06729,575.3745 151.50482,574.76582 149.44583,573.54846 C 147.38682,572.33109 145.8313,571.0461 144.77927,569.69347 C 143.42663,567.95009 142.50234,566.1015 142.00638,564.14769 C 141.51041,562.19391 141.26243,557.97071 141.26243,551.47808 C 141.26243,544.9855 141.51041,540.7623 142.00638,538.80847 C 142.50234,536.85471 143.42663,534.99109 144.77927,533.2176 C 145.8313,531.89508 147.38682,530.61008 149.44583,529.36261 C 151.50482,528.11524 154.06729,527.49153 157.13327,527.49148 C 161.70212,527.49153 165.72994,529.34012 169.21674,533.03725 L 169.21674,528.03253 L 178.64005,528.03253 L 178.64005,573.75135 C 178.64001,580.78501 176.58852,585.97008 172.48559,589.30657 C 168.38259,592.64304 163.67094,594.31128 158.35063,594.31129 C 155.34477,594.31128 152.39905,593.58987 149.51346,592.14709 C 146.62785,590.70427 144.14803,588.81059 142.07401,586.46605 L 149.3782,580.64975 C 150.52041,581.79197 151.88055,582.78389 153.45863,583.62553 C 155.03668,584.46716 156.72746,584.88798 158.53098,584.88799 C 161.65703,584.88798 164.21951,584.01628 166.21842,582.27291 C 168.21727,580.52951 169.21671,578.03467 169.21674,574.78837 L 169.21674,574.78837 z M 150.68574,551.47808 C 150.68573,555.2354 150.78342,557.73024 150.97881,558.96262 C 151.17417,560.19503 151.69268,561.33725 152.53433,562.38928 C 153.16554,563.23092 154.09735,564.0425 155.32976,564.82401 C 156.56214,565.60554 158.12517,565.99629 160.01887,565.99629 C 161.85241,565.99629 163.37787,565.60554 164.59526,564.82401 C 165.8126,564.0425 166.75192,563.23092 167.41324,562.38928 C 168.22478,561.33725 168.72826,560.19503 168.92367,558.96262 C 169.11902,557.73024 169.21671,555.2354 169.21674,551.47808 C 169.21671,547.72081 169.11902,545.22596 168.92367,543.99354 C 168.72826,542.76118 168.22478,541.60393 167.41324,540.52179 C 166.75192,539.71025 165.8126,538.90619 164.59526,538.10961 C 163.37787,537.3131 161.85241,536.91482 160.01887,536.91479 C 158.12517,536.91482 156.56214,537.3131 155.32976,538.10961 C 154.09735,538.90619 153.16554,539.71025 152.53433,540.52179 C 151.69268,541.60393 151.17417,542.76118 150.97881,543.99354 C 150.78342,545.22596 150.68573,547.72081 150.68574,551.47808 L 150.68574,551.47808 z M 227.1543,554.99491 L 198.02772,554.99491 C 198.0277,558.8424 199.07223,561.72801 201.1613,563.65173 C 203.25034,565.57548 205.91802,566.53734 209.16435,566.53734 C 213.04186,566.53734 216.46851,565.03443 219.44432,562.02858 L 226.25255,567.84488 C 223.93801,570.55014 221.33045,572.48139 218.42985,573.63863 C 215.52919,574.79588 212.50081,575.3745 209.3447,575.3745 C 204.53534,575.3745 199.87629,573.81898 195.36755,570.70794 C 190.85878,567.5969 188.60441,561.23204 188.60441,551.61334 C 188.60441,542.50568 190.68595,536.20845 194.84904,532.72164 C 199.01211,529.23491 203.36306,527.49153 207.9019,527.49148 C 213.04186,527.49153 217.53558,529.27248 221.38309,532.83436 C 225.23052,536.39632 227.15426,541.19814 227.1543,547.23985 L 227.1543,554.99491 z M 198.02772,547.23985 L 217.77608,547.23985 C 217.62576,543.72304 216.63383,541.03282 214.8003,539.16917 C 212.96671,537.30558 210.66725,536.37377 207.9019,536.37374 C 205.10645,536.37377 202.78444,537.30558 200.93587,539.16917 C 199.08726,541.03282 198.11788,543.72304 198.02772,547.23985 L 198.02772,547.23985 z M 261.64631,574.83345 L 261.64631,570.6854 L 261.42087,570.6854 C 259.52717,573.81147 255.6797,575.3745 249.87845,575.3745 C 244.64828,575.3745 240.5904,574.01436 237.7048,571.29408 C 234.81919,568.5738 233.37639,565.16969 233.37639,561.08174 C 233.37639,557.38457 234.65387,554.1533 237.20884,551.3879 C 239.76379,548.62256 243.56617,547.23987 248.616,547.23985 L 261.64631,547.23985 L 261.64631,542.37039 C 261.64628,538.37266 258.44507,536.37377 252.04265,536.37374 C 247.594,536.37377 244.63325,537.56108 243.1604,539.93566 L 235.76603,534.34479 C 239.04239,529.77596 244.3026,527.49153 251.54669,527.49148 C 257.31788,527.49153 262.00698,528.61872 265.61402,530.87305 C 269.22099,533.12747 271.02449,537.14026 271.02453,542.91144 L 271.02453,574.83345 L 261.64631,574.83345 z M 261.64631,558.42157 L 261.64631,554.99491 L 250.37441,554.99491 C 244.93383,554.99493 242.21355,556.87358 242.21356,560.63086 C 242.21355,562.22397 242.89738,563.60665 244.26504,564.77892 C 245.63269,565.95121 247.90961,566.53734 251.09582,566.53734 C 255.00338,566.53734 257.73869,566.1015 259.30176,565.2298 C 260.86476,564.35811 261.64628,562.08871 261.64631,558.42157 L 261.64631,558.42157 z M 257.18264,520.77343 L 257.18264,510.80907 L 267.147,510.80907 L 267.147,520.77343 L 257.18264,520.77343 z M 240.95111,520.77343 L 240.95111,510.80907 L 250.91546,510.80907 L 250.91546,520.77343 L 240.95111,520.77343 z M 283.24327,574.83345 L 283.24327,528.03253 L 292.66657,528.03253 L 292.66657,533.03725 L 292.84692,533.03725 C 295.76257,529.34012 299.82045,527.49153 305.02057,527.49148 C 308.65761,527.49153 312.16692,528.87421 315.54853,531.63954 C 318.93006,534.40495 320.62084,538.43277 320.62088,543.72301 L 320.62088,574.83345 L 311.19757,574.83345 L 311.19757,546.96932 C 311.19754,543.81322 310.31833,541.34843 308.55995,539.57495 C 306.8015,537.80155 304.61476,536.91482 301.99971,536.91479 C 299.29443,536.91482 297.06259,537.80155 295.3042,539.57495 C 293.54576,541.34843 292.66656,543.81322 292.66657,546.96932 L 292.66657,574.83345 L 283.24327,574.83345 z M 360.79393,574.83345 L 360.79393,569.96399 C 357.51754,573.571 353.48972,575.3745 348.71046,575.3745 C 345.82483,575.3745 343.34502,574.81091 341.27101,573.68372 C 339.19696,572.55653 337.49867,571.10622 336.17611,569.33277 C 334.85353,567.67956 333.96681,565.71825 333.51594,563.44884 C 333.06506,561.17944 332.83962,557.15913 332.83963,551.3879 C 332.83962,545.67684 333.06506,541.70162 333.51594,539.46224 C 333.96681,537.22292 334.85353,535.26161 336.17611,533.5783 C 337.49867,531.83496 339.19696,530.38464 341.27101,529.22735 C 343.34502,528.07015 345.82483,527.49153 348.71046,527.49148 C 351.11511,527.49153 353.29434,528.00252 355.24816,529.02446 C 357.20193,530.04649 359.05051,531.38409 360.79393,533.03725 L 360.79393,509.14083 L 370.21724,509.14083 L 370.21724,574.83345 L 360.79393,574.83345 z M 351.59606,536.91479 C 347.1474,536.91482 344.47972,538.43277 343.59302,541.46863 C 342.70628,544.50456 342.26292,547.81098 342.26293,551.3879 C 342.26292,555.05505 342.70628,558.40656 343.59302,561.44244 C 344.47972,564.47835 347.1474,565.99629 351.59606,565.99629 C 355.9545,565.99629 358.5771,564.41823 359.46385,561.26209 C 360.35054,558.10597 360.7939,554.81458 360.79393,551.3879 C 360.7939,548.05145 360.35054,544.80515 359.46385,541.64898 C 358.5771,538.49289 355.9545,536.91482 351.59606,536.91479 L 351.59606,536.91479 z M 417.06326,554.99491 L 387.93667,554.99491 C 387.93666,558.8424 388.98119,561.72801 391.07026,563.65173 C 393.1593,565.57548 395.82698,566.53734 399.07331,566.53734 C 402.95081,566.53734 406.37747,565.03443 409.35328,562.02858 L 416.16151,567.84488 C 413.84697,570.55014 411.23941,572.48139 408.33881,573.63863 C 405.43814,574.79588 402.40976,575.3745 399.25366,575.3745 C 394.44429,575.3745 389.78525,573.81898 385.2765,570.70794 C 380.76774,567.5969 378.51336,561.23204 378.51336,551.61334 C 378.51336,542.50568 380.5949,536.20845 384.758,532.72164 C 388.92107,529.23491 393.27202,527.49153 397.81085,527.49148 C 402.95081,527.49153 407.44454,529.27248 411.29204,532.83436 C 415.13948,536.39632 417.06321,541.19814 417.06326,547.23985 L 417.06326,554.99491 z M 387.93667,547.23985 L 407.68504,547.23985 C 407.53471,543.72304 406.54279,541.03282 404.70926,539.16917 C 402.87567,537.30558 400.5762,536.37377 397.81085,536.37374 C 395.0154,536.37377 392.69339,537.30558 390.84482,539.16917 C 388.99621,541.03282 388.02683,543.72304 387.93667,547.23985 L 387.93667,547.23985 z M 426.98252,574.83345 L 426.98252,528.03253 L 436.40583,528.03253 L 436.40583,533.03725 L 436.58618,533.03725 C 439.50183,529.34012 443.55971,527.49153 448.75983,527.49148 C 452.18646,527.49153 455.44779,528.69386 458.54384,531.09849 L 451.73561,539.21425 C 449.69161,537.68131 447.61759,536.91482 445.51353,536.91479 C 443.19901,536.91482 441.10244,537.68883 439.22381,539.2368 C 437.34514,540.78484 436.40582,543.27217 436.40583,546.69879 L 436.40583,574.83345 L 426.98252,574.83345 z M 463.41332,528.03253 L 463.41332,513.82994 L 472.83662,513.82994 L 472.83662,528.03253 L 479.68994,528.03253 L 479.68994,535.24655 L 472.83662,535.24655 L 472.83662,562.47945 C 472.83661,564.82402 473.94877,565.99629 476.1731,565.99629 L 479.68994,565.99629 L 479.68994,574.83345 L 474.77539,574.83345 C 471.49901,574.83345 468.78624,573.84153 466.63708,571.85767 C 464.48789,569.87382 463.41331,567.03331 463.41332,563.33612 L 463.41332,535.24655 L 458.72421,535.24655 L 458.72421,528.03253 L 463.41332,528.03253 z "
       style="font-size:92.33939362px;font-style:normal;font-variant:normal;font-weight:normal;font-stretch:normal;text-indent:0;text-align:center;text-decoration:none;line-height:100%;letter-spacing:normal;word-spacing:normal;text-transform:none;direction:ltr;block-progression:tb;writing-mode:lr-tb;text-anchor:middle;color:black;fill:black;fill-opacity:1;fill-rule:nonzero;stroke:none;stroke-width:1;stroke-linecap:round;stroke-linejoin:miter;marker:none;marker-start:none;marker-mid:none;marker-end:none;stroke-miterlimit:4;stroke-dashoffset:0;stroke-opacity:1;visibility:visible;display:inline;overflow:visible;font-family:DIN 1451 Mittelschrift" />
  </g>
</svg>
