<?xml version="1.0" encoding="UTF-8" standalone="no"?>
<!-- Created with Inkscape (http://www.inkscape.org/) -->
<svg
   xmlns:svg="http://www.w3.org/2000/svg"
   xmlns="http://www.w3.org/2000/svg"
   version="1.0"
   width="490"
   height="270"
   id="svg2">
  <defs
     id="defs4" />
  <path
     d="M 38.75,4.75 C 20.325639,4.7499998 9.9375,11.885785 9.9375,32.96875 L 9.625,236.5625 C 9.625,257.64547 20.013141,264.78126 38.4375,264.78125 L 451.1875,264.75 C 469.61186,264.75 479.99999,257.61421 480,236.53125 L 480.3125,33 C 480.3125,11.917035 469.92436,4.7812498 451.5,4.78125 L 38.75,4.75 z "
     style="fill:white;fill-opacity:1;fill-rule:evenodd;stroke:black;stroke-width:2;stroke-linecap:butt;stroke-linejoin:miter;stroke-miterlimit:4;stroke-dasharray:none;stroke-opacity:1"
     id="path1892" />
  <path
     d="M 453.28125,17.5625 L 36.75,17.59375 C 28.325749,17.59375 23.375,23.59476 23.375,32.46875 L 23.375,237.125 C 23.374999,245.99898 28.32576,252 36.75,252 L 453.25,251.96875 C 461.67424,251.96874 466.625,245.96774 466.625,237.09375 L 466.625,32.4375 C 466.625,23.56351 461.70549,17.5625 453.28125,17.5625 z "
     style="fill:none;fill-opacity:1;fill-rule:evenodd;stroke:black;stroke-width:10.05090809;stroke-linecap:butt;stroke-linejoin:miter;stroke-miterlimit:4;stroke-dasharray:none;stroke-opacity:1"
     id="path3976" />
  <path
     d="M 93.912247,189.76374 L 93.912247,175.39786 L 135.69057,123.13831 C 137.30302,121.08611 138.35358,119.20487 138.84227,117.49457 C 139.33085,115.78442 139.57517,114.12306 139.57522,112.51049 C 139.57517,108.79694 138.25586,105.33985 135.61727,102.13921 C 132.9786,98.938735 129.38713,97.338456 124.84286,97.338364 C 120.68943,97.338456 117.13461,98.718849 114.1784,101.47955 C 111.22213,104.24042 109.57299,108.01513 109.23097,112.80367 L 93.912247,112.80367 C 93.961105,104.15491 96.917346,96.862037 102.78098,90.925025 C 108.64458,84.98821 115.60763,82.019753 123.67014,82.019645 C 132.56326,82.019753 139.97829,85.012642 145.91526,90.99832 C 151.85212,96.984196 154.82058,104.20378 154.82064,112.65708 C 154.82058,119.88895 152.69502,126.14348 148.44395,131.42068 L 114.06846,174.51832 L 154.82064,174.51832 L 154.82064,189.76374 L 93.912247,189.76374 z M 207.22679,189.76374 L 207.22679,82.972484 L 222.5455,82.972484 L 222.5455,149.45132 L 222.83869,149.45132 L 252.08351,113.68322 L 270.40734,113.68322 L 244.16762,143.44111 L 273.99881,189.76374 L 254.79544,189.76374 L 234.56593,154.21552 L 222.5455,167.92174 L 222.5455,189.76374 L 207.22679,189.76374 z M 286.09254,189.76374 L 286.09254,113.68322 L 301.41125,113.68322 L 301.41125,121.81899 L 301.70444,121.81899 C 306.54189,115.80885 313.13846,112.80375 321.49417,112.80367 C 326.82024,112.80375 331.04693,113.75659 334.17425,115.66219 C 337.30146,117.56794 340.23327,119.91339 342.96969,122.69854 C 348.97983,116.10203 356.99344,112.80375 367.01055,112.80367 C 372.92294,112.80375 378.62775,115.05147 384.125,119.54684 C 389.62204,124.04235 392.37061,130.59006 392.37073,139.18998 L 392.37073,189.76374 L 377.05201,189.76374 L 377.05201,144.46724 C 377.0519,139.33662 375.61043,135.32982 372.72758,132.44681 C 369.84454,129.56393 366.27751,128.12245 362.02647,128.12239 C 357.62867,128.12245 354.00056,129.56393 351.14212,132.44681 C 348.28353,135.32982 346.85427,139.33662 346.85434,144.46724 L 346.85434,189.76374 L 331.60892,189.76374 L 331.60892,144.46724 C 331.60886,139.33662 330.16739,135.32982 327.2845,132.44681 C 324.4015,129.56393 320.83446,128.12245 316.58338,128.12239 C 312.18563,128.12245 308.55751,129.56393 305.69903,132.44681 C 302.84049,135.32982 301.41123,139.33662 301.41125,144.46724 L 301.41125,189.76374 L 286.09254,189.76374 z "
     style="font-size:150.10877991px;font-style:normal;font-variant:normal;font-weight:normal;font-stretch:normal;text-align:center;line-height:100%;writing-mode:lr-tb;text-anchor:middle;fill:black;fill-opacity:1;stroke:none;stroke-width:1px;stroke-linecap:butt;stroke-linejoin:miter;stroke-opacity:1;font-family:DIN 1451 Mittelschrift"
     id="text1881" />
</svg>
