<?xml version="1.0" encoding="UTF-8" standalone="no"?>
<!-- Created with Inkscape (http://www.inkscape.org/) -->

<svg
   xmlns:dc="http://purl.org/dc/elements/1.1/"
   xmlns:cc="http://creativecommons.org/ns#"
   xmlns:rdf="http://www.w3.org/1999/02/22-rdf-syntax-ns#"
   xmlns:svg="http://www.w3.org/2000/svg"
   xmlns="http://www.w3.org/2000/svg"
   version="1.0"
   width="480"
   height="712"
   id="svg2"
   style="display:inline">
  <metadata
     id="metadata10">
    <rdf:RDF>
      <cc:Work
         rdf:about="">
        <dc:format>image/svg+xml</dc:format>
        <dc:type
           rdf:resource="http://purl.org/dc/dcmitype/StillImage" />
        <dc:title></dc:title>
      </cc:Work>
    </rdf:RDF>
  </metadata>
  <defs
     id="defs4" />
  <path
     d="m 33.37,4.7 412.23,0 c 17.3,0.2 28.5,10.4 29.1,31.4 l 0,640.8 c 0.1,15.7 -9.1,29 -29.2,29.4 l -410.18,0 c -17.9,-0.4 -29.967,-16 -30.401,-31 L 5.519,34.2 C 5.519,24.1 13.94,4.7 33.37,4.7 z"
     id="path3669"
     style="fill:#ffffff;fill-opacity:1;fill-rule:evenodd;stroke:#000000;stroke-width:2.4482;stroke-linecap:butt;stroke-linejoin:miter;stroke-miterlimit:4;stroke-opacity:1;stroke-dasharray:none" />
  <path
     d="M 35.19,16 C 24.71,16 17.1,27.3 17.16,35.5 l 0,638.1 c 0,13.2 8.99,21.2 19.78,21.2 l 407.16,0 c 9.6,0 18.9,-8.3 18.9,-19.2 l 0.3,-640 C 463.3,21.9 451.2,15.9 444.7,15.9 308.2,15.7 171.7,16.4 35.19,16 z"
     id="path3661"
     style="fill:#154889;fill-opacity:1;fill-rule:evenodd;stroke:none" />
  <path
     d="m 84.59,81.5 0,228.8 143.81,0 0,51.4 -98.7,0 0,74.5 79.3,0 0,261.5 62.2,0 -0.1,-261.5 79.3,0 -0.1,-74.5 -98.7,0 0,-51.4 143.8,0 0,-228.8 -310.81,0 z"
     id="path1883"
     style="fill:#ffffff;fill-opacity:1;fill-rule:evenodd;stroke:none" />
  <path
     d="m 136.5,368.5 207,0 0,60.2 -207,0 0,-60.2 z"
     id="path1885"
     style="fill:#cc0000;fill-opacity:1;fill-rule:evenodd;stroke:none" />
  <g
     transform="matrix(0.2492,0,0,0.2492,189.7,97.55)"
     id="g3024"
     style="display:inline">
    <circle
       cx="188"
       cy="105"
       r="56"
       id="circle3009"
       style="fill:#000000;stroke:none" />
    <path
       d="M 22,427 C 173.7,190.3 159.3,183.7 216,182 c 33,1 34,10 90,54 69,50.7 64,51.3 63,107 -0.3,67 4.3,62 -49,87 l 0,-113 -47,-42 0,159 -112,-1 -1,-126 C 68,449 74,441 22,427 z"
       id="path3011"
       style="fill:#000000;stroke:none" />
    <path
       d="m 163,450 109,0 c 0,25 8,23 66,132 61,112.3 62,104.7 27,169 L 214,480 C 71,756.7 89,748.3 10,743 L 89,595 c 67.7,-122.3 71.3,-122.7 74,-145 z"
       id="path3013"
       style="fill:#000000;stroke:none" />
  </g>
</svg>
