<?xml version="1.0" encoding="UTF-8" standalone="no"?>
<!-- Created with Inkscape (http://www.inkscape.org/) -->

<svg
   xmlns:dc="http://purl.org/dc/elements/1.1/"
   xmlns:cc="http://creativecommons.org/ns#"
   xmlns:rdf="http://www.w3.org/1999/02/22-rdf-syntax-ns#"
   xmlns:svg="http://www.w3.org/2000/svg"
   xmlns="http://www.w3.org/2000/svg"
   xmlns:sodipodi="http://sodipodi.sourceforge.net/DTD/sodipodi-0.dtd"
   xmlns:inkscape="http://www.inkscape.org/namespaces/inkscape"
   version="1.0"
   width="1575"
   height="450"
   id="svg2"
   inkscape:version="0.48.1 r9760"
   sodipodi:docname="Zeichen_386.2.svg">
  <metadata
     id="metadata28">
    <rdf:RDF>
      <cc:Work
         rdf:about="">
        <dc:format>image/svg+xml</dc:format>
        <dc:type
           rdf:resource="http://purl.org/dc/dcmitype/StillImage" />
      </cc:Work>
    </rdf:RDF>
  </metadata>
  <sodipodi:namedview
     pagecolor="#ffffff"
     bordercolor="#666666"
     borderopacity="1"
     objecttolerance="10"
     gridtolerance="10"
     guidetolerance="10"
     inkscape:pageopacity="0"
     inkscape:pageshadow="2"
     inkscape:window-width="1920"
     inkscape:window-height="1032"
     id="namedview26"
     showgrid="false"
     inkscape:zoom="0.13150971"
     inkscape:cx="1930.4962"
     inkscape:cy="708.85142"
     inkscape:window-x="0"
     inkscape:window-y="0"
     inkscape:window-maximized="0"
     inkscape:current-layer="svg2" />
  <defs
     id="defs4" />
  <g
     transform="matrix(1.6235795,0,0,1.3701911,-0.91602807,-1.2791)"
     id="g3614">
    <path
       d="m 35.240415,2.8457183 903.601965,0 C 951.62286,3.6979496 968.591,10.643118 968.56262,25.775909 L 967.94077,295.3929 c 0.10154,7.06414 -6.38392,32.41941 -33.71478,32.87982 L 36.512619,327.33994 c -26.618724,0 -35.2789202,-13.19779 -34.657068,-33.08492 L 2.147477,32.821374 c 0,-9.250586 -0.3506189,-29.9756557 33.092938,-29.9756557 z"
       id="path3669"
       style="fill:#ffffff;fill-opacity:1;fill-rule:evenodd;stroke:#000000;stroke-width:2.36590981;stroke-linecap:butt;stroke-linejoin:miter;stroke-miterlimit:4;stroke-opacity:1;stroke-dasharray:none"
       inkscape:connector-curvature="0" />
    <path
       d="M 37.718328,17.156442 C 23.907978,16.500941 16.343642,20.944484 17.2715,32.034799 l 0,270.406531 c 0.09774,5.79996 6.584021,12.76165 17.080484,12.59179 l 904.361166,0.29003 c 7.07628,0.16986 14.56095,-7.10277 14.65868,-12.90274 l 0,-271.982065 c -0.005,-8.913834 -4.7709,-13.046453 -16.71571,-13.634654 L 37.718328,17.156442 z"
       id="path3661"
       style="fill:#633a34;fill-opacity:1;fill-rule:evenodd;stroke:none"
       inkscape:connector-curvature="0" />
  </g>
  <g
     transform="translate(346.08899,0.4759)"
     id="text2860"
     style="font-size:152px;font-style:normal;font-variant:normal;font-weight:bold;font-stretch:normal;text-align:start;line-height:108.00000429%;writing-mode:lr-tb;text-anchor:start;fill:#fffffe;fill-opacity:1;stroke:none;font-family:Arial;-inkscape-font-specification:Arial Bold">
    <path
       d="m 156.41132,196.26799 0,-108.136719 37.85156,0 c 14.79421,1.08e-4 25.77857,6.0613 32.95312,18.183599 2.67179,4.60164 4.3046,8.90633 4.89844,12.91406 0.59366,4.00788 0.89054,11.67715 0.89063,23.00781 -9e-5,12.17192 -0.40829,20.29886 -1.22461,24.38086 -0.8165,4.08206 -2.43694,8.00328 -4.86133,11.76367 -3.21623,5.04689 -7.63224,9.28972 -13.24805,12.72852 -5.61595,3.4388 -12.4317,5.1582 -20.44726,5.1582 z m 16.40234,-92.625 0,77.1875 19.66797,0 c 9.00515,2e-5 15.68483,-3.14191 20.03906,-9.42578 1.78118,-2.72133 2.90683,-5.65297 3.37695,-8.79492 0.46998,-3.14189 0.70501,-9.73499 0.70508,-19.7793 -7e-5,-9.69785 -0.25983,-16.40227 -0.77929,-20.11328 -0.51961,-3.71086 -1.86791,-7.0507 -4.04493,-10.01953 -4.50266,-6.03637 -10.93495,-9.0546 -19.29687,-9.05469 z"
       id="path2831"
       style="font-size:152px;text-align:start;line-height:108.00000429%;writing-mode:lr-tb;text-anchor:start;font-family:DIN 1451 Mittelschrift;-inkscape-font-specification:DIN 1451 Mittelschrift"
       inkscape:connector-curvature="0" />
    <path
       d="m 310.63788,163.61174 -47.94531,0 c -3e-5,6.33336 1.71937,11.08335 5.1582,14.25 3.43877,3.16668 7.83004,4.75001 13.17383,4.75 6.38276,1e-5 12.02338,-2.47394 16.92187,-7.42187 l 11.20703,9.57421 c -3.80996,4.45314 -8.10227,7.63217 -12.87695,9.53711 -4.77479,1.90495 -9.75981,2.85742 -14.95508,2.85743 -7.9167,-1e-5 -15.58596,-2.56055 -23.00781,-7.68165 -7.42189,-5.12108 -11.13282,-15.59828 -11.13281,-31.43164 -1e-5,-14.99213 3.42642,-25.35801 10.27929,-31.09765 6.85285,-5.73951 14.01495,-8.6093 21.48633,-8.60938 8.46089,8e-5 15.85802,2.93172 22.19141,8.79492 6.33327,5.86335 9.49993,13.76764 9.5,23.7129 z m -47.94531,-12.76562 32.50781,0 c -0.24745,-5.78902 -1.88026,-10.2174 -4.89844,-13.28516 -3.01827,-3.06765 -6.80343,-4.6015 -11.35547,-4.60156 -4.60159,6e-5 -8.42386,1.53391 -11.46679,4.60156 -3.043,3.06776 -4.6387,7.49614 -4.78711,13.28516 z"
       id="path2833"
       style="font-size:152px;text-align:start;line-height:108.00000429%;writing-mode:lr-tb;text-anchor:start;font-family:DIN 1451 Mittelschrift;-inkscape-font-specification:DIN 1451 Mittelschrift"
       inkscape:connector-curvature="0" />
    <path
       d="m 326.966,170.43987 0,-51.21094 15.51172,0 0,45.9414 c -2e-5,5.24482 1.44724,9.31448 4.3418,12.20899 2.8945,2.89455 6.56832,4.34181 11.02148,4.3418 4.30465,10e-6 7.90425,-1.44725 10.79883,-4.3418 2.89448,-2.89451 4.34174,-6.96417 4.3418,-12.20899 l 0,-45.9414 15.51172,0 0,77.03906 -15.51172,0 0,-8.16406 -0.29688,0 c -4.79953,6.03646 -11.42973,9.05468 -19.89062,9.05469 -6.08597,-1e-5 -11.91214,-2.26368 -17.47852,-6.79102 -5.56642,-4.52733 -8.34962,-11.16991 -8.34961,-19.92773 z"
       id="path2835"
       style="font-size:152px;text-align:start;line-height:108.00000429%;writing-mode:lr-tb;text-anchor:start;font-family:DIN 1451 Mittelschrift;-inkscape-font-specification:DIN 1451 Mittelschrift"
       inkscape:connector-curvature="0" />
    <path
       d="m 409.49725,119.22893 0,-23.378909 15.51172,0 0,23.378909 11.28125,0 0,11.875 -11.28125,0 0,44.82812 c -2e-5,3.85939 1.8307,5.78908 5.49219,5.78907 l 5.78906,0 0,14.54687 -8.08984,0 c -5.39326,0 -9.85875,-1.63281 -13.39649,-4.89844 -3.53777,-3.26561 -5.30665,-7.94139 -5.30664,-14.02734 l 0,-46.23828 -7.71875,0 0,-11.875 z"
       id="path2837"
       style="font-size:152px;text-align:start;line-height:108.00000429%;writing-mode:lr-tb;text-anchor:start;font-family:DIN 1451 Mittelschrift;-inkscape-font-specification:DIN 1451 Mittelschrift"
       inkscape:connector-curvature="0" />
    <path
       d="m 442.22772,183.42815 10.83594,-10.6875 c 6.72915,6.58074 14.81898,9.8711 24.26953,9.87109 4.40361,1e-5 8.04032,-0.82876 10.91016,-2.48633 2.86974,-1.65753 4.30463,-4.11912 4.30468,-7.38476 -5e-5,-4.50258 -3.14197,-7.02601 -9.42578,-7.57032 L 469.466,163.90862 c -6.38283,-0.49476 -11.6771,-2.59763 -15.88281,-6.3086 -4.20574,-3.71089 -6.3086,-8.88146 -6.30859,-15.51172 -1e-5,-7.81764 2.74608,-13.7304 8.23828,-17.73828 5.49217,-4.00774 12.32028,-6.01164 20.48437,-6.01172 6.72913,8e-5 12.49345,0.95255 17.29297,2.85742 4.79942,1.90503 9.10411,4.44083 12.91406,7.60743 l -9.57421,11.28125 c -3.06777,-2.07807 -6.23443,-3.7851 -9.5,-5.1211 -3.26567,-1.33587 -6.97661,-2.00384 -11.13282,-2.0039 -4.94794,6e-5 -8.38674,0.87831 -10.3164,2.63476 -1.92971,1.75657 -2.89456,3.97076 -2.89453,6.64258 -3e-5,1.68234 0.71742,3.24094 2.15234,4.67578 1.43487,1.43495 4.10674,2.30083 8.01562,2.59766 l 12.76563,0.89062 c 7.96609,0.54432 13.68093,3.0059 17.14453,7.38477 3.46348,4.37894 5.19525,9.61136 5.19531,15.69726 -6e-5,7.57033 -3.09251,13.40887 -9.27734,17.51563 -6.18495,4.10677 -13.73051,6.16015 -22.63672,6.16016 -12.81513,-1e-5 -24.1211,-4.57682 -33.91797,-13.73047 z"
       id="path2839"
       style="font-size:152px;text-align:start;line-height:108.00000429%;writing-mode:lr-tb;text-anchor:start;font-family:DIN 1451 Mittelschrift;-inkscape-font-specification:DIN 1451 Mittelschrift"
       inkscape:connector-curvature="0" />
    <path
       d="m 569.06757,173.63127 11.42968,10.24219 c -3.36464,3.85938 -7.36008,7.03842 -11.98632,9.53711 -4.62636,2.4987 -9.85877,3.74804 -15.69727,3.74805 -8.90628,-1e-5 -16.95901,-3.0306 -24.1582,-9.0918 -7.19923,-6.06119 -10.79884,-16.14256 -10.79883,-30.24414 -10e-6,-14.10151 3.5996,-24.20762 10.79883,-30.31836 7.19919,-6.1106 15.25192,-9.16594 24.1582,-9.16602 5.8385,8e-5 11.07091,1.2618 15.69727,3.78516 4.62624,2.52351 8.62168,5.71491 11.98632,9.57422 l -11.42968,10.16797 c -4.35422,-5.34369 -9.57427,-8.01557 -15.66016,-8.01563 -13.3594,6e-5 -20.03908,7.99094 -20.03906,23.97266 -2e-5,15.93231 6.67966,23.89845 20.03906,23.89844 6.13537,10e-6 11.35542,-2.6966 15.66016,-8.08985 z"
       id="path2841"
       style="font-size:152px;text-align:start;line-height:108.00000429%;writing-mode:lr-tb;text-anchor:start;font-family:DIN 1451 Mittelschrift;-inkscape-font-specification:DIN 1451 Mittelschrift"
       inkscape:connector-curvature="0" />
    <path
       d="m 591.18475,196.26799 0,-108.136719 15.51172,0 0,39.335939 0.29688,0 c 4.79945,-6.08586 11.47913,-9.12883 20.03906,-9.12891 5.98693,8e-5 11.76361,2.27612 17.33008,6.82813 5.56634,4.55215 8.34954,11.18235 8.34961,19.89062 l 0,51.21094 -15.51172,0 0,-45.86719 c -6e-5,-5.19526 -1.44732,-9.25255 -4.3418,-12.17187 -2.89458,-2.91921 -6.49418,-4.37885 -10.79883,-4.37891 -4.45316,6e-5 -8.12698,1.4597 -11.02148,4.37891 -2.89456,2.91932 -4.34182,6.97661 -4.3418,12.17187 l 0,45.86719 z"
       id="path2843"
       style="font-size:152px;text-align:start;line-height:108.00000429%;writing-mode:lr-tb;text-anchor:start;font-family:DIN 1451 Mittelschrift;-inkscape-font-specification:DIN 1451 Mittelschrift"
       inkscape:connector-curvature="0" />
    <path
       d="m 732.49725,163.61174 -47.94531,0 c -2e-5,6.33336 1.71938,11.08335 5.1582,14.25 3.43878,3.16668 7.83005,4.75001 13.17383,4.75 6.38277,1e-5 12.02339,-2.47394 16.92188,-7.42187 l 11.20703,9.57421 c -3.80996,4.45314 -8.10228,7.63217 -12.87695,9.53711 -4.77479,1.90495 -9.75982,2.85742 -14.95508,2.85743 -7.9167,-1e-5 -15.58597,-2.56055 -23.00782,-7.68165 -7.42188,-5.12108 -11.13281,-15.59828 -11.13281,-31.43164 0,-14.99213 3.42642,-25.35801 10.2793,-31.09765 6.85284,-5.73951 14.01494,-8.6093 21.48633,-8.60938 8.46089,8e-5 15.85802,2.93172 22.1914,8.79492 6.33327,5.86335 9.49993,13.76764 9.5,23.7129 z m -47.94531,-12.76562 32.50781,0 c -0.24745,-5.78902 -1.88026,-10.2174 -4.89843,-13.28516 -3.01828,-3.06765 -6.80343,-4.6015 -11.35547,-4.60156 -4.6016,6e-5 -8.42386,1.53391 -11.4668,4.60156 -3.04299,3.06776 -4.63869,7.49614 -4.78711,13.28516 z"
       id="path2845"
       style="font-size:152px;text-align:start;line-height:108.00000429%;writing-mode:lr-tb;text-anchor:start;font-family:DIN 1451 Mittelschrift;-inkscape-font-specification:DIN 1451 Mittelschrift"
       inkscape:connector-curvature="0" />
    <path
       d="m 106.38788,360.42798 -27.089845,-108.13672 17.367187,0 16.996098,76.89062 0.29687,0 21.00391,-76.89062 11.80078,0 21.0039,76.89062 0.29688,0 16.99609,-76.89062 17.36719,0 -27.08984,108.13672 -13.65625,0 -20.70703,-77.92969 -0.29688,0 -20.63281,77.92969 z"
       id="path2847"
       style="font-size:152px;text-align:start;line-height:108.00000429%;writing-mode:lr-tb;text-anchor:start;font-family:DIN 1451 Mittelschrift;-inkscape-font-specification:DIN 1451 Mittelschrift"
       inkscape:connector-curvature="0" />
    <path
       d="m 273.82538,327.77173 -47.94531,0 c -3e-5,6.33336 1.71937,11.08335 5.1582,14.25 3.43877,3.16668 7.83004,4.75001 13.17383,4.75 6.38276,1e-5 12.02338,-2.47394 16.92187,-7.42188 l 11.20703,9.57422 c -3.80996,4.45313 -8.10227,7.63217 -12.87695,9.53711 -4.77479,1.90495 -9.75981,2.85742 -14.95508,2.85742 -7.9167,0 -15.58596,-2.56054 -23.00781,-7.68164 -7.42189,-5.12108 -11.13282,-15.59828 -11.13281,-31.43164 -1e-5,-14.99213 3.42642,-25.35801 10.27929,-31.09765 6.85285,-5.73951 14.01495,-8.6093 21.48633,-8.60938 8.46089,8e-5 15.85802,2.93172 22.19141,8.79492 6.33327,5.86335 9.49993,13.76764 9.5,23.71289 z m -47.94531,-12.76563 32.50781,0 c -0.24745,-5.78901 -1.88026,-10.21739 -4.89844,-13.28515 -3.01827,-3.06765 -6.80343,-4.6015 -11.35547,-4.60157 -4.60159,7e-5 -8.42386,1.53392 -11.46679,4.60157 -3.043,3.06776 -4.6387,7.49614 -4.78711,13.28515 z"
       id="path2849"
       style="font-size:152px;text-align:start;line-height:108.00000429%;writing-mode:lr-tb;text-anchor:start;font-family:DIN 1451 Mittelschrift;-inkscape-font-specification:DIN 1451 Mittelschrift"
       inkscape:connector-curvature="0" />
    <path
       d="m 290.59882,360.42798 0,-77.03906 15.51171,0 0,77.03906 z m 0,-92.625 0,-15.51172 15.51171,0 0,15.51172 z"
       id="path2851"
       style="font-size:152px;text-align:start;line-height:108.00000429%;writing-mode:lr-tb;text-anchor:start;font-family:DIN 1451 Mittelschrift;-inkscape-font-specification:DIN 1451 Mittelschrift"
       inkscape:connector-curvature="0" />
    <path
       d="m 326.66913,360.42798 0,-77.03906 15.51172,0 0,8.23828 0.29687,0 c 4.79945,-6.08587 11.47913,-9.12883 20.03906,-9.12891 5.98693,8e-5 11.76362,2.27612 17.33008,6.82813 5.56634,4.55215 8.34954,11.18235 8.34961,19.89062 l 0,51.21094 -15.51172,0 0,-45.86719 c -5e-5,-5.19526 -1.44732,-9.25255 -4.34179,-12.17187 -2.89458,-2.91921 -6.49419,-4.37885 -10.79883,-4.37891 -4.45316,6e-5 -8.12699,1.4597 -11.02149,4.37891 -2.89455,2.91932 -4.34182,6.97661 -4.34179,12.17187 l 0,45.86719 z"
       id="path2853"
       style="font-size:152px;text-align:start;line-height:108.00000429%;writing-mode:lr-tb;text-anchor:start;font-family:DIN 1451 Mittelschrift;-inkscape-font-specification:DIN 1451 Mittelschrift"
       inkscape:connector-curvature="0" />
    <path
       d="m 399.7746,347.58813 10.83593,-10.6875 c 6.72915,6.58075 14.81899,9.87111 24.26954,9.8711 4.4036,1e-5 8.04032,-0.82876 10.91015,-2.48633 2.86974,-1.65753 4.30464,-4.11912 4.30469,-7.38477 -5e-5,-4.50257 -3.14198,-7.02601 -9.42578,-7.57031 l -13.65625,-1.26172 c -6.38284,-0.49476 -11.6771,-2.59762 -15.88281,-6.30859 -4.20574,-3.7109 -6.3086,-8.88146 -6.3086,-15.51172 0,-7.81765 2.74609,-13.7304 8.23828,-17.73828 5.49217,-4.00774 12.32029,-6.01164 20.48438,-6.01172 6.72912,8e-5 12.49344,0.95255 17.29297,2.85742 4.79942,1.90502 9.1041,4.44083 12.91406,7.60742 l -9.57422,11.28125 c -3.06776,-2.07806 -6.23442,-3.78509 -9.5,-5.12109 -3.26567,-1.33587 -6.9766,-2.00384 -11.13281,-2.00391 -4.94795,7e-5 -8.38675,0.87832 -10.31641,2.63477 -1.92971,1.75657 -2.89455,3.97076 -2.89453,6.64258 -2e-5,1.68234 0.71743,3.24093 2.15234,4.67578 1.43487,1.43494 4.10675,2.30083 8.01563,2.59766 l 12.76562,0.89062 c 7.9661,0.54432 13.68094,3.0059 17.14454,7.38477 3.46347,4.37894 5.19524,9.61135 5.19531,15.69726 -7e-5,7.57033 -3.09251,13.40887 -9.27735,17.51563 -6.18494,4.10677 -13.73051,6.16015 -22.63671,6.16015 -12.81513,0 -24.12111,-4.57682 -33.91797,-13.73047 z"
       id="path2855"
       style="font-size:152px;text-align:start;line-height:108.00000429%;writing-mode:lr-tb;text-anchor:start;font-family:DIN 1451 Mittelschrift;-inkscape-font-specification:DIN 1451 Mittelschrift"
       inkscape:connector-curvature="0" />
    <path
       d="m 482.23163,283.38892 0,-23.37891 15.51172,0 0,23.37891 11.28125,0 0,11.875 -11.28125,0 0,44.82812 c -3e-5,3.85939 1.8307,5.78908 5.49218,5.78906 l 5.78907,0 0,14.54688 -8.08985,0 c -5.39325,0 -9.85874,-1.63281 -13.39648,-4.89844 -3.53777,-3.26562 -5.30665,-7.94139 -5.30664,-14.02734 l 0,-46.23828 -7.71875,0 0,-11.875 z"
       id="path2857"
       style="font-size:152px;text-align:start;line-height:108.00000429%;writing-mode:lr-tb;text-anchor:start;font-family:DIN 1451 Mittelschrift;-inkscape-font-specification:DIN 1451 Mittelschrift"
       inkscape:connector-curvature="0" />
    <path
       d="m 523.49725,360.42798 0,-77.03906 15.51172,0 0,8.23828 0.29688,0 c 4.79945,-6.08587 11.47913,-9.12883 20.03906,-9.12891 5.64057,8e-5 11.00906,1.97924 16.10547,5.9375 l -11.20703,13.35938 c -3.36463,-2.52338 -6.77869,-3.7851 -10.24219,-3.78516 -3.80993,6e-5 -7.2611,1.27415 -10.35352,3.82227 -3.09247,2.54823 -4.63869,6.64263 -4.63867,12.2832 l 0,46.3125 z"
       id="path2859"
       style="font-size:152px;text-align:start;line-height:108.00000429%;writing-mode:lr-tb;text-anchor:start;font-family:DIN 1451 Mittelschrift;-inkscape-font-specification:DIN 1451 Mittelschrift"
       inkscape:connector-curvature="0" />
    <path
       d="m 623.39569,360.72485 0,-6.82812 -0.29687,0 c -1.43495,2.67188 -3.58729,4.60156 -6.45704,5.78906 -3.06774,1.28646 -7.07555,1.92969 -12.02343,1.92969 -8.51044,-0.19792 -14.94273,-2.47396 -19.29688,-6.82813 -4.75001,-4.35415 -7.125,-9.92055 -7.125,-16.69922 0,-6.43226 2.05338,-11.82548 6.16016,-16.17968 4.10675,-4.35413 10.16795,-6.58069 18.18359,-6.67969 l 20.85547,0 0,-8.16406 c 0.0494,-6.82807 -5.07166,-10.14317 -15.36328,-9.94532 -3.56253,7e-5 -6.53128,0.3959 -8.90625,1.1875 -2.32555,1.03913 -4.08205,2.6472 -5.26953,4.82422 l -11.875,-9.35156 c 5.73957,-7.6692 14.17576,-11.40487 25.30859,-11.20703 9.35152,-0.0989 16.87235,1.73185 22.5625,5.49219 5.59108,3.90892 8.43613,10.53912 8.53516,19.89062 l 0,52.76953 z m 0,-27.08984 0,-5.64063 -18.03516,0 c -8.80731,0.24743 -13.16147,3.36462 -13.0625,9.35157 -2e-5,2.57293 1.138,4.79949 3.41407,6.67968 2.17706,2.02866 5.76429,3.04299 10.76172,3.04297 6.33329,0.099 10.78641,-0.66795 13.35937,-2.30078 2.37495,-1.63279 3.56245,-5.34373 3.5625,-11.13281 z"
       id="path2861"
       style="font-size:152px;text-align:start;line-height:108.00000429%;writing-mode:lr-tb;text-anchor:start;font-family:DIN 1451 Mittelschrift;-inkscape-font-specification:DIN 1451 Mittelschrift"
       inkscape:connector-curvature="0" />
    <path
       d="m 684.47772,301.79517 0,-14.54688 9.27735,0 c 5.44265,7e-5 8.164,-2.99341 8.16406,-8.98047 -6e-5,-3.95825 -0.79172,-6.70434 -2.375,-8.23828 -2.82037,-2.27595 -7.29823,-3.33975 -13.4336,-3.19141 -5.64066,0.14854 -9.56188,1.02679 -11.76367,2.63477 -2.20185,1.60816 -3.37698,3.97079 -3.52539,7.08789 l 0,83.86719 -15.51172,0 0,-83.86719 c -10e-6,-8.46084 3.05533,-14.7818 9.16602,-18.96289 6.11065,-4.18088 13.84176,-6.27137 23.19336,-6.27148 8.80724,1.1e-4 15.96934,2.33799 21.48633,7.01367 5.51685,4.67588 8.27532,10.89788 8.27539,18.66601 -7e-5,8.36206 -3.68627,14.10164 -11.0586,17.21875 7.37233,2.96882 11.05853,8.5847 11.0586,16.84766 l 0,27.53516 c -7e-5,6.03647 -1.96687,11.1823 -5.90039,15.4375 -3.93366,4.25521 -9.09186,6.38281 -15.47461,6.38281 l -9.57422,0 0,-14.54688 5.41797,0 c 6.67963,2e-5 10.01947,-2.69659 10.01953,-8.08984 l 0,-27.01563 c -6e-5,-5.98692 -2.82037,-8.98041 -8.46094,-8.98046 z"
       id="path2863"
       style="font-size:152px;text-align:start;line-height:108.00000429%;writing-mode:lr-tb;text-anchor:start;font-family:DIN 1451 Mittelschrift;-inkscape-font-specification:DIN 1451 Mittelschrift"
       inkscape:connector-curvature="0" />
    <path
       d="m 796.91913,327.77173 -47.94531,0 c -3e-5,6.33336 1.71937,11.08335 5.1582,14.25 3.43877,3.16668 7.83004,4.75001 13.17383,4.75 6.38276,1e-5 12.02338,-2.47394 16.92187,-7.42188 l 11.20703,9.57422 c -3.80996,4.45313 -8.10227,7.63217 -12.87695,9.53711 -4.77479,1.90495 -9.75981,2.85742 -14.95508,2.85742 -7.9167,0 -15.58596,-2.56054 -23.00781,-7.68164 -7.42189,-5.12108 -11.13282,-15.59828 -11.13281,-31.43164 -10e-6,-14.99213 3.42642,-25.35801 10.27929,-31.09765 6.85285,-5.73951 14.01495,-8.6093 21.48633,-8.60938 8.46089,8e-5 15.85802,2.93172 22.19141,8.79492 6.33327,5.86335 9.49993,13.76764 9.5,23.71289 z m -47.94531,-12.76563 32.50781,0 c -0.24745,-5.78901 -1.88026,-10.21739 -4.89844,-13.28515 -3.01827,-3.06765 -6.80343,-4.6015 -11.35547,-4.60157 -4.60159,7e-5 -8.42386,1.53392 -11.46679,4.60157 -3.043,3.06776 -4.6387,7.49614 -4.78711,13.28515 z"
       id="path2865"
       style="font-size:152px;text-align:start;line-height:108.00000429%;writing-mode:lr-tb;text-anchor:start;font-family:DIN 1451 Mittelschrift;-inkscape-font-specification:DIN 1451 Mittelschrift"
       inkscape:connector-curvature="0" />
  </g>
</svg>
