<?xml version="1.0" encoding="UTF-8" standalone="no"?>
<!-- Created with Inkscape (http://www.inkscape.org/) -->
<svg
   xmlns:svg="http://www.w3.org/2000/svg"
   xmlns="http://www.w3.org/2000/svg"
   version="1.0"
   width="470"
   height="350"
   id="svg2">
  <defs
     id="defs4" />
  <path
     d="M 6.2532429,30.623855 L 5.5581584,319.98774 C 5.5581584,337.02898 21.5477,346.21515 31.465107,346.21515 L 438.66537,346.67854 C 447.87511,346.67854 464.14325,333.1815 464.14325,318.65457 L 464.14325,30.709354 C 464.14325,18.659564 455.76523,3.8960632 436.19682,3.5836648 L 33.132733,3.5836648 C 15.779349,3.2712664 6.2532429,18.091242 6.2532429,30.623855 z "
     style="fill:white;fill-opacity:1;fill-rule:evenodd;stroke:black;stroke-width:2;stroke-linecap:butt;stroke-linejoin:miter;stroke-miterlimit:4;stroke-dasharray:none;stroke-opacity:1"
     id="path1892" />
  <path
     d="M 194.19621,205.31209 C 197.26738,165.82411 192.02427,199.56436 221.1411,143.26718 C 241.97252,105.09485 223.56753,114.20194 312.66747,120.88464 C 391.70454,129.73007 376.77851,116.80457 391.11159,160.65851 C 408.94736,216.77877 409.77525,188.33809 406.40059,223.55939 C 402.02352,262.15724 417.22488,253.52794 297.26028,243.86893 C 178.47844,231.38934 191.61946,242.76433 194.19621,205.31209 z M 221.75277,169.45027 L 241.47132,133.3342 C 245.11956,126.93213 244.06032,127.8296 251.16734,128.44043 L 364.99026,138.83572 C 371.14994,139.42178 370.28256,138.93903 372.28316,145.05168 L 385.05403,183.91965 L 221.75277,169.45027 z M 203.59297,239.6545 L 234.0447,242.37041 C 230.45612,280.58649 233.81873,278.74453 217.19342,277.47269 C 197.42993,275.58851 200.37267,277.87 203.59297,239.6545 z M 360.35617,254.26252 L 390.85265,257.05103 C 387.14823,295.31647 390.17294,292.95549 372.90691,291.47949 C 355.08596,289.61021 357.09565,292.63705 360.35617,254.26252 z "
     style="fill:black;fill-opacity:1;fill-rule:evenodd;stroke:none"
     id="Car" />
  <path
     d="M 18.991947,40.699871 L 18.670565,311.41024 C 18.670565,326.94818 25.439636,333.4496 38.230956,333.4496 L 435.75145,332.93493 C 444.14875,332.93493 450.85945,328.12609 451.17184,317.37984 L 451.48424,34.529853 C 451.48424,23.543043 440.86814,15.732633 431.00148,15.732633 L 40.376273,16.045031 C 26.906072,16.045031 18.679549,24.899244 18.991947,40.699871 z "
     style="fill:none;fill-opacity:1;fill-rule:evenodd;stroke:black;stroke-width:10;stroke-linecap:butt;stroke-linejoin:miter;stroke-miterlimit:4;stroke-dasharray:none;stroke-opacity:1"
     id="path2766" />
  <path
     d="M 51.697279,278.68882 L 51.697279,305.93588 L 326.72466,305.98189 L 326.67865,278.5682 L 51.697279,278.68882 z "
     style="fill:black;fill-opacity:1;fill-rule:evenodd;stroke:none;stroke-width:1px;stroke-linecap:butt;stroke-linejoin:miter;stroke-opacity:1"
     id="path4538" />
  <path
     d="M 326.66833,279.57036 L 355.21904,279.60037 L 360.0964,290.91953 L 376.01684,296.9012 L 384.1151,293.86435 L 389.91271,292.39194 L 389.91271,289.26307 L 396.35451,282.9133 L 401.13984,283.18937 L 402.02844,279.69966 L 417.26809,279.6505 L 417.32548,304.85366 L 326.49615,305.31379"
     style="opacity:1;fill:none;fill-opacity:0.75;fill-rule:evenodd;stroke:black;stroke-width:2;stroke-linecap:butt;stroke-linejoin:miter;stroke-miterlimit:4;stroke-dasharray:none;stroke-opacity:1"
     id="path4542" />
  <path
     d="M 326.6081,287.23237 L 333.75062,285.60907 L 337.32188,291.34474 L 334.7246,296.5393 L 327.04098,297.6215"
     style="opacity:1;fill:none;fill-opacity:0.75;fill-rule:evenodd;stroke:black;stroke-width:2;stroke-linecap:butt;stroke-linejoin:miter;stroke-miterlimit:4;stroke-dasharray:none;stroke-opacity:1"
     id="path5429" />
  <path
     d="M 334.55911,296.89295 L 339.1505,301.0252 L 341.29315,297.96427 L 348.94546,297.96427 L 352.46553,294.44421 L 347.87414,293.67898 L 345.73149,290.46501 L 344.50712,288.62845 L 336.85481,290.61805"
     style="opacity:1;fill:none;fill-opacity:0.75;fill-rule:evenodd;stroke:black;stroke-width:2;stroke-linecap:butt;stroke-linejoin:miter;stroke-miterlimit:4;stroke-dasharray:none;stroke-opacity:1"
     id="path6316" />
  <path
     d="M 333.96706,285.39263 L 336.23968,283.01179 L 341.65068,283.98577 L 344.57262,288.42279"
     style="opacity:1;fill:none;fill-opacity:0.75;fill-rule:evenodd;stroke:black;stroke-width:2;stroke-linecap:butt;stroke-linejoin:miter;stroke-miterlimit:4;stroke-dasharray:none;stroke-opacity:1"
     id="path7203" />
  <path
     d="M 345.76304,289.82965 L 350.41651,285.60907"
     style="opacity:1;fill:none;fill-opacity:0.75;fill-rule:evenodd;stroke:black;stroke-width:2;stroke-linecap:butt;stroke-linejoin:miter;stroke-miterlimit:4;stroke-dasharray:none;stroke-opacity:1"
     id="path7205" />
  <path
     d="M 348.79321,280.52273 L 348.68499,283.12001 L 355.99506,291.03749 L 352.77548,294.10502"
     style="opacity:1;fill:none;fill-opacity:0.75;fill-rule:evenodd;stroke:black;stroke-width:2;stroke-linecap:butt;stroke-linejoin:miter;stroke-miterlimit:4;stroke-dasharray:none;stroke-opacity:1"
     id="path7207" />
  <path
     d="M 358.36546,288.94296 L 356.4175,290.56627"
     style="opacity:1;fill:none;fill-opacity:0.75;fill-rule:evenodd;stroke:black;stroke-width:2;stroke-linecap:butt;stroke-linejoin:miter;stroke-miterlimit:4;stroke-dasharray:none;stroke-opacity:1"
     id="path7209" />
  <path
     d="M 349.00965,297.94616 L 354.09599,298.27082 L 357.08423,304.78143"
     style="opacity:1;fill:none;fill-opacity:0.75;fill-rule:evenodd;stroke:black;stroke-width:2;stroke-linecap:butt;stroke-linejoin:miter;stroke-miterlimit:4;stroke-dasharray:none;stroke-opacity:1"
     id="path7211" />
  <path
     d="M 354.74531,299.02836 L 361.77961,299.35302"
     style="opacity:1;fill:none;fill-opacity:0.75;fill-rule:evenodd;stroke:black;stroke-width:2;stroke-linecap:butt;stroke-linejoin:miter;stroke-miterlimit:4;stroke-dasharray:none;stroke-opacity:1"
     id="path7213" />
  <path
     d="M 364.81675,293.34159 L 361.88783,299.35302 L 364.45023,302.74624 L 364.79582,304.8268"
     style="opacity:1;fill:none;fill-opacity:0.75;fill-rule:evenodd;stroke:black;stroke-width:2;stroke-linecap:butt;stroke-linejoin:miter;stroke-miterlimit:4;stroke-dasharray:none;stroke-opacity:1"
     id="path7215" />
  <path
     d="M 337.10544,304.43936 L 338.94166,301.39173"
     style="opacity:1;fill:none;fill-opacity:0.75;fill-rule:evenodd;stroke:black;stroke-width:2;stroke-linecap:butt;stroke-linejoin:miter;stroke-miterlimit:4;stroke-dasharray:none;stroke-opacity:1"
     id="path7217" />
  <path
     d="M 364.26867,302.4914 L 374.1167,301.62564 L 375.84822,297.0804"
     style="opacity:1;fill:none;fill-opacity:0.75;fill-rule:evenodd;stroke:black;stroke-width:2;stroke-linecap:butt;stroke-linejoin:miter;stroke-miterlimit:4;stroke-dasharray:none;stroke-opacity:1"
     id="path7219" />
  <path
     d="M 377.03864,304.33114 L 374.22492,301.62564"
     style="opacity:1;fill:none;fill-opacity:0.75;fill-rule:evenodd;stroke:black;stroke-width:2;stroke-linecap:butt;stroke-linejoin:miter;stroke-miterlimit:4;stroke-dasharray:none;stroke-opacity:1"
     id="path7221" />
  <path
     d="M 384.07294,294.3749 L 387.75242,300.11056 L 391.4319,300.65166 L 391.32368,304.43936"
     style="opacity:1;fill:none;fill-opacity:0.75;fill-rule:evenodd;stroke:black;stroke-width:2;stroke-linecap:butt;stroke-linejoin:miter;stroke-miterlimit:4;stroke-dasharray:none;stroke-opacity:1"
     id="path7223" />
  <path
     d="M 389.8086,292.42694 L 399.87307,290.69542 L 404.31009,295.13244 L 405.31288,301.45592 L 403.76899,304.00648"
     style="opacity:1;fill:none;fill-opacity:0.75;fill-rule:evenodd;stroke:black;stroke-width:2;stroke-linecap:butt;stroke-linejoin:miter;stroke-miterlimit:4;stroke-dasharray:none;stroke-opacity:1"
     id="path7225" />
  <path
     d="M 400.41417,283.55289 L 400.0498,290.85111"
     style="opacity:1;fill:none;fill-opacity:0.75;fill-rule:evenodd;stroke:black;stroke-width:2;stroke-linecap:butt;stroke-linejoin:miter;stroke-miterlimit:4;stroke-dasharray:none;stroke-opacity:1"
     id="path7227" />
  <path
     d="M 404.16917,294.45431 L 407.55669,293.2927 L 410.15397,288.63923 L 407.55669,284.95975 L 401.77744,283.31465"
     style="opacity:1;fill:none;fill-opacity:0.75;fill-rule:evenodd;stroke:black;stroke-width:2;stroke-linecap:butt;stroke-linejoin:miter;stroke-miterlimit:4;stroke-dasharray:none;stroke-opacity:1"
     id="path7229" />
  <path
     d="M 407.88135,280.52273 L 407.93897,285.34591"
     style="opacity:1;fill:none;fill-opacity:0.75;fill-rule:evenodd;stroke:black;stroke-width:2;stroke-linecap:butt;stroke-linejoin:miter;stroke-miterlimit:4;stroke-dasharray:none;stroke-opacity:1"
     id="path7231" />
  <path
     d="M 410.34861,288.52712 L 414.15811,287.12415 L 416.86361,287.34059"
     style="opacity:1;fill:none;fill-opacity:0.75;fill-rule:evenodd;stroke:black;stroke-width:2;stroke-linecap:butt;stroke-linejoin:miter;stroke-miterlimit:4;stroke-dasharray:none;stroke-opacity:1"
     id="path7233" />
  <path
     d="M 416.86361,301.51742 L 412.10193,300.54344 L 409.28821,299.2448 L 405.71695,300.8681"
     style="opacity:1;fill:none;fill-opacity:0.75;fill-rule:evenodd;stroke:black;stroke-width:2;stroke-linecap:butt;stroke-linejoin:miter;stroke-miterlimit:4;stroke-dasharray:none;stroke-opacity:1"
     id="path7235" />
  <path
     d="M 335.33587,280.07596 L 336.56462,283.10946"
     style="opacity:1;fill:none;fill-opacity:0.75;fill-rule:evenodd;stroke:black;stroke-width:2;stroke-linecap:butt;stroke-linejoin:miter;stroke-miterlimit:4;stroke-dasharray:none;stroke-opacity:1"
     id="path8122" />
  <path
     d="M 341.63325,283.91583 L 343.39959,280.07596"
     style="opacity:1;fill:none;fill-opacity:0.75;fill-rule:evenodd;stroke:black;stroke-width:2;stroke-linecap:butt;stroke-linejoin:miter;stroke-miterlimit:4;stroke-dasharray:none;stroke-opacity:1"
     id="path8124" />
</svg>
