<svg xmlns="http://www.w3.org/2000/svg" viewBox="0 0 471.43 470.54"><g fill-rule="evenodd"><path d="m 26.763 1 h 420 c 10.816 0.791 23.07 11.844 23.666 24.865 v 418.81 c 0.05 10.319 -11.794 24.19 -25.16 24.865 h -419.41 c -13.02 0 -24.865 -11.557 -24.865 -25.16 l 0.599 -418.21 c 0 -13.512 8.803 -25.16 25.16 -25.16 z" fill="#fff" stroke="#000" stroke-width="2"/><path d="m 31.09 12.01 c -11.761 -0.515 -18.473 7.519 -18.03 20.375 v 406.41 c 0.047 8.667 3.728 19.07 15.688 19.281 l 414.44 -0.031 c 11.959 -0.211 15.672 -10.614 15.719 -19.281 v -406.44 c 0.442 -12.856 -6.271 -20.89 -18.03 -20.375 l -409.78 0.063 z" fill="#154889"/><path d="m 236.25 49.853 l -155.97 155.12 l -0.031 87.78 l 121.09 -120.66 v 248.62 h 69.813 v -248.62 l 121.09 120.66 v -87.78 l -156 -155.12 z" fill="#fff"/></g></svg>