<?xml version="1.0" encoding="UTF-8" standalone="no"?>
<!-- Created with Inkscape (http://www.inkscape.org/) -->

<svg
   xmlns:dc="http://purl.org/dc/elements/1.1/"
   xmlns:cc="http://creativecommons.org/ns#"
   xmlns:rdf="http://www.w3.org/1999/02/22-rdf-syntax-ns#"
   xmlns:svg="http://www.w3.org/2000/svg"
   xmlns="http://www.w3.org/2000/svg"
   version="1.1"
   width="833.79291"
   height="228.03822"
   id="svg366853"
   xml:space="preserve"><metadata
     id="metadata366859"><rdf:RDF><cc:Work
         rdf:about=""><dc:format>image/svg+xml</dc:format><dc:type
           rdf:resource="http://purl.org/dc/dcmitype/StillImage" /><dc:title></dc:title></cc:Work></rdf:RDF></metadata><defs
     id="defs366857" /><g
     transform="matrix(1.25,0,0,-1.25,0,228.03822)"
     id="g366861"><g
       id="g366863"><g
         transform="matrix(1,0,0,-1,0,182.43057)"
         id="g366865"><path
           d="m 13.223,0.801 508.254,0.222 c 8.652,0.633 139.117,77.438 139.117,77.438 7.601,6.437 7.441,19.516 0,25.289 0,0 -129.84,77.121 -140.535,77.66 L 16.043,181.629 C 8.426,181.164 1.148,175.969 0.801,168.141 L 1.059,13.852 C 0.898,4.574 4.52,0.695 13.223,0.801 z"
           id="path366867"
           style="fill:#ffffff;fill-opacity:1;fill-rule:evenodd;stroke:#000000;stroke-width:1.60000002;stroke-linecap:butt;stroke-linejoin:miter;stroke-miterlimit:4;stroke-opacity:1;stroke-dasharray:none" /></g><path
         d="m 16.461,172.313 c -3.789,0 -6.266,-3.14 -6.266,-5.269 l 0,-150.914 c 0,-3.735 2.867,-6.231 5.657,-6.231 L 519.84,9.72 648.789,81.974 c 11.086,6.003 10.742,12.714 -0.039,18.511 0,0 -95.793,53.864 -128.867,71.817 l -503.422,0.011 z"
         id="path366869"
         style="fill:#154889;fill-opacity:1;fill-rule:evenodd;stroke:none" /><path
         d="m 67.766,50.669 29.968,82.137 10.254,0 29.969,-82.137 -13.07,0 -6.309,18.535 -31.152,0 -6.535,-18.535 -13.125,0 z m 23.32,29.519 23.773,0 c -1.726,5.071 -3.089,9.043 -4.082,11.914 -0.996,2.875 -1.859,5.418 -2.593,7.633 -0.731,2.219 -1.473,4.469 -2.223,6.762 -0.754,2.289 -1.75,5.391 -2.988,9.293 -1.313,-4.055 -2.364,-7.293 -3.153,-9.715 -0.789,-2.422 -1.55,-4.762 -2.281,-7.016 -0.734,-2.253 -1.578,-4.769 -2.535,-7.546 -0.961,-2.782 -2.266,-6.555 -3.918,-11.325 z m 58.566,-9.968 0,38.867 11.774,0 0,-34.871 c 0,-3.981 1.097,-7.067 3.297,-9.266 2.195,-2.195 4.984,-3.297 8.363,-3.297 3.269,0 6,1.102 8.195,3.297 2.199,2.199 3.297,5.285 3.297,9.266 l 0,34.871 11.774,0 0,-58.473 -11.774,0 0,6.195 -0.226,0 c -3.641,-4.582 -8.672,-6.871 -15.094,-6.871 -4.621,0 -9.043,1.719 -13.27,5.153 -4.222,3.437 -6.336,8.48 -6.336,15.129 z m 57.887,-9.86 8.227,8.11 c 5.105,-4.993 11.246,-7.493 18.422,-7.493 3.339,0 6.101,0.629 8.281,1.891 2.176,1.258 3.265,3.125 3.265,5.602 0,3.418 -2.382,5.336 -7.152,5.746 l -10.367,0.961 c -4.844,0.375 -8.863,1.968 -12.055,4.785 -3.191,2.816 -4.789,6.742 -4.789,11.773 0,5.938 2.086,10.422 6.254,13.465 4.168,3.043 9.352,4.563 15.547,4.563 5.109,0 9.484,-0.723 13.125,-2.168 3.644,-1.446 6.91,-3.371 9.805,-5.774 l -7.27,-8.562 c -2.328,1.578 -4.73,2.871 -7.211,3.886 -2.476,1.016 -5.293,1.52 -8.449,1.52 -3.754,0 -6.367,-0.664 -7.828,-2 -1.465,-1.332 -2.199,-3.012 -2.199,-5.039 0,-1.277 0.543,-2.461 1.632,-3.551 1.09,-1.09 3.118,-1.746 6.086,-1.973 l 9.688,-0.675 c 6.047,-0.41 10.387,-2.282 13.015,-5.606 2.629,-3.324 3.942,-7.293 3.942,-11.914 0,-5.746 -2.348,-10.176 -7.043,-13.293 -4.692,-3.117 -10.418,-4.676 -17.18,-4.676 -9.726,0 -18.308,3.473 -25.746,10.422 z m 66.172,-9.746 0,49.461 -5.914,0 0,9.012 5.914,0 0,7.719 c 0,5.445 1.5,9.453 4.508,12.027 3.004,2.574 6.797,3.859 11.379,3.859 l 7.605,0 0,-11.043 -6.648,0 c -3.418,0 -5.129,-1.613 -5.129,-4.843 l 0,-7.719 11.777,0 0,-9.012 -11.777,0 0,-49.461 -11.715,0 z m 63.238,0 0,5.184 -0.281,0 c -2.363,-3.906 -7.172,-5.86 -14.422,-5.86 -6.535,0 -11.601,1.7 -15.207,5.098 -3.605,3.398 -5.41,7.652 -5.41,12.758 0,4.621 1.598,8.656 4.789,12.113 3.191,3.453 7.941,5.184 14.254,5.184 l 16.277,0 0,6.082 c 0,4.996 -4,7.492 -11.996,7.492 -5.558,0 -9.258,-1.481 -11.098,-4.449 l -9.242,6.984 c 4.094,5.711 10.668,8.563 19.719,8.563 7.211,0 13.07,-1.407 17.574,-4.223 4.508,-2.816 6.762,-7.832 6.762,-15.043 l 0,-39.883 -11.719,0 z m 0,20.504 0,4.281 -14.082,0 c -6.797,0 -10.195,-2.347 -10.195,-7.039 0,-1.992 0.851,-3.718 2.562,-5.183 1.707,-1.465 4.555,-2.2 8.536,-2.2 4.882,0 8.296,0.547 10.25,1.637 1.953,1.086 2.929,3.922 2.929,8.504 z m 29.387,-20.504 0,82.078 11.773,0 0,-29.855 0.223,0 c 3.645,4.617 8.715,6.926 15.211,6.926 4.543,0 8.93,-1.727 13.156,-5.18 4.223,-3.457 6.336,-8.488 6.336,-15.098 l 0,-38.871 -11.773,0 0,34.813 c 0,3.945 -1.098,7.023 -3.297,9.238 -2.195,2.219 -4.93,3.324 -8.195,3.324 -3.379,0 -6.168,-1.105 -8.368,-3.324 -2.195,-2.215 -3.293,-5.293 -3.293,-9.238 l 0,-34.813 -11.773,0 z m 64.367,0 0,58.473 11.774,0 0,-6.25 0.222,0 c 3.645,4.617 8.715,6.926 15.211,6.926 4.281,0 8.356,-1.5 12.227,-4.504 l -8.508,-10.141 c -2.555,1.914 -5.145,2.871 -7.774,2.871 -2.894,0 -5.511,-0.965 -7.859,-2.898 -2.348,-1.938 -3.519,-5.043 -3.519,-9.324 l 0,-35.153 -11.774,0 z m 47.914,58.473 0,17.746 11.778,0 0,-17.746 8.562,0 0,-9.012 -8.562,0 0,-34.027 c 0,-2.93 1.386,-4.395 4.167,-4.395 l 4.395,0 0,-11.039 -6.141,0 c -4.093,0 -7.484,1.238 -10.168,3.719 -2.687,2.476 -4.031,6.027 -4.031,10.644 l 0,35.098 -5.855,0 0,9.012 5.855,0 z"
         id="path366871"
         style="fill:#ffffff;fill-opacity:1;fill-rule:nonzero;stroke:none" /></g></g></svg>