<?xml version="1.0" encoding="UTF-8" standalone="no"?>
<!-- Created with Inkscape (http://www.inkscape.org/) -->

<svg
   xmlns:dc="http://purl.org/dc/elements/1.1/"
   xmlns:cc="http://creativecommons.org/ns#"
   xmlns:rdf="http://www.w3.org/1999/02/22-rdf-syntax-ns#"
   xmlns:svg="http://www.w3.org/2000/svg"
   xmlns="http://www.w3.org/2000/svg"
   xmlns:sodipodi="http://sodipodi.sourceforge.net/DTD/sodipodi-0.dtd"
   xmlns:inkscape="http://www.inkscape.org/namespaces/inkscape"
   version="1.0"
   width="471.43494"
   height="470.53604"
   id="svg2"
   inkscape:version="0.48.1 r9760"
   sodipodi:docname="Zeichen_363.svg">
  <metadata
     id="metadata9">
    <rdf:RDF>
      <cc:Work
         rdf:about="">
        <dc:format>image/svg+xml</dc:format>
        <dc:type
           rdf:resource="http://purl.org/dc/dcmitype/StillImage" />
        <dc:title />
      </cc:Work>
    </rdf:RDF>
  </metadata>
  <sodipodi:namedview
     pagecolor="#ffffff"
     bordercolor="#666666"
     borderopacity="1"
     objecttolerance="10"
     gridtolerance="10"
     guidetolerance="10"
     inkscape:pageopacity="0"
     inkscape:pageshadow="2"
     inkscape:window-width="825"
     inkscape:window-height="706"
     id="namedview7"
     showgrid="false"
     inkscape:zoom="0.76592971"
     inkscape:cx="272.51739"
     inkscape:cy="282.63958"
     inkscape:window-x="0"
     inkscape:window-y="0"
     inkscape:window-maximized="0"
     inkscape:current-layer="svg2"
     fit-margin-top="0"
     fit-margin-left="0"
     fit-margin-right="0"
     fit-margin-bottom="0" />
  <defs
     id="defs4" />
  <path
     d="M 26.763491,1 446.76831,1 c 10.81582,0.7906802 23.07189,11.843765 23.66646,24.864765 l 0,418.806515 c 0.0497,10.31854 -11.79351,24.19224 -25.16434,24.86477 l -419.405666,0 C 12.842327,469.53605 1,457.97898 1,444.37171 L 1.5991509,26.16434 C 1.5991509,12.652085 10.402202,1 26.763491,1 z"
     style="fill:#ffffff;fill-opacity:1;fill-rule:evenodd;stroke:#000000;stroke-width:2;stroke-linecap:butt;stroke-linejoin:miter;stroke-miterlimit:4;stroke-opacity:1;stroke-dasharray:none"
     id="path3669"
     inkscape:connector-curvature="0" />
  <path
     d="m 389.62597,11.946726 0,0.03125 -308.968753,0 0,0.03125 -49.5625,0 c -11.760613,-0.514916 -18.473169,7.51921 -18.03125,20.375 l 0,406.406254 c 0.04655,8.6672 3.728171,19.07043 15.6875,19.28125 l 51.3125,0 309.562503,-0.0625 0,0.0312 53.5625,0 c 11.95933,-0.21075 15.6722,-10.614 15.71875,-19.2812 l 0,-406.437504 c 0.44191,-12.855791 -6.27063,-20.88992 -18.03125,-20.375 l -51.25,0 z m 0,66.5 0,312.906254 -307.281253,0.21875 0,-313.062504 307.281253,-0.0625 z"
     style="fill:#154889;fill-opacity:1;fill-rule:evenodd;stroke:none"
     id="path3661"
     inkscape:connector-curvature="0" />
  <path
     style="fill:#000000;fill-rule:evenodd;stroke:none"
     d="m 227.71972,196.88423 a 7.564639,7.564639 0 0 0 -7.5625,7.5625 l 0,7.5625 -3.78125,0 a 7.564639,7.564639 0 0 0 -7,4.65625 l -4.375,10.46875 a 143.72915,143.72915 0 0 1 -17.78125,69.25 l -16.28125,29.65625 a 30.25879,30.25879 0 0 0 -3.75,14.5625 22.694073,22.694073 0 0 0 34.03125,19.65625 22.694073,22.694073 0 0 0 11.34375,-19.65625 l 0,-92.65625 7.59375,0 0,104.03125 7.5625,0 0,11.34375 75.625,0 0,-11.34375 7.5625,0 0,-147.53125 a 7.564639,7.564639 0 0 0 -7.5625,-7.5625 l -75.625,0 z m 15.125,15.125 45.375,0 a 7.564639,7.564639 0 0 1 7.5625,7.5625 l 0,34.0625 a 7.564639,7.564639 0 0 1 -7.5625,7.5625 l -45.375,0 a 7.564639,7.564639 0 0 1 -7.5625,-7.5625 l 0,-34.0625 a 7.564639,7.564639 0 0 1 7.5625,-7.5625 z m -37.84375,62.375 0,66.21875 a 15.129434,15.129434 0 0 1 -7.5625,13.125 15.129434,15.129434 0 0 1 -22.6875,-13.125 22.694073,22.694073 0 0 1 2.8125,-10.90625 l 16.3125,-29.65625 a 151.29387,151.29387 0 0 0 11.125,-25.65625 z"
     id="path10"
     inkscape:connector-curvature="0" />
  <path
     d="m 310.91986,336.83316 43.49701,0 0,-11.347 7.56471,0 -8e-5,-147.51151 a 7.564639,7.564639 0 0 0 -7.56463,-7.56464 l -75.64694,0 a 7.564639,7.564639 0 0 0 -7.56464,7.56464 l -8e-5,7.56463 -3.78236,0 a 7.564639,7.564639 0 0 0 -6.98274,4.65516 l -2.00029,6.69192 27.89483,0 0,-3.78244 a 7.564639,7.564639 0 0 1 7.56464,-7.56464 l 45.38814,0 a 7.564639,7.564639 0 0 1 7.56464,7.56464 l 0,34.04115 a 7.564639,7.564639 0 0 1 -7.56464,7.56464 l -28.36757,8e-5 0,102.12337 z"
     id="path14"
     inkscape:connector-curvature="0"
     style="fill:#154889;fill-opacity:1;fill-rule:evenodd;stroke:none" />
  <path
     style="fill:#000000;fill-rule:evenodd;stroke:none"
     inkscape:connector-curvature="0"
     d="m 148.12631,154.70048 h 10.53645 q -1.9445,9.22505 -8.32062,14.06367 -6.37614,4.83862 -14.83243,4.88384 -7.77798,0 -13.02358,-3.7081 -5.24562,-3.70811 -7.5971,-8.09453 -1.62795,-2.89413 -2.26104,-6.3309 -0.63309,-3.43678 -0.63309,-15.32986 0,-11.89307 0.63309,-15.32984 0.63309,-3.43679 2.26104,-6.33092 2.30626,-4.29597 7.55187,-8.09452 5.24561,-3.79855 13.06881,-3.79855 9.36071,0 15.46551,5.74304 6.10481,5.74304 7.68754,13.79235 h -10.53645 q -1.22096,-3.79855 -4.52208,-6.64746 -3.30111,-2.84891 -8.09452,-2.84891 -3.52722,0 -6.10481,1.44706 -2.57758,1.44707 -4.06987,3.34634 -1.94449,2.53237 -2.6228,5.56216 -0.67832,3.02979 -0.72354,13.15925 0,10.17468 0.67832,13.20448 0.67831,3.02979 2.66802,5.47171 1.49229,1.98972 4.06987,3.39156 2.57759,1.40185 6.10481,1.44707 8.32063,0 12.6166,-8.99894 z m 17.54567,18.40487 v -65.88671 h 9.45116 l 29.8005,46.84875 h 0.18088 v -46.84875 h 10.03902 v 65.88671 H 205.6924 L 175.89189,126.2566 h -0.22611 v 46.84875 h -9.9938 z m 84.69856,-26.81594 v -9.45114 h 23.42438 v 13.43057 q 0,9.81292 -6.82834,16.59604 -6.82835,6.78311 -16.68648,6.78311 -7.77798,0 -13.02359,-3.7081 -5.24561,-3.70811 -7.5971,-8.09453 -1.62795,-2.89413 -2.26103,-6.3309 -0.6331,-3.43678 -0.6331,-15.32986 0,-11.89307 0.6331,-15.32984 0.63308,-3.43679 2.26103,-6.33092 2.30627,-4.29597 7.55188,-8.09452 5.24561,-3.79855 13.06881,-3.79855 9.36071,0 15.46551,5.74304 6.10481,5.74304 7.68754,13.79235 H 262.8967 q -1.22096,-3.79855 -4.52208,-6.64746 -3.30111,-2.84891 -8.09452,-2.84891 -3.52722,0 -6.10481,1.44706 -2.57758,1.44707 -4.06987,3.34634 -1.9445,2.53237 -2.6228,5.56216 -0.67832,3.02979 -0.72354,13.15925 0,10.17468 0.67832,13.20448 0.6783,3.02979 2.66802,5.47171 1.49229,1.98972 4.06987,3.39156 2.57759,1.40185 6.10481,1.44707 5.69782,0 9.58681,-3.88899 3.88899,-3.88899 3.93421,-10.12945 v -3.39157 h -13.43058 z"
     id="path16-7" />
</svg>
