<?xml version="1.0" encoding="UTF-8" standalone="no"?>
<!-- Created with Inkscape (http://www.inkscape.org/) -->

<svg
   xmlns:dc="http://purl.org/dc/elements/1.1/"
   xmlns:cc="http://creativecommons.org/ns#"
   xmlns:rdf="http://www.w3.org/1999/02/22-rdf-syntax-ns#"
   xmlns:svg="http://www.w3.org/2000/svg"
   xmlns="http://www.w3.org/2000/svg"
   xmlns:sodipodi="http://sodipodi.sourceforge.net/DTD/sodipodi-0.dtd"
   xmlns:inkscape="http://www.inkscape.org/namespaces/inkscape"
   version="1.0"
   width="1350"
   height="960"
   id="svg2"
   inkscape:version="0.48.1 r9760"
   sodipodi:docname="Zeichen_386.3.svg">
  <metadata
     id="metadata17">
    <rdf:RDF>
      <cc:Work
         rdf:about="">
        <dc:format>image/svg+xml</dc:format>
        <dc:type
           rdf:resource="http://purl.org/dc/dcmitype/StillImage" />
        <dc:title />
      </cc:Work>
    </rdf:RDF>
  </metadata>
  <sodipodi:namedview
     pagecolor="#ffffff"
     bordercolor="#666666"
     borderopacity="1"
     objecttolerance="10"
     gridtolerance="10"
     guidetolerance="10"
     inkscape:pageopacity="0"
     inkscape:pageshadow="2"
     inkscape:window-width="1920"
     inkscape:window-height="1032"
     id="namedview15"
     showgrid="false"
     inkscape:zoom="0.54479167"
     inkscape:cx="675"
     inkscape:cy="480"
     inkscape:window-x="466"
     inkscape:window-y="0"
     inkscape:window-maximized="0"
     inkscape:current-layer="svg2" />
  <defs
     id="defs9" />
  <path
     d="M 10.917039,50.726816 L 11.225075,924.21583 C 11.225075,946.90909 20.632842,957.21375 40.277711,957.21375 L 1311.0837,957.90243 C 1321.6537,957.90243 1339.083,939.62024 1339.083,923.94181 L 1339.0025,38.057373 C 1339.0025,22.52823 1323.6457,3.254031 1307.193,3.254031 L 58.466932,2.099497 C 20.628189,1.874647 10.917039,21.370627 10.917039,50.726816 z "
     style="fill:white;fill-opacity:1;fill-rule:evenodd;stroke:black;stroke-width:2.37036228;stroke-linecap:butt;stroke-linejoin:miter;stroke-miterlimit:4;stroke-dasharray:none;stroke-opacity:1"
     id="path3829" />
  <path
     d="M 30.178245,40.856827 L 30.201036,912.59113 C 30.201036,926.89045 37.876113,931.89856 48.157974,931.89856 L 1308.2854,932.15716 C 1313.1671,932.15716 1318.7601,923.21724 1318.7601,918.07717 L 1318.2982,43.256394 C 1318.1001,34.874645 1306.0468,25.426226 1298.6782,25.426226 L 48.517322,25.166307 C 38.225778,25.166307 30.178245,32.630594 30.178245,40.856827 z "
     style="fill:#633a34;fill-opacity:1;fill-rule:evenodd;stroke:none;stroke-width:19.30764197999999965;stroke-linecap:butt;stroke-linejoin:miter;stroke-miterlimit:4;stroke-dasharray:none;stroke-opacity:1"
     id="path2057" />
  <g
     style="font-size:104.30552673px;font-style:normal;font-variant:normal;font-weight:normal;font-stretch:normal;text-align:center;line-height:125%;writing-mode:lr-tb;text-anchor:middle;fill:#ffffff;fill-opacity:1;stroke:none;font-family:DIN 1451 Mittelschrift;-inkscape-font-specification:DIN 1451 Mittelschrift"
     id="text2887">
    <path
       d="m 304.88857,755.57968 0,-74.20564 25.97452,0 c 10.15209,7e-5 17.68979,4.15939 22.61311,12.47795 1.83344,3.15775 2.95391,6.11171 3.36141,8.8619 0.40739,2.75029 0.61111,8.0131 0.61117,15.78843 -6e-5,8.35262 -0.28018,13.9295 -0.84035,16.73065 -0.5603,2.80119 -1.67228,5.49201 -3.33595,8.07247 -2.20704,3.46328 -5.2374,6.3748 -9.09108,8.73457 -3.85378,2.35978 -8.53089,3.53967 -14.03133,3.53967 z m 11.25563,-63.56118 0,52.96765 13.49656,0 c 6.17952,1e-5 10.76326,-2.15604 13.75122,-6.46817 1.22228,-1.86743 1.99472,-3.87918 2.31733,-6.03525 0.32251,-2.15603 0.48379,-6.68035 0.48384,-13.57296 -5e-5,-6.65487 -0.1783,-11.25558 -0.53477,-13.80215 -0.35656,-2.54647 -1.28179,-4.83834 -2.77571,-6.87561 -3.08982,-4.14228 -7.50379,-6.21345 -13.24191,-6.21351 z"
       style=""
       id="path2841" />
    <path
       d="m 410.72201,733.17029 -32.90106,0 c -2e-5,4.34608 1.17987,7.60562 3.53966,9.77864 2.35976,2.17304 5.37314,3.25956 9.04015,3.25955 4.37999,10e-6 8.2507,-1.69767 11.61214,-5.09304 l 7.6905,6.57002 c -2.61447,3.05583 -5.55995,5.23735 -8.83643,6.54456 -3.27656,1.30722 -6.69738,1.96082 -10.26248,1.96082 -5.43261,0 -10.69541,-1.7571 -15.78844,-5.2713 -5.09305,-3.51419 -7.63957,-10.70386 -7.63956,-21.56903 -10e-6,-10.28792 2.35128,-17.40119 7.05386,-21.33986 4.70256,-3.93857 9.61734,-5.90787 14.74436,-5.90793 5.80604,6e-5 10.8821,2.01181 15.2282,6.03526 4.34602,4.02355 6.51905,9.44763 6.5191,16.27227 z m -32.90106,-8.76004 22.30753,0 c -0.16981,-3.97254 -1.29028,-7.01138 -3.36141,-9.11654 -2.0712,-2.10509 -4.66865,-3.15765 -7.79236,-3.15769 -3.15771,4e-5 -5.78062,1.0526 -7.86875,3.15769 -2.08816,2.10516 -3.18317,5.144 -3.28501,9.11654 z"
       style=""
       id="path2843" />
    <path
       d="m 421.9267,737.85589 0,-35.142 10.64446,0 0,31.52594 c -1e-5,3.5991 0.99313,6.39178 2.97943,8.37805 1.98627,1.9863 4.50732,2.97944 7.56317,2.97943 2.95394,10e-6 5.42406,-0.99313 7.41038,-2.97943 1.98625,-1.98627 2.97939,-4.77895 2.97943,-8.37805 l 0,-31.52594 10.64446,0 0,52.86579 -10.64446,0 0,-5.60235 -0.20372,0 c -3.29354,4.14234 -7.84332,6.21351 -13.64936,6.21351 -4.17631,0 -8.17435,-1.55337 -11.99411,-4.66013 -3.8198,-3.10675 -5.72968,-7.66502 -5.72968,-13.67482 z"
       style=""
       id="path2845" />
    <path
       d="m 478.56135,702.71389 0,-16.04309 10.64446,0 0,16.04309 7.74143,0 0,8.14887 -7.74143,0 0,30.76198 c -2e-5,2.64839 1.25627,3.97258 3.76885,3.97257 l 3.97258,0 0,9.98237 -5.55142,0 c -3.70096,0 -6.76527,-1.12047 -9.19294,-3.36141 -2.4277,-2.24093 -3.64154,-5.44955 -3.64153,-9.62585 l 0,-31.72966 -5.29676,0 0,-8.14887 z"
       style=""
       id="path2847" />
    <path
       d="m 501.02167,746.76871 7.43584,-7.33398 c 4.61768,4.51584 10.16909,6.77376 16.65425,6.77375 3.02185,10e-6 5.51744,-0.56871 7.48678,-1.70617 1.96927,-1.13744 2.95393,-2.82663 2.95396,-5.06758 -3e-5,-3.08976 -2.15609,-4.82139 -6.46816,-5.1949 l -9.3712,-0.86582 c -4.38004,-0.33951 -8.01307,-1.78254 -10.89912,-4.32909 -2.88606,-2.54649 -4.32909,-6.09464 -4.32908,-10.64446 -10e-6,-5.36463 1.88442,-9.42208 5.65328,-12.17237 3.76883,-2.75019 8.45443,-4.12531 14.0568,-4.12537 4.61766,6e-5 8.57325,0.65366 11.86679,1.96083 3.29346,1.30726 6.24742,3.04738 8.86189,5.22036 l -6.57002,7.74143 c -2.10517,-1.42601 -4.2782,-2.59741 -6.5191,-3.5142 -2.24097,-0.9167 -4.78749,-1.37508 -7.63956,-1.37512 -3.39539,4e-5 -5.75516,0.60272 -7.07934,1.80803 -1.3242,1.20539 -1.9863,2.72482 -1.98628,4.55827 -2e-5,1.15446 0.49231,2.224 1.47698,3.20862 0.98464,0.98469 2.81813,1.57888 5.50049,1.78257 l 8.76003,0.61116 c 5.4665,0.37352 9.38814,2.06271 11.76493,5.06758 2.37671,3.00492 3.56509,6.59551 3.56513,10.77179 -4e-5,5.19491 -2.12214,9.20143 -6.3663,12.01958 -4.24424,2.81815 -9.42216,4.22722 -15.53378,4.22722 -8.79401,0 -16.5524,-3.1407 -23.27521,-9.42213 z"
       style=""
       id="path2849" />
    <path
       d="m 588.06177,740.0459 7.84329,7.0284 c -2.30889,2.64838 -5.05064,4.8299 -8.22527,6.54456 -3.17469,1.71465 -6.76529,2.57198 -10.77178,2.57198 -6.11168,0 -11.63762,-2.07965 -16.57786,-6.23897 -4.94026,-4.15931 -7.41038,-11.07736 -7.41038,-20.75416 0,-9.67674 2.47012,-16.61176 7.41038,-20.80508 4.94024,-4.19322 10.46618,-6.28985 16.57786,-6.28991 4.00649,6e-5 7.59709,0.86587 10.77178,2.59746 3.17463,1.73168 5.91638,3.92169 8.22527,6.57002 l -7.84329,6.97747 c -2.98795,-3.66695 -6.57006,-5.50044 -10.74632,-5.50049 -9.1675,5e-5 -13.75123,5.48355 -13.75122,16.45053 -10e-6,10.93309 4.58372,16.39961 13.75122,16.3996 4.21022,10e-6 7.79232,-1.85046 10.74632,-5.55141 z"
       style=""
       id="path2851" />
    <path
       d="m 603.23903,755.57968 0,-74.20564 10.64447,0 0,26.99313 0.20372,0 c 3.29348,-4.17625 7.87721,-6.26439 13.75121,-6.26445 4.10836,6e-5 8.07244,1.56192 11.89226,4.6856 3.81974,3.12378 5.72962,7.67356 5.72967,13.64936 l 0,35.142 -10.64446,0 0,-31.47501 c -4e-5,-3.56509 -0.99318,-6.34929 -2.97943,-8.35259 -1.98632,-2.00322 -4.45644,-3.00485 -7.41038,-3.0049 -3.05585,5e-5 -5.5769,1.00168 -7.56316,3.0049 -1.98631,2.0033 -2.97945,4.7875 -2.97943,8.35259 l 0,31.47501 z"
       style=""
       id="path2853" />
    <path
       d="m 700.2106,733.17029 -32.90106,0 c -10e-6,4.34608 1.17987,7.60562 3.53967,9.77864 2.35975,2.17304 5.37313,3.25956 9.04015,3.25955 4.37998,10e-6 8.25069,-1.69767 11.61214,-5.09304 l 7.69049,6.57002 c -2.61447,3.05583 -5.55994,5.23735 -8.83643,6.54456 -3.27656,1.30722 -6.69738,1.96082 -10.26248,1.96082 -5.4326,0 -10.69541,-1.7571 -15.78843,-5.2713 -5.09305,-3.51419 -7.63957,-10.70386 -7.63957,-21.56903 0,-10.28792 2.35128,-17.40119 7.05387,-21.33986 4.70256,-3.93857 9.61734,-5.90787 14.74436,-5.90793 5.80603,6e-5 10.8821,2.01181 15.2282,6.03526 4.34601,4.02355 6.51904,9.44763 6.51909,16.27227 z m -32.90106,-8.76004 22.30753,0 c -0.1698,-3.97254 -1.29027,-7.01138 -3.36141,-9.11654 -2.0712,-2.10509 -4.66865,-3.15765 -7.79235,-3.15769 -3.15771,4e-5 -5.78063,1.0526 -7.86876,3.15769 -2.08816,2.10516 -3.18316,5.144 -3.28501,9.11654 z"
       style=""
       id="path2855" />
    <path
       d="m 750.02054,755.57968 0,-64.22328 -20.32124,0 0,-9.98236 51.89811,0 0,9.98236 -20.32125,0 0,64.22328 z"
       style=""
       id="path2857" />
    <path
       d="m 829.57388,733.17029 -32.90106,0 c -10e-6,4.34608 1.17988,7.60562 3.53967,9.77864 2.35975,2.17304 5.37313,3.25956 9.04015,3.25955 4.37999,10e-6 8.25069,-1.69767 11.61214,-5.09304 l 7.69049,6.57002 c -2.61447,3.05583 -5.55994,5.23735 -8.83643,6.54456 -3.27656,1.30722 -6.69738,1.96082 -10.26248,1.96082 -5.4326,0 -10.69541,-1.7571 -15.78843,-5.2713 -5.09305,-3.51419 -7.63957,-10.70386 -7.63957,-21.56903 0,-10.28792 2.35128,-17.40119 7.05387,-21.33986 4.70256,-3.93857 9.61734,-5.90787 14.74436,-5.90793 5.80604,6e-5 10.8821,2.01181 15.2282,6.03526 4.34602,4.02355 6.51904,9.44763 6.51909,16.27227 z m -32.90106,-8.76004 22.30753,0 c -0.1698,-3.97254 -1.29027,-7.01138 -3.36141,-9.11654 -2.0712,-2.10509 -4.66865,-3.15765 -7.79235,-3.15769 -3.15771,4e-5 -5.78063,1.0526 -7.86875,3.15769 -2.08817,2.10516 -3.18317,5.144 -3.28502,9.11654 z"
       style=""
       id="path2859" />
    <path
       d="m 841.08417,755.57968 0,-52.86579 10.64446,0 0,52.86579 z m 0,-63.56118 0,-10.64446 10.64446,0 0,10.64446 z"
       style=""
       id="path2861" />
    <path
       d="m 865.83639,742.79614 0,-61.4221 10.64446,0 0,60.55628 c -2e-5,2.44467 1.32417,3.667 3.97257,3.66699 l 3.61606,0 0,9.98237 -4.6856,0 c -3.87073,0 -7.09632,-0.94221 -9.67678,-2.82664 -2.58048,-1.88442 -3.87072,-5.20339 -3.87071,-9.9569 z"
       style=""
       id="path2863" />
    <path
       d="m 892.72762,737.85589 0,-35.142 10.64446,0 0,31.52594 c -2e-5,3.5991 0.99313,6.39178 2.97943,8.37805 1.98627,1.9863 4.50732,2.97944 7.56317,2.97943 2.95394,10e-6 5.42406,-0.99313 7.41038,-2.97943 1.98625,-1.98627 2.97939,-4.77895 2.97943,-8.37805 l 0,-31.52594 10.64446,0 0,52.86579 -10.64446,0 0,-5.60235 -0.20372,0 c -3.29354,4.14234 -7.84332,6.21351 -13.64936,6.21351 -4.17631,0 -8.17435,-1.55337 -11.99412,-4.66013 -3.81979,-3.10675 -5.72968,-7.66502 -5.72967,-13.67482 z"
       style=""
       id="path2865" />
    <path
       d="m 948.75112,755.57968 0,-52.86579 10.64446,0 0,5.65328 0.20372,0 c 3.29348,-4.17625 7.87722,-6.26439 13.75122,-6.26445 4.10835,6e-5 8.07243,1.56192 11.89225,4.6856 3.81974,3.12378 5.72963,7.67356 5.72968,13.64936 l 0,35.142 -10.64446,0 0,-31.47501 c -4e-5,-3.56509 -0.99318,-6.34929 -2.97943,-8.35259 -1.98632,-2.00322 -4.45645,-3.00485 -7.41038,-3.0049 -3.05585,5e-5 -5.57691,1.00168 -7.56317,3.0049 -1.98631,2.0033 -2.97945,4.7875 -2.97943,8.35259 l 0,31.47501 z"
       style=""
       id="path2867" />
    <path
       d="m 1034.467,755.52875 0,-5.44956 c -3.701,4.07444 -8.2508,6.11165 -13.6494,6.11165 -3.4632,0 -6.3578,-0.68756 -8.6836,-2.06268 -2.3258,-1.37512 -4.0829,-2.82663 -5.2713,-4.35455 -1.5279,-1.9693 -2.572,-4.05745 -3.1322,-6.26444 -0.5603,-2.20698 -0.8404,-6.97745 -0.8404,-14.31146 0,-7.33394 0.2801,-12.10442 0.8404,-14.31145 0.5602,-2.20694 1.6043,-4.31206 3.1322,-6.31537 1.1884,-1.49391 2.9455,-2.94543 5.2713,-4.35455 2.3258,-1.40903 5.2204,-2.11356 8.6836,-2.11362 5.161,6e-5 9.7107,2.0882 13.6494,6.26445 l 0,-5.65328 10.6445,0 0,51.64346 c -10e-5,7.94514 -2.3174,13.80213 -6.952,17.571 -4.6347,3.76883 -9.957,5.65325 -15.9667,5.65328 -3.3954,-3e-5 -6.7229,-0.81491 -9.9824,-2.44467 -3.2596,-1.62979 -6.0607,-3.76886 -8.4035,-6.41723 l 8.2507,-6.57003 c 1.2902,1.29023 2.8266,2.4107 4.6092,3.36141 1.7826,0.95069 3.6924,1.42604 5.7297,1.42605 3.5311,-10e-6 6.4257,-0.98466 8.6836,-2.95396 2.2579,-1.96932 3.3869,-4.78746 3.3869,-8.45445 z m -20.9324,-26.33104 c 0,4.24423 0.1103,7.06238 0.331,8.45446 0.2207,1.39211 0.8064,2.68235 1.7571,3.87071 0.713,0.95071 1.7656,1.86746 3.1577,2.75024 1.3921,0.88281 3.1577,1.3242 5.2968,1.32419 2.0711,10e-6 3.7943,-0.44138 5.1694,-1.32419 1.3751,-0.88278 2.4362,-1.79953 3.1832,-2.75024 0.9167,-1.18836 1.4854,-2.4786 1.7062,-3.87071 0.2206,-1.39208 0.331,-4.21023 0.331,-8.45446 0,-4.24417 -0.1104,-7.06232 -0.331,-8.45445 -0.2208,-1.39206 -0.7895,-2.69927 -1.7062,-3.92164 -0.747,-0.91671 -1.8081,-1.82497 -3.1832,-2.72478 -1.3751,-0.89973 -3.0983,-1.34961 -5.1694,-1.34966 -2.1391,5e-5 -3.9047,0.44993 -5.2968,1.34966 -1.3921,0.89981 -2.4447,1.80807 -3.1577,2.72478 -0.9507,1.22237 -1.5364,2.52958 -1.7571,3.92164 -0.2207,1.39213 -0.331,4.21028 -0.331,8.45445 z"
       style=""
       id="path2869" />
  </g>
  <g
     style="font-size:104.30999756px;font-style:normal;font-variant:normal;font-weight:normal;font-stretch:normal;text-align:start;line-height:100%;writing-mode:lr-tb;text-anchor:start;fill:#ffffff;fill-opacity:1;stroke:none;font-family:DIN 1451 Mittelschrift;-inkscape-font-specification:DIN 1451 Mittelschrift"
     id="text2895">
    <path
       d="m 483.3151,869.00561 0,-63.10551 -10.59398,7.74176 0,-11.30704 10.59398,-7.69083 10.69585,0 0,74.36162 z"
       style=""
       id="path2822" />
    <path
       d="m 544.9945,829.1763 -19.96559,39.93118 -11.91823,0 15.68725,-31.42543 -0.20373,0 c -1.69778,0.64518 -3.58229,0.96775 -5.65353,0.96772 -4.75372,3e-5 -8.89624,-1.64679 -12.42755,-4.94046 -3.56529,-3.25965 -5.34793,-8.52268 -5.34793,-15.78911 0,-8.52267 2.25801,-14.6176 6.77404,-18.28481 4.54996,-3.70103 9.60927,-5.55158 15.17792,-5.55166 5.16114,8e-5 9.91485,2.03738 14.26113,6.11192 4.31225,4.07467 6.4684,9.60934 6.46844,16.60403 -4e-5,4.51607 -0.95078,8.64161 -2.85222,12.37662 z m -18.48854,0 c 2.95406,4e-5 5.46673,-0.98465 7.53803,-2.95409 2.07122,-1.90144 3.10685,-4.97437 3.10688,-9.2188 -3e-5,-8.18311 -3.54833,-12.2747 -10.64491,-12.27476 -2.47875,6e-5 -4.87258,0.93383 -7.1815,2.80129 -2.34292,1.90155 -3.51437,5.05937 -3.51435,9.47347 -2e-5,4.21048 1.03561,7.28341 3.10689,9.2188 2.03728,1.96944 4.56693,2.95413 7.58896,2.95409 z"
       style=""
       id="path2824" />
    <path
       d="m 553.09279,857.85137 0,-10.03373 24.85511,-53.17365 11.8673,0 -25.10978,53.17365 19.3544,0 0,-21.3917 10.64491,0 0,21.3917 5.95912,0 0,10.03373 -5.95912,0 0,11.00144 -10.64491,0 0,-11.00144 z"
       style=""
       id="path2826" />
    <path
       d="m 607.18322,834.77889 0,-40.1349 39.52371,0 0,10.64492 -29.48998,0 0,16.75683 c 3.39549,-2.71636 7.35125,-4.07456 11.8673,-4.07461 2.81824,5e-5 5.39033,0.54333 7.71629,1.62984 2.32588,1.08661 4.16795,2.35993 5.52619,3.81995 2.03726,2.20712 3.52279,4.60944 4.4566,7.20696 0.93372,2.5976 1.4006,6.96932 1.40065,13.11515 -5e-5,4.99142 -0.36506,8.70101 -1.09505,11.12878 -0.73008,2.4278 -1.89304,4.66034 -3.48889,6.69764 -1.52802,1.93544 -3.66718,3.73506 -6.41751,5.39886 -2.75039,1.66379 -5.97612,2.49569 -9.67719,2.49569 -4.78769,0 -9.40558,-1.47704 -13.85368,-4.43113 -4.44812,-2.95409 -7.06266,-7.89455 -7.84362,-14.82139 l 10.64492,0 c 1.25632,5.77237 4.80462,8.65855 10.64492,8.65854 5.19509,1e-5 8.23407,-1.78263 9.11693,-5.34792 0.8828,-3.56527 1.32422,-7.09659 1.32425,-10.59399 -3e-5,-4.10853 -0.69611,-7.52102 -2.08824,-10.23745 -1.39219,-2.71637 -4.27836,-4.07457 -8.65854,-4.07461 -4.10859,4e-5 -7.30036,2.05432 -9.57533,6.16284 z"
       style=""
       id="path2828" />
    <path
       d="m 657.60651,845.32194 0,-10.64491 31.42542,0 0,10.64491 z"
       style=""
       id="path2830" />
    <path
       d="m 711.90069,869.00561 0,-63.10551 -10.59399,7.74176 0,-11.30704 10.59399,-7.69083 10.69585,0 0,74.36162 z"
       style=""
       id="path2832" />
    <path
       d="m 773.58009,829.1763 -19.96558,39.93118 -11.91824,0 15.68725,-31.42543 -0.20373,0 c -1.69778,0.64518 -3.58229,0.96775 -5.65352,0.96772 -4.75373,3e-5 -8.89624,-1.64679 -12.42756,-4.94046 -3.56529,-3.25965 -5.34793,-8.52268 -5.34792,-15.78911 -1e-5,-8.52267 2.258,-14.6176 6.77403,-18.28481 4.54997,-3.70103 9.60927,-5.55158 15.17792,-5.55166 5.16114,8e-5 9.91485,2.03738 14.26114,6.11192 4.31225,4.07467 6.46839,9.60934 6.46844,16.60403 -5e-5,4.51607 -0.95079,8.64161 -2.85223,12.37662 z m -18.48854,0 c 2.95407,4e-5 5.46674,-0.98465 7.53803,-2.95409 2.07122,-1.90144 3.10685,-4.97437 3.10689,-9.2188 -4e-5,-8.18311 -3.54834,-12.2747 -10.64492,-12.27476 -2.47874,6e-5 -4.87257,0.93383 -7.1815,2.80129 -2.34291,1.90155 -3.51436,5.05937 -3.51435,9.47347 -1e-5,4.21048 1.03562,7.28341 3.10689,9.2188 2.03729,1.96944 4.56694,2.95413 7.58896,2.95409 z"
       style=""
       id="path2834" />
    <path
       d="m 824.30897,829.1763 -19.96558,39.93118 -11.91823,0 15.68724,-31.42543 -0.20373,0 c -1.69778,0.64518 -3.58228,0.96775 -5.65352,0.96772 -4.75373,3e-5 -8.89624,-1.64679 -12.42756,-4.94046 -3.56529,-3.25965 -5.34793,-8.52268 -5.34792,-15.78911 -1e-5,-8.52267 2.258,-14.6176 6.77404,-18.28481 4.54996,-3.70103 9.60926,-5.55158 15.17792,-5.55166 5.16114,8e-5 9.91484,2.03738 14.26113,6.11192 4.31225,4.07467 6.46839,9.60934 6.46844,16.60403 -5e-5,4.51607 -0.95079,8.64161 -2.85223,12.37662 z m -18.48854,0 c 2.95407,4e-5 5.46674,-0.98465 7.53803,-2.95409 2.07123,-1.90144 3.10685,-4.97437 3.10689,-9.2188 -4e-5,-8.18311 -3.54834,-12.2747 -10.64492,-12.27476 -2.47874,6e-5 -4.87257,0.93383 -7.18149,2.80129 -2.34292,1.90155 -3.51437,5.05937 -3.51436,9.47347 -1e-5,4.21048 1.03562,7.28341 3.10689,9.2188 2.03729,1.96944 4.56694,2.95413 7.58896,2.95409 z"
       style=""
       id="path2836" />
    <path
       d="m 866.63397,847.51205 0,-31.52729 c -3e-5,-3.56523 -0.95926,-6.34954 -2.87769,-8.35295 -1.91849,-2.00329 -4.43965,-3.00496 -7.56349,-3.00503 -3.15785,7e-5 -5.6875,1.00174 -7.58896,3.00503 -1.9015,2.00341 -2.85224,4.78772 -2.85223,8.35295 l 0,31.52729 c -1e-5,3.59925 0.95073,6.39205 2.85223,8.37841 1.90146,1.98638 4.43111,2.97957 7.58896,2.97956 3.12384,1e-5 5.645,-0.99318 7.56349,-2.97956 1.91843,-1.98636 2.87766,-4.77916 2.87769,-8.37841 z m -31.52729,0.61119 0,-32.74967 c 0,-6.82491 2.13917,-12.09644 6.41751,-15.81458 4.27833,-3.71801 9.16786,-5.57705 14.6686,-5.57712 5.46673,7e-5 10.34777,1.85911 14.64312,5.57712 4.29528,3.71814 6.44293,8.98967 6.44298,15.81458 l 0,32.74967 c -5e-5,6.82498 -2.1477,12.08801 -6.44298,15.78911 -4.29535,3.7011 -9.17639,5.55165 -14.64312,5.55165 -5.50074,0 -10.39027,-1.85055 -14.6686,-5.55165 -4.27834,-3.7011 -6.41751,-8.96413 -6.41751,-15.78911 z"
       style=""
       id="path2838" />
  </g>
  <path
     style="fill:#ffffff"
     d="m 100.63832,612.05963 0.59975,-28.985 13.56195,0.54819 13.56196,0.54821 0.30204,-31.92654 c 0.16619,-17.5596 0.4398,-34.36731 0.60818,-37.35044 l 0.30614,-5.42391 -11.54604,1.21729 c -6.35032,0.66949 -12.33326,1.33899 -13.29543,1.48774 -1.88239,0.29103 -2.01902,-26.42007 -1.29974,-254.10341 0.40144,-127.06798 0.59506,-134.50644 3.48648,-133.93572 4.68661,0.92508 312.64448,2.44661 745.68163,3.68419 215.04496,0.61458 391.16096,1.24401 391.36896,1.39873 0.208,0.15464 0.6016,52.1865 0.8747,115.62619 l 0.4966,115.3449 -34.988,4.73419 c -19.2434,2.60379 -58.6049,7.93194 -87.47,11.84031 -28.8651,3.90835 -53.5191,7.10478 -54.7866,7.10315 -1.36,-0.002 -1.9487,1.252 -1.4363,3.05851 0.4776,1.6838 1.4137,59.11332 2.0801,127.62116 l 1.2118,124.55969 -161.595,0.60236 c -88.87722,0.33128 -307.10873,0.76723 -484.95893,0.96878 l -323.36398,0.36645 0.59973,-28.98502 z M 1051.14,512.88299 c -0.6989,-68.5546 -1.5647,-124.96719 -1.924,-125.3613 -0.3593,-0.39412 -8.967,0.41643 -19.1283,1.80124 -10.1612,1.3848 -18.8263,2.16647 -19.2557,1.73706 -0.4294,-0.42942 -0.7808,-10.34208 -0.7808,-22.02814 l 0,-21.24737 16.4825,-6.86069 c 18.333,-7.63099 18.5055,-7.87442 18.5055,-26.11504 0,-5.0265 0.5091,-15.16208 1.1314,-22.52352 1.0465,-12.37984 1.4269,-13.38445 5.0686,-13.38445 4.127,0 5.3125,-4.20753 8.6707,-30.77407 1.0702,-8.4665 1.4438,-8.99104 7.5601,-10.61564 l 6.4343,-1.70902 -4.3735,-2.0507 c -2.4054,-1.12789 -22.4798,-5.06326 -44.6097,-8.74525 l -40.23618,-6.69457 -1.33645,-16.50181 c -0.73506,-9.07601 -1.65845,-17.39222 -2.05199,-18.48048 -0.39355,-1.08827 -3.85862,-2.02205 -7.70016,-2.07507 l -6.98462,-0.0964 -1.10854,15.19556 c -0.6097,8.35755 -1.43411,16.77001 -1.83203,18.69435 -0.64911,3.13916 -4.99658,4.19435 -42.29368,10.26522 -22.8636,3.72153 -42.57365,7.15147 -43.8001,7.62211 -3.9699,1.5234 -2.37203,3.56413 3.67962,4.69942 l 5.90952,1.10863 2.89538,18.5902 c 3.27878,21.05182 3.47319,21.56751 8.13102,21.56751 1.86755,0 3.49082,0.19681 3.60728,0.43735 0.11651,0.24054 1.10049,12.52303 2.18675,27.29442 l 1.97502,26.85706 17.05664,7.17438 17.05665,7.17437 0.14572,21.94935 c 0.0801,12.07214 0.34723,23.78823 0.59342,26.03574 0.5523,5.04202 -2.77325,6.47469 -19.08403,8.22141 -6.62742,0.70975 -13.91021,1.78797 -16.18397,2.39607 l -4.13412,1.10563 0.38947,94.43514 c 0.57024,138.26849 0.27268,126.77441 3.28546,126.91492 1.44326,0.0674 32.93245,1.94278 69.97599,4.1677 37.04353,2.22491 69.60093,4.13936 72.34973,4.25435 l 4.9978,0.20905 -1.2707,-124.64473 z M 900.05169,256.96182 c -1.07913,-7.25556 -1.96205,-14.34065 -1.96205,-15.7446 0,-2.15216 5.48914,-2.55263 34.98799,-2.55263 l 34.988,0 0,15.7446 0,15.74459 -33.02594,0 -33.02594,0 -1.96206,-13.19196 z m 80.25973,-2.55263 0,-15.7446 35.21398,0 35.2139,0 -1.2344,10.93375 c -0.679,6.01356 -1.6663,13.09863 -2.1941,15.74459 l -0.9595,4.81085 -33.02,0 -33.01988,0 0,-15.74459 z m -94.46758,298.55397 c 0,-41.69967 -0.51324,-91.142 -1.14051,-109.87184 l -1.14052,-34.05425 -28.16192,3.86581 c -15.48908,2.12618 -41.34804,5.62622 -57.46439,7.77788 l -29.30244,3.91208 0,98.59513 0,98.59516 7.43495,0.1438 c 7.28385,0.14082 105.88051,6.15816 108.46278,6.61946 0.72163,0.12893 1.31205,-33.88353 1.31205,-75.58318 z m -131.20792,26.39702 c -0.005,-75.43249 -2.15426,-153.23739 -4.21262,-152.53117 -1.04903,0.3599 -20.40724,3.05308 -43.01823,5.98485 -22.61099,2.93175 -44.06301,5.78243 -47.67114,6.33484 l -6.56025,1.0044 0,87.31621 0,87.31622 3.93615,0.14817 c 2.16488,0.0815 18.89351,1.15014 37.17474,2.37486 18.28123,1.22472 39.33963,2.33893 46.79644,2.476 l 13.55785,0.24917 -0.004,-40.67355 z M 639.26248,528.26867 c -0.12035,-47.10319 -0.38521,-85.80197 -0.5887,-85.99731 -0.20351,-0.19534 -7.45507,0.67632 -16.1146,1.93701 -8.65953,1.26068 -29.32431,4.08808 -45.92174,6.28309 l -30.17715,3.99094 0,77.31552 0,77.31555 26.67835,1.25467 c 14.67309,0.69006 34.55064,1.85943 44.17234,2.59859 9.6217,0.73915 18.54616,1.25395 19.83211,1.144 1.91989,-0.16409 2.29899,-15.51871 2.11939,-85.84206 z m -105.04798,3.30248 c 0,-71.7482 -0.17949,-76.16643 -3.06145,-75.35821 -1.6838,0.4722 -20.1837,3.0503 -41.1109,5.72911 l -38.04944,4.87055 0,68.48278 0,68.48277 31.92654,1.69775 c 17.5596,0.93378 36.05951,1.83598 41.1109,2.0049 l 9.18435,0.30713 0,-76.21678 z m -94.07109,4.34428 c 0.26301,-36.64336 0.32803,-66.77388 0.1445,-66.9567 -0.18354,-0.18283 -18.88025,2.04594 -41.54824,4.9528 l -41.21455,5.2852 0,59.0474 c 0,32.47606 0.59043,59.12826 1.31205,59.22708 3.52076,0.48217 65.34391,4.57717 72.55924,4.80613 l 8.26882,0.26239 0.47818,-66.6243 z m -93.11468,3.0138 0,-58.3623 -3.93615,0.64072 c -2.16489,0.35238 -18.83423,2.6112 -37.04298,5.01962 -18.20875,2.4084 -33.28492,4.56941 -33.50258,4.80224 -0.21768,0.23284 -0.67058,23.253 -1.00647,51.15593 l -0.61071,50.73259 9.6217,0.51926 c 5.29193,0.28559 19.85568,1.15537 32.36389,1.93286 12.50821,0.77748 25.30069,1.52785 28.42775,1.66749 l 5.68555,0.25389 0,-58.3623 z m -84.20596,3.02093 0.3809,-50.09315 -6.63331,1.01329 c -3.64833,0.55732 -18.61249,2.40537 -33.25372,4.1068 l -26.62039,3.0935 -0.49531,42.65946 c -0.2724,23.46272 -0.0833,43.32392 0.42028,44.13603 0.80106,1.29191 34.81015,4.18685 57.81883,4.92169 l 8.00181,0.25555 0.38091,-50.09317 z m -74.31737,2.38589 1.09978,-43.33379 -3.94736,0.83807 c -2.17106,0.46095 -14.37816,2.15382 -27.12691,3.76194 l -23.17955,2.92388 0,38.25979 0,38.25979 8.30965,0.20549 c 4.57031,0.11301 16.18195,0.70527 25.80364,1.3161 9.6217,0.61086 17.59457,1.10883 17.71749,1.10659 0.12298,-0.002 0.71839,-19.50429 1.32326,-43.33786 z M 978.63695,172.1874 c 3.17023,0 8.67207,-7.82874 8.67207,-12.33974 0,-12.93771 -16.629,-19.12608 -24.50136,-9.11801 -5.70654,7.25469 -2.68013,17.99282 6.07193,21.54405 1.95775,0.79438 4.60795,1.09993 5.88937,0.67901 1.2814,-0.42092 3.022,-0.76531 3.86799,-0.76531 z"
     id="path2917" />
</svg>
