<?xml version="1.0" encoding="UTF-8" standalone="no"?>
<!-- Created with Inkscape (http://www.inkscape.org/) -->

<svg
   xmlns:dc="http://purl.org/dc/elements/1.1/"
   xmlns:cc="http://creativecommons.org/ns#"
   xmlns:rdf="http://www.w3.org/1999/02/22-rdf-syntax-ns#"
   xmlns:svg="http://www.w3.org/2000/svg"
   xmlns="http://www.w3.org/2000/svg"
   xmlns:sodipodi="http://sodipodi.sourceforge.net/DTD/sodipodi-0.dtd"
   xmlns:inkscape="http://www.inkscape.org/namespaces/inkscape"
   version="1.0"
   width="471.43494"
   height="470.53604"
   id="svg2"
   inkscape:version="0.48.1 r9760"
   sodipodi:docname="Zeichen_363.svg">
  <metadata
     id="metadata9">
    <rdf:RDF>
      <cc:Work
         rdf:about="">
        <dc:format>image/svg+xml</dc:format>
        <dc:type
           rdf:resource="http://purl.org/dc/dcmitype/StillImage" />
        <dc:title />
      </cc:Work>
    </rdf:RDF>
  </metadata>
  <sodipodi:namedview
     pagecolor="#ffffff"
     bordercolor="#666666"
     borderopacity="1"
     objecttolerance="10"
     gridtolerance="10"
     guidetolerance="10"
     inkscape:pageopacity="0"
     inkscape:pageshadow="2"
     inkscape:window-width="825"
     inkscape:window-height="706"
     id="namedview7"
     showgrid="false"
     inkscape:zoom="0.76592971"
     inkscape:cx="272.51739"
     inkscape:cy="282.63958"
     inkscape:window-x="0"
     inkscape:window-y="0"
     inkscape:window-maximized="0"
     inkscape:current-layer="svg2"
     fit-margin-top="0"
     fit-margin-left="0"
     fit-margin-right="0"
     fit-margin-bottom="0" />
  <defs
     id="defs4" />
  <path
     d="M 26.763491,1 446.76831,1 c 10.81582,0.7906802 23.07189,11.843765 23.66646,24.864765 l 0,418.806515 c 0.0497,10.31854 -11.79351,24.19224 -25.16434,24.86477 l -419.405666,0 C 12.842327,469.53605 1,457.97898 1,444.37171 L 1.5991509,26.16434 C 1.5991509,12.652085 10.402202,1 26.763491,1 z"
     style="fill:#ffffff;fill-opacity:1;fill-rule:evenodd;stroke:#000000;stroke-width:2;stroke-linecap:butt;stroke-linejoin:miter;stroke-miterlimit:4;stroke-opacity:1;stroke-dasharray:none"
     id="path3669"
     inkscape:connector-curvature="0" />
  <path
     d="m 389.62597,11.946726 0,0.03125 -308.968753,0 0,0.03125 -49.5625,0 c -11.760613,-0.514916 -18.473169,7.51921 -18.03125,20.375 l 0,406.406254 c 0.04655,8.6672 3.728171,19.07043 15.6875,19.28125 l 51.3125,0 309.562503,-0.0625 0,0.0312 53.5625,0 c 11.95933,-0.21075 15.6722,-10.614 15.71875,-19.2812 l 0,-406.437504 c 0.44191,-12.855791 -6.27063,-20.88992 -18.03125,-20.375 l -51.25,0 z m 0,66.5 0,312.906254 -307.281253,0.21875 0,-313.062504 307.281253,-0.0625 z"
     style="fill:#154889;fill-opacity:1;fill-rule:evenodd;stroke:none"
     id="path3661"
     inkscape:connector-curvature="0" />
  <path
     style="fill:#000000;fill-rule:evenodd;stroke:none"
     d="m 227.71972,196.88423 a 7.564639,7.564639 0 0 0 -7.5625,7.5625 l 0,7.5625 -3.78125,0 a 7.564639,7.564639 0 0 0 -7,4.65625 l -4.375,10.46875 a 143.72915,143.72915 0 0 1 -17.78125,69.25 l -16.28125,29.65625 a 30.25879,30.25879 0 0 0 -3.75,14.5625 22.694073,22.694073 0 0 0 34.03125,19.65625 22.694073,22.694073 0 0 0 11.34375,-19.65625 l 0,-92.65625 7.59375,0 0,104.03125 7.5625,0 0,11.34375 75.625,0 0,-11.34375 7.5625,0 0,-147.53125 a 7.564639,7.564639 0 0 0 -7.5625,-7.5625 l -75.625,0 z m 15.125,15.125 45.375,0 a 7.564639,7.564639 0 0 1 7.5625,7.5625 l 0,34.0625 a 7.564639,7.564639 0 0 1 -7.5625,7.5625 l -45.375,0 a 7.564639,7.564639 0 0 1 -7.5625,-7.5625 l 0,-34.0625 a 7.564639,7.564639 0 0 1 7.5625,-7.5625 z m -37.84375,62.375 0,66.21875 a 15.129434,15.129434 0 0 1 -7.5625,13.125 15.129434,15.129434 0 0 1 -22.6875,-13.125 22.694073,22.694073 0 0 1 2.8125,-10.90625 l 16.3125,-29.65625 a 151.29387,151.29387 0 0 0 11.125,-25.65625 z"
     id="path10"
     inkscape:connector-curvature="0" />
  <path
     d="m 310.91986,336.83316 43.49701,0 0,-11.347 7.56471,0 -8e-5,-147.51151 a 7.564639,7.564639 0 0 0 -7.56463,-7.56464 l -75.64694,0 a 7.564639,7.564639 0 0 0 -7.56464,7.56464 l -8e-5,7.56463 -3.78236,0 a 7.564639,7.564639 0 0 0 -6.98274,4.65516 l -2.00029,6.69192 27.89483,0 0,-3.78244 a 7.564639,7.564639 0 0 1 7.56464,-7.56464 l 45.38814,0 a 7.564639,7.564639 0 0 1 7.56464,7.56464 l 0,34.04115 a 7.564639,7.564639 0 0 1 -7.56464,7.56464 l -28.36757,8e-5 0,102.12337 z"
     id="path14"
     inkscape:connector-curvature="0"
     style="fill:#154889;fill-opacity:1;fill-rule:evenodd;stroke:none" />
  <path
     d="m 113.10584,173.00815 v -65.80012 h 9.98067 v 56.40656 h 32.10974 v 9.39356 h -42.09041 z m 61.37431,-56.36139 v 21.22584 h 14.81293 q 5.55485,0 8.26454,-3.34194 2.70968,-3.34194 2.75484,-7.27098 0,-5.9613 -4.29033,-8.76131 -2.75485,-1.85161 -7.09034,-1.85161 h -14.45164 z m -9.98066,56.36139 v -65.80012 h 23.89037 q 3.83872,0 7.3613,0.8129 3.52259,0.8129 7.40646,3.79356 2.98066,2.30323 5.05808,6.32259 2.07742,4.01936 2.07742,9.39356 0,7.04518 -5.23872,13.41293 -5.23872,6.36776 -15.40003,6.36776 h -15.17422 v 25.69682 h -9.98066 z m 76.18724,-26.7807 v -9.43872 h 23.39359 v 13.41293 q 0,9.80002 -6.81937,16.57422 -6.81936,6.77421 -16.66455,6.77421 -7.76775,0 -13.00647,-3.70324 -5.23872,-3.70323 -7.58711,-8.08388 -1.62581,-2.89033 -2.25807,-6.32259 -0.63226,-3.43226 -0.63226,-15.30971 0,-11.87744 0.63226,-15.3097 0.63226,-3.43227 2.25807,-6.3226 2.30323,-4.29033 7.54195,-8.08389 5.23872,-3.79355 13.05163,-3.79355 9.34841,0 15.44519,5.73549 6.09679,5.7355 7.67744,13.77423 h -10.5226 q -1.21936,-3.79356 -4.51614,-6.63872 -3.29678,-2.84517 -8.08389,-2.84517 -3.52258,0 -6.09678,1.44516 -2.5742,1.44517 -4.06453,3.34194 -1.94193,2.52904 -2.61935,5.55485 -0.67743,3.02581 -0.72259,13.14196 0,10.16131 0.67743,13.18713 0.67742,3.0258 2.66451,5.46452 1.49033,1.9871 4.06453,3.3871 2.5742,1.40001 6.09678,1.44517 5.69034,0 9.57422,-3.88389 3.88387,-3.88387 3.92904,-10.11614 v -3.38711 h -13.41293 z"
     id="path16"
     inkscape:connector-curvature="0"
     style="fill:#000000;fill-rule:evenodd;stroke:none" />
</svg>
