<?xml version="1.0" encoding="UTF-8" standalone="no"?>
<!-- Created with Inkscape (http://www.inkscape.org/) -->

<svg
   xmlns:dc="http://purl.org/dc/elements/1.1/"
   xmlns:cc="http://creativecommons.org/ns#"
   xmlns:rdf="http://www.w3.org/1999/02/22-rdf-syntax-ns#"
   xmlns:svg="http://www.w3.org/2000/svg"
   xmlns="http://www.w3.org/2000/svg"
   xmlns:sodipodi="http://sodipodi.sourceforge.net/DTD/sodipodi-0.dtd"
   xmlns:inkscape="http://www.inkscape.org/namespaces/inkscape"
   version="1.0"
   width="471.43494"
   height="470.53604"
   id="svg2"
   inkscape:version="0.48.1 r9760"
   sodipodi:docname="Zeichen_376.svg">
  <metadata
     id="metadata13">
    <rdf:RDF>
      <cc:Work
         rdf:about="">
        <dc:format>image/svg+xml</dc:format>
        <dc:type
           rdf:resource="http://purl.org/dc/dcmitype/StillImage" />
      </cc:Work>
    </rdf:RDF>
  </metadata>
  <sodipodi:namedview
     pagecolor="#ffffff"
     bordercolor="#666666"
     borderopacity="1"
     objecttolerance="10"
     gridtolerance="10"
     guidetolerance="10"
     inkscape:pageopacity="0"
     inkscape:pageshadow="2"
     inkscape:window-width="640"
     inkscape:window-height="484"
     id="namedview11"
     showgrid="false"
     fit-margin-top="0"
     fit-margin-left="0"
     fit-margin-right="0"
     fit-margin-bottom="0"
     inkscape:zoom="0.49166667"
     inkscape:cx="235.90722"
     inkscape:cy="235.30807"
     inkscape:window-x="0"
     inkscape:window-y="0"
     inkscape:window-maximized="0"
     inkscape:current-layer="svg2" />
  <defs
     id="defs4" />
  <path
     d="M 26.763491,1 446.76831,1 c 10.81582,0.7906802 23.07189,11.843765 23.66646,24.864765 l 0,418.806515 c 0.0497,10.31854 -11.79351,24.19224 -25.16434,24.86477 l -419.405666,0 C 12.842327,469.53605 1,457.97898 1,444.37171 L 1.5991509,26.16434 C 1.5991509,12.652085 10.402202,1 26.763491,1 z"
     style="fill:#ffffff;fill-opacity:1;fill-rule:evenodd;stroke:#000000;stroke-width:2;stroke-linecap:butt;stroke-linejoin:miter;stroke-miterlimit:4;stroke-opacity:1;stroke-dasharray:none"
     id="path3669"
     inkscape:connector-curvature="0" />
  <g
     transform="matrix(2.53276,0,0,2.53276,109.53802,108.16678)"
     style="fill:#000000"
     id="XMLID_4_">
    <g
       style="fill:#000000"
       id="g1954">
      <path
         d="m 100.25,91.111 c 0,0.958 0,1.914 0,2.872 -1.204,2.975 -3.293,5.063 -6.267,6.267 -0.958,0 -1.914,0 -2.872,0 C 75.829,83.885 60.542,68.339 45.419,51.686 42.513,48.488 39.134,44.078 35.236,46.726 34.369,47.313 33.638,48.575 33.147,48.554 33.217,48.557 30.87,46.277 29.753,45.16 26.061,41.468 22.393,37.538 19.309,34.455 14.766,29.912 8.63,24.893 5.471,20.356 3.018,16.827 -3.259,3.221 3.383,0.25 c 0.958,0 1.914,0 2.872,0 2.402,1.441 4.329,3.545 6.267,5.483 28.608,28.608 57.739,57.742 87.728,85.378 z"
         style="fill:#000000"
         id="path1956"
         inkscape:connector-curvature="0" />
      <path
         d="m 100.25,11.216 c 0,0.608 0,1.22 0,1.828 -1.293,1.188 -2.382,2.708 -3.395,4.178 -1.039,1.509 -2.091,2.956 -3.133,4.438 -3.559,5.068 -6.533,11.682 -12.533,13.577 -3.047,0.961 -6.203,0.003 -9.399,1.044 -6.083,1.982 -8.986,8.974 -13.838,12.271 -2.154,-2.109 -4.546,-3.984 -6.267,-6.527 2.029,-1.739 4.154,-3.564 6.267,-5.483 1.9,-1.726 4.34,-3.956 5.483,-6.267 1.775,-3.584 0.543,-8.527 2.089,-12.271 0.621,-1.504 1.908,-2.091 2.35,-3.655 6.318,-4.909 13.29,-9.164 19.582,-14.099 0.608,0 1.22,0 1.828,0 1.54,1.545 -1.736,4.086 -3.134,5.483 -3.282,3.282 -5.772,5.773 -8.877,8.877 -1.441,1.441 -4.042,2.687 -3.395,4.961 2.329,0.297 3.596,-2.29 4.961,-3.656 2.919,-2.919 5.794,-5.793 8.877,-8.877 1.301,-1.3 2.964,-3.833 5.223,-3.133 0.838,2.446 -2.037,3.835 -3.395,5.222 -2.972,3.036 -5.768,6.29 -8.877,9.399 -1.1,1.099 -4.151,2.7 -3.134,4.7 1.93,-0.019 3.17,-2.47 4.7,-3.917 2.992,-2.831 6.05,-5.527 9.138,-8.616 1.312,-1.311 2.719,-4.154 5.223,-3.133 0.465,2.277 -2.061,3.888 -3.395,5.222 -2.942,2.942 -5.799,5.799 -8.877,8.877 -1.303,1.303 -3.943,2.611 -3.395,4.961 1.927,0.355 3.643,-2.076 4.961,-3.394 2.924,-2.924 5.788,-5.789 8.877,-8.877 1.345,-1.345 2.574,-3.754 4.961,-3.655 0.117,0.232 0.231,0.467 0.524,0.522 z"
         style="fill:#000000"
         id="path1958"
         inkscape:connector-curvature="0" />
      <path
         d="m 42.286,51.425 c 2.329,2.285 4.896,4.332 6.789,7.05 C 35.78,72.334 22.55,86.258 9.388,100.25 c -0.958,0 -1.914,0 -2.872,0 -2.963,-1.128 -4.971,-3.212 -6.266,-6.005 0,-1.131 0,-2.264 0,-3.395 C 14.506,77.952 27.908,64.2 42.286,51.425 z"
         style="fill:#000000"
         id="path1960"
         inkscape:connector-curvature="0" />
    </g>
  </g>
  <path
     d="m 389.62597,11.946726 0,0.03125 -308.968753,0 0,0.03125 -49.5625,0 c -11.760613,-0.514916 -18.473169,7.51921 -18.03125,20.375 l 0,406.406254 c 0.04655,8.6672 3.728171,19.07043 15.6875,19.28125 l 51.3125,0 309.562503,-0.0625 0,0.0312 53.5625,0 c 11.95933,-0.21075 15.6722,-10.614 15.71875,-19.2812 l 0,-406.437504 c 0.44191,-12.855791 -6.27063,-20.88992 -18.03125,-20.375 l -51.25,0 z m 0,66.5 0,312.906254 -307.281253,0.21875 0,-313.062504 307.281253,-0.0625 z"
     style="fill:#154889;fill-opacity:1;fill-rule:evenodd;stroke:none"
     id="path3661"
     inkscape:connector-curvature="0" />
</svg>
