<?xml version="1.0" encoding="UTF-8" standalone="no"?>
<!-- Created with Inkscape (http://www.inkscape.org/) -->

<svg
   xmlns:dc="http://purl.org/dc/elements/1.1/"
   xmlns:cc="http://creativecommons.org/ns#"
   xmlns:rdf="http://www.w3.org/1999/02/22-rdf-syntax-ns#"
   xmlns:svg="http://www.w3.org/2000/svg"
   xmlns="http://www.w3.org/2000/svg"
   xmlns:sodipodi="http://sodipodi.sourceforge.net/DTD/sodipodi-0.dtd"
   xmlns:inkscape="http://www.inkscape.org/namespaces/inkscape"
   version="1.0"
   width="480"
   height="712"
   id="svg2"
   style="display:inline"
   inkscape:version="0.48.1 r9760"
   sodipodi:docname="Zeichen_357-50.svg">
  <sodipodi:namedview
     pagecolor="#ffffff"
     bordercolor="#666666"
     borderopacity="1"
     objecttolerance="10"
     gridtolerance="10"
     guidetolerance="10"
     inkscape:pageopacity="0"
     inkscape:pageshadow="2"
     inkscape:window-width="640"
     inkscape:window-height="484"
     id="namedview17"
     showgrid="false"
     inkscape:zoom="0.33146067"
     inkscape:cx="240"
     inkscape:cy="356"
     inkscape:window-x="0"
     inkscape:window-y="0"
     inkscape:window-maximized="0"
     inkscape:current-layer="svg2" />
  <metadata
     id="metadata10">
    <rdf:RDF>
      <cc:Work
         rdf:about="">
        <dc:format>image/svg+xml</dc:format>
        <dc:type
           rdf:resource="http://purl.org/dc/dcmitype/StillImage" />
        <dc:title></dc:title>
      </cc:Work>
    </rdf:RDF>
  </metadata>
  <defs
     id="defs4" />
  <path
     d="m 33.37,4.7 412.23,0 c 17.3,0.2 28.5,10.4 29.1,31.4 l 0,640.8 c 0.1,15.7 -9.1,29 -29.2,29.4 l -410.18,0 c -17.9,-0.4 -29.967,-16 -30.401,-31 L 5.519,34.2 C 5.519,24.1 13.94,4.7 33.37,4.7 z"
     id="path3669"
     style="fill:#ffffff;fill-opacity:1;fill-rule:evenodd;stroke:#000000;stroke-width:2.4482;stroke-linecap:butt;stroke-linejoin:miter;stroke-miterlimit:4;stroke-opacity:1;stroke-dasharray:none" />
  <path
     d="M 35.19,16 C 24.71,16 17.1,27.3 17.16,35.5 l 0,638.1 c 0,13.2 8.99,21.2 19.78,21.2 l 407.16,0 c 9.6,0 18.9,-8.3 18.9,-19.2 l 0.3,-640 C 463.3,21.9 451.2,15.9 444.7,15.9 308.2,15.7 171.7,16.4 35.19,16 z"
     id="path3661"
     style="fill:#154889;fill-opacity:1;fill-rule:evenodd;stroke:none" />
  <path
     d="m 84.59,81.5 0,228.8 143.81,0 0,51.4 -98.7,0 0,74.5 79.3,0 0,261.5 62.2,0 -0.1,-261.5 79.3,0 -0.1,-74.5 -98.7,0 0,-51.4 143.8,0 0,-228.8 -310.81,0 z"
     id="path1883"
     style="fill:#ffffff;fill-opacity:1;fill-rule:evenodd;stroke:none" />
  <path
     d="m 136.5,368.5 207,0 0,60.2 -207,0 0,-60.2 z"
     id="path1885"
     style="fill:#cc0000;fill-opacity:1;fill-rule:evenodd;stroke:none" />
  <g
     transform="matrix(0.2492,0,0,0.2492,96.13,97.55)"
     id="g3024"
     style="display:inline">
    <circle
       cx="188"
       cy="105"
       r="56"
       id="circle3009"
       style="fill:#000000;stroke:none"
       d="m 244,105 c 0,30.92795 -25.07205,56 -56,56 -30.92795,0 -56,-25.07205 -56,-56 0,-30.927946 25.07205,-56 56,-56 30.92795,0 56,25.072054 56,56 z" />
    <path
       d="M 22,427 C 173.7,190.3 159.3,183.7 216,182 c 33,1 34,10 90,54 69,50.7 64,51.3 63,107 -0.3,67 4.3,62 -49,87 l 0,-113 -47,-42 0,159 -112,-1 -1,-126 C 68,449 74,441 22,427 z"
       id="path3011"
       style="fill:#000000;stroke:none" />
    <path
       d="m 163,450 109,0 c 0,25 8,23 66,132 61,112.3 62,104.7 27,169 L 214,480 C 71,756.7 89,748.3 10,743 L 89,595 c 67.7,-122.3 71.3,-122.7 74,-145 z"
       id="path3013"
       style="fill:#000000;stroke:none" />
  </g>
  <g
     transform="matrix(0.1846,0,0,0.1846,205.8,174.4)"
     id="g3099"
     style="display:inline">
    <circle
       cx="215"
       cy="409"
       r="161"
       id="circle3084"
       style="fill:none;stroke:#000000;stroke-width:40px"
       d="m 376,409 c 0,88.91784 -72.08216,161 -161,161 -88.91784,0 -161,-72.08216 -161,-161 0,-88.91784 72.08216,-161 161,-161 88.91784,0 161,72.08216 161,161 z" />
    <circle
       cx="790"
       cy="406"
       r="161"
       id="circle3086"
       style="fill:none;stroke:#000000;stroke-width:40px"
       d="m 951,406 c 0,88.91784 -72.08216,161 -161,161 -88.91784,0 -161,-72.08216 -161,-161 0,-88.91784 72.08216,-161 161,-161 88.91784,0 161,72.08216 161,161 z" />
    <path
       d="M 429.5,15.47 C 296.9,16.76 319.4,1.771 248.1,231 190,414.1 196.3,394.2 196,407 c -0.2,10 7.8,17.9 18,18.6 21,-2.2 12.2,2.2 85.2,-224.4 266.7,281.3 166.6,235.7 310.1,241.4 188.7,-1.8 204,9.8 206.3,-17.8 -0.3,-9.4 -4.7,-15 -134.2,-303.1 l 12.4,-34.14 42.7,-0.77 -1.6,-35.66 -158.9,0 c -14,19.21 5.7,19.12 76.8,34.88 l -12.4,34.89 -317.1,0.8 c 21.3,-74.62 9.3,-69.97 105.4,-69.8 l 0.8,-36.43 z M 314.1,159.9 624.4,159.4 534.7,400.3 314.1,159.9 z m 347.7,14.3 -88,231.1 192.5,0.5 -104.5,-231.6 z"
       id="path3088"
       style="fill:#000000;fill-rule:evenodd;stroke:none" />
  </g>
</svg>
