<?xml version="1.0" encoding="utf-8"?>
<!-- Generator: Adobe Illustrator 13.0.2, SVG Export Plug-In . SVG Version: 6.00 Build 14948)  -->
<!DOCTYPE svg PUBLIC "-//W3C//DTD SVG 1.0//EN" "http://www.w3.org/TR/2001/REC-SVG-20010904/DTD/svg10.dtd">
<svg version="1.0" id="svg2" xmlns:svg="http://www.w3.org/2000/svg"
	 xmlns="http://www.w3.org/2000/svg" xmlns:xlink="http://www.w3.org/1999/xlink" x="0px" y="0px" width="470px" height="350px"
	 viewBox="0 0 470 350" enable-background="new 0 0 470 350" xml:space="preserve">
<path id="path1892" fill="#FFFFFF" stroke="#000000" stroke-width="2" d="M6.253,30.624L5.558,319.988
	c0,17.041,15.99,26.227,25.907,26.227l407.2,0.464c9.21,0,25.479-13.497,25.479-28.024V30.709c0-12.05-8.378-26.813-27.946-27.126
	H33.133C15.779,3.271,6.253,18.091,6.253,30.624z"/>
<path id="path2766" fill="none" stroke="#000000" stroke-width="10" d="M18.992,40.7L18.67,311.41
	c0,15.538,6.769,22.039,19.561,22.039l397.52-0.514c8.397,0,15.108-4.81,15.421-15.556l0.312-282.85
	c0-10.987-10.616-18.797-20.483-18.797L40.376,16.045C26.906,16.045,18.68,24.899,18.992,40.7z"/>
<path id="path4538" d="M51.697,278.689v27.246l275.027,0.047l-0.046-27.414L51.697,278.689z"/>
<path id="path4542" fill="none" stroke="#000000" stroke-width="2" d="M326.668,279.57l28.551,0.029l4.878,11.32l15.92,5.981
	l8.099-3.037l5.798-1.472v-3.129l6.441-6.35l4.785,0.275l0.889-3.49l15.24-0.049l0.057,25.203l-90.829,0.461"/>
<path id="path5429" fill="none" stroke="#000000" stroke-width="2" d="M326.608,287.232l7.143-1.623l3.571,5.735l-2.598,5.194
	l-7.684,1.082"/>
<path id="path6316" fill="none" stroke="#000000" stroke-width="2" d="M334.56,296.893l4.591,4.133l2.143-3.061h7.652l3.521-3.521
	l-4.592-0.765l-2.143-3.215l-1.225-1.836l-7.652,1.989"/>
<path id="path7203" fill="none" stroke="#000000" stroke-width="2" d="M333.967,285.393l2.272-2.381l5.411,0.975l2.922,4.437"/>
<path id="path7205" fill="none" stroke="#000000" stroke-width="2" d="M345.763,289.83l4.654-4.221"/>
<path id="path7207" fill="none" stroke="#000000" stroke-width="2" d="M348.793,280.523l-0.108,2.597l7.311,7.917l-3.22,3.068"/>
<path id="path7209" fill="none" stroke="#000000" stroke-width="2" d="M358.365,288.943l-1.947,1.623"/>
<path id="path7211" fill="none" stroke="#000000" stroke-width="2" d="M349.01,297.946l5.086,0.325l2.988,6.51"/>
<path id="path7213" fill="none" stroke="#000000" stroke-width="2" d="M354.745,299.028l7.034,0.325"/>
<path id="path7215" fill="none" stroke="#000000" stroke-width="2" d="M364.816,293.342l-2.929,6.012l2.562,3.393l0.346,2.08"/>
<path id="path7217" fill="none" stroke="#000000" stroke-width="2" d="M337.105,304.439l1.836-3.048"/>
<path id="path7219" fill="none" stroke="#000000" stroke-width="2" d="M364.269,302.491l9.848-0.866l1.732-4.545"/>
<path id="path7221" fill="none" stroke="#000000" stroke-width="2" d="M377.039,304.331l-2.814-2.706"/>
<path id="path7223" fill="none" stroke="#000000" stroke-width="2" d="M384.073,294.375l3.679,5.736l3.68,0.541l-0.108,3.787"/>
<path id="path7225" fill="none" stroke="#000000" stroke-width="2" d="M389.809,292.427l10.064-1.731l4.438,4.438l1.002,6.323
	l-1.544,2.55"/>
<path id="path7227" fill="none" stroke="#000000" stroke-width="2" d="M400.414,283.553l-0.364,7.299"/>
<path id="path7229" fill="none" stroke="#000000" stroke-width="2" d="M404.169,294.455l3.388-1.162l2.598-4.654l-2.598-3.68
	l-5.779-1.645"/>
<path id="path7231" fill="none" stroke="#000000" stroke-width="2" d="M407.882,280.523l0.057,4.822"/>
<path id="path7233" fill="none" stroke="#000000" stroke-width="2" d="M410.349,288.527l3.81-1.403l2.705,0.216"/>
<path id="path7235" fill="none" stroke="#000000" stroke-width="2" d="M416.863,301.518l-4.762-0.975l-2.813-1.299l-3.571,1.624"/>
<path id="path8122" fill="none" stroke="#000000" stroke-width="2" d="M335.336,280.076l1.229,3.033"/>
<path id="path8124" fill="none" stroke="#000000" stroke-width="2" d="M341.633,283.916l1.767-3.84"/>
<g>
	<path id="path3776" d="M238.397,216.229l166.042,13.861l12.726-151.71c0.442-5.289-6.358-14.644-12.479-15.154L265.883,51.778
		c-6.35-0.531-14.203,6.781-14.656,12.221L238.397,216.229z"/>
	<g id="g2857" transform="translate(-813.734,-325.4936)">
		<g id="g2862" transform="matrix(0.68555,0,0,0.68555,330.8438,208.2917)">
			<path id="path3780" d="M1056.006,492.116l27.695,2.311l2.926,5.34l-5.832,71.094l-5.62,4.617l-25.028-1.775l-3.932-4.674
				l6.359-73.673L1056.006,492.116z"/>
			<path id="path3784" d="M1096.355,495.979l-3.447,3.229l-6.363,73.679l3.957,4.678l25.02,1.781l5.63-4.615l1.913-23.286
				l3.098-2.761l19.734,1.554l-0.046,0.923l2.761,0.165c-0.08,1.977,10.019,12.93,20.104,13.771l0.007-0.061
				c10.075,0.821,21.792-8.263,22.04-10.219l2.749,0.292l0.144-0.947l19.714,1.768l2.489,3.078l-2.105,24.5l3.924,4.675
				l25.023,1.783l5.63-4.621l5.812-71.104l-2.916-5.332l-27.691-2.312l-3.45,3.228l-2,23.275l-4.295,3.746l-18.585-1.618
				l0.113-0.947l-3.001-0.279c0.238-2.833-9.803-12.725-19.902-13.568l-0.003,0.033c-10.091-0.822-21.611,7.282-21.849,10.113
				l-3.003-0.249l-0.081,0.979l-18.597-1.523l-3.695-4.503l1.779-21.658l-2.92-5.332L1096.355,495.979z"/>
			<path id="path3788" d="M1263.655,509.358l27.692,2.311l2.925,5.342l-5.831,71.092l-5.618,4.62l-25.031-1.778l-3.933-4.671
				l6.359-73.678L1263.655,509.358z"/>
		</g>
	</g>
</g>
<line fill="none" stroke="#000000" stroke-width="2" x1="359.7" y1="285.016" x2="368.384" y2="288.846"/>
<line fill="none" stroke="#000000" stroke-width="2" x1="368.384" y1="288.846" x2="369.405" y2="293.954"/>
<line fill="none" stroke="#000000" stroke-width="2" x1="370.044" y1="284.888" x2="371.832" y2="289.101"/>
<line fill="none" stroke="#000000" stroke-width="2" x1="371.832" y1="289.101" x2="383.393" y2="294.003"/>
<line fill="none" stroke="#000000" stroke-width="2" x1="379.749" y1="286.164" x2="379.621" y2="291.911"/>
<line fill="none" stroke="#000000" x1="379.621" y1="291.911" x2="389.454" y2="288.719"/>
<line fill="none" stroke="#000000" x1="372.269" y1="289.78" x2="368.384" y2="288.335"/>
</svg>
