<?xml version="1.0" encoding="UTF-8" standalone="no"?>
<!-- Created with Inkscape (http://www.inkscape.org/) -->

<svg
   xmlns:dc="http://purl.org/dc/elements/1.1/"
   xmlns:cc="http://creativecommons.org/ns#"
   xmlns:rdf="http://www.w3.org/1999/02/22-rdf-syntax-ns#"
   xmlns:svg="http://www.w3.org/2000/svg"
   xmlns="http://www.w3.org/2000/svg"
   xmlns:sodipodi="http://sodipodi.sourceforge.net/DTD/sodipodi-0.dtd"
   xmlns:inkscape="http://www.inkscape.org/namespaces/inkscape"
   version="1.0"
   width="969.10394"
   height="327.79291"
   id="svg2"
   inkscape:version="0.48.1 r9760"
   sodipodi:docname="Zeichen_385-50.svg">
  <metadata
     id="metadata9">
    <rdf:RDF>
      <cc:Work
         rdf:about="">
        <dc:format>image/svg+xml</dc:format>
        <dc:type
           rdf:resource="http://purl.org/dc/dcmitype/StillImage" />
      </cc:Work>
    </rdf:RDF>
  </metadata>
  <sodipodi:namedview
     pagecolor="#ffffff"
     bordercolor="#666666"
     borderopacity="1"
     objecttolerance="10"
     gridtolerance="10"
     guidetolerance="10"
     inkscape:pageopacity="0"
     inkscape:pageshadow="2"
     inkscape:window-width="949"
     inkscape:window-height="910"
     id="namedview7"
     showgrid="false"
     fit-margin-top="0"
     fit-margin-left="0"
     fit-margin-right="0"
     fit-margin-bottom="0"
     inkscape:zoom="0.5556701"
     inkscape:cx="484.35833"
     inkscape:cy="164.45567"
     inkscape:window-x="0"
     inkscape:window-y="0"
     inkscape:window-maximized="0"
     inkscape:current-layer="svg2" />
  <defs
     id="defs4" />
  <path
     d="m 34.598746,1.1829549 903.601964,0 c 12.78048,0.8522313 29.74862,7.7973997 29.72024,22.9301911 L 967.2991,293.73014 c 0.10154,7.06414 -6.38392,32.41941 -33.71478,32.87982 L 35.87095,325.67718 c -26.618724,0 -35.27892018,-13.19779 -34.657068,-33.08492 L 1.505808,31.158611 c 0,-9.250586 -0.3506189,-29.9756561 33.092938,-29.9756561 z"
     style="fill:#f0ca00;fill-opacity:1;fill-rule:evenodd;stroke:#000000;stroke-width:2.36590981;stroke-linecap:butt;stroke-linejoin:miter;stroke-miterlimit:4;stroke-opacity:1;stroke-dasharray:none"
     id="path3669"
     inkscape:connector-curvature="0" />
  <path
     d="M 37.076659,15.493679 C 23.266309,14.838178 15.701973,19.281721 16.629831,30.372036 l 0,270.406534 c 0.09774,5.79996 6.584021,12.76165 17.080484,12.59179 l 904.361165,0.29003 c 7.07628,0.16986 14.56095,-7.10277 14.65868,-12.90274 l 0,-271.982068 c -0.005,-8.913834 -4.7709,-13.046453 -16.71571,-13.634654 L 37.076659,15.493679 z"
     style="fill:#008754;fill-opacity:1;fill-rule:evenodd;stroke:none"
     id="path3661"
     inkscape:connector-curvature="0" />
  <path
     d="m 258.50181,229.49597 -33.95989,-134.551854 21.77155,0 21.30634,95.673104 0.37216,0 26.33055,-95.673104 14.79349,0 26.33054,95.673104 0.37217,0 21.30634,-95.673104 21.77154,0 -33.95989,134.551854 -17.1195,0 -25.95838,-96.96599 -0.37217,0 -25.86534,96.96599 -17.11951,0 z m 209.90004,-40.63337 -60.10436,0 c -2e-5,7.88044 2.15542,13.79074 6.46634,17.73092 4.31085,3.94023 9.81576,5.91033 16.51474,5.91031 8.00145,2e-5 15.07255,-3.07826 21.21331,-9.23485 l 14.04916,11.91296 c -4.77618,5.54092 -10.15704,9.49652 -16.14259,11.86679 -5.98569,2.37028 -12.23492,3.55542 -18.74771,3.55542 -9.9244,0 -19.5386,-3.18602 -28.84265,-9.55807 -9.3041,-6.37205 -13.95613,-19.40857 -13.95612,-39.10962 -10e-6,-18.65434 4.29537,-31.55235 12.88614,-38.69405 8.59074,-7.14153 17.56917,-10.71233 26.93532,-10.71243 10.60659,1e-4 19.87965,3.64786 27.8192,10.9433 7.9394,7.29562 11.90913,17.13073 11.90922,29.50536 l 0,15.88396 z m -60.10436,-15.88396 40.75188,0 c -0.31021,-7.20312 -2.35711,-12.71324 -6.1407,-16.53039 -3.78371,-3.81699 -8.52879,-5.72553 -14.23524,-5.72561 -5.76858,8e-5 -10.56017,1.90862 -14.3748,5.72561 -3.81471,3.81715 -5.81509,9.32727 -6.00114,16.53039 l 0,0 z m 81.13158,56.51733 0,-95.85781 19.44553,0 0,95.85781 -19.44553,0 z m 0,-115.25101 0,-19.300844 19.44553,0 0,19.300844 -19.44553,0 z m 45.21782,92.07152 0,-111.372364 19.44553,0 0,109.802434 c -3e-5,4.43275 2.41902,6.64912 7.25717,6.6491 l 6.60591,0 0,18.10032 -8.55976,0 c -7.07113,0 -12.9637,-1.70845 -17.67775,-5.12535 -4.71408,-3.41689 -7.07112,-9.43493 -7.0711,-18.05414 l 0,0 z m 123.93034,-17.45388 -60.10435,0 c -3e-5,7.88044 2.15541,13.79074 6.46633,17.73092 4.31085,3.94023 9.81576,5.91033 16.51474,5.91031 8.00145,2e-5 15.07254,-3.07826 21.2133,-9.23485 l 14.04916,11.91296 c -4.77617,5.54092 -10.15702,9.49652 -16.14257,11.86679 -5.98569,2.37028 -12.23493,3.55542 -18.74773,3.55542 -9.92439,0 -19.5386,-3.18602 -28.84264,-9.55807 -9.3041,-6.37205 -13.95613,-19.40857 -13.95612,-39.10962 -10e-6,-18.65434 4.29537,-31.55235 12.88615,-38.69405 8.59074,-7.14153 17.56916,-10.71233 26.93531,-10.71243 10.60659,1e-4 19.87965,3.64786 27.81919,10.9433 7.9394,7.29562 11.90914,17.13073 11.90923,29.50536 l 0,15.88396 z m -60.10435,-15.88396 40.75186,0 c -0.31021,-7.20312 -2.3571,-12.71324 -6.14069,-16.53039 -3.78372,-3.81699 -8.52879,-5.72553 -14.23524,-5.72561 -5.76857,8e-5 -10.56017,1.90862 -14.37481,5.72561 -3.8147,3.81715 -5.81507,9.32727 -6.00112,16.53039 l 0,0 z m 80.57334,56.51733 0,-95.85781 19.44552,0 0,10.2507 0.37217,0 c 6.0166,-7.5725 14.39026,-11.35878 25.12102,-11.35888 7.07103,1e-4 13.80097,2.46273 20.18984,7.38788 l -14.04916,16.62275 c -4.2179,-3.13978 -8.49778,-4.7097 -12.83962,-4.70978 -4.77614,8e-5 -9.10254,1.5854 -12.9792,4.75594 -3.87672,3.17071 -5.81508,8.26526 -5.81505,15.2837 l 0,57.6255 -19.44552,0 z"
     style="font-size:189.83737183px;font-style:normal;font-variant:normal;font-weight:normal;font-stretch:normal;text-align:center;line-height:100%;writing-mode:lr-tb;text-anchor:middle;fill:#f0ca00;fill-opacity:1;stroke:none;font-family:DIN 1451 Mittelschrift"
     id="text5574"
     inkscape:connector-curvature="0" />
</svg>
