<?xml version="1.0" encoding="UTF-8" standalone="no"?>
<!-- Created with Inkscape (http://www.inkscape.org/) -->

<svg
   xmlns:dc="http://purl.org/dc/elements/1.1/"
   xmlns:cc="http://creativecommons.org/ns#"
   xmlns:rdf="http://www.w3.org/1999/02/22-rdf-syntax-ns#"
   xmlns:svg="http://www.w3.org/2000/svg"
   xmlns="http://www.w3.org/2000/svg"
   xmlns:sodipodi="http://sodipodi.sourceforge.net/DTD/sodipodi-0.dtd"
   xmlns:inkscape="http://www.inkscape.org/namespaces/inkscape"
   version="1.0"
   width="970"
   height="330"
   id="svg2"
   inkscape:version="0.48.1 r9760"
   sodipodi:docname="Zeichen_386-1.svg">
  <metadata
     id="metadata10">
    <rdf:RDF>
      <cc:Work
         rdf:about="">
        <dc:format>image/svg+xml</dc:format>
        <dc:type
           rdf:resource="http://purl.org/dc/dcmitype/StillImage" />
      </cc:Work>
    </rdf:RDF>
  </metadata>
  <sodipodi:namedview
     pagecolor="#ffffff"
     bordercolor="#666666"
     borderopacity="1"
     objecttolerance="10"
     gridtolerance="10"
     guidetolerance="10"
     inkscape:pageopacity="0"
     inkscape:pageshadow="2"
     inkscape:window-width="640"
     inkscape:window-height="484"
     id="namedview8"
     showgrid="false"
     inkscape:zoom="0.5556701"
     inkscape:cx="485"
     inkscape:cy="165"
     inkscape:window-x="0"
     inkscape:window-y="0"
     inkscape:window-maximized="0"
     inkscape:current-layer="svg2" />
  <defs
     id="defs4" />
  <path
     d="M 35.240415,2.8457183 L 938.84238,2.8457183 C 951.62286,3.6979496 968.591,10.643118 968.56262,25.775909 L 967.94077,295.3929 C 968.04231,302.45704 961.55685,327.81231 934.22599,328.27272 L 36.512619,327.33994 C 9.893895,327.33994 1.2336988,314.14215 1.855551,294.25502 L 2.147477,32.821374 C 2.147477,23.570788 1.7968581,2.8457183 35.240415,2.8457183 z "
     style="fill:white;fill-opacity:1;fill-rule:evenodd;stroke:black;stroke-width:2.36590981;stroke-linecap:butt;stroke-linejoin:miter;stroke-miterlimit:4;stroke-dasharray:none;stroke-opacity:1"
     id="path3669" />
  <path
     d="M 37.718328,17.156442 C 23.907978,16.500941 16.343642,20.944484 17.2715,32.034799 L 17.2715,302.44133 C 17.369244,308.24129 23.855521,315.20298 34.351984,315.03312 L 938.71315,315.32315 C 945.78943,315.49301 953.2741,308.22038 953.37183,302.42041 L 953.37183,30.438345 C 953.3669,21.524511 948.60093,17.391892 936.65612,16.803691 L 37.718328,17.156442 z "
     style="fill:#633a34;fill-opacity:1;fill-rule:evenodd;stroke:none;stroke-width:1.18534040000000007px;stroke-linecap:butt;stroke-linejoin:miter;stroke-opacity:1"
     id="path3661" />
  <path
     d="M 573.1641,236.78023 L 573.1641,94.667634 L 664.06934,94.667634 L 664.06934,115.05304 L 594.71996,115.05304 L 594.71996,155.53123 L 653.82787,155.53123 L 653.82787,174.74618 L 594.71996,174.74618 L 594.71996,216.49237 L 664.06934,216.49237 L 664.06934,236.78023 L 573.1641,236.78023 z M 686.60153,212.29824 L 686.60153,94.667634 L 706.98693,94.667634 L 706.98693,210.6401 C 706.9869,215.32193 709.52288,217.66284 714.59488,217.66282 L 721.52006,217.66282 L 721.52006,236.78023 L 712.54658,236.78023 C 705.13368,236.78023 698.95629,234.97578 694.0144,231.36688 C 689.07247,227.75799 686.60151,221.40178 686.60153,212.29824 L 686.60153,212.29824 z M 743.27194,135.53598 L 743.27194,104.81157 L 763.65734,104.81157 L 763.65734,135.53598 L 778.48309,135.53598 L 778.48309,151.14203 L 763.65734,151.14203 L 763.65734,210.05487 C 763.65731,215.12686 766.06324,217.66284 770.87514,217.66282 L 778.48309,217.66282 L 778.48309,236.78023 L 767.85147,236.78023 C 760.76369,236.78023 754.89517,234.6344 750.24589,230.34274 C 745.59658,226.05108 743.27193,219.90621 743.27194,211.90809 L 743.27194,151.14203 L 733.12801,151.14203 L 733.12801,135.53598 L 743.27194,135.53598 z M 794.87039,236.78023 L 794.87039,220.68649 L 845.59005,153.58047 L 797.69899,153.58047 L 797.69899,135.53598 L 870.36466,135.53598 L 870.36466,151.72726 L 819.64499,217.66282 L 870.36466,217.66282 L 870.36466,236.78023 L 794.87039,236.78023 z "
     style="font-size:199.75744629px;font-style:normal;font-variant:normal;font-weight:normal;font-stretch:normal;text-align:center;line-height:100%;letter-spacing:4px;writing-mode:lr-tb;text-anchor:middle;fill:white;fill-opacity:1;stroke:none;stroke-width:1px;stroke-linecap:butt;stroke-linejoin:miter;stroke-opacity:1;font-family:DIN 1451 Mittelschrift"
     id="text8248" />
  <path
     d="M 95.171838,236.0945 L 95.171838,93.981904 L 150.2807,93.981904 C 164.13099,93.982046 174.61629,97.542173 181.73665,104.66229 C 188.8568,111.78268 192.41693,120.93497 192.41704,132.11919 C 192.41693,137.97156 190.98637,143.59623 188.12538,148.99323 C 185.26416,154.39041 179.70451,158.94217 171.44641,162.64853 L 171.44641,163.03868 C 179.24934,164.85945 185.06909,168.97229 188.90568,175.37721 C 192.74205,181.78225 194.6603,188.59363 194.66041,195.81138 C 194.6603,208.10118 190.74253,217.88746 182.9071,225.17027 C 175.07147,232.45309 165.82164,236.0945 155.15759,236.0945 L 95.171838,236.0945 z M 149.89055,172.98753 L 116.7277,172.98753 L 116.7277,215.80664 L 149.89055,215.80664 C 157.88858,215.80666 163.7571,213.64457 167.49613,209.32037 C 171.23499,204.99623 173.10446,200.03806 173.10455,194.44585 C 173.10446,188.85373 171.23499,183.87931 167.49613,179.52257 C 163.7571,175.16594 157.88858,172.9876 149.89055,172.98753 L 149.89055,172.98753 z M 147.9398,113.09932 L 116.7277,113.09932 L 116.7277,153.87012 L 147.9398,153.87012 C 155.67772,153.8702 161.43245,151.88694 165.20399,147.92032 C 168.97536,143.95387 170.86109,139.14201 170.86118,133.48472 C 170.86109,128.02271 168.97536,123.25962 165.20399,119.19543 C 161.43245,115.13147 155.67772,113.09944 147.9398,113.09932 L 147.9398,113.09932 z M 215.14335,202.15134 L 215.14335,134.85025 L 235.52876,134.85025 L 235.52876,195.22616 C 235.52872,202.11886 237.43071,207.46718 241.23472,211.27113 C 245.03865,215.07512 249.86677,216.97711 255.71908,216.97709 C 261.37622,216.97711 266.1068,215.07512 269.91084,211.27113 C 273.71474,207.46718 275.61673,202.11886 275.6168,195.22616 L 275.6168,134.85025 L 296.0022,134.85025 L 296.0022,236.0945 L 275.6168,236.0945 L 275.6168,225.36534 L 275.22665,225.36534 C 268.91914,233.29842 260.20577,237.26495 249.08651,237.26496 C 241.08837,237.26495 233.43166,234.29005 226.11636,228.34024 C 218.801,222.39045 215.14334,213.66083 215.14335,202.15134 L 215.14335,202.15134 z M 322.43496,236.0945 L 322.43496,134.85025 L 342.82036,134.85025 L 342.82036,145.67695 L 343.21051,145.67695 C 349.51792,137.67894 358.29631,133.6799 369.54572,133.67979 C 376.95853,133.6799 384.01376,136.2809 390.71143,141.48282 L 375.98322,159.03963 C 371.56144,155.72342 367.07471,154.06528 362.523,154.0652 C 357.51601,154.06528 352.98051,155.73968 348.91647,159.0884 C 344.85236,162.43727 342.82033,167.8181 342.82036,175.2309 L 342.82036,236.0945 L 322.43496,236.0945 z M 456.93958,235.99696 L 456.93958,225.56042 C 449.85177,233.36345 441.1384,237.26495 430.79944,237.26496 C 424.16684,237.26495 418.62344,235.94819 414.16925,233.31467 C 409.715,230.68116 406.34995,227.90133 404.07408,224.97519 C 401.14793,221.20374 399.14841,217.2047 398.07551,212.97804 C 397.00258,208.75143 396.46612,199.61539 396.46613,185.56991 C 396.46612,171.52453 397.00258,162.3885 398.07551,158.16179 C 399.14841,153.93523 401.14793,149.90367 404.07408,146.0671 C 406.34995,143.20608 409.715,140.42626 414.16925,137.72761 C 418.62344,135.02917 424.16684,133.6799 430.79944,133.67979 C 440.68322,133.6799 449.39659,137.67894 456.93958,145.67695 L 456.93958,134.85025 L 477.32498,134.85025 L 477.32498,233.75359 C 477.32489,248.96948 472.88693,260.18632 464.01107,267.40414 C 455.13506,274.6219 444.94237,278.2308 433.43296,278.23084 C 426.9304,278.2308 420.55794,276.67019 414.31555,273.54902 C 408.07311,270.42778 402.70854,266.33119 398.22181,261.25926 L 414.02294,248.67688 C 416.49387,251.14782 419.43626,253.29365 422.85011,255.11438 C 426.2639,256.93506 429.92156,257.84541 433.82312,257.84543 C 440.58568,257.84541 446.12908,255.95968 450.45331,252.18824 C 454.77742,248.41677 456.93951,243.01968 456.93958,235.99696 L 456.93958,235.99696 z M 416.85154,185.56991 C 416.85151,193.69811 417.06284,199.09519 417.48553,201.76119 C 417.90816,204.42726 419.02985,206.89821 420.85059,209.17406 C 422.21608,210.9948 424.23186,212.75047 426.89793,214.44111 C 429.56392,216.13178 432.94523,216.97711 437.04186,216.97709 C 441.00835,216.97711 444.30837,216.13178 446.94195,214.44111 C 449.57541,212.75047 451.60745,210.9948 453.03807,209.17406 C 454.79368,206.89821 455.88285,204.42726 456.30558,201.76119 C 456.72818,199.09519 456.93951,193.69811 456.93958,185.56991 C 456.93951,177.44182 456.72818,172.04473 456.30558,169.37864 C 455.88285,166.71267 454.79368,164.2092 453.03807,161.86822 C 451.60745,160.11262 449.57541,158.3732 446.94195,156.64995 C 444.30837,154.92686 441.00835,154.06528 437.04186,154.0652 C 432.94523,154.06528 429.56392,154.92686 426.89793,156.64995 C 424.23186,158.3732 422.21608,160.11262 420.85059,161.86822 C 419.02985,164.2092 417.90816,166.71267 417.48553,169.37864 C 417.06284,172.04473 416.85151,177.44182 416.85154,185.56991 L 416.85154,185.56991 z "
     style="font-size:199.75744629px;font-style:normal;font-variant:normal;font-weight:normal;font-stretch:normal;text-align:center;line-height:100%;writing-mode:lr-tb;text-anchor:middle;fill:white;fill-opacity:1;stroke:none;stroke-width:1px;stroke-linecap:butt;stroke-linejoin:miter;stroke-opacity:1;font-family:DIN 1451 Mittelschrift"
     id="text8244" />
</svg>
