<?xml version="1.0" encoding="UTF-8" standalone="no"?>
<!-- Created with Inkscape (http://www.inkscape.org/) -->

<svg
   xmlns:ooo="http://xml.openoffice.org/svg/export"
   xmlns:dc="http://purl.org/dc/elements/1.1/"
   xmlns:cc="http://creativecommons.org/ns#"
   xmlns:rdf="http://www.w3.org/1999/02/22-rdf-syntax-ns#"
   xmlns:svg="http://www.w3.org/2000/svg"
   xmlns="http://www.w3.org/2000/svg"
   xmlns:sodipodi="http://sodipodi.sourceforge.net/DTD/sodipodi-0.dtd"
   xmlns:inkscape="http://www.inkscape.org/namespaces/inkscape"
   version="1.0"
   width="391.16455"
   height="898.90625"
   id="svg2"
   inkscape:version="0.48.1 r9760"
   sodipodi:docname="Zeichen_451.svg">
  <metadata
     id="metadata16">
    <rdf:RDF>
      <cc:Work
         rdf:about="">
        <dc:format>image/svg+xml</dc:format>
        <dc:type
           rdf:resource="http://purl.org/dc/dcmitype/StillImage" />
        <dc:title></dc:title>
      </cc:Work>
    </rdf:RDF>
  </metadata>
  <sodipodi:namedview
     pagecolor="#ffffff"
     bordercolor="#666666"
     borderopacity="1"
     objecttolerance="10"
     gridtolerance="10"
     guidetolerance="10"
     inkscape:pageopacity="0"
     inkscape:pageshadow="2"
     inkscape:window-width="1179"
     inkscape:window-height="798"
     id="namedview14"
     showgrid="false"
     fit-margin-top="0"
     fit-margin-left="0"
     fit-margin-right="0"
     fit-margin-bottom="0"
     inkscape:zoom="0.41099907"
     inkscape:cx="277.00424"
     inkscape:cy="-515.78076"
     inkscape:window-x="116"
     inkscape:window-y="271"
     inkscape:window-maximized="0"
     inkscape:current-layer="svg2" />
  <defs
     id="defs4">
    <g
       transform="scale(0.00048828125,-0.00048828125)"
       id="bullet-char-template(8211)">
      <path
         id="path40"
         d="M -4,459 L 1135,459 1135,606 -4,606 -4,459 Z" />
    </g>
    <g
       transform="scale(0.00048828125,-0.00048828125)"
       id="bullet-char-template(8226)">
      <path
         id="path37"
         d="M 346,457 C 273,457 209,483 155,535 101,586 74,649 74,723 74,796 101,859 155,911 209,963 273,989 346,989 419,989 480,963 531,910 582,859 608,796 608,723 608,648 583,586 532,535 482,483 420,457 346,457 Z" />
    </g>
    <g
       transform="scale(0.00048828125,-0.00048828125)"
       id="bullet-char-template(9679)">
      <path
         id="path34"
         d="M 813,0 C 632,0 489,54 383,161 276,268 223,411 223,592 223,773 276,916 383,1023 489,1130 632,1184 813,1184 992,1184 1136,1130 1245,1023 1353,916 1407,772 1407,592 1407,412 1353,268 1245,161 1136,54 992,0 813,0 Z" />
    </g>
    <g
       transform="scale(0.00048828125,-0.00048828125)"
       id="bullet-char-template(10004)">
      <path
         id="path31"
         d="M 285,-33 C 182,-33 111,30 74,156 52,228 41,333 41,471 41,549 55,616 82,672 116,743 169,778 240,778 293,778 328,747 346,684 L 369,508 C 377,444 397,411 428,410 L 1163,1116 C 1174,1127 1196,1133 1229,1133 1271,1133 1292,1118 1292,1087 L 1292,965 C 1292,929 1282,901 1262,881 L 442,47 C 390,-6 338,-33 285,-33 Z" />
    </g>
    <g
       transform="scale(0.00048828125,-0.00048828125)"
       id="bullet-char-template(10007)">
      <path
         id="path28"
         d="M 0,-2 C -7,14 -16,27 -25,37 L 356,567 C 262,823 215,952 215,954 215,979 228,992 255,992 264,992 276,990 289,987 310,991 331,999 354,1012 L 381,999 492,748 772,1049 836,1024 860,1049 C 881,1039 901,1025 922,1006 886,937 835,863 770,784 769,783 710,716 594,584 L 774,223 C 774,196 753,168 711,139 L 727,119 C 717,90 699,76 672,76 641,76 570,178 457,381 L 164,-76 C 142,-110 111,-127 72,-127 30,-127 9,-110 8,-76 1,-67 -2,-52 -2,-32 -2,-23 -1,-13 0,-2 Z" />
    </g>
    <g
       transform="scale(0.00048828125,-0.00048828125)"
       id="bullet-char-template(10132)">
      <path
         id="path25"
         d="M 2015,739 L 1276,0 717,0 1260,543 174,543 174,936 1260,936 717,1481 1274,1481 2015,739 Z" />
    </g>
    <g
       transform="scale(0.00048828125,-0.00048828125)"
       id="bullet-char-template(10146)">
      <path
         id="path22"
         d="M 174,0 L 602,739 174,1481 1456,739 174,0 Z M 1358,739 L 309,1346 659,739 1358,739 Z" />
    </g>
    <g
       transform="scale(0.00048828125,-0.00048828125)"
       id="bullet-char-template(57354)">
      <path
         id="path19"
         d="M 8,1128 L 1137,1128 1137,0 8,0 8,1128 Z" />
    </g>
    <g
       transform="scale(0.00048828125,-0.00048828125)"
       id="bullet-char-template(57356)">
      <path
         id="path16"
         d="M 580,1141 L 1163,571 580,0 -4,571 580,1141 Z" />
    </g>
    <g
       id="g11"
       ooo:id-list="id3 id4 id5 id6 id7 id8 id9 id10 id11 id12 id13 id14 id15 id16 id17 id18 id19 id20 id21 id22 id23 id24 id25 id26 id27 id28 id29 id30 id31 id32 id33 id34 id35 id36 id37 id38"
       ooo:slide="id1" />
    <clipPath
       clipPathUnits="userSpaceOnUse"
       id="presentation_clip_path">
      <rect
         id="rect7"
         height="25400"
         width="16933"
         y="0"
         x="0" />
    </clipPath>
    <clipPath
       id="clipPath3944">
      <path
         inkscape:connector-curvature="0"
         id="path3946"
         d="m 163.653,658.691 20.882,0 0,48.188 -20.882,0 0,-48.188 z" />
    </clipPath>
    <clipPath
       id="clipPath3982">
      <path
         inkscape:connector-curvature="0"
         id="path3984"
         d="m 120.696,190.599 15.343,0 0,51.024 -15.343,0 0,-51.024 z" />
    </clipPath>
    <clipPath
       id="clipPath3974">
      <path
         inkscape:connector-curvature="0"
         id="path3976"
         d="m 119.863,190.599 17.008,0 0,51.024 -17.008,0 0,-51.024 z" />
    </clipPath>
    <clipPath
       id="clipPath3944-3">
      <path
         inkscape:connector-curvature="0"
         id="path3946-9"
         d="m 163.653,658.691 20.882,0 0,48.188 -20.882,0 0,-48.188 z" />
    </clipPath>
    <clipPath
       id="clipPath3982-0">
      <path
         inkscape:connector-curvature="0"
         id="path3984-2"
         d="m 120.696,190.599 15.343,0 0,51.024 -15.343,0 0,-51.024 z" />
    </clipPath>
    <clipPath
       id="clipPath3974-7">
      <path
         inkscape:connector-curvature="0"
         id="path3976-9"
         d="m 119.863,190.599 17.008,0 0,51.024 -17.008,0 0,-51.024 z" />
    </clipPath>
  </defs>
  <path
     inkscape:connector-curvature="0"
     id="path15424"
     style="fill:#ffffff;fill-opacity:1;fill-rule:evenodd;stroke:#000000;stroke-width:2.5;stroke-linecap:butt;stroke-linejoin:miter;stroke-miterlimit:4;stroke-opacity:1;stroke-dasharray:none"
     d="m 1.0696137,34.902261 0,831.631919 c 0.043152,22.38959 15.5881713,31.30857 32.0984613,31.38486 l 327.305565,-0.15667 c 11.45052,-0.0359 29.22636,-15.67736 29.22962,-34.16682 L 390.17328,38.780935 C 390.44072,17.281824 374.7824,1.4146354 355.64439,1.3134196 L 32.611158,1.0000712 C 7.0520273,1.6045679 0.2194379,19.882444 1.0696137,34.902261 z" />
  <path
     d="m 14.278545,463.16046 0,-427.007153 c 0,-11.578528 9.460683,-20.956949 21.117596,-20.956949 l 319.598399,0 c 11.65692,0 21.1176,9.378421 21.1176,20.956949 l 0,219.507253 z m 0,249.00362 0,-124.51114 361.833595,-207.48125 0,124.49248 z m 0,124.49248 361.833595,-207.4999 0,233.6215 c 0,11.57853 -9.46068,20.95696 -21.1176,20.95696 l -319.598399,0 c -11.656913,0 -21.117596,-9.37843 -21.117596,-20.95696"
     id="path3952-7"
     style="fill:#154889;fill-opacity:1;fill-rule:nonzero;stroke:none"
     inkscape:connector-curvature="0"
     sodipodi:nodetypes="csssscccccccccsssc" />
  <path
     inkscape:connector-curvature="0"
     id="text17204"
     style="font-size:141.60940552px;font-style:normal;font-variant:normal;font-weight:normal;font-stretch:normal;text-align:center;line-height:100%;writing-mode:lr-tb;text-anchor:middle;fill:#f9f9f9;fill-opacity:1;stroke:none;font-family:DIN 1451 Mittelschrift"
     d="m 209.80571,135.10424 0,-42.800888 c -5e-5,-4.840089 -1.30229,-8.620023 -3.90671,-11.339816 -2.60451,-2.719626 -6.0272,-4.07948 -10.26806,-4.079567 -4.28704,8.7e-5 -7.72125,1.359941 -10.30264,4.079567 -2.58144,2.719793 -3.87215,6.499727 -3.87213,11.339816 l 0,42.800888 c -2e-5,4.88629 1.29069,8.67775 3.87213,11.37439 2.58139,2.69668 6.0156,4.04501 10.30264,4.045 4.24086,1e-5 7.66355,-1.34832 10.26806,-4.045 2.60442,-2.69664 3.90666,-6.4881 3.90671,-11.37439 l 0,0 z m -42.80089,0.82974 0,-44.46037 c -1e-5,-9.265378 2.90409,-16.421901 8.71229,-21.46959 5.80818,-5.047502 12.44612,-7.5713 19.91383,-7.571402 7.42154,1.02e-4 14.04795,2.5239 19.87925,7.571402 5.83118,5.047689 8.7468,12.204212 8.74687,21.46959 l 0,44.46037 c -7e-5,9.26548 -2.91569,16.41048 -8.74687,21.43502 -5.8313,5.02456 -12.45771,7.53683 -19.87925,7.53683 -7.46771,0 -14.10565,-2.51227 -19.91383,-7.53683 -5.8082,-5.02454 -8.7123,-12.16954 -8.71229,-21.43502 l 0,0 z" />
  <path
     inkscape:connector-curvature="0"
     id="text17208"
     style="font-size:141.60940552px;font-style:normal;font-variant:normal;font-weight:normal;font-stretch:normal;text-align:center;line-height:100%;writing-mode:lr-tb;text-anchor:middle;fill:#f9f9f9;fill-opacity:1;stroke:none;font-family:DIN 1451 Mittelschrift"
     d="m 290.66436,135.63909 0,-42.800887 c -5e-5,-4.840088 -1.30228,-8.620023 -3.9067,-11.339815 -2.60451,-2.719627 -6.0272,-4.079481 -10.26807,-4.079568 -4.28703,8.7e-5 -7.72124,1.359941 -10.30263,4.079568 -2.58145,2.719792 -3.87216,6.499727 -3.87214,11.339815 l 0,42.800887 c -2e-5,4.88629 1.29069,8.67775 3.87214,11.37439 2.58139,2.69668 6.0156,4.04501 10.30263,4.045 4.24087,1e-5 7.66356,-1.34832 10.26807,-4.045 2.60442,-2.69664 3.90665,-6.4881 3.9067,-11.37439 l 0,0 z m -42.80089,0.82975 0,-44.460379 c 0,-9.265378 2.90409,-16.421901 8.7123,-21.46959 5.80818,-5.047502 12.44611,-7.5713 19.91382,-7.571402 7.42155,1.02e-4 14.04796,2.5239 19.87925,7.571402 5.83119,5.047689 8.74681,12.204212 8.74687,21.46959 l 0,44.460379 c -6e-5,9.26547 -2.91568,16.41047 -8.74687,21.43501 -5.83129,5.02456 -12.4577,7.53683 -19.87925,7.53683 -7.46771,0 -14.10564,-2.51227 -19.91382,-7.53683 -5.80821,-5.02454 -8.7123,-12.16954 -8.7123,-21.43501 l 0,0 z" />
  <path
     inkscape:connector-curvature="0"
     id="text17212"
     style="font-size:120.26356506px;font-style:normal;font-variant:normal;font-weight:normal;font-stretch:normal;text-align:center;line-height:100%;writing-mode:lr-tb;text-anchor:middle;fill:#f9f9f9;fill-opacity:1;stroke:none;font-family:DIN 1451 Mittelschrift"
     d="m 152.61859,270.27863 0,-60.95389 12.27299,0 0,6.51819 0.23489,0 c 3.87565,-4.81518 9.16067,-7.2228 15.85506,-7.22286 4.26712,6e-5 7.65344,0.76345 10.15898,2.29017 2.50544,1.52684 4.85434,3.40596 7.04669,5.63736 4.81518,-5.28497 11.2355,-7.92747 19.26096,-7.92753 4.73687,6e-5 9.30743,1.80088 13.71169,5.40246 4.4041,3.6017 6.60619,8.84756 6.60628,15.73762 l 0,40.51848 -12.27299,0 0,-36.29047 c -8e-5,-4.11053 -1.15496,-7.32069 -3.46463,-9.63048 -2.30982,-2.3097 -5.16764,-3.46457 -8.57347,-3.46462 -3.52341,5e-5 -6.43017,1.15492 -8.72028,3.46462 -2.29024,2.30979 -3.43533,5.51995 -3.43527,9.63048 l 0,36.29047 -12.21427,0 0,-36.29047 c -4e-5,-4.11053 -1.15491,-7.32069 -3.46462,-9.63048 -2.30979,-2.3097 -5.16761,-3.46457 -8.57348,-3.46462 -3.52337,5e-5 -6.43013,1.15492 -8.72028,3.46462 -2.2902,2.30979 -3.43528,5.51995 -3.43526,9.63048 l 0,36.29047 -12.27299,0 z" />
  <path
     d="m 87.339316,164.0538 58.118004,0 0,-14.52498 -39.05285,0 32.68574,-40.86167 c 10.02097,-12.535255 7.97697,-30.822625 -4.55828,-40.843595 -12.53526,-10.020969 -30.82261,-7.995068 -40.825505,4.55828 -4.124144,5.137105 -6.367109,11.540396 -6.367109,18.142659 l 14.524964,0 c 0,-8.031249 6.51183,-14.54307 14.525,-14.54307 8.03124,0 14.52497,6.511821 14.52497,14.54307 0,3.273995 -1.10339,6.457551 -3.14738,9.026101 L 87.339316,150.45133 z"
     id="path3952"
     style="fill:#ffffff;fill-opacity:1;fill-rule:nonzero;stroke:none"
     inkscape:connector-curvature="0"
     sodipodi:nodetypes="cccccscccssccc" />
</svg>
