<?xml version="1.0" encoding="UTF-8" standalone="no"?>
<!-- Created with Inkscape (http://www.inkscape.org/) -->
<svg
   xmlns:svg="http://www.w3.org/2000/svg"
   xmlns="http://www.w3.org/2000/svg"
   version="1.0"
   width="480"
   height="720"
   id="svg2">
  <defs
     id="defs4" />
  <path
     d="M 31.041938,10.47049 L 451.05498,10.47049 C 461.871,11.253908 474.12732,22.205493 474.7219,35.106921 L 474.7219,684.89403 C 474.7219,696.50838 464.78213,709.53047 449.55706,709.53047 L 30.143193,709.53047 C 16.204067,709.53047 5.2779428,697.53917 5.2779428,684.5972 L 4.9501279,35.172001 C 4.9501279,21.115139 16.682662,10.47049 31.041938,10.47049 z "
     style="fill:#fc3;fill-opacity:1;fill-rule:evenodd;stroke:black;stroke-width:1.99081528;stroke-linecap:butt;stroke-linejoin:miter;stroke-miterlimit:4;stroke-dasharray:none;stroke-opacity:1"
     id="path3669" />
  <path
     d="M 393.83293,22.863531 L 84.477458,22.863531 L 34.852924,22.894381 C 23.07759,22.386051 16.356631,30.317428 16.799104,43.008806 L 16.799104,677.63128 C 16.845717,686.18762 20.531942,696.45785 32.506239,696.66592 L 447.46248,697.19039 C 459.43677,696.98228 463.1543,686.71209 463.2009,678.15573 L 463.2009,42.947106 C 463.64336,30.255727 456.92242,22.324344 445.14708,22.83268 L 393.83293,22.863531 z "
     style="fill:#fc3;fill-opacity:1;fill-rule:evenodd;stroke:black;stroke-width:13;stroke-linecap:butt;stroke-linejoin:miter;stroke-miterlimit:4;stroke-dasharray:none;stroke-opacity:1"
     id="path2774" />
  <path
     d="M 228.27988,369.4961 L 281.4826,422.69882 L 226.38839,422.97698 C 158.37734,425.89051 141.4986,485.23247 138.89782,502.51217 L 138.89782,640.64639 L 176.46795,640.64639 L 176.46795,508.20518 C 176.46795,501.79858 182.14847,466.8213 224.40418,459.54574 L 282.44688,459.69409 L 228.24278,513.89818 L 274.91802,513.89818 L 347.03561,441.76204 L 347.22106,441.76204 L 347.12834,441.66933 L 347.18397,441.61369 L 347.07271,441.61369 L 274.93656,369.4961 L 228.27988,369.4961 z "
     style="fill:black;fill-opacity:1;fill-rule:evenodd;stroke:none;stroke-width:1px;stroke-linecap:butt;stroke-linejoin:miter;stroke-opacity:1"
     id="path1885" />
  <g
     transform="matrix(-0.353724,0,0,0.353724,417.9361,76.59965)"
     id="g4569">
    <circle
       cx="215"
       cy="409"
       r="161"
       style="fill:none;stroke:black;stroke-width:40px"
       id="circle4558" />
    <circle
       cx="790"
       cy="406"
       r="161"
       style="fill:none;stroke:black;stroke-width:40px"
       id="circle4560" />
    <path
       d="M 429.48437,15.467118 C 296.9179,16.75919 319.39993,1.7711686 248.07762,230.98455 C 189.97511,414.12586 196.30387,394.15363 196,407 C 195.78704,416.98022 203.84333,424.89312 213.96694,425.57043 C 235.02054,423.44166 226.16492,427.84741 299.15748,201.18078 C 565.86963,482.5364 465.80592,436.91194 609.34064,442.62576 C 797.98299,440.81686 813.31557,452.4455 815.55516,424.79518 C 815.29674,415.40613 810.90371,409.80716 681.4382,121.67535 L 693.84208,87.564675 L 736.48042,86.789433 L 734.92994,51.128275 L 576.00521,51.128275 C 561.96471,70.337063 581.69033,70.250925 652.75423,86.01419 L 640.35035,120.9001 L 323.27614,121.67535 C 344.63838,47.079788 332.57905,51.731243 428.70913,51.903518 L 429.48437,15.467118 z M 314.11415,159.91012 L 624.37752,159.36001 L 534.70921,400.30922 L 314.11415,159.91012 z M 661.78516,174.21304 L 573.76718,405.26023 L 766.3065,405.81034 L 661.78516,174.21304 z "
       style="fill:black;fill-rule:evenodd;stroke:none"
       id="path4562" />
  </g>
</svg>
