<?xml version="1.0" encoding="UTF-8" standalone="no"?>
<!-- Created with Inkscape (http://www.inkscape.org/) -->
<svg
   xmlns:svg="http://www.w3.org/2000/svg"
   xmlns="http://www.w3.org/2000/svg"
   version="1.0"
   width="970"
   height="330"
   id="svg2">
  <defs
     id="defs4" />
  <path
     d="M 35.083235,45.237653 L 939.00085,45.237653 C 951.7858,45.863736 968.75986,50.96593 968.73148,62.083078 L 968.1094,260.15439 C 968.21099,265.34398 961.72325,283.97097 934.38285,284.30921 L 36.355884,283.62395 C 9.7278598,283.62395 1.0646385,273.92833 1.6867079,259.31845 L 1.9787358,67.258955 C 1.9787358,60.463108 1.6279945,45.237653 35.083235,45.237653 z "
     style="fill:#fc3;fill-opacity:1;fill-rule:evenodd;stroke:black;stroke-width:2.02820182;stroke-linecap:butt;stroke-linejoin:miter;stroke-miterlimit:4;stroke-dasharray:none;stroke-opacity:1"
     id="path3669" />
  <path
     d="M 132.00581,102.49824 L 71.537228,162.96683 L 71.537228,195.80046 L 120.45324,146.61082 L 120.27083,226.41477 L 146.75054,226.41477 L 146.59853,146.64123 L 195.51456,195.80046 L 195.51456,162.96683 L 135.04596,102.49824 L 132.00581,102.49824 z "
     style="fill:black;fill-opacity:1;fill-rule:evenodd;stroke:none;stroke-width:1px;stroke-linecap:butt;stroke-linejoin:miter;stroke-opacity:1"
     id="path2834" />
  <path
     d="M 43.678334,58.238198 L 930.52972,57.883122 C 942.93767,57.883122 954.20536,63.666637 954.20536,71.192373 L 954.09447,251.16767 C 954.09447,259.86366 946.42207,267.91926 926.7877,267.91926 L 49.465365,267.31262 C 18.165926,267.31262 15.823786,262.16829 15.823786,245.79606 L 16.107154,75.774348 C 16.107154,67.977987 18.80026,58.238198 43.678334,58.238198 z "
     style="fill:none;fill-opacity:1;fill-rule:evenodd;stroke:black;stroke-width:12.04974937;stroke-linecap:butt;stroke-linejoin:miter;stroke-miterlimit:4;stroke-dasharray:none;stroke-opacity:1"
     id="path1882" />
  <path
     d="M 409.17474,195.28807 L 409.17474,132.86507 L 418.64315,132.86507 L 418.64315,165.04055 L 418.85737,165.04055 L 444.52063,132.86507 L 455.78847,132.86507 L 435.78055,157.50009 L 457.88781,195.28807 L 446.66281,195.28807 L 429.61109,164.78349 L 418.64315,176.26555 L 418.64315,195.28807 L 409.17474,195.28807 z M 476.31147,193.57433 L 460.37368,150.8165 L 469.79925,150.8165 L 480.33876,181.96374 L 480.51013,181.96374 L 491.04964,150.8165 L 500.51805,150.8165 L 481.40985,204.49942 C 480.15308,207.92689 478.42506,210.24758 476.22578,211.46149 C 474.02647,212.67537 471.57011,213.28232 468.8567,213.28234 L 465.85765,213.28234 L 465.85765,204.84217 L 468.51395,204.84217 C 471.1988,204.84216 472.98394,203.55686 473.86939,200.98625 L 476.31147,193.57433 z M 508.65927,195.28807 L 508.65927,150.8165 L 517.61357,150.8165 L 517.61357,155.57213 L 517.78494,155.57213 C 520.55547,152.05901 524.41138,150.30243 529.35269,150.30238 C 532.60877,150.30243 535.70778,151.44492 538.64973,153.72986 L 532.18036,161.4417 C 530.23809,159.98505 528.2673,159.25671 526.26796,159.25668 C 524.06864,159.25671 522.07641,159.99219 520.29129,161.46312 C 518.50613,162.93411 517.61355,165.29764 517.61357,168.55372 L 517.61357,195.28807 L 508.65927,195.28807 z M 546.01976,195.28807 L 546.01976,150.8165 L 554.97405,150.8165 L 554.97405,195.28807 L 546.01976,195.28807 z M 546.01976,141.81937 L 546.01976,132.86507 L 554.97405,132.86507 L 554.97405,141.81937 L 546.01976,141.81937 z M 570.35583,150.8165 L 570.35583,137.3208 L 579.31012,137.3208 L 579.31012,150.8165 L 585.82234,150.8165 L 585.82234,157.67147 L 579.31012,157.67147 L 579.31012,183.54895 C 579.31011,185.77682 580.36691,186.89075 582.48054,186.89074 L 585.82234,186.89074 L 585.82234,195.28807 L 581.15239,195.28807 C 578.03909,195.28807 575.46134,194.34551 573.41914,192.4604 C 571.37693,190.57529 570.35582,187.87615 570.35583,184.36297 L 570.35583,157.67147 L 565.90011,157.67147 L 565.90011,150.8165 L 570.35583,150.8165 z M 594.26346,195.28807 L 594.26346,188.21889 L 616.54209,158.74255 L 595.50593,158.74255 L 595.50593,150.8165 L 627.42434,150.8165 L 627.42434,157.92853 L 605.14571,186.89074 L 627.42434,186.89074 L 627.42434,195.28807 L 594.26346,195.28807 z "
     style="font-size:87.74350739px;font-style:normal;font-variant:normal;font-weight:normal;font-stretch:normal;text-align:center;line-height:100%;letter-spacing:3px;writing-mode:lr-tb;text-anchor:middle;fill:black;fill-opacity:1;stroke:none;stroke-width:1px;stroke-linecap:butt;stroke-linejoin:miter;stroke-opacity:1;font-family:DIN 1451 Mittelschrift"
     id="text1881" />
  <path
     d="M 686.14565,168.01586 L 686.14565,160.13266 L 689.23038,160.13266 C 692.20084,160.1327 694.55009,159.29725 696.27814,157.62631 C 698.00613,155.95546 698.87014,153.83471 698.87017,151.26405 C 698.87014,148.72205 697.97043,146.57988 696.17103,144.83753 C 694.37158,143.09528 692.22941,142.22413 689.7445,142.22407 C 687.85937,142.22413 686.07423,142.8525 684.38906,144.10919 C 682.70387,145.36598 681.61851,147.25109 681.13296,149.76453 L 672.17866,149.76453 C 672.52141,145.36598 674.36368,141.51721 677.70548,138.2182 C 681.04726,134.91931 684.94602,133.26984 689.40176,133.26978 C 694.97139,133.26984 699.43425,135.10497 702.79035,138.77517 C 706.14639,142.44548 707.82443,146.55132 707.82446,151.09268 C 707.82443,153.49196 707.35315,155.82693 706.41063,158.09759 C 705.46804,160.36833 703.71145,162.33199 701.14088,163.98857 C 703.76858,165.67378 705.65369,167.74455 706.79622,170.20088 C 707.93868,172.65727 708.50992,175.14219 708.50996,177.65565 C 708.50992,183.48238 706.68193,188.12376 703.02599,191.57979 C 699.36998,195.03584 694.8857,196.76386 689.57313,196.76386 C 685.34589,196.76386 681.53996,195.40001 678.15533,192.6723 C 674.77069,189.94461 672.66422,185.96731 671.83592,180.74039 L 680.79021,180.74039 C 681.61851,182.88258 682.73244,184.60346 684.132,185.90303 C 685.53154,187.20263 687.51662,187.85242 690.08725,187.85241 C 692.57215,187.85242 694.77145,186.97413 696.68515,185.21753 C 698.5988,183.46096 699.55564,181.04031 699.55567,177.95556 C 699.55564,174.84229 698.60594,172.40735 696.70657,170.65074 C 694.80715,168.89418 692.54359,168.01589 689.91588,168.01586 L 686.14565,168.01586 z M 718.40681,167.33037 L 735.15862,133.82674 L 745.14116,133.82674 L 731.9882,160.21835 L 732.15958,160.21835 C 733.55911,159.6757 735.14432,159.40436 736.91521,159.40432 C 740.85678,159.40436 744.3271,160.78963 747.32618,163.56014 C 750.32519,166.33072 751.82471,170.74359 751.82475,176.79878 C 751.82471,183.96794 749.91103,189.08774 746.08372,192.15818 C 742.25633,195.22863 738.02911,196.76386 733.40204,196.76386 C 729.03198,196.76386 725.0404,195.07154 721.42728,191.6869 C 717.81414,188.30227 716.00757,183.66804 716.00757,177.78418 C 716.00757,174.01398 716.80732,170.52938 718.40681,167.33037 L 718.40681,167.33037 z M 733.91616,167.33037 C 731.43122,167.3304 729.31761,168.16585 727.57532,169.83671 C 725.83301,171.50764 724.96186,174.08538 724.96187,177.56997 C 724.96186,184.42494 727.94662,187.85242 733.91616,187.85241 C 735.97263,187.85242 737.97913,187.07409 739.93567,185.51744 C 741.89217,183.9608 742.87042,181.31165 742.87045,177.56997 C 742.87042,174.08538 741.99213,171.50764 740.23558,169.83671 C 738.47897,168.16585 736.3725,167.3304 733.91616,167.33037 L 733.91616,167.33037 z "
     style="font-size:87.74350739px;font-style:normal;font-variant:normal;font-weight:normal;font-stretch:normal;text-align:center;line-height:100%;writing-mode:lr-tb;text-anchor:middle;fill:black;fill-opacity:1;stroke:none;stroke-width:1px;stroke-linecap:butt;stroke-linejoin:miter;stroke-opacity:1;font-family:DIN 1451 Mittelschrift"
     id="text1885" />
  <path
     d="M 773.85046,196.2069 L 773.85046,150.41581 L 780.41898,150.41581 L 780.41898,178.92132 L 780.54469,178.92132 L 793.0846,163.58429 L 800.94169,163.58429 L 789.69034,176.34419 L 802.48168,196.2069 L 794.24745,196.2069 L 785.57323,180.96416 L 780.41898,186.84126 L 780.41898,196.2069 L 773.85046,196.2069 z M 807.66735,196.2069 L 807.66735,163.58429 L 814.23588,163.58429 L 814.23588,167.07283 L 814.36159,167.07283 C 816.43585,164.49574 819.26439,163.20718 822.84724,163.20715 C 825.13101,163.20718 826.94338,163.61575 828.28434,164.43285 C 829.62526,165.25002 830.88239,166.25573 832.05575,167.44997 C 834.63284,164.62145 838.069,163.20718 842.36424,163.20715 C 844.89942,163.20718 847.34559,164.17098 849.70276,166.09855 C 852.05984,168.02619 853.2384,170.83378 853.23845,174.52135 L 853.23845,196.2069 L 846.66992,196.2069 L 846.66992,176.78419 C 846.66988,174.58423 846.05179,172.86615 844.81565,171.62994 C 843.57943,170.39379 842.04992,169.7757 840.22711,169.77567 C 838.34138,169.7757 836.78568,170.39379 835.56001,171.62994 C 834.33427,172.86615 833.72142,174.58423 833.72145,176.78419 L 833.72145,196.2069 L 827.18435,196.2069 L 827.18435,176.78419 C 827.18433,174.58423 826.56624,172.86615 825.33008,171.62994 C 824.09388,170.39379 822.56437,169.7757 820.74154,169.77567 C 818.85583,169.7757 817.30012,170.39379 816.07443,171.62994 C 814.84872,172.86615 814.23586,174.58423 814.23588,176.78419 L 814.23588,196.2069 L 807.66735,196.2069 z "
     style="font-size:64.365242px;font-style:normal;font-variant:normal;font-weight:normal;font-stretch:normal;text-align:center;line-height:100%;writing-mode:lr-tb;text-anchor:middle;fill:black;fill-opacity:1;stroke:none;stroke-width:1px;stroke-linecap:butt;stroke-linejoin:miter;stroke-opacity:1;font-family:DIN 1451 Mittelschrift"
     id="text1889" />
  <path
     d="M 288.17143,167.83648 L 288.17143,140.13481 L 315.45125,140.13481 L 315.45125,147.48208 L 295.09685,147.48208 L 295.09685,159.04788 C 297.44046,157.17301 300.17079,156.23556 303.28783,156.23552 C 305.23302,156.23556 307.00831,156.61054 308.61372,157.36047 C 310.21908,158.11046 311.49049,158.98932 312.42797,159.99705 C 313.83412,161.52043 314.85946,163.17855 315.50398,164.9714 C 316.14845,166.7643 316.4707,169.78171 316.47073,174.02366 C 316.4707,177.4688 316.21876,180.02921 315.71491,181.70489 C 315.211,183.3806 314.40831,184.92153 313.30683,186.3277 C 312.25217,187.66357 310.77569,188.90569 308.87738,190.05407 C 306.97902,191.20244 304.75257,191.77663 302.19804,191.77663 C 298.89351,191.77663 295.70618,190.75716 292.63604,188.7182 C 289.56588,186.67925 287.76129,183.26927 287.22226,178.48827 L 294.56953,178.48827 C 295.43666,182.47244 297.88575,184.46452 301.9168,184.46452 C 305.50253,184.46452 307.60008,183.23412 308.20944,180.7733 C 308.81876,178.31251 309.12343,175.87514 309.12346,173.46119 C 309.12343,170.62542 308.64299,168.27007 307.68213,166.39515 C 306.72122,164.52027 304.72914,163.58282 301.70588,163.5828 C 298.87007,163.58282 296.66707,165.00072 295.09685,167.83648 L 288.17143,167.83648 z "
     style="font-size:71.99623108px;font-style:normal;font-variant:normal;font-weight:normal;font-stretch:normal;text-align:center;line-height:100%;writing-mode:lr-tb;text-anchor:middle;fill:black;fill-opacity:1;stroke:none;stroke-width:1px;stroke-linecap:butt;stroke-linejoin:miter;stroke-opacity:1;font-family:DIN 1451 Mittelschrift"
     id="text1941" />
  <path
     d="M 246.67126,130.52364 L 356.85697,131.01276 C 360.79298,131.01339 364.68774,135.87143 364.73232,140.74119 L 364.79346,192.6741 C 364.75648,196.07379 362.09303,200.42387 358.3495,200.45055 L 246.62271,200.38941 C 242.03675,200.41176 238.85063,194.77012 238.82108,189.8347 L 238.76624,138.89261 C 238.70327,134.81413 241.65963,130.50576 246.67126,130.52364 z "
     style="fill:none;fill-opacity:1;fill-rule:evenodd;stroke:black;stroke-width:5;stroke-linecap:butt;stroke-linejoin:miter;stroke-miterlimit:4;stroke-dasharray:none;stroke-opacity:1"
     id="path1945" />
</svg>
