<?xml version="1.0" encoding="UTF-8" standalone="no"?>
<!-- Created with Inkscape (http://www.inkscape.org/) -->
<svg
   xmlns:svg="http://www.w3.org/2000/svg"
   xmlns="http://www.w3.org/2000/svg"
   version="1.0"
   width="970"
   height="330"
   id="svg2">
  <defs
     id="defs4" />
  <path
     d="M 35.093922,45.493641 L 776.86108,45.173402 C 789.64573,45.813761 960.10076,142.92653 960.10076,142.92653 C 972.40395,151.77456 970.19446,179.27842 959.56483,186.33614 C 959.56483,186.33614 799.58295,285.9879 772.24319,286.33386 L 33.964752,285.63297 C 9.5790318,285.63297 1.6981918,273.95822 1.6981918,256.45003 L 1.9902118,72.660544 C 1.9902118,57.201825 12.687712,45.493641 35.093922,45.493641 z "
     style="fill:white;fill-opacity:1;fill-rule:evenodd;stroke:black;stroke-width:2.05117083;stroke-linecap:butt;stroke-linejoin:miter;stroke-miterlimit:4;stroke-dasharray:none;stroke-opacity:1"
     id="path3669" />
  <path
     d="M 298.55414,197.08561 L 298.55414,134.66262 L 322.76072,134.66262 C 328.84446,134.66268 333.45014,136.22647 336.57775,139.35398 C 339.70528,142.48162 341.26907,146.50176 341.26912,151.41443 C 341.26907,153.98509 340.6407,156.45573 339.384,158.82636 C 338.12721,161.19707 335.68514,163.19643 332.05776,164.82445 L 332.05776,164.99583 C 335.4852,165.7956 338.04153,167.60217 339.72675,170.41553 C 341.41188,173.22894 342.25447,176.22085 342.25452,179.39124 C 342.25447,184.78954 340.53359,189.08817 337.09188,192.28714 C 333.65007,195.48612 329.58708,197.08561 324.9029,197.08561 L 298.55414,197.08561 z M 322.58935,169.36586 L 308.02255,169.36586 L 308.02255,188.17416 L 322.58935,188.17416 C 326.10248,188.17417 328.68023,187.22448 330.3226,185.32507 C 331.9649,183.42569 332.78606,181.24781 332.7861,178.79144 C 332.78606,176.33509 331.9649,174.15008 330.3226,172.23638 C 328.68023,170.32273 326.10248,169.36589 322.58935,169.36586 L 322.58935,169.36586 z M 321.73248,143.05995 L 308.02255,143.05995 L 308.02255,160.96854 L 321.73248,160.96854 C 325.13136,160.96857 327.65913,160.09742 329.31578,158.35508 C 330.97235,156.61282 331.80066,154.49921 331.8007,152.01424 C 331.80066,149.61505 330.97235,147.52286 329.31578,145.73767 C 327.65913,143.95257 325.13136,143.06 321.73248,143.05995 L 321.73248,143.05995 z M 376.60137,197.08561 L 376.60137,193.14401 L 376.38715,193.14401 C 374.5877,196.1145 370.93172,197.59974 365.41921,197.59974 C 360.44935,197.59974 356.59344,196.30729 353.85146,193.7224 C 351.10948,191.13751 349.73849,187.90283 349.73849,184.01834 C 349.73849,180.50519 350.95238,177.43474 353.38019,174.80699 C 355.80798,172.17928 359.42111,170.86541 364.21959,170.86539 L 376.60137,170.86539 L 376.60137,166.23829 C 376.60134,162.43953 373.55945,160.54014 367.4757,160.5401 C 363.24846,160.54014 360.43507,161.66835 359.03553,163.92474 L 352.00919,158.61214 C 355.12248,154.27071 360.12089,152.09997 367.00442,152.09993 C 372.48837,152.09997 376.94409,153.17106 380.3716,155.31319 C 383.79904,157.45541 385.51278,161.26848 385.51282,166.75241 L 385.51282,197.08561 L 376.60137,197.08561 z M 376.60137,181.49058 L 376.60137,178.23447 L 365.89049,178.23447 C 360.72069,178.23449 358.1358,180.01963 358.13582,183.58991 C 358.1358,185.10372 358.7856,186.41759 360.0852,187.53151 C 361.38477,188.64545 363.54836,189.20242 366.57599,189.20241 C 370.28907,189.20242 372.88824,188.78826 374.37351,187.95995 C 375.85872,187.13165 376.60134,184.97519 376.60137,181.49058 L 376.60137,181.49058 z M 399.12341,197.08561 L 399.12341,134.66262 L 408.0777,134.66262 L 408.0777,157.36968 L 408.24908,157.36968 C 411.01961,153.85656 414.87552,152.09997 419.81682,152.09993 C 423.27284,152.09997 426.60749,153.41384 429.82078,156.04153 C 433.03401,158.66931 434.64064,162.49666 434.64068,167.52359 L 434.64068,197.08561 L 425.68639,197.08561 L 425.68639,170.60833 C 425.68635,167.60931 424.85091,165.2672 423.18004,163.58199 C 421.50911,161.89685 419.43121,161.05426 416.94631,161.05422 C 414.37568,161.05426 412.25493,161.89685 410.58405,163.58199 C 408.91314,165.2672 408.07769,167.60931 408.0777,170.60833 L 408.0777,197.08561 L 399.12341,197.08561 z M 448.25128,197.08561 L 448.25128,152.61405 L 457.20557,152.61405 L 457.20557,157.36968 L 457.37695,157.36968 C 460.14747,153.85656 464.00339,152.09997 468.94469,152.09993 C 472.40071,152.09997 475.73536,153.41384 478.94865,156.04153 C 482.16188,158.66931 483.76851,162.49666 483.76855,167.52359 L 483.76855,197.08561 L 474.81425,197.08561 L 474.81425,170.60833 C 474.81422,167.60931 473.97877,165.2672 472.30791,163.58199 C 470.63698,161.89685 468.55908,161.05426 466.07418,161.05422 C 463.50355,161.05426 461.38279,161.89685 459.71192,163.58199 C 458.041,165.2672 457.20556,167.60931 457.20557,170.60833 L 457.20557,197.08561 L 448.25128,197.08561 z M 497.37913,197.08561 L 497.37913,134.66262 L 506.33342,134.66262 L 506.33342,157.36968 L 506.5048,157.36968 C 509.27533,153.85656 513.13124,152.09997 518.07255,152.09993 C 521.52856,152.09997 524.86321,153.41384 528.07651,156.04153 C 531.28973,158.66931 532.89636,162.49666 532.8964,167.52359 L 532.8964,197.08561 L 523.94211,197.08561 L 523.94211,170.60833 C 523.94207,167.60931 523.10663,165.2672 521.43576,163.58199 C 519.76484,161.89685 517.68693,161.05426 515.20203,161.05422 C 512.6314,161.05426 510.51065,161.89685 508.83977,163.58199 C 507.16886,165.2672 506.33341,167.60931 506.33342,170.60833 L 506.33342,197.08561 L 497.37913,197.08561 z M 544.32197,174.80699 C 544.32196,170.03711 544.69327,166.4811 545.4359,164.13896 C 546.17851,161.79688 547.40669,159.68327 549.12044,157.79812 C 550.34861,156.45573 552.04093,155.17042 554.19739,153.9422 C 556.35384,152.71406 559.17436,152.09997 562.65899,152.09993 C 566.08644,152.09997 568.88555,152.71406 571.05632,153.9422 C 573.22702,155.17042 574.92648,156.45573 576.15469,157.79812 C 577.8684,159.68327 579.09658,161.79688 579.83924,164.13896 C 580.58182,166.4811 580.95313,170.03711 580.95317,174.80699 C 580.95313,179.6626 580.58182,183.26146 579.83924,185.60355 C 579.09658,187.94567 577.8684,190.05929 576.15469,191.94439 C 574.92648,193.31539 573.22702,194.60069 571.05632,195.80031 C 568.88555,196.99993 566.08644,197.59974 562.65899,197.59974 C 559.17436,197.59974 556.35384,196.99993 554.19739,195.80031 C 552.04093,194.60069 550.34861,193.31539 549.12044,191.94439 C 547.40669,190.05929 546.17851,187.94567 545.4359,185.60355 C 544.69327,183.26146 544.32196,179.6626 544.32197,174.80699 L 544.32197,174.80699 z M 572.04172,174.89268 C 572.04168,171.66516 571.87745,169.39445 571.54902,168.08056 C 571.22052,166.76672 570.65641,165.50998 569.8567,164.31033 C 568.28574,162.13963 565.88651,161.05426 562.65899,161.05422 C 559.3743,161.05426 556.97507,162.13963 555.46128,164.31033 C 554.60439,165.50998 554.02601,166.76672 553.72612,168.08056 C 553.4262,169.39445 553.27625,171.63659 553.27626,174.80699 C 553.27625,178.06311 553.4262,180.35524 553.72612,181.68337 C 554.02601,183.01154 554.60439,184.26114 555.46128,185.43218 C 556.97507,187.60293 559.3743,188.68829 562.65899,188.68829 C 565.88651,188.68829 568.28574,187.60293 569.8567,185.43218 C 570.65641,184.26114 571.22052,183.01868 571.54902,181.70479 C 571.87745,180.39094 572.04168,178.12024 572.04172,174.89268 L 572.04172,174.89268 z M 593.79259,197.08561 L 593.79259,159.46901 L 589.29402,159.46901 L 589.29402,152.61405 L 593.79259,152.61405 L 593.79259,146.74449 C 593.79258,142.60301 594.93507,139.55398 597.22007,137.5974 C 599.50504,135.64094 602.38983,134.66268 605.87446,134.66262 L 611.65833,134.66262 L 611.65833,143.05995 L 606.60279,143.05995 C 604.0036,143.06 602.70402,144.28818 602.70404,146.74449 L 602.70404,152.61405 L 611.65833,152.61405 L 611.65833,159.46901 L 602.70404,159.46901 L 602.70404,197.08561 L 593.79259,197.08561 z "
     style="font-size:87.74350739px;font-style:normal;font-variant:normal;font-weight:normal;font-stretch:normal;text-align:center;line-height:100%;letter-spacing:2px;writing-mode:lr-tb;text-anchor:middle;fill:black;fill-opacity:1;stroke:none;stroke-width:1px;stroke-linecap:butt;stroke-linejoin:miter;stroke-opacity:1;font-family:DIN 1451 Mittelschrift"
     id="text6517" />
  <path
     d="M 43.713022,59.952228 L 776.09999,59.592762 C 788.50697,59.592762 949.19946,151.86108 949.19946,151.86108 C 956.93023,157.96128 955.62794,171.8723 949.4435,177.18193 C 949.4435,177.18193 794.12067,272.22528 774.48784,272.22528 L 49.499602,271.61115 C 18.202622,271.61115 15.860672,266.40322 15.860672,249.8286 L 16.144012,77.705153 C 16.144012,69.812417 18.836912,59.952228 43.713022,59.952228 z "
     style="fill:none;fill-opacity:1;fill-rule:evenodd;stroke:black;stroke-width:12.1235199;stroke-linecap:butt;stroke-linejoin:miter;stroke-miterlimit:4;stroke-dasharray:none;stroke-opacity:1"
     id="path1882" />
</svg>
