<?xml version="1.0" encoding="UTF-8" standalone="no"?>
<!-- Created with Inkscape (http://www.inkscape.org/) -->
<svg
   xmlns:svg="http://www.w3.org/2000/svg"
   xmlns="http://www.w3.org/2000/svg"
   version="1.0"
   width="1350"
   height="880"
   id="svg2">
  <defs
     id="defs9" />
  <g
     transform="translate(-16.23104,2.229532)"
     id="g1999">
    <path
       d="M 27.092082,48.136311 L 27.400143,840.96746 C 27.400143,861.56523 39.195258,870.91836 56.45523,870.91836 L 1327.3683,871.54345 C 1337.9392,871.54345 1355.37,854.94943 1355.37,840.71875 L 1355.2895,36.636763 C 1355.2895,22.54158 1339.9313,5.0471577 1323.4774,5.0471577 L 74.645984,3.9992327 C 36.804051,3.7951458 27.092082,21.490869 27.092082,48.136311 z "
       style="fill:#fc3;fill-opacity:1;fill-rule:evenodd;stroke:black;stroke-width:2.25836778;stroke-linecap:butt;stroke-linejoin:miter;stroke-miterlimit:4;stroke-dasharray:none;stroke-opacity:1"
       id="path3829" />
    <path
       d="M 336.59375,489.5 C 335.53176,489.54058 334.42819,489.7884 333.34375,490.28125 L 259.46875,544.15625 L 333.375,598 C 337.23677,600.44465 345.64763,598.23487 344.78125,589.34375 L 338.28125,562.1875 L 338.28125,562 L 429.9375,561.96875 C 456.93425,561.96875 482.6327,595.62231 483.46875,622.21875 L 483.46875,790.25 L 519.9375,790.25 L 520,621.09375 C 520,559.89665 463.56999,525.96874 435.6875,525.96875 L 338.34375,525.9375 L 344.75,499 C 345.14631,493.1541 341.1957,489.32415 336.59375,489.5 z "
       style="fill:black;fill-opacity:1;fill-rule:evenodd;stroke:none;stroke-width:1px;stroke-linecap:butt;stroke-linejoin:miter;stroke-opacity:1"
       id="path1911" />
    <path
       d="M 46.409285,38.714287 L 46.432076,835.99857 C 46.432076,846.49008 54.574408,851.91354 60.650972,851.91354 L 1320.7784,852.14955 C 1325.6601,852.14955 1334.9911,843.99063 1334.9911,839.29961 L 1334.9965,35.787002 C 1334.7984,28.137492 1322.2778,24.631722 1314.9092,24.631722 L 58.206788,24.39451 C 54.924073,24.39451 46.409285,33.76532 46.409285,38.714287 z "
       style="opacity:1;fill:none;fill-opacity:1;fill-rule:evenodd;stroke:black;stroke-width:19.30764198;stroke-linecap:butt;stroke-linejoin:miter;stroke-miterlimit:4;stroke-dasharray:none;stroke-opacity:1"
       id="path2057" />
    <path
       d="M 641.15625,219.25 L 587.3125,293.15625 C 584.86784,297.01802 587.10888,305.42888 596,304.5625 L 623.15625,298.03125 L 623.5625,298.03125 L 623.5625,790.25 L 660.03125,790.25 L 660.1875,298.28125 L 686.34375,304.53125 C 693.53872,305.01903 697.69102,298.87741 695.0625,293.09375 L 641.15625,219.25 z "
       style="fill:black;fill-opacity:1;fill-rule:evenodd;stroke:none;stroke-width:1px;stroke-linecap:butt;stroke-linejoin:miter;stroke-opacity:1"
       id="path5472" />
    <path
       d="M 781.84375,219.3125 L 728,293.21875 C 725.55537,297.08054 727.79638,305.49138 736.6875,304.625 L 762.78125,298.34375 L 762.78125,790.25 L 799.28125,790.25 L 799.34375,619.59375 C 802.57652,609.7396 801.83614,574.33147 852.25,561.875 L 943.875,562 L 943.875,562.28125 L 937.40625,589.4375 C 936.9185,596.63247 943.02884,600.78485 948.8125,598.15625 L 1022.6875,544.25 L 948.78125,490.40625 C 944.91947,487.96163 936.50862,490.20263 937.375,499.09375 L 943.78125,525.90625 L 849.6875,525.90625 C 828.75722,528.02486 813.29139,536.21809 799.34375,546.125 L 799.4375,298.09375 L 799.875,298.09375 L 827,304.59375 C 834.19495,305.08152 838.34727,298.97116 835.71875,293.1875 L 781.84375,219.3125 z "
       style="fill:black;fill-opacity:1;fill-rule:evenodd;stroke:none;stroke-width:1px;stroke-linecap:butt;stroke-linejoin:miter;stroke-opacity:1"
       id="path1907" />
    <path
       d="M 598.75829,177.40758 L 598.75829,99.952419 L 609.86888,99.952419 L 644.90179,155.02692 L 645.11443,155.02692 L 645.11443,99.952419 L 656.91611,99.952419 L 656.91611,177.40758 L 645.80552,177.40758 L 610.77261,122.33308 L 610.50681,122.33308 L 610.50681,177.40758 L 598.75829,177.40758 z M 672.22639,158.90765 L 672.22639,122.22676 L 683.33698,122.22676 L 683.33698,155.13324 C 683.33696,158.88995 684.3736,161.80492 686.44688,163.87818 C 688.52013,165.95145 691.15158,166.98809 694.34125,166.98808 C 697.42454,166.98809 700.00283,165.95145 702.07613,163.87818 C 704.14936,161.80492 705.18599,158.88995 705.18603,155.13324 L 705.18603,122.22676 L 716.29662,122.22676 L 716.29662,177.40758 L 705.18603,177.40758 L 705.18603,171.5599 L 704.97339,171.5599 C 701.53563,175.88364 696.78661,178.0455 690.72632,178.04551 C 686.36712,178.0455 682.19401,176.4241 678.20697,173.1813 C 674.21991,169.9385 672.22639,165.18062 672.22639,158.90765 L 672.22639,158.90765 z M 697.37141,113.66788 L 697.37141,101.91937 L 709.11993,101.91937 L 709.11993,113.66788 L 697.37141,113.66788 z M 678.18039,113.66788 L 678.18039,101.91937 L 689.98207,101.91937 L 689.98207,113.66788 L 678.18039,113.66788 z M 730.70318,177.40758 L 730.70318,122.22676 L 741.81377,122.22676 L 741.81377,128.1276 L 742.02641,128.1276 C 745.46411,123.76847 750.24857,121.58888 756.3798,121.58883 C 760.41998,121.58888 764.26527,123.0065 767.91567,125.84169 L 759.88841,135.41061 C 757.47842,133.60319 755.03303,132.69946 752.55223,132.69942 C 749.82329,132.69946 747.35132,133.61205 745.13631,135.43719 C 742.92126,137.26242 741.81375,140.19512 741.81377,144.23529 L 741.81377,177.40758 L 730.70318,177.40758 z M 773.01911,177.40758 L 773.01911,122.22676 L 784.1297,122.22676 L 784.1297,128.1276 L 784.34234,128.1276 C 787.78005,123.76847 792.5645,121.58888 798.69573,121.58883 C 802.98399,121.58888 807.12167,123.21914 811.10876,126.47961 C 815.09576,129.74019 817.08929,134.4892 817.08934,140.72669 L 817.08934,177.40758 L 805.97875,177.40758 L 805.97875,144.55426 C 805.97871,140.83304 804.94208,137.92693 802.86885,135.8359 C 800.79555,133.74496 798.21725,132.69946 795.13397,132.69942 C 791.9443,132.69946 789.31284,133.74496 787.2396,135.8359 C 785.16631,137.92693 784.12968,140.83304 784.1297,144.55426 L 784.1297,177.40758 L 773.01911,177.40758 z M 831.49589,177.40758 L 831.49589,99.952419 L 842.60647,99.952419 L 842.60647,128.1276 C 844.662,126.17842 846.83273,124.60132 849.11866,123.39629 C 851.40455,122.19137 853.98284,121.58888 856.85355,121.58883 C 860.22035,121.58888 863.12647,122.27111 865.5719,123.63552 C 868.01725,125.00003 870.03736,126.71003 871.63222,128.76553 C 873.15611,130.75024 874.19275,133.06273 874.74213,135.703 C 875.2914,138.34335 875.56606,143.03035 875.56612,149.76401 C 875.56606,156.5686 875.2914,161.30876 874.74213,163.9845 C 874.19275,166.66026 873.15611,168.97275 871.63222,170.92197 C 870.03736,173.01296 868.01725,174.72296 865.5719,176.05198 C 863.12647,177.381 860.22035,178.0455 856.85355,178.04551 C 851.18304,178.0455 846.43402,175.91908 842.60647,171.66622 L 842.60647,177.40758 L 831.49589,177.40758 z M 853.50442,132.69942 C 848.29465,132.69946 845.17589,134.56009 844.14814,138.28129 C 843.12034,142.00258 842.60646,145.83015 842.60647,149.76401 C 842.60646,153.80424 843.12034,157.68497 844.14814,161.4062 C 845.17589,165.12746 848.29465,166.98809 853.50442,166.98808 C 858.71414,166.98809 861.84175,165.19835 862.88729,161.61885 C 863.93274,158.03938 864.45549,154.08777 864.45553,149.76401 C 864.45549,145.54662 863.93274,141.64817 862.88729,138.06865 C 861.84175,134.4892 858.71414,132.69946 853.50442,132.69942 L 853.50442,132.69942 z M 930.80009,154.01686 L 896.45827,154.01686 C 896.45825,158.55326 897.68981,161.95555 900.15294,164.22372 C 902.61603,166.49192 905.76137,167.62602 909.58896,167.62601 C 914.16075,167.62602 918.20096,165.85399 921.7096,162.30993 L 929.73687,169.16767 C 927.00791,172.35731 923.93345,174.63436 920.51349,175.99882 C 917.09345,177.36328 913.52282,178.0455 909.80161,178.04551 C 904.13111,178.0455 898.63784,176.21146 893.32178,172.54337 C 888.00571,168.87529 885.34767,161.37078 885.34768,150.02981 C 885.34767,139.29138 887.80192,131.86661 892.71044,127.75547 C 897.61893,123.64443 902.74893,121.58888 908.10046,121.58883 C 914.16075,121.58888 919.4591,123.68873 923.99552,127.88837 C 928.53185,132.08811 930.80004,137.74972 930.80009,144.87322 L 930.80009,154.01686 z M 896.45827,144.87322 L 919.74266,144.87322 C 919.56542,140.72672 918.39588,137.5548 916.23405,135.35745 C 914.07215,133.16019 911.36096,132.06153 908.10046,132.06149 C 904.80447,132.06153 902.0667,133.16019 899.88713,135.35745 C 897.70753,137.5548 896.56457,140.72672 896.45827,144.87322 L 896.45827,144.87322 z M 942.49546,177.40758 L 942.49546,122.22676 L 953.60605,122.22676 L 953.60605,128.1276 L 953.81869,128.1276 C 957.25639,123.76847 962.04085,121.58888 968.17208,121.58883 C 972.21226,121.58888 976.05755,123.0065 979.70796,125.84169 L 971.68069,135.41061 C 969.2707,133.60319 966.82531,132.69946 964.34451,132.69942 C 961.61557,132.69946 959.1436,133.61205 956.92859,135.43719 C 954.71354,137.26242 953.60603,140.19512 953.60605,144.23529 L 953.60605,177.40758 L 942.49546,177.40758 z M 1015.8041,177.35442 L 1015.8041,171.66622 C 1011.941,175.91908 1007.192,178.0455 1001.557,178.04551 C 997.94205,178.0455 994.92075,177.32784 992.4931,175.8925 C 990.06541,174.45716 988.23137,172.94208 986.99097,171.34726 C 985.39614,169.29172 984.30634,167.11213 983.72158,164.80849 C 983.13681,162.50487 982.84442,157.52549 982.84443,149.87033 C 982.84442,142.21522 983.13681,137.23584 983.72158,134.93217 C 984.30634,132.62858 985.39614,130.43127 986.99097,128.34024 C 988.23137,126.78091 990.06541,125.26583 992.4931,123.795 C 994.92075,122.32427 997.94205,121.58888 1001.557,121.58883 C 1006.9439,121.58888 1011.6929,123.76847 1015.8041,128.1276 L 1015.8041,122.22676 L 1026.9147,122.22676 L 1026.9147,176.13172 C 1026.9146,184.42478 1024.4958,190.53826 1019.6582,194.47217 C 1014.8206,198.40604 1009.2653,200.37298 1002.9923,200.373 C 999.44827,200.37298 995.97511,199.52241 992.57284,197.82129 C 989.17054,196.12013 986.24671,193.88738 983.80132,191.12304 L 992.41336,184.26531 C 993.76008,185.61204 995.36376,186.78157 997.2244,187.77392 C 999.08501,188.76624 1001.0785,189.2624 1003.205,189.26242 C 1006.8908,189.2624 1009.9121,188.23463 1012.2689,186.17909 C 1014.6256,184.12354 1015.804,181.18198 1015.8041,177.35442 L 1015.8041,177.35442 z M 993.95502,149.87033 C 993.955,154.30041 994.07018,157.24197 994.30056,158.69501 C 994.53091,160.14808 995.14226,161.49482 996.13461,162.73522 C 996.87884,163.72757 997.97749,164.68446 999.43057,165.6059 C 1000.8836,166.52736 1002.7265,166.98809 1004.9593,166.98808 C 1007.1211,166.98809 1008.9197,166.52736 1010.3551,165.6059 C 1011.7904,164.68446 1012.8979,163.72757 1013.6776,162.73522 C 1014.6345,161.49482 1015.2281,160.14808 1015.4585,158.69501 C 1015.6889,157.24197 1015.804,154.30041 1015.8041,149.87033 C 1015.804,145.4403 1015.6889,142.49874 1015.4585,141.04565 C 1015.2281,139.59263 1014.6345,138.22817 1013.6776,136.95227 C 1012.8979,135.99542 1011.7904,135.04739 1010.3551,134.10818 C 1008.9197,133.16905 1007.1211,132.69946 1004.9593,132.69942 C 1002.7265,132.69946 1000.8836,133.16905 999.43057,134.10818 C 997.97749,135.04739 996.87884,135.99542 996.13461,136.95227 C 995.14226,138.22817 994.53091,139.59263 994.30056,141.04565 C 994.07018,142.49874 993.955,145.4403 993.95502,149.87033 L 993.95502,149.87033 z "
       style="font-size:108.87313843px;font-style:normal;font-variant:normal;font-weight:normal;font-stretch:normal;text-align:center;line-height:100%;writing-mode:lr-tb;text-anchor:middle;fill:black;fill-opacity:1;stroke:none;stroke-width:1px;stroke-linecap:butt;stroke-linejoin:miter;stroke-opacity:1;font-family:DIN 1451 Mittelschrift"
       id="text1917" />
    <path
       d="M 904.01839,424.51061 L 904.01839,373.26368 L 915.76691,373.26368 L 915.76691,423.18159 C 915.76689,428.53313 917.28197,432.61764 920.31215,435.43514 C 923.34228,438.25267 927.09011,439.66142 931.55564,439.66141 C 936.0211,439.66142 939.76893,438.25267 942.79913,435.43514 C 945.82924,432.61764 947.34432,428.53313 947.34437,423.18159 L 947.34437,373.26368 L 959.09289,373.26368 L 959.09289,424.51061 C 959.09283,432.59106 956.41707,439.08552 951.06562,443.99401 C 945.71406,448.90252 939.21074,451.35677 931.55564,451.35677 C 923.86503,451.35677 917.35285,448.90252 912.01908,443.99401 C 906.68528,439.08552 904.01838,432.59106 904.01839,424.51061 L 904.01839,424.51061 z M 973.12732,450.71884 L 973.12732,373.26368 L 984.23791,373.26368 L 984.23791,401.43886 L 984.45055,401.43886 C 987.88825,397.07974 992.67271,394.90015 998.80394,394.90009 C 1003.0922,394.90015 1007.2299,396.53041 1011.217,399.79088 C 1015.204,403.05145 1017.1975,407.80047 1017.1975,414.03795 L 1017.1975,450.71884 L 1006.087,450.71884 L 1006.087,417.86552 C 1006.0869,414.14431 1005.0503,411.23819 1002.9771,409.14716 C 1000.9038,407.05622 998.32546,406.01073 995.24217,406.01068 C 992.0525,406.01073 989.42105,407.05622 987.34781,409.14716 C 985.27452,411.23819 984.23789,414.14431 984.23791,417.86552 L 984.23791,450.71884 L 973.12732,450.71884 z M 1031.6041,437.3755 L 1031.6041,373.26368 L 1042.7147,373.26368 L 1042.7147,436.47177 C 1042.7147,439.0235 1044.0968,440.29935 1046.8612,440.29934 L 1050.6356,440.29934 L 1050.6356,450.71884 L 1045.7448,450.71884 C 1041.7046,450.71884 1038.3378,449.73537 1035.6443,447.76842 C 1032.9508,445.80148 1031.6041,442.33718 1031.6041,437.3755 L 1031.6041,437.3755 z M 1059.673,450.71884 L 1059.673,373.26368 L 1070.7835,373.26368 L 1070.7835,401.43886 C 1072.8391,399.48969 1075.0098,397.91259 1077.2957,396.70756 C 1079.5816,395.50264 1082.1599,394.90015 1085.0306,394.90009 C 1088.3974,394.90015 1091.3035,395.58238 1093.749,396.94678 C 1096.1943,398.31129 1098.2144,400.02129 1099.8093,402.07679 C 1101.3332,404.0615 1102.3698,406.37399 1102.9192,409.01426 C 1103.4685,411.65462 1103.7431,416.34161 1103.7432,423.07527 C 1103.7431,429.87986 1103.4685,434.62002 1102.9192,437.29576 C 1102.3698,439.97153 1101.3332,442.28402 1099.8093,444.23323 C 1098.2144,446.32423 1096.1943,448.03423 1093.749,449.36324 C 1091.3035,450.69226 1088.3974,451.35677 1085.0306,451.35677 C 1079.3601,451.35677 1074.6111,449.23034 1070.7835,444.97748 L 1070.7835,450.71884 L 1059.673,450.71884 z M 1081.6815,406.01068 C 1076.4717,406.01073 1073.353,407.87135 1072.3252,411.59256 C 1071.2974,415.31384 1070.7835,419.14141 1070.7835,423.07527 C 1070.7835,427.11551 1071.2974,430.99624 1072.3252,434.71747 C 1073.353,438.43873 1076.4717,440.29935 1081.6815,440.29934 C 1086.8912,440.29935 1090.0188,438.50961 1091.0644,434.93011 C 1092.1098,431.35064 1092.6326,427.39903 1092.6326,423.07527 C 1092.6326,418.85789 1092.1098,414.95944 1091.0644,411.37991 C 1090.0188,407.80047 1086.8912,406.01073 1081.6815,406.01068 L 1081.6815,406.01068 z M 1145.2085,450.71884 L 1145.2085,445.82806 L 1144.9427,445.82806 C 1142.7099,449.51387 1138.1736,451.35677 1131.3336,451.35677 C 1125.1669,451.35677 1120.3825,449.75309 1116.9802,446.54572 C 1113.5779,443.33837 1111.8768,439.32474 1111.8768,434.50482 C 1111.8768,430.14567 1113.383,426.33582 1116.3954,423.07527 C 1119.4079,419.81478 1123.8911,418.18452 1129.8451,418.18448 L 1145.2085,418.18448 L 1145.2085,412.44313 C 1145.2085,407.72959 1141.4341,405.3728 1133.8853,405.37275 C 1128.6401,405.3728 1125.1492,406.7727 1123.4126,409.57245 L 1114.6943,402.98052 C 1118.5573,397.59362 1124.7594,394.90015 1133.3005,394.90009 C 1140.1051,394.90015 1145.6338,396.22917 1149.8867,398.88715 C 1154.1395,401.54523 1156.2659,406.27653 1156.266,413.08106 L 1156.266,450.71884 L 1145.2085,450.71884 z M 1145.2085,431.36834 L 1145.2085,427.32813 L 1131.9184,427.32813 C 1125.5036,427.32815 1122.2963,429.54318 1122.2963,433.97322 C 1122.2963,435.85158 1123.1025,437.48184 1124.7151,438.864 C 1126.3276,440.24619 1129.0122,440.93728 1132.7689,440.93727 C 1137.3762,440.93728 1140.6012,440.42339 1142.4442,439.39561 C 1144.287,438.36785 1145.2085,435.69209 1145.2085,431.36834 L 1145.2085,431.36834 z M 1203.1006,434.50482 L 1211.2873,441.841 C 1208.8773,444.60536 1206.0155,446.88241 1202.7019,448.67215 C 1199.3881,450.4619 1195.6403,451.35677 1191.4584,451.35677 C 1185.0791,451.35677 1179.3111,449.18604 1174.1546,444.84458 C 1168.998,440.50313 1166.4197,433.28214 1166.4197,423.18159 C 1166.4197,413.08109 1168.998,405.84238 1174.1546,401.46544 C 1179.3111,397.0886 1185.0791,394.90015 1191.4584,394.90009 C 1195.6403,394.90015 1199.3881,395.80388 1202.7019,397.61129 C 1206.0155,399.4188 1208.8773,401.70471 1211.2873,404.46902 L 1203.1006,411.75204 C 1199.9818,407.92451 1196.2428,406.01073 1191.8837,406.01068 C 1182.3147,406.01073 1177.5302,411.73436 1177.5303,423.18159 C 1177.5302,434.59344 1182.3147,440.29935 1191.8837,440.29934 C 1196.2782,440.29935 1200.0172,438.36785 1203.1006,434.50482 L 1203.1006,434.50482 z M 1218.9425,450.71884 L 1218.9425,373.26368 L 1230.053,373.26368 L 1230.053,401.43886 L 1230.2657,401.43886 C 1233.7034,397.07974 1238.4879,394.90015 1244.6191,394.90009 C 1248.9073,394.90015 1253.045,396.53041 1257.0321,399.79088 C 1261.0191,403.05145 1263.0126,407.80047 1263.0127,414.03795 L 1263.0127,450.71884 L 1251.9021,450.71884 L 1251.9021,417.86552 C 1251.9021,414.14431 1250.8654,411.23819 1248.7922,409.14716 C 1246.7189,407.05622 1244.1406,406.01073 1241.0573,406.01068 C 1237.8676,406.01073 1235.2362,407.05622 1233.1629,409.14716 C 1231.0897,411.23819 1230.053,414.14431 1230.053,417.86552 L 1230.053,450.71884 L 1218.9425,450.71884 z "
       style="font-size:108.87313843px;font-style:normal;font-variant:normal;font-weight:normal;font-stretch:normal;text-align:center;line-height:100%;writing-mode:lr-tb;text-anchor:middle;fill:black;fill-opacity:1;stroke:none;stroke-width:1px;stroke-linecap:butt;stroke-linejoin:miter;stroke-opacity:1;font-family:DIN 1451 Mittelschrift"
       id="text1921" />
    <path
       d="M 121.53906,440.7246 L 129.30052,431.89992 C 132.20663,434.23901 135.55575,436.11735 139.3479,437.53495 C 143.14,438.95258 147.10933,439.66139 151.2559,439.66138 C 156.04032,439.66139 159.79701,438.66906 162.52597,436.68438 C 165.25484,434.69973 166.6193,432.09486 166.61934,428.86976 C 166.6193,422.77402 163.25245,419.28314 156.51881,418.3971 C 154.74675,418.18449 153.09877,417.97184 151.57486,417.75917 C 150.05089,417.54656 148.27887,417.29848 146.25879,417.01492 C 139.56052,416.0935 134.4571,413.63925 130.9485,409.65216 C 127.43989,405.66515 125.68559,400.85411 125.68559,395.21903 C 125.68559,388.62716 127.89176,383.20477 132.3041,378.95185 C 136.71642,374.69907 142.92736,372.57264 150.93693,372.57256 C 155.72136,372.57264 160.2223,373.33461 164.43975,374.85847 C 168.65712,376.38249 172.53785,378.31399 176.08195,380.65299 L 169.54318,390.32824 C 166.7079,388.55628 163.66002,387.12094 160.39954,386.02222 C 157.13898,384.92363 153.80758,384.37431 150.40532,384.37424 C 146.79037,384.37431 143.72477,385.29576 141.20852,387.1386 C 138.69223,388.98156 137.43409,391.74592 137.43411,395.43167 C 137.43409,397.62903 138.28466,399.68458 139.98582,401.59831 C 141.68695,403.51214 144.50446,404.77028 148.43838,405.37272 C 149.46612,405.54997 150.70654,405.73603 152.15963,405.93091 C 153.61265,406.12588 155.27835,406.32966 157.15673,406.54226 C 164.38655,407.42831 169.72919,410.05091 173.18469,414.41004 C 176.64008,418.76925 178.3678,423.58915 178.36786,428.86976 C 178.3678,435.99331 175.90469,441.52202 170.97852,445.4559 C 166.05225,449.38979 159.44261,451.35674 151.14957,451.35674 C 139.48964,451.35674 129.61948,447.81269 121.53906,440.7246 L 121.53906,440.7246 z M 190.4885,395.53799 L 190.4885,378.79237 L 201.59909,378.79237 L 201.59909,395.53799 L 209.67952,395.53799 L 209.67952,404.0437 L 201.59909,404.0437 L 201.59909,436.15278 C 201.59907,438.91714 202.91037,440.29932 205.53298,440.29931 L 209.67952,440.29931 L 209.67952,450.71881 L 203.885,450.71881 C 200.02197,450.71881 196.82347,449.54928 194.28949,447.2102 C 191.75549,444.87114 190.48849,441.52202 190.4885,437.16283 L 190.4885,404.0437 L 184.95979,404.0437 L 184.95979,395.53799 L 190.4885,395.53799 z M 220.04586,432.21888 L 220.04586,395.53799 L 231.15644,395.53799 L 231.15644,428.44447 C 231.15643,432.20118 232.19306,435.11616 234.26635,437.18941 C 236.33959,439.26269 238.97104,440.29932 242.16071,440.29931 C 245.244,440.29932 247.82229,439.26269 249.8956,437.18941 C 251.96882,435.11616 253.00546,432.20118 253.0055,428.44447 L 253.0055,395.53799 L 264.11609,395.53799 L 264.11609,450.71881 L 253.0055,450.71881 L 253.0055,444.87113 L 252.79285,444.87113 C 249.35509,449.19487 244.60607,451.35674 238.54578,451.35674 C 234.18658,451.35674 230.01347,449.73534 226.02644,446.49253 C 222.03937,443.24974 220.04585,438.49186 220.04586,432.21888 L 220.04586,432.21888 z M 279.16058,395.53799 L 279.16058,378.79237 L 290.27116,378.79237 L 290.27116,395.53799 L 298.35159,395.53799 L 298.35159,404.0437 L 290.27116,404.0437 L 290.27116,436.15278 C 290.27115,438.91714 291.58244,440.29932 294.20506,440.29931 L 298.35159,440.29931 L 298.35159,450.71881 L 292.55708,450.71881 C 288.69405,450.71881 285.49555,449.54928 282.96157,447.2102 C 280.42756,444.87114 279.16057,441.52202 279.16058,437.16283 L 279.16058,404.0437 L 273.63186,404.0437 L 273.63186,395.53799 L 279.16058,395.53799 z M 309.35586,395.53799 L 309.35586,378.79237 L 320.46645,378.79237 L 320.46645,395.53799 L 328.54687,395.53799 L 328.54687,404.0437 L 320.46645,404.0437 L 320.46645,436.15278 C 320.46643,438.91714 321.77772,440.29932 324.40034,440.29931 L 328.54687,440.29931 L 328.54687,450.71881 L 322.75236,450.71881 C 318.88933,450.71881 315.69083,449.54928 313.15685,447.2102 C 310.62285,444.87114 309.35585,441.52202 309.35586,437.16283 L 309.35586,404.0437 L 303.82714,404.0437 L 303.82714,395.53799 L 309.35586,395.53799 z M 369.90591,450.66565 L 369.90591,444.97745 C 366.04286,449.23031 361.29384,451.35674 355.65884,451.35674 C 352.04389,451.35674 349.02259,450.63907 346.59493,449.20373 C 344.16725,447.76839 342.33321,446.25331 341.0928,444.65849 C 339.49797,442.60295 338.40818,440.42336 337.82342,438.11972 C 337.23864,435.81611 336.94626,430.83672 336.94626,423.18156 C 336.94626,415.52645 337.23864,410.54707 337.82342,408.2434 C 338.40818,405.93982 339.49797,403.74251 341.0928,401.65147 C 342.33321,400.09214 344.16725,398.57706 346.59493,397.10623 C 349.02259,395.63551 352.04389,394.90012 355.65884,394.90006 C 361.04576,394.90012 365.79478,397.07971 369.90591,401.43883 L 369.90591,395.53799 L 381.0165,395.53799 L 381.0165,449.44295 C 381.01645,457.73602 378.59764,463.84949 373.76006,467.7834 C 368.9224,471.71727 363.36711,473.68421 357.09417,473.68424 C 353.55011,473.68421 350.07694,472.83364 346.67468,471.13252 C 343.27238,469.43136 340.34854,467.19861 337.90316,464.43427 L 346.51519,457.57654 C 347.86191,458.92327 349.46559,460.09281 351.32624,461.08515 C 353.18684,462.07747 355.18037,462.57364 357.30682,462.57365 C 360.9926,462.57364 364.01389,461.54586 366.37072,459.49033 C 368.72747,457.43477 369.90587,454.49322 369.90591,450.66565 L 369.90591,450.66565 z M 348.05685,423.18156 C 348.05684,427.61164 348.17202,430.5532 348.4024,432.00624 C 348.63274,433.45932 349.24409,434.80605 350.23644,436.04645 C 350.98067,437.0388 352.07933,437.99569 353.53241,438.91713 C 354.98544,439.8386 356.82835,440.29932 359.06112,440.29931 C 361.22296,440.29932 363.02156,439.8386 364.45693,438.91713 C 365.89224,437.99569 366.99975,437.0388 367.77948,436.04645 C 368.73633,434.80605 369.32996,433.45932 369.56036,432.00624 C 369.79069,430.5532 369.90587,427.61164 369.90591,423.18156 C 369.90587,418.75153 369.79069,415.80998 369.56036,414.35688 C 369.32996,412.90386 368.73633,411.5394 367.77948,410.26351 C 366.99975,409.30666 365.89224,408.35862 364.45693,407.41941 C 363.02156,406.48028 361.22296,406.0107 359.06112,406.01065 C 356.82835,406.0107 354.98544,406.48028 353.53241,407.41941 C 352.07933,408.35862 350.98067,409.30666 350.23644,410.26351 C 349.24409,411.5394 348.63274,412.90386 348.4024,414.35688 C 348.17202,415.80998 348.05684,418.75153 348.05685,423.18156 L 348.05685,423.18156 z M 424.4488,450.71881 L 424.4488,445.82802 L 424.183,445.82802 C 421.95022,449.51384 417.41384,451.35674 410.57386,451.35674 C 404.4072,451.35674 399.62274,449.75306 396.22046,446.54569 C 392.81817,443.33834 391.11703,439.32471 391.11704,434.50479 C 391.11703,430.14564 392.62325,426.33579 395.6357,423.07524 C 398.64813,419.81475 403.13134,418.18449 409.08536,418.18445 L 424.4488,418.18445 L 424.4488,412.4431 C 424.44877,407.72956 420.67436,405.37277 413.12557,405.37272 C 407.88036,405.37277 404.38948,406.77267 402.65291,409.57242 L 393.93455,402.98049 C 397.79756,397.59359 403.99963,394.90012 412.5408,394.90006 C 419.34534,394.90012 424.87405,396.22913 429.12695,398.88712 C 433.37976,401.5452 435.50618,406.2765 435.50623,413.08103 L 435.50623,450.71881 L 424.4488,450.71881 z M 424.4488,431.36831 L 424.4488,427.3281 L 411.15862,427.3281 C 404.74388,427.32812 401.53652,429.54315 401.53654,433.97319 C 401.53652,435.85155 402.34279,437.48181 403.95535,438.86397 C 405.56787,440.24616 408.25249,440.93725 412.0092,440.93724 C 416.61643,440.93725 419.84151,440.42336 421.68445,439.39558 C 423.52732,438.36782 424.44877,435.69206 424.4488,431.36831 L 424.4488,431.36831 z M 449.91277,450.71881 L 449.91277,395.53799 L 461.02336,395.53799 L 461.02336,401.43883 L 461.236,401.43883 C 464.6737,397.07971 469.45816,394.90012 475.58939,394.90006 C 479.62957,394.90012 483.47486,396.31774 487.12527,399.15292 L 479.098,408.72185 C 476.68801,406.91443 474.24262,406.0107 471.76182,406.01065 C 469.03288,406.0107 466.56091,406.92329 464.3459,408.74843 C 462.13085,410.57365 461.02334,413.50635 461.02336,417.54653 L 461.02336,450.71881 L 449.91277,450.71881 z M 492.86662,395.53799 L 492.86662,378.79237 L 503.9772,378.79237 L 503.9772,395.53799 L 512.05763,395.53799 L 512.05763,404.0437 L 503.9772,404.0437 L 503.9772,436.15278 C 503.97718,438.91714 505.28848,440.29932 507.9111,440.29931 L 512.05763,440.29931 L 512.05763,450.71881 L 506.26311,450.71881 C 502.40009,450.71881 499.20159,449.54928 496.66761,447.2102 C 494.1336,444.87114 492.86661,441.52202 492.86662,437.16283 L 492.86662,404.0437 L 487.3379,404.0437 L 487.3379,395.53799 L 492.86662,395.53799 z "
       style="font-size:108.87313843px;font-style:normal;font-variant:normal;font-weight:normal;font-stretch:normal;text-align:center;line-height:100%;writing-mode:lr-tb;text-anchor:middle;fill:black;fill-opacity:1;stroke:none;stroke-width:1px;stroke-linecap:butt;stroke-linejoin:miter;stroke-opacity:1;font-family:DIN 1451 Mittelschrift"
       id="text1925" />
    <path
       d="M 408.72249,99.367012 L 537.55392,99.938902 C 542.15599,99.939632 546.70982,105.61975 546.76195,111.31358 L 546.83343,172.03462 C 546.7902,176.00961 543.67603,181.09581 539.29902,181.12701 L 408.66573,181.05552 C 403.30373,181.08165 399.57845,174.48533 399.5439,168.71473 L 399.47978,109.15218 C 399.40615,104.38354 402.86279,99.346102 408.72249,99.367012 z "
       style="fill:none;fill-opacity:1;fill-rule:evenodd;stroke:black;stroke-width:5.84610415;stroke-linecap:butt;stroke-linejoin:miter;stroke-miterlimit:4;stroke-dasharray:none;stroke-opacity:1"
       id="path1945" />
    <path
       d="M 448.11457,166.67859 L 448.11457,121.97744 L 440.62821,127.4385 L 440.62821,119.44582 L 448.11457,113.98476 L 455.67326,113.98476 L 455.67326,166.67859 L 448.11457,166.67859 z M 470.21198,158.86674 L 470.21198,151.74204 L 487.86098,113.98476 L 496.28765,113.98476 L 478.45783,151.74204 L 492.2009,151.74204 L 492.2009,136.55233 L 499.75959,136.55233 L 499.75959,151.74204 L 503.99101,151.74204 L 503.99101,158.86674 L 499.75959,158.86674 L 499.75959,166.67859 L 492.2009,166.67859 L 492.2009,158.86674 L 470.21198,158.86674 z "
       style="font-size:74.0679245px;font-style:normal;font-variant:normal;font-weight:normal;font-stretch:normal;text-align:center;line-height:100%;writing-mode:lr-tb;text-anchor:middle;fill:black;fill-opacity:1;stroke:none;stroke-width:1px;stroke-linecap:butt;stroke-linejoin:miter;stroke-opacity:1;font-family:DIN 1451 Mittelschrift"
       id="text1960" />
  </g>
</svg>
