<?xml version="1.0" encoding="UTF-8" standalone="no"?>
<!-- Created with Inkscape (http://www.inkscape.org/) -->

<svg
   xmlns:dc="http://purl.org/dc/elements/1.1/"
   xmlns:cc="http://creativecommons.org/ns#"
   xmlns:rdf="http://www.w3.org/1999/02/22-rdf-syntax-ns#"
   xmlns:svg="http://www.w3.org/2000/svg"
   xmlns="http://www.w3.org/2000/svg"
   xmlns:sodipodi="http://sodipodi.sourceforge.net/DTD/sodipodi-0.dtd"
   xmlns:inkscape="http://www.inkscape.org/namespaces/inkscape"
   version="1.0"
   width="798.25238"
   height="1107.2188"
   id="svg2"
   inkscape:version="0.48.1 r9760"
   sodipodi:docname="Zeichen_438_-_StVO_2009.svg">
  <metadata
     id="metadata15">
    <rdf:RDF>
      <cc:Work
         rdf:about="">
        <dc:format>image/svg+xml</dc:format>
        <dc:type
           rdf:resource="http://purl.org/dc/dcmitype/StillImage" />
        <dc:title></dc:title>
      </cc:Work>
    </rdf:RDF>
  </metadata>
  <sodipodi:namedview
     pagecolor="#ffffff"
     bordercolor="#666666"
     borderopacity="1"
     objecttolerance="10"
     gridtolerance="10"
     guidetolerance="10"
     inkscape:pageopacity="0"
     inkscape:pageshadow="2"
     inkscape:window-width="1280"
     inkscape:window-height="976"
     id="namedview13"
     showgrid="false"
     fit-margin-top="0"
     fit-margin-left="0"
     fit-margin-right="0"
     fit-margin-bottom="0"
     inkscape:zoom="0.66485076"
     inkscape:cx="167.89873"
     inkscape:cy="-11.036767"
     inkscape:window-x="83"
     inkscape:window-y="0"
     inkscape:window-maximized="0"
     inkscape:current-layer="svg2" />
  <defs
     id="defs9" />
  <path
     d="M 0.987148,61.994021 2.365763,1050.7201 c 0.529506,32.7659 18.759314,51.0159 41.303807,50.0887 l 722.61493,1.6338 c 19.34998,0 31.23617,-22.2474 30.97427,-50.5133 L 796.51376,64.122779 c 0,-35.947964 -14.30907,-56.5500413 -40.39613,-57.0086219 L 47.231501,7.4770733 C 3.3827926,5.0920229 0.987148,42.241427 0.987148,61.994021 z"
     style="fill:#f0c900;fill-opacity:1;fill-rule:evenodd;stroke:#000000;stroke-width:1.96107209000000005;stroke-linecap:butt;stroke-linejoin:miter;stroke-miterlimit:4;stroke-opacity:1;stroke-dasharray:none"
     id="path3829"
     inkscape:connector-curvature="0"
     sodipodi:nodetypes="ccccccccc" />
  <path
     d="M 19.073948,58.068547 18.878284,1037.3188 c 0,24.5277 8.231738,45.3008 24.08402,45.3008 l 712.331866,0 c 20.30361,0 23.79555,-14.2542 23.79555,-43.3795 l 0.28199,-966.93154 c 0,-34.78368 -7.70878,-47.96061 -30.58594,-47.96061 L 44.667293,24.94869 c -19.238955,0 -25.593345,14.007027 -25.593345,33.119857 z"
     style="fill:none;stroke:#000000;stroke-width:16.76246452;stroke-linecap:butt;stroke-linejoin:miter;stroke-miterlimit:4;stroke-opacity:1;stroke-dasharray:none"
     id="path2057"
     inkscape:connector-curvature="0"
     sodipodi:nodetypes="ccssccccc" />
  <path
     style="fill:#ffffff;fill-rule:evenodd;stroke:#000000;stroke-width:2;stroke-miterlimit:4;stroke-dasharray:none"
     inkscape:connector-curvature="0"
     d="m 254.25,228.43104 -150,0 0,150 150,0 0,-150 z"
     id="path2994" />
  <path
     id="path2996"
     style="fill:#000000;fill-rule:evenodd;stroke:none"
     d="m 244.25,318.43104 0,12.5 -58.125,-25 -1.875,42.5 17.5,12.5 0,7.5 -22.5,-5 -22.5,5 0,-7.5 17.5,-12.5 -1.875,-42.5 -58.125,25 0,-12.5 57.07495,-42.18576 A 1162.9167,1162.9167 0 0 1 171.125,254.68104 l 0,0 a 8.125,16.25 0 0 1 12.1875,-14.07291 8.125,16.25 0 0 1 4.0625,14.07291 l 0,0 a 1162.9167,1162.9167 0 0 1 -0.19995,21.56424 L 244.25,318.43104 z m 82.02036,380.92541 0,-97.34326 62.73506,0 0,13.96345 -47.85904,0 0,27.72645 40.79124,0 0,13.16173 -40.79124,0 0,28.595 47.85904,0 0,13.89663 -62.73506,0 z m 75.52439,0 0,-69.34955 14.06827,0 0,7.41598 0.26925,0 c 4.35282,-5.47841 10.41093,-8.21764 18.17431,-8.21771 5.11568,7e-5 9.9846,1.78168 14.60676,5.34486 l -10.16415,12.02593 c -3.05153,-2.27151 -6.1479,-3.40729 -9.28909,-3.40735 -3.4554,6e-5 -6.58542,1.14698 -9.39007,3.44076 -2.8047,2.29388 -4.20704,5.97961 -4.20701,11.05718 l 0,41.6899 -14.06827,0 z m 95.31419,0 0,-7.21556 c -4.89141,5.34486 -10.90463,8.01729 -18.03969,8.01729 -4.30802,0 -8.01019,-0.83513 -11.10653,-2.5054 -3.09638,-1.67026 -5.63181,-3.81935 -7.60628,-6.44724 -1.97451,-2.44971 -3.29832,-5.35598 -3.97143,-8.7188 -0.67313,-3.36279 -1.00969,-9.32007 -1.00968,-17.87188 -1e-5,-8.46265 0.33655,-14.35312 1.00968,-17.67144 0.67311,-3.31821 1.99692,-6.22448 3.97143,-8.71881 1.97447,-2.58328 4.5099,-4.73236 7.60628,-6.44723 3.09634,-1.71474 6.79851,-2.57214 11.10653,-2.57221 3.58995,7e-5 6.84338,0.75725 9.76028,2.27156 2.91681,1.51445 5.67662,3.4965 8.27941,5.94615 l 0,-35.40969 14.06826,0 0,97.34326 -14.06826,0 z m -13.7317,-56.18784 c -6.64152,6e-5 -10.62415,2.24936 -11.94794,6.74789 -1.32383,4.49863 -1.98573,9.39808 -1.98571,14.69836 -2e-5,5.43398 0.66188,10.40023 1.98571,14.8988 1.32379,4.49861 5.30642,6.74791 11.94794,6.74789 6.50681,2e-5 10.42213,-2.33837 11.74598,-7.01513 1.32376,-4.67673 1.98567,-9.55391 1.98572,-14.63156 -5e-5,-4.94395 -0.66196,-9.75433 -1.98572,-14.43112 -1.32385,-4.6767 -5.23917,-7.01507 -11.74598,-7.01513 l 0,0 z m 44.02221,56.18784 0,-69.34955 14.06828,0 0,69.34955 -14.06828,0 z m 0,-83.37981 0,-13.96345 14.06828,0 0,13.96345 -14.06828,0 z m 32.71378,83.37981 0,-69.34955 14.06826,0 0,7.41598 0.26925,0 c 4.35284,-5.47841 10.41093,-8.21764 18.17432,-8.21771 5.42981,7e-5 10.66894,2.04893 15.71742,6.14659 5.04835,4.09779 7.57256,10.06621 7.57263,17.90528 l 0,46.09941 -14.06827,0 0,-41.28904 c -5e-5,-4.6767 -1.31264,-8.32902 -3.93777,-10.95696 -2.62522,-2.62784 -5.88986,-3.94178 -9.79393,-3.94184 -4.03877,6e-5 -7.37072,1.314 -9.99588,3.94184 -2.6252,2.62794 -3.93779,6.28026 -3.93777,10.95696 l 0,41.28904 -14.06826,0 z m 113.28659,-0.0668 0,-7.14876 c -4.89141,5.34486 -10.90463,8.01729 -18.0397,8.01729 -4.57726,0 -8.40284,-0.90194 -11.47674,-2.70583 -3.07395,-1.80389 -5.39621,-3.70799 -6.96683,-5.71232 -2.01938,-2.58334 -3.39927,-5.32257 -4.1397,-8.21772 -0.74044,-2.89512 -1.11065,-9.15305 -1.11065,-18.77383 0,-9.6207 0.37021,-15.87863 1.11065,-18.77382 0.74043,-2.89508 2.12032,-5.65658 4.1397,-8.28453 1.57062,-1.95972 3.89288,-3.86382 6.96683,-5.71232 3.0739,-1.84836 6.89948,-2.77257 11.47674,-2.77264 6.82094,7e-5 12.83417,2.7393 18.0397,8.21771 l 0,-7.41598 14.06826,0 0,67.74609 c -6e-5,10.42247 -3.06277,18.1057 -9.18813,23.04972 -6.12546,4.94396 -13.15959,7.41596 -21.1024,7.41598 -4.48751,-2e-5 -8.88524,-1.06899 -13.1932,-3.20691 -4.30801,-2.13797 -8.01018,-4.94402 -11.10653,-8.41816 l 10.90459,-8.61858 c 1.70522,1.69253 3.7358,3.16236 6.09176,4.40951 2.3559,1.24712 4.88011,1.87068 7.57263,1.8707 4.66695,-2e-5 8.49252,-1.29168 11.47675,-3.87502 2.98412,-2.58336 4.47622,-6.28022 4.47627,-11.09058 l 0,0 z m -27.66535,-34.54117 c -2e-5,5.5676 0.14581,9.26446 0.43753,11.09059 0.29166,1.82618 1.06575,3.51871 2.32226,5.07762 0.94236,1.24715 2.33347,2.44974 4.17337,3.60778 1.83984,1.15806 4.17333,1.7371 7.00047,1.73708 2.73733,2e-5 5.01473,-0.57902 6.83221,-1.73708 1.81738,-1.15804 3.21972,-2.36063 4.20702,-3.60778 1.21157,-1.55891 1.96322,-3.25144 2.25495,-5.07762 0.29164,-1.82613 0.43749,-5.52299 0.43754,-11.09059 -5e-5,-5.56752 -0.1459,-9.26438 -0.43754,-11.09058 -0.29173,-1.82611 -1.04338,-3.54092 -2.25495,-5.14443 -0.9873,-1.20254 -2.38964,-2.394 -4.20702,-3.57437 -1.81748,-1.18027 -4.09488,-1.77043 -6.83221,-1.77049 -2.82714,6e-5 -5.16063,0.59022 -7.00047,1.77049 -1.8399,1.18037 -3.23101,2.37183 -4.17337,3.57437 -1.25651,1.60351 -2.0306,3.31832 -2.32226,5.14443 -0.29172,1.8262 -0.43755,5.52306 -0.43753,11.09058 l 0,0 z M 104.125,187.65911 l 0,-97.343275 14.06826,0 28.13654,63.470215 27.53072,-63.470215 14.06826,0 0,97.343275 -14.87601,0 0,-60.73098 -0.26924,0 -20.53025,46.83434 -12.38546,0 -20.53024,-46.83434 -0.33657,0 0,60.73098 -14.87601,0 z m 103.25704,-23.25015 0,-46.09942 14.06827,0 0,41.35586 c -3e-5,4.72132 1.31255,8.38476 3.93776,10.99037 2.62515,2.60563 5.95711,3.90844 9.99587,3.90843 3.90407,1e-5 7.16871,-1.3028 9.79394,-3.90843 2.62513,-2.60561 3.93772,-6.26905 3.93777,-10.99037 l 0,-41.35586 14.06827,0 0,69.34957 -14.06827,0 0,-7.34919 -0.26925,0 c -4.35291,5.43394 -10.36613,8.1509 -18.03969,8.15091 -5.51964,-10e-6 -10.80365,-2.03773 -15.85204,-6.11319 -5.04844,-4.07544 -7.57265,-10.055 -7.57263,-17.93868 l 0,0 z m 31.83871,-56.85595 0,-14.765177 14.876,0 0,14.765177 -14.876,0 z m -24.29974,0 0,-14.765177 14.94333,0 0,14.765177 -14.94333,0 z m 66.50454,80.1061 0,-69.34957 14.06826,0 0,7.416 0.26925,0 c 4.35284,-5.47842 10.41093,-8.21766 18.17431,-8.21773 5.42982,7e-5 10.66895,2.04893 15.71743,6.14659 5.04835,4.09779 7.57256,10.06621 7.57262,17.90528 l 0,46.09943 -14.06826,0 0,-41.28906 c -5e-5,-4.6767 -1.31264,-8.32902 -3.93777,-10.95696 -2.62522,-2.62783 -5.88986,-3.94178 -9.79393,-3.94183 -4.03878,5e-5 -7.37074,1.314 -9.99588,3.94183 -2.6252,2.62794 -3.93779,6.28026 -3.93777,10.95696 l 0,41.28906 -14.06826,0 z m 115.10399,-20.37729 10.36609,9.21989 c -3.05154,3.47416 -6.67518,6.33588 -10.87093,8.58518 -4.19585,2.2493 -8.94135,3.37393 -14.23654,3.37394 -8.07751,-10e-6 -15.38088,-2.7281 -21.91016,-8.18431 -6.52929,-5.45621 -9.79393,-14.53132 -9.79393,-27.22539 0,-12.69399 3.26464,-21.79138 9.79393,-27.29219 6.52928,-5.50068 13.83265,-8.25106 21.91016,-8.25113 5.29519,7e-5 10.04069,1.13586 14.23654,3.40735 4.19575,2.27163 7.81939,5.14449 10.87093,8.61859 l -10.36609,9.15307 c -3.94903,-4.81032 -8.68332,-7.21551 -14.20288,-7.21556 -12.11624,5e-5 -18.17434,7.19334 -18.17432,21.57987 -2e-5,14.34207 6.05808,21.51308 18.17432,21.51307 5.56443,1e-5 10.29873,-2.42745 14.20288,-7.28238 l 0,0 z m 20.05906,20.37729 0,-97.343275 14.06826,0 0,35.409705 0.26925,0 c 4.35284,-5.47842 10.41093,-8.21766 18.17431,-8.21773 5.42982,7e-5 10.66895,2.04893 15.71743,6.14659 5.04835,4.09779 7.57256,10.06621 7.57262,17.90528 l 0,46.09943 -14.06826,0 0,-41.28906 c -5e-5,-4.6767 -1.31264,-8.32902 -3.93777,-10.95696 -2.62522,-2.62783 -5.88986,-3.94178 -9.79393,-3.94183 -4.03878,5e-5 -7.37074,1.314 -9.99588,3.94183 -2.6252,2.62794 -3.93779,6.28026 -3.93777,10.95696 l 0,41.28906 -14.06826,0 z m 128.16259,-29.39674 -43.48373,0 c -2e-5,5.7012 1.55938,9.97709 4.6782,12.82766 3.11877,2.85061 7.10142,4.27591 11.94793,4.2759 5.78882,1e-5 10.90455,-2.22702 15.3472,-6.68109 l 10.16416,8.61859 c -3.45543,4.00866 -7.34832,6.87038 -11.67868,8.58519 -4.33047,1.71481 -8.85161,2.5722 -13.56343,2.57221 -7.18,-10e-6 -14.1356,-2.30497 -20.86681,-6.91492 -6.73123,-4.60992 -10.09684,-14.04136 -10.09684,-28.29434 0,-13.49573 3.10758,-22.82695 9.32275,-27.99371 6.21515,-5.16663 12.71078,-7.74998 19.48691,-7.75005 7.67356,7e-5 14.38234,2.63909 20.12637,7.91708 5.74393,5.2781 8.61591,12.39344 8.61597,21.34603 l 0,11.49145 z m -43.48373,-11.49145 29.48278,0 c -0.22443,-5.21119 -1.7053,-9.19757 -4.44261,-11.95912 -2.73741,-2.76145 -6.17033,-4.14222 -10.29878,-4.14227 -4.1734,5e-5 -7.63997,1.38082 -10.39975,4.14227 -2.75982,2.76155 -4.20703,6.74793 -4.34164,11.95912 l 0,0 z m 58.29241,40.88819 0,-69.34957 14.06827,0 0,7.416 0.26925,0 c 4.35284,-5.47842 10.41094,-8.21766 18.17432,-8.21773 5.42981,7e-5 10.66895,2.04893 15.71742,6.14659 5.04836,4.09779 7.57257,10.06621 7.57263,17.90528 l 0,46.09943 -14.06827,0 0,-41.28906 c -5e-5,-4.6767 -1.31263,-8.32902 -3.93777,-10.95696 -2.62522,-2.62783 -5.88986,-3.94178 -9.79393,-3.94183 -4.03878,5e-5 -7.37073,1.314 -9.99587,3.94183 -2.62521,2.62794 -3.9378,6.28026 -3.93778,10.95696 l 0,41.28906 -14.06827,0 z m -388.09112,230.87214 -65.59375,96.625 c -2.97713,5.04903 -0.23406,16.03898 10.59375,14.90625 l 32.6875,-8.46875 0.0312,499.21875 45.25,0 0.28125,-184.15625 185.65625,-0.25 -8.5,32.34375 c -0.64252,8.69689 7.41273,13.70847 15.03125,10.53125 l 97.28125,-65.125 -97.34375,-65.0625 c -5.08693,-2.95494 -16.17248,-0.27839 -15.03125,10.46875 l 8.59375,32.8125 -185.6875,-0.625 -0.28125,-269.96875 32.03125,8.25 c 8.76217,0.63773 13.79482,-7.37575 10.59375,-14.9375 l -65.59375,-96.5625 z" />
</svg>
