<?xml version="1.0" encoding="UTF-8" standalone="no"?>
<!-- Created with Inkscape (http://www.inkscape.org/) -->
<svg
   xmlns:svg="http://www.w3.org/2000/svg"
   xmlns="http://www.w3.org/2000/svg"
   version="1.0"
   width="920"
   height="1180"
   id="svg2">
  <defs
     id="defs4" />
  <g
     id="layer1">
    <path
       d="M 4.5444169,40.487458 L 4.5444169,1139.6866 C 4.5444169,1162.4365 24.728975,1178.3967 40.120971,1178.3967 L 878.86824,1178.5616 C 894.94118,1178.5616 916.41007,1158.3711 916.41007,1141.5145 L 916.41007,38.21525 C 916.41007,22.062058 897.32783,1.8599142 877.07247,1.8599142 L 47.716378,1.8599142 C 21.649167,1.8599142 4.5444169,20.63111 4.5444169,40.487458 z "
       style="fill:white;fill-opacity:1;fill-rule:evenodd;stroke:black;stroke-width:2;stroke-linecap:butt;stroke-linejoin:miter;stroke-miterlimit:4;stroke-dasharray:none;stroke-opacity:1"
       id="path17238" />
    <path
       d="M 359.53731,1032.2625 C 359.53729,1036.864 360.97803,1040.3486 363.85953,1042.7162 C 366.74098,1045.084 369.96867,1046.2679 373.54263,1046.2678 C 377.11652,1046.2679 380.34421,1045.084 383.22573,1042.7162 C 386.10716,1040.3486 387.5479,1036.864 387.54794,1032.2625 C 387.5479,1027.7058 386.10716,1024.2324 383.22573,1021.8423 C 380.34421,1019.4523 377.11652,1018.2573 373.54263,1018.2572 C 369.96867,1018.2573 366.74098,1019.4523 363.85953,1021.8423 C 360.97803,1024.2324 359.53729,1027.7058 359.53731,1032.2625 L 359.53731,1032.2625 z M 343.78971,1074.2785 C 343.7897,1064.7629 347.63167,1057.4364 355.31561,1052.2988 C 352.41179,1049.7078 350.05523,1046.8375 348.24594,1043.6879 C 346.43664,1040.5384 345.53199,1036.8193 345.532,1032.5306 C 345.53199,1024.668 348.2236,1017.9892 353.60683,1012.4942 C 358.99004,1006.9994 365.6353,1004.252 373.54263,1004.2519 C 381.44989,1004.252 388.09515,1006.9994 393.47842,1012.4942 C 398.86159,1017.9892 401.5532,1024.668 401.55326,1032.5306 C 401.5532,1036.8193 400.63738,1040.5384 398.80581,1043.6879 C 396.97411,1046.8375 394.65106,1049.7078 391.83665,1052.2988 C 399.47586,1057.4811 403.29548,1064.8076 403.29555,1074.2785 C 403.29548,1082.9453 400.35817,1089.9926 394.48359,1095.4205 C 388.6089,1100.8484 381.62859,1103.5623 373.54263,1103.5623 C 365.41193,1103.5623 358.42044,1100.8484 352.56816,1095.4205 C 346.71585,1089.9926 343.7897,1082.9453 343.78971,1074.2785 L 343.78971,1074.2785 z M 357.79502,1074.1444 C 357.79501,1078.6119 359.36977,1082.3086 362.5193,1085.2348 C 365.6688,1088.1609 369.34324,1089.624 373.54263,1089.624 C 377.69728,1089.624 381.37171,1088.1609 384.56595,1085.2348 C 387.7601,1082.3086 389.35719,1078.6119 389.35724,1074.1444 C 389.35719,1069.6771 387.7601,1065.9691 384.56595,1063.0206 C 381.37171,1060.0722 377.69728,1058.5979 373.54263,1058.5979 C 369.34324,1058.5979 365.6688,1060.0722 362.5193,1063.0206 C 359.36977,1065.9691 357.79501,1069.6771 357.79502,1074.1444 L 357.79502,1074.1444 z M 453.2188,1074.6805 L 453.2188,1033.2007 C 453.21876,1028.51 451.95672,1024.8467 449.43268,1022.2109 C 446.90855,1019.5752 443.59151,1018.2573 439.48153,1018.2572 C 435.32682,1018.2573 431.9986,1019.5752 429.49688,1022.2109 C 426.99511,1024.8467 425.74424,1028.51 425.74426,1033.2007 L 425.74426,1074.6805 C 425.74424,1079.416 426.99511,1083.0904 429.49688,1085.7039 C 431.9986,1088.3173 435.32682,1089.624 439.48153,1089.624 C 443.59151,1089.624 446.90855,1088.3173 449.43268,1085.7039 C 451.95672,1083.0904 453.21876,1079.416 453.2188,1074.6805 L 453.2188,1074.6805 z M 411.73894,1075.4847 L 411.73894,1032.3965 C 411.73894,1023.4171 414.5534,1016.4815 420.18234,1011.5896 C 425.81125,1006.6979 432.24431,1004.252 439.48153,1004.2519 C 446.67401,1004.252 453.0959,1006.6979 458.74722,1011.5896 C 464.39843,1016.4815 467.22406,1023.4171 467.22412,1032.3965 L 467.22412,1075.4847 C 467.22406,1084.4642 464.39843,1091.3886 458.74722,1096.2581 C 453.0959,1101.1276 446.67401,1103.5623 439.48153,1103.5623 C 432.24431,1103.5623 425.81125,1101.1276 420.18234,1096.2581 C 414.5534,1091.3886 411.73894,1084.4642 411.73894,1075.4847 L 411.73894,1075.4847 z "
       style="font-size:137.23869324px;font-style:normal;font-variant:normal;font-weight:normal;font-stretch:normal;text-align:center;line-height:100%;writing-mode:lr-tb;text-anchor:middle;fill:black;fill-opacity:1;stroke:none;stroke-width:1px;stroke-linecap:butt;stroke-linejoin:miter;stroke-opacity:1;font-family:DIN 1451 Mittelschrift"
       id="text19110" />
    <path
       d="M 21.879197,57.029321 L 21.879197,1123.9177 C 21.879197,1145.6804 41.187862,1160.948 55.911947,1160.948 L 862.99722,1161.1057 C 878.37267,1161.1057 898.90994,1141.7913 898.90994,1125.6662 L 898.90994,54.855713 C 898.90994,39.403477 880.65576,20.077989 861.27936,20.077989 L 63.177737,20.077989 C 38.241711,20.077989 21.879197,38.034622 21.879197,57.029321 z "
       style="fill:none;fill-opacity:0.75;fill-rule:evenodd;stroke:black;stroke-width:14.34908581;stroke-linecap:butt;stroke-linejoin:miter;stroke-miterlimit:4;stroke-dasharray:none;stroke-opacity:1"
       id="path18125" />
    <path
       d="M 325.79639,160.13247 L 335.89159,148.65436 C 339.67152,151.69677 344.02766,154.1399 348.96004,155.98375 C 353.89237,157.82764 359.05521,158.74958 364.44857,158.74956 C 370.67159,158.74958 375.55785,157.45887 379.10736,154.87743 C 382.65675,152.29603 384.43148,148.90792 384.43154,144.71308 C 384.43148,136.78447 380.05228,132.24394 371.29395,131.09148 C 368.98906,130.81494 366.84556,130.53836 364.86344,130.26173 C 362.88124,129.98519 360.5764,129.66252 357.94892,129.2937 C 349.2366,128.09523 342.59866,124.90303 338.0351,119.71709 C 333.4715,114.53125 331.18971,108.27362 331.18972,100.94416 C 331.18971,92.370234 334.05924,85.317429 339.7983,79.785724 C 345.53733,74.254205 353.61579,71.488399 364.0337,71.488298 C 370.25672,71.488399 376.11101,72.47948 381.59658,74.461542 C 387.08204,76.443801 392.12964,78.956075 396.73939,81.998371 L 388.23452,94.5828 C 384.54672,92.27804 380.5824,90.411121 376.34155,88.982038 C 372.10059,87.553122 367.7675,86.838622 363.34225,86.838536 C 358.64034,86.838622 354.65297,88.037138 351.38012,90.434087 C 348.10723,92.831202 346.47079,96.426749 346.47081,101.22074 C 346.47079,104.07881 347.57711,106.75242 349.78978,109.24159 C 352.0024,111.73088 355.66709,113.36731 360.78387,114.1509 C 362.12064,114.38144 363.73403,114.62345 365.62404,114.87692 C 367.51396,115.13051 369.68051,115.39557 372.12369,115.67209 C 381.52738,116.82457 388.47647,120.23573 392.97097,125.90558 C 397.46534,131.57553 399.71255,137.84469 399.71263,144.71308 C 399.71255,153.97856 396.50883,161.16966 390.10145,166.28639 C 383.69393,171.40314 375.09688,173.96151 364.31028,173.96151 C 349.1444,173.96151 336.30645,169.35183 325.79639,160.13247 L 325.79639,160.13247 z M 415.47774,101.35903 L 415.47774,79.578288 L 429.92909,79.578288 L 429.92909,101.35903 L 440.43916,101.35903 L 440.43916,112.42227 L 429.92909,112.42227 L 429.92909,154.18598 C 429.92906,157.78154 431.63464,159.57932 435.04583,159.5793 L 440.43916,159.5793 L 440.43916,173.13177 L 432.90233,173.13177 C 427.87776,173.13177 423.71752,171.61057 420.42162,168.56818 C 417.12569,165.5258 415.47773,161.16966 415.47774,155.49974 L 415.47774,112.42227 L 408.28664,112.42227 L 408.28664,101.35903 L 415.47774,101.35903 z M 453.92248,149.06923 L 453.92248,101.35903 L 468.37383,101.35903 L 468.37383,144.15992 C 468.3738,149.04621 469.72213,152.83767 472.41882,155.53431 C 475.11546,158.23099 478.53814,159.57932 482.68689,159.5793 C 486.69727,159.57932 490.05081,158.23099 492.74752,155.53431 C 495.44413,152.83767 496.79246,149.04621 496.79251,144.15992 L 496.79251,101.35903 L 511.24386,101.35903 L 511.24386,173.13177 L 496.79251,173.13177 L 496.79251,165.52579 L 496.51593,165.52579 C 492.04449,171.14961 485.86753,173.96151 477.98501,173.96151 C 472.31508,173.96151 466.88718,171.85258 461.70131,167.63472 C 456.51541,163.41687 453.92247,157.22838 453.92248,149.06923 L 453.92248,149.06923 z M 530.81195,101.35903 L 530.81195,79.578288 L 545.2633,79.578288 L 545.2633,101.35903 L 555.77337,101.35903 L 555.77337,112.42227 L 545.2633,112.42227 L 545.2633,154.18598 C 545.26328,157.78154 546.96886,159.57932 550.38005,159.5793 L 555.77337,159.5793 L 555.77337,173.13177 L 548.23655,173.13177 C 543.21197,173.13177 539.05174,171.61057 535.75583,168.56818 C 532.4599,165.5258 530.81194,161.16966 530.81195,155.49974 L 530.81195,112.42227 L 523.62085,112.42227 L 523.62085,101.35903 L 530.81195,101.35903 z M 570.08644,101.35903 L 570.08644,79.578288 L 584.53779,79.578288 L 584.53779,101.35903 L 595.04786,101.35903 L 595.04786,112.42227 L 584.53779,112.42227 L 584.53779,154.18598 C 584.53777,157.78154 586.24335,159.57932 589.65454,159.5793 L 595.04786,159.5793 L 595.04786,173.13177 L 587.51104,173.13177 C 582.48646,173.13177 578.32623,171.61057 575.03032,168.56818 C 571.73439,165.5258 570.08643,161.16966 570.08644,155.49974 L 570.08644,112.42227 L 562.89534,112.42227 L 562.89534,101.35903 L 570.08644,101.35903 z M 648.84285,173.06262 L 648.84285,165.66408 C 643.81825,171.1957 637.64129,173.96151 630.31193,173.96151 C 625.61003,173.96151 621.68028,173.02805 618.52267,171.16113 C 615.36503,169.29421 612.97952,167.32357 611.36614,165.24921 C 609.29178,162.57561 607.8743,159.74066 607.11371,156.74435 C 606.35311,153.74808 605.97281,147.27148 605.97282,137.31454 C 605.97281,127.35768 606.35311,120.88108 607.11371,117.88474 C 607.8743,114.8885 609.29178,112.0305 611.36614,109.31073 C 612.97952,107.28254 615.36503,105.3119 618.52267,103.39882 C 621.68028,101.48587 625.61003,100.52936 630.31193,100.52929 C 637.31861,100.52936 643.49558,103.36431 648.84285,109.03415 L 648.84285,101.35903 L 663.2942,101.35903 L 663.2942,171.47228 C 663.29414,182.25893 660.14803,190.21062 653.85588,195.32738 C 647.56362,200.4441 640.33795,203.00247 632.17885,203.0025 C 627.56914,203.00247 623.05166,201.89615 618.62639,199.68353 C 614.20108,197.47086 610.3981,194.56676 607.21743,190.97123 L 618.41896,182.0515 C 620.17061,183.80317 622.25649,185.32436 624.6766,186.61508 C 627.09665,187.90578 629.68959,188.55114 632.45543,188.55115 C 637.24946,188.55114 641.17921,187.21433 644.24469,184.54073 C 647.31008,181.8671 648.8428,178.04107 648.84285,173.06262 L 648.84285,173.06262 z M 620.42417,137.31454 C 620.42415,143.07668 620.57396,146.90271 620.87361,148.79265 C 621.17322,150.68264 621.96839,152.43432 623.25912,154.04769 C 624.22713,155.33842 625.65613,156.58303 627.54612,157.78153 C 629.43606,158.98006 631.83309,159.57932 634.73723,159.5793 C 637.54909,159.57932 639.8885,158.98006 641.75547,157.78153 C 643.62234,156.58303 645.06287,155.33842 646.07704,154.04769 C 647.32161,152.43432 648.09373,150.68264 648.39341,148.79265 C 648.69299,146.90271 648.8428,143.07668 648.84285,137.31454 C 648.8428,131.55248 648.69299,127.72645 648.39341,125.83644 C 648.09373,123.94652 647.32161,122.17179 646.07704,120.51226 C 645.06287,119.2677 643.62234,118.03461 641.75547,116.81299 C 639.8885,115.59148 637.54909,114.9807 634.73723,114.98064 C 631.83309,114.9807 629.43606,115.59148 627.54612,116.81299 C 625.65613,118.03461 624.22713,119.2677 623.25912,120.51226 C 621.96839,122.17179 621.17322,123.94652 620.87361,125.83644 C 620.57396,127.72645 620.42415,131.55248 620.42417,137.31454 L 620.42417,137.31454 z M 719.78583,173.13177 L 719.78583,166.77041 L 719.4401,166.77041 C 716.53596,171.56448 710.63557,173.96151 701.73893,173.96151 C 693.71806,173.96151 687.495,171.87563 683.06972,167.70387 C 678.64442,163.53212 676.43177,158.31166 676.43178,152.04248 C 676.43177,146.37259 678.39089,141.41719 682.30912,137.17625 C 686.22734,132.93539 692.05858,130.81494 699.80286,130.81489 L 719.78583,130.81489 L 719.78583,123.34721 C 719.78578,117.21639 714.87648,114.15096 705.0579,114.1509 C 698.23554,114.15096 693.69501,115.97178 691.43629,119.61337 L 680.09647,111.03936 C 685.12101,104.03272 693.18795,100.52936 704.2973,100.52929 C 713.14785,100.52936 720.33894,102.25799 725.87061,105.71518 C 731.40217,109.1725 734.16797,115.32642 734.16803,124.17695 L 734.16803,173.13177 L 719.78583,173.13177 z M 719.78583,147.96291 L 719.78583,142.70787 L 702.49952,142.70787 C 694.15598,142.7079 689.98422,145.58895 689.98424,151.35102 C 689.98422,153.79417 691.03292,155.91463 693.13035,157.71238 C 695.22773,159.51017 698.71956,160.40906 703.60585,160.40905 C 709.5984,160.40906 713.7932,159.74066 716.19028,158.40384 C 718.58727,157.06704 719.78578,153.58674 719.78583,147.96291 L 719.78583,147.96291 z M 752.9064,173.13177 L 752.9064,101.35903 L 767.35775,101.35903 L 767.35775,109.03415 L 767.63433,109.03415 C 772.1057,103.36431 778.32876,100.52936 786.30354,100.52929 C 791.55853,100.52936 796.56003,102.37323 801.30805,106.06091 L 790.86713,118.50705 C 787.7325,116.15616 784.55182,114.9807 781.32509,114.98064 C 777.7756,114.9807 774.56035,116.16769 771.67933,118.54162 C 768.79825,120.91566 767.35773,124.73016 767.35775,129.98515 L 767.35775,173.13177 L 752.9064,173.13177 z M 808.77573,101.35903 L 808.77573,79.578288 L 823.22708,79.578288 L 823.22708,101.35903 L 833.73715,101.35903 L 833.73715,112.42227 L 823.22708,112.42227 L 823.22708,154.18598 C 823.22705,157.78154 824.93263,159.57932 828.34382,159.5793 L 833.73715,159.5793 L 833.73715,173.13177 L 826.20032,173.13177 C 821.17575,173.13177 817.01551,171.61057 813.71961,168.56818 C 810.42368,165.5258 808.77572,161.16966 808.77573,155.49974 L 808.77573,112.42227 L 801.58462,112.42227 L 801.58462,101.35903 L 808.77573,101.35903 z "
       style="font-size:141.60940552px;font-style:normal;font-variant:normal;font-weight:normal;font-stretch:normal;text-align:center;line-height:100%;writing-mode:lr-tb;text-anchor:middle;fill:black;fill-opacity:1;stroke:none;stroke-width:1px;stroke-linecap:butt;stroke-linejoin:miter;stroke-opacity:1;font-family:DIN 1451 Mittelschrift"
       id="text19012" />
    <path
       d="M 82.274035,652.16553 L 119.05929,551.3518 L 131.64372,551.3518 L 168.42898,652.16553 L 152.38729,652.16553 L 144.64302,629.41675 L 106.40572,629.41675 L 98.384871,652.16553 L 82.274035,652.16553 z M 110.90016,615.93343 L 140.07944,615.93343 C 137.95893,609.71041 136.28792,604.83567 135.06641,601.30922 C 133.84479,597.78287 132.78457,594.65981 131.88573,591.94004 C 130.98679,589.22039 130.07638,586.45459 129.15449,583.64262 C 128.23251,580.83078 127.01095,577.0278 125.4898,572.23366 C 123.87637,577.21219 122.58566,581.18803 121.61766,584.16121 C 120.64959,587.13452 119.71613,590.00404 118.81728,592.76979 C 117.91836,595.53565 116.88118,598.62413 115.70575,602.03524 C 114.53025,605.44646 112.92838,610.07918 110.90016,615.93343 L 110.90016,615.93343 z M 177.97101,620.28958 L 177.97101,605.83823 L 220.63361,605.83823 L 220.63361,620.28958 L 177.97101,620.28958 z M 238.61137,652.23467 L 238.61137,551.49009 L 273.87543,551.49009 C 287.65832,551.49019 297.8918,557.13705 304.57591,568.43067 C 307.06506,572.71775 308.58625,576.72817 309.13949,580.46194 C 309.69257,584.19585 309.96915,591.34085 309.96924,601.89695 C 309.96915,613.23681 309.58886,620.8082 308.82834,624.61116 C 308.06766,628.41417 306.55799,632.06734 304.29933,635.57068 C 301.30296,640.27256 297.18883,644.22536 291.95691,647.42908 C 286.72486,650.63281 280.37503,652.23467 272.9074,652.23467 L 238.61137,652.23467 z M 253.89246,565.94144 L 253.89246,637.85247 L 272.21595,637.85247 C 280.60551,637.85248 286.82858,634.92534 290.88516,629.07102 C 292.54458,626.53573 293.59328,623.80449 294.03126,620.87732 C 294.46912,617.9502 294.68808,611.80781 294.68814,602.45012 C 294.68808,593.4152 294.44607,587.16909 293.96212,583.71176 C 293.47804,580.25457 292.2219,577.14304 290.1937,574.37716 C 285.99884,568.75343 280.00626,565.94153 272.21595,565.94144 L 253.89246,565.94144 z M 323.17597,616.27916 C 323.17596,608.58104 323.77522,602.84199 324.97374,599.062 C 326.17225,595.28212 328.15441,591.87096 330.92023,588.82851 C 332.90238,586.66202 335.63361,584.58767 339.11394,582.60544 C 342.59422,580.62335 347.14628,579.63227 352.77012,579.63219 C 358.3017,579.63227 362.81918,580.62335 366.32258,582.60544 C 369.82589,584.58767 372.56865,586.66202 374.55086,588.82851 C 377.31661,591.87096 379.29877,595.28212 380.49735,599.062 C 381.69581,602.84199 382.29506,608.58104 382.29513,616.27916 C 382.29506,624.11565 381.69581,629.92384 380.49735,633.70375 C 379.29877,637.48371 377.31661,640.89487 374.55086,643.93725 C 372.56865,646.1499 369.82589,648.22425 366.32258,650.16032 C 362.81918,652.09638 358.3017,653.06441 352.77012,653.06442 C 347.14628,653.06441 342.59422,652.09638 339.11394,650.16032 C 335.63361,648.22425 332.90238,646.1499 330.92023,643.93725 C 328.15441,640.89487 326.17225,637.48371 324.97374,633.70375 C 323.77522,629.92384 323.17596,624.11565 323.17597,616.27916 L 323.17597,616.27916 z M 367.91292,616.41745 C 367.91287,611.20855 367.64782,607.54386 367.11775,605.42336 C 366.58759,603.30296 365.67718,601.2747 364.38652,599.33858 C 361.85115,595.83528 357.97902,594.0836 352.77012,594.08354 C 347.46896,594.0836 343.59683,595.83528 341.15372,599.33858 C 339.7708,601.2747 338.83734,603.30296 338.35334,605.42336 C 337.86931,607.54386 337.6273,611.16245 337.62732,616.27916 C 337.6273,621.53423 337.86931,625.23349 338.35334,627.37697 C 338.83734,629.52049 339.7708,631.53722 341.15372,633.42717 C 343.59683,636.93055 347.46896,638.68222 352.77012,638.68221 C 357.97902,638.68222 361.85115,636.93055 364.38652,633.42717 C 365.67718,631.53722 366.58759,629.53202 367.11775,627.41154 C 367.64782,625.29111 367.91287,621.62642 367.91292,616.41745 L 367.91292,616.41745 z M 397.50708,652.23467 L 397.50708,580.46194 L 411.95843,580.46194 L 411.95843,588.13706 L 412.23501,588.13706 C 416.70637,582.46722 422.92943,579.63227 430.90422,579.63219 C 436.15921,579.63227 441.1607,581.47614 445.90873,585.16381 L 435.4678,597.60995 C 432.33317,595.25907 429.1525,594.0836 425.92576,594.08354 C 422.37627,594.0836 419.16102,595.27059 416.28,597.64452 C 413.39893,600.01856 411.9584,603.83307 411.95843,609.08806 L 411.95843,652.23467 L 397.50708,652.23467 z M 454.82848,652.23467 L 454.82848,591.52517 L 447.56823,591.52517 L 447.56823,580.46194 L 454.82848,580.46194 L 454.82848,570.98904 C 454.82847,564.30509 456.67234,559.38426 460.3601,556.22654 C 464.04782,553.06901 468.7036,551.49019 474.32743,551.49009 L 483.66204,551.49009 L 483.66204,565.04255 L 475.5029,565.04255 C 471.30806,565.04264 469.21066,567.0248 469.21069,570.98904 L 469.21069,580.46194 L 483.66204,580.46194 L 483.66204,591.52517 L 469.21069,591.52517 L 469.21069,652.23467 L 454.82848,652.23467 z "
       style="font-size:141.60940552px;font-style:normal;font-variant:normal;font-weight:normal;font-stretch:normal;text-align:center;line-height:100%;writing-mode:lr-tb;text-anchor:middle;fill:black;fill-opacity:1;stroke:none;stroke-width:1px;stroke-linecap:butt;stroke-linejoin:miter;stroke-opacity:1;font-family:DIN 1451 Mittelschrift"
       id="text19016" />
    <path
       d="M 92.047544,786.72021 L 92.047544,685.97563 L 131.11459,685.97563 C 140.93315,685.97573 148.36626,688.49952 153.41392,693.54703 C 158.46145,698.59472 160.98525,705.08284 160.98533,713.01141 C 160.98525,717.16019 159.97112,721.14756 157.94294,724.97353 C 155.9146,728.79962 151.97333,732.02639 146.1191,734.65386 L 146.1191,734.93044 C 151.65065,736.2212 155.77631,739.13682 158.4961,743.67731 C 161.21573,748.21788 162.57558,753.04652 162.57567,758.16323 C 162.57558,766.87555 159.79825,773.81311 154.24367,778.97594 C 148.68893,784.13879 142.13167,786.72021 134.57185,786.72021 L 92.047544,786.72021 z M 130.83801,741.98325 L 107.32864,741.98325 L 107.32864,772.338 L 130.83801,772.338 C 136.50786,772.33802 140.6681,770.8053 143.31872,767.73985 C 145.96922,764.67443 147.29451,761.15955 147.29457,757.1952 C 147.29451,753.23091 145.96922,749.7045 143.31872,746.61598 C 140.6681,743.52754 136.50786,741.9833 130.83801,741.98325 L 130.83801,741.98325 z M 129.45511,699.52809 L 107.32864,699.52809 L 107.32864,728.43079 L 129.45511,728.43079 C 134.94057,728.43085 139.02014,727.0249 141.69381,724.21293 C 144.36736,721.40109 145.70417,717.98993 145.70423,713.97944 C 145.70417,710.10738 144.36736,706.73079 141.69381,703.84966 C 139.02014,700.9687 134.94057,699.52818 129.45511,699.52809 L 129.45511,699.52809 z M 175.22924,754.77512 L 175.22924,740.32377 L 217.89184,740.32377 L 217.89184,754.77512 L 175.22924,754.77512 z M 235.8696,786.72021 L 235.8696,685.97563 L 271.13366,685.97563 C 284.91654,685.97573 295.15003,691.62258 301.83413,702.9162 C 304.32328,707.20329 305.84448,711.21371 306.39772,714.94747 C 306.9508,718.68138 307.22738,725.82638 307.22746,736.38249 C 307.22738,747.72234 306.84708,755.29374 306.08656,759.09669 C 305.32589,762.8997 303.81622,766.55287 301.55755,770.05621 C 298.56119,774.7581 294.44705,778.71089 289.21513,781.91461 C 283.98308,785.11834 277.63325,786.72021 270.16562,786.72021 L 235.8696,786.72021 z M 251.15069,700.42698 L 251.15069,772.338 L 269.47417,772.338 C 277.86374,772.33802 284.0868,769.41087 288.14338,763.55656 C 289.8028,761.02126 290.8515,758.29003 291.28949,755.36285 C 291.72734,752.43574 291.9463,746.29334 291.94637,736.93565 C 291.9463,727.90073 291.70429,721.65462 291.22034,718.1973 C 290.73626,714.74011 289.48012,711.62858 287.45193,708.86269 C 283.25706,703.23896 277.26448,700.42706 269.47417,700.42698 L 251.15069,700.42698 z M 320.43419,750.76469 C 320.43419,743.06657 321.03344,737.32752 322.23197,733.54753 C 323.43048,729.76765 325.41264,726.35649 328.17846,723.31404 C 330.1606,721.14756 332.89184,719.0732 336.37217,717.09097 C 339.85245,715.10888 344.40451,714.1178 350.02835,714.11773 C 355.55992,714.1178 360.07741,715.10888 363.58081,717.09097 C 367.08411,719.0732 369.82687,721.14756 371.80909,723.31404 C 374.57484,726.35649 376.557,729.76765 377.75558,733.54753 C 378.95403,737.32752 379.55329,743.06657 379.55335,750.76469 C 379.55329,758.60118 378.95403,764.40937 377.75558,768.18929 C 376.557,771.96924 374.57484,775.3804 371.80909,778.42278 C 369.82687,780.63543 367.08411,782.70979 363.58081,784.64585 C 360.07741,786.58192 355.55992,787.54995 350.02835,787.54995 C 344.40451,787.54995 339.85245,786.58192 336.37217,784.64585 C 332.89184,782.70979 330.1606,780.63543 328.17846,778.42278 C 325.41264,775.3804 323.43048,771.96924 322.23197,768.18929 C 321.03344,764.40937 320.43419,758.60118 320.43419,750.76469 L 320.43419,750.76469 z M 365.17115,750.90298 C 365.1711,745.69409 364.90604,742.02939 364.37598,739.90889 C 363.84582,737.78849 362.9354,735.76023 361.64474,733.82412 C 359.10937,730.32081 355.23725,728.56914 350.02835,728.56908 C 344.72718,728.56914 340.85505,730.32081 338.41195,733.82412 C 337.02902,735.76023 336.09556,737.78849 335.61157,739.90889 C 335.12753,742.02939 334.88552,745.64799 334.88554,750.76469 C 334.88552,756.01976 335.12753,759.71903 335.61157,761.8625 C 336.09556,764.00603 337.02902,766.02276 338.41195,767.91271 C 340.85505,771.41608 344.72718,773.16776 350.02835,773.16774 C 355.23725,773.16776 359.10937,771.41608 361.64474,767.91271 C 362.9354,766.02276 363.84582,764.01755 364.37598,761.89707 C 364.90604,759.77665 365.1711,756.11195 365.17115,750.90298 L 365.17115,750.90298 z M 394.7653,786.72021 L 394.7653,714.94747 L 409.21665,714.94747 L 409.21665,722.62259 L 409.49323,722.62259 C 413.9646,716.95275 420.18766,714.1178 428.16244,714.11773 C 433.41743,714.1178 438.41893,715.96167 443.16695,719.64935 L 432.72603,732.09549 C 429.5914,729.7446 426.41072,728.56914 423.18399,728.56908 C 419.6345,728.56914 416.41925,729.75613 413.53823,732.13006 C 410.65715,734.5041 409.21663,738.3186 409.21665,743.57359 L 409.21665,786.72021 L 394.7653,786.72021 z M 452.08668,786.72021 L 452.08668,726.01071 L 444.82643,726.01071 L 444.82643,714.94747 L 452.08668,714.94747 L 452.08668,705.47458 C 452.08666,698.79063 453.93053,693.8698 457.61829,690.71207 C 461.30602,687.55454 465.96179,685.97573 471.58563,685.97563 L 480.92023,685.97563 L 480.92023,699.52809 L 472.7611,699.52809 C 468.56626,699.52818 466.46885,701.51034 466.46888,705.47458 L 466.46888,714.94747 L 480.92023,714.94747 L 480.92023,726.01071 L 466.46888,726.01071 L 466.46888,786.72021 L 452.08668,786.72021 z "
       style="font-size:141.60940552px;font-style:normal;font-variant:normal;font-weight:normal;font-stretch:normal;text-align:center;line-height:100%;writing-mode:lr-tb;text-anchor:middle;fill:black;fill-opacity:1;stroke:none;stroke-width:1px;stroke-linecap:butt;stroke-linejoin:miter;stroke-opacity:1;font-family:DIN 1451 Mittelschrift"
       id="text19022" />
    <path
       d="M 222.18505,823.37177 L 253.31926,823.37177"
       style="fill:none;fill-opacity:0.75;fill-rule:evenodd;stroke:black;stroke-width:1px;stroke-linecap:butt;stroke-linejoin:miter;stroke-opacity:1"
       id="path19034" />
    <path
       d="M 256.14964,926.68074 L 653.81843,926.68074"
       style="fill:black;fill-opacity:0.75;fill-rule:evenodd;stroke:black;stroke-width:1px;stroke-linecap:butt;stroke-linejoin:miter;stroke-opacity:1"
       id="path19036" />
    <path
       d="M 655.23362,957.81495 C 654.29016,957.81495 653.3467,957.81495 655.23362,957.81495 z "
       style="fill:black;fill-opacity:0.75;fill-rule:evenodd;stroke:black;stroke-width:1px;stroke-linecap:butt;stroke-linejoin:miter;stroke-opacity:1"
       id="path19038" />
    <path
       d="M 223.60024,960.64533 C 224.07197,960.1736 224.5437,959.70187 223.60024,960.64533 z "
       style="fill:black;fill-opacity:0.75;fill-rule:evenodd;stroke:black;stroke-width:1px;stroke-linecap:butt;stroke-linejoin:miter;stroke-opacity:1"
       id="path19040" />
    <path
       d="M 674.875,209 L 609.8125,306.34375 C 606.8575,311.43066 609.53405,322.5162 620.28125,321.375 L 653.09375,312.78125 L 653.59375,382.96875 L 222.40625,382.96875 L 222.53125,516.90625 L 252.40625,517 L 252.4375,413.0625 L 653.53125,413.03125 L 653.375,518.09375 C 667.83292,516.58678 682.7021,516.44505 697.71875,517.9375 L 697.5625,313 L 729.46875,321.3125 C 738.16563,321.95499 743.1773,313.89975 740,306.28125 L 674.875,209 z "
       style="fill:black;fill-opacity:0.75;fill-rule:evenodd;stroke:none;stroke-width:1px;stroke-linecap:butt;stroke-linejoin:miter;stroke-opacity:1"
       id="path19043" />
    <path
       d="M 653.34375,822.78125 L 653.4375,927.90625 L 252.46875,928 L 252.375,822.90625 L 222.5625,822.90625 L 222.625,958.125 L 653.46875,957.9375 L 653.625,1101.9688 L 697.53125,1101.9688 L 697.6875,822.96875 C 682.67085,824.99658 667.80168,824.82879 653.34375,822.78125 z "
       style="fill:black;fill-opacity:0.75;fill-rule:evenodd;stroke:none;stroke-width:1px;stroke-linecap:butt;stroke-linejoin:miter;stroke-opacity:1"
       id="path19045" />
    <circle
       cx="362.5"
       cy="362.5"
       r="290"
       transform="matrix(0.43569,0,0,0.43569,517.4486,512.2793)"
       style="opacity:1;fill:none;stroke:#c00;stroke-width:93.75"
       id="circle6" />
    <path
       d="M 484.63537,1101.4474 L 484.63537,1034.6775 L 498.07939,1034.6775 L 498.07939,1041.8176 L 498.3367,1041.8176 C 502.58215,1036.543 508.37144,1033.9057 515.70458,1033.9056 C 520.37886,1033.9057 524.08829,1034.7419 526.83289,1036.4143 C 529.57739,1038.0868 532.15041,1040.1452 534.55195,1042.5896 C 539.82658,1036.8003 546.85949,1033.9057 555.65071,1033.9056 C 560.83955,1033.9057 565.84621,1035.8783 570.67072,1039.8236 C 575.49503,1043.7689 577.90723,1049.5153 577.90734,1057.0628 L 577.90734,1101.4474 L 564.46331,1101.4474 L 564.46331,1061.6942 C 564.46322,1057.1915 563.19815,1053.675 560.6681,1051.1448 C 558.13788,1048.6148 555.00738,1047.3497 551.27658,1047.3496 C 547.41698,1047.3497 544.23287,1048.6148 541.72424,1051.1448 C 539.21549,1053.675 537.96114,1057.1915 537.9612,1061.6942 L 537.9612,1101.4474 L 524.5815,1101.4474 L 524.5815,1061.6942 C 524.58145,1057.1915 523.31638,1053.675 520.7863,1051.1448 C 518.25612,1048.6148 515.12561,1047.3497 511.39477,1047.3496 C 507.53521,1047.3497 504.3511,1048.6148 501.84244,1051.1448 C 499.33372,1053.675 498.07937,1057.1915 498.07939,1061.6942 L 498.07939,1101.4474 L 484.63537,1101.4474 z "
       style="font-size:131.73861694px;font-style:normal;font-variant:normal;font-weight:normal;font-stretch:normal;text-align:center;line-height:100%;writing-mode:lr-tb;text-anchor:middle;fill:black;fill-opacity:1;stroke:none;stroke-width:1px;stroke-linecap:butt;stroke-linejoin:miter;stroke-opacity:1;font-family:DIN 1451 Mittelschrift"
       id="text19114" />
  </g>
</svg>
