<?xml version="1.0" encoding="UTF-8" standalone="no"?>
<!-- Created with Inkscape (http://www.inkscape.org/) -->

<svg
   xmlns:dc="http://purl.org/dc/elements/1.1/"
   xmlns:cc="http://creativecommons.org/ns#"
   xmlns:rdf="http://www.w3.org/1999/02/22-rdf-syntax-ns#"
   xmlns:svg="http://www.w3.org/2000/svg"
   xmlns="http://www.w3.org/2000/svg"
   xmlns:sodipodi="http://sodipodi.sourceforge.net/DTD/sodipodi-0.dtd"
   xmlns:inkscape="http://www.inkscape.org/namespaces/inkscape"
   version="1.0"
   width="970"
   height="330"
   id="svg2"
   inkscape:version="0.48.1 r9760"
   sodipodi:docname="Zeichen_418.svg">
  <metadata
     id="metadata3840">
    <rdf:RDF>
      <cc:Work
         rdf:about="">
        <dc:format>image/svg+xml</dc:format>
        <dc:type
           rdf:resource="http://purl.org/dc/dcmitype/StillImage" />
        <dc:title></dc:title>
      </cc:Work>
    </rdf:RDF>
  </metadata>
  <sodipodi:namedview
     pagecolor="#ffffff"
     bordercolor="#666666"
     borderopacity="1"
     objecttolerance="10"
     gridtolerance="10"
     guidetolerance="10"
     inkscape:pageopacity="0"
     inkscape:pageshadow="2"
     inkscape:window-width="640"
     inkscape:window-height="480"
     id="namedview3838"
     showgrid="false"
     inkscape:zoom="0.33047727"
     inkscape:cx="621.62162"
     inkscape:cy="115.83012"
     inkscape:window-x="309"
     inkscape:window-y="4"
     inkscape:window-maximized="0"
     inkscape:current-layer="svg2"
     showguides="true"
     inkscape:guide-bbox="true">
    <sodipodi:guide
       orientation="1,0"
       position="636.95757,63.54446"
       id="guide2989" />
    <sodipodi:guide
       orientation="1,0"
       position="514.40754,140.70559"
       id="guide2991" />
  </sodipodi:namedview>
  <defs
     id="defs4" />
  <path
     d="M 35.093922,45.493641 L 776.86108,45.173402 C 789.64573,45.813761 960.10076,142.92653 960.10076,142.92653 C 972.40395,151.77456 970.19446,179.27842 959.56483,186.33614 C 959.56483,186.33614 799.58295,285.9879 772.24319,286.33386 L 33.964752,285.63297 C 9.5790318,285.63297 1.6981918,273.95822 1.6981918,256.45003 L 1.9902118,72.660544 C 1.9902118,57.201825 12.687712,45.493641 35.093922,45.493641 z "
     style="fill:#f0c900;fill-opacity:1;fill-rule:evenodd;stroke:black;stroke-width:2.05117082999999978;stroke-linecap:butt;stroke-linejoin:miter;stroke-miterlimit:4;stroke-dasharray:none;stroke-opacity:1"
     id="path3669" />
  <path
     d="M 43.713022,59.952228 L 776.09999,59.592762 C 788.50697,59.592762 949.19946,151.86108 949.19946,151.86108 C 956.93023,157.96128 955.62794,171.8723 949.4435,177.18193 C 949.4435,177.18193 794.12067,272.22528 774.48784,272.22528 L 49.499602,271.61115 C 18.202622,271.61115 15.860672,266.40322 15.860672,249.8286 L 16.144012,77.705153 C 16.144012,69.812417 18.836912,59.952228 43.713022,59.952228 z "
     style="fill:none;fill-opacity:1;fill-rule:evenodd;stroke:black;stroke-width:12.1235199;stroke-linecap:butt;stroke-linejoin:miter;stroke-miterlimit:4;stroke-dasharray:none;stroke-opacity:1"
     id="path1882" />
  <path
     d="M 125.785,151.41244 L 125.785,124.16397 L 101.02145,124.16397 L 101.02145,151.41244 L 91.553036,151.41244 L 91.553036,88.989449 L 101.02145,88.989449 L 101.02145,115.7238 L 125.785,115.7238 L 125.785,88.989449 L 135.25342,88.989449 L 135.25342,151.41244 L 125.785,151.41244 z M 149.93509,151.41244 L 149.93509,106.94088 L 158.88939,106.94088 L 158.88939,151.41244 L 149.93509,151.41244 z M 149.93509,97.943742 L 149.93509,88.989449 L 158.88939,88.989449 L 158.88939,97.943742 L 149.93509,97.943742 z M 172.75704,140.65872 L 172.75704,88.989449 L 181.71134,88.989449 L 181.71134,139.93038 C 181.71132,141.98688 182.82525,143.01512 185.05313,143.01511 L 188.09502,143.01511 L 188.09502,151.41244 L 184.15342,151.41244 C 180.89729,151.41244 178.18388,150.61984 176.01315,149.03463 C 173.8424,147.44942 172.75704,144.65746 172.75704,140.65872 L 172.75704,140.65872 z M 223.94139,151.41244 L 223.94139,146.78534 C 220.82806,150.21282 217.00071,151.92656 212.45933,151.92656 C 209.71732,151.92656 207.36093,151.39102 205.39015,150.31993 C 203.41933,149.24885 201.80556,147.87072 200.54883,146.18553 C 199.29208,144.61461 198.44949,142.75092 198.02106,140.59446 C 197.59262,138.43801 197.3784,134.6178 197.37841,129.13382 C 197.3784,123.707 197.59262,119.92963 198.02106,117.80171 C 198.44949,115.67385 199.29208,113.81016 200.54883,112.21063 C 201.80556,110.55406 203.41933,109.17592 205.39015,108.07623 C 207.36093,106.97663 209.71732,106.4268 212.45933,106.42676 C 214.74429,106.4268 216.81506,106.91236 218.67163,107.88344 C 220.52816,108.8546 222.28474,110.12562 223.94139,111.69651 L 223.94139,88.989449 L 232.89568,88.989449 L 232.89568,151.41244 L 223.94139,151.41244 z M 215.20131,115.38105 C 210.97406,115.38109 208.43916,116.82348 207.59659,119.70824 C 206.75398,122.59307 206.33269,125.73492 206.3327,129.13382 C 206.33269,132.61844 206.75398,135.80314 207.59659,138.68792 C 208.43916,141.57273 210.97406,143.01512 215.20131,143.01511 C 219.34282,143.01512 221.83488,141.5156 222.6775,138.51655 C 223.52006,135.51752 223.94135,132.38994 223.94139,129.13382 C 223.94135,125.96342 223.52006,122.87869 222.6775,119.87962 C 221.83488,116.88061 219.34282,115.38109 215.20131,115.38105 L 215.20131,115.38105 z M 279.41009,132.5613 L 251.73318,132.5613 C 251.73317,136.21729 252.72571,138.95927 254.7108,140.78725 C 256.69587,142.61525 259.23077,143.52924 262.31553,143.52924 C 266.00004,143.52924 269.25615,142.10113 272.08385,139.24489 L 278.55322,144.7717 C 276.35388,147.34231 273.8761,149.17744 271.11987,150.27709 C 268.36357,151.37674 265.48592,151.92656 262.4869,151.92656 C 257.91691,151.92656 253.48975,150.44846 249.20541,147.49226 C 244.92106,144.53607 242.77888,138.488 242.77889,129.34803 C 242.77888,120.69368 244.75682,114.70987 248.71271,111.3966 C 252.66858,108.08342 256.80298,106.4268 261.11591,106.42676 C 266.00004,106.4268 270.27011,108.11912 273.92612,111.50371 C 277.58206,114.88839 279.41005,119.45122 279.41009,125.19221 L 279.41009,132.5613 z M 251.73318,125.19221 L 270.49864,125.19221 C 270.35579,121.85045 269.41324,119.29412 267.67097,117.52323 C 265.92864,115.7524 263.74362,114.86696 261.11591,114.86693 C 258.45959,114.86696 256.25315,115.7524 254.49659,117.52323 C 252.73999,119.29412 251.81885,121.85045 251.73318,125.19221 L 251.73318,125.19221 z M 285.90865,144.00051 L 292.1638,137.83105 C 296.04827,141.62985 300.71821,143.52924 306.17363,143.52924 C 308.71566,143.52924 310.81499,143.05083 312.47163,142.09398 C 314.12821,141.13715 314.95652,139.71618 314.95655,137.83105 C 314.95652,135.23189 313.14281,133.77521 309.51543,133.46101 L 301.63222,132.73267 C 297.94766,132.44707 294.8915,131.23317 292.46371,129.09097 C 290.0359,126.94882 288.82201,123.96406 288.82201,120.13668 C 288.82201,115.62387 290.40721,112.21067 293.57764,109.89708 C 296.74805,107.58358 300.68965,106.4268 305.40245,106.42676 C 309.2869,106.4268 312.61441,106.97663 315.38499,108.07623 C 318.1555,109.17592 320.64042,110.63974 322.83976,112.46769 L 317.31294,118.97991 C 315.54205,117.78032 313.71406,116.79492 311.82897,116.0237 C 309.94384,115.25256 307.80166,114.86696 305.40245,114.86693 C 302.5462,114.86696 300.56112,115.37395 299.4472,116.38787 C 298.33326,117.40187 297.77629,118.68003 297.7763,120.22237 C 297.77629,121.19352 298.19044,122.09323 299.01877,122.92151 C 299.84706,123.74984 301.38942,124.24968 303.64586,124.42103 L 311.01495,124.93515 C 315.61345,125.24936 318.9124,126.67034 320.9118,129.19808 C 322.91112,131.72587 323.91081,134.74633 323.91084,138.25948 C 323.91081,142.62953 322.12566,145.99988 318.55541,148.37055 C 314.98508,150.74123 310.62933,151.92656 305.48814,151.92656 C 298.09048,151.92656 291.56399,149.28455 285.90865,144.00051 L 285.90865,144.00051 z M 334.99368,151.41244 L 334.99368,88.989449 L 343.94797,88.989449 L 343.94797,111.69651 L 344.11934,111.69651 C 346.88987,108.18338 350.74578,106.4268 355.68709,106.42676 C 359.1431,106.4268 362.47775,107.74067 365.69105,110.36836 C 368.90427,112.99613 370.5109,116.82348 370.51094,121.85042 L 370.51094,151.41244 L 361.55665,151.41244 L 361.55665,124.93515 C 361.55662,121.93614 360.72117,119.59403 359.05031,117.90882 C 357.37938,116.22367 355.30147,115.38109 352.81658,115.38105 C 350.24594,115.38109 348.12519,116.22367 346.45431,117.90882 C 344.7834,119.59403 343.94795,121.93614 343.94797,124.93515 L 343.94797,151.41244 L 334.99368,151.41244 z M 418.56773,132.5613 L 390.89082,132.5613 C 390.89081,136.21729 391.88335,138.95927 393.86844,140.78725 C 395.85351,142.61525 398.38841,143.52924 401.47317,143.52924 C 405.15768,143.52924 408.41378,142.10113 411.24149,139.24489 L 417.71086,144.7717 C 415.51152,147.34231 413.03374,149.17744 410.27751,150.27709 C 407.52121,151.37674 404.64356,151.92656 401.64454,151.92656 C 397.07455,151.92656 392.64739,150.44846 388.36305,147.49226 C 384.07869,144.53607 381.93652,138.488 381.93652,129.34803 C 381.93652,120.69368 383.91446,114.70987 387.87035,111.3966 C 391.82622,108.08342 395.96062,106.4268 400.27355,106.42676 C 405.15768,106.4268 409.42775,108.11912 413.08376,111.50371 C 416.7397,114.88839 418.56769,119.45122 418.56773,125.19221 L 418.56773,132.5613 z M 390.89082,125.19221 L 409.65628,125.19221 C 409.51343,121.85045 408.57088,119.29412 406.8286,117.52323 C 405.08627,115.7524 402.90126,114.86696 400.27355,114.86693 C 397.61723,114.86696 395.41079,115.7524 393.65422,117.52323 C 391.89763,119.29412 390.97649,121.85045 390.89082,125.19221 L 390.89082,125.19221 z M 430.25034,151.41244 L 430.25034,106.94088 L 439.20463,106.94088 L 439.20463,151.41244 L 430.25034,151.41244 z M 430.25034,97.943742 L 430.25034,88.989449 L 439.20463,88.989449 L 439.20463,97.943742 L 430.25034,97.943742 z M 453.58641,151.41244 L 453.58641,106.94088 L 462.5407,106.94088 L 462.5407,111.69651 L 462.71208,111.69651 C 465.53973,108.18338 469.39564,106.4268 474.27983,106.42676 C 477.39309,106.4268 479.86373,106.98377 481.69175,108.09765 C 483.51971,109.21163 485.23344,110.58262 486.83297,112.21063 C 490.3461,108.35476 495.03032,106.4268 500.88565,106.42676 C 504.34163,106.4268 507.67628,107.74067 510.8896,110.36836 C 514.1028,112.99613 515.70943,116.82348 515.7095,121.85042 L 515.7095,151.41244 L 506.75521,151.41244 L 506.75521,124.93515 C 506.75515,121.93614 505.91256,119.59403 504.22744,117.90882 C 502.54221,116.22367 500.45716,115.38109 497.97229,115.38105 C 495.40163,115.38109 493.28088,116.22367 491.61003,117.90882 C 489.93909,119.59403 489.10364,121.93614 489.10368,124.93515 L 489.10368,151.41244 L 480.19223,151.41244 L 480.19223,124.93515 C 480.1922,121.93614 479.34961,119.59403 477.66446,117.90882 C 475.97926,116.22367 473.89421,115.38109 471.40931,115.38105 C 468.83868,115.38109 466.71793,116.22367 465.04705,117.90882 C 463.37614,119.59403 462.54069,121.93614 462.5407,124.93515 L 462.5407,151.41244 L 453.58641,151.41244 z "
     style="font-size:87.74350739px;font-style:normal;font-variant:normal;font-weight:normal;font-stretch:normal;text-align:center;line-height:100%;letter-spacing:2px;writing-mode:lr-tb;text-anchor:middle;fill:black;fill-opacity:1;stroke:none;stroke-width:1px;stroke-linecap:butt;stroke-linejoin:miter;stroke-opacity:1;font-family:DIN 1451 Mittelschrift"
     id="text6418" />
  <path
     d="m 368.11911,241.76051 0,-62.42299 39.93015,0 0,8.95429 -30.46174,0 0,17.78006 25.96317,0 0,8.44017 -25.96317,0 0,18.33702 30.46174,0 0,8.91145 -39.93015,0 z m 50.07042,-10.75372 0,-51.66927 8.95429,0 0,50.94093 c -2e-5,2.0565 1.11391,3.08474 3.34179,3.08473 l 3.04189,0 0,8.39733 -3.9416,0 c -3.25612,0 -5.96954,-0.7926 -8.14027,-2.37781 -2.17074,-1.58521 -3.25611,-4.37718 -3.2561,-8.37591 l 0,0 z m 21.70801,10.75372 0,-7.06918 22.27862,-29.47633 -21.03616,0 0,-7.92605 31.91842,0 0,7.11202 -22.27863,28.96221 22.27863,0 0,8.39733 -33.16088,0 z m 78.26145,-18.85114 -27.67691,0 c -10e-6,3.65599 0.99253,6.39797 2.97763,8.22595 1.98506,1.828 4.51997,2.74199 7.60472,2.74198 3.68451,1e-5 6.94062,-1.4281 9.76832,-4.28435 l 6.46937,5.52682 c -2.19934,2.57061 -4.67712,4.40574 -7.43335,5.50539 -2.7563,1.09965 -5.63395,1.64947 -8.63297,1.64947 -4.56999,0 -8.99715,-1.4781 -13.28149,-4.4343 -4.28435,-2.9562 -6.42653,-9.00427 -6.42652,-18.14423 -10e-6,-8.65436 1.97793,-14.63816 5.93382,-17.95143 3.95587,-3.31319 8.09027,-4.9698 12.4032,-4.96984 4.88413,4e-5 9.1542,1.69236 12.81021,5.07695 3.65594,3.38467 5.48393,7.9475 5.48397,13.6885 l 0,7.36909 z m -27.67691,-7.36909 18.76546,0 c -0.14284,-3.34176 -1.0854,-5.89809 -2.82767,-7.66899 -1.74233,-1.77083 -3.92735,-2.65626 -6.55506,-2.65629 -2.65632,3e-5 -4.86276,0.88546 -6.61932,2.65629 -1.7566,1.7709 -2.67773,4.32723 -2.76341,7.66899 l 0,0 z"
     style="font-size:87.74350739px;font-style:normal;font-variant:normal;font-weight:normal;font-stretch:normal;text-align:center;line-height:100%;letter-spacing:2px;writing-mode:lr-tb;text-anchor:middle;fill:#000000;fill-opacity:1;stroke:none;font-family:DIN 1451 Mittelschrift"
     id="text6426"
     inkscape:connector-curvature="0" />
  <path
     d="M 556.58788,141.93093 L 556.58788,133.49076 L 577.49551,88.762138 L 587.47805,88.762138 L 566.3562,133.49076 L 582.63673,133.49076 L 582.63673,115.49649 L 591.59102,115.49649 L 591.59102,133.49076 L 596.60371,133.49076 L 596.60371,141.93093 L 591.59102,141.93093 L 591.59102,151.18513 L 582.63673,151.18513 L 582.63673,141.93093 L 556.58788,141.93093 z M 636.26316,117.68151 L 619.51135,151.18513 L 609.52881,151.18513 L 622.68177,124.79353 L 622.51039,124.79353 C 621.08225,125.33624 619.51133,125.60758 617.79761,125.60756 C 613.82743,125.60758 610.34282,124.22945 607.34379,121.47316 C 604.34474,118.71692 602.84522,114.29691 602.84522,108.21309 C 602.84522,101.07256 604.75175,95.952763 608.56483,92.853694 C 612.37789,89.754741 616.61225,88.205236 621.26793,88.205173 C 625.60938,88.205236 629.59382,89.911834 633.22127,93.324972 C 636.84865,96.738226 638.66236,101.38674 638.66239,107.27053 C 638.66236,111.06937 637.86261,114.53969 636.26316,117.68151 L 636.26316,117.68151 z M 620.75381,117.68151 C 623.21014,117.68154 625.31662,116.85323 627.07322,115.19658 C 628.82978,113.54001 629.70807,110.95512 629.7081,107.44191 C 629.70807,100.587 626.72331,97.15952 620.75381,97.159466 C 618.6973,97.15952 616.6908,97.944984 614.73429,99.515859 C 612.77776,101.08684 611.7995,103.72885 611.79951,107.44191 C 611.7995,110.95512 612.67065,113.54001 614.41297,115.19658 C 616.15525,116.85323 618.26887,117.68154 620.75381,117.68151 L 620.75381,117.68151 z "
     style="font-size:87.74350739px;font-style:normal;font-variant:normal;font-weight:normal;font-stretch:normal;text-align:center;line-height:100%;letter-spacing:2px;writing-mode:lr-tb;text-anchor:middle;fill:black;fill-opacity:1;stroke:none;stroke-width:1px;stroke-linecap:butt;stroke-linejoin:miter;stroke-opacity:1;font-family:DIN 1451 Mittelschrift"
     id="text6430" />
  <path
     d="m 585.03463,212.96968 0,-7.88321 3.08473,0 c 2.97046,4e-5 5.31971,-0.83541 7.04776,-2.50634 1.72799,-1.67086 2.592,-3.79161 2.59203,-6.36227 -3e-5,-2.542 -0.89974,-4.68417 -2.69914,-6.42652 -1.79945,-1.74225 -3.94163,-2.6134 -6.42653,-2.61346 -1.88513,6e-5 -3.67028,0.62843 -5.35544,1.88512 -1.68519,1.25679 -2.77056,3.1419 -3.2561,5.65534 l -8.9543,0 c 0.34275,-4.39855 2.18502,-8.24732 5.52681,-11.54632 3.34179,-3.29889 7.24054,-4.94837 11.69628,-4.94843 5.56963,6e-5 10.0325,1.83519 13.3886,5.50539 3.35604,3.67032 5.03407,7.77615 5.03411,12.31751 -4e-5,2.39928 -0.47131,4.73425 -1.41383,7.00491 -0.9426,2.27075 -2.69918,4.2344 -5.26976,5.89099 2.62771,1.68521 4.51282,3.75597 5.65535,6.21231 1.14245,2.45638 1.7137,4.9413 1.71374,7.45477 -4e-5,5.82673 -1.82803,10.4681 -5.48397,13.92414 -3.65601,3.45604 -8.14029,5.18406 -13.45286,5.18406 -4.22724,0 -8.03317,-1.36385 -11.4178,-4.09155 -3.38464,-2.7277 -5.49111,-6.705 -6.31942,-11.93192 l 8.9543,0 c 0.82829,2.14219 1.94222,3.86307 3.34179,5.16264 1.39954,1.2996 3.38462,1.94939 5.95525,1.94938 2.4849,1e-5 4.6842,-0.87828 6.5979,-2.63487 1.91365,-1.75658 2.87049,-4.17723 2.87051,-7.26198 -2e-5,-3.11327 -0.94972,-5.54821 -2.84909,-7.30482 -1.89942,-1.75655 -4.16298,-2.63485 -6.7907,-2.63487 l -3.77022,0 z m 43.74322,28.23387 0,-52.95458 -8.86861,6.46937 0,-9.46841 8.86861,-6.46937 8.95429,0 0,62.42299 -8.95429,0 z"
     style="font-size:87.74350739px;font-style:normal;font-variant:normal;font-weight:normal;font-stretch:normal;text-align:center;line-height:100%;writing-mode:lr-tb;text-anchor:middle;fill:#000000;fill-opacity:1;stroke:none;font-family:DIN 1451 Mittelschrift"
     id="text6436"
     inkscape:connector-curvature="0" />
  <path
     d="M 662.29466,151.18513 L 662.29466,106.28702 L 668.73508,106.28702 L 668.73508,134.23663 L 668.85835,134.23663 L 681.15371,119.19869 L 688.85757,119.19869 L 677.82564,131.70976 L 690.36753,151.18513 L 682.29388,151.18513 L 673.78882,136.23964 L 668.73508,142.00212 L 668.73508,151.18513 L 662.29466,151.18513 z M 695.45208,151.18513 L 695.45208,119.19869 L 701.89251,119.19869 L 701.89251,122.61921 L 702.01577,122.61921 C 704.04957,120.09237 706.82296,118.82894 710.33594,118.82891 C 712.57517,118.82894 714.3522,119.22954 715.66701,120.03071 C 716.98178,120.83194 718.21439,121.81803 719.36487,122.98899 C 721.8917,120.21563 725.26085,118.82894 729.47233,118.82891 C 731.95807,118.82894 734.35654,119.77395 736.66774,121.66393 C 738.97885,123.55397 740.13443,126.30681 740.13448,129.92247 L 740.13448,151.18513 L 733.69405,151.18513 L 733.69405,132.14118 C 733.69401,129.98412 733.08797,128.29954 731.87594,127.08745 C 730.66382,125.8754 729.16414,125.26936 727.37688,125.26934 C 725.52792,125.26936 724.00256,125.8754 722.80079,127.08745 C 721.59895,128.29954 720.99805,129.98412 720.99808,132.14118 L 720.99808,151.18513 L 714.58847,151.18513 L 714.58847,132.14118 C 714.58845,129.98412 713.98241,128.29954 712.77036,127.08745 C 711.55826,125.8754 710.05858,125.26936 708.2713,125.26934 C 706.42236,125.26936 704.897,125.8754 703.69521,127.08745 C 702.4934,128.29954 701.8925,129.98412 701.89251,132.14118 L 701.89251,151.18513 L 695.45208,151.18513 z "
     style="font-size:63.11003876px;font-style:normal;font-variant:normal;font-weight:normal;font-stretch:normal;text-align:center;line-height:100%;writing-mode:lr-tb;text-anchor:middle;fill:black;fill-opacity:1;stroke:none;stroke-width:1px;stroke-linecap:butt;stroke-linejoin:miter;stroke-opacity:1;font-family:DIN 1451 Mittelschrift"
     id="text6440" />
  <path
     d="M 662.75266,241.71766 L 662.75266,196.81955 L 669.19309,196.81955 L 669.19309,224.76916 L 669.31635,224.76916 L 681.61172,209.73122 L 689.31558,209.73122 L 678.28365,222.2423 L 690.82554,241.71766 L 682.75189,241.71766 L 674.24683,226.77217 L 669.19309,232.53466 L 669.19309,241.71766 L 662.75266,241.71766 z M 695.91009,241.71766 L 695.91009,209.73122 L 702.35051,209.73122 L 702.35051,213.15174 L 702.47378,213.15174 C 704.50758,210.6249 707.28097,209.36147 710.79395,209.36144 C 713.03318,209.36147 714.8102,209.76207 716.12502,210.56324 C 717.43979,211.36447 718.6724,212.35057 719.82287,213.52152 C 722.34971,210.74816 725.71886,209.36147 729.93034,209.36144 C 732.41608,209.36147 734.81455,210.30648 737.12575,212.19646 C 739.43686,214.0865 740.59244,216.83935 740.59249,220.455 L 740.59249,241.71766 L 734.15206,241.71766 L 734.15206,222.67371 C 734.15201,220.51665 733.54598,218.83208 732.33395,217.61998 C 731.12183,216.40793 729.62215,215.80189 727.83489,215.80187 C 725.98593,215.80189 724.46057,216.40793 723.2588,217.61998 C 722.05696,218.83208 721.45606,220.51665 721.45609,222.67371 L 721.45609,241.71766 L 715.04648,241.71766 L 715.04648,222.67371 C 715.04646,220.51665 714.44042,218.83208 713.22837,217.61998 C 712.01627,216.40793 710.51659,215.80189 708.72931,215.80187 C 706.88037,215.80189 705.35501,216.40793 704.15322,217.61998 C 702.9514,218.83208 702.3505,220.51665 702.35051,222.67371 L 702.35051,241.71766 L 695.91009,241.71766 z "
     style="font-size:63.11003876px;font-style:normal;font-variant:normal;font-weight:normal;font-stretch:normal;text-align:center;line-height:100%;writing-mode:lr-tb;text-anchor:middle;fill:black;fill-opacity:1;stroke:none;stroke-width:1px;stroke-linecap:butt;stroke-linejoin:miter;stroke-opacity:1;font-family:DIN 1451 Mittelschrift"
     id="text6444" />
</svg>
