<?xml version="1.0" encoding="UTF-8" standalone="no"?>
<!-- Created with Inkscape (http://www.inkscape.org/) -->

<svg
   xmlns:dc="http://purl.org/dc/elements/1.1/"
   xmlns:cc="http://creativecommons.org/ns#"
   xmlns:rdf="http://www.w3.org/1999/02/22-rdf-syntax-ns#"
   xmlns:svg="http://www.w3.org/2000/svg"
   xmlns="http://www.w3.org/2000/svg"
   xmlns:sodipodi="http://sodipodi.sourceforge.net/DTD/sodipodi-0.dtd"
   xmlns:inkscape="http://www.inkscape.org/namespaces/inkscape"
   version="1.0"
   width="980"
   height="970"
   id="svg2"
   inkscape:version="0.48.1 r9760"
   sodipodi:docname="Zeichen_448.svg">
  <metadata
     id="metadata22">
    <rdf:RDF>
      <cc:Work
         rdf:about="">
        <dc:format>image/svg+xml</dc:format>
        <dc:type
           rdf:resource="http://purl.org/dc/dcmitype/StillImage" />
        <dc:title></dc:title>
      </cc:Work>
    </rdf:RDF>
  </metadata>
  <sodipodi:namedview
     pagecolor="#ffffff"
     bordercolor="#666666"
     borderopacity="1"
     objecttolerance="10"
     gridtolerance="10"
     guidetolerance="10"
     inkscape:pageopacity="0"
     inkscape:pageshadow="2"
     inkscape:window-width="864"
     inkscape:window-height="782"
     id="namedview20"
     showgrid="false"
     inkscape:zoom="0.24329897"
     inkscape:cx="490"
     inkscape:cy="485"
     inkscape:window-x="0"
     inkscape:window-y="0"
     inkscape:window-maximized="0"
     inkscape:current-layer="svg2" />
  <defs
     id="defs9" />
  <path
     d="M 10.739865,52.030612 L 10.963889,920.8356 C 10.963889,943.40717 17.80584,953.65657 32.09289,953.65657 L 956.30714,954.34156 C 963.99435,954.34156 976.67009,936.15741 976.67009,920.56305 L 976.61154,39.429108 C 976.61154,23.983239 965.44307,4.8123963 953.47758,4.8123963 L 45.321297,3.6640534 C 17.802456,3.4404091 10.739865,22.831843 10.739865,52.030612 z "
     style="fill:white;fill-opacity:1;fill-rule:evenodd;stroke:black;stroke-width:2.01601553;stroke-linecap:butt;stroke-linejoin:miter;stroke-miterlimit:4;stroke-dasharray:none;stroke-opacity:1"
     id="path3829" />
  <path
     d="M 30.178245,40.856827 L 30.194623,912.59113 C 30.194623,926.89045 35.710034,931.89856 43.098713,931.89856 L 948.64276,932.15716 C 952.15081,932.15716 956.17002,923.21724 956.17002,918.07717 L 955.83809,43.256394 C 955.69573,34.874645 947.03407,25.426226 941.7389,25.426226 L 43.356946,25.166307 C 35.961307,25.166307 30.178245,32.630594 30.178245,40.856827 z "
     style="fill:#154889;fill-opacity:1;fill-rule:evenodd;stroke:none;stroke-width:19.30764197999999965;stroke-linecap:butt;stroke-linejoin:miter;stroke-miterlimit:4;stroke-dasharray:none;stroke-opacity:1"
     id="path2057" />
  <path
     d="M 119.67037,514.79614 L 119.67037,397.85416 L 160.60408,397.85416 C 176.60293,397.85428 188.48172,404.40902 196.24048,417.51839 C 199.12983,422.49474 200.89559,427.14994 201.53778,431.48401 C 202.17979,435.81825 202.50084,444.112 202.50093,456.36528 C 202.50084,469.52833 202.05939,478.31702 201.1766,482.73141 C 200.29363,487.14585 198.54124,491.38637 195.91943,495.45296 C 192.44132,500.9108 187.66573,505.49912 181.59264,509.21792 C 175.5194,512.93674 168.14866,514.79614 159.48041,514.79614 L 119.67037,514.79614 z M 137.40831,414.62896 L 137.40831,498.10161 L 158.67779,498.10161 C 168.4162,498.10163 175.63979,494.70387 180.34857,487.90832 C 182.27479,484.9654 183.4921,481.79505 184.0005,478.39725 C 184.50875,474.99952 184.76291,467.86958 184.76299,457.00738 C 184.76291,446.51986 184.482,439.26952 183.92024,435.25633 C 183.35833,431.24331 181.90023,427.63151 179.54595,424.42094 C 174.67664,417.89305 167.7206,414.62906 158.67779,414.62896 L 137.40831,414.62896 z M 221.92438,486.86491 L 221.92438,431.48401 L 238.69917,431.48401 L 238.69917,481.16629 C 238.69914,486.83818 240.26425,491.23922 243.39451,494.36942 C 246.52469,497.49966 250.49767,499.06477 255.31344,499.06476 C 259.96859,499.06477 263.86131,497.49966 266.99158,494.36942 C 270.12175,491.23922 271.68686,486.83818 271.68692,481.16629 L 271.68692,431.48401 L 288.46171,431.48401 L 288.46171,514.79614 L 271.68692,514.79614 L 271.68692,505.9673 L 271.36587,505.9673 C 266.17553,512.4953 259.00545,515.75929 249.85561,515.75929 C 243.27408,515.75929 236.97351,513.31129 230.95387,508.4153 C 224.93419,503.51932 221.92436,496.33586 221.92438,486.86491 L 221.92438,486.86491 z M 259.88838,418.5618 L 259.88838,400.82386 L 277.62632,400.82386 L 277.62632,418.5618 L 259.88838,418.5618 z M 230.91374,418.5618 L 230.91374,400.82386 L 248.73194,400.82386 L 248.73194,418.5618 L 230.91374,418.5618 z M 300.98261,500.91079 L 312.70089,489.35304 C 319.97797,496.46963 328.72654,500.02792 338.94662,500.0279 C 343.70879,500.02792 347.64164,499.13166 350.74515,497.33912 C 353.84857,495.54662 355.4003,492.88459 355.40036,489.35304 C 355.4003,484.48383 352.00254,481.75492 345.20706,481.16629 L 330.43883,479.80184 C 323.53625,479.26679 317.81089,476.9927 313.26272,472.97955 C 308.71452,468.96649 306.44043,463.3749 306.44044,456.20476 C 306.44043,447.75055 309.41013,441.35633 315.34954,437.0221 C 321.28892,432.68803 328.67303,430.52095 337.5019,430.52087 C 344.77895,430.52095 351.01264,431.55098 356.20298,433.61096 C 361.39321,435.6711 366.04841,438.41339 370.1686,441.83783 L 359.81478,454.03768 C 356.49722,451.7904 353.0727,449.94438 349.54122,448.49959 C 346.00964,447.05494 341.99654,446.33258 337.5019,446.33251 C 332.15105,446.33258 328.43224,447.28235 326.34546,449.18182 C 324.25861,451.08142 323.21521,453.47591 323.21523,456.36528 C 323.21521,458.18462 323.99107,459.87012 325.54283,461.4218 C 327.09454,462.97359 329.98398,463.90998 334.21115,464.23098 L 348.01624,465.19412 C 356.63099,465.78276 362.81117,468.44479 366.5568,473.18021 C 370.3023,477.91571 372.17508,483.57419 372.17515,490.15566 C 372.17508,498.34242 368.83083,504.65637 362.14238,509.09753 C 355.45381,513.5387 347.29383,515.75929 337.66242,515.75929 C 323.8038,515.75929 311.5772,510.80979 300.98261,500.91079 L 300.98261,500.91079 z M 379.96059,500.91079 L 391.67887,489.35304 C 398.95595,496.46963 407.70452,500.02792 417.9246,500.0279 C 422.68677,500.02792 426.61962,499.13166 429.72314,497.33912 C 432.82655,495.54662 434.37829,492.88459 434.37834,489.35304 C 434.37829,484.48383 430.98052,481.75492 424.18505,481.16629 L 409.41681,479.80184 C 402.51424,479.26679 396.78887,476.9927 392.2407,472.97955 C 387.6925,468.96649 385.41841,463.3749 385.41842,456.20476 C 385.41841,447.75055 388.38811,441.35633 394.32752,437.0221 C 400.2669,432.68803 407.65101,430.52095 416.47988,430.52087 C 423.75694,430.52095 429.99062,431.55098 435.18096,433.61096 C 440.37119,435.6711 445.02639,438.41339 449.14658,441.83783 L 438.79276,454.03768 C 435.4752,451.7904 432.05069,449.94438 428.5192,448.49959 C 424.98762,447.05494 420.97452,446.33258 416.47988,446.33251 C 411.12903,446.33258 407.41022,447.28235 405.32344,449.18182 C 403.2366,451.08142 402.19319,453.47591 402.19321,456.36528 C 402.19319,458.18462 402.96905,459.87012 404.52081,461.4218 C 406.07252,462.97359 408.96196,463.90998 413.18913,464.23098 L 426.99422,465.19412 C 435.60897,465.78276 441.78915,468.44479 445.53478,473.18021 C 449.28028,477.91571 451.15306,483.57419 451.15314,490.15566 C 451.15306,498.34242 447.80881,504.65637 441.12036,509.09753 C 434.43179,513.5387 426.27181,515.75929 416.6404,515.75929 C 402.78178,515.75929 390.55519,510.80979 379.96059,500.91079 L 379.96059,500.91079 z M 532.69949,479.48079 L 480.85013,479.48079 C 480.85011,486.32986 482.70951,491.46663 486.42835,494.89113 C 490.14713,498.31566 494.89597,500.02792 500.67489,500.0279 C 507.57738,500.02792 513.6773,497.35252 518.97466,492.00169 L 531.09425,502.35551 C 526.97405,507.17124 522.33223,510.60914 517.16876,512.6692 C 512.00517,514.72926 506.61424,515.75929 500.99593,515.75929 C 492.4346,515.75929 484.14085,512.99025 476.11466,507.45216 C 468.08843,501.91408 464.07533,490.58375 464.07534,473.46113 C 464.07533,457.24823 467.78076,446.03829 475.19165,439.83128 C 482.60249,433.62442 490.34779,430.52095 498.42754,430.52087 C 507.57738,430.52095 515.57684,433.6913 522.42593,440.03193 C 529.2749,446.37271 532.69942,454.92063 532.69949,465.6757 L 532.69949,479.48079 z M 480.85013,465.6757 L 516.00496,465.6757 C 515.73736,459.4153 513.97159,454.62633 510.70766,451.30877 C 507.44361,447.99133 503.35024,446.33258 498.42754,446.33251 C 493.45125,446.33258 489.31776,447.99133 486.02704,451.30877 C 482.73627,454.62633 481.01063,459.4153 480.85013,465.6757 L 480.85013,465.6757 z M 550.35718,494.65034 L 550.35718,397.85416 L 567.13198,397.85416 L 567.13198,493.28588 C 567.13195,497.13848 569.21876,499.06477 573.39243,499.06476 L 579.09104,499.06476 L 579.09104,514.79614 L 571.70692,514.79614 C 565.60697,514.79614 560.5237,513.31129 556.45711,510.34159 C 552.39048,507.3719 550.35717,502.14149 550.35718,494.65034 L 550.35718,494.65034 z M 642.49815,514.79614 L 642.49815,506.12783 C 636.66571,512.5488 629.49563,515.75929 620.98789,515.75929 C 615.85107,515.75929 611.43666,514.75601 607.74463,512.74946 C 604.05254,510.74291 601.02934,508.16114 598.675,505.00416 C 596.32063,502.06123 594.74214,498.56982 593.93953,494.52995 C 593.1369,490.49011 592.73559,483.3334 592.7356,473.05982 C 592.73559,462.89333 593.1369,455.81689 593.93953,451.83047 C 594.74214,447.84418 596.32063,444.35278 598.675,441.35626 C 601.02934,438.25286 604.05254,435.6711 607.74463,433.61096 C 611.43666,431.55098 615.85107,430.52095 620.98789,430.52087 C 625.26849,430.52095 629.14782,431.43059 632.6259,433.24978 C 636.10387,435.06914 639.39462,437.45024 642.49815,440.39311 L 642.49815,397.85416 L 659.27294,397.85416 L 659.27294,514.79614 L 642.49815,514.79614 z M 626.12466,447.29566 C 618.20543,447.29573 613.45659,449.99788 611.87813,455.40214 C 610.29961,460.80651 609.51037,466.6924 609.51039,473.05982 C 609.51037,479.58784 610.29961,485.55399 611.87813,490.95828 C 613.45659,496.36262 618.20543,499.06477 626.12466,499.06476 C 633.88329,499.06477 638.55187,496.2556 640.13041,490.63723 C 641.70884,485.01891 642.49809,479.15978 642.49815,473.05982 C 642.49809,467.12046 641.70884,461.34159 640.13041,455.72319 C 638.55187,450.1049 633.88329,447.29573 626.12466,447.29566 L 626.12466,447.29566 z M 674.04116,473.05982 C 674.04115,464.12401 674.73675,457.46226 676.12797,453.07454 C 677.51917,448.68694 679.82002,444.72734 683.03052,441.19573 C 685.33135,438.68093 688.5017,436.27307 692.54159,433.97214 C 696.58142,431.67137 701.86534,430.52095 708.39337,430.52087 C 714.81429,430.52095 720.05808,431.67137 724.12475,433.97214 C 728.19131,436.27307 731.37504,438.68093 733.67595,441.19573 C 736.88637,444.72734 739.18721,448.68694 740.57849,453.07454 C 741.96963,457.46226 742.66524,464.12401 742.66531,473.05982 C 742.66524,482.15623 741.96963,488.89824 740.57849,493.28588 C 739.18721,497.67356 736.88637,501.63316 733.67595,505.16468 C 731.37504,507.73308 728.19131,510.14094 724.12475,512.38828 C 720.05808,514.63562 714.81429,515.75929 708.39337,515.75929 C 701.86534,515.75929 696.58142,514.63562 692.54159,512.38828 C 688.5017,510.14094 685.33135,507.73308 683.03052,505.16468 C 679.82002,501.63316 677.51917,497.67356 676.12797,493.28588 C 674.73675,488.89824 674.04115,482.15623 674.04116,473.05982 L 674.04116,473.05982 z M 725.97078,473.22034 C 725.97072,467.17397 725.66305,462.92008 725.04777,460.45865 C 724.43236,457.99734 723.37558,455.64298 721.87741,453.39558 C 718.93441,449.32903 714.43973,447.29573 708.39337,447.29566 C 702.2399,447.29573 697.74522,449.32903 694.90932,453.39558 C 693.30405,455.64298 692.22051,457.99734 691.6587,460.45865 C 691.09684,462.92008 690.81593,467.12046 690.81595,473.05982 C 690.81593,479.15978 691.09684,483.4538 691.6587,485.94189 C 692.22051,488.43005 693.30405,490.77102 694.90932,492.96483 C 697.74522,497.03147 702.2399,499.06477 708.39337,499.06476 C 714.43973,499.06477 718.93441,497.03147 721.87741,492.96483 C 723.37558,490.77102 724.43236,488.44342 725.04777,485.98202 C 725.66305,483.52068 725.97072,479.26679 725.97078,473.22034 L 725.97078,473.22034 z M 760.323,514.79614 L 760.323,431.48401 L 777.0978,431.48401 L 777.0978,440.39311 L 777.41885,440.39311 C 782.6091,433.8117 789.83269,430.52095 799.08963,430.52087 C 805.1895,430.52095 810.99512,432.66127 816.50652,436.94184 L 804.38693,451.38903 C 800.74833,448.66018 797.05628,447.29573 793.31076,447.29566 C 789.19059,447.29573 785.4584,448.67356 782.11418,451.42916 C 778.7699,454.18489 777.09777,458.61268 777.0978,464.71255 L 777.0978,514.79614 L 760.323,514.79614 z M 826.86033,514.79614 L 826.86033,444.32596 L 818.4328,444.32596 L 818.4328,431.48401 L 826.86033,431.48401 L 826.86033,420.48809 C 826.86031,412.72952 829.00064,407.01753 833.2813,403.35212 C 837.56193,399.68693 842.96624,397.85428 849.49426,397.85416 L 860.32965,397.85416 L 860.32965,413.58555 L 850.85872,413.58555 C 845.98944,413.58565 843.55483,415.8865 843.55486,420.48809 L 843.55486,431.48401 L 860.32965,431.48401 L 860.32965,444.32596 L 843.55486,444.32596 L 843.55486,514.79614 L 826.86033,514.79614 z "
     style="font-size:164.37692261px;font-style:normal;font-variant:normal;font-weight:normal;font-stretch:normal;text-align:center;line-height:100%;writing-mode:lr-tb;text-anchor:middle;fill:white;fill-opacity:1;stroke:none;stroke-width:1px;stroke-linecap:butt;stroke-linejoin:miter;stroke-opacity:1;font-family:DIN 1451 Mittelschrift"
     id="text5785" />
  <path
     d="M 1079.1805 693.76538 A 102.91912 102.91912 0 1 1  873.34223,693.76538 A 102.91912 102.91912 0 1 1  1079.1805 693.76538 z"
     transform="matrix(1.014506,0,0,1.014506,-304.1091,-493.2233)"
     style="fill:none;fill-opacity:1;fill-rule:nonzero;stroke:white;stroke-width:12.93718815;stroke-linecap:round;stroke-linejoin:miter;stroke-miterlimit:4;stroke-dasharray:none;stroke-dashoffset:0;stroke-opacity:1"
     id="path4839" />
  <g
     transform="matrix(0.635591,0,0,0.635591,191.7311,101.367)"
     style="fill:white"
     id="XMLID_4_">
    <g
       style="fill:white"
       id="g4824">
      <path
         d="M 486.25,4.25 C 486.25,7.25 486.25,10.25 486.25,13.25 C 472.1,44.28 455.67,85.48 440.25,122.25 C 436.73,130.64 431.42,154.11 420.25,153.25 C 411.01,152.54 406.15,129.01 403.25,120.25 C 398.31,105.32 395.63,94.74 391.25,82.25 C 340.51,102.9 303.56,135.92 305.25,204.25 C 306.59,258.51 326.41,303.92 338.25,347.25 C 288.92,347.25 239.58,347.25 190.25,347.25 C 185.7,231.8 181.26,116.24 177.25,0.25 C 194.25,0.25 211.25,0.25 228.25,0.25 C 239.98,38.86 252.72,76.45 264.25,115.25 C 289.69,90.62 324.8,64.4 367.25,52.25 C 360.56,43.5 350.84,37.24 342.25,30.25 C 334.42,23.88 321.93,18.01 322.25,4.25 C 324.24,3.57 324.54,1.2 326.25,0.25 C 378.25,0.25 430.25,0.25 482.25,0.25 C 482.69,1.48 483.53,2.3 485.25,2.25 C 485.09,3.41 485.47,4.03 486.25,4.25 z "
         style="fill:white"
         id="path4826" />
      <path
         d="M 111.25,0.25 C 128.25,0.25 145.25,0.25 162.25,0.25 C 157.72,115.72 153.31,231.31 149.25,347.25 C 99.58,347.25 49.92,347.25 0.25,347.25 C 0.25,346.25 0.25,345.25 0.25,344.25 C 37.98,230.31 73.81,114.48 111.25,0.25 z "
         style="fill:white"
         id="path4828" />
    </g>
  </g>
  <path
     d="M 617.04593,266.9304 L 617.04593,251.88759 L 660.79291,197.1655 C 662.48133,195.01659 663.5814,193.04671 664.09311,191.25582 C 664.60471,189.46509 664.86055,187.72544 664.8606,186.03689 C 664.86055,182.14835 663.47906,178.52835 660.71615,175.1769 C 657.95314,171.82562 654.19244,170.14993 649.43403,170.14983 C 645.08489,170.14993 641.36257,171.59537 638.26705,174.48616 C 635.17148,177.37712 633.44463,181.3297 633.08649,186.34388 L 617.04593,186.34388 C 617.09709,177.28758 620.19264,169.65105 626.33257,163.43428 C 632.47247,157.21773 639.76363,154.10939 648.20606,154.10927 C 657.51823,154.10939 665.28267,157.24331 671.4994,163.51104 C 677.716,169.77898 680.82433,177.33875 680.82441,186.19039 C 680.82433,193.76303 678.59862,200.31227 674.14723,205.83815 L 638.15193,250.9666 L 680.82441,250.9666 L 680.82441,266.9304 L 617.04593,266.9304 z "
     style="font-size:220.31568909px;font-style:normal;font-variant:normal;font-weight:normal;font-stretch:normal;text-align:center;line-height:100%;writing-mode:lr-tb;text-anchor:middle;fill:white;fill-opacity:1;stroke:none;stroke-width:1px;stroke-linecap:butt;stroke-linejoin:miter;stroke-opacity:1;font-family:DIN 1451 Mittelschrift"
     id="text5726" />
  <path
     d="M 697.49551,216.1197 L 728.09346,154.92382 L 746.32701,154.92382 L 722.30254,203.12927 L 722.61556,203.12927 C 725.17188,202.1381 728.06733,201.64248 731.30194,201.64242 C 738.5014,201.64248 744.8401,204.17274 750.31805,209.23321 C 755.79587,214.29379 758.53482,222.35411 758.53489,233.41419 C 758.53482,246.50899 755.0394,255.86052 748.04864,261.46883 C 741.05775,267.07715 733.33654,269.88131 724.88498,269.88131 C 716.90288,269.88131 709.61207,266.79021 703.01253,260.60802 C 696.41297,254.42584 693.11319,245.9612 693.1132,235.21407 C 693.11319,228.32762 694.57396,221.96284 697.49551,216.1197 L 697.49551,216.1197 z M 725.82404,216.1197 C 721.28518,216.11976 717.42458,217.64574 714.24221,220.69766 C 711.0598,223.74967 709.4686,228.45804 709.46862,234.82279 C 709.4686,247.34371 714.9204,253.60415 725.82404,253.60414 C 729.58027,253.60415 733.24524,252.18251 736.81896,249.33921 C 740.39258,246.49594 742.17941,241.65714 742.17947,234.82279 C 742.17941,228.45804 740.57517,223.74967 737.36675,220.69766 C 734.15822,217.64574 730.31066,216.11976 725.82404,216.1197 L 725.82404,216.1197 z "
     style="font-size:160.26748657px;font-style:normal;font-variant:normal;font-weight:normal;font-stretch:normal;text-align:center;line-height:100%;writing-mode:lr-tb;text-anchor:middle;fill:white;fill-opacity:1;stroke:none;stroke-width:1px;stroke-linecap:butt;stroke-linejoin:miter;stroke-opacity:1;font-family:DIN 1451 Mittelschrift"
     id="text5780" />
  <path
     d="M 191.1037,651.53393 L 191.1037,634.75914 L 240.62546,634.75914 L 240.62546,651.53393 L 191.1037,651.53393 z M 261.49362,688.61505 L 261.49362,571.67307 L 306.84175,571.67307 C 318.23891,571.67319 326.86708,574.60275 332.7263,580.46178 C 338.58534,586.32102 341.51491,593.85228 341.515,603.05558 C 341.51491,607.87139 340.33773,612.49984 337.98347,616.94094 C 335.62902,621.38218 331.05409,625.12774 324.25864,628.17764 L 324.25864,628.49869 C 330.67953,629.99697 335.4685,633.38136 338.62557,638.65185 C 341.78245,643.92245 343.36094,649.52741 343.36103,655.46678 C 343.36094,665.57983 340.13708,673.6328 333.68944,679.62569 C 327.24164,685.6186 319.63011,688.61505 310.85485,688.61505 L 261.49362,688.61505 z M 306.5207,636.68543 L 279.23156,636.68543 L 279.23156,671.92052 L 306.5207,671.92052 C 313.10213,671.92054 317.93123,670.14139 321.00802,666.58309 C 324.08466,663.02482 325.62302,658.94483 325.62309,654.34311 C 325.62302,649.74145 324.08466,645.64808 321.00802,642.06299 C 317.93123,638.478 313.10213,636.68548 306.5207,636.68543 L 306.5207,636.68543 z M 304.91545,587.40446 L 279.23156,587.40446 L 279.23156,620.95404 L 304.91545,620.95404 C 311.28286,620.95411 316.01832,619.32212 319.12186,616.05805 C 322.22526,612.79413 323.77699,608.83454 323.77706,604.17925 C 323.77699,599.68466 322.22526,595.76519 319.12186,592.42084 C 316.01832,589.07668 311.28286,587.40456 304.91545,587.40446 L 304.91545,587.40446 z M 424.74688,653.2997 L 372.89751,653.2997 C 372.89749,660.14876 374.7569,665.28554 378.47574,668.71003 C 382.19452,672.13457 386.94336,673.84683 392.72227,673.84681 C 399.62477,673.84683 405.72469,671.17142 411.02205,665.8206 L 423.14163,676.17442 C 419.02144,680.99015 414.37961,684.42805 409.21615,686.4881 C 404.05256,688.54817 398.66162,689.5782 393.04332,689.5782 C 384.48199,689.5782 376.18824,686.80916 368.16205,681.27106 C 360.13582,675.73299 356.12271,664.40266 356.12272,647.28004 C 356.12271,631.06713 359.82815,619.8572 367.23903,613.65019 C 374.64988,607.44333 382.39517,604.33986 390.47493,604.33977 C 399.62477,604.33986 407.62422,607.51021 414.47332,613.85084 C 421.32228,620.19162 424.7468,628.73953 424.74688,639.4946 L 424.74688,653.2997 z M 372.89751,639.4946 L 408.05234,639.4946 C 407.78475,633.23421 406.01898,628.44524 402.75504,625.12768 C 399.491,621.81024 395.39763,620.15149 390.47493,620.15142 C 385.49864,620.15149 381.36514,621.81024 378.07442,625.12768 C 374.78365,628.44524 373.05802,633.23421 372.89751,639.4946 L 372.89751,639.4946 z M 442.40455,688.61505 L 442.40455,605.30292 L 459.17935,605.30292 L 459.17935,614.21202 L 459.5004,614.21202 C 464.69065,607.6306 471.91424,604.33986 481.17118,604.33977 C 487.64561,604.33986 493.89267,606.80123 499.9124,611.72389 C 505.93199,616.64671 508.94181,623.81679 508.94189,633.23416 L 508.94189,688.61505 L 492.1671,688.61505 L 492.1671,639.01303 C 492.16704,633.39473 490.60193,629.00707 487.47176,625.85004 C 484.34148,622.69312 480.44877,621.11464 475.79362,621.11457 C 470.97785,621.11464 467.00487,622.69312 463.87468,625.85004 C 460.74443,629.00707 459.17932,633.39473 459.17935,639.01303 L 459.17935,688.61505 L 442.40455,688.61505 z M 530.69293,688.61505 L 530.69293,605.30292 L 547.46772,605.30292 L 547.46772,614.21202 L 547.78877,614.21202 C 552.97902,607.6306 560.20261,604.33986 569.45956,604.33977 C 575.55943,604.33986 581.36505,606.48018 586.87645,610.76075 L 574.75686,625.20794 C 571.11826,622.47909 567.4262,621.11464 563.68068,621.11457 C 559.56052,621.11464 555.82833,622.49247 552.48411,625.24807 C 549.13982,628.0038 547.46769,632.43159 547.46772,638.53146 L 547.46772,688.61505 L 530.69293,688.61505 z M 638.32451,688.61505 L 638.32451,681.23093 L 637.9232,681.23093 C 634.55214,686.79578 627.70311,689.5782 617.37609,689.5782 C 608.06565,689.5782 600.84206,687.15696 595.7053,682.31447 C 590.56852,677.472 588.00013,671.41221 588.00013,664.13509 C 588.00013,657.55362 590.27422,651.80151 594.82242,646.87872 C 599.37059,641.95602 606.13936,639.49465 615.12875,639.4946 L 638.32451,639.4946 L 638.32451,630.82629 C 638.32446,623.70978 632.62585,620.15149 621.22867,620.15142 C 613.30944,620.15149 608.0389,622.26506 605.41702,626.49213 L 592.25403,616.53962 C 598.0864,608.40647 607.45031,604.33986 620.34579,604.33977 C 630.6193,604.33986 638.96656,606.34641 645.38758,610.35944 C 651.80849,614.37262 655.01897,621.51595 655.01905,631.78944 L 655.01905,688.61505 L 638.32451,688.61505 z M 638.32451,659.39962 L 638.32451,653.2997 L 618.25897,653.2997 C 608.57398,653.29973 603.7315,656.64399 603.73152,663.33247 C 603.7315,666.16842 604.94881,668.62979 607.38345,670.71659 C 609.81804,672.80342 613.87128,673.84683 619.54317,673.84681 C 626.49918,673.84683 631.36841,673.07096 634.15088,671.51921 C 636.93325,669.96749 638.32446,665.92763 638.32451,659.39962 L 638.32451,659.39962 z M 677.73322,605.30292 L 677.73322,580.02034 L 694.50802,580.02034 L 694.50802,605.30292 L 706.70787,605.30292 L 706.70787,618.14487 L 694.50802,618.14487 L 694.50802,666.62322 C 694.50799,670.79687 696.48779,672.88368 700.44742,672.88367 L 706.70787,672.88367 L 706.70787,688.61505 L 697.95929,688.61505 C 692.12688,688.61505 687.29778,686.84929 683.47197,683.31775 C 679.64612,679.78622 677.73321,674.72971 677.73322,668.1482 L 677.73322,618.14487 L 669.38596,618.14487 L 669.38596,605.30292 L 677.73322,605.30292 z M 722.35898,688.61505 L 722.35898,571.67307 L 739.13377,571.67307 L 739.13377,614.21202 L 739.45482,614.21202 C 744.64507,607.6306 751.86866,604.33986 761.1256,604.33977 C 767.60003,604.33986 773.84709,606.80123 779.86682,611.72389 C 785.88641,616.64671 788.89624,623.81679 788.89631,633.23416 L 788.89631,688.61505 L 772.12152,688.61505 L 772.12152,639.01303 C 772.12146,633.39473 770.55635,629.00707 767.42618,625.85004 C 764.29591,622.69312 760.40319,621.11464 755.74804,621.11457 C 750.93227,621.11464 746.95929,622.69312 743.82911,625.85004 C 740.69885,629.00707 739.13374,633.39473 739.13377,639.01303 L 739.13377,688.61505 L 722.35898,688.61505 z "
     style="font-size:164.37692261px;font-style:normal;font-variant:normal;font-weight:normal;font-stretch:normal;text-align:center;line-height:100%;writing-mode:lr-tb;text-anchor:middle;fill:white;fill-opacity:1;stroke:none;stroke-width:1px;stroke-linecap:butt;stroke-linejoin:miter;stroke-opacity:1;font-family:DIN 1451 Mittelschrift"
     id="text5789" />
  <path
     d="M 292.1149,864.10223 L 292.1149,764.89819 L 275.50063,777.01778 L 275.50063,759.27984 L 292.1149,747.16025 L 308.8897,747.16025 L 308.8897,864.10223 L 292.1149,864.10223 z "
     style="font-size:164.37692261px;font-style:normal;font-variant:normal;font-weight:normal;font-stretch:normal;text-align:center;line-height:100%;writing-mode:lr-tb;text-anchor:middle;fill:white;fill-opacity:1;stroke:none;stroke-width:1px;stroke-linecap:butt;stroke-linejoin:miter;stroke-opacity:1;font-family:DIN 1451 Mittelschrift"
     id="text5793" />
  <path
     d="M 385.78291,829.50919 L 385.78291,779.82691 C 385.78285,774.20864 384.27125,769.82098 381.2481,766.66391 C 378.22484,763.50703 374.25187,761.92854 369.32916,761.92844 C 364.35287,761.92854 360.36652,763.50703 357.3701,766.66391 C 354.37362,769.82098 352.8754,774.20864 352.87542,779.82691 L 352.87542,829.50919 C 352.8754,835.18108 354.37362,839.58212 357.3701,842.71232 C 360.36652,845.84256 364.35287,847.40767 369.32916,847.40765 C 374.25187,847.40767 378.22484,845.84256 381.2481,842.71232 C 384.27125,839.58212 385.78285,835.18108 385.78291,829.50919 L 385.78291,829.50919 z M 336.10063,830.47234 L 336.10063,778.86376 C 336.10062,768.10873 339.47163,759.8016 346.21366,753.94236 C 352.95566,748.08333 360.66082,745.15377 369.32916,745.15365 C 377.94392,745.15377 385.63571,748.08333 392.40454,753.94236 C 399.17324,759.8016 402.55763,768.10873 402.5577,778.86376 L 402.5577,830.47234 C 402.55763,841.22749 399.17324,849.52124 392.40454,855.35361 C 385.63571,861.18599 377.94392,864.10218 369.32916,864.10219 C 360.66082,864.10218 352.95566,861.18599 346.21366,855.35361 C 339.47163,849.52124 336.10062,841.22749 336.10063,830.47234 L 336.10063,830.47234 z "
     style="font-size:164.37692261px;font-style:normal;font-variant:normal;font-weight:normal;font-stretch:normal;text-align:center;line-height:100%;writing-mode:lr-tb;text-anchor:middle;fill:white;fill-opacity:1;stroke:none;stroke-width:1px;stroke-linecap:butt;stroke-linejoin:miter;stroke-opacity:1;font-family:DIN 1451 Mittelschrift"
     id="text5797" />
  <path
     d="M 467.91276,829.50919 L 467.91276,779.82691 C 467.9127,774.20864 466.4011,769.82098 463.37795,766.66391 C 460.35469,763.50703 456.38172,761.92854 451.45902,761.92844 C 446.48273,761.92854 442.49638,763.50703 439.49995,766.66391 C 436.50347,769.82098 435.00525,774.20864 435.00527,779.82691 L 435.00527,829.50919 C 435.00525,835.18108 436.50347,839.58212 439.49995,842.71232 C 442.49638,845.84256 446.48273,847.40767 451.45902,847.40765 C 456.38172,847.40767 460.35469,845.84256 463.37795,842.71232 C 466.4011,839.58212 467.9127,835.18108 467.91276,829.50919 L 467.91276,829.50919 z M 418.23048,830.47234 L 418.23048,778.86376 C 418.23047,768.10873 421.60148,759.8016 428.34351,753.94236 C 435.08551,748.08333 442.79067,745.15377 451.45902,745.15365 C 460.07377,745.15377 467.76556,748.08333 474.53439,753.94236 C 481.3031,759.8016 484.68748,768.10873 484.68755,778.86376 L 484.68755,830.47234 C 484.68748,841.22749 481.3031,849.52124 474.53439,855.35361 C 467.76556,861.18599 460.07377,864.10218 451.45902,864.10219 C 442.79067,864.10218 435.08551,861.18599 428.34351,855.35361 C 421.60148,849.52124 418.23047,841.22749 418.23048,830.47234 L 418.23048,830.47234 z "
     style="font-size:164.37692261px;font-style:normal;font-variant:normal;font-weight:normal;font-stretch:normal;text-align:center;line-height:100%;writing-mode:lr-tb;text-anchor:middle;fill:white;fill-opacity:1;stroke:none;stroke-width:1px;stroke-linecap:butt;stroke-linejoin:miter;stroke-opacity:1;font-family:DIN 1451 Mittelschrift"
     id="text5803" />
  <path
     d="M 551.51631,829.50919 L 551.51631,779.82691 C 551.51625,774.20864 550.00465,769.82098 546.98149,766.66391 C 543.95824,763.50703 539.98526,761.92854 535.06256,761.92844 C 530.08627,761.92854 526.09992,763.50703 523.1035,766.66391 C 520.10702,769.82098 518.60879,774.20864 518.60882,779.82691 L 518.60882,829.50919 C 518.60879,835.18108 520.10702,839.58212 523.1035,842.71232 C 526.09992,845.84256 530.08627,847.40767 535.06256,847.40765 C 539.98526,847.40767 543.95824,845.84256 546.98149,842.71232 C 550.00465,839.58212 551.51625,835.18108 551.51631,829.50919 L 551.51631,829.50919 z M 501.83402,830.47234 L 501.83402,778.86376 C 501.83402,768.10873 505.20503,759.8016 511.94706,753.94236 C 518.68906,748.08333 526.39422,745.15377 535.06256,745.15365 C 543.67732,745.15377 551.3691,748.08333 558.13794,753.94236 C 564.90664,759.8016 568.29103,768.10873 568.2911,778.86376 L 568.2911,830.47234 C 568.29103,841.22749 564.90664,849.52124 558.13794,855.35361 C 551.3691,861.18599 543.67732,864.10218 535.06256,864.10219 C 526.39422,864.10218 518.68906,861.18599 511.94706,855.35361 C 505.20503,849.52124 501.83402,841.22749 501.83402,830.47234 L 501.83402,830.47234 z "
     style="font-size:164.37692261px;font-style:normal;font-variant:normal;font-weight:normal;font-stretch:normal;text-align:center;line-height:100%;writing-mode:lr-tb;text-anchor:middle;fill:white;fill-opacity:1;stroke:none;stroke-width:1px;stroke-linecap:butt;stroke-linejoin:miter;stroke-opacity:1;font-family:DIN 1451 Mittelschrift"
     id="text5807" />
  <path
     d="M 596.86474,864.10223 L 596.86474,780.7901 L 613.63953,780.7901 L 613.63953,789.6992 L 613.96058,789.6992 C 619.25785,783.11779 626.48144,779.82704 635.63137,779.82696 C 641.46369,779.82704 646.09214,780.87045 649.51672,782.95718 C 652.94117,785.04408 656.15166,787.61246 659.14818,790.66235 C 665.7296,783.43884 674.50492,779.82704 685.47417,779.82696 C 691.94855,779.82704 698.19561,782.28841 704.21539,787.21108 C 710.23493,792.13389 713.24476,799.30397 713.24488,808.72134 L 713.24488,864.10223 L 696.47009,864.10223 L 696.47009,814.50021 C 696.46998,808.88192 694.89149,804.49426 691.73462,801.33722 C 688.57754,798.18031 684.67145,796.60182 680.01635,796.60175 C 675.20053,796.60182 671.22755,798.18031 668.09741,801.33722 C 664.96711,804.49426 663.402,808.88192 663.40208,814.50021 L 663.40208,864.10223 L 646.70755,864.10223 L 646.70755,814.50021 C 646.70748,808.88192 645.129,804.49426 641.97208,801.33722 C 638.81505,798.18031 634.90896,796.60182 630.2538,796.60175 C 625.43803,796.60182 621.46506,798.18031 618.33487,801.33722 C 615.20461,804.49426 613.6395,808.88192 613.63953,814.50021 L 613.63953,864.10223 L 596.86474,864.10223 z "
     style="font-size:164.37692261px;font-style:normal;font-variant:normal;font-weight:normal;font-stretch:normal;text-align:center;line-height:100%;writing-mode:lr-tb;text-anchor:middle;fill:white;fill-opacity:1;stroke:none;stroke-width:1px;stroke-linecap:butt;stroke-linejoin:miter;stroke-opacity:1;font-family:DIN 1451 Mittelschrift"
     id="text5811" />
</svg>
