<?xml version="1.0" encoding="UTF-8" standalone="no"?>
<svg
   xmlns:dc="http://purl.org/dc/elements/1.1/"
   xmlns:cc="http://creativecommons.org/ns#"
   xmlns:rdf="http://www.w3.org/1999/02/22-rdf-syntax-ns#"
   xmlns:svg="http://www.w3.org/2000/svg"
   xmlns="http://www.w3.org/2000/svg"
   xmlns:sodipodi="http://sodipodi.sourceforge.net/DTD/sodipodi-0.dtd"
   xmlns:inkscape="http://www.inkscape.org/namespaces/inkscape"
   width="120.25"
   height="120.25"
   version="1.1"
   id="svg2"
   inkscape:version="0.48.1 r9760"
   sodipodi:docname="Zeichen_406.svg">
  <metadata
     id="metadata16">
    <rdf:RDF>
      <cc:Work
         rdf:about="">
        <dc:format>image/svg+xml</dc:format>
        <dc:type
           rdf:resource="http://purl.org/dc/dcmitype/StillImage" />
      </cc:Work>
    </rdf:RDF>
  </metadata>
  <defs
     id="defs14" />
  <sodipodi:namedview
     pagecolor="#ffffff"
     bordercolor="#666666"
     borderopacity="1"
     objecttolerance="10"
     gridtolerance="10"
     guidetolerance="10"
     inkscape:pageopacity="0"
     inkscape:pageshadow="2"
     inkscape:window-width="640"
     inkscape:window-height="484"
     id="namedview12"
     showgrid="false"
     fit-margin-top="0"
     fit-margin-left="0"
     fit-margin-right="0"
     fit-margin-bottom="0"
     inkscape:zoom="1.9666667"
     inkscape:cx="60.125"
     inkscape:cy="60.125"
     inkscape:window-x="0"
     inkscape:window-y="0"
     inkscape:window-maximized="0"
     inkscape:current-layer="svg2" />
  <rect
     x="0.125"
     y="0.125"
     width="120"
     height="120"
     rx="11.25"
     ry="11.25"
     id="rect4"
     style="fill:#ffffff;stroke:#000000;stroke-width:0.25" />
  <rect
     x="4.625"
     y="4.625"
     width="111"
     height="111"
     rx="6.75"
     ry="6.75"
     id="rect6"
     style="fill:#154889;stroke:none;fill-opacity:1" />
  <circle
     cx="60"
     cy="60"
     r="49"
     id="circle8"
     sodipodi:cx="60"
     sodipodi:cy="60"
     sodipodi:rx="49"
     sodipodi:ry="49"
     style="fill:none;stroke:#ffffff;stroke-width:5.5"
     transform="translate(0.125,0.125)" />
  <path
     d="M 27.08296,86.160837 V 79.136716 L 47.510252,53.584683 q 1.182632,-1.505169 1.541006,-2.759476 0.358373,-1.254308 0.358373,-2.43694 0,-2.723639 -1.935217,-5.053067 -1.935217,-2.329428 -5.268091,-2.365265 -3.046175,0 -5.196416,2.006891 -2.150241,2.006892 -2.43694,5.55479 H 27.08296 q 0.03584,-6.343211 4.33632,-10.679531 4.300482,-4.33632 10.213646,-4.372157 6.522398,0 10.858718,4.372157 4.336319,4.372157 4.372157,10.607856 0,5.303929 -3.11785,9.174363 L 36.938232,78.706668 h 19.925569 v 7.454169 H 27.08296 z M 64.819693,62.113973 78.867936,34.017488 h 8.350103 L 76.215972,56.129135 h 0.143349 q 1.648518,-0.68091 3.977946,-0.68091 4.87388,0 8.708477,3.476224 3.79876,3.51206 3.79876,11.109579 0,9.031013 -4.802206,12.901448 -4.802205,3.834596 -10.643694,3.834596 -5.554789,0 -10.070296,-4.228807 -4.515506,-4.228808 -4.515506,-11.682978 0,-4.766368 2.006891,-8.744314 z m 13.00896,0 q -3.189525,0 -5.339766,2.078567 -2.186079,2.186078 -2.186079,6.522398 0,8.600965 7.525845,8.600965 2.580289,0 5.053067,-1.971055 2.43694,-1.935217 2.43694,-6.62991 0,-4.372157 -2.186079,-6.522398 -2.186079,-2.078567 -5.303928,-2.078567 z"
     id="path10"
     inkscape:connector-curvature="0"
     style="fill:#ffffff;fill-rule:evenodd;stroke:none" />
</svg>
