<?xml version="1.0" encoding="UTF-8" standalone="no"?>
<!-- Created with Inkscape (http://www.inkscape.org/) -->

<svg
   xmlns:dc="http://purl.org/dc/elements/1.1/"
   xmlns:cc="http://creativecommons.org/ns#"
   xmlns:rdf="http://www.w3.org/1999/02/22-rdf-syntax-ns#"
   xmlns:svg="http://www.w3.org/2000/svg"
   xmlns="http://www.w3.org/2000/svg"
   xmlns:sodipodi="http://sodipodi.sourceforge.net/DTD/sodipodi-0.dtd"
   xmlns:inkscape="http://www.inkscape.org/namespaces/inkscape"
   version="1.0"
   width="544.54095"
   height="568.06854"
   id="svg2"
   inkscape:version="0.48.1 r9760"
   sodipodi:docname="Zeichen_440.svg">
  <metadata
     id="metadata45">
    <rdf:RDF>
      <cc:Work
         rdf:about="">
        <dc:format>image/svg+xml</dc:format>
        <dc:type
           rdf:resource="http://purl.org/dc/dcmitype/StillImage" />
        <dc:title></dc:title>
      </cc:Work>
    </rdf:RDF>
  </metadata>
  <sodipodi:namedview
     pagecolor="#ffffff"
     bordercolor="#666666"
     borderopacity="1"
     objecttolerance="10"
     gridtolerance="10"
     guidetolerance="10"
     inkscape:pageopacity="0"
     inkscape:pageshadow="2"
     inkscape:window-width="971"
     inkscape:window-height="855"
     id="namedview43"
     showgrid="false"
     fit-margin-top="0"
     fit-margin-left="0"
     fit-margin-right="0"
     fit-margin-bottom="0"
     inkscape:zoom="1.7035512"
     inkscape:cx="263.03046"
     inkscape:cy="246.97336"
     inkscape:window-x="0"
     inkscape:window-y="0"
     inkscape:window-maximized="0"
     inkscape:current-layer="svg2" />
  <defs
     id="defs4" />
  <path
     d="M 19.870289,1 C 7.8171931,1 1.0133831,9.636211 1.0133831,18.786251 L 1,549.28229 c 0,11.67633 6.6233631,17.78627 18.856906,17.78627 l 504.813694,0 c 12.05306,0 18.85693,-5.20253 18.85693,-17.78627 l 0.0134,-530.496039 C 543.54093,8.551936 537.45884,1 524.68404,1 L 19.870319,1 z"
     id="path1945"
     style="color:#000000;fill:#f9f9f9;fill-opacity:1;fill-rule:nonzero;stroke:#000000;stroke-width:2;stroke-linecap:round;stroke-linejoin:miter;stroke-miterlimit:4;stroke-opacity:1;stroke-dasharray:none;stroke-dashoffset:0;marker:none;visibility:visible;display:inline;overflow:visible"
     inkscape:connector-curvature="0" />
  <path
     d="m 20.017795,11.646653 c -4.850315,0 -8.769243,4.014041 -8.769243,9.362611 l -0.01288,527.641676 c 0,5.68157 0.493783,7.91909 9.491038,7.91909 l 505.44495,0 c 5.21097,0 7.32572,-2.95577 7.32572,-7.55819 l 0.0128,-529.085261 c 0,-4.782685 -2.11785,-8.279926 -8.04742,-8.279926 l -505.445011,0 z"
     id="path4803"
     style="color:#000000;fill:#154889;fill-opacity:1;fill-rule:nonzero;stroke:none;stroke-width:0.96264552999999997;marker:none;visibility:visible;display:inline;overflow:visible"
     inkscape:connector-curvature="0" />
  <path
     d="m 133.00748,37.102432 0.039,71.049918 369.15442,0.039 0,-71.121606 -369.19338,0.03273 z"
     id="path1956"
     style="color:#000000;fill:#f0c900;fill-opacity:1;fill-rule:nonzero;stroke:none;stroke-width:1;marker:none;visibility:visible;display:inline;overflow:visible"
     inkscape:connector-curvature="0" />
  <path
     d="m 237.34682,91.457087 0,-37.704866 5.71913,0 0,32.322156 18.39956,0 0,5.38271 -24.11869,0 z m 43.99586,0 0,-2.38081 -0.1294,0 c -1.0869,1.79423 -3.2952,2.69135 -6.62487,2.69135 -3.00191,0 -5.33097,-0.78066 -6.98718,-2.34199 -1.65622,-1.56134 -2.48433,-3.51515 -2.48433,-5.86147 0,-2.122023 0.73322,-3.976638 2.19967,-5.563861 1.46644,-1.5872 3.64885,-2.380804 6.54724,-2.380812 l 7.47887,0 0,-2.794874 c -2e-5,-2.294533 -1.83739,-3.441808 -5.51211,-3.44183 -2.55335,2.2e-5 -4.2527,0.681485 -5.09805,2.044394 l -4.24406,-3.208923 c 1.88049,-2.622325 4.89964,-3.933496 9.05744,-3.933522 3.31243,2.6e-5 6.00378,0.646988 8.07408,1.940883 2.07025,1.293942 3.10539,3.597122 3.10541,6.909539 l 0,18.321926 -5.38271,0 z m 0,-9.419749 0,-1.966755 -6.46961,0 c -3.12267,7e-6 -4.68401,1.078277 -4.684,3.234802 -1e-5,0.914382 0.39249,1.707982 1.17747,2.380812 0.78497,0.67285 2.09183,1.00927 3.92058,1.00926 2.24279,10e-6 3.81274,-0.25016 4.70987,-0.75048 0.89711,-0.5003 1.34567,-1.80285 1.34569,-3.907639 l 0,0 z m 13.25229,9.419749 0,-26.861807 5.40858,0 0,2.872503 0.10352,0 c 1.67346,-2.122003 4.00252,-3.183018 6.98717,-3.183044 2.08751,2.6e-5 4.10172,0.79363 6.04261,2.380815 1.94087,1.587233 2.9113,3.899038 2.91133,6.935417 l 0,17.856116 -5.40859,0 0,-15.992868 c -2e-5,-1.811473 -0.50465,-3.22616 -1.51389,-4.244061 -1.00927,-1.017863 -2.26438,-1.526805 -3.76531,-1.526826 -1.55272,2.1e-5 -2.8337,0.508963 -3.84294,1.526826 -1.00927,1.017901 -1.5139,2.432588 -1.5139,4.244061 l 0,15.992868 -5.40858,0 z m 44.40991,-0.0259 0,-2.76899 c -1.88051,2.07027 -4.19231,3.10541 -6.93541,3.10541 -1.75975,0 -3.23051,-0.34936 -4.41228,-1.04808 -1.18178,-0.69871 -2.0746,-1.43625 -2.67841,-2.2126 -0.77637,-1.00063 -1.30687,-2.06165 -1.59153,-3.18305 -0.28467,-1.12139 -0.427,-3.545333 -0.42699,-7.271838 -1e-5,-3.726474 0.14232,-6.150417 0.42699,-7.271838 0.28466,-1.121373 0.81516,-2.191013 1.59153,-3.208923 0.60381,-0.759077 1.49663,-1.496608 2.67841,-2.212606 1.18177,-0.715943 2.65253,-1.073927 4.41228,-1.073953 2.62232,2.6e-5 4.93413,1.061041 6.93541,3.183044 l 0,-2.872503 5.40859,0 0,26.240717 c -2e-5,4.03704 -1.17749,7.01306 -3.5324,8.92807 -2.35496,1.914993 -5.05925,2.872493 -8.1129,2.872493 -1.72523,0 -3.41595,-0.41406 -5.07216,-1.24215 -1.65622,-0.82812 -3.07954,-1.915023 -4.26994,-3.260693 l 4.1923,-3.33831 c 0.65558,0.65558 1.43624,1.22491 2.342,1.70797 0.90573,0.48306 1.87618,0.72459 2.91132,0.7246 1.79423,-1e-5 3.26498,-0.50032 4.41227,-1.50095 1.14726,-1.00064 1.7209,-2.43258 1.72092,-4.29582 l 0,0 z M 328.36885,78.052059 c -1e-5,2.156548 0.056,3.588488 0.16821,4.295822 0.11213,0.707348 0.40973,1.362935 0.8928,1.966766 0.36229,0.48307 0.89711,0.94887 1.60446,1.39743 0.70734,0.44856 1.60445,0.67284 2.69136,0.67284 1.05238,0 1.92793,-0.22428 2.62666,-0.67284 0.6987,-0.44856 1.23784,-0.91436 1.61741,-1.39743 0.46579,-0.603831 0.75476,-1.259418 0.86692,-1.966766 0.11212,-0.707334 0.16819,-2.139274 0.16821,-4.295822 -2e-5,-2.156517 -0.0561,-3.588457 -0.16821,-4.295813 -0.11216,-0.707328 -0.40113,-1.371541 -0.86692,-1.992641 -0.37957,-0.465795 -0.91871,-0.92729 -1.61741,-1.384498 -0.69873,-0.457165 -1.57428,-0.685754 -2.62666,-0.685775 -1.08691,2.1e-5 -1.98402,0.22861 -2.69136,0.685775 -0.70735,0.457208 -1.24217,0.918703 -1.60446,1.384498 -0.48307,0.6211 -0.78067,1.285313 -0.8928,1.992641 -0.11216,0.707356 -0.16822,2.139296 -0.16821,4.295813 l 0,0 z m 44.74633,2.018524 -16.71746,0 c -10e-6,2.208293 0.5995,3.864513 1.79855,4.968654 1.19902,1.10415 2.73016,1.65623 4.59342,1.65622 2.22553,10e-6 4.19229,-0.86261 5.90028,-2.58784 l 3.90764,3.33831 c -1.32845,1.55271 -2.82508,2.66117 -4.4899,3.32538 -1.66487,0.66422 -3.40303,0.99632 -5.2145,0.99632 -2.76039,0 -5.43448,-0.8928 -8.02231,-2.67841 -2.58785,-1.78562 -3.88177,-5.438787 -3.88177,-10.95952 0,-5.227424 1.19472,-8.841775 3.58416,-10.843061 2.38943,-2.001237 4.8867,-3.001871 7.4918,-3.001897 2.95013,2.6e-5 5.52935,1.022223 7.73765,3.066591 2.20827,2.044419 3.31242,4.800469 3.31244,8.268164 l 0,4.451089 z m -16.71746,-4.451089 11.33475,0 c -0.0863,-2.018501 -0.65561,-3.562581 -1.70798,-4.632242 -1.0524,-1.069623 -2.37221,-1.60444 -3.9594,-1.604462 -1.60447,2.2e-5 -2.93721,0.534839 -3.99821,1.604462 -1.06102,1.069661 -1.61741,2.613741 -1.66916,4.632242 l 0,0 z m 23.26724,15.837593 0,-26.861807 5.4086,0 0,2.872503 0.10351,0 c 1.67347,-2.122003 4.00252,-3.183018 6.98718,-3.183044 2.0875,2.6e-5 4.10171,0.79363 6.04261,2.380815 1.94086,1.587233 2.9113,3.899038 2.91132,6.935417 l 0,17.856116 -5.40859,0 0,-15.992868 c -2e-5,-1.811473 -0.50465,-3.22616 -1.51389,-4.244061 -1.00927,-1.017863 -2.26437,-1.526805 -3.76531,-1.526826 -1.55271,2.1e-5 -2.8337,0.508963 -3.84294,1.526826 -1.00927,1.017901 -1.5139,2.432588 -1.51389,4.244061 l 0,15.992868 -5.4086,0 z m 30.17678,0 0,-22.721259 -2.71723,0 0,-4.140548 2.71723,0 0,-3.545344 c 0,-2.501551 0.69009,-4.343226 2.07028,-5.525045 1.38018,-1.181746 3.12265,-1.772636 5.22744,-1.77267 l 3.49359,0 0,5.072171 -3.05366,0 c -1.56996,3e-5 -2.35494,0.741878 -2.35493,2.225544 l 0,3.545344 5.40859,0 0,4.140548 -5.40859,0 0,22.721259 -5.38272,0 z m 35.50774,-11.386504 -16.71746,0 c -1e-5,2.208293 0.59953,3.864513 1.79853,4.968654 1.19904,1.10415 2.73017,1.65623 4.59345,1.65622 2.22551,10e-6 4.19225,-0.86261 5.90025,-2.58784 l 3.90768,3.33831 c -1.32847,1.55271 -2.82512,2.66117 -4.48991,3.32538 -1.66486,0.66422 -3.40305,0.99632 -5.21451,0.99632 -2.76041,0 -5.43447,-0.8928 -8.02231,-2.67841 -2.58786,-1.78562 -3.88178,-5.438787 -3.88178,-10.95952 0,-5.227424 1.19473,-8.841775 3.58417,-10.843061 2.38944,-2.001237 4.88672,-3.001871 7.49179,-3.001897 2.95013,2.6e-5 5.52933,1.022223 7.73766,3.066591 2.20825,2.044419 3.3124,4.800469 3.31244,8.268164 l 0,4.451089 z m -16.71746,-4.451089 11.33476,0 c -0.0863,-2.018501 -0.65562,-3.562581 -1.70799,-4.632242 -1.05241,-1.069623 -2.37218,-1.60444 -3.95941,-1.604462 -1.60444,2.2e-5 -2.93719,0.534839 -3.99821,1.604462 -1.06102,1.069661 -1.61741,2.613741 -1.66915,4.632242 l 0,0 z m 23.26721,9.342103 0,-31.209376 5.40861,0 0,30.769446 c 0,1.24217 0.67284,1.86325 2.01853,1.86325 l 1.83737,0 0,5.07217 -2.38084,0 c -1.96675,0 -3.60571,-0.47875 -4.91687,-1.43625 -1.31122,-0.9575 -1.9668,-2.64391 -1.9668,-5.05924 l 0,0 z m 30.56496,6.49549 0,-2.79487 c -1.88049,2.07027 -4.19229,3.10541 -6.9354,3.10541 -1.65625,0 -3.07954,-0.32348 -4.26993,-0.97044 -1.19044,-0.64695 -2.16517,-1.47938 -2.92426,-2.49727 -0.75914,-0.94887 -1.26809,-2.07458 -1.52685,-3.37713 -0.25879,-1.302539 -0.38817,-3.610034 -0.38817,-6.922481 0,-3.277923 0.12938,-5.559533 0.38817,-6.844846 0.25876,-1.285273 0.76771,-2.410985 1.52685,-3.377136 0.75909,-1.000604 1.73382,-1.833029 2.92426,-2.497267 1.19039,-0.664184 2.61368,-0.996292 4.26993,-0.996318 1.38017,2.6e-5 2.63095,0.293317 3.75235,0.879864 1.1214,0.586604 2.18242,1.354332 3.18305,2.30318 l 0,-13.715562 5.40861,0 0,37.704866 -5.40861,0 z m -5.27918,-21.763755 c -2.55334,2.1e-5 -4.0845,0.87126 -4.59345,2.613721 -0.50895,1.742492 -0.76342,3.64025 -0.76338,5.693253 -4e-5,2.104787 0.25443,4.028414 0.76338,5.770889 0.50895,1.742482 2.04011,2.613722 4.59345,2.613722 2.50157,0 4.00682,-0.90574 4.51577,-2.717236 0.50894,-1.81148 0.76341,-3.700605 0.76341,-5.667375 0,-1.914987 -0.25447,-3.778235 -0.76341,-5.589743 -0.50895,-1.811466 -2.0142,-2.71721 -4.51577,-2.717231 l 0,0 z"
     id="text2845"
     style="font-size:123.75375366px;font-style:normal;font-variant:normal;font-weight:normal;font-stretch:normal;text-indent:0;text-align:center;text-decoration:none;line-height:100%;letter-spacing:2px;word-spacing:normal;text-transform:none;direction:ltr;block-progression:tb;writing-mode:lr-tb;text-anchor:middle;color:#000000;fill:#000000;fill-opacity:1;fill-rule:nonzero;stroke:none;stroke-width:1;marker:none;visibility:visible;display:inline;overflow:visible;font-family:DIN 1451 Mittelschrift"
     inkscape:connector-curvature="0" />
  <path
     d="m 154.54527,54.050941 c -2.49705,-3e-6 -4.25585,2.573551 -4.25585,4.670732 l -0.0134,27.582744 c 0,2.09718 1.7722,4.67073 4.26924,4.67073 l 57.94918,0.0268 c 2.49704,1e-5 4.25585,-2.57355 4.25585,-4.67073 l 0.0134,-27.582747 c 0,-2.097182 -1.7722,-4.670732 -4.26924,-4.670732 l -57.94918,-0.02677 z"
     id="path2849"
     style="color:#000000;fill:none;stroke:#000000;stroke-width:2.56957126;stroke-linecap:round;stroke-linejoin:miter;stroke-miterlimit:4;stroke-opacity:1;stroke-dasharray:none;stroke-dashoffset:0;marker:none;visibility:visible;display:inline;overflow:visible"
     inkscape:connector-curvature="0" />
  <path
     d="m 179.95402,66.707083 c -1e-5,1.155369 0.36174,2.030299 1.08525,2.624787 0.72349,0.594517 1.53393,0.89177 2.4313,0.891753 0.89735,1.7e-5 1.70778,-0.297236 2.43129,-0.891753 0.72349,-0.594488 1.08523,-1.469418 1.08524,-2.624787 -1e-5,-1.144119 -0.36175,-2.016245 -1.08524,-2.616376 -0.72351,-0.600089 -1.53394,-0.900147 -2.43129,-0.900168 -0.89737,2.1e-5 -1.70781,0.300079 -2.4313,0.900168 -0.72351,0.600131 -1.08526,1.472257 -1.08525,2.616376 l 0,0 z m -3.954,10.54962 c 0,-2.389213 0.96466,-4.228809 2.89399,-5.518781 -0.72911,-0.650572 -1.3208,-1.371269 -1.7751,-2.162084 -0.45429,-0.790786 -0.68143,-1.724602 -0.68143,-2.801453 0,-1.974181 0.67583,-3.651126 2.02749,-5.030844 1.35164,-1.379672 3.02017,-2.06952 5.0056,-2.069542 1.9854,2.2e-5 3.65393,0.68987 5.00559,2.069542 1.35165,1.379718 2.02748,3.056663 2.02749,5.030844 -1e-5,1.076851 -0.22996,2.010667 -0.68985,2.801453 -0.45991,0.790815 -1.0432,1.511512 -1.74986,2.162084 1.9181,1.301188 2.87716,3.140785 2.87717,5.518781 -1e-5,2.176112 -0.73753,3.945603 -2.21256,5.308471 -1.47505,1.362869 -3.22771,2.044303 -5.25798,2.044303 -2.04151,0 -3.79698,-0.681434 -5.26641,-2.044303 -1.46943,-1.362868 -2.20414,-3.132359 -2.20414,-5.308471 l 0,0 z m 3.51654,-0.03365 c 0,1.121712 0.3954,2.049918 1.1862,2.784633 0.7908,0.734723 1.71339,1.102073 2.76781,1.102073 1.04317,0 1.96577,-0.36735 2.7678,-1.102073 0.80201,-0.734715 1.20301,-1.662921 1.20303,-2.784633 -2e-5,-1.121698 -0.40102,-2.052704 -1.20303,-2.793042 -0.80203,-0.740316 -1.72463,-1.110474 -2.7678,-1.110489 -1.05442,1.5e-5 -1.97701,0.370173 -2.76781,1.110489 -0.7908,0.740338 -1.1862,1.671344 -1.1862,2.793042 l 0,0 z"
     id="text3742"
     style="font-size:80.46185303px;font-style:normal;font-variant:normal;font-weight:normal;font-stretch:normal;text-indent:0;text-align:center;text-decoration:none;line-height:100%;letter-spacing:normal;word-spacing:normal;text-transform:none;direction:ltr;block-progression:tb;writing-mode:lr-tb;text-anchor:middle;color:#000000;fill:#000000;fill-opacity:1;fill-rule:nonzero;stroke:none;stroke-width:1;marker:none;visibility:visible;display:inline;overflow:visible;font-family:DIN 1451 Mittelschrift"
     inkscape:connector-curvature="0" />
  <path
     d="m 43.35066,238.07904 0,-36.79858 12.880765,0 c 5.034419,4e-5 8.772366,2.06265 11.21384,6.18782 0.909204,1.56593 1.464844,3.0308 1.666923,4.39461 0.202025,1.36387 0.303047,3.9737 0.303077,7.82949 -3e-5,4.14206 -0.138941,6.90763 -0.416728,8.29672 -0.277852,1.38912 -0.829283,2.72349 -1.654295,4.00315 -1.09447,1.71743 -2.597224,3.16126 -4.50827,4.33147 -1.911089,1.17021 -4.230465,1.75532 -6.958138,1.75532 l -12.527174,0 z m 5.581666,-31.51999 0,26.26666 6.692945,0 c 3.064424,0 5.337497,-1.06918 6.819227,-3.20757 0.606132,-0.92605 0.989187,-1.92368 1.149168,-2.99288 0.159934,-1.06917 0.239912,-3.31278 0.239934,-6.73083 -2.2e-5,-3.30015 -0.08842,-5.58164 -0.265189,-6.84448 -0.17682,-1.26279 -0.635643,-2.39934 -1.376476,-3.40961 -1.532244,-2.05417 -3.721129,-3.08126 -6.566664,-3.08129 l -6.692945,0 z m 27.879779,22.73076 0,-17.42692 5.278589,0 0,15.63371 c -8e-6,1.7848 0.492488,3.16969 1.477494,4.15468 0.984991,0.98501 2.23518,1.4775 3.750576,1.4775 1.464855,0 2.68979,-0.49249 3.674803,-1.4775 0.984984,-0.98499 1.477487,-2.36988 1.477502,-4.15468 l 0,-15.63371 5.278584,0 0,26.21615 -5.278584,0 0,-2.77821 -0.101028,0 c -1.633264,2.05419 -3.889499,3.08128 -6.768714,3.08128 -2.071033,0 -4.053662,-0.77032 -5.947878,-2.31096 -1.894239,-1.54063 -2.841351,-3.80108 -2.841344,-6.78134 l 0,0 z m 11.946274,-21.4932 0,-5.58166 5.581666,0 0,5.58166 -5.581666,0 z m -9.117562,0 0,-5.58166 5.606922,0 0,5.58166 -5.606922,0 z m 23.333623,25.91307 3.68743,-3.63692 c 2.28991,2.2394 5.04285,3.3591 8.25885,3.3591 1.49853,0 2.73609,-0.28202 3.71269,-0.84609 0.97656,-0.56405 1.46485,-1.40173 1.46487,-2.51301 -2e-5,-1.53221 -1.06921,-2.39093 -3.20757,-2.57616 l -4.64718,-0.42935 c -2.17205,-0.16837 -3.97367,-0.88397 -5.40486,-2.14679 -1.43121,-1.26281 -2.1468,-3.02234 -2.1468,-5.27859 0,-2.66032 0.93449,-4.67241 2.80347,-6.03629 1.86896,-1.36381 4.19254,-2.04574 6.97076,-2.04576 2.2899,2e-5 4.25148,0.32415 5.88474,0.97237 1.63323,0.64827 3.0981,1.51119 4.39461,2.58878 l -3.25807,3.83898 c -1.04395,-0.70716 -2.12156,-1.28807 -3.23282,-1.7427 -1.11129,-0.45459 -2.37412,-0.6819 -3.78846,-0.68192 -1.68377,2e-5 -2.85398,0.29889 -3.51064,0.8966 -0.65667,0.59776 -0.98501,1.35124 -0.985,2.26045 -1e-5,0.5725 0.24414,1.10288 0.73244,1.59115 0.48828,0.48831 1.3975,0.78297 2.72769,0.88398 l 4.3441,0.30307 c 2.71083,0.18523 4.65557,1.0229 5.83423,2.51301 1.17861,1.49015 1.76792,3.27072 1.76794,5.34173 -2e-5,2.57616 -1.05237,4.563 -3.15704,5.96051 -2.10472,1.39752 -4.67246,2.09628 -7.7032,2.09628 -4.36095,0 -8.20834,-1.55747 -11.54218,-4.67243 l 0,0 z m 26.13708,0 3.68744,-3.63692 c 2.2899,2.2394 5.04285,3.3591 8.25884,3.3591 1.49853,0 2.7361,-0.28202 3.71269,-0.84609 0.97656,-0.56405 1.46485,-1.40173 1.46487,-2.51301 -2e-5,-1.53221 -1.06921,-2.39093 -3.20756,-2.57616 l -4.64718,-0.42935 c -2.17206,-0.16837 -3.97368,-0.88397 -5.40487,-2.14679 -1.4312,-1.26281 -2.1468,-3.02234 -2.1468,-5.27859 0,-2.66032 0.93449,-4.67241 2.80347,-6.03629 1.86897,-1.36381 4.19255,-2.04574 6.97077,-2.04576 2.2899,2e-5 4.25147,0.32415 5.88473,0.97237 1.63323,0.64827 3.0981,1.51119 4.39461,2.58878 l -3.25807,3.83898 c -1.04395,-0.70716 -2.12155,-1.28807 -3.23282,-1.7427 -1.11129,-0.45459 -2.37411,-0.6819 -3.78845,-0.68192 -1.68378,2e-5 -2.85399,0.29889 -3.51065,0.8966 -0.65667,0.59776 -0.98501,1.35124 -0.98499,2.26045 -2e-5,0.5725 0.24413,1.10288 0.73243,1.59115 0.48828,0.48831 1.39751,0.78297 2.72769,0.88398 l 4.3441,0.30307 c 2.71084,0.18523 4.65558,1.0229 5.83423,2.51301 1.17861,1.49015 1.76793,3.27072 1.76795,5.34173 -2e-5,2.57616 -1.05238,4.563 -3.15705,5.96051 -2.10472,1.39752 -4.67245,2.09628 -7.7032,2.09628 -4.36095,0 -8.20834,-1.55747 -11.54218,-4.67243 l 0,0 z m 49.34772,-6.74345 -16.31564,0 c -1e-5,2.15521 0.5851,3.77162 1.75532,4.84922 1.17021,1.07761 2.66454,1.61641 4.48301,1.61641 2.17204,0 4.09153,-0.84187 5.75846,-2.52564 l 3.81372,3.25807 c -1.29652,1.51539 -2.75718,2.59721 -4.38199,3.24545 -1.62484,0.64825 -3.32123,0.97237 -5.08916,0.97237 -2.69403,0 -5.30386,-0.87135 -7.82948,-2.61403 -2.52565,-1.74269 -3.78847,-5.30805 -3.78846,-10.69609 -10e-6,-5.10177 1.16599,-8.62925 3.49801,-10.58244 2.332,-1.95313 4.76924,-2.92971 7.31173,-2.92973 2.87921,2e-5 5.39643,0.99765 7.55166,2.99288 2.15519,1.99528 3.2328,4.68508 3.23282,8.06943 l 0,4.3441 z m -16.31564,-4.3441 11.0623,0 c -0.0842,-1.96999 -0.63984,-3.47695 -1.66691,-4.52091 -1.02711,-1.04391 -2.31519,-1.56587 -3.86423,-1.56589 -1.56592,2e-5 -2.86662,0.52198 -3.90212,1.56589 -1.03552,1.04396 -1.57854,2.55092 -1.62904,4.52091 l 0,0 z m 23.15682,9.11755 0,-30.45922 5.27859,0 0,30.02987 c -1e-5,1.21231 0.65666,1.81845 1.97,1.81845 l 1.79321,0 0,4.95026 -2.32359,0 c -1.9195,0 -3.51907,-0.46725 -4.79872,-1.40174 -1.27966,-0.93448 -1.91949,-2.58035 -1.91949,-4.93762 l 0,0 z m 30.27914,6.33936 0,-2.72769 c -1.83531,2.02051 -4.09155,3.03076 -6.76871,3.03076 -1.61642,0 -3.00552,-0.3157 -4.1673,-0.94711 -1.16181,-0.6314 -2.11313,-1.44382 -2.85398,-2.43725 -0.74086,-0.92606 -1.23757,-2.0247 -1.49012,-3.29595 -0.25257,-1.27124 -0.37885,-3.52326 -0.37885,-6.75609 0,-3.19913 0.12628,-5.4259 0.37885,-6.68032 0.25255,-1.25438 0.74926,-2.35303 1.49012,-3.29596 0.74085,-0.97656 1.69217,-1.78897 2.85398,-2.43724 1.16178,-0.64822 2.55088,-0.97235 4.1673,-0.97237 1.34699,2e-5 2.56772,0.28626 3.66218,0.85872 1.09443,0.5725 2.12994,1.32177 3.10653,2.24782 l 0,-13.3859 5.27859,0 0,36.79858 -5.27859,0 z m -5.15229,-21.24064 c -2.49199,3e-5 -3.98632,0.85032 -4.48302,2.5509 -0.49672,1.70062 -0.74507,3.55275 -0.74506,5.55641 -10e-6,2.05419 0.24834,3.93159 0.74506,5.63218 0.4967,1.7006 1.99103,2.55089 4.48302,2.55089 2.44143,0 3.9105,-0.88397 4.40724,-2.65192 0.49669,-1.76793 0.74504,-3.61165 0.74505,-5.53115 -10e-6,-1.86896 -0.24836,-3.68742 -0.74505,-5.45538 -0.49674,-1.76793 -1.96581,-2.6519 -4.40724,-2.65193 l 0,0 z m 16.36284,8.10731 c 0,-2.81186 0.21889,-4.90815 0.65667,-6.28884 0.43777,-1.38067 1.16179,-2.62665 2.17205,-3.73795 0.72401,-0.79135 1.72164,-1.54903 2.99288,-2.27308 1.27123,-0.72398 2.93394,-1.086 4.98815,-1.08602 2.02049,2e-5 3.67058,0.36204 4.95025,1.08602 1.27964,0.72405 2.28147,1.48173 3.00551,2.27308 1.01024,1.1113 1.73425,2.35728 2.17205,3.73795 0.43776,1.38069 0.65664,3.47698 0.65667,6.28884 -3e-5,2.86241 -0.21891,4.98394 -0.65667,6.36462 -0.4378,1.38068 -1.16181,2.62666 -2.17205,3.73794 -0.72404,0.80821 -1.72587,1.5659 -3.00551,2.27308 -1.27967,0.70717 -2.92976,1.06076 -4.95025,1.06076 -2.05421,0 -3.71692,-0.35359 -4.98815,-1.06076 -1.27124,-0.70718 -2.26887,-1.46487 -2.99288,-2.27308 -1.01026,-1.11128 -1.73428,-2.35726 -2.17205,-3.73794 -0.43778,-1.38068 -0.65667,-3.50221 -0.65667,-6.36462 l 0,0 z m 16.34089,0.0505 c -1e-5,-1.90263 -0.0968,-3.24122 -0.29044,-4.01577 -0.19365,-0.77451 -0.52619,-1.51536 -0.99763,-2.22256 -0.92608,-1.27963 -2.34044,-1.91946 -4.24307,-1.91949 -1.93634,3e-5 -3.3507,0.63986 -4.24308,1.91949 -0.50514,0.7072 -0.8461,1.44805 -1.02289,2.22256 -0.1768,0.77455 -0.2652,2.0963 -0.26519,3.96526 -1e-5,1.9195 0.0884,3.27071 0.26519,4.05365 0.17679,0.78296 0.51775,1.5196 1.02289,2.20994 0.89238,1.27966 2.30674,1.91948 4.24308,1.91948 1.90263,0 3.31699,-0.63982 4.24307,-1.91948 0.47144,-0.69034 0.80398,-1.42277 0.99763,-2.19731 0.19361,-0.77452 0.29043,-2.11311 0.29044,-4.01577 l 0,0 z m 12.09454,13.08282 0,-26.21615 5.27859,0 0,2.80347 0.10102,0 c 1.63324,-2.07101 3.90631,-3.10652 6.81923,-3.10654 1.91946,2e-5 3.74634,0.67353 5.48064,2.02051 l -3.81372,4.54615 c -1.14498,-0.85869 -2.30677,-1.28805 -3.48539,-1.28808 -1.29651,3e-5 -2.47092,0.43359 -3.52326,1.30071 -1.05236,0.86715 -1.57854,2.26047 -1.57852,4.17993 l 0,15.76 -5.27859,0 z m 22.22232,0 0,-22.17512 -2.65192,0 0,-4.04103 2.65192,0 0,-3.46012 c 0,-2.44142 0.6735,-4.23883 2.02051,-5.39224 1.347,-1.15334 3.0476,-1.73003 5.1018,-1.73007 l 3.40961,0 0,4.95026 -2.98025,0 c -1.53224,3e-5 -2.29835,0.72405 -2.29834,2.17205 l 0,3.46012 5.27859,0 0,4.04103 -5.27859,0 0,22.17512 -5.25333,0 z"
     id="text3746"
     style="font-size:120.77915192px;font-style:normal;font-variant:normal;font-weight:normal;font-stretch:normal;text-indent:0;text-align:center;text-decoration:none;line-height:100%;letter-spacing:3px;word-spacing:normal;text-transform:none;direction:ltr;block-progression:tb;writing-mode:lr-tb;text-anchor:middle;color:#000000;fill:#ffffff;fill-opacity:1;fill-rule:nonzero;stroke:none;stroke-width:1;marker:none;visibility:visible;display:inline;overflow:visible;font-family:DIN 1451 Mittelschrift"
     inkscape:connector-curvature="0" />
  <path
     d="m 406.48157,341.72825 0,-36.79858 5.58167,0 0,18.96756 0.12628,0 15.12858,-18.96756 6.64244,0 -11.79474,14.52243 13.03229,22.27615 -6.61717,0 -10.05205,-17.98257 -6.46563,6.76872 0,11.21385 -5.58167,0 z m 31.7451,-13.13333 c 0,-2.81187 0.21888,-4.90815 0.65665,-6.28885 0.43777,-1.38066 1.1618,-2.62664 2.17206,-3.73795 0.72402,-0.79134 1.72166,-1.54903 2.99291,-2.27307 1.27121,-0.724 2.93394,-1.086 4.98814,-1.08602 2.02049,2e-5 3.67054,0.36202 4.95024,1.08602 1.27964,0.72404 2.28147,1.48173 3.00549,2.27307 1.01023,1.11131 1.73425,2.35729 2.17207,3.73795 0.43776,1.3807 0.65665,3.47698 0.65665,6.28885 0,2.8624 -0.21889,4.98393 -0.65665,6.36461 -0.43782,1.38068 -1.16184,2.62667 -2.17207,3.73795 -0.72402,0.8082 -1.72585,1.5659 -3.00549,2.27307 -1.2797,0.70718 -2.92975,1.06077 -4.95024,1.06077 -2.0542,0 -3.71693,-0.35359 -4.98814,-1.06077 -1.27125,-0.70717 -2.26889,-1.46487 -2.99291,-2.27307 -1.01026,-1.11128 -1.73429,-2.35727 -2.17206,-3.73795 -0.43777,-1.38068 -0.65665,-3.50221 -0.65665,-6.36461 l 0,0 z m 16.34089,0.0505 c 0,-1.90264 -0.0968,-3.24122 -0.29045,-4.01577 -0.19365,-0.77451 -0.5262,-1.51537 -0.99764,-2.22256 -0.92607,-1.27964 -2.34044,-1.91947 -4.24304,-1.91949 -1.93635,2e-5 -3.35072,0.63985 -4.24309,1.91949 -0.50514,0.70719 -0.84612,1.44805 -1.0229,2.22256 -0.17679,0.77455 -0.26519,2.0963 -0.26519,3.96526 0,1.9195 0.0884,3.27071 0.26519,4.05365 0.17678,0.78296 0.51776,1.5196 1.0229,2.20993 0.89237,1.27966 2.30674,1.9195 4.24309,1.91949 1.9026,10e-6 3.31697,-0.63983 4.24304,-1.91949 0.47144,-0.69033 0.80399,-1.42276 0.99764,-2.1973 0.19362,-0.77452 0.29045,-2.11311 0.29045,-4.01577 l 0,0 z m -3.78845,-17.19961 0,-5.58167 5.58167,0 0,5.58167 -5.58167,0 z m -9.0923,0 0,-5.58167 5.58167,0 0,5.58167 -5.58167,0 z m 24.54703,23.94307 0,-30.45922 5.27859,0 0,30.02986 c 0,1.21231 0.65665,1.81847 1.97,1.81846 l 1.79317,0 0,4.95026 -2.32357,0 c -1.91951,0 -3.51907,-0.46725 -4.79872,-1.40174 -1.27965,-0.93448 -1.91947,-2.58035 -1.91947,-4.93762 l 0,0 z m 14.19188,6.33936 0,-26.21614 5.27858,0 0,2.80345 0.10102,0 c 1.63327,-2.071 3.90635,-3.10651 6.81926,-3.10653 2.03733,2e-5 4.00309,0.77455 5.89734,2.32358 1.89424,1.54908 2.84135,3.80532 2.84135,6.76872 l 0,17.42692 -5.27859,0 0,-15.60846 c 0,-1.76793 -0.4925,-3.14861 -1.4775,-4.14205 -0.98501,-0.9934 -2.20992,-1.49011 -3.67479,-1.49013 -1.5154,2e-5 -2.76559,0.49673 -3.75059,1.49013 -0.985,0.99344 -1.4775,2.37412 -1.4775,4.14205 l 0,15.60846 -5.27858,0 z"
     id="text3750"
     style="font-size:120.77915192px;font-style:normal;font-variant:normal;font-weight:normal;font-stretch:normal;text-indent:0;text-align:center;text-decoration:none;line-height:100%;letter-spacing:2px;word-spacing:normal;text-transform:none;direction:ltr;block-progression:tb;writing-mode:lr-tb;text-anchor:middle;color:#000000;fill:#ffffff;fill-opacity:1;fill-rule:nonzero;stroke:none;stroke-width:1;marker:none;visibility:visible;display:inline;overflow:visible;font-family:DIN 1451 Mittelschrift"
     inkscape:connector-curvature="0" />
  <g
     transform="translate(93.470724,-15.765519)"
     id="g2847">
    <g
       transform="matrix(0.369874,0,0,0.369874,-379.5538,-55.8057)"
       id="g3790"
       style="fill-opacity:1">
      <rect
         width="199.5"
         height="119.5"
         rx="10"
         ry="10"
         x="1345.4204"
         y="896.2486"
         id="rect3792"
         style="fill:#ffffff;fill-opacity:1;stroke:#000000;stroke-width:0.25" />
      <path
         d="m 1352.1705,955.99862 0,-38 c 0,-1.33333 1,-2.33333 3,-3 l 88,-13.9 c 0,-0.0667 0.6667,-0.1 2,-0.1 1.3333,0 2,0.0333 2,0.1 l 88,13.9 c 2,0.66667 3,1.66667 3,3 l 0,76 c 0,1.3333 -1,2.3333 -3,3 l -88,13.89998 c 0,0.067 -0.6667,0.1 -2,0.1 -1.3333,0 -2,-0.033 -2,-0.1 l -88,-13.89998 c -2,-0.6667 -3,-1.6667 -3,-3"
         id="path3794"
         style="fill:#154889;fill-opacity:1;stroke:none"
         inkscape:connector-curvature="0" />
    </g>
    <g
       id="text3796"
       style="font-size:34.68710327px;font-style:normal;font-variant:normal;font-weight:normal;font-stretch:normal;text-indent:0;text-align:center;text-decoration:none;line-height:100%;letter-spacing:normal;word-spacing:normal;text-transform:none;direction:ltr;block-progression:tb;writing-mode:lr-tb;text-anchor:middle;color:#000000;fill:#ffffff;fill-opacity:1;fill-rule:nonzero;stroke:none;stroke-width:1;marker:none;visibility:visible;display:inline;overflow:visible;font-family:DIN 1451 Mittelschrift">
      <path
         d="m 139.40105,298.61973 0,-13.34641 13.14316,0 0,3.53985 -9.80656,0 0,5.57229 c 1.12913,-0.90329 2.44458,-1.35495 3.94634,-1.35496 0.93717,10e-6 1.79249,0.18068 2.56596,0.54198 0.77345,0.36134 1.38601,0.78477 1.83767,1.27028 0.67747,0.73396 1.17147,1.53282 1.482,2.3966 0.31049,0.8638 0.46575,2.31756 0.46577,4.36129 -2e-5,1.65984 -0.1214,2.89342 -0.36415,3.70075 -0.24278,0.80734 -0.62951,1.54974 -1.16019,2.22722 -0.50813,0.64361 -1.21948,1.24205 -2.13407,1.79533 -0.91461,0.55328 -1.98729,0.82992 -3.21804,0.82992 -1.59209,0 -3.12772,-0.49118 -4.60688,-1.47353 -1.47918,-0.98234 -2.34861,-2.62524 -2.60831,-4.92868 l 3.53985,0 c 0.41777,1.91954 1.59772,2.8793 3.53984,2.8793 1.72757,0 2.73815,-0.5928 3.03174,-1.77839 0.29356,-1.18559 0.44035,-2.35989 0.44036,-3.52291 -1e-5,-1.36625 -0.23149,-2.50103 -0.69442,-3.40435 -0.46296,-0.9033 -1.42272,-1.35495 -2.8793,-1.35497 -1.36626,2e-5 -2.42765,0.68314 -3.18417,2.04939 z"
         id="path2859"
         style="marker:none"
         inkscape:connector-curvature="0" />
      <path
         d="m 168.92235,296.75665 -6.63933,13.27866 -3.96327,0 5.21661,-10.45017 -0.0677,0 c -0.56458,0.21455 -1.19125,0.32181 -1.88002,0.3218 -1.5808,10e-6 -2.95834,-0.54762 -4.13264,-1.64289 -1.1856,-1.08396 -1.77839,-2.83412 -1.77839,-5.25049 0,-2.83412 0.75087,-4.86091 2.25263,-6.08041 1.51304,-1.23073 3.19545,-1.84611 5.04724,-1.84613 1.71628,2e-5 3.29707,0.6775 4.74238,2.03244 1.43399,1.35499 2.15099,3.19548 2.15101,5.52148 -2e-5,1.50177 -0.31618,2.87367 -0.94848,4.11571 z m -6.14815,0 c 0.98234,1e-5 1.8179,-0.32744 2.50668,-0.98235 0.68876,-0.6323 1.03315,-1.65417 1.03316,-3.06561 -1e-5,-2.7212 -1.17996,-4.08181 -3.53984,-4.08183 -0.82428,2e-5 -1.62032,0.31053 -2.38813,0.93154 -0.77911,0.63234 -1.16866,1.68243 -1.16866,3.15029 0,1.40015 0.34438,2.42202 1.03316,3.06561 0.67748,0.65491 1.51869,0.98236 2.52363,0.98235 z"
         id="path2861"
         style="marker:none"
         inkscape:connector-curvature="0" />
    </g>
  </g>
  <g
     transform="matrix(0.137396,0,0,0.137396,130.96864,247.07154)"
     id="g3811"
     style="fill-opacity:1">
    <polygon
       points="270.986,454.308 263.784,235.812 338.626,235.812 338.626,235.812 410.256,454.308 "
       id="polygon3813"
       style="fill:#ffffff;fill-opacity:1" />
    <polygon
       points="323.055,182.052 262.422,182.148 257.166,48.516 257.166,48.516 280.427,48.516 "
       id="polygon3815"
       style="fill:#ffffff;fill-opacity:1" />
    <polygon
       points="177.653,182.82 221.643,48.516 244.417,48.516 244.417,48.516 239.454,182.148 "
       id="polygon3817"
       style="fill:#ffffff;fill-opacity:1" />
    <polygon
       points="89.575,454.308 160.622,236.58 236.145,236.58 236.145,236.58 229.526,453.54 "
       id="polygon3819"
       style="fill:#ffffff;fill-opacity:1" />
    <polygon
       points="102.13,236.676 102.325,213.828 62.422,213.54 62.714,196.932 438.772,197.028 438.772,213.252 398.48,213.252 398.48,237.06 361.887,236.964 361.887,213.54 138.918,213.252 138.918,213.252 138.918,236.58 "
       id="polygon3823"
       style="fill:#ffffff;fill-opacity:1" />
  </g>
  <rect
     style="fill:#ffffff;fill-opacity:1;stroke:#000000;stroke-width:0.0924685"
     id="rect3756"
     y="363.55737"
     x="427.3479"
     ry="3.69874"
     rx="3.69874"
     height="44.199944"
     width="73.789864" />
  <path
     inkscape:connector-curvature="0"
     style="fill:#154889;fill-opacity:1;stroke:none"
     id="path3758"
     d="m 429.84457,385.65734 0,-14.05521 c 0,-0.49317 0.36988,-0.86304 1.10963,-1.10962 l 32.54891,-5.14125 c 0,-0.0247 0.24659,-0.037 0.73975,-0.037 0.49315,0 0.73974,0.0123 0.73974,0.037 l 32.54892,5.14125 c 0.73974,0.24658 1.10962,0.61645 1.10962,1.10962 l 0,28.11042 c 0,0.49316 -0.36988,0.86303 -1.10962,1.10962 l -32.54892,5.14125 c 0,0.0248 -0.24659,0.037 -0.73974,0.037 -0.49316,0 -0.73975,-0.0122 -0.73975,-0.037 l -32.54891,-5.14125 c -0.73975,-0.24659 -1.10963,-0.61646 -1.10963,-1.10962" />
  <path
     d="m 448.66671,386.48369 0,-13.34641 13.14316,0 0,3.53985 -9.80656,0 0,5.57229 c 1.12913,-0.90329 2.44458,-1.35494 3.94634,-1.35496 0.93717,2e-5 1.79249,0.18068 2.56596,0.54198 0.77345,0.36134 1.386,0.78477 1.83767,1.27028 0.67747,0.73396 1.17147,1.53282 1.482,2.3966 0.31049,0.8638 0.46575,2.31756 0.46576,4.36129 -10e-6,1.65984 -0.12139,2.89342 -0.36414,3.70075 -0.24278,0.80734 -0.62951,1.54974 -1.16019,2.22722 -0.50813,0.64361 -1.21948,1.24206 -2.13407,1.79533 -0.91461,0.55328 -1.98729,0.82992 -3.21804,0.82992 -1.59209,0 -3.12772,-0.49118 -4.60688,-1.47353 -1.47918,-0.98234 -2.34861,-2.62524 -2.60831,-4.92868 l 3.53984,0 c 0.41778,1.91954 1.59773,2.8793 3.53985,2.8793 1.72757,0 2.73815,-0.59279 3.03173,-1.77839 0.29357,-1.18559 0.44036,-2.35989 0.44037,-3.52291 -10e-6,-1.36625 -0.23149,-2.50103 -0.69442,-3.40435 -0.46296,-0.9033 -1.42272,-1.35495 -2.8793,-1.35497 -1.36627,2e-5 -2.42765,0.68315 -3.18417,2.04939 z"
     id="path2864"
     style="font-size:34.68710327px;font-style:normal;font-variant:normal;font-weight:normal;font-stretch:normal;text-indent:0;text-align:center;text-decoration:none;line-height:100%;letter-spacing:normal;word-spacing:normal;text-transform:none;direction:ltr;block-progression:tb;writing-mode:lr-tb;text-anchor:middle;color:#000000;fill:#ffffff;fill-opacity:1;fill-rule:nonzero;stroke:none;stroke-width:1;marker:none;visibility:visible;font-family:DIN 1451 Mittelschrift"
     inkscape:connector-curvature="0" />
  <path
     d="m 478.18801,384.62061 -6.63933,13.27866 -3.96327,0 5.21661,-10.45017 -0.0677,0 c -0.56457,0.21455 -1.19124,0.32182 -1.88001,0.32181 -1.5808,10e-6 -2.95834,-0.54763 -4.13264,-1.6429 -1.1856,-1.08396 -1.7784,-2.83412 -1.77839,-5.25049 -1e-5,-2.83411 0.75087,-4.86091 2.25263,-6.0804 1.51303,-1.23074 3.19545,-1.84612 5.04724,-1.84614 1.71628,2e-5 3.29707,0.6775 4.74238,2.03244 1.43399,1.35499 2.15099,3.19548 2.151,5.52149 -10e-6,1.50176 -0.31617,2.87367 -0.94847,4.1157 z m -6.14816,0 c 0.98235,2e-5 1.81791,-0.32743 2.50669,-0.98235 0.68876,-0.6323 1.03315,-1.65417 1.03316,-3.06561 -10e-6,-2.7212 -1.17996,-4.08181 -3.53985,-4.08183 -0.82427,2e-5 -1.62031,0.31054 -2.38812,0.93154 -0.77911,0.63234 -1.16866,1.68243 -1.16866,3.15029 0,1.40015 0.34438,2.42202 1.03316,3.06561 0.67748,0.65492 1.51869,0.98237 2.52362,0.98235 z"
     id="path2866"
     style="font-size:34.68710327px;font-style:normal;font-variant:normal;font-weight:normal;font-stretch:normal;text-indent:0;text-align:center;text-decoration:none;line-height:100%;letter-spacing:normal;word-spacing:normal;text-transform:none;direction:ltr;block-progression:tb;writing-mode:lr-tb;text-anchor:middle;color:#000000;fill:#ffffff;fill-opacity:1;fill-rule:nonzero;stroke:none;stroke-width:1;marker:none;visibility:visible;font-family:DIN 1451 Mittelschrift"
     inkscape:connector-curvature="0" />
  <polygon
     points="410.256,454.308 270.986,454.308 263.784,235.812 338.626,235.812 338.626,235.812 "
     id="polygon3892"
     style="fill:#ffffff;fill-opacity:1"
     transform="matrix(0.137396,0,0,0.137396,346.77415,350.85518)" />
  <polygon
     points="280.427,48.516 323.055,182.052 262.422,182.148 257.166,48.516 257.166,48.516 "
     id="polygon3894"
     style="fill:#ffffff;fill-opacity:1"
     transform="matrix(0.137396,0,0,0.137396,346.77415,350.85518)" />
  <polygon
     points="239.454,182.148 177.653,182.82 221.643,48.516 244.417,48.516 244.417,48.516 "
     id="polygon3896"
     style="fill:#ffffff;fill-opacity:1"
     transform="matrix(0.137396,0,0,0.137396,346.77415,350.85518)" />
  <polygon
     points="229.526,453.54 89.575,454.308 160.622,236.58 236.145,236.58 236.145,236.58 "
     id="polygon3898"
     style="fill:#ffffff;fill-opacity:1"
     transform="matrix(0.137396,0,0,0.137396,346.77415,350.85518)" />
  <polygon
     points="361.887,213.54 138.918,213.252 138.918,213.252 138.918,236.58 102.13,236.676 102.325,213.828 62.422,213.54 62.714,196.932 438.772,197.028 438.772,213.252 398.48,213.252 398.48,237.06 361.887,236.964 "
     id="polygon3902"
     style="fill:#ffffff;fill-opacity:1"
     transform="matrix(0.137396,0,0,0.137396,346.77415,350.85518)" />
  <path
     d="m 322.79866,128.46145 -23.38043,33.91298 c -1.48611,2.30731 0.82876,6.13571 3.76068,5.31313 l 12.30505,-2.98445 -0.38064,179.01347 -91.48745,0.0535 2.97108,-11.46939 c 1.13921,-3.16639 -3.52802,-4.91538 -5.31313,-3.74729 l -33.87284,23.11275 33.91299,23.38043 c 2.30729,1.48612 6.1357,-0.82875 5.31312,-3.76068 l -2.90414,-11.22849 91.34023,0.0535 0,170.82298 15.95275,0.0535 -0.0535,-67.33082 91.71496,0 -2.9443,11.3757 c -1.13923,3.1664 3.528,4.91538 5.31312,3.74729 l 33.87286,-23.11273 -33.91301,-23.38045 c -2.3073,-1.48611 -6.1357,0.82878 -5.31312,3.7607 l 2.98445,11.5229 -91.71496,0.18737 0,-283.0142 11.20173,2.90415 c 3.16639,1.13922 4.91537,-3.52801 3.74729,-5.31312 l -23.11276,-33.87284 z"
     id="path3904"
     style="color:#000000;fill:#ffffff;fill-opacity:1;fill-rule:nonzero;stroke:none;stroke-width:1;marker:none;visibility:visible;display:inline;overflow:visible"
     inkscape:connector-curvature="0" />
</svg>
