<?xml version="1.0" encoding="UTF-8" standalone="no"?>
<!-- Created with Inkscape (http://www.inkscape.org/) -->

<svg
   xmlns:svg="http://www.w3.org/2000/svg"
   xmlns="http://www.w3.org/2000/svg"
   version="1.0"
   width="1200"
   height="930"
   id="svg2">
  <defs
     id="defs9" />
  <path
     d="M 9.6405043,52.295692 11.66658,874.50322 c 0.778185,27.50159 16.216109,50.4875 49.348529,49.70931 l 1079.636291,1.15473 c 21.4039,0 39.6113,-18.37359 39.2264,-42.09821 l -1.0949,-829.186612 c 0,-30.172494 -21.8108,-47.4645993 -49.9897,-47.8495084 L 52.757907,6.7540336 c -27.123316,0 -43.1174027,28.9625584 -43.1174027,45.5416584 z"
     id="path3829"
     style="fill:#ffcc33;fill-opacity:1;fill-rule:evenodd;stroke:#000000;stroke-width:2.17805266;stroke-linecap:butt;stroke-linejoin:miter;stroke-miterlimit:4;stroke-opacity:1;stroke-dasharray:none" />
  <path
     d="m 429.02328,274.87562 614.82112,1.0905 0.1294,116.18354 -614.40527,0.0659 c 0,0 -0.54525,-117.33998 -0.54525,-117.33998 z"
     id="rect2845"
     style="fill:#ffffff;fill-opacity:1;fill-rule:nonzero;stroke:#000000;stroke-width:3;stroke-linecap:round;stroke-linejoin:miter;stroke-miterlimit:4;stroke-opacity:1;stroke-dashoffset:0" />
  <path
     d="M 29.487983,59.760373 29.196845,869.04005 c 0,20.40332 12.248403,37.68337 35.835782,37.68337 l 1068.616973,0 c 15.1768,0 26.7027,-15.83855 26.7027,-40.0664 l 0.4196,-800.359422 c 0,-28.934758 -13.0528,-39.895971 -36.0152,-39.895971 L 57.283192,26.901351 c -18.340203,0 -27.795209,16.960038 -27.795209,32.859022 z"
     id="path2057"
     style="fill:none;stroke:#000000;stroke-width:18.6489315;stroke-linecap:butt;stroke-linejoin:miter;stroke-miterlimit:4;stroke-opacity:1;stroke-dasharray:none" />
  <path
     d="m 462.81295,138.63021 0,-28.83545 -26.2058,0 0,28.83545 -10.01986,0 0,-66.05856 10.01986,0 0,28.29138 26.2058,0 0,-28.29138 10.01987,0 0,66.05856 -10.01987,0 z m 47.87772,0 0,-4.17117 -0.22669,0 c -1.90426,3.14349 -5.77316,4.71523 -11.60672,4.71523 -5.25931,0 -9.33979,-1.36772 -12.24146,-4.10315 -2.90169,-2.73544 -4.35252,-6.15851 -4.35252,-10.26923 0,-3.71776 1.28459,-6.96703 3.85379,-9.74783 2.56919,-2.78075 6.39275,-4.17114 11.47071,-4.17117 l 13.10289,0 0,-4.89658 c -3e-5,-4.02 -3.21907,-6.030017 -9.65715,-6.030056 -4.47344,3.9e-5 -7.45068,1.193956 -8.93173,3.581766 l -7.43556,-5.622009 c 3.29461,-4.594282 8.58412,-6.891443 15.86856,-6.89149 5.80334,4.7e-5 10.51856,1.133515 14.14569,3.400406 3.62707,2.266979 5.44061,6.302123 5.44065,12.105443 l 0,32.09984 -9.43046,0 z m 0,-16.50331 0,-3.44574 -11.33468,0 c -5.47089,2e-5 -8.20633,1.88913 -8.20632,5.66734 -1e-5,1.60198 0.68763,2.99237 2.06292,4.17117 1.37526,1.17881 3.66486,1.76822 6.86882,1.76821 3.92933,1e-5 6.67988,-0.43827 8.25165,-1.31483 1.57171,-0.87653 2.35758,-3.15858 2.35761,-6.84615 l 0,0 z m 21.71727,16.50331 0,-47.061624 9.47579,0 0,5.032601 0.18136,0 c 2.93189,-3.717732 7.01237,-5.576619 12.24146,-5.576666 3.6573,4.7e-5 7.18616,1.390434 10.5866,4.171165 3.40036,2.780817 5.10057,6.831074 5.10061,12.150784 l 0,31.28374 -9.4758,0 0,-28.01935 c -3e-5,-3.17368 -0.88414,-5.6522 -2.65232,-7.43555 -1.76824,-1.78329 -3.96716,-2.67495 -6.59678,-2.67499 -2.72035,4e-5 -4.96462,0.8917 -6.73281,2.67499 -1.76823,1.78335 -2.65233,4.26187 -2.65232,7.43555 l 0,28.01935 -9.47579,0 z m 49.87262,0 0,-47.061624 9.4758,0 0,5.032601 0.18136,0 c 2.93188,-3.717732 7.01237,-5.576619 12.24146,-5.576666 3.65729,4.7e-5 7.18616,1.390434 10.5866,4.171165 3.40036,2.780817 5.10056,6.831074 5.10061,12.150784 l 0,31.28374 -9.4758,0 0,-28.01935 c -4e-5,-3.17368 -0.88414,-5.6522 -2.65232,-7.43555 -1.76824,-1.78329 -3.96717,-2.67495 -6.59679,-2.67499 -2.72034,4e-5 -4.96461,0.8917 -6.7328,2.67499 -1.76823,1.78335 -2.65233,4.26187 -2.65232,7.43555 l 0,28.01935 -9.4758,0 z m 47.56035,-23.57615 c -10e-6,-5.04769 0.39293,-8.8108 1.1788,-11.28935 0.78587,-2.47848 2.08558,-4.715191 3.89914,-6.710136 1.2997,-1.420571 3.09058,-2.780732 5.37264,-4.080487 2.28203,-1.299664 5.26683,-1.949519 8.9544,-1.949566 3.62707,4.7e-5 6.5892,0.649902 8.8864,1.949566 2.29712,1.299755 4.09556,2.659916 5.39531,4.080487 1.81351,1.994945 3.11322,4.231656 3.89913,6.710136 0.78583,2.47855 1.17876,6.24166 1.17881,11.28935 -5e-5,5.13841 -0.39298,8.94686 -1.17881,11.42536 -0.78591,2.47853 -2.08562,4.71524 -3.89913,6.71014 -1.29975,1.45084 -3.09819,2.811 -5.39531,4.08049 -2.2972,1.26948 -5.25933,1.90422 -8.8864,1.90422 -3.68757,0 -6.67237,-0.63474 -8.9544,-1.90422 -2.28206,-1.26949 -4.07294,-2.62965 -5.37264,-4.08049 -1.81356,-1.9949 -3.11327,-4.23161 -3.89914,-6.71014 -0.78587,-2.4785 -1.17881,-6.28695 -1.1788,-11.42536 l 0,0 z m 29.33417,0.0907 c -4e-5,-3.4155 -0.17383,-5.81845 -0.5214,-7.20887 -0.34763,-1.39035 -0.94459,-2.72029 -1.79088,-3.98981 -1.66245,-2.29712 -4.20142,-3.4457 -7.61691,-3.44574 -3.47599,4e-5 -6.01496,1.14862 -7.61691,3.44574 -0.90679,1.26952 -1.51886,2.59946 -1.83622,3.98981 -0.31738,1.39042 -0.47607,3.76315 -0.47606,7.11819 -10e-6,3.44576 0.15868,5.87138 0.47606,7.27687 0.31736,1.40551 0.92943,2.72789 1.83622,3.96714 1.60195,2.29717 4.14092,3.44575 7.61691,3.44574 3.41549,1e-5 5.95446,-1.14857 7.61691,-3.44574 0.84629,-1.23925 1.44325,-2.55407 1.79088,-3.94447 0.34757,-1.39037 0.52136,-3.79333 0.5214,-7.20886 l 0,0 z m 29.96891,23.48547 -17.22872,-47.061624 10.01986,0 11.01732,32.961274 0.18135,0 11.06266,-32.961274 10.01986,0 -17.27406,47.061624 -7.79827,0 z m 67.056,-19.94905 -29.28883,0 c -2e-5,3.86892 1.05033,6.7706 3.15104,8.70504 2.10068,1.93446 4.78322,2.90169 8.04763,2.90168 3.8991,1e-5 7.34484,-1.51128 10.33723,-4.53388 l 6.84615,5.8487 c -2.32742,2.72033 -4.94951,4.66234 -7.86627,5.82603 -2.91682,1.1637 -5.96207,1.74554 -9.13576,1.74554 -4.83615,0 -9.52115,-1.56418 -14.05501,-4.69256 -4.53388,-3.12836 -6.80082,-9.52868 -6.80081,-19.20096 -10e-6,-9.15839 2.09313,-15.490699 6.27941,-18.996934 4.18627,-3.506151 8.56145,-5.259248 13.12557,-5.259295 5.16859,4.7e-5 9.68735,1.790926 13.55629,5.372642 3.86886,3.581799 5.80332,8.410367 5.80336,14.485727 l 0,7.79827 z m -29.28883,-7.79827 19.85837,0 c -0.15116,-3.53639 -1.14861,-6.2416 -2.99236,-8.11563 -1.8438,-1.87397 -4.15608,-2.810967 -6.93683,-2.811006 -2.81102,3.9e-5 -5.14596,0.937036 -7.00483,2.811006 -1.85891,1.87403 -2.83369,4.57924 -2.92435,8.11563 l 0,0 z m 39.26335,27.74732 0,-47.061624 9.4758,0 0,5.032601 0.18136,0 c 2.93188,-3.717732 7.01237,-5.576619 12.24146,-5.576666 3.44571,4.7e-5 6.72521,1.209079 9.83851,3.6271 l -6.84615,8.160979 c -2.05539,-1.54148 -4.14097,-2.31224 -6.25675,-2.31228 -2.32741,4e-5 -4.43566,0.77835 -6.32476,2.33495 -1.88913,1.55666 -2.83368,4.05784 -2.83367,7.50356 l 0,28.29138 -9.4758,0 z"
     id="text1885"
     style="font-size:92.85375977px;font-style:normal;font-variant:normal;font-weight:normal;font-stretch:normal;text-align:center;line-height:100%;writing-mode:lr-tb;text-anchor:middle;fill:#000000;fill-opacity:1;stroke:none;font-family:DIN 1451 Mittelschrift" />
  <path
     d="m 428.26405,238.61164 0,-66.05856 23.12276,0 c 9.03749,7e-5 15.74762,3.70273 20.13041,11.10799 1.63214,2.81106 2.62959,5.4407 2.99236,7.88895 0.36265,2.44833 0.54401,7.13333 0.54406,14.05501 -5e-5,7.43558 -0.24941,12.40017 -0.74809,14.89378 -0.49878,2.49364 -1.48867,4.88904 -2.96969,7.18619 -1.96472,3.08304 -4.66238,5.6749 -8.09296,7.7756 -3.43067,2.10069 -7.59428,3.15104 -12.49083,3.15104 l -22.48802,0 z m 10.01987,-56.58276 0,47.1523 12.01476,0 c 5.50107,10e-6 9.58156,-1.91933 12.24147,-5.75802 1.08809,-1.66241 1.77572,-3.45329 2.06291,-5.37264 0.2871,-1.91932 0.43067,-5.94691 0.43072,-12.08278 -5e-5,-5.92423 -0.15873,-10.01982 -0.47606,-12.2868 -0.31741,-2.26689 -1.14107,-4.30713 -2.47096,-6.12073 -2.75059,-3.6875 -6.67994,-5.53128 -11.78808,-5.53133 l -12.01476,0 z m 47.7417,40.80487 0,-31.28373 9.4758,0 0,28.06468 c -2e-5,3.20396 0.88409,5.69003 2.65231,7.45823 1.7682,1.76822 4.01246,2.65232 6.73281,2.65231 2.62962,10e-6 4.82855,-0.88409 6.59679,-2.65231 1.76817,-1.7682 2.65228,-4.25427 2.65231,-7.45823 l 0,-28.06468 9.4758,0 0,47.06162 -9.4758,0 0,-4.98726 -0.18135,0 c -2.93194,3.68755 -6.9822,5.53132 -12.15079,5.53132 -3.71779,0 -7.27688,-1.38283 -10.67727,-4.14849 -3.40042,-2.76566 -5.10062,-6.82347 -5.10061,-12.17346 l 0,0 z m 21.44523,-38.58327 0,-10.01987 10.01986,0 0,10.01987 -10.01986,0 z m -16.36729,0 0,-10.01987 10.0652,0 0,10.01987 -10.0652,0 z m 39.58073,46.51755 6.61945,-6.52878 c 4.1107,4.02005 9.05262,6.03007 14.82577,6.03006 2.69008,1e-5 4.91167,-0.50628 6.6648,-1.51885 1.75307,-1.01255 2.62962,-2.51629 2.62965,-4.51121 -3e-5,-2.75053 -1.91937,-4.29205 -5.75802,-4.62455 l -8.34233,-0.77076 c -3.89915,-0.30224 -7.13331,-1.58683 -9.7025,-3.85379 -2.5692,-2.26691 -3.85379,-5.42551 -3.85379,-9.4758 0,-4.77564 1.67753,-8.38763 5.0326,-10.83596 3.35506,-2.44825 7.52622,-3.67239 12.5135,-3.67244 4.11068,5e-5 7.63199,0.5819 10.56393,1.74554 2.93187,1.16374 5.56151,2.71281 7.88894,4.64722 l -5.8487,6.89149 c -1.87403,-1.26944 -3.80849,-2.31224 -5.80336,-3.12837 -1.99493,-0.81606 -4.26187,-1.22411 -6.80081,-1.22415 -3.02261,4e-5 -5.1233,0.53655 -6.30209,1.60953 -1.17882,1.07305 -1.76822,2.42566 -1.76821,4.05782 -10e-6,1.02771 0.43826,1.97982 1.31482,2.85634 0.87654,0.87658 2.50873,1.40553 4.89659,1.58686 l 7.79826,0.54406 c 4.86633,0.33251 8.35741,1.83625 10.47325,4.51121 2.11577,2.675 3.17368,5.87138 3.17372,9.58914 -4e-5,4.62456 -1.88916,8.19121 -5.66735,10.69995 -3.77826,2.50874 -8.38769,3.76311 -13.82832,3.76311 -7.8285,0 -14.7351,-2.79588 -20.7198,-8.38767 l 0,0 z m 44.61332,0 6.61946,-6.52878 c 4.1107,4.02005 9.05262,6.03007 14.82577,6.03006 2.69008,1e-5 4.91167,-0.50628 6.6648,-1.51885 1.75307,-1.01255 2.62961,-2.51629 2.62965,-4.51121 -4e-5,-2.75053 -1.91938,-4.29205 -5.75803,-4.62455 l -8.34233,-0.77076 c -3.89914,-0.30224 -7.1333,-1.58683 -9.70249,-3.85379 -2.5692,-2.26691 -3.8538,-5.42551 -3.85379,-9.4758 -10e-6,-4.77564 1.67753,-8.38763 5.0326,-10.83596 3.35505,-2.44825 7.52621,-3.67239 12.51349,-3.67244 4.11069,5e-5 7.632,0.5819 10.56393,1.74554 2.93187,1.16374 5.56152,2.71281 7.88895,4.64722 l -5.8487,6.89149 c -1.87404,-1.26944 -3.80849,-2.31224 -5.80336,-3.12837 -1.99494,-0.81606 -4.26187,-1.22411 -6.80082,-1.22415 -3.0226,4e-5 -5.12329,0.53655 -6.30208,1.60953 -1.17882,1.07305 -1.76823,2.42566 -1.76821,4.05782 -2e-5,1.02771 0.43826,1.97982 1.31482,2.85634 0.87653,0.87658 2.50873,1.40553 4.89659,1.58686 l 7.79826,0.54406 c 4.86633,0.33251 8.35741,1.83625 10.47325,4.51121 2.11577,2.675 3.17367,5.87138 3.17371,9.58914 -4e-5,4.62456 -1.88915,8.19121 -5.66734,10.69995 -3.77826,2.50874 -8.3877,3.76311 -13.82832,3.76311 -7.8285,0 -14.7351,-2.79588 -20.71981,-8.38767 l 0,0 z m 86.27964,-12.10544 -29.28883,0 c -10e-6,3.86892 1.05033,6.7706 3.15104,8.70504 2.10068,1.93446 4.78322,2.90169 8.04763,2.90168 3.8991,1e-5 7.34485,-1.51128 10.33723,-4.53388 l 6.84616,5.8487 c -2.32743,2.72033 -4.94952,4.66234 -7.86628,5.82603 -2.91682,1.1637 -5.96207,1.74554 -9.13576,1.74554 -4.83615,0 -9.52115,-1.56418 -14.05501,-4.69256 -4.53388,-3.12836 -6.80081,-9.52868 -6.80081,-19.20096 0,-9.15839 2.09313,-15.4907 6.27942,-18.99693 4.18626,-3.50616 8.56145,-5.25925 13.12556,-5.2593 5.16859,5e-5 9.68735,1.79093 13.55629,5.37264 3.86887,3.5818 5.80332,8.41037 5.80336,14.48573 l 0,7.79827 z m -29.28883,-7.79827 19.85837,0 c -0.15116,-3.53639 -1.14861,-6.2416 -2.99236,-8.11563 -1.8438,-1.87397 -4.15607,-2.81097 -6.93683,-2.81101 -2.81102,4e-5 -5.14596,0.93704 -7.00483,2.81101 -1.85891,1.87403 -2.83369,4.57924 -2.92435,8.11563 l 0,0 z m 39.26336,16.36729 0,-54.67853 9.47579,0 0,53.90777 c -10e-6,2.17627 1.1788,3.2644 3.53643,3.26439 l 3.21905,0 0,8.8864 -4.17117,0 c -3.44576,0 -6.31721,-0.83877 -8.61436,-2.5163 -2.29717,-1.67753 -3.44575,-4.6321 -3.44574,-8.86373 l 0,0 z m 52.04889,11.38003 0,-4.89659 c -3.29464,3.6271 -7.3449,5.44065 -12.15078,5.44065 -2.9017,0 -5.39533,-0.56673 -7.48089,-1.7002 -2.0856,-1.13347 -3.79336,-2.59186 -5.12328,-4.37519 -1.32995,-1.66241 -2.22161,-3.63465 -2.67499,-5.91671 -0.45339,-2.28203 -0.68009,-6.32473 -0.68008,-12.12811 -10e-6,-5.74288 0.22669,-9.74024 0.68008,-11.9921 0.45338,-2.25179 1.34504,-4.22402 2.67499,-5.91671 1.32992,-1.75305 3.03768,-3.21145 5.12328,-4.37519 2.08556,-1.16364 4.57919,-1.74549 7.48089,-1.74554 2.41804,5e-5 4.60941,0.51389 6.57412,1.54152 1.96465,1.02772 3.82353,2.37277 5.57666,4.03515 l 0,-24.02954 9.4758,0 0,66.05856 -9.4758,0 z m -9.2491,-38.12989 c -4.47344,4e-5 -7.15598,1.52644 -8.04763,4.57921 -0.89168,3.05284 -1.33751,6.37768 -1.33749,9.97453 -2e-5,3.68757 0.44581,7.05775 1.33749,10.11054 0.89165,3.05282 3.57419,4.57922 8.04763,4.57921 4.38272,10e-6 7.01992,-1.58684 7.91161,-4.76057 0.89163,-3.17369 1.33746,-6.48342 1.33749,-9.92918 -3e-5,-3.35504 -0.44586,-6.61943 -1.33749,-9.79317 -0.89169,-3.17368 -3.52889,-4.76053 -7.91161,-4.76057 l 0,0 z m 27.06722,14.55374 c 0,-5.04769 0.39293,-8.8108 1.17881,-11.28935 0.78586,-2.47848 2.08557,-4.71519 3.89913,-6.71014 1.2997,-1.42057 3.09058,-2.78073 5.37264,-4.08048 2.28204,-1.29967 5.26683,-1.94952 8.95441,-1.94957 3.62707,5e-5 6.5892,0.6499 8.88639,1.94957 2.29713,1.29975 4.09556,2.65991 5.39531,4.08048 1.81351,1.99495 3.11322,4.23166 3.89913,6.71014 0.78583,2.47855 1.17877,6.24166 1.17881,11.28935 -4e-5,5.13841 -0.39298,8.94686 -1.17881,11.42536 -0.78591,2.47853 -2.08562,4.71524 -3.89913,6.71014 -1.29975,1.45084 -3.09818,2.811 -5.39531,4.08049 -2.29719,1.26948 -5.25932,1.90422 -8.88639,1.90422 -3.68758,0 -6.67237,-0.63474 -8.95441,-1.90422 -2.28206,-1.26949 -4.07294,-2.62965 -5.37264,-4.08049 -1.81356,-1.9949 -3.11327,-4.23161 -3.89913,-6.71014 -0.78588,-2.4785 -1.17881,-6.28695 -1.17881,-11.42536 l 0,0 z m 29.33417,0.0907 c -3e-5,-3.4155 -0.17383,-5.81845 -0.52139,-7.20887 -0.34763,-1.39035 -0.94459,-2.72029 -1.79088,-3.98981 -1.66245,-2.29712 -4.20142,-3.4457 -7.61691,-3.44574 -3.476,4e-5 -6.01496,1.14862 -7.61691,3.44574 -0.90679,1.26952 -1.51887,2.59946 -1.83622,3.98981 -0.31739,1.39042 -0.47607,3.76315 -0.47606,7.11819 -10e-6,3.44576 0.15867,5.87138 0.47606,7.27687 0.31735,1.40551 0.92943,2.72789 1.83622,3.96714 1.60195,2.29717 4.14091,3.44575 7.61691,3.44574 3.41549,10e-6 5.95446,-1.14857 7.61691,-3.44574 0.84629,-1.23925 1.44325,-2.55407 1.79088,-3.94447 0.34756,-1.39037 0.52136,-3.79333 0.52139,-7.20886 l 0,0 z m 19.40499,23.48547 0,-47.06162 9.4758,0 0,5.0326 0.18135,0 c 2.93189,-3.71773 7.01237,-5.57662 12.24146,-5.57667 3.44572,5e-5 6.72522,1.20908 9.83851,3.6271 l -6.84615,8.16098 c -2.05539,-1.54148 -4.14097,-2.31224 -6.25675,-2.31228 -2.32741,4e-5 -4.43566,0.77835 -6.32475,2.33495 -1.88913,1.55666 -2.83369,4.05784 -2.83367,7.50356 l 0,28.29138 -9.4758,0 z m 37.58584,0 0,-39.80742 -4.76057,0 0,-7.2542 4.76057,0 0,-6.21141 c -10e-6,-4.38269 1.20902,-7.6093 3.6271,-9.67983 2.41805,-2.0704 5.47085,-3.10563 9.15842,-3.1057 l 6.12073,0 0,8.88639 -5.34997,0 c -2.75057,6e-5 -4.12584,1.29977 -4.12582,3.89914 l 0,6.21141 9.47579,0 0,7.2542 -9.47579,0 0,39.80742 -9.43046,0 z"
     id="text1893"
     style="font-size:92.85375977px;font-style:normal;font-variant:normal;font-weight:normal;font-stretch:normal;text-align:center;line-height:100%;writing-mode:lr-tb;text-anchor:middle;fill:#000000;fill-opacity:1;stroke:none;font-family:DIN 1451 Mittelschrift" />
  <path
     d="m 266.22785,536.20649 0,20.03973 15.14315,0 c 3.74796,3e-5 6.55896,-1.04276 8.433,-3.12838 1.87396,-2.08554 2.81096,-4.53383 2.81101,-7.34488 -5e-5,-3.35501 -1.1184,-5.86375 -3.35507,-7.52623 -1.87404,-1.3601 -4.30722,-2.04018 -7.29954,-2.04024 l -15.73255,0 z m -10.01986,57.17216 0,-66.05856 25.84309,0 c 5.65219,7e-5 10.12561,1.45091 13.42027,4.35252 1.84373,1.60203 3.40791,3.61205 4.69256,6.03006 1.28454,2.41812 1.92684,5.10821 1.9269,8.07029 -6e-5,4.26189 -1.14108,8.03256 -3.42308,11.31202 -2.2821,3.27954 -5.41802,5.59937 -9.40779,6.9595 l 15.3245,29.33417 -11.87876,0 -13.64696,-28.2007 -12.83087,0 0,28.2007 -10.01986,0 z m 92.21902,-19.94905 -29.28883,0 c -2e-5,3.86892 1.05033,6.7706 3.15104,8.70504 2.10068,1.93446 4.78322,2.90169 8.04763,2.90168 3.8991,10e-6 7.34484,-1.51128 10.33723,-4.53387 l 6.84615,5.8487 c -2.32743,2.72032 -4.94951,4.66233 -7.86627,5.82602 -2.91682,1.1637 -5.96207,1.74555 -9.13576,1.74555 -4.83615,0 -9.52115,-1.56419 -14.05501,-4.69256 -4.53388,-3.12837 -6.80082,-9.52868 -6.80081,-19.20096 -10e-6,-9.1584 2.09313,-15.49071 6.27941,-18.99694 4.18627,-3.50615 8.56145,-5.25925 13.12557,-5.2593 5.16859,5e-5 9.68735,1.79093 13.55629,5.37265 3.86886,3.5818 5.80332,8.41037 5.80336,14.48573 l 0,7.79826 z m -29.28883,-7.79826 19.85837,0 c -0.15116,-3.53639 -1.14862,-6.2416 -2.99236,-8.11564 -1.8438,-1.87396 -4.15608,-2.81096 -6.93683,-2.811 -2.81102,4e-5 -5.14596,0.93704 -7.00483,2.811 -1.85891,1.87404 -2.83369,4.57925 -2.92435,8.11564 l 0,0 z m 66.91999,13.91899 6.98217,6.25675 c -2.05539,2.35762 -4.49613,4.29963 -7.32221,5.82603 -2.82614,1.5264 -6.02252,2.28961 -9.58914,2.28961 -5.44067,0 -10.35992,-1.85133 -14.75776,-5.554 -4.39787,-3.70266 -6.5968,-9.86116 -6.59679,-18.47554 -1e-5,-8.61433 2.19892,-14.78795 6.59679,-18.52088 4.39784,-3.73284 9.31709,-5.59929 14.75776,-5.59934 3.56662,5e-5 6.763,0.77081 9.58914,2.31228 2.82608,1.54156 5.26682,3.49113 7.32221,5.8487 l -6.98217,6.21141 c -2.6599,-3.26436 -5.84872,-4.89655 -9.56647,-4.89659 -8.16099,4e-5 -12.24148,4.88151 -12.24146,14.64442 -2e-5,9.73273 4.08047,14.59909 12.24146,14.59908 3.74797,10e-6 6.9368,-1.6473 9.56647,-4.94193 l 0,0 z m 13.51094,13.82832 0,-66.05856 9.4758,0 0,41.12225 0.18135,0 18.09016,-22.12531 11.33469,0 -16.23127,18.40753 18.45287,28.65409 -11.87875,0 -12.5135,-21.98929 -7.43555,8.47834 0,13.51095 -9.4758,0 z m 48.24043,-11.38002 0,-54.67854 9.4758,0 0,53.90778 c -2e-5,2.17627 1.17879,3.2644 3.53642,3.26439 l 3.21905,0 0,8.88639 -4.17116,0 c -3.44576,0 -6.31721,-0.83876 -8.61436,-2.5163 -2.29717,-1.67753 -3.44575,-4.6321 -3.44575,-8.86372 l 0,0 z m 24.21089,11.38002 0,-47.06162 9.4758,0 0,47.06162 -9.4758,0 z m 0,-56.58276 0,-9.4758 9.4758,0 0,9.4758 -9.4758,0 z m 22.03464,56.58276 0,-47.06162 9.4758,0 0,5.0326 0.18135,0 c 2.93189,-3.71773 7.01238,-5.57662 12.24147,-5.57667 3.65729,5e-5 7.18615,1.39044 10.5866,4.17117 3.40036,2.78082 5.10056,6.83107 5.1006,12.15078 l 0,31.28374 -9.47579,0 0,-28.01935 c -4e-5,-3.17368 -0.88414,-5.65219 -2.65232,-7.43555 -1.76824,-1.78329 -3.96717,-2.67495 -6.59679,-2.67499 -2.72035,4e-5 -4.96461,0.8917 -6.7328,2.67499 -1.76823,1.78336 -2.65234,4.26187 -2.65232,7.43555 l 0,28.01935 -9.4758,0 z m 76.30511,-0.0453 0,-4.85124 c -3.29464,3.6271 -7.3449,5.44065 -12.15078,5.44065 -3.08306,0 -5.65981,-0.61208 -7.73026,-1.83622 -2.07048,-1.22415 -3.63467,-2.5163 -4.69256,-3.87647 -1.36017,-1.75309 -2.28961,-3.61197 -2.78833,-5.57666 -0.49873,-1.96467 -0.7481,-6.21139 -0.74809,-12.74019 -1e-5,-6.52875 0.24936,-10.77548 0.74809,-12.74019 0.49872,-1.96464 1.42816,-3.83864 2.78833,-5.622 1.05789,-1.3299 2.62208,-2.62205 4.69256,-3.87647 2.07045,-1.25432 4.6472,-1.88151 7.73026,-1.88156 4.5943,5e-5 8.64456,1.85894 12.15078,5.57667 l 0,-5.0326 9.4758,0 0,45.97349 c -4e-5,7.07284 -2.06295,12.28679 -6.18874,15.64187 -4.12586,3.35505 -8.86375,5.03258 -14.2137,5.0326 -3.0226,-2e-5 -5.98473,-0.72544 -8.88639,-2.17626 -2.90169,-1.45085 -5.39532,-3.35508 -7.4809,-5.71268 l 7.34488,-5.8487 c 1.14857,1.14858 2.51629,2.14603 4.10316,2.99236 1.58684,0.84631 3.28704,1.26947 5.10061,1.26948 3.14346,-10e-6 5.72021,-0.87656 7.73025,-2.62964 2.00999,-1.75311 3.015,-4.26185 3.01503,-7.52624 l 0,0 z m -18.63422,-23.44013 c -2e-5,3.77825 0.0982,6.28699 0.2947,7.52623 0.19645,1.23928 0.71785,2.38786 1.56418,3.44575 0.63473,0.84633 1.57173,1.66243 2.81101,2.44829 1.23924,0.78588 2.81098,1.17882 4.71523,1.17881 1.84375,10e-6 3.37771,-0.39293 4.60188,-1.17881 1.22412,-0.78586 2.16867,-1.60196 2.83367,-2.44829 0.81607,-1.05789 1.32235,-2.20647 1.51885,-3.44575 0.19644,-1.23924 0.29467,-3.74798 0.2947,-7.52623 -3e-5,-3.7782 -0.0983,-6.28694 -0.2947,-7.52623 -0.1965,-1.23923 -0.70278,-2.40292 -1.51885,-3.49109 -0.665,-0.81606 -1.60955,-1.6246 -2.83367,-2.42562 -1.22417,-0.80095 -2.75813,-1.20144 -4.60188,-1.20148 -1.90425,4e-5 -3.47599,0.40053 -4.71523,1.20148 -1.23928,0.80102 -2.17628,1.60956 -2.81101,2.42562 -0.84633,1.08817 -1.36773,2.25186 -1.56418,3.49109 -0.19648,1.23929 -0.29472,3.74803 -0.2947,7.52623 l 0,0 z m 40.44218,23.48547 0,-66.05856 9.4758,0 0,24.02954 0.18135,0 c 2.93189,-3.71773 7.01237,-5.57662 12.24146,-5.57667 3.6573,5e-5 7.18616,1.39044 10.5866,4.17117 3.40037,2.78082 5.10057,6.83107 5.10061,12.15078 l 0,31.28374 -9.4758,0 0,-28.01935 c -3e-5,-3.17368 -0.88414,-5.65219 -2.65231,-7.43555 -1.76824,-1.78329 -3.96717,-2.67495 -6.59679,-2.67499 -2.72035,4e-5 -4.96461,0.8917 -6.73281,2.67499 -1.76822,1.78336 -2.65233,4.26187 -2.65231,7.43555 l 0,28.01935 -9.4758,0 z m 74.58224,0 0,-4.17116 -0.2267,0 c -1.90425,3.14348 -5.77316,4.71523 -11.60672,4.71523 -5.25931,0 -9.33979,-1.36772 -12.24146,-4.10316 -2.90168,-2.73543 -4.35252,-6.1585 -4.35252,-10.26923 0,-3.71776 1.28459,-6.96703 3.85379,-9.74783 2.56919,-2.78075 6.39276,-4.17114 11.47071,-4.17116 l 13.1029,0 0,-4.89659 c -3e-5,-4.02 -3.21908,-6.03001 -9.65716,-6.03005 -4.47344,4e-5 -7.45068,1.19396 -8.93173,3.58176 l -7.43556,-5.62201 c 3.29461,-4.59428 8.58413,-6.89144 15.86857,-6.89149 5.80333,5e-5 10.51856,1.13352 14.14569,3.40041 3.62706,2.26698 5.44061,6.30212 5.44065,12.10545 l 0,32.09983 -9.43046,0 z m 0,-16.5033 0,-3.44575 -11.33469,0 c -5.47089,2e-5 -8.20633,1.88913 -8.20631,5.66735 -2e-5,1.60198 0.68762,2.99236 2.06291,4.17116 1.37526,1.17882 3.66486,1.76822 6.86882,1.76821 3.92933,10e-6 6.67988,-0.43826 8.25165,-1.31482 1.57172,-0.87654 2.35759,-3.15859 2.35762,-6.84615 l 0,0 z m 21.71726,0.72542 0,-31.28374 9.4758,0 0,28.06469 c -2e-5,3.20395 0.88409,5.69002 2.65231,7.45822 1.76819,1.76822 4.01246,2.65233 6.73281,2.65232 2.62962,10e-6 4.82855,-0.8841 6.59679,-2.65232 1.76817,-1.7682 2.65228,-4.25427 2.65231,-7.45822 l 0,-28.06469 9.4758,0 0,47.06162 -9.4758,0 0,-4.98726 -0.18135,0 c -2.93194,3.68755 -6.9822,5.53133 -12.15079,5.53133 -3.71779,0 -7.27688,-1.38283 -10.67727,-4.1485 -3.40042,-2.76566 -5.10062,-6.82347 -5.10061,-12.17345 l 0,0 z m 44.65866,7.93428 6.61946,-6.52878 c 4.1107,4.02004 9.05262,6.03006 14.82577,6.03005 2.69007,10e-6 4.91167,-0.50627 6.6648,-1.51885 1.75306,-1.01255 2.62961,-2.51628 2.62964,-4.5112 -3e-5,-2.75054 -1.91937,-4.29205 -5.75802,-4.62455 l -8.34233,-0.77076 c -3.89914,-0.30224 -7.1333,-1.58684 -9.70249,-3.8538 -2.5692,-2.26691 -3.8538,-5.42551 -3.85379,-9.4758 -10e-6,-4.77564 1.67752,-8.38762 5.0326,-10.83596 3.35505,-2.44824 7.52621,-3.67239 12.51349,-3.67244 4.11069,5e-5 7.632,0.5819 10.56393,1.74555 2.93187,1.16374 5.56152,2.71281 7.88894,4.64722 l -5.84869,6.89149 c -1.87404,-1.26945 -3.80849,-2.31224 -5.80336,-3.12838 -1.99494,-0.81605 -4.26187,-1.2241 -6.80082,-1.22414 -3.0226,4e-5 -5.12329,0.53654 -6.30208,1.60952 -1.17883,1.07306 -1.76823,2.42566 -1.76821,4.05782 -2e-5,1.02771 0.43826,1.97982 1.31482,2.85634 0.87653,0.87658 2.50873,1.40553 4.89658,1.58686 l 7.79827,0.54406 c 4.86633,0.33252 8.35741,1.83625 10.47325,4.51121 2.11577,2.67501 3.17367,5.87139 3.17371,9.58915 -4e-5,4.62456 -1.88915,8.1912 -5.66734,10.69994 -3.77826,2.50875 -8.3877,3.76312 -13.82832,3.76312 -7.8285,0 -14.7351,-2.79589 -20.71981,-8.38767 l 0,0 z m 86.27965,-12.10545 -29.28883,0 c -10e-6,3.86892 1.05034,6.7706 3.15105,8.70504 2.10067,1.93446 4.78321,2.90169 8.04762,2.90168 3.89911,10e-6 7.34485,-1.51128 10.33724,-4.53387 l 6.84615,5.8487 c -2.32743,2.72032 -4.94952,4.66233 -7.86627,5.82602 -2.91683,1.1637 -5.96208,1.74555 -9.13576,1.74555 -4.83615,0 -9.52115,-1.56419 -14.05501,-4.69256 -4.53388,-3.12837 -6.80082,-9.52868 -6.80082,-19.20096 0,-9.1584 2.09314,-15.49071 6.27942,-18.99694 4.18626,-3.50615 8.56145,-5.25925 13.12557,-5.2593 5.16859,5e-5 9.68735,1.79093 13.55628,5.37265 3.86887,3.5818 5.80332,8.41037 5.80336,14.48573 l 0,7.79826 z m -29.28883,-7.79826 19.85837,0 c -0.15116,-3.53639 -1.14861,-6.2416 -2.99235,-8.11564 -1.84381,-1.87396 -4.15608,-2.81096 -6.93683,-2.811 -2.81102,4e-5 -5.14597,0.93704 -7.00484,2.811 -1.8589,1.87404 -2.83368,4.57925 -2.92435,8.11564 l 0,0 z m 39.26336,27.74731 0,-47.06162 9.4758,0 0,5.0326 0.18135,0 c 2.93189,-3.71773 7.01237,-5.57662 12.24147,-5.57667 3.65729,5e-5 7.18615,1.39044 10.58659,4.17117 3.40037,2.78082 5.10057,6.83107 5.10061,12.15078 l 0,31.28374 -9.4758,0 0,-28.01935 c -3e-5,-3.17368 -0.88413,-5.65219 -2.65231,-7.43555 -1.76824,-1.78329 -3.96717,-2.67495 -6.59679,-2.67499 -2.72035,4e-5 -4.96461,0.8917 -6.7328,2.67499 -1.76823,1.78336 -2.65234,4.26187 -2.65232,7.43555 l 0,28.01935 -9.4758,0 z"
     id="text1897"
     style="font-size:92.85375977px;font-style:normal;font-variant:normal;font-weight:normal;font-stretch:normal;text-align:center;line-height:100%;writing-mode:lr-tb;text-anchor:middle;fill:#000000;fill-opacity:1;stroke:none;font-family:DIN 1451 Mittelschrift" />
  <path
     d="m 294.99805,823.85656 0,-66.05856 23.12276,0 c 9.03749,6e-5 15.74762,3.70273 20.13041,11.10799 1.63214,2.81106 2.62959,5.4407 2.99236,7.88894 0.36265,2.44834 0.54401,7.13334 0.54406,14.05502 -5e-5,7.43558 -0.24941,12.40017 -0.74809,14.89378 -0.49878,2.49364 -1.48867,4.88904 -2.96969,7.18619 -1.96472,3.08304 -4.66238,5.6749 -8.09296,7.77559 -3.43067,2.1007 -7.59428,3.15105 -12.49083,3.15105 l -22.48802,0 z m 10.01987,-56.58276 0,47.1523 12.01476,0 c 5.50107,10e-6 9.58156,-1.91933 12.24147,-5.75802 1.08808,-1.66241 1.77572,-3.45329 2.06291,-5.37265 0.2871,-1.91931 0.43067,-5.9469 0.43072,-12.08277 -5e-5,-5.92423 -0.15873,-10.01982 -0.47606,-12.2868 -0.31741,-2.26689 -1.14107,-4.30714 -2.47096,-6.12074 -2.75059,-3.68749 -6.67994,-5.53127 -11.78808,-5.53132 l -12.01476,0 z m 45.42942,33.00661 c 0,-5.04769 0.39293,-8.8108 1.17881,-11.28935 0.78587,-2.47848 2.08557,-4.71519 3.89913,-6.71014 1.2997,-1.42057 3.09058,-2.78073 5.37264,-4.08048 2.28204,-1.29967 5.26684,-1.94952 8.95441,-1.94957 3.62707,5e-5 6.5892,0.6499 8.88639,1.94957 2.29713,1.29975 4.09557,2.65991 5.39531,4.08048 1.81351,1.99495 3.11322,4.23166 3.89914,6.71014 0.78582,2.47855 1.17876,6.24166 1.1788,11.28935 -4e-5,5.13841 -0.39298,8.94686 -1.1788,11.42536 -0.78592,2.47853 -2.08563,4.71524 -3.89914,6.71014 -1.29974,1.45084 -3.09818,2.811 -5.39531,4.08048 -2.29719,1.26949 -5.25932,1.90423 -8.88639,1.90423 -3.68757,0 -6.67237,-0.63474 -8.95441,-1.90423 -2.28206,-1.26948 -4.07294,-2.62964 -5.37264,-4.08048 -1.81356,-1.9949 -3.11326,-4.23161 -3.89913,-6.71014 -0.78588,-2.4785 -1.17881,-6.28695 -1.17881,-11.42536 l 0,0 z m 29.33417,0.0907 c -3e-5,-3.41549 -0.17383,-5.81844 -0.52139,-7.20886 -0.34763,-1.39035 -0.94459,-2.72029 -1.79088,-3.98981 -1.66245,-2.29712 -4.20142,-3.4457 -7.61691,-3.44574 -3.47599,4e-5 -6.01496,1.14862 -7.61691,3.44574 -0.90679,1.26952 -1.51887,2.59946 -1.83622,3.98981 -0.31739,1.39042 -0.47607,3.76315 -0.47606,7.11819 -10e-6,3.44576 0.15867,5.87138 0.47606,7.27687 0.31735,1.40551 0.92943,2.72789 1.83622,3.96714 1.60195,2.29717 4.14092,3.44575 7.61691,3.44574 3.41549,1e-5 5.95446,-1.14857 7.61691,-3.44574 0.84629,-1.23925 1.44325,-2.55407 1.79088,-3.94447 0.34756,-1.39037 0.52136,-3.79333 0.52139,-7.20887 l 0,0 z m 19.40499,23.48548 0,-47.06163 9.4758,0 0,5.03261 0.18136,0 c 2.93188,-3.71774 7.01237,-5.57662 12.24146,-5.57667 3.44571,5e-5 6.72521,1.20908 9.83851,3.6271 l -6.84615,8.16097 c -2.05539,-1.54148 -4.14097,-2.31223 -6.25675,-2.31227 -2.32741,4e-5 -4.43566,0.77835 -6.32476,2.33494 -1.88913,1.55667 -2.83369,4.05785 -2.83367,7.50357 l 0,28.29138 -9.4758,0 z m 36.63371,0 0,-47.06163 9.4758,0 0,5.03261 0.18136,0 c 2.99233,-3.71774 7.07282,-5.57662 12.24146,-5.57667 3.29458,5e-5 5.90911,0.58945 7.8436,1.76821 1.93442,1.17885 3.74797,2.62969 5.44065,4.35252 3.71773,-4.08044 8.67477,-6.12068 14.87111,-6.12073 3.65727,5e-5 7.18613,1.39043 10.5866,4.17116 3.40034,2.78082 5.10054,6.83108 5.10061,12.15079 l 0,31.28374 -9.4758,0 0,-28.01935 c -6e-5,-3.17368 -0.89172,-5.6522 -2.67499,-7.43556 -1.78338,-1.78328 -3.98986,-2.67494 -6.61945,-2.67498 -2.72038,4e-5 -4.96464,0.8917 -6.73281,2.67498 -1.76825,1.78336 -2.65236,4.26188 -2.65231,7.43556 l 0,28.01935 -9.43046,0 0,-28.01935 c -4e-5,-3.17368 -0.8917,-5.6522 -2.67499,-7.43556 -1.78335,-1.78328 -3.98984,-2.67494 -6.61946,-2.67498 -2.72035,4e-5 -4.96461,0.8917 -6.7328,2.67498 -1.76823,1.78336 -2.65234,4.26188 -2.65232,7.43556 l 0,28.01935 -9.4758,0 z m 103.23633,0 0,-4.17117 -0.2267,0 c -1.90425,3.14349 -5.77316,4.71523 -11.60672,4.71523 -5.25931,0 -9.33979,-1.36772 -12.24146,-4.10315 -2.90168,-2.73544 -4.35252,-6.15851 -4.35252,-10.26923 0,-3.71776 1.28459,-6.96704 3.85379,-9.74783 2.56919,-2.78075 6.39275,-4.17114 11.47071,-4.17117 l 13.1029,0 0,-4.89658 c -3e-5,-4.02 -3.21908,-6.03002 -9.65716,-6.03006 -4.47344,4e-5 -7.45068,1.19396 -8.93173,3.58176 l -7.43556,-5.622 c 3.29461,-4.59428 8.58413,-6.89144 15.86857,-6.89149 5.80333,5e-5 10.51855,1.13351 14.14569,3.40041 3.62706,2.26698 5.44061,6.30212 5.44065,12.10544 l 0,32.09984 -9.43046,0 z m 0,-16.50331 0,-3.44574 -11.33469,0 c -5.47089,2e-5 -8.20633,1.88913 -8.20632,5.66734 -10e-6,1.60198 0.68763,2.99237 2.06292,4.17117 1.37526,1.17881 3.66486,1.76822 6.86882,1.76821 3.92933,10e-6 6.67988,-0.43827 8.25165,-1.31483 1.57171,-0.87654 2.35759,-3.15858 2.35762,-6.84615 l 0,0 z m 48.14976,16.45797 0,-4.85125 c -3.29464,3.6271 -7.3449,5.44065 -12.15078,5.44065 -3.08305,0 -5.6598,-0.61207 -7.73026,-1.83622 -2.07048,-1.22414 -3.63466,-2.51629 -4.69256,-3.87646 -1.36017,-1.75309 -2.28961,-3.61198 -2.78833,-5.57667 -0.49873,-1.96466 -0.7481,-6.21139 -0.74809,-12.74019 -10e-6,-6.52875 0.24936,-10.77547 0.74809,-12.74018 0.49872,-1.96465 1.42816,-3.83864 2.78833,-5.62201 1.0579,-1.32989 2.62208,-2.62205 4.69256,-3.87646 2.07046,-1.25433 4.64721,-1.88151 7.73026,-1.88156 4.5943,5e-5 8.64456,1.85893 12.15078,5.57667 l 0,-5.03261 9.4758,0 0,45.9735 c -4e-5,7.07284 -2.06295,12.28679 -6.18874,15.64187 -4.12585,3.35505 -8.86375,5.03258 -14.21369,5.0326 -3.02261,-2e-5 -5.98474,-0.72544 -8.8864,-2.17626 -2.90169,-1.45086 -5.39532,-3.35508 -7.48089,-5.71269 l 7.34487,-5.84869 c 1.14857,1.14857 2.51629,2.14602 4.10316,2.99235 1.58684,0.84632 3.28704,1.26948 5.10061,1.26949 3.14346,-10e-6 5.72021,-0.87656 7.73026,-2.62965 2.00998,-1.7531 3.01499,-4.26185 3.01502,-7.52623 l 0,0 z m -18.63422,-23.44014 c -2e-5,3.77825 0.0982,6.287 0.2947,7.52624 0.19645,1.23927 0.71785,2.38785 1.56419,3.44574 0.63472,0.84634 1.57172,1.66243 2.811,2.44829 1.23924,0.78589 2.81098,1.17882 4.71523,1.17881 1.84375,1e-5 3.37771,-0.39292 4.60188,-1.17881 1.22412,-0.78586 2.16868,-1.60195 2.83367,-2.44829 0.81607,-1.05789 1.32235,-2.20647 1.51885,-3.44574 0.19644,-1.23924 0.29467,-3.74799 0.2947,-7.52624 -3e-5,-3.7782 -0.0983,-6.28694 -0.2947,-7.52623 -0.1965,-1.23922 -0.70278,-2.40292 -1.51885,-3.49108 -0.66499,-0.81606 -1.60955,-1.6246 -2.83367,-2.42562 -1.22417,-0.80095 -2.75813,-1.20144 -4.60188,-1.20148 -1.90425,4e-5 -3.47599,0.40053 -4.71523,1.20148 -1.23928,0.80102 -2.17628,1.60956 -2.811,2.42562 -0.84634,1.08816 -1.36774,2.25186 -1.56419,3.49108 -0.19648,1.23929 -0.29472,3.74803 -0.2947,7.52623 l 0,0 z m 76.89451,3.53643 -29.28884,0 c -10e-6,3.86892 1.05034,6.7706 3.15105,8.70504 2.10067,1.93446 4.78321,2.90169 8.04762,2.90168 3.89911,10e-6 7.34485,-1.51128 10.33724,-4.53388 l 6.84615,5.8487 c -2.32743,2.72033 -4.94952,4.66234 -7.86627,5.82603 -2.91683,1.16369 -5.96208,1.74554 -9.13576,1.74554 -4.83615,0 -9.52115,-1.56418 -14.05501,-4.69256 -4.53388,-3.12837 -6.80082,-9.52868 -6.80082,-19.20096 0,-9.15839 2.09314,-15.4907 6.27942,-18.99694 4.18626,-3.50615 8.56145,-5.25924 13.12557,-5.25929 5.16859,5e-5 9.68735,1.79093 13.55629,5.37264 3.86886,3.5818 5.80331,8.41037 5.80336,14.48573 l 0,7.79827 z m -29.28884,-7.79827 19.85838,0 c -0.15117,-3.53639 -1.14862,-6.2416 -2.99236,-8.11563 -1.84381,-1.87397 -4.15608,-2.81097 -6.93683,-2.81101 -2.81102,4e-5 -5.14597,0.93704 -7.00484,2.81101 -1.8589,1.87403 -2.83368,4.57924 -2.92435,8.11563 l 0,0 z m 39.26336,27.74732 0,-47.06163 9.4758,0 0,5.03261 0.18135,0 c 2.93189,-3.71774 7.01237,-5.57662 12.24147,-5.57667 3.65729,5e-5 7.18615,1.39043 10.58659,4.17116 3.40037,2.78082 5.10057,6.83108 5.10061,12.15079 l 0,31.28374 -9.4758,0 0,-28.01935 c -3e-5,-3.17368 -0.88413,-5.6522 -2.65231,-7.43556 -1.76824,-1.78328 -3.96717,-2.67494 -6.59679,-2.67498 -2.72035,4e-5 -4.96461,0.8917 -6.7328,2.67498 -1.76823,1.78336 -2.65234,4.26188 -2.65232,7.43556 l 0,28.01935 -9.4758,0 z"
     id="text1901"
     style="font-size:92.85375977px;font-style:normal;font-variant:normal;font-weight:normal;font-stretch:normal;text-align:center;line-height:100%;writing-mode:lr-tb;text-anchor:middle;fill:#000000;fill-opacity:1;stroke:none;font-family:DIN 1451 Mittelschrift" />
  <path
     d="m 739.70763,814.06339 0,-8.93174 22.12531,-47.33365 10.56393,0 -22.35201,47.33365 17.22873,0 0,-19.04227 9.4758,0 0,19.04227 5.30463,0 0,8.93174 -5.30463,0 0,9.79317 -9.4758,0 0,-9.79317 -27.56596,0 z m 46.47222,9.79317 0,-8.8864 25.84309,-32.32653 c 0.99742,-1.26944 1.64727,-2.43313 1.94956,-3.49108 0.30223,-1.05786 0.45336,-2.08554 0.45339,-3.08304 -3e-5,-2.29711 -0.81613,-4.43558 -2.44829,-6.41543 -1.63223,-1.97973 -3.85382,-2.96963 -6.6648,-2.96969 -2.56921,6e-5 -4.76814,0.85394 -6.59679,2.56164 -1.82867,1.70782 -2.8488,4.04276 -3.06036,7.00484 l -9.4758,0 c 0.0302,-5.34992 1.85888,-9.86112 5.48599,-13.53362 3.62708,-3.67237 7.93426,-5.50859 12.92154,-5.50866 5.50108,7e-5 10.08784,1.8514 13.76031,5.554 3.6724,3.70272 5.50862,8.16859 5.50866,13.3976 -4e-5,4.47347 -1.31486,8.34237 -3.94447,11.60672 l -21.26388,26.65919 25.20835,0 0,9.43046 -37.6765,0 z"
     id="text1905"
     style="font-size:92.85375977px;font-style:normal;font-variant:normal;font-weight:normal;font-stretch:normal;text-align:center;line-height:100%;writing-mode:lr-tb;text-anchor:middle;fill:#000000;fill-opacity:1;stroke:none;font-family:DIN 1451 Mittelschrift" />
  <path
     d="m 929.9116,562.29369 0,-8.34233 3.26439,0 c 3.14347,4e-5 5.62954,-0.88407 7.45823,-2.65232 1.82863,-1.76817 2.74296,-4.01243 2.74299,-6.7328 -3e-5,-2.69005 -0.95214,-4.95699 -2.85634,-6.80081 -1.90425,-1.84372 -4.17119,-2.76561 -6.80081,-2.76567 -1.99493,6e-5 -3.88404,0.66503 -5.66735,1.99491 -1.78333,1.32999 -2.93191,3.32489 -3.44574,5.98471 l -9.4758,0 c 0.36271,-4.65472 2.31227,-8.72765 5.8487,-12.21879 3.53641,-3.49102 7.66223,-5.23656 12.37748,-5.23663 5.89401,7e-5 10.61679,1.94208 14.16836,5.82603 3.55149,3.88408 5.32726,8.22904 5.3273,13.03489 -4e-5,2.53902 -0.49877,5.00998 -1.49618,7.41289 -0.99749,2.40299 -2.85638,4.48101 -5.57667,6.23408 2.78075,1.78335 4.77565,3.97472 5.98472,6.57412 1.20899,2.59944 1.81351,5.22909 1.81355,7.88894 -4e-5,6.16608 -1.93449,11.07777 -5.80336,14.73509 -3.86894,3.65733 -8.61439,5.48599 -14.23637,5.48599 -4.47344,0 -8.50102,-1.44328 -12.08277,-4.32985 -3.58177,-2.88656 -5.81092,-7.0955 -6.68747,-12.62684 l 9.4758,0 c 0.87654,2.26695 2.05534,4.08805 3.53642,5.46332 1.48105,1.37528 3.58174,2.06292 6.30209,2.06291 2.62962,10e-6 4.95701,-0.92943 6.98216,-2.78833 2.02511,-1.85888 3.03767,-4.42051 3.0377,-7.68492 -3e-5,-3.29459 -1.00504,-5.87134 -3.01503,-7.73026 -2.01004,-1.85886 -4.40543,-2.7883 -7.18619,-2.78833 l -3.98981,0 z m 34.14008,-0.72542 17.72745,-35.4549 10.56393,0 -13.91899,27.92867 0.18135,0 c 1.48104,-0.57426 3.15858,-0.8614 5.0326,-0.86144 4.17114,4e-5 7.84357,1.46599 11.01732,4.39786 3.17367,2.93194 4.76053,7.60182 4.76057,14.00967 -4e-5,7.5867 -2.02517,13.00468 -6.0754,16.25395 -4.05029,3.24927 -8.52371,4.87391 -13.42027,4.87391 -4.62457,0 -8.84862,-1.79088 -12.67218,-5.37264 -3.82357,-3.58175 -5.73535,-8.48589 -5.73535,-14.71243 0,-3.98978 0.84632,-7.67733 2.53897,-11.06265 l 0,0 z m 16.41263,0 c -2.62967,3e-5 -4.86638,0.88413 -6.71014,2.65232 -1.84379,1.76823 -2.76567,4.49611 -2.76566,8.18364 -10e-6,7.25421 3.15858,10.88131 9.4758,10.8813 2.17623,10e-6 4.2996,-0.82364 6.37009,-2.47096 2.07044,-1.6473 3.10568,-4.45074 3.10571,-8.41034 -3e-5,-3.68753 -0.92948,-6.41541 -2.78834,-8.18364 -1.85891,-1.76819 -4.08806,-2.65229 -6.68746,-2.65232 l 0,0 z"
     id="text1909"
     style="font-size:92.85375977px;font-style:normal;font-variant:normal;font-weight:normal;font-stretch:normal;text-align:center;line-height:100%;writing-mode:lr-tb;text-anchor:middle;fill:#000000;fill-opacity:1;stroke:none;font-family:DIN 1451 Mittelschrift" />
  <path
     d="m 848.78044,823.85663 0,-49.35406 7.07961,0 0,30.72349 0.1355,0 13.51563,-16.53039 8.46844,0 -12.12681,13.75274 13.78662,21.40822 -8.87492,0 -9.34916,-16.42877 -5.5553,6.33439 0,10.09438 -7.07961,0 z m 36.44816,0 0,-35.16096 7.07961,0 0,3.75999 0.1355,0 c 2.23565,-2.77762 5.28429,-4.16644 9.14591,-4.16648 2.46147,4e-5 4.41486,0.4404 5.86016,1.32108 1.44525,0.88075 2.8002,1.96471 4.06485,3.25188 2.77762,-3.0486 6.48114,-4.57292 11.11059,-4.57296 2.73244,4e-5 5.36895,1.03883 7.90953,3.11639 2.54048,2.07762 3.81074,5.10367 3.81079,9.07817 l 0,23.37289 -7.07961,0 0,-20.93398 c -5e-5,-2.37114 -0.66623,-4.22291 -1.99855,-5.5553 -1.33241,-1.33234 -2.98093,-1.99852 -4.94557,-1.99855 -2.03246,3e-5 -3.70921,0.66621 -5.03025,1.99855 -1.32111,1.33239 -1.98165,3.18416 -1.98162,5.5553 l 0,20.93398 -7.04574,0 0,-20.93398 c -3e-5,-2.37114 -0.66621,-4.22291 -1.99855,-5.5553 -1.33239,-1.33234 -2.98091,-1.99852 -4.94557,-1.99855 -2.03244,3e-5 -3.70919,0.66621 -5.03025,1.99855 -1.32109,1.33239 -1.98163,3.18416 -1.98162,5.5553 l 0,20.93398 -7.07961,0 z"
     id="text1913"
     style="font-size:69.37345123px;font-style:normal;font-variant:normal;font-weight:normal;font-stretch:normal;text-align:center;line-height:100%;writing-mode:lr-tb;text-anchor:middle;fill:#000000;fill-opacity:1;stroke:none;font-family:DIN 1451 Mittelschrift" />
  <path
     d="m 856.18811,139.66303 0,-56.038695 -9.38512,6.846151 0,-10.019864 9.38512,-6.846151 9.4758,0 0,66.058559 -9.4758,0 z m 27.70198,-9.79317 0,-8.93173 22.12531,-47.333659 10.56393,0 -22.35201,47.333659 17.22873,0 0,-19.04228 9.4758,0 0,19.04228 5.30463,0 0,8.93173 -5.30463,0 0,9.79317 -9.4758,0 0,-9.79317 -27.56596,0 z m 48.14975,-20.53845 0,-35.726939 35.18287,0 0,9.475799 -26.25114,0 0,14.916449 c 3.02257,-2.418023 6.54388,-3.627055 10.56393,-3.6271 2.50872,4.5e-5 4.79833,0.483658 6.86882,1.45084 2.07044,0.967269 3.71019,2.100737 4.91926,3.400406 1.81351,1.964715 3.13589,4.103195 3.96714,6.415435 0.83117,2.31231 1.24677,6.20388 1.24681,11.67473 -4e-5,4.44321 -0.32496,7.74538 -0.97478,9.90651 -0.64989,2.16116 -1.68513,4.14851 -3.1057,5.96205 -1.3602,1.72288 -3.26443,3.32484 -5.71269,4.80591 -2.44832,1.48106 -5.31977,2.22159 -8.61436,2.22159 -4.26186,0 -8.37257,-1.31482 -12.33214,-3.94447 -3.95959,-2.62964 -6.28698,-7.02749 -6.98217,-13.19357 l 9.4758,0 c 1.11835,5.1384 4.27694,7.70759 9.4758,7.70758 4.62453,10e-6 7.32974,-1.58684 8.11564,-4.76056 0.78584,-3.1737 1.17877,-6.31718 1.17881,-9.43046 -4e-5,-3.6573 -0.61966,-6.695 -1.85889,-9.11309 -1.23929,-2.41803 -3.80848,-3.62707 -7.70759,-3.6271 -3.65734,3e-5 -6.49857,1.82869 -8.52369,5.48599 l -8.93173,0 z"
     id="text1917"
     style="font-size:92.85375977px;font-style:normal;font-variant:normal;font-weight:normal;font-stretch:normal;text-align:center;line-height:100%;writing-mode:lr-tb;text-anchor:middle;fill:#000000;fill-opacity:1;stroke:none;font-family:DIN 1451 Mittelschrift" />
  <path
     d="m 902.05639,238.61165 0,-8.88639 25.84308,-32.32653 c 0.99743,-1.26944 1.64728,-2.43314 1.94957,-3.49108 0.30223,-1.05786 0.45336,-2.08554 0.45339,-3.08304 -3e-5,-2.29711 -0.81613,-4.43559 -2.4483,-6.41543 -1.63222,-1.97974 -3.85381,-2.96963 -6.66479,-2.96969 -2.56922,6e-5 -4.76814,0.85394 -6.59679,2.56164 -1.82868,1.70781 -2.8488,4.04275 -3.06037,7.00484 l -9.47579,0 c 0.0302,-5.34992 1.85888,-9.86112 5.48598,-13.53362 3.62709,-3.67237 7.93427,-5.50859 12.92155,-5.50866 5.50107,7e-5 10.08784,1.8514 13.76031,5.554 3.6724,3.70272 5.50862,8.16858 5.50866,13.3976 -4e-5,4.47347 -1.31487,8.34237 -3.94447,11.60672 l -21.26388,26.65918 25.20835,0 0,9.43046 -37.6765,0 z m 57.98826,-29.87823 0,-8.34233 3.26439,0 c 3.14346,4e-5 5.62953,-0.88407 7.45822,-2.65232 1.82864,-1.76817 2.74297,-4.01243 2.743,-6.7328 -3e-5,-2.69005 -0.95215,-4.95699 -2.85635,-6.80082 -1.90425,-1.84372 -4.17118,-2.7656 -6.80081,-2.76566 -1.99492,6e-5 -3.88403,0.66502 -5.66734,1.9949 -1.78334,1.33 -2.93192,3.3249 -3.44575,5.98472 l -9.4758,0 c 0.36271,-4.65472 2.31228,-8.72765 5.8487,-12.21879 3.53642,-3.49102 7.66224,-5.23656 12.37748,-5.23663 5.89401,7e-5 10.6168,1.94208 14.16836,5.82603 3.5515,3.88408 5.32727,8.22904 5.3273,13.03489 -3e-5,2.53902 -0.49876,5.00998 -1.49617,7.41289 -0.99749,2.40299 -2.85638,4.48101 -5.57667,6.23407 2.78074,1.78336 4.77564,3.97473 5.98471,6.57412 1.209,2.59945 1.81351,5.22909 1.81355,7.88895 -4e-5,6.16608 -1.93449,11.07777 -5.80336,14.73509 -3.86893,3.65733 -8.61438,5.48599 -14.23636,5.48599 -4.47344,0 -8.50103,-1.44328 -12.08278,-4.32985 -3.58177,-2.88656 -5.81092,-7.09551 -6.68747,-12.62684 l 9.4758,0 c 0.87654,2.26695 2.05535,4.08805 3.53643,5.46332 1.48105,1.37528 3.58174,2.06292 6.30208,2.06291 2.62963,1e-5 4.95701,-0.92944 6.98217,-2.78833 2.0251,-1.85888 3.03767,-4.42052 3.0377,-7.68492 -3e-5,-3.2946 -1.00504,-5.87135 -3.01503,-7.73026 -2.01004,-1.85886 -4.40544,-2.7883 -7.18619,-2.78833 l -3.98981,0 z"
     id="text1921"
     style="font-size:92.85375977px;font-style:normal;font-variant:normal;font-weight:normal;font-stretch:normal;text-align:center;line-height:100%;writing-mode:lr-tb;text-anchor:middle;fill:#000000;fill-opacity:1;stroke:none;font-family:DIN 1451 Mittelschrift" />
  <path
     d="m 1021.5185,592.66992 0,-49.35406 7.0796,0 0,30.7235 0.1355,0 13.5156,-16.5304 8.4685,0 -12.1269,13.75275 13.7867,21.40821 -8.875,0 -9.3491,-16.42877 -5.5553,6.33439 0,10.09438 -7.0796,0 z m 36.4481,0 0,-35.16096 7.0797,0 0,3.75999 0.1354,0 c 2.2357,-2.77761 5.2843,-4.16644 9.146,-4.16647 2.4614,3e-5 4.4148,0.44039 5.8601,1.32107 1.4453,0.88076 2.8002,1.96471 4.0649,3.25188 2.7776,-3.0486 6.4811,-4.57292 11.1106,-4.57295 2.7324,3e-5 5.3689,1.03883 7.9095,3.11638 2.5405,2.07762 3.8107,5.10368 3.8108,9.07817 l 0,23.37289 -7.0796,0 0,-20.93398 c -10e-5,-2.37114 -0.6663,-4.2229 -1.9986,-5.5553 -1.3324,-1.33234 -2.9809,-1.99852 -4.9456,-1.99855 -2.0324,3e-5 -3.7092,0.66621 -5.0302,1.99855 -1.3211,1.3324 -1.9817,3.18416 -1.9816,5.5553 l 0,20.93398 -7.0458,0 0,-20.93398 c 0,-2.37114 -0.6662,-4.2229 -1.9985,-5.5553 -1.3324,-1.33234 -2.9809,-1.99852 -4.9456,-1.99855 -2.0324,3e-5 -3.7092,0.66621 -5.0302,1.99855 -1.3211,1.3324 -1.9817,3.18416 -1.9816,5.5553 l 0,20.93398 -7.0797,0 z"
     id="text1925"
     style="font-size:69.37345123px;font-style:normal;font-variant:normal;font-weight:normal;font-stretch:normal;text-align:center;line-height:100%;writing-mode:lr-tb;text-anchor:middle;fill:#000000;fill-opacity:1;stroke:none;font-family:DIN 1451 Mittelschrift" />
  <path
     d="m 1008.2449,237.90285 0,-49.35407 7.0796,0 0,30.7235 0.1355,0 13.5157,-16.53039 8.4684,0 -12.1268,13.75274 13.7866,21.40822 -8.8749,0 -9.3492,-16.42877 -5.5553,6.33439 0,10.09438 -7.0796,0 z m 36.4482,0 0,-35.16096 7.0796,0 0,3.75999 0.1355,0 c 2.2356,-2.77762 5.2843,-4.16644 9.1459,-4.16648 2.4615,4e-5 4.4149,0.4404 5.8602,1.32108 1.4452,0.88075 2.8002,1.96471 4.0648,3.25188 2.7776,-3.0486 6.4812,-4.57292 11.1106,-4.57296 2.7324,4e-5 5.3689,1.03883 7.9095,3.11639 2.5405,2.07762 3.8108,5.10367 3.8108,9.07817 l 0,23.37289 -7.0796,0 0,-20.93398 c 0,-2.37114 -0.6662,-4.22291 -1.9985,-5.5553 -1.3325,-1.33234 -2.981,-1.99852 -4.9456,-1.99855 -2.0325,3e-5 -3.7092,0.66621 -5.0303,1.99855 -1.3211,1.33239 -1.9816,3.18416 -1.9816,5.5553 l 0,20.93398 -7.0457,0 0,-20.93398 c 0,-2.37114 -0.6662,-4.22291 -1.9986,-5.5553 -1.3324,-1.33234 -2.9809,-1.99852 -4.9455,-1.99855 -2.0325,3e-5 -3.7092,0.66621 -5.0303,1.99855 -1.3211,1.33239 -1.9816,3.18416 -1.9816,5.5553 l 0,20.93398 -7.0796,0 z"
     id="text1929"
     style="font-size:69.37345123px;font-style:normal;font-variant:normal;font-weight:normal;font-stretch:normal;text-align:center;line-height:100%;writing-mode:lr-tb;text-anchor:middle;fill:#000000;fill-opacity:1;stroke:none;font-family:DIN 1451 Mittelschrift" />
  <path
     d="m 992.5579,141.36758 0,-49.354058 7.07962,0 0,30.723498 0.13549,0 13.51559,-16.53039 8.4685,0 -12.1268,13.75274 13.7866,21.40821 -8.8749,0 -9.3492,-16.42877 -5.55528,6.33439 0,10.09438 -7.07962,0 z m 36.4482,0 0,-35.16095 7.0796,0 0,3.75998 0.1355,0 c 2.2356,-2.77761 5.2843,-4.16643 9.1459,-4.16647 2.4615,4e-5 4.4148,0.44039 5.8601,1.32108 1.4453,0.88075 2.8002,1.96471 4.0649,3.25188 2.7776,-3.04861 6.4811,-4.57292 11.1106,-4.57296 2.7324,4e-5 5.3689,1.03883 7.9095,3.11639 2.5405,2.07762 3.8108,5.10367 3.8108,9.07816 l 0,23.37289 -7.0796,0 0,-20.93398 c -10e-5,-2.37114 -0.6662,-4.2229 -1.9986,-5.55529 -1.3324,-1.33234 -2.9809,-1.99853 -4.9455,-1.99855 -2.0325,2e-5 -3.7092,0.66621 -5.0303,1.99855 -1.3211,1.33239 -1.9816,3.18415 -1.9816,5.55529 l 0,20.93398 -7.0457,0 0,-20.93398 c -10e-5,-2.37114 -0.6662,-4.2229 -1.9986,-5.55529 -1.3324,-1.33234 -2.9809,-1.99853 -4.9456,-1.99855 -2.0324,2e-5 -3.7091,0.66621 -5.0302,1.99855 -1.3211,1.33239 -1.9816,3.18415 -1.9816,5.55529 l 0,20.93398 -7.0796,0 z"
     id="text1933"
     style="font-size:69.37345123px;font-style:normal;font-variant:normal;font-weight:normal;font-stretch:normal;text-align:center;line-height:100%;writing-mode:lr-tb;text-anchor:middle;fill:#000000;fill-opacity:1;stroke:none;font-family:DIN 1451 Mittelschrift" />
  <path
     d="m 459.68578,366.52083 0,-66.05856 9.4758,0 18.9516,43.07182 18.54355,-43.07182 9.47579,0 0,66.05856 -10.01986,0 0,-41.21292 -0.18135,0 -13.82832,31.78246 -8.34233,0 -13.82832,-31.78246 -0.2267,0 0,41.21292 -10.01986,0 z m 106.002,-19.94905 -29.28884,0 c -1e-5,3.86893 1.05034,6.7706 3.15105,8.70504 2.10067,1.93447 4.78321,2.90169 8.04763,2.90168 3.8991,1e-5 7.34484,-1.51128 10.33723,-4.53387 l 6.84615,5.8487 c -2.32743,2.72033 -4.94952,4.66233 -7.86627,5.82603 -2.91683,1.16369 -5.96208,1.74554 -9.13576,1.74554 -4.83615,0 -9.52115,-1.56419 -14.05501,-4.69256 -4.53388,-3.12837 -6.80082,-9.52868 -6.80081,-19.20096 -10e-6,-9.1584 2.09313,-15.4907 6.27941,-18.99694 4.18627,-3.50615 8.56145,-5.25925 13.12557,-5.25929 5.16859,4e-5 9.68735,1.79092 13.55629,5.37264 3.86886,3.5818 5.80331,8.41037 5.80336,14.48573 l 0,7.79826 z m -29.28884,-7.79826 19.85838,0 c -0.15117,-3.53639 -1.14862,-6.2416 -2.99236,-8.11564 -1.84381,-1.87396 -4.15608,-2.81096 -6.93683,-2.811 -2.81102,4e-5 -5.14597,0.93704 -7.00484,2.811 -1.8589,1.87404 -2.83368,4.57925 -2.92435,8.11564 l 0,0 z m 34.04941,19.90371 6.61945,-6.52878 c 4.1107,4.02005 9.05262,6.03006 14.82577,6.03005 2.69008,1e-5 4.91167,-0.50627 6.6648,-1.51884 1.75307,-1.01256 2.62962,-2.51629 2.62965,-4.51121 -3e-5,-2.75053 -1.91937,-4.29205 -5.75802,-4.62455 l -8.34233,-0.77076 c -3.89915,-0.30224 -7.13331,-1.58684 -9.7025,-3.8538 -2.5692,-2.26691 -3.85379,-5.4255 -3.85379,-9.47579 0,-4.77565 1.67753,-8.38763 5.0326,-10.83597 3.35506,-2.44824 7.52622,-3.67239 12.5135,-3.67243 4.11068,4e-5 7.63199,0.58189 10.56393,1.74554 2.93187,1.16374 5.56151,2.71281 7.88894,4.64722 l -5.8487,6.89149 c -1.87404,-1.26945 -3.80849,-2.31224 -5.80336,-3.12837 -1.99493,-0.81606 -4.26187,-1.22411 -6.80081,-1.22415 -3.02261,4e-5 -5.1233,0.53655 -6.30209,1.60953 -1.17882,1.07305 -1.76822,2.42565 -1.76821,4.05781 -10e-6,1.02771 0.43826,1.97983 1.31482,2.85634 0.87654,0.87658 2.50873,1.40553 4.89659,1.58686 l 7.79826,0.54407 c 4.86633,0.33251 8.35741,1.83624 10.47325,4.5112 2.11577,2.67501 3.17368,5.87139 3.17372,9.58915 -4e-5,4.62456 -1.88916,8.1912 -5.66735,10.69994 -3.77826,2.50875 -8.38769,3.76312 -13.82832,3.76312 -7.8285,0 -14.7351,-2.79589 -20.7198,-8.38767 l 0,0 z m 44.61332,0 6.61946,-6.52878 c 4.1107,4.02005 9.05262,6.03006 14.82577,6.03005 2.69007,1e-5 4.91167,-0.50627 6.6648,-1.51884 1.75306,-1.01256 2.62961,-2.51629 2.62964,-4.51121 -3e-5,-2.75053 -1.91937,-4.29205 -5.75802,-4.62455 l -8.34233,-0.77076 c -3.89914,-0.30224 -7.1333,-1.58684 -9.70249,-3.8538 -2.5692,-2.26691 -3.8538,-5.4255 -3.85379,-9.47579 -1e-5,-4.77565 1.67753,-8.38763 5.0326,-10.83597 3.35505,-2.44824 7.52621,-3.67239 12.51349,-3.67243 4.11069,4e-5 7.632,0.58189 10.56393,1.74554 2.93187,1.16374 5.56152,2.71281 7.88894,4.64722 l -5.84869,6.89149 c -1.87404,-1.26945 -3.80849,-2.31224 -5.80336,-3.12837 -1.99494,-0.81606 -4.26187,-1.22411 -6.80082,-1.22415 -3.0226,4e-5 -5.12329,0.53655 -6.30208,1.60953 -1.17882,1.07305 -1.76823,2.42565 -1.76821,4.05781 -2e-5,1.02771 0.43826,1.97983 1.31482,2.85634 0.87653,0.87658 2.50873,1.40553 4.89658,1.58686 l 7.79827,0.54407 c 4.86633,0.33251 8.35741,1.83624 10.47325,4.5112 2.11577,2.67501 3.17367,5.87139 3.17371,9.58915 -4e-5,4.62456 -1.88915,8.1912 -5.66734,10.69994 -3.77826,2.50875 -8.3877,3.76312 -13.82832,3.76312 -7.8285,0 -14.7351,-2.79589 -20.71981,-8.38767 l 0,0 z m 86.27966,-12.10545 -29.28884,0 c -1e-5,3.86893 1.05034,6.7706 3.15105,8.70504 2.10067,1.93447 4.78321,2.90169 8.04762,2.90168 3.89911,1e-5 7.34485,-1.51128 10.33724,-4.53387 l 6.84615,5.8487 c -2.32743,2.72033 -4.94952,4.66233 -7.86627,5.82603 -2.91683,1.16369 -5.96208,1.74554 -9.13576,1.74554 -4.83615,0 -9.52115,-1.56419 -14.05501,-4.69256 -4.53388,-3.12837 -6.80082,-9.52868 -6.80082,-19.20096 0,-9.1584 2.09314,-15.4907 6.27942,-18.99694 4.18626,-3.50615 8.56145,-5.25925 13.12557,-5.25929 5.16859,4e-5 9.68735,1.79092 13.55629,5.37264 3.86886,3.5818 5.80331,8.41037 5.80336,14.48573 l 0,7.79826 z m -29.28884,-7.79826 19.85838,0 c -0.15117,-3.53639 -1.14862,-6.2416 -2.99236,-8.11564 -1.84381,-1.87396 -4.15608,-2.81096 -6.93683,-2.811 -2.81102,4e-5 -5.14597,0.93704 -7.00484,2.811 -1.8589,1.87404 -2.83368,4.57925 -2.92435,8.11564 l 0,0 z m 65.69585,27.70197 0,-4.85124 c -3.29464,3.6271 -7.3449,5.44065 -12.15078,5.44065 -3.08306,0 -5.65981,-0.61207 -7.73026,-1.83622 -2.07048,-1.22415 -3.63467,-2.5163 -4.69256,-3.87646 -1.36017,-1.7531 -2.28961,-3.61198 -2.78833,-5.57667 -0.49873,-1.96467 -0.7481,-6.21139 -0.74809,-12.74019 -10e-6,-6.52875 0.24936,-10.77547 0.74809,-12.74019 0.49872,-1.96464 1.42816,-3.83864 2.78833,-5.622 1.05789,-1.3299 2.62208,-2.62205 4.69256,-3.87647 2.07045,-1.25432 4.6472,-1.88151 7.73026,-1.88155 4.5943,4e-5 8.64456,1.85893 12.15078,5.57666 l 0,-5.0326 9.4758,0 0,45.97349 c -4e-5,7.07284 -2.06295,12.28679 -6.18874,15.64187 -4.12586,3.35505 -8.86375,5.03258 -14.2137,5.0326 -3.0226,-2e-5 -5.98473,-0.72544 -8.88639,-2.17626 -2.90169,-1.45085 -5.39532,-3.35508 -7.4809,-5.71268 l 7.34488,-5.8487 c 1.14857,1.14858 2.51629,2.14603 4.10316,2.99236 1.58684,0.84631 3.28704,1.26947 5.10061,1.26948 3.14346,-1e-5 5.72021,-0.87655 7.73025,-2.62964 2.00999,-1.75311 3.015,-4.26185 3.01503,-7.52624 l 0,0 z m -18.63422,-23.44013 c -2e-5,3.77825 0.0982,6.28699 0.2947,7.52623 0.19645,1.23928 0.71785,2.38786 1.56418,3.44575 0.63473,0.84633 1.57173,1.66243 2.81101,2.44829 1.23924,0.78588 2.81098,1.17882 4.71523,1.17881 1.84375,1e-5 3.37771,-0.39293 4.60188,-1.17881 1.22412,-0.78586 2.16867,-1.60196 2.83367,-2.44829 0.81607,-1.05789 1.32235,-2.20647 1.51885,-3.44575 0.19644,-1.23924 0.29467,-3.74798 0.2947,-7.52623 -3e-5,-3.7782 -0.0983,-6.28694 -0.2947,-7.52623 -0.1965,-1.23923 -0.70278,-2.40292 -1.51885,-3.49109 -0.665,-0.81606 -1.60955,-1.6246 -2.83367,-2.42562 -1.22417,-0.80095 -2.75813,-1.20144 -4.60188,-1.20148 -1.90425,4e-5 -3.47599,0.40053 -4.71523,1.20148 -1.23928,0.80102 -2.17628,1.60956 -2.81101,2.42562 -0.84633,1.08817 -1.36773,2.25186 -1.56418,3.49109 -0.19648,1.23929 -0.29472,3.74803 -0.2947,7.52623 l 0,0 z m 76.8945,3.53642 -29.28883,0 c -10e-6,3.86893 1.05033,6.7706 3.15104,8.70504 2.10068,1.93447 4.78322,2.90169 8.04763,2.90168 3.89911,1e-5 7.34485,-1.51128 10.33724,-4.53387 l 6.84615,5.8487 c -2.32743,2.72033 -4.94952,4.66233 -7.86628,5.82603 -2.91682,1.16369 -5.96207,1.74554 -9.13575,1.74554 -4.83616,0 -9.52116,-1.56419 -14.05502,-4.69256 -4.53388,-3.12837 -6.80081,-9.52868 -6.80081,-19.20096 0,-9.1584 2.09313,-15.4907 6.27942,-18.99694 4.18626,-3.50615 8.56145,-5.25925 13.12557,-5.25929 5.16859,4e-5 9.68734,1.79092 13.55628,5.37264 3.86887,3.5818 5.80332,8.41037 5.80336,14.48573 l 0,7.79826 z m -29.28883,-7.79826 19.85837,0 c -0.15116,-3.53639 -1.14861,-6.2416 -2.99235,-8.11564 -1.84381,-1.87396 -4.15608,-2.81096 -6.93683,-2.811 -2.81103,4e-5 -5.14597,0.93704 -7.00484,2.811 -1.8589,1.87404 -2.83369,4.57925 -2.92435,8.11564 l 0,0 z m 39.26336,16.36729 0,-54.67854 9.4758,0 0,53.90778 c -2e-5,2.17627 1.17879,3.2644 3.53642,3.26439 l 3.21905,0 0,8.88639 -4.17116,0 c -3.44576,0 -6.31722,-0.83876 -8.61437,-2.5163 -2.29717,-1.67753 -3.44575,-4.6321 -3.44574,-8.86372 l 0,0 z m 48.64849,11.38002 0,-4.17116 -0.22669,0 c -1.90426,3.14349 -5.77316,4.71523 -11.60672,4.71523 -5.25931,0 -9.3398,-1.36772 -12.24147,-4.10316 -2.90168,-2.73543 -4.35252,-6.1585 -4.35252,-10.26923 0,-3.71776 1.2846,-6.96703 3.8538,-9.74783 2.56918,-2.78075 6.39275,-4.17113 11.4707,-4.17116 l 13.1029,0 0,-4.89659 c -3e-5,-4.02 -3.21908,-6.03001 -9.65715,-6.03005 -4.47344,4e-5 -7.45069,1.19396 -8.93174,3.58176 l -7.43555,-5.622 c 3.29461,-4.59429 8.58412,-6.89145 15.86856,-6.89149 5.80333,4e-5 10.51856,1.13351 14.14569,3.4004 3.62706,2.26698 5.44061,6.30213 5.44065,12.10545 l 0,32.09983 -9.43046,0 z m 0,-16.5033 0,-3.44575 -11.33469,0 c -5.47089,2e-5 -8.20632,1.88914 -8.20631,5.66735 -10e-6,1.60198 0.68762,2.99237 2.06291,4.17116 1.37526,1.17882 3.66487,1.76822 6.86882,1.76821 3.92934,1e-5 6.67988,-0.43826 8.25165,-1.31482 1.57172,-0.87654 2.35759,-3.15859 2.35762,-6.84615 l 0,0 z m -4.48854,-37.85786 0,-10.01986 10.01987,0 0,10.01986 -10.01987,0 z m -16.32195,0 0,-10.01986 10.01987,0 0,10.01986 -10.01987,0 z m 42.52775,54.36116 0,-47.06162 9.4758,0 0,5.0326 0.18135,0 c 2.93189,-3.71773 7.01238,-5.57662 12.24147,-5.57666 3.65729,4e-5 7.18615,1.39043 10.5866,4.17116 3.40036,2.78082 5.10056,6.83108 5.1006,12.15079 l 0,31.28373 -9.47579,0 0,-28.01934 c -4e-5,-3.17369 -0.88414,-5.6522 -2.65232,-7.43556 -1.76824,-1.78329 -3.96717,-2.67495 -6.59679,-2.67499 -2.72035,4e-5 -4.96461,0.8917 -6.7328,2.67499 -1.76823,1.78336 -2.65234,4.26187 -2.65232,7.43556 l 0,28.01934 -9.4758,0 z m 77.98265,0 0,-4.89658 c -3.29465,3.6271 -7.34491,5.44065 -12.15079,5.44065 -2.9017,0 -5.39533,-0.56674 -7.48089,-1.7002 -2.0856,-1.13347 -3.79336,-2.59187 -5.12328,-4.37519 -1.32995,-1.66242 -2.22161,-3.63465 -2.67499,-5.91671 -0.45339,-2.28204 -0.68009,-6.32474 -0.68008,-12.12812 -1e-5,-5.74288 0.22669,-9.74024 0.68008,-11.9921 0.45338,-2.25178 1.34504,-4.22402 2.67499,-5.9167 1.32992,-1.75306 3.03768,-3.21145 5.12328,-4.37519 2.08556,-1.16365 4.57919,-1.7455 7.48089,-1.74554 2.41804,4e-5 4.60941,0.51388 6.57412,1.54151 1.96465,1.02773 3.82353,2.37277 5.57667,4.03515 l 0,-24.02954 9.47579,0 0,66.05856 -9.47579,0 z m -9.24911,-38.12989 c -4.47344,4e-5 -7.15598,1.52645 -8.04763,4.57922 -0.89168,3.05284 -1.33751,6.37768 -1.33749,9.97452 -2e-5,3.68757 0.44581,7.05775 1.33749,10.11054 0.89165,3.05282 3.57419,4.57923 8.04763,4.57922 4.38272,1e-5 7.01992,-1.58685 7.91161,-4.76057 0.89163,-3.1737 1.33746,-6.48342 1.3375,-9.92919 -4e-5,-3.35504 -0.44587,-6.61942 -1.3375,-9.79317 -0.89169,-3.17367 -3.52889,-4.76053 -7.91161,-4.76057 l 0,0 z m 65.83186,18.18084 -29.28881,0 c -10e-6,3.86893 1.05033,6.7706 3.15104,8.70504 2.10068,1.93447 4.78322,2.90169 8.04763,2.90168 3.89911,1e-5 7.34484,-1.51128 10.33724,-4.53387 l 6.8461,5.8487 c -2.3274,2.72033 -4.9495,4.66233 -7.8662,5.82603 -2.91685,1.16369 -5.9621,1.74554 -9.13578,1.74554 -4.83616,0 -9.52116,-1.56419 -14.05501,-4.69256 -4.53389,-3.12837 -6.80082,-9.52868 -6.80082,-19.20096 0,-9.1584 2.09314,-15.4907 6.27942,-18.99694 4.18626,-3.50615 8.56145,-5.25925 13.12557,-5.25929 5.16859,4e-5 9.68732,1.79092 13.55632,5.37264 3.8688,3.5818 5.8033,8.41037 5.8033,14.48573 l 0,7.79826 z m -29.28881,-7.79826 19.85841,0 c -0.1512,-3.53639 -1.1487,-6.2416 -2.99239,-8.11564 -1.84381,-1.87396 -4.15608,-2.81096 -6.93683,-2.811 -2.81103,4e-5 -5.14597,0.93704 -7.00484,2.811 -1.8589,1.87404 -2.83368,4.57925 -2.92435,8.11564 l 0,0 z"
     id="text1937"
     style="font-size:92.85375977px;font-style:normal;font-variant:normal;font-weight:normal;font-stretch:normal;text-align:center;line-height:100%;writing-mode:lr-tb;text-anchor:middle;fill:#000000;fill-opacity:1;stroke:none;font-family:DIN 1451 Mittelschrift" />
  <g
     id="text1941"
     style="font-size:71.99623108px;font-style:normal;font-variant:normal;font-weight:normal;font-stretch:normal;text-align:center;line-height:100%;writing-mode:lr-tb;text-anchor:middle;fill:#000000;fill-opacity:1;stroke:none;font-family:DIN 1451 Mittelschrift">
    <path
       d="m 311.41359,222.12242 c -10e-6,2.41397 0.75581,4.242 2.26746,5.48409 1.51163,1.24215 3.2049,1.86321 5.07981,1.86318 1.87489,3e-5 3.56815,-0.62103 5.07981,-1.86318 1.51162,-1.24209 2.26744,-3.07012 2.26746,-5.48409 -2e-5,-2.39046 -0.75584,-4.21263 -2.26746,-5.46651 -1.51166,-1.2538 -3.20492,-1.88072 -5.07981,-1.88076 -1.87491,4e-5 -3.56818,0.62696 -5.07981,1.88076 -1.51165,1.25388 -2.26747,3.07605 -2.26746,5.46651 z m -8.26129,22.04181 c 0,-4.9919 2.01552,-8.83545 6.04656,-11.53064 -1.52336,-1.35928 -2.75962,-2.86506 -3.70879,-4.51735 -0.94917,-1.65222 -1.42375,-3.60329 -1.42375,-5.8532 0,-4.12475 1.41203,-7.62847 4.23611,-10.51117 2.82406,-2.88261 6.3102,-4.32394 10.45843,-4.324 4.1482,6e-5 7.63434,1.44139 10.45844,4.324 2.82404,2.8827 4.23607,6.38642 4.23611,10.51117 -4e-5,2.24991 -0.48048,4.20098 -1.44134,5.8532 -0.96091,1.65229 -2.1796,3.15807 -3.65605,4.51735 4.00757,2.71863 6.01137,6.56217 6.0114,11.53064 -3e-5,4.54665 -1.54097,8.24372 -4.6228,11.09122 -3.0819,2.84751 -6.74381,4.27126 -10.98576,4.27126 -4.26541,0 -7.93319,-1.42375 -11.00333,-4.27126 -3.07015,-2.8475 -4.60523,-6.54457 -4.60523,-11.09122 z m 7.34728,-0.0703 c -10e-6,2.34364 0.82611,4.28299 2.47838,5.81806 1.65225,1.53508 3.57988,2.30262 5.7829,2.30261 2.17956,1e-5 4.10719,-0.76753 5.7829,-2.30261 1.67567,-1.53507 2.51352,-3.47442 2.51354,-5.81806 -2e-5,-2.34361 -0.83787,-4.28882 -2.51354,-5.83563 -1.67571,-1.54677 -3.60334,-2.32017 -5.7829,-2.32019 -2.20302,2e-5 -4.13065,0.77342 -5.7829,2.32019 -1.65227,1.54681 -2.47839,3.49202 -2.47838,5.83563 z"
       id="path2849" />
  </g>
  <path
     d="m 263.58561,198.2737 110.18571,0.48912 c 3.93601,6.3e-4 7.83077,4.85867 7.87535,9.72843 l 0.0611,51.93291 c -0.037,3.39969 -2.70043,7.74977 -6.44396,7.77645 l -111.72679,-0.0611 c -4.58596,0.0223 -7.77208,-5.61929 -7.80163,-10.55471 l -0.0548,-50.94209 c -0.063,-4.07848 2.89339,-8.38685 7.90502,-8.36897 z"
     id="path1945"
     style="fill:none;stroke:#000000;stroke-width:5;stroke-linecap:butt;stroke-linejoin:miter;stroke-miterlimit:4;stroke-opacity:1;stroke-dasharray:none" />
  <path
     d="m 143.6875,170.25 -62.15625,62.15625 0,33.75 50.28125,-50.5625 -0.1875,82.03125 27.21875,0 -0.15625,-82 50.28125,50.53125 0,-33.75 -62.15625,-62.15625 -3.125,0 z"
     id="path2834"
     style="fill:#000000;fill-opacity:1;fill-rule:evenodd;stroke:none" />
  <path
     d="m 83.512265,560.73233 62.156245,62.15625 33.75,0 -50.5625,-50.28125 82.03125,0.1875 0,-27.21875 -82,0.15625 50.53125,-50.28125 -33.75,0 -62.156245,62.15625 0,3.125 z"
     id="path2841"
     style="fill:#000000;fill-opacity:1;fill-rule:evenodd;stroke:none" />
  <path
     d="m 1101.1627,789.73008 -62.1563,-62.1563 -33.75,0 50.5625,50.2813 -82.03125,-0.1875 0,27.2187 82.00005,-0.1562 -50.5313,50.2812 33.75,0 62.1563,-62.1562 0,-3.125 z"
     id="path2843"
     style="fill:#000000;fill-opacity:1;fill-rule:evenodd;stroke:none" />
  <path
     d="M 31.204944,445.66561 1159.3801,442.71617"
     id="path3733"
     style="fill:none;stroke:#000000;stroke-width:13.80595779;stroke-linecap:butt;stroke-linejoin:miter;stroke-miterlimit:4;stroke-opacity:1;stroke-dasharray:none" />
  <path
     d="M 32.655907,678.20568 1160.8311,675.25624"
     id="path4620"
     style="fill:none;stroke:#000000;stroke-width:13.80595779;stroke-linecap:butt;stroke-linejoin:miter;stroke-miterlimit:4;stroke-opacity:1;stroke-dasharray:none" />
</svg>
