<?xml version="1.0" encoding="UTF-8" standalone="no"?>
<!-- Created with Inkscape (http://www.inkscape.org/) -->
<svg
   xmlns:svg="http://www.w3.org/2000/svg"
   xmlns="http://www.w3.org/2000/svg"
   version="1.0"
   width="600"
   height="600"
   id="svg1961">
  <defs
     id="defs1963" />
  <path
     d="M 46.33899,592.51787 C 37.64007,592.49001 24.67178,587.49632 18.75874,580.81716 L 15.83356,577.4741 L 13.32627,573.71315 L 10.81897,569.53433 L 9.14744,564.93762 L 8.31168,560.34091 L 7.47591,555.7442 L 7.47591,46.34529 C 8.2072,33.72524 10.97219,28.46688 18.75874,18.76504 L 22.51968,15.83986 L 26.28063,13.33257 L 30.45945,10.82527 L 35.05616,9.15374 L 44.24958,7.48221 L 553.23061,7.48221 C 564.994,7.9767 572.09104,10.79741 580.81086,18.76504 L 584.15392,22.52598 L 586.66122,26.28693 L 588.75063,30.46575 L 590.42216,35.06246 L 591.67581,39.65917 L 592.51157,44.25588 L 592.51157,553.23691 C 592.81802,561.03738 587.46912,576.10901 580.81086,580.81716 L 577.4678,584.16022 L 573.70685,586.66752 L 569.52803,588.75693 L 564.93132,590.42846 L 560.33461,591.68211 L 555.7379,592.51787 L 46.33899,592.51787"
     style="fill:#fffefe;fill-rule:evenodd;stroke:black;stroke-opacity:1"
     id="path46" />
  <path
     d="M 217.95313,206.80528 C 212.93236,206.71273 206.83989,214.53176 206.73438,218.36778 L 206.76563,381.77403 C 206.87113,385.61006 212.96361,393.42908 217.98438,393.33653 C 217.98438,393.33653 382.04688,393.18028 382.04688,393.18028 C 387.06765,393.27284 393.16012,385.4538 393.26563,381.61778 L 393.23438,218.21153 C 393.12887,214.37551 387.0364,206.55648 382.01563,206.64903 C 382.01563,206.64903 217.95313,206.80528 217.95313,206.80528 z "
     style="fill:#999;fill-opacity:1;fill-rule:nonzero;stroke:none;stroke-width:10;stroke-linecap:round;stroke-linejoin:miter;stroke-miterlimit:4;stroke-dashoffset:0;stroke-opacity:1"
     id="rect1887" />
  <path
     d="M 46.33899,592.51787 L 44.24958,592.51787 M 44.24958,592.51787 L 39.65287,591.68211 M 39.65287,591.68211 L 35.05616,590.42846 M 35.05616,590.42846 L 30.45945,588.75693 M 30.45945,588.75693 L 26.28063,586.66752 M 26.28063,586.66752 L 22.51968,584.16022 M 22.51968,584.16022 L 18.75874,580.81716 M 18.75874,580.81716 L 15.83356,577.4741 M 15.83356,577.4741 L 13.32627,573.71315 M 13.32627,573.71315 L 10.81897,569.53433 M 10.81897,569.53433 L 9.14744,564.93762 M 9.14744,564.93762 L 8.31168,560.34091 M 8.31168,560.34091 L 7.47591,555.7442 M 7.47591,555.7442 L 7.47591,553.23691 L 7.47591,46.34529 L 7.47591,44.25588 M 7.47591,44.25588 L 8.31168,39.65917 M 8.31168,39.65917 L 9.14744,35.06246 M 9.14744,35.06246 L 10.81897,30.46575 M 10.81897,30.46575 L 13.32627,26.28693 M 13.32627,26.28693 L 15.83356,22.52598 M 15.83356,22.52598 L 18.75874,18.76504 M 18.75874,18.76504 L 22.51968,15.83986 M 22.51968,15.83986 L 26.28063,13.33257 M 26.28063,13.33257 L 30.45945,10.82527 M 30.45945,10.82527 L 35.05616,9.15374 M 35.05616,9.15374 L 39.65287,8.31798 L 44.24958,7.48221 M 44.24958,7.48221 L 46.33899,7.48221 L 553.23061,7.48221 L 555.7379,7.48221 M 555.7379,7.48221 L 560.33461,8.31798 L 564.93132,9.15374 M 564.93132,9.15374 L 569.52803,10.82527 M 569.52803,10.82527 L 573.70685,13.33257 M 573.70685,13.33257 L 577.4678,15.83986 M 577.4678,15.83986 L 580.81086,18.76504 M 580.81086,18.76504 L 584.15392,22.52598 M 584.15392,22.52598 L 586.66122,26.28693 M 586.66122,26.28693 L 588.75063,30.46575 M 588.75063,30.46575 L 590.42216,35.06246 M 590.42216,35.06246 L 591.67581,39.65917 M 591.67581,39.65917 L 592.51157,44.25588 M 592.51157,44.25588 L 592.51157,46.34529 L 592.51157,553.23691 L 592.51157,555.7442 M 592.51157,555.7442 L 591.67581,560.34091 M 591.67581,560.34091 L 590.42216,564.93762 M 590.42216,564.93762 L 588.75063,569.53433 M 588.75063,569.53433 L 586.66122,573.71315 M 586.66122,573.71315 L 584.15392,577.4741 M 584.15392,577.4741 L 580.81086,580.81716 L 577.4678,584.16022 M 577.4678,584.16022 L 573.70685,586.66752 M 573.70685,586.66752 L 569.52803,588.75693 M 569.52803,588.75693 L 564.93132,590.42846 M 564.93132,590.42846 L 560.33461,591.68211 M 560.33461,591.68211 L 555.7379,592.51787 M 555.7379,592.51787 L 553.23061,592.51787 M 553.23061,592.51787 L 46.33899,592.51787"
     id="path48" />
  <path
     d="M 29.257092,206.80528 C 29.257092,206.80528 29.785887,393.33653 29.785887,393.33653 C 29.785887,393.33653 108.76814,393.18028 108.76814,393.18028 C 113.78891,393.27284 119.88138,385.4538 119.98689,381.61778 L 119.95564,218.21153 C 119.85014,214.37551 113.75766,206.55648 108.73689,206.64903 C 108.73689,206.64903 29.257092,206.80528 29.257092,206.80528 z "
     style="fill:#999;fill-opacity:1;fill-rule:nonzero;stroke:none;stroke-width:10;stroke-linecap:round;stroke-linejoin:miter;stroke-miterlimit:4;stroke-dashoffset:0;stroke-opacity:1"
     id="path2801" />
  <path
     d="M 570.7728,206.81291 C 570.7728,206.81291 570.24401,393.34416 570.24401,393.34416 C 570.24401,393.34416 491.26175,393.18791 491.26175,393.18791 C 486.24098,393.28047 480.14851,385.46143 480.043,381.62541 L 480.07425,218.21916 C 480.17975,214.38314 486.27223,206.56411 491.293,206.65666 C 491.293,206.65666 570.7728,206.81291 570.7728,206.81291 z "
     style="fill:#999;fill-opacity:1;fill-rule:nonzero;stroke:none;stroke-width:10;stroke-linecap:round;stroke-linejoin:miter;stroke-miterlimit:4;stroke-dashoffset:0;stroke-opacity:1"
     id="path2803" />
  <path
     d="M 393.18709,30.426724 C 393.18709,30.426724 206.65585,30.955524 206.65585,30.955524 C 206.65585,30.955524 206.8121,109.93778 206.8121,109.93778 C 206.71954,114.95855 214.53858,121.05102 218.3746,121.15653 L 381.78084,121.12528 C 385.61686,121.01978 393.43589,114.9273 393.34334,109.90653 C 393.34334,109.90653 393.18709,30.426724 393.18709,30.426724 z "
     style="fill:#999;fill-opacity:1;fill-rule:nonzero;stroke:none;stroke-width:10;stroke-linecap:round;stroke-linejoin:miter;stroke-miterlimit:4;stroke-dashoffset:0;stroke-opacity:1"
     id="path2805" />
  <path
     d="M 206.81291,570.07591 C 206.81291,570.07591 570.66028,570.25075 570.66028,570.25075 C 570.66028,570.25075 570.1997,479.34611 570.1997,479.34611 L 218.21916,479.37736 C 214.38314,479.48286 206.56411,485.57534 206.65666,490.59611 C 206.65666,490.59611 206.81291,570.07591 206.81291,570.07591 z "
     style="fill:#999;fill-opacity:1;fill-rule:nonzero;stroke:none;stroke-width:10;stroke-linecap:round;stroke-linejoin:miter;stroke-miterlimit:4;stroke-dashoffset:0;stroke-opacity:1"
     id="path2807" />
  <path
     d="M 119.22161,569.98849 C 119.22161,569.98849 29.0884,570.16333 29.0884,570.16333 C 29.0884,570.16333 29.54898,479.25869 29.54898,479.25869 L 107.81536,479.28994 C 111.65138,479.39544 119.47041,485.48792 119.37786,490.50869 C 119.37786,490.50869 119.22161,569.98849 119.22161,569.98849 z "
     style="fill:#999;fill-opacity:1;fill-rule:nonzero;stroke:none;stroke-width:10;stroke-linecap:round;stroke-linejoin:miter;stroke-miterlimit:4;stroke-dashoffset:0;stroke-opacity:1"
     id="path2809" />
  <path
     d="M 479.92393,29.106877 C 479.92393,29.106877 570.05714,28.932037 570.05714,28.932037 C 570.05714,28.932037 569.59656,119.83668 569.59656,119.83668 L 491.33018,119.80543 C 487.49416,119.69993 479.67513,113.60745 479.76768,108.58668 C 479.76768,108.58668 479.92393,29.106877 479.92393,29.106877 z "
     style="fill:#999;fill-opacity:1;fill-rule:nonzero;stroke:none;stroke-width:10;stroke-linecap:round;stroke-linejoin:miter;stroke-miterlimit:4;stroke-dashoffset:0;stroke-opacity:1"
     id="path2811" />
  <path
     d="M 28.604237,119.37243 C 28.604237,119.37243 28.429397,29.23922 28.429397,29.23922 C 28.429397,29.23922 119.33404,29.6998 119.33404,29.6998 L 119.30279,107.96618 C 119.19729,111.8022 113.10481,119.62123 108.08404,119.52868 C 108.08404,119.52868 28.604237,119.37243 28.604237,119.37243 z "
     style="fill:#999;fill-opacity:1;fill-rule:nonzero;stroke:none;stroke-width:10;stroke-linecap:round;stroke-linejoin:miter;stroke-miterlimit:4;stroke-dashoffset:0;stroke-opacity:1"
     id="path2813" />
  <path
     d="M 52.971361,575.52467 C 45.58591,575.61969 38.343001,572.41571 33.014348,567.37894 L 30.570626,564.93522 L 28.534199,561.67693 L 27.312339,558.82592 L 26.090477,555.56764 L 25.27591,552.30935 L 24.868617,549.05106 L 24.461334,547.01463 L 24.461334,52.976521 C 25.61531,46.181634 27.142634,37.526799 33.014348,33.019507 L 35.458059,30.575785 L 38.309063,28.539358 L 44.82564,26.095637 L 48.083929,25.28107 L 51.342216,24.873776 L 52.971361,24.473276 L 547.00947,24.473276 C 554.25916,25.484711 562.37772,27.168152 567.37377,33.02629 L 569.4102,35.470012 L 571.44663,38.314223 L 573.07577,41.572511 L 574.29763,44.8308 L 575.11221,48.089087 L 575.5195,51.347376 L 575.5195,547.01463 C 575.83175,554.60372 572.29514,561.79912 567.37377,567.37894 L 564.93005,569.41537 L 561.67177,571.4518 L 558.82076,573.08094 L 555.56247,574.3028 L 552.30418,575.11738 L 549.04589,575.52467 L 52.971361,575.52467"
     style="fill:none;fill-rule:evenodd;stroke:black;stroke-width:15;stroke-miterlimit:4;stroke-dasharray:none"
     id="path50" />
  <path
     d="M 163.79572,571.68056 L 164.49179,489.95293 C 164.49179,465.10969 189.75834,436.75659 215.31243,436.75659 L 377.98083,436.75659 C 407.72523,436.75659 436.80626,410.67507 436.80626,378.32458 L 436.80626,222.23858 C 436.80626,190.92772 407.12695,163.90494 385.60733,163.90494 L 129.09061,163.90494"
     style="opacity:1;fill:none;fill-opacity:0.75;fill-rule:evenodd;stroke:black;stroke-width:30;stroke-linecap:butt;stroke-linejoin:miter;stroke-miterlimit:4;stroke-opacity:1"
     id="path2815" />
  <path
     d="M 124.9375,120.84375 L 60.8125,164.09375 L 124.96875,207.3125 C 128.32151,209.2747 135.62718,207.48028 134.875,200.34375 L 129.21875,178.5625 L 129.21875,149.625 L 134.84375,127.84375 C 135.26723,122.06867 129.95881,118.73395 124.9375,120.84375 z "
     style="fill:black;fill-opacity:1;fill-rule:evenodd;stroke:none;stroke-width:1px;stroke-linecap:butt;stroke-linejoin:miter;stroke-opacity:1"
     id="path5472" />
</svg>
