<?xml version="1.0" encoding="UTF-8" standalone="no"?>
<!-- Created with Inkscape (http://www.inkscape.org/) -->

<svg
   xmlns:dc="http://purl.org/dc/elements/1.1/"
   xmlns:cc="http://creativecommons.org/ns#"
   xmlns:rdf="http://www.w3.org/1999/02/22-rdf-syntax-ns#"
   xmlns:svg="http://www.w3.org/2000/svg"
   xmlns="http://www.w3.org/2000/svg"
   xmlns:sodipodi="http://sodipodi.sourceforge.net/DTD/sodipodi-0.dtd"
   xmlns:inkscape="http://www.inkscape.org/namespaces/inkscape"
   version="1.0"
   width="870.40881"
   height="952.69543"
   id="svg2"
   inkscape:version="0.48.1 r9760"
   sodipodi:docname="Zeichen_449.svg">
  <metadata
     id="metadata19">
    <rdf:RDF>
      <cc:Work
         rdf:about="">
        <dc:format>image/svg+xml</dc:format>
        <dc:type
           rdf:resource="http://purl.org/dc/dcmitype/StillImage" />
        <dc:title></dc:title>
      </cc:Work>
    </rdf:RDF>
  </metadata>
  <sodipodi:namedview
     pagecolor="#ffffff"
     bordercolor="#666666"
     borderopacity="1"
     objecttolerance="10"
     gridtolerance="10"
     guidetolerance="10"
     inkscape:pageopacity="0"
     inkscape:pageshadow="2"
     inkscape:window-width="1280"
     inkscape:window-height="976"
     id="namedview17"
     showgrid="false"
     inkscape:zoom="0.24329897"
     inkscape:cx="435.2044"
     inkscape:cy="476.34772"
     inkscape:window-x="0"
     inkscape:window-y="0"
     inkscape:window-maximized="0"
     inkscape:current-layer="svg2" />
  <defs
     id="defs9">
    <inkscape:perspective
       sodipodi:type="inkscape:persp3d"
       inkscape:vp_x="0 : 485 : 1"
       inkscape:vp_y="0 : 1000 : 0"
       inkscape:vp_z="980 : 485 : 1"
       inkscape:persp3d-origin="490 : 323.33333 : 1"
       id="perspective21" />
  </defs>
  <path
     d="M 0.95587033,49.329649 1.1572963,918.22993 c 0,22.57405 6.151805,32.82457 18.9977237,32.82457 l 830.98896,0.68507 c 6.9118,0 18.30895,-18.18615 18.30895,-33.78222 l -0.0526,-881.230587 c 0,-15.447564 -10.04191,-34.6205094 -20.80044,-34.6205094 L 32.04908,0.9577848 C 7.3060593,0.734116 0.95587033,20.127677 0.95587033,49.329649 z"
     style="fill:#ffffff;fill-opacity:1;fill-rule:evenodd;stroke:#000000;stroke-width:1.91174066;stroke-linecap:butt;stroke-linejoin:miter;stroke-miterlimit:4;stroke-opacity:1;stroke-dasharray:none"
     id="path3829" />
  <path
     d="M 20.446387,38.202696 20.461117,909.937 c 0,14.29932 4.959354,19.30743 11.603117,19.30743 l 814.248286,0.2586 c 3.15438,0 6.76837,-8.93992 6.76837,-14.07999 L 852.78243,40.602263 C 852.65442,32.220514 844.86602,22.772095 840.1047,22.772095 L 32.296429,22.512176 c -6.650021,0 -11.850042,7.464287 -11.850042,15.69052 z"
     style="fill:#154889;fill-opacity:1;fill-rule:evenodd;stroke:none"
     id="path2057" />
  <g
     transform="matrix(0.680442,0,0,0.680442,-174.6895,4.1146496)"
     id="g3860">
    <rect
       width="260.81552"
       height="156.22784"
       rx="9.999999"
       ry="9.999999"
       x="376.99704"
       y="94.209915"
       style="fill:#ffffff;stroke:#000000;stroke-width:0.3268365"
       id="rect3841" />
    <path
       d="m 385.82162,172.32384 0,-49.67915 c 0,-1.74313 1.30735,-3.05047 3.92204,-3.92204 l 115.04645,-18.17211 c 0,-0.0871 0.87156,-0.13073 2.61469,-0.13073 1.74312,0 2.61469,0.0436 2.61469,0.13073 l 115.04645,18.17211 c 2.61469,0.87157 3.92204,2.17891 3.92204,3.92204 l 0,99.3583 c 0,1.74313 -1.30735,3.05047 -3.92204,3.92204 l -115.04645,18.17211 c 0,0.0872 -0.87157,0.13073 -2.61469,0.13073 -1.74313,0 -2.61469,-0.0436 -2.61469,-0.13073 L 389.74366,225.92503 c -2.61469,-0.87157 -3.92204,-2.17891 -3.92204,-3.92204"
       style="fill:#154889;stroke:none;fill-opacity:1"
       id="path3843" />
  </g>
  <path
     d="m 166.16374,124.97385 0,-7.93374 2.80794,0 c 2.70392,5e-5 4.84238,-0.84076 6.41537,-2.52241 1.57295,-1.68156 2.35943,-3.81591 2.35946,-6.40304 -3e-5,-2.55829 -0.81902,-4.71419 -2.45695,-6.46771 -1.63799,-1.75342 -3.58795,-2.63015 -5.84988,-2.63021 -1.71599,6e-5 -3.34095,0.63246 -4.87491,1.8972 -1.53398,1.26485 -2.52195,3.16204 -2.96394,5.69159 l -8.15083,0 c 0.31199,-4.42674 1.98895,-8.30018 5.03089,-11.62033 3.04194,-3.32003 6.59086,-4.98008 10.64679,-4.980143 5.06988,6.3e-5 9.13228,1.846953 12.18726,5.540673 3.0549,3.69384 4.58236,7.82599 4.5824,12.39647 -4e-5,2.41465 -0.42902,4.76459 -1.28697,7.04981 -0.85802,2.28529 -2.45698,4.26154 -4.7969,5.92873 2.39191,1.69601 4.10788,3.78005 5.14789,6.25214 1.03995,2.47213 1.55993,4.97297 1.55997,7.50254 -4e-5,5.86409 -1.66401,10.53521 -4.9919,14.01339 -3.32796,3.47819 -7.40988,5.21729 -12.24575,5.21729 -3.84794,0 -7.31236,-1.37259 -10.39329,-4.11778 -3.08094,-2.74518 -4.99841,-6.74797 -5.75239,-12.00839 l 8.15084,0 c 0.75398,2.15592 1.76795,3.88783 3.04194,5.19573 1.27396,1.30793 3.08092,1.96188 5.42088,1.96188 2.26194,0 4.2639,-0.88392 6.00589,-2.65176 1.74194,-1.76784 2.61292,-4.20401 2.61294,-7.30853 -2e-5,-3.13323 -0.86451,-5.58377 -2.59345,-7.35164 -1.72899,-1.76781 -3.78944,-2.65173 -6.18136,-2.65176 l -3.43194,0 z"
     style="font-size:83.98232269px;font-style:normal;font-variant:normal;font-weight:normal;font-stretch:normal;text-align:center;line-height:100%;writing-mode:lr-tb;text-anchor:middle;fill:#ffffff;fill-opacity:1;stroke:none;font-family:DIN 1451 Mittelschrift"
     id="text5995" />
  <path
     d="m 571.80556,883.74235 0,-51.39288 10.3479,0 0,5.49577 0.19804,0 c 3.26774,-4.05988 7.72376,-6.08986 13.36809,-6.08991 3.59779,5e-5 6.45295,0.64371 8.56547,1.93094 2.11245,1.28736 4.09291,2.87171 5.94138,4.75311 4.05989,-4.45598 9.47313,-6.684 16.23975,-6.68405 3.99386,5e-5 7.8475,1.51841 11.56093,4.55506 3.71328,3.03674 5.56996,7.45976 5.57003,13.26907 l 0,34.16289 -10.34788,0 0,-30.59807 c -7e-5,-3.46576 -0.9738,-6.17239 -2.92118,-8.11988 -1.94752,-1.9474 -4.35707,-2.92113 -7.22867,-2.92118 -2.97075,5e-5 -5.42156,0.97378 -7.35246,2.92118 -1.93099,1.94749 -2.89646,4.65412 -2.89642,8.11988 l 0,30.59807 -10.29837,0 0,-30.59807 c -4e-5,-3.46576 -0.97376,-6.17239 -2.92118,-8.11988 -1.94748,-1.9474 -4.35703,-2.92113 -7.22868,-2.92118 -2.9707,5e-5 -5.42151,0.97378 -7.35244,2.92118 -1.93097,1.94749 -2.89644,4.65412 -2.89641,8.11988 l 0,30.59807 -10.3479,0 z"
     style="font-size:164.37692261px;font-style:normal;font-variant:normal;font-weight:normal;font-stretch:normal;text-align:center;line-height:100%;writing-mode:lr-tb;text-anchor:middle;fill:#ffffff;fill-opacity:1;stroke:none;font-family:DIN 1451 Mittelschrift"
     id="text5811" />
  <path
     d="m 306.56812,160.98406 0,-76.641535 10.99387,0 21.98776,49.972175 21.51434,-49.972175 10.99387,0 0,76.641535 -11.6251,0 0,-47.81548 -0.21041,0 -16.0437,36.8742 -9.67882,0 -16.0437,-36.8742 -0.26301,0 0,47.81548 -11.6251,0 z m 78.00919,-27.35319 c -1e-5,-5.85636 0.45588,-10.22234 1.36766,-13.09797 0.91176,-2.87555 2.41969,-5.47059 4.52379,-7.78514 1.50792,-1.64815 3.58571,-3.22622 6.23337,-4.7342 2.64763,-1.50788 6.11061,-2.26185 10.38895,-2.2619 4.20816,5e-5 7.64484,0.75402 10.31005,2.2619 2.66515,1.50798 4.7517,3.08605 6.25968,4.7342 2.10404,2.31455 3.61197,4.90959 4.52379,7.78514 0.91173,2.87563 1.36761,7.24161 1.36766,13.09797 -5e-5,5.96161 -0.45593,10.3802 -1.36766,13.25578 -0.91182,2.8756 -2.41975,5.47064 -4.52379,7.78513 -1.50798,1.68328 -3.59453,3.26135 -6.25968,4.73421 -2.66521,1.47286 -6.10189,2.2093 -10.31005,2.2093 -4.27834,0 -7.74132,-0.73644 -10.38895,-2.2093 -2.64766,-1.47286 -4.72545,-3.05093 -6.23337,-4.73421 -2.1041,-2.31449 -3.61203,-4.90953 -4.52379,-7.78513 -0.91178,-2.87558 -1.36767,-7.29417 -1.36766,-13.25578 l 0,0 z m 34.03368,0.1052 c -4e-5,-3.96267 -0.20168,-6.75059 -0.60493,-8.36376 -0.40332,-1.6131 -1.09592,-3.1561 -2.07779,-4.629 -1.92879,-2.66514 -4.87451,-3.99773 -8.83719,-3.99777 -4.03286,4e-5 -6.97859,1.33263 -8.83718,3.99777 -1.05206,1.4729 -1.76219,3.0159 -2.13039,4.629 -0.36823,1.61317 -0.55234,4.36602 -0.55233,8.25856 -1e-5,3.9978 0.1841,6.81202 0.55233,8.44267 0.3682,1.63068 1.07833,3.16492 2.13039,4.6027 1.85859,2.66519 4.80432,3.99778 8.83718,3.99777 3.96268,1e-5 6.9084,-1.33258 8.83719,-3.99777 0.98187,-1.43778 1.67447,-2.96325 2.07779,-4.5764 0.40325,-1.61312 0.60489,-4.40104 0.60493,-8.36377 l 0,0 z m 22.51378,27.24799 0,-54.60118 10.99388,0 0,5.83886 0.21041,0 c 3.40159,-4.31334 8.13579,-6.47003 14.20261,-6.47008 4.24322,5e-5 8.33742,1.61319 12.28264,4.83941 3.94512,3.22632 5.9177,7.92545 5.91775,14.09741 l 0,36.29558 -10.99387,0 0,-32.50821 c -4e-5,-3.68213 -1.02579,-6.55772 -3.07724,-8.62678 -2.05152,-2.06898 -4.60273,-3.10349 -7.65363,-3.10353 -3.15616,4e-5 -5.75997,1.03455 -7.81144,3.10353 -2.05151,2.06906 -3.07725,4.94465 -3.07723,8.62678 l 0,32.50821 -10.99388,0 z m 58.49373,-54.60118 0,-16.569717 10.99388,0 0,16.569717 7.99554,0 0,8.41637 -7.99554,0 0,31.77178 c -2e-5,2.73533 1.2975,4.10299 3.89257,4.10298 l 4.10297,0 0,10.31005 -5.73364,0 c -3.82245,0 -6.98736,-1.15725 -9.49472,-3.47175 -2.50738,-2.3145 -3.76107,-5.62844 -3.76106,-9.94183 l 0,-32.77123 -5.47064,0 0,-8.41637 5.47064,0 z m 57.91513,54.60118 0,-4.83941 -0.26301,0 c -2.20933,3.64709 -6.69805,5.47064 -13.46619,5.47064 -6.10188,0 -10.83608,-1.58684 -14.20261,-4.76051 -3.36655,-3.17366 -5.04983,-7.14513 -5.04982,-11.91442 -10e-6,-4.31337 1.49039,-8.08319 4.47119,-11.30949 2.98079,-3.22624 7.41691,-4.83938 13.30838,-4.83941 l 15.20206,0 0,-5.68105 c -3e-5,-4.66403 -3.73479,-6.99606 -11.20429,-6.9961 -5.19011,4e-5 -8.64432,1.38523 -10.36265,4.15558 l -8.62677,-6.52269 c 3.82242,-5.33031 9.95935,-7.99549 18.4108,-7.99554 6.73306,5e-5 12.20369,1.31511 16.41191,3.94517 4.20814,2.63016 6.31223,7.31176 6.31228,14.04481 l 0,37.24242 -10.94128,0 z m 0,-19.14723 0,-3.99778 -13.15057,0 c -6.34736,3e-5 -9.52103,2.19179 -9.52101,6.57529 -2e-5,1.85863 0.79778,3.47176 2.3934,4.83941 1.59558,1.36767 4.252,2.0515 7.96925,2.05149 4.55883,1e-5 7.75003,-0.50848 9.57361,-1.52547 1.82351,-1.01696 2.73529,-3.66461 2.73532,-7.94294 l 0,0 z m 25.1965,19.14723 0,-76.641535 10.99388,0 0,27.879215 c 2.03393,-1.9287 4.18186,-3.48923 6.44378,-4.68161 2.26187,-1.19226 4.81308,-1.78842 7.65363,-1.78847 3.33144,5e-5 6.20703,0.67511 8.62678,2.02519 2.41966,1.35017 4.41854,3.04221 5.99666,5.07612 1.50788,1.96386 2.53362,4.25206 3.07723,6.86459 0.54351,2.61262 0.81529,7.25039 0.81534,13.91331 -5e-5,6.73311 -0.27183,11.42348 -0.81534,14.07111 -0.54361,2.64766 -1.56935,4.93586 -3.07723,6.8646 -1.57812,2.06903 -3.577,3.76107 -5.99666,5.07612 -2.41975,1.31506 -5.29534,1.97259 -8.62678,1.97259 -5.61094,0 -10.31007,-2.10409 -14.09741,-6.31228 l 0,5.68105 -10.99388,0 z m 21.77735,-44.23852 c -5.15505,4e-5 -8.24105,1.84112 -9.25801,5.52324 -1.01699,3.68219 -1.52548,7.46955 -1.52546,11.36209 -2e-5,3.9978 0.50847,7.83776 1.52546,11.5199 1.01696,3.68217 4.10296,5.52325 9.25801,5.52324 5.15499,1e-5 8.24975,-1.77093 9.2843,-5.31283 1.03447,-3.54187 1.55173,-7.45197 1.55177,-11.73031 -4e-5,-4.17308 -0.5173,-8.03058 -1.55177,-11.5725 -1.03455,-3.54185 -4.12931,-5.31279 -9.2843,-5.31283 l 0,0 z m 62.85971,44.23852 0,-4.83941 -0.26301,0 c -2.20933,3.64709 -6.69806,5.47064 -13.46619,5.47064 -6.10188,0 -10.83608,-1.58684 -14.20262,-4.76051 -3.36655,-3.17366 -5.04982,-7.14513 -5.04982,-11.91442 0,-4.31337 1.4904,-8.08319 4.4712,-11.30949 2.98078,-3.22624 7.41691,-4.83938 13.30838,-4.83941 l 15.20206,0 0,-5.68105 c -4e-5,-4.66403 -3.7348,-6.99606 -11.20429,-6.9961 -5.19011,4e-5 -8.64432,1.38523 -10.36265,4.15558 l -8.62677,-6.52269 c 3.82242,-5.33031 9.95935,-7.99549 18.4108,-7.99554 6.73306,5e-5 12.20369,1.31511 16.41191,3.94517 4.20814,2.63016 6.31223,7.31176 6.31227,14.04481 l 0,37.24242 -10.94127,0 z m 0,-19.14723 0,-3.99778 -13.15057,0 c -6.34736,3e-5 -9.52103,2.19179 -9.52102,6.57529 -10e-6,1.85863 0.79779,3.47176 2.39341,4.83941 1.59558,1.36767 4.25199,2.0515 7.96924,2.05149 4.55884,1e-5 7.75004,-0.50848 9.57362,-1.52547 1.82351,-1.01696 2.73528,-3.66461 2.73532,-7.94294 l 0,0 z m 25.1965,0.84163 0,-36.29558 10.99388,0 0,32.56082 c -2e-5,3.71725 1.02572,6.6016 3.07723,8.65308 2.05147,2.0515 4.65528,3.07724 7.81144,3.07723 3.0509,1e-5 5.60211,-1.02573 7.65363,-3.07723 2.05145,-2.05148 3.0772,-4.93583 3.07724,-8.65308 l 0,-32.56082 10.99387,0 0,54.60118 -10.99387,0 0,-5.78625 -0.21041,0 c -3.40165,4.27832 -8.10079,6.41748 -14.09742,6.41748 -4.31341,0 -8.44268,-1.60437 -12.38784,-4.81311 -3.94518,-3.20874 -5.91776,-7.91664 -5.91775,-14.12372 l 0,0 z m 57.86252,18.3056 0,-54.60118 10.99387,0 0,5.83886 0.21041,0 c 3.4016,-4.31334 8.1358,-6.47003 14.20262,-6.47008 3.99774,5e-5 7.80263,1.40278 11.4147,4.20818 l -7.94295,9.46841 c -2.38467,-1.78843 -4.80437,-2.68267 -7.25911,-2.68271 -2.70028,4e-5 -5.14628,0.90304 -7.33802,2.70901 -2.19178,1.80605 -3.28766,4.70794 -3.28765,8.70568 l 0,32.82383 -10.99387,0 z"
     style="font-size:107.72948456px;font-style:normal;font-variant:normal;font-weight:normal;font-stretch:normal;text-align:center;line-height:100%;writing-mode:lr-tb;text-anchor:middle;fill:#ffffff;fill-opacity:1;stroke:none;font-family:DIN 1451 Mittelschrift"
     id="text5835" />
  <path
     d="m 308.9503,418.40201 0,-76.64153 26.82717,0 c 10.48534,8e-5 18.27047,4.29593 23.35541,12.88756 1.89362,3.2614 3.05087,6.31233 3.47175,9.1528 0.42076,2.84057 0.63117,8.27614 0.63123,16.30671 -6e-5,8.6268 -0.28937,14.38675 -0.86794,17.27985 -0.57868,2.89314 -1.72717,5.67229 -3.44545,8.33746 -2.27949,3.57697 -5.40932,6.58406 -9.38951,9.02129 -3.98028,2.43724 -8.81092,3.65586 -14.49193,3.65586 l -26.09073,0 z m 11.62511,-65.64765 0,54.70638 13.9396,0 c 6.38237,1e-5 11.11657,-2.22682 14.20262,-6.68049 1.2624,-1.92873 2.06021,-4.00652 2.3934,-6.23338 0.3331,-2.2268 0.49967,-6.89963 0.49972,-14.0185 -5e-5,-6.87333 -0.18415,-11.62506 -0.55232,-14.25522 -0.36827,-2.63006 -1.32387,-4.99716 -2.86682,-7.10131 -3.19125,-4.27826 -7.75011,-6.41742 -13.6766,-6.41748 l -13.9396,0 z m 55.70582,65.64765 0,-54.60117 10.99388,0 0,54.60117 -10.99388,0 z m 0,-65.64765 0,-10.99388 10.99388,0 0,10.99388 -10.99388,0 z m 67.85695,42.50265 -33.98108,0 c -1e-5,4.48874 1.21861,7.85529 3.65586,10.09964 2.43722,2.24437 5.54952,3.36655 9.33691,3.36654 4.52376,1e-5 8.52153,-1.7534 11.99332,-5.26023 l 7.94295,6.7857 c -2.7003,3.15614 -5.74246,5.40927 -9.1265,6.75939 -3.38412,1.35013 -6.91723,2.02519 -10.59936,2.02519 -5.61094,0 -11.0465,-1.81478 -16.30671,-5.44434 -5.26024,-3.62955 -7.89035,-11.05523 -7.89034,-22.27707 -10e-6,-10.62562 2.42846,-17.9724 7.28541,-22.04035 4.85693,-4.06786 9.93305,-6.10181 15.22836,-6.10187 5.99663,6e-5 11.23932,2.07784 15.72809,6.23337 4.48868,4.15563 6.73304,9.75777 6.73309,16.80643 l 0,9.0476 z m -33.98108,-9.0476 23.03981,0 c -0.17538,-4.10294 -1.33263,-7.24154 -3.47176,-9.41581 -2.13919,-2.17418 -4.8219,-3.26129 -8.04815,-3.26134 -3.26136,5e-5 -5.97038,1.08716 -8.12705,3.26134 -2.15671,2.17427 -3.28766,5.31287 -3.39285,9.41581 l 0,0 z m 41.97663,32.1926 0,-8.67938 27.35319,-36.19037 -25.82772,0 0,-9.73142 39.1887,0 0,8.73198 -27.35319,35.55914 27.35319,0 0,10.31005 -40.71417,0 z"
     style="font-size:107.72948456px;font-style:normal;font-variant:normal;font-weight:normal;font-stretch:normal;text-align:center;line-height:100%;writing-mode:lr-tb;text-anchor:middle;fill:#ffffff;fill-opacity:1;stroke:none;font-family:DIN 1451 Mittelschrift"
     id="text5839" />
  <path
     d="m 325.76799,532.66019 -19.19984,-76.64153 12.30894,0 12.04592,54.49597 0.21041,0 14.88645,-54.49597 8.36376,0 14.88645,54.49597 0.21041,0 12.04592,-54.49597 12.30894,0 -19.19984,76.64153 -9.67882,0 -14.67604,-55.2324 -0.21041,0 -14.62343,55.2324 -9.67882,0 z m 105.04677,0 0,-4.83941 -0.26301,0 c -2.20933,3.64709 -6.69806,5.47064 -13.46619,5.47064 -6.10188,0 -10.83608,-1.58684 -14.20262,-4.76051 -3.36655,-3.17366 -5.04982,-7.14513 -5.04982,-11.91442 0,-4.31336 1.4904,-8.08319 4.4712,-11.30949 2.98078,-3.22624 7.41691,-4.83938 13.30838,-4.83941 l 15.20206,0 0,-5.68105 c -4e-5,-4.66402 -3.7348,-6.99606 -11.20429,-6.9961 -5.19011,4e-5 -8.64433,1.38524 -10.36265,4.15558 l -8.62678,-6.52268 c 3.82243,-5.33032 9.95936,-7.9955 18.4108,-7.99555 6.73307,5e-5 12.2037,1.31511 16.41192,3.94517 4.20814,2.63016 6.31223,7.31176 6.31227,14.04481 l 0,37.24242 -10.94127,0 z m 0,-19.14723 0,-3.99778 -13.15057,0 c -6.34736,3e-5 -9.52103,2.19179 -9.52102,6.57529 -10e-6,1.85863 0.79779,3.47176 2.39341,4.83941 1.59558,1.36767 4.25199,2.0515 7.96924,2.05149 4.55884,10e-6 7.75004,-0.50848 9.57362,-1.52547 1.82351,-1.01696 2.73528,-3.66461 2.73532,-7.94294 l 0,0 z m 25.19649,5.94406 0,-63.43836 10.99388,0 0,62.54412 c -2e-5,2.52492 1.36764,3.78737 4.10298,3.78736 l 3.73476,0 0,10.31005 -4.83941,0 c -3.99779,0 -7.32927,-0.97314 -9.99444,-2.91943 -2.66519,-1.94628 -3.99778,-5.37419 -3.99777,-10.28374 l 0,0 z m 27.77402,0 0,-63.43836 10.99387,0 0,62.54412 c -10e-6,2.52492 1.36764,3.78737 4.10298,3.78736 l 3.73477,0 0,10.31005 -4.83942,0 c -3.99779,0 -7.32926,-0.97314 -9.99443,-2.91943 -2.66519,-1.94628 -3.99778,-5.37419 -3.99777,-10.28374 l 0,0 z m 28.40523,13.20317 0,-54.60117 10.99387,0 0,5.83885 0.21041,0 c 3.47173,-4.31333 8.20593,-6.47003 14.20262,-6.47008 3.8224,5e-5 6.85579,0.68388 9.1002,2.05149 2.24432,1.36771 4.34841,3.05098 6.31227,5.04982 4.31334,-4.73415 10.06451,-7.10126 17.25355,-7.10131 4.24318,5e-5 8.33739,1.61319 12.28264,4.83941 3.94508,3.22632 5.91767,7.92545 5.91775,14.09741 l 0,36.29558 -10.99388,0 0,-32.50821 c -7e-5,-3.68213 -1.03458,-6.55772 -3.10353,-8.62678 -2.06909,-2.06898 -4.62907,-3.10349 -7.67993,-3.10353 -3.1562,4e-5 -5.76001,1.03455 -7.81144,3.10353 -2.05155,2.06906 -3.07729,4.94465 -3.07724,8.62678 l 0,32.50821 -10.94127,0 0,-32.50821 c -4e-5,-3.68213 -1.03455,-6.55772 -3.10354,-8.62678 -2.06906,-2.06898 -4.62903,-3.10349 -7.67993,-3.10353 -3.15617,4e-5 -5.75998,1.03455 -7.81144,3.10353 -2.05151,2.06906 -3.07725,4.94465 -3.07724,8.62678 l 0,32.50821 -10.99387,0 z m 133.39941,-23.14501 -33.98108,0 c -10e-6,4.48875 1.21861,7.85529 3.65586,10.09964 2.43722,2.24438 5.54952,3.36656 9.33691,3.36655 4.52376,10e-6 8.52153,-1.7534 11.99332,-5.26023 l 7.94295,6.7857 c -2.7003,3.15614 -5.74246,5.40927 -9.1265,6.75939 -3.38412,1.35013 -6.91723,2.02519 -10.59936,2.02519 -5.61094,0 -11.0465,-1.81478 -16.30671,-5.44434 -5.26024,-3.62955 -7.89035,-11.05523 -7.89034,-22.27707 -10e-6,-10.62562 2.42846,-17.9724 7.28541,-22.04036 4.85693,-4.06785 9.93305,-6.10181 15.22836,-6.10186 5.99663,5e-5 11.23932,2.07784 15.72809,6.23337 4.48868,4.15563 6.73304,9.75776 6.73309,16.80643 l 0,9.04759 z m -33.98108,-9.04759 23.03981,0 c -0.17538,-4.10294 -1.33263,-7.24154 -3.47176,-9.41581 -2.13919,-2.17418 -4.8219,-3.2613 -8.04815,-3.26134 -3.26136,4e-5 -5.97038,1.08716 -8.12705,3.26134 -2.15671,2.17427 -3.28766,5.31287 -3.39285,9.41581 l 0,0 z m 45.55356,32.1926 0,-54.60117 10.99388,0 0,5.83885 0.2104,0 c 3.4016,-4.31333 8.1358,-6.47003 14.20262,-6.47008 3.99774,5e-5 7.80263,1.40278 11.4147,4.20818 l -7.94295,9.46841 c -2.38467,-1.78843 -4.80437,-2.68267 -7.25911,-2.68271 -2.70028,4e-5 -5.14628,0.90305 -7.33802,2.70902 -2.19178,1.80605 -3.28766,4.70794 -3.28764,8.70567 l 0,32.82383 -10.99388,0 z M 696.3511,505.307 c 0,-5.85635 0.45588,-10.22234 1.36766,-13.09797 0.91177,-2.87555 2.4197,-5.47059 4.5238,-7.78514 1.50792,-1.64815 3.5857,-3.22622 6.23337,-4.7342 2.64763,-1.50788 6.11061,-2.26185 10.38895,-2.2619 4.20815,5e-5 7.64483,0.75402 10.31005,2.2619 2.66514,1.50798 4.7517,3.08605 6.25967,4.7342 2.10405,2.31455 3.61198,4.90959 4.5238,7.78514 0.91172,2.87563 1.36761,7.24162 1.36766,13.09797 -5e-5,5.96162 -0.45594,10.3802 -1.36766,13.25578 -0.91182,2.8756 -2.41975,5.47064 -4.5238,7.78514 -1.50797,1.68327 -3.59453,3.26134 -6.25967,4.7342 -2.66522,1.47287 -6.1019,2.2093 -10.31005,2.2093 -4.27834,0 -7.74132,-0.73643 -10.38895,-2.2093 -2.64767,-1.47286 -4.72545,-3.05093 -6.23337,-4.7342 -2.1041,-2.3145 -3.61203,-4.90954 -4.5238,-7.78514 -0.91178,-2.87558 -1.36766,-7.29416 -1.36766,-13.25578 l 0,0 z m 34.03368,0.10521 c -4e-5,-3.96268 -0.20168,-6.7506 -0.60493,-8.36377 -0.40332,-1.6131 -1.09591,-3.1561 -2.07779,-4.629 -1.92878,-2.66514 -4.87451,-3.99773 -8.83718,-3.99777 -4.03287,4e-5 -6.97859,1.33263 -8.83719,3.99777 -1.05206,1.4729 -1.76219,3.0159 -2.13039,4.629 -0.36823,1.61317 -0.55234,4.36602 -0.55232,8.25856 -2e-5,3.9978 0.18409,6.81202 0.55232,8.44267 0.3682,1.63069 1.07833,3.16492 2.13039,4.6027 1.8586,2.66519 4.80432,3.99778 8.83719,3.99777 3.96267,10e-6 6.9084,-1.33258 8.83718,-3.99777 0.98188,-1.43778 1.67447,-2.96325 2.07779,-4.5764 0.40325,-1.61312 0.60489,-4.40103 0.60493,-8.36376 l 0,0 z m 55.1272,27.24798 0,-5.68105 c -3.82247,4.20819 -8.5216,6.31228 -14.09741,6.31228 -3.36657,0 -6.25969,-0.65753 -8.67938,-1.97259 -2.41972,-1.31505 -4.40107,-3.00709 -5.94406,-5.07612 -1.54301,-1.92874 -2.57752,-4.21694 -3.10353,-6.8646 -0.52603,-2.64763 -0.78904,-7.338 -0.78904,-14.07111 0,-6.66292 0.26301,-11.30068 0.78904,-13.9133 0.52601,-2.61254 1.56052,-4.90074 3.10353,-6.8646 1.54299,-2.03391 3.52434,-3.72595 5.94406,-5.07612 2.41969,-1.35007 5.31281,-2.02514 8.67938,-2.02519 2.80542,5e-5 5.34787,0.59621 7.62733,1.78848 2.2794,1.19237 4.43609,2.7529 6.47008,4.6816 l 0,-27.87921 10.99388,0 0,76.64153 -10.99388,0 z m -10.73087,-44.23852 c -5.19011,4e-5 -8.30241,1.77098 -9.3369,5.31283 -1.03453,3.54192 -1.55179,7.39942 -1.55177,11.5725 -2e-5,4.27834 0.51724,8.18844 1.55177,11.73031 1.03449,3.5419 4.14679,5.31284 9.3369,5.31283 5.08486,10e-6 8.14455,-1.84107 9.1791,-5.52324 1.03448,-3.68214 1.55173,-7.5221 1.55177,-11.5199 -4e-5,-3.89254 -0.51729,-7.6799 -1.55177,-11.36209 -1.03455,-3.68212 -4.09424,-5.5232 -9.1791,-5.52324 l 0,0 z"
     style="font-size:107.72948456px;font-style:normal;font-variant:normal;font-weight:normal;font-stretch:normal;text-align:center;line-height:100%;writing-mode:lr-tb;text-anchor:middle;fill:#ffffff;fill-opacity:1;stroke:none;font-family:DIN 1451 Mittelschrift"
     id="text5843" />
  <path
     d="m 399.02322,847.92019 0,-41.4506 40.81937,0 0,10.99387 -30.45672,0 0,17.30616 c 3.5068,-2.80541 7.59224,-4.20813 12.25633,-4.20819 2.91063,6e-5 5.56704,0.56115 7.96925,1.68328 2.40213,1.12223 4.30458,2.43728 5.70735,3.94517 2.10404,2.27948 3.63827,4.76055 4.6027,7.44322 0.96432,2.68276 1.44651,7.19778 1.44656,13.54509 -5e-5,5.15505 -0.37703,8.98624 -1.13095,11.4936 -0.75401,2.50739 -1.9551,4.81312 -3.60326,6.9172 -1.57811,1.99889 -3.7874,3.85751 -6.62789,5.57584 -2.84055,1.71835 -6.17203,2.57752 -9.99443,2.57752 -4.94464,0 -9.71391,-1.52547 -14.30782,-4.5764 -4.59394,-3.05093 -7.29419,-8.15335 -8.10075,-15.30727 l 10.99387,0 c 1.29751,5.96161 4.96213,8.9424 10.99388,8.94239 5.3654,10e-6 8.504,-1.84107 9.41581,-5.52324 0.91174,-3.68214 1.36762,-7.32923 1.36766,-10.94128 -4e-5,-4.24322 -0.71893,-7.76757 -2.15669,-10.57306 -1.43783,-2.80541 -4.41863,-4.20814 -8.94239,-4.20818 -4.24328,4e-5 -7.53968,2.12167 -9.88923,6.36488 l -10.36265,0 z"
     style="font-size:107.72948456px;font-style:normal;font-variant:normal;font-weight:normal;font-stretch:normal;text-align:center;line-height:100%;writing-mode:lr-tb;text-anchor:middle;fill:#ffffff;fill-opacity:1;stroke:none;font-family:DIN 1451 Mittelschrift"
     id="text5849" />
  <path
     d="m 485.20536,861.07076 0,-32.56082 c -4e-5,-3.6821 -0.99071,-6.55769 -2.97203,-8.62677 -1.98138,-2.06896 -4.58519,-3.10347 -7.81144,-3.10354 -3.26136,7e-5 -5.87394,1.03458 -7.83774,3.10354 -1.96383,2.06908 -2.94574,4.94467 -2.94573,8.62677 l 0,32.56082 c -10e-6,3.71725 0.9819,6.6016 2.94573,8.65308 1.9638,2.0515 4.57638,3.07724 7.83774,3.07723 3.22625,10e-6 5.83006,-1.02573 7.81144,-3.07723 1.98132,-2.05148 2.97199,-4.93583 2.97203,-8.65308 l 0,0 z m -32.56081,0.63123 0,-33.82327 c -10e-6,-7.04865 2.20929,-12.49298 6.62788,-16.33301 4.41858,-3.83989 9.4684,-5.75988 15.14946,-5.75995 5.64595,7e-5 10.687,1.92006 15.12316,5.75995 4.43608,3.84003 6.65414,9.28436 6.65419,16.33301 l 0,33.82327 c -5e-5,7.04872 -2.21811,12.48428 -6.65419,16.30671 -4.43616,3.82243 -9.47721,5.73365 -15.12316,5.73365 -5.68106,0 -10.73088,-1.91122 -15.14946,-5.73365 -4.41859,-3.82243 -6.62789,-9.25799 -6.62788,-16.30671 l 0,0 z m 84.32146,-0.63123 0,-32.56082 c -3e-5,-3.6821 -0.99071,-6.55769 -2.97203,-8.62677 -1.98138,-2.06896 -4.58519,-3.10347 -7.81144,-3.10354 -3.26136,7e-5 -5.87394,1.03458 -7.83774,3.10354 -1.96383,2.06908 -2.94574,4.94467 -2.94573,8.62677 l 0,32.56082 c -1e-5,3.71725 0.9819,6.6016 2.94573,8.65308 1.9638,2.0515 4.57638,3.07724 7.83774,3.07723 3.22625,10e-6 5.83006,-1.02573 7.81144,-3.07723 1.98132,-2.05148 2.972,-4.93583 2.97203,-8.65308 l 0,0 z m -32.56081,0.63123 0,-33.82327 c -10e-6,-7.04865 2.20929,-12.49298 6.62788,-16.33301 4.41858,-3.83989 9.4684,-5.75988 15.14946,-5.75995 5.64595,7e-5 10.687,1.92006 15.12316,5.75995 4.43608,3.84003 6.65414,9.28436 6.65419,16.33301 l 0,33.82327 c -5e-5,7.04872 -2.21811,12.48428 -6.65419,16.30671 -4.43616,3.82243 -9.47721,5.73365 -15.12316,5.73365 -5.68106,0 -10.73088,-1.91122 -15.14946,-5.73365 -4.41859,-3.82243 -6.62789,-9.25799 -6.62788,-16.30671 l 0,0 z"
     style="font-size:107.72948456px;font-style:normal;font-variant:normal;font-weight:normal;font-stretch:normal;text-align:center;line-height:100%;writing-mode:lr-tb;text-anchor:middle;fill:#ffffff;fill-opacity:1;stroke:none;font-family:DIN 1451 Mittelschrift"
     id="text5853" />
  <path
     d="m 168.73689,213.97087 -51.6875,77.3125 c -2.34631,4.03918 -0.1898,12.84367 8.34375,11.9375 l 26.03125,-6.8125 2.15625,0 0,587.34375 33.15625,0 0,-76.65625 c 10.95447,-55.60032 30.48466,-68.15479 48.3125,-85.65625 l 115.8125,-78.09375 0.78125,1.21875 8.46875,25.53125 c 3.32753,6.07247 10.85808,5.9383 14.5625,0.53125 l 36.71875,-85.40625 -92.96875,-1.34375 c -4.66564,0.22777 -10.90148,6.83167 -5.5,13.5 l 19.125,17.40625 -111.8125,76.15625 c -11.30931,6.67402 -33.84764,31.67392 -33.21875,33.875 l -0.4375,-428.25 25.5,6.59375 c 6.90559,0.51019 10.8978,-5.85692 8.375,-11.90625 l -51.71875,-77.28125 z"
     style="fill:#ffffff;fill-opacity:1;fill-rule:evenodd;stroke:none"
     id="path5858" />
</svg>
