<?xml version="1.0" encoding="UTF-8" standalone="no"?>
<!-- Created with Inkscape (http://www.inkscape.org/) -->

<svg
   xmlns:dc="http://purl.org/dc/elements/1.1/"
   xmlns:cc="http://creativecommons.org/ns#"
   xmlns:rdf="http://www.w3.org/1999/02/22-rdf-syntax-ns#"
   xmlns:svg="http://www.w3.org/2000/svg"
   xmlns="http://www.w3.org/2000/svg"
   xmlns:sodipodi="http://sodipodi.sourceforge.net/DTD/sodipodi-0.dtd"
   xmlns:inkscape="http://www.inkscape.org/namespaces/inkscape"
   height="435"
   width="666"
   version="1.0"
   id="svg2"
   inkscape:version="0.48.1 r9760"
   sodipodi:docname="Zeichen_453.svg">
  <defs
     id="defs68" />
  <sodipodi:namedview
     pagecolor="#ffffff"
     bordercolor="#666666"
     borderopacity="1"
     objecttolerance="10"
     gridtolerance="10"
     guidetolerance="10"
     inkscape:pageopacity="0"
     inkscape:pageshadow="2"
     inkscape:window-width="778"
     inkscape:window-height="809"
     id="namedview66"
     showgrid="false"
     inkscape:zoom="0.54252874"
     inkscape:cx="333"
     inkscape:cy="217.5"
     inkscape:window-x="0"
     inkscape:window-y="0"
     inkscape:window-maximized="0"
     inkscape:current-layer="svg2" />
  <metadata
     id="metadata4">
    <rdf:RDF>
      <cc:Work
         rdf:about="">
        <dc:format>image/svg+xml</dc:format>
        <dc:type
           rdf:resource="http://purl.org/dc/dcmitype/StillImage" />
        <dc:title></dc:title>
      </cc:Work>
    </rdf:RDF>
  </metadata>
  <g
     transform="matrix(0.5,0,0,0.5,-4.8659291,-2.4510819)"
     id="g6">
    <path
       stroke-linejoin="miter"
       d="m10.861,50.366,0.30806,792.83c0,20.598,11.795,29.951,29.055,29.951l1270.9,0.62509c10.571,0,28.002-16.594,28.002-30.825l-0.08-804.08c0-14.095-15.358-31.59-31.812-31.59l-1248.8-1.0612c-37.842-0.2041-47.554,17.491-47.554,44.137z"
       fill-rule="evenodd"
       stroke="#000"
       stroke-linecap="butt"
       stroke-miterlimit="4"
       stroke-dasharray="none"
       stroke-width="2.25836778"
       fill="#FFF"
       id="path8" />
    <path
       fill-rule="evenodd"
       fill="#039"
       d="m30.178,40.944,0.02279,797.28c0,10.492,8.1423,15.915,14.219,15.915l1260.1,0.23601c4.8817,0,14.213-8.1589,14.213-12.85l0.01-803.51c-0.1981-7.6495-12.719-11.155-20.087-11.155l-1256.6-0.241c-3.2827,0-11.798,9.3708-11.798,14.32z"
       id="path10"
       style="fill:#154889;fill-opacity:1" />
    <rect
       rx="10"
       ry="10"
       height="156.23"
       width="260.82"
       stroke="#000"
       y="94.21"
       x="377"
       stroke-width="0.32684"
       fill="#FFF"
       id="rect12" />
    <path
       d="m385.82,122.64c0-1.7431,1.3074-3.0505,3.922-3.922l115.05-18.172c1.8325-0.21408,3.2756-0.18741,5.2294,0l115.05,18.172c2.6147,0.87157,3.922,2.1789,3.922,3.922v99.358c0,1.7431-1.3074,3.0505-3.922,3.922l-115.05,18.172c0,0.0872-0.87157,0.13073-2.6147,0.13073-39.169-5.4527-78.495-12.116-117.66-18.303-2.6147-0.87157-3.922-2.1789-3.922-3.922"
       fill="#039"
       id="path14"
       style="fill:#154889;fill-opacity:1" />
    <g
       transform="matrix(0.860963,0,0,0.860963,-212.273,588.742)"
       id="g16">
      <rect
         rx="11.615"
         ry="11.615"
         height="156.23"
         width="260.82"
         stroke="#000"
         y="94.21"
         x="377"
         stroke-width="0.32684"
         fill="#FFF"
         id="rect18" />
      <path
         fill="#039"
         d="m385.82,172.32,0-49.679c0-1.7431,1.3074-3.0505,3.922-3.922l115.05-18.172c0-0.0871,0.87156-0.13073,2.6147-0.13073s2.6147,0.0436,2.6147,0.13073l115.05,18.172c2.6147,0.87157,3.922,2.1789,3.922,3.922v99.358c0,1.7431-1.3074,3.0505-3.922,3.922l-115.05,18.172c0,0.0872-0.87157,0.13073-2.6147,0.13073s-2.6147-0.0436-2.6147-0.13073l-115.05-18.16c-2.6147-0.87157-3.922-2.1789-3.922-3.922"
         id="path20"
         style="fill:#154889;fill-opacity:1" />
    </g>
    <rect
       rx="22.25"
       ry="22.25"
       height="156.99"
       width="261.64"
       stroke="#000"
       stroke-dasharray="none"
       stroke-miterlimit="4"
       y="93.311"
       x="712.19"
       stroke-width="0.92008"
       fill="#FFF"
       id="rect22" />
    <rect
       rx="18"
       ry="18"
       height="145.87"
       width="250.52"
       y="98.871"
       x="717.75"
       fill="#093"
       id="rect24" />
    <path
       stroke-linejoin="miter"
       d="m98.489,623.18,1153,0.30982"
       stroke="#FFF"
       stroke-linecap="butt"
       stroke-miterlimit="4"
       stroke-dasharray="none"
       stroke-width="15"
       fill="none"
       id="path26" />
    <path
       style="text-align:center;"
       fill="#FFF"
       d="m112.17,404.88,0-103.3,15.669,0,0,53.248c14.46-17.19,28.671-35.502,42.825-53.248h18.647l-33.111,40.769,36.586,62.536h-18.576l-28.219-50.483-18.151,19.002v31.481z"
       id="path28" />
    <path
       style="text-align:center;"
       fill="#FFF"
       d="m198.88,368.02c-0.43948-21.262,9.1578-37.435,30.346-37.578,23.909,0.95634,30.217,18.103,30.275,37.578,0.44628,21.335-8.9358,37.577-30.275,37.72-23.523-0.89612-30.229-17.032-30.346-37.72z"
       id="path30" />
    <path
       style="text-align:center;"
       fill="#039"
       d="m244.75,366.46c-0.0575-11.74-4.7315-21.097-15.528-21.2-13.356,0.11184-15.507,11.384-15.528,22.76-0.74233,10.996,4.0925,22.533,15.528,22.972,14.404-0.76019,15.487-12.586,15.528-24.532z"
       id="path32" />
    <path
       style="text-align:center;"
       fill="#FFF"
       d="m234.12,319.87,0-15.669,15.669,0,0,15.669z"
       id="path34" />
    <path
       style="text-align:center;"
       fill="#FFF"
       d="m208.59,319.87,0-15.669,15.669,0,0,15.669z"
       id="path36" />
    <path
       style="text-align:center;"
       fill="#FFF"
       d="m275.1,387.09,0-85.508,14.819,0,0,84.303c1.1278,6.1133,5.6265,5.105,10.564,5.105v13.897c-13.141,0.80968-24.891-7.5065-25.383-17.797z"
       id="path38" />
    <path
       style="text-align:center;"
       fill="#FFF"
       d="m312.54,404.88,0-73.597,14.819,0,0,7.8702c17.194-16.836,43.242-2.1349,43.96,16.804v48.923h-14.819v-43.818c0.34635-24.232-28.993-20.702-29.141,0v43.818z"
       id="path40" />
    <path
       style="text-align:center;"
       d="m112.17,561.1,0-103.3c24.932,0.0448,54.46-4.0408,67.641,17.371,11.906,26.618,8.0682,73.15-12.94,81.006-17.005,8.017-35.38,4.9277-54.701,4.9277zm15.669-88.486,0,73.739c13.342,0.0379,30.206,1.7145,37.933-9.0046,5.9023-12.296,5.1015-47.465-0.70903-56.084-10.785-11.366-22.38-8.6501-37.224-8.6501zm71.044,51.617c-0.43948-21.262,9.1578-37.434,30.346-37.578,21.504-0.006,31.66,20.509,30.275,37.578,0.44628,21.335-8.9358,37.577-30.275,37.72-24.174-0.88584-30.288-18.108-30.346-37.72zm45.874,0.14181c0.65819-11.607-3.6546-22.748-15.528-22.902-14.029,0.54866-15.509,12.569-15.528,22.76-0.7154,11.717,3.5763,22.82,15.528,22.972,13.991-0.57259,15.508-12.657,15.528-22.831zm30.346,36.728,0-73.597,14.819,0,0,7.8702c11.877-9.1819,24.753-9.43,33.452-3.0488l-9.3454,12.762c-13.059-6.6632-23.966-1.519-24.107,11.77v44.243zm57.289-73.597,0-22.334,14.819,0,0,22.334,10.777,0,0,11.344-10.777,0,0,42.825c0.9511,6.5799,5.5222,5.5304,10.777,5.5304v13.897c-14.748-0.32071-25.423-2.674-25.596-18.08v-44.172h-7.3739v-11.344zm40.273,73.597,0-73.597,14.819,0,0,7.8702,0.28361,0c4.6795-5.8139,11.061-8.7209,19.144-8.721,8.686-0.16238,15.367,4.1158,20.774,9.5718,5.8139-6.3812,13.566-9.5718,23.256-9.5718,13.535-0.017,24.309,10.627,24.532,25.525v48.923h-14.819v-43.818c-0.17323-23.725-28.582-17.843-29.212,0v43.818h-14.748v-43.818c-0.17323-24.206-29.544-20.248-29.212,0v43.818zm122.8-73.597,14.819,0,0,43.889c0.62344,22.642,28.512,18.017,29.141,0v-43.889h14.819v73.597h-14.819v-7.7993c-11.388,8.0789-26.864,12.455-35.983,2.1625-10.301-9.1916-7.3679-47.114-7.9765-67.96zm77.993,73.597,0-73.597,14.819,0,0,7.8702c6.8414-5.6382,12.224-8.6224,19.427-8.721,12.515-0.35726,24.367,12.129,24.532,25.525v48.923h-14.819v-43.818c-0.61592-22.789-28.512-20.221-29.141,0v43.818zm121.95,0,0-7.6575c-5.1523,5.6722-11.486,8.5083-19.002,8.5083-23.961-1.1079-24.932-20.391-24.958-37.72-0.52605-14.143,0.99555-27.892,13.259-34.849,3.2615-1.8198,7.1611-2.7297,11.699-2.7298,7.6434,0.10245,14.03,4.0518,19.002,8.721v-37.578h14.819v103.3zm-29.141-36.869c0.35716,12.453,1.657,22.8,14.677,22.972,14.221-1.2237,14.409-11.851,14.464-22.972,0.23598-10.561-3.435-23.926-15.083-24.176-13.505,1.8854-14.008,13.649-14.058,24.176z"
       fill="#FFF"
       id="path42" />
    <path
       style="text-align:center;"
       d="m893.25,405.11,0-87.636-14.677,10.706,0-15.669,14.677-10.706,14.819,0,0,103.3zm90.968-73.597c-0.0721-9.1814-6.1947-15.541-14.723-15.697-9.4617,0.24515-14.267,7.9581-14.347,15.697v43.889c0.0157,9.435,6.5573,15.856,15.287,15.693,9.5716-0.45335,12.487-5.8609,13.814-15.84zm-43.889-0.85083c1.1624-17.941,11.767-28.663,28.678-29.53,18.756,0.85726,29.828,12.94,30.029,29.53,1.8986,33.192,5.2519,74.486-29.074,75.061-37.894-0.55528-29.902-54.562-29.633-75.061zm101.18-28.857,16.52,0-21.767,43.676,0.2836,0c2.3161-0.89804,4.9395-1.3471,7.8702-1.3472,17.817,1.3322,24.535,14.277,24.674,28.786-1.0588,20.251-11.194,32.795-30.488,33.041-18.408-1.6319-28.598-15.473-28.786-31.41,0.67-15.83,17.959-42.355,31.693-72.746zm-12.55,59.594c-9.6005,11.51-0.8108,29.562,10.494,29.815,9.9307-0.46495,14.74-9.2053,14.819-17.017,0.384-15.656-16.545-20.5-25.312-12.798z"
       fill="#FFF"
       id="path44" />
    <path
       style="text-align:center;"
       d="m936,562.85,0-13.897,40.414-50.554c5.0865-6.2109,4.4212-14.742-0.0709-20.314-10.389-10.177-24.5-2.1074-25.525,10.316h-14.819c0.0473-8.3664,2.907-15.421,8.5792-21.164,20.646-18.243,50-4.2418,50.341,21.023-0.00006,6.9958-2.0562,13.046-6.1685,18.151l-33.253,41.691h39.422v14.748zm66.861-15.315,0-13.968,34.6-74.022,16.52,0-34.955,74.022,26.943,0,0-29.779,14.819,0,0,29.779,8.2956,0,0,13.968-8.2956,0,0,15.315-14.819,0,0-15.315z"
       fill="#FFF"
       id="path46" />
    <path
       style="text-align:center;"
       d="m914.73,787.18,0-87.636-14.677,10.706,0-15.669,14.677-10.706,14.819,0,0,103.3zm78.489-103.3,16.52,0-21.767,43.676c22.149-3.7414,32.652,13.15,32.828,27.439-1.0588,20.251-11.194,32.795-30.488,33.041-18.408-1.6319-28.598-15.473-28.786-31.41,0.90189-21.365,17.429-42.176,31.693-72.746zm-12.55,59.594c-2.8834,2.7652-4.3251,7.0312-4.325,12.798-0.00002,11.344,4.9395,17.017,14.819,17.017,9.9306-0.46495,14.74-9.2053,14.819-17.017-0.1184-15.109-15.09-22.336-25.312-12.798zm73.597,43.711,0-87.636-14.677,10.706,0-15.669,14.677-10.706,14.819,0,0,103.3z"
       fill="#FFF"
       id="path48" />
    <path
       style="text-align:center;"
       d="m1105.4,406.87,0-77.021,11.048,0,0,47.947,21.304-25.797,13.216,0-18.925,21.462,21.515,33.409-13.85,0-14.59-25.639-8.6696,9.8854,0,15.753zm56.881,0,0-54.872,11.048,0,0,5.8678,0.2114,0c3.489-4.3347,8.2466-6.5021,14.273-6.5022,6.4761-0.12109,11.457,3.0686,15.489,7.1365,4.3347-4.7576,10.114-7.1365,17.339-7.1365,10.963,0.60412,18.176,9.7286,18.291,19.031v36.476h-11.048v-32.669c-2.2814-16.971-21.31-13.303-21.78,0v32.669h-10.996v-32.669c-2.2813-16.971-21.31-13.303-21.78,0v32.669z"
       fill="#FFF"
       id="path50" />
    <path
       style="text-align:center;"
       fill="#FFF"
       d="m507.61,215.84,0-74.944-12.551,9.1558,0-13.4,12.551-9.1558,12.673,0,0,88.344-12.673,0z"
       id="path52" />
    <path
       style="text-align:center;"
       fill="#FFF"
       d="m741.18,216.58,0-89.555,57.285,0,0,12.846-43.702,0,0,25.508,37.248,0,0,12.109-37.248,0,0,26.307,43.702,0,0,12.785-57.285,0z"
       id="path54" />
    <path
       style="text-align:center;"
       d="m848.2,175.94,0-11.029c9.56-0.2823,17.67-2.2054,17.802-12.407-0.35292-7.3175-6.2575-12.559-12.767-12.647-6.4303,0.2698-10.945,5.1522-12.048,10.549h-12.527c1.7168-12.838,12.247-22.908,24.095-23.077,14.941,0.97639,25.577,11.045,25.774,24.935-0.0323,7.6108-3.6978,14.328-9.3505,18.042,6.6992,4.52,10.245,11.694,10.31,19.121-1.0598,16.55-11.456,26.545-26.493,26.733-13.687-0.47656-22.866-10.912-24.815-22.417h12.527c2.2727,6.1577,7.2421,9.8938,13.007,9.9499,8.0806-0.34768,13.165-6.9944,13.247-13.846-0.0738-11.385-10.4-13.912-18.761-13.906zm43.636-22.717,0-25.114,49.689,0,0,12.527-29.55,74.804-14.026,0,29.61-74.804-23.196,0,0,12.587z"
       fill="#FFF"
       id="path56" />
    <path
       style="text-align:center;"
       fill="#FFF"
       d="m173.42,763.71,0-10.677,26.449-56.584,12.628,0-26.72,56.584,20.596,0,0-22.764,11.328,0,0,22.764,6.3413,0,0,10.677-6.3413,0,0,11.707-11.328,0,0-11.707-32.953,0zm53.332,0,0-10.677,26.449-56.584,12.628,0-26.72,56.584,20.596,0,0-22.764,11.328,0,0,22.764,6.3413,0,0,10.677-6.3413,0,0,11.707-11.328,0,0-11.707-32.953,0z"
       id="path58" />
    <path
       style="text-align:center;"
       d="m407.46,789.3,0-103.3,15.669,0,0,53.248,0.35451,0,42.471-53.248,18.647,0-33.111,40.769,36.586,62.536-18.576,0-28.219-50.483-18.151,19.002,0,31.481zm128.97,0,0-6.523-0.35452,0c-2.978,4.9159-9.0283,7.3739-18.151,7.3739-14.899-0.74422-25.756-8.1481-25.95-22.476,0.89925-23.795,29.095-21.857,44.456-21.767v-7.6575c-1.0115-12.37-24.078-11.431-29.07-3.8287l-11.628-8.7919c11.901-12.844,33.287-13.733,46.937-5.4595,5.6721,3.5452,8.5082,9.8555,8.5083,18.931v50.199zm0-31.197c-9.3521,0.0905-30.246-2.2573-30.559,8.8628,0.53285,7.5503,8.6214,9.2503,13.968,9.2882,15.281,0.11871,16.613-4.703,16.591-18.151zm25.809,18.931,10.352-10.21c6.4285,6.2867,14.157,9.43,23.185,9.43,6.5008-0.0184,14.762-1.3983,14.535-9.43-0.43828-10.313-25.759-4.6127-37.224-14.464-4.0178-3.5451-6.0267-8.4846-6.0267-14.819,1.0667-22.966,28.968-25.465,43.96-19.959,4.585,1.8199,8.6973,4.2424,12.337,7.2675l-9.1464,10.777c-7.3048-6.1263-32.807-10.991-32.332,2.0562,0.43627,11.911,27.654,7.4919,35.906,15.194,6.3707,3.5028,7.3446,8.8417,7.3447,14.656-0.23693,14.829-16.631,22.495-30.488,22.618-13.361,0.13218-24.386-5.8126-32.402-13.117zm69.768,0,10.352-10.21c7.916,8.247,37.455,15.657,37.72,0,0.009-12.213-25.759-4.6127-37.224-14.464-4.0178-3.5451-6.0267-8.4846-6.0267-14.819-0.00001-7.4683,2.6234-13.117,7.8702-16.946,11.316-6.7076,24.433-7.5169,36.089-3.0134,4.585,1.8199,8.6973,4.2424,12.337,7.2675l-9.1464,10.777c-7.3048-6.1263-32.127-12.692-32.332,2.0562,1.1163,14.68,28.078,2.4693,38.287,14.854,3.3087,4.1833,4.9631,9.1819,4.9632,14.996-1.5978,17.211-16.631,22.495-30.488,22.618-12.243,0-23.043-4.3723-32.402-13.117zm134.93-18.931-45.803,0c0.63072,19.828,22.11,22.458,33.679,11.061l10.706,9.1464c-7.0506,8.024-16.885,11.773-26.588,11.841-23.289,0.30539-32.436-17.569-32.615-37.366-0.39368-20.933,9.7359-37.63,30.346-37.933,25.422-0.64043,30.275,20.608,30.275,43.251zm-45.803-12.195,31.055,0c-0.46046-9.5905-4.3215-16.973-15.528-17.088-10.188,0.30003-15.236,8.8638-15.528,17.088zm61.402,25.596,0-85.508,14.819,0,0,84.303c1.1278,6.1133,5.6265,5.105,10.564,5.105v13.897c-11.582,0.66365-25.033-4.4015-25.383-17.797z"
       fill="#FFF"
       id="path60" />
    <path
       style="text-align:center;"
       d="m1104.9,563.33,0-77.021,11.048,0,0,47.947,21.304-25.797,13.216,0-18.925,21.462,21.515,33.409-13.85,0-14.59-25.639-8.6696,9.8854,0,15.753zm56.881,0,0-54.872,11.048,0,0,5.8678c4.5561-3.939,9.6804-6.4356,14.484-6.5022,6.4761-0.12109,11.457,3.0686,15.489,7.1365,4.3347-4.7576,10.114-7.1365,17.339-7.1365,10.963,0.60412,18.176,9.7286,18.291,19.031v36.476h-11.048v-32.669c-2.2814-16.971-21.31-13.303-21.78,0v32.669h-10.996v-32.669c-2.2813-16.971-21.31-13.303-21.78,0v32.669z"
       fill="#FFF"
       id="path62" />
    <path
       style="text-align:center;"
       d="m1107,787.19,0-77.021,11.048,0,0,47.947,21.304-25.797,13.216,0-18.925,21.462,21.515,33.409-13.85,0-14.59-25.639-8.6696,9.8854,0,15.753zm56.881,0,0-54.872,11.048,0,0,5.8678c4.5561-3.939,9.6804-6.4356,14.484-6.5022,6.4761-0.12109,11.457,3.0686,15.489,7.1365,4.3347-4.7576,10.114-7.1365,17.339-7.1365,10.963,0.60412,18.176,9.7286,18.291,19.031v36.476h-11.048v-32.669c-2.2814-16.971-21.31-13.303-21.78,0v32.669h-10.996v-32.669c-2.2813-16.971-21.31-13.303-21.78,0v32.669z"
       fill="#FFF"
       id="path64" />
  </g>
</svg>
