<?xml version="1.0" encoding="UTF-8" standalone="no"?>
<!-- Created with Inkscape (http://www.inkscape.org/) -->
<svg
   xmlns:svg="http://www.w3.org/2000/svg"
   xmlns="http://www.w3.org/2000/svg"
   version="1.0"
   width="970"
   height="330"
   id="svg2">
  <defs
     id="defs4" />
  <path
     d="M 35.325075,43.302936 L 933.92222,43.061097 C 952.51132,42.961661 968.03434,49.514892 968.48964,69.821945 L 968.1094,251.69 C 968.21099,267.03686 957.1283,282.76177 929.7879,283.10001 L 31.760932,282.41475 C 10.211539,282.41475 1.7901573,271.02625 1.6867079,249.40303 L 1.7368962,72.579426 C 1.7368962,65.783579 3.3208716,43.302936 35.325075,43.302936 z "
     style="fill:#fc3;fill-opacity:1;fill-rule:evenodd;stroke:black;stroke-width:2.02820182;stroke-linecap:butt;stroke-linejoin:miter;stroke-miterlimit:4;stroke-dasharray:none;stroke-opacity:1"
     id="path3669" />
  <path
     d="M 262.10795,171.43997 L 262.10795,162.48568 L 284.30089,162.48568 L 284.30089,175.2102 C 284.30084,181.40824 282.14438,186.64943 277.83152,190.93377 C 273.51856,195.21812 268.24882,197.36029 262.02226,197.3603 C 257.10952,197.36029 252.9894,196.1821 249.66191,193.82571 C 246.33438,191.46932 243.94229,188.92013 242.48562,186.17814 C 241.45737,184.35016 240.74331,182.3508 240.34345,180.18005 C 239.94357,178.00933 239.74363,173.16802 239.74364,165.6561 C 239.74363,158.14424 239.94357,153.30293 240.34345,151.13215 C 240.74331,148.96146 241.45737,146.9621 242.48562,145.13406 C 243.94229,142.42069 246.33438,139.86436 249.66191,137.46507 C 252.9894,135.06589 257.10952,133.86628 262.02226,133.86621 C 267.93463,133.86628 272.82593,135.68712 276.69616,139.32876 C 280.56631,142.97051 282.98697,147.31913 283.95814,152.37461 L 273.9756,152.37461 C 273.20438,149.97542 271.76912,147.87609 269.66983,146.07661 C 267.57046,144.27724 265.02128,143.37753 262.02226,143.37747 C 259.79437,143.37753 257.86642,143.83452 256.23839,144.74847 C 254.61031,145.66251 253.32501,146.71932 252.38247,147.91889 C 251.15427,149.51842 250.31883,151.27501 249.87613,153.18864 C 249.4334,155.10236 249.21204,159.25817 249.21205,165.6561 C 249.21204,172.08265 249.4334,176.25275 249.87613,178.1664 C 250.31883,180.0801 251.15427,181.80812 252.38247,183.35047 C 253.32501,184.60722 254.61031,185.68545 256.23839,186.58515 C 257.86642,187.48488 259.79437,187.93473 262.02226,187.93472 C 265.62109,187.93473 268.65583,186.70655 271.12651,184.25018 C 273.59711,181.79383 274.83243,178.59486 274.83247,174.65324 L 274.83247,171.43997 L 262.10795,171.43997 z M 296.79755,196.84617 L 296.79755,152.37461 L 305.75184,152.37461 L 305.75184,196.84617 L 296.79755,196.84617 z M 296.79755,143.37747 L 296.79755,134.42318 L 305.75184,134.42318 L 305.75184,143.37747 L 296.79755,143.37747 z M 354.06567,177.99503 L 326.38877,177.99503 C 326.38875,181.65102 327.38129,184.39301 329.36639,186.22098 C 331.35145,188.04898 333.88636,188.96298 336.97111,188.96297 C 340.65563,188.96298 343.91173,187.53486 346.73943,184.67862 L 353.2088,190.20543 C 351.00947,192.77604 348.53168,194.61117 345.77545,195.71082 C 343.01916,196.81047 340.14151,197.36029 337.14249,197.3603 C 332.57249,197.36029 328.14534,195.88219 323.861,192.92599 C 319.57664,189.9698 317.43447,183.92173 317.43447,174.78177 C 317.43447,166.12741 319.41241,160.1436 323.3683,156.83034 C 327.32417,153.51715 331.45856,151.86053 335.77149,151.86049 C 340.65563,151.86053 344.92569,153.55285 348.5817,156.93744 C 352.23764,160.32212 354.06563,164.88495 354.06567,170.62595 L 354.06567,177.99503 z M 326.38877,170.62595 L 345.15422,170.62595 C 345.01138,167.28418 344.06882,164.72785 342.32655,162.95696 C 340.58422,161.18613 338.39921,160.3007 335.77149,160.30066 C 333.11518,160.3007 330.90874,161.18613 329.15217,162.95696 C 327.39557,164.72785 326.47444,167.28418 326.38877,170.62595 L 326.38877,170.62595 z M 365.49125,196.84617 L 365.49125,152.37461 L 374.44554,152.37461 L 374.44554,157.13024 L 374.61692,157.13024 C 377.38745,153.61712 381.24336,151.86053 386.18466,151.86049 C 389.44074,151.86053 392.53975,153.00303 395.48171,155.28797 L 389.01234,162.9998 C 387.07007,161.54316 385.09927,160.81482 383.09993,160.81478 C 380.90061,160.81482 378.90839,161.5503 377.12326,163.02122 C 375.3381,164.49222 374.44553,166.85575 374.44554,170.11182 L 374.44554,196.84617 L 365.49125,196.84617 z M 396.66767,189.43425 L 402.92282,183.26478 C 406.80729,187.06358 411.47723,188.96298 416.93265,188.96297 C 419.47467,188.96298 421.574,188.48456 423.23065,187.52771 C 424.88723,186.57088 425.71554,185.14991 425.71557,183.26478 C 425.71554,180.66562 423.90183,179.20895 420.27444,178.89474 L 412.39124,178.1664 C 408.70668,177.8808 405.65052,176.6669 403.22273,174.5247 C 400.79492,172.38255 399.58102,169.39779 399.58103,165.57041 C 399.58102,161.0576 401.16623,157.6444 404.33666,155.33081 C 407.50707,153.01731 411.44866,151.86053 416.16147,151.86049 C 420.04592,151.86053 423.37343,152.41036 426.144,153.50996 C 428.91452,154.60966 431.39944,156.07347 433.59877,157.90142 L 428.07196,164.41364 C 426.30107,163.21405 424.47308,162.22865 422.58799,161.45743 C 420.70285,160.68629 418.56068,160.3007 416.16147,160.30066 C 413.30521,160.3007 411.32013,160.80768 410.20622,161.8216 C 409.09227,162.8356 408.53531,164.11376 408.53532,165.6561 C 408.53531,166.62725 408.94946,167.52696 409.77778,168.35524 C 410.60608,169.18357 412.14844,169.68342 414.40488,169.85476 L 421.77397,170.36888 C 426.37247,170.6831 429.67142,172.10407 431.67082,174.63181 C 433.67014,177.1596 434.66982,180.18006 434.66986,183.69322 C 434.66982,188.06326 432.88468,191.43361 429.31442,193.80428 C 425.7441,196.17496 421.38835,197.36029 416.24715,197.3603 C 408.84949,197.36029 402.32301,194.71828 396.66767,189.43425 L 396.66767,189.43425 z M 446.26682,152.37461 L 446.26682,138.8789 L 455.22111,138.8789 L 455.22111,152.37461 L 461.73332,152.37461 L 461.73332,159.22957 L 455.22111,159.22957 L 455.22111,185.10705 C 455.22109,187.33492 456.2779,188.44885 458.39153,188.44885 L 461.73332,188.44885 L 461.73332,196.84617 L 457.06338,196.84617 C 453.95007,196.84617 451.37232,195.90362 449.33013,194.0185 C 447.28791,192.13339 446.26681,189.43425 446.26682,185.92108 L 446.26682,159.22957 L 441.81109,159.22957 L 441.81109,152.37461 L 446.26682,152.37461 z M 495.43752,196.84617 L 495.43752,192.90457 L 495.2233,192.90457 C 493.42385,195.87505 489.76787,197.36029 484.25536,197.3603 C 479.2855,197.36029 475.42959,196.06785 472.68762,193.48296 C 469.94563,190.89807 468.57464,187.66339 468.57464,183.7789 C 468.57464,180.26575 469.78853,177.1953 472.21634,174.56755 C 474.64413,171.93984 478.25726,170.62597 483.05574,170.62595 L 495.43752,170.62595 L 495.43752,165.99885 C 495.43749,162.20009 492.3956,160.3007 486.31185,160.30066 C 482.08461,160.3007 479.27122,161.42891 477.87168,163.6853 L 470.84534,158.3727 C 473.95863,154.03127 478.95704,151.86053 485.84057,151.86049 C 491.32452,151.86053 495.78024,152.93162 499.20775,155.07375 C 502.63519,157.21597 504.34893,161.02903 504.34897,166.51297 L 504.34897,196.84617 L 495.43752,196.84617 z M 495.43752,181.25114 L 495.43752,177.99503 L 484.72664,177.99503 C 479.55685,177.99505 476.97196,179.78019 476.97197,183.35047 C 476.97196,184.86428 477.62175,186.17815 478.92135,187.29207 C 480.22092,188.40601 482.38451,188.96298 485.41214,188.96297 C 489.12522,188.96298 491.72439,188.54882 493.20966,187.72051 C 494.69487,186.89221 495.43749,184.73575 495.43752,181.25114 L 495.43752,181.25114 z M 491.19601,145.47681 L 491.19601,136.00839 L 500.66443,136.00839 L 500.66443,145.47681 L 491.19601,145.47681 z M 475.77235,145.47681 L 475.77235,136.00839 L 485.24076,136.00839 L 485.24076,145.47681 L 475.77235,145.47681 z M 544.52252,196.84617 L 544.52252,192.21907 C 541.40919,195.64656 537.58184,197.36029 533.04046,197.3603 C 530.29845,197.36029 527.94206,196.82475 525.97128,195.75366 C 524.00046,194.68258 522.38669,193.30445 521.12996,191.61926 C 519.87321,190.04834 519.03062,188.18465 518.60219,186.02819 C 518.17375,183.87174 517.95954,180.05153 517.95954,174.56755 C 517.95954,169.14073 518.17375,165.36337 518.60219,163.23544 C 519.03062,161.10758 519.87321,159.24389 521.12996,157.64436 C 522.38669,155.98779 524.00046,154.60966 525.97128,153.50996 C 527.94206,152.41036 530.29845,151.86053 533.04046,151.86049 C 535.32542,151.86053 537.39619,152.34609 539.25277,153.31717 C 541.10929,154.28833 542.86587,155.55935 544.52252,157.13024 L 544.52252,134.42318 L 553.47681,134.42318 L 553.47681,196.84617 L 544.52252,196.84617 z M 535.78244,160.81478 C 531.5552,160.81482 529.02029,162.25721 528.17772,165.14198 C 527.33511,168.0268 526.91382,171.16866 526.91383,174.56755 C 526.91382,178.05217 527.33511,181.23687 528.17772,184.12165 C 529.02029,187.00646 531.5552,188.44885 535.78244,188.44885 C 539.92395,188.44885 542.41601,186.94933 543.25863,183.95028 C 544.10119,180.95125 544.52248,177.82367 544.52252,174.56755 C 544.52248,171.39715 544.10119,168.31242 543.25863,165.31335 C 542.41601,162.31434 539.92395,160.81482 535.78244,160.81478 L 535.78244,160.81478 z M 566.05917,152.37461 L 566.05917,138.8789 L 575.01347,138.8789 L 575.01347,152.37461 L 581.52568,152.37461 L 581.52568,159.22957 L 575.01347,159.22957 L 575.01347,185.10705 C 575.01345,187.33492 576.07026,188.44885 578.18389,188.44885 L 581.52568,188.44885 L 581.52568,196.84617 L 576.85574,196.84617 C 573.74243,196.84617 571.16468,195.90362 569.12248,194.0185 C 567.08027,192.13339 566.05917,189.43425 566.05917,185.92108 L 566.05917,159.22957 L 561.60345,159.22957 L 561.60345,152.37461 L 566.05917,152.37461 z "
     style="font-size:87.74350739px;font-style:normal;font-variant:normal;font-weight:normal;font-stretch:normal;text-align:center;line-height:100%;letter-spacing:2px;writing-mode:lr-tb;text-anchor:middle;fill:black;fill-opacity:1;stroke:none;stroke-width:1px;stroke-linecap:butt;stroke-linejoin:miter;stroke-opacity:1;font-family:DIN 1451 Mittelschrift"
     id="text2007" />
  <path
     d="M 71.567629,165.97659 L 132.03622,226.44517 L 164.86985,226.44517 L 115.68021,177.52916 L 195.48416,177.71157 L 195.48416,151.23186 L 115.71062,151.38387 L 164.86985,102.46784 L 132.03622,102.46784 L 71.567629,162.93644 L 71.567629,165.97659 z "
     style="fill:black;fill-opacity:1;fill-rule:evenodd;stroke:none;stroke-width:1px;stroke-linecap:butt;stroke-linejoin:miter;stroke-opacity:1"
     id="path2834" />
  <path
     d="M 43.678334,58.238198 L 930.52972,57.883122 C 942.93767,57.883122 954.20536,63.666637 954.20536,71.192373 L 954.09447,251.16767 C 954.09447,259.86366 946.42207,267.91926 926.7877,267.91926 L 49.465365,267.31262 C 18.165926,267.31262 15.823786,259.02438 15.823786,242.65215 L 16.107154,77.950904 C 16.107154,70.154543 18.80026,58.238198 43.678334,58.238198 z "
     style="fill:none;fill-opacity:1;fill-rule:evenodd;stroke:black;stroke-width:12.04974937;stroke-linecap:butt;stroke-linejoin:miter;stroke-miterlimit:4;stroke-dasharray:none;stroke-opacity:1"
     id="path1882" />
  <path
     d="M 712.72085,197.36029 L 712.72085,151.5692 L 719.28937,151.5692 L 719.28937,180.07471 L 719.41508,180.07471 L 731.95499,164.73768 L 739.81208,164.73768 L 728.56073,177.49758 L 741.35207,197.36029 L 733.11784,197.36029 L 724.44362,182.11755 L 719.28937,187.99465 L 719.28937,197.36029 L 712.72085,197.36029 z M 746.53774,197.36029 L 746.53774,164.73768 L 753.10627,164.73768 L 753.10627,168.22622 L 753.23198,168.22622 C 755.30624,165.64913 758.13478,164.36057 761.71763,164.36054 C 764.0014,164.36057 765.81377,164.76914 767.15473,165.58624 C 768.49565,166.40341 769.75278,167.40912 770.92614,168.60336 C 773.50323,165.77484 776.93939,164.36057 781.23463,164.36054 C 783.76981,164.36057 786.21598,165.32437 788.57315,167.25194 C 790.93023,169.17958 792.10879,171.98717 792.10884,175.67474 L 792.10884,197.36029 L 785.54031,197.36029 L 785.54031,177.93758 C 785.54027,175.73762 784.92218,174.01954 783.68604,172.78333 C 782.44982,171.54718 780.92031,170.92909 779.0975,170.92906 C 777.21177,170.92909 775.65607,171.54718 774.4304,172.78333 C 773.20466,174.01954 772.59181,175.73762 772.59184,177.93758 L 772.59184,197.36029 L 766.05474,197.36029 L 766.05474,177.93758 C 766.05472,175.73762 765.43663,174.01954 764.20047,172.78333 C 762.96427,171.54718 761.43476,170.92909 759.61193,170.92906 C 757.72622,170.92909 756.17051,171.54718 754.94482,172.78333 C 753.71911,174.01954 753.10625,175.73762 753.10627,177.93758 L 753.10627,197.36029 L 746.53774,197.36029 z "
     style="font-size:64.365242px;font-style:normal;font-variant:normal;font-weight:normal;font-stretch:normal;text-align:center;line-height:100%;writing-mode:lr-tb;text-anchor:middle;fill:black;fill-opacity:1;stroke:none;stroke-width:1px;stroke-linecap:butt;stroke-linejoin:miter;stroke-opacity:1;font-family:DIN 1451 Mittelschrift"
     id="text1889" />
  <path
     d="M 631.21481,197.36029 L 631.21481,144.40571 L 622.3462,150.87508 L 622.3462,141.40666 L 631.21481,134.93729 L 640.1691,134.93729 L 640.1691,197.36029 L 631.21481,197.36029 z M 659.14877,197.36029 L 659.14877,188.96296 L 683.56957,158.41554 C 684.5121,157.21596 685.12619,156.11631 685.41184,155.11659 C 685.69744,154.11695 685.84025,153.14583 685.84028,152.20323 C 685.84025,150.03254 685.06907,148.01175 683.52673,146.14087 C 681.98434,144.27009 679.88501,143.33468 677.22873,143.33462 C 674.80092,143.33468 672.72301,144.14156 670.995,145.75528 C 669.26697,147.3691 668.30299,149.57554 668.10307,152.3746 L 659.14877,152.3746 C 659.17733,147.31912 660.90535,143.05619 664.33284,139.58581 C 667.76031,136.11555 671.83044,134.38039 676.54324,134.38033 C 681.74156,134.38039 686.07589,136.12983 689.54624,139.62866 C 693.01653,143.1276 694.75169,147.34768 694.75173,152.28892 C 694.75169,156.51618 693.50923,160.17216 691.02434,163.25685 L 670.93074,188.44884 L 694.75173,188.44884 L 694.75173,197.36029 L 659.14877,197.36029 z "
     style="font-size:87.74350739px;font-style:normal;font-variant:normal;font-weight:normal;font-stretch:normal;text-align:center;line-height:100%;writing-mode:lr-tb;text-anchor:middle;fill:black;fill-opacity:1;stroke:none;stroke-width:1px;stroke-linecap:butt;stroke-linejoin:miter;stroke-opacity:1;font-family:DIN 1451 Mittelschrift"
     id="text2011" />
</svg>
