<?xml version="1.0" encoding="UTF-8" standalone="no"?>
<!-- Created with Inkscape (http://www.inkscape.org/) -->
<svg
   xmlns:svg="http://www.w3.org/2000/svg"
   xmlns="http://www.w3.org/2000/svg"
   version="1.0"
   width="970"
   height="330"
   id="svg2">
  <defs
     id="defs4" />
  <path
     d="M 35.093922,45.493641 L 776.86108,45.173402 C 789.64573,45.813761 960.10076,142.92653 960.10076,142.92653 C 972.40395,151.77456 970.19446,179.27842 959.56483,186.33614 C 959.56483,186.33614 799.58295,285.9879 772.24319,286.33386 L 33.964752,285.63297 C 9.5790318,285.63297 1.6981918,273.95822 1.6981918,256.45003 L 1.9902118,72.660544 C 1.9902118,57.201825 12.687712,45.493641 35.093922,45.493641 z "
     style="fill:#fc3;fill-opacity:1;fill-rule:evenodd;stroke:black;stroke-width:2.05117083;stroke-linecap:butt;stroke-linejoin:miter;stroke-miterlimit:4;stroke-dasharray:none;stroke-opacity:1"
     id="path3669" />
  <path
     d="M 43.713022,59.952228 L 776.09999,59.592762 C 788.50697,59.592762 949.19946,151.86108 949.19946,151.86108 C 956.93023,157.96128 955.62794,171.8723 949.4435,177.18193 C 949.4435,177.18193 794.12067,272.22528 774.48784,272.22528 L 49.499602,271.61115 C 18.202622,271.61115 15.860672,266.40322 15.860672,249.8286 L 16.144012,77.705153 C 16.144012,69.812417 18.836912,59.952228 43.713022,59.952228 z "
     style="fill:none;fill-opacity:1;fill-rule:evenodd;stroke:black;stroke-width:12.1235199;stroke-linecap:butt;stroke-linejoin:miter;stroke-miterlimit:4;stroke-dasharray:none;stroke-opacity:1"
     id="path1882" />
  <g
     transform="matrix(-0.359007,0,0,0.359007,595.561,75.06567)"
     id="g6501">
    <path
       d="M 295.78419,86.816926 L 295.78419,335.08252 L 687.71625,335.4031 C 664.71649,354.19396 650.35734,380.09418 650.54503,414.08813 L 261.47933,413.85667 C 257.75238,281.97351 70.642616,282.42223 66.576854,413.09434 C 38.473995,412.88466 34.575813,406.50199 34.30487,380.61469 L 34.304868,281.61469 C 33.952015,237.37253 28.42681,266.57731 61.177014,182.67997 C 94.875059,93.246445 85.585107,101.51291 116.0648,99.204795 L 295.78419,86.816926 z M 217.93865,233.19966 L 219.48981,127.72046 L 119.43969,133.92512 C 101.20003,135.14704 101.04823,135.26154 94.62105,156.41701 L 69.026832,224.66825 C 60.428592,245.6025 61.79713,251.77115 85.314062,248.71131 L 217.93865,233.19966 z M 966.63494,335.59074 L 966.82552,391.36792 L 902.21802,414.23783 L 845.4914,414.20156 C 845.7223,381.85903 832.28136,354.65711 808.44981,335.54893 L 966.63494,335.59074 z "
       style="fill:black;fill-rule:evenodd;stroke:none"
       id="path6488" />
    <rect
       width="631.32404"
       height="301.70154"
       x="335.82718"
       y="12.158683"
       style="fill:black;stroke:none"
       id="rect6490" />
    <circle
       cx="164"
       cy="412"
       r="77"
       style="fill:black;stroke:none"
       id="circle6492" />
    <circle
       cx="748"
       cy="412"
       r="77"
       style="fill:black;stroke:none"
       id="circle6494" />
  </g>
</svg>
