<?xml version="1.0" encoding="UTF-8" standalone="no"?>
<!-- Created with Inkscape (http://www.inkscape.org/) -->

<svg
   xmlns:dc="http://purl.org/dc/elements/1.1/"
   xmlns:cc="http://creativecommons.org/ns#"
   xmlns:rdf="http://www.w3.org/1999/02/22-rdf-syntax-ns#"
   xmlns:svg="http://www.w3.org/2000/svg"
   xmlns="http://www.w3.org/2000/svg"
   version="1.1"
   width="970"
   height="330"
   id="svg4127"
   xml:space="preserve"><metadata
     id="metadata4133"><rdf:RDF><cc:Work
         rdf:about=""><dc:format>image/svg+xml</dc:format><dc:type
           rdf:resource="http://purl.org/dc/dcmitype/StillImage" /><dc:title></dc:title></cc:Work></rdf:RDF></metadata><defs
     id="defs4131" /><g
     transform="matrix(1.25,0,0,-1.25,0,330)"
     id="g4135"><g
       id="g4137"><g
         transform="matrix(1,0,0,-1,0,264)"
         id="g4139"><path
           d="m 28.074,36.395 593.414,-0.254 c 10.227,0.511 146.594,78.199 146.594,78.199 9.84,7.078 8.074,29.082 -0.43,34.73 0,0 -127.984,79.719 -149.859,79.996 L 27.172,228.508 c -19.508,0 -25.813,-9.34 -25.813,-23.348 L 1.594,58.129 c 0,-12.367 8.554,-21.734 26.48,-21.734 z"
           id="path4141"
           style="fill:#f0c900;fill-opacity:1;fill-rule:evenodd;stroke:#000000;stroke-width:1.64093697;stroke-linecap:butt;stroke-linejoin:miter;stroke-miterlimit:4;stroke-opacity:1;stroke-dasharray:none" /></g><path
         d="m 73.391,89.738 0,82.918 53.035,0 0,-11.894 -40.461,0 0,-23.617 34.488,0 0,-11.211 -34.488,0 0,-24.356 40.461,0 0,-11.84 -53.035,0 z m 66.589,0 0,59.075 11.895,0 0,-59.075 -11.895,0 z m 0,71.024 0,11.894 11.895,0 0,-11.894 -11.895,0 z m 64.774,-53.664 8.762,-7.856 c -2.578,-2.957 -5.641,-5.394 -9.192,-7.312 -3.547,-1.914 -7.558,-2.871 -12.035,-2.871 -6.828,0 -13.004,2.324 -18.523,6.968 -5.52,4.649 -8.278,12.379 -8.278,23.192 0,10.812 2.758,18.562 8.278,23.246 5.519,4.687 11.695,7.027 18.523,7.027 4.477,0 8.488,-0.965 12.035,-2.902 3.551,-1.934 6.614,-4.379 9.192,-7.34 l -8.762,-7.797 c -3.34,4.098 -7.344,6.149 -12.008,6.149 -10.246,0 -15.367,-6.129 -15.367,-18.383 0,-12.215 5.121,-18.324 15.367,-18.324 4.703,0 8.707,2.066 12.008,6.203 z m 19.359,-17.36 0,82.918 11.891,0 0,-30.164 0.23,0 c 3.68,4.668 8.801,7 15.364,7 4.59,0 9.019,-1.742 13.289,-5.234 4.265,-3.488 6.402,-8.574 6.402,-15.25 l 0,-39.27 -11.894,0 0,35.172 c 0,3.985 -1.11,7.094 -3.329,9.332 -2.218,2.238 -4.98,3.36 -8.281,3.36 -3.414,0 -6.23,-1.122 -8.449,-3.36 -2.223,-2.238 -3.332,-5.347 -3.332,-9.332 l 0,-35.172 -11.891,0 z m 110.75,25.043 -36.761,0 c 0,-4.859 1.32,-8.5 3.957,-10.929 2.636,-2.426 6.004,-3.641 10.097,-3.641 4.895,0 9.223,1.898 12.977,5.691 l 8.594,-7.339 c -2.922,-3.415 -6.211,-5.856 -9.875,-7.313 -3.661,-1.461 -7.481,-2.191 -11.465,-2.191 -6.071,0 -11.953,1.961 -17.641,5.89 -5.691,3.926 -8.539,11.957 -8.539,24.098 0,11.496 2.629,19.445 7.883,23.844 5.254,4.402 10.746,6.601 16.476,6.601 6.485,0 12.157,-2.246 17.016,-6.742 4.856,-4.496 7.281,-10.555 7.281,-18.184 l 0,-9.785 z m -36.761,9.785 24.925,0 c -0.191,4.442 -1.441,7.836 -3.754,10.188 -2.316,2.351 -5.218,3.527 -8.707,3.527 -3.531,0 -6.461,-1.176 -8.793,-3.527 -2.335,-2.352 -3.558,-5.746 -3.671,-10.188 z m 51.683,-34.828 0,59.075 11.895,0 0,-6.321 0.226,0 c 3.68,4.668 8.801,7 15.364,7 4.593,0 9.019,-1.742 13.289,-5.234 4.269,-3.488 6.402,-8.574 6.402,-15.25 l 0,-39.27 -11.895,0 0,35.172 c 0,3.985 -1.109,7.094 -3.328,9.332 -2.218,2.238 -4.98,3.36 -8.281,3.36 -3.414,0 -6.23,-1.122 -8.449,-3.36 -2.219,-2.238 -3.328,-5.347 -3.328,-9.332 l 0,-35.172 -11.895,0 z m 64.996,0 0,82.918 11.895,0 0,-30.164 c 2.203,2.09 4.523,3.778 6.972,5.067 2.446,1.289 5.207,1.933 8.282,1.933 3.601,0 6.715,-0.73 9.332,-2.187 2.617,-1.461 4.781,-3.293 6.488,-5.492 1.629,-2.125 2.738,-4.602 3.328,-7.43 0.586,-2.824 0.883,-7.844 0.883,-15.051 0,-7.285 -0.297,-12.359 -0.883,-15.223 -0.59,-2.863 -1.699,-5.339 -3.328,-7.425 -1.707,-2.239 -3.871,-4.071 -6.488,-5.493 -2.617,-1.421 -5.731,-2.132 -9.332,-2.132 -6.071,0 -11.157,2.273 -15.254,6.828 l 0,-6.149 -11.895,0 z m 23.563,47.864 c -5.578,0 -8.918,-1.993 -10.016,-5.977 -1.101,-3.984 -1.652,-8.082 -1.652,-12.293 0,-4.324 0.551,-8.48 1.652,-12.461 1.098,-3.984 4.438,-5.976 10.016,-5.976 5.578,0 8.926,1.914 10.043,5.746 1.121,3.832 1.679,8.062 1.679,12.691 0,4.516 -0.558,8.688 -1.679,12.52 -1.117,3.832 -4.465,5.75 -10.043,5.75 z m 70.406,-47.864 0,5.239 -0.285,0 c -2.391,-3.946 -7.246,-5.918 -14.57,-5.918 -6.602,0 -11.723,1.714 -15.364,5.148 -3.644,3.434 -5.465,7.731 -5.465,12.891 0,4.664 1.614,8.746 4.836,12.234 3.227,3.492 8.028,5.234 14.399,5.234 l 16.449,0 0,6.149 c 0,5.047 -4.043,7.566 -12.125,7.566 -5.613,0 -9.352,-1.496 -11.211,-4.496 l -9.332,7.059 c 4.137,5.765 10.777,8.648 19.918,8.648 7.285,0 13.203,-1.422 17.758,-4.265 4.551,-2.848 6.828,-7.911 6.828,-15.196 l 0,-40.293 -11.836,0 z m 0,20.715 0,4.328 -14.23,0 c -6.864,0 -10.297,-2.371 -10.297,-7.113 0,-2.012 0.859,-3.758 2.586,-5.238 1.726,-1.481 4.601,-2.219 8.625,-2.219 4.929,0 8.382,0.551 10.355,1.652 1.973,1.098 2.961,3.965 2.961,8.59 z m 64.371,-3.355 8.766,-7.856 c -2.582,-2.957 -5.645,-5.394 -9.192,-7.312 -3.547,-1.914 -7.558,-2.871 -12.035,-2.871 -6.832,0 -13.004,2.324 -18.527,6.968 -5.52,4.649 -8.278,12.379 -8.278,23.192 0,10.812 2.758,18.562 8.278,23.246 5.523,4.687 11.695,7.027 18.527,7.027 4.477,0 8.488,-0.965 12.035,-2.902 3.547,-1.934 6.61,-4.379 9.192,-7.34 l -8.766,-7.797 c -3.34,4.098 -7.34,6.149 -12.008,6.149 -10.242,0 -15.363,-6.129 -15.363,-18.383 0,-12.215 5.121,-18.324 15.363,-18.324 4.703,0 8.707,2.066 12.008,6.203 z m 19.359,-17.36 0,82.918 11.895,0 0,-30.164 0.227,0 c 3.679,4.668 8.8,7 15.363,7 4.594,0 9.019,-1.742 13.289,-5.234 4.269,-3.488 6.402,-8.574 6.402,-15.25 l 0,-39.27 -11.894,0 0,35.172 c 0,3.985 -1.11,7.094 -3.328,9.332 -2.219,2.238 -4.981,3.36 -8.282,3.36 -3.414,0 -6.23,-1.122 -8.449,-3.36 -2.219,-2.238 -3.328,-5.347 -3.328,-9.332 l 0,-35.172 -11.895,0 z"
         id="path4143"
         style="fill:#000000;fill-opacity:1;fill-rule:nonzero;stroke:none" /></g></g></svg>