<?xml version="1.0" encoding="UTF-8" standalone="no"?>
<!-- Created with Inkscape (http://www.inkscape.org/) -->

<svg
   xmlns:dc="http://purl.org/dc/elements/1.1/"
   xmlns:cc="http://creativecommons.org/ns#"
   xmlns:rdf="http://www.w3.org/1999/02/22-rdf-syntax-ns#"
   xmlns:svg="http://www.w3.org/2000/svg"
   xmlns="http://www.w3.org/2000/svg"
   xmlns:sodipodi="http://sodipodi.sourceforge.net/DTD/sodipodi-0.dtd"
   xmlns:inkscape="http://www.inkscape.org/namespaces/inkscape"
   width="480"
   height="713.29999"
   id="svg2"
   version="1.1"
   inkscape:version="0.48.0 r9654"
   sodipodi:docname="Neues Dokument 1">
  <defs
     id="defs4" />
  <sodipodi:namedview
     id="base"
     pagecolor="#ffffff"
     bordercolor="#666666"
     borderopacity="1.0"
     inkscape:pageopacity="0.0"
     inkscape:pageshadow="2"
     inkscape:zoom="0.35"
     inkscape:cx="350"
     inkscape:cy="598.26547"
     inkscape:document-units="px"
     inkscape:current-layer="layer1"
     showgrid="false"
     inkscape:window-width="1024"
     inkscape:window-height="688"
     inkscape:window-x="-8"
     inkscape:window-y="-8"
     inkscape:window-maximized="1" />
  <metadata
     id="metadata7">
    <rdf:RDF>
      <cc:Work
         rdf:about="">
        <dc:format>image/svg+xml</dc:format>
        <dc:type
           rdf:resource="http://purl.org/dc/dcmitype/StillImage" />
        <dc:title></dc:title>
      </cc:Work>
    </rdf:RDF>
  </metadata>
  <g
     inkscape:label="Ebene 1"
     inkscape:groupmode="layer"
     id="layer1"
     transform="translate(0,-339.06218)">
    <g
       id="g3048"
       transform="matrix(1.0174609,0,0,1.0174609,-30.353904,470.92496)">
      <path
         id="path3669"
         style="fill:#ffcc33;fill-opacity:1;fill-rule:evenodd;stroke:#000000;stroke-width:1.99081528;stroke-linecap:butt;stroke-linejoin:miter;stroke-miterlimit:4;stroke-opacity:1;stroke-dasharray:none"
         d="m 56.92021,-128.59638 420.01304,0 c 10.81602,0.78342 23.07234,11.735 23.66692,24.63643 l 0,649.78711 c 0,11.61435 -9.93977,24.63644 -25.16484,24.63644 l -419.413865,0 c -13.939126,0 -24.86525,-11.9913 -24.86525,-24.93327 L 30.8284,-103.89487 c 0,-14.05686 11.732534,-24.70151 26.09181,-24.70151 z"
         inkscape:connector-curvature="0" />
      <path
         id="path2774"
         style="fill:#ffcc33;fill-opacity:1;fill-rule:evenodd;stroke:#000000;stroke-width:13;stroke-linecap:butt;stroke-linejoin:miter;stroke-miterlimit:4;stroke-opacity:1;stroke-dasharray:none"
         d="m 419.7112,-116.20334 -309.35547,0 -49.624534,0.0309 c -11.775334,-0.50833 -18.496293,7.42305 -18.05382,20.114426 l 0,634.622474 c 0.04661,8.55634 3.732838,18.82657 15.707135,19.03464 l 414.956239,0.52447 c 11.97429,-0.20811 15.69182,-10.4783 15.73842,-19.03466 l 0,-635.208624 c 0.44246,-12.691376 -6.27848,-20.622766 -18.05382,-20.114426 l -51.31415,0.0309 z"
         inkscape:connector-curvature="0" />
      <path
         id="path1885"
         style="fill:#000000;fill-opacity:1;fill-rule:evenodd;stroke:none"
         d="m 283.23667,298.38432 53.20272,53.20272 -206.26465,0.27816 c 0,0 -0.25983,36.56876 -0.25983,36.56876 l 207.48876,0.14835 -54.2041,54.20409 46.67524,0 72.11759,-72.13614 0.18545,0 -0.0927,-0.0927 0.0556,-0.0556 -0.11126,0 -72.13615,-72.11759 -46.65668,0 z"
         inkscape:connector-curvature="0" />
      <g
         id="g6501"
         transform="matrix(-0.359007,0,0,0.359007,448.55763,-52.63224)">
        <path
           id="path6488"
           style="fill:#000000;fill-rule:evenodd;stroke:none"
           d="m 295.78419,86.816926 0,248.265594 391.93206,0.32058 c -22.99976,18.79086 -37.35891,44.69108 -37.17122,78.68503 l -389.0657,-0.23146 C 257.75238,281.97351 70.642616,282.42223 66.576854,413.09434 38.473995,412.88466 34.575813,406.50199 34.30487,380.61469 l -2e-6,-99 C 33.952015,237.37253 28.42681,266.57731 61.177014,182.67997 94.875059,93.246445 85.585107,101.51291 116.0648,99.204795 L 295.78419,86.816926 z m -77.84554,146.382734 1.55116,-105.4792 -100.05012,6.20466 c -18.23966,1.22192 -18.39146,1.33642 -24.81864,22.49189 l -25.594218,68.25124 c -8.59824,20.93425 -7.229702,27.1029 16.28723,24.04306 L 217.93865,233.19966 z m 748.69629,102.39108 0.19058,55.77718 -64.6075,22.86991 -56.72662,-0.0363 C 845.7223,381.859 832.28136,354.65708 808.44981,335.5489 l 158.18513,0.0418 z"
           inkscape:connector-curvature="0" />
        <rect
           id="rect6490"
           style="fill:#000000;stroke:none"
           y="12.158683"
           x="335.82718"
           height="301.70154"
           width="631.32404" />
        <circle
           id="circle6492"
           style="fill:#000000;stroke:none"
           r="77"
           cy="412"
           cx="164"
           sodipodi:cx="164"
           sodipodi:cy="412"
           sodipodi:rx="77"
           sodipodi:ry="77"
           d="m 241,412 c 0,42.52593 -34.47407,77 -77,77 -42.52593,0 -77,-34.47407 -77,-77 0,-42.52593 34.47407,-77 77,-77 42.52593,0 77,34.47407 77,77 z" />
        <circle
           id="circle6494"
           style="fill:#000000;stroke:none"
           r="77"
           cy="412"
           cx="748"
           sodipodi:cx="748"
           sodipodi:cy="412"
           sodipodi:rx="77"
           sodipodi:ry="77"
           d="m 825,412 c 0,42.52593 -34.47407,77 -77,77 -42.52593,0 -77,-34.47407 -77,-77 0,-42.52593 34.47407,-77 77,-77 42.52593,0 77,34.47407 77,77 z" />
      </g>
    </g>
  </g>
</svg>
