<?xml version="1.0" encoding="UTF-8" standalone="no"?>
<!-- Created with Inkscape (http://www.inkscape.org/) -->
<svg
   xmlns:dc="http://purl.org/dc/elements/1.1/"
   xmlns:cc="http://web.resource.org/cc/"
   xmlns:rdf="http://www.w3.org/1999/02/22-rdf-syntax-ns#"
   xmlns:svg="http://www.w3.org/2000/svg"
   xmlns="http://www.w3.org/2000/svg"
   xmlns:sodipodi="http://sodipodi.sourceforge.net/DTD/sodipodi-0.dtd"
   xmlns:inkscape="http://www.inkscape.org/namespaces/inkscape"
   version="1.0"
   width="970"
   height="330"
   id="svg2"
   sodipodi:version="0.32"
   inkscape:version="0.44"
   sodipodi:docname="Zeichen 459.svg"
   sodipodi:docbase="C:\Dokumente und Einstellungen\Internet\Desktop\Wiki\SVG">
  <metadata
     id="metadata11">
    <rdf:RDF>
      <cc:Work
         rdf:about="">
        <dc:format>image/svg+xml</dc:format>
        <dc:type
           rdf:resource="http://purl.org/dc/dcmitype/StillImage" />
      </cc:Work>
    </rdf:RDF>
  </metadata>
  <sodipodi:namedview
     inkscape:window-height="569"
     inkscape:window-width="925"
     inkscape:pageshadow="2"
     inkscape:pageopacity="0.0"
     guidetolerance="10.0"
     gridtolerance="10.0"
     objecttolerance="10.0"
     borderopacity="1.0"
     bordercolor="#666666"
     pagecolor="#ffffff"
     id="base"
     inkscape:zoom="0.41382149"
     inkscape:cx="946.35553"
     inkscape:cy="27.980358"
     inkscape:window-x="22"
     inkscape:window-y="22"
     inkscape:current-layer="svg2" />
  <defs
     id="defs4" />
  <path
     d="M 35.22838,6.178357 L 938.85452,6.178357 C 951.63534,7.0120379 968.39034,19.359386 968.36196,36.0851 L 967.95368,292.35775 C 968.05523,299.26812 961.56959,324.0715 934.238,324.52189 L 36.500618,323.60941 C 9.8811811,323.60941 1.2207534,310.69889 1.8426221,291.24464 L 2.1345559,35.501541 C 2.1345559,26.45231 1.7839277,6.178357 35.22838,6.178357 z "
     style="fill:#fc3;fill-opacity:1;fill-rule:evenodd;stroke:black;stroke-width:2.34005022;stroke-linecap:butt;stroke-linejoin:miter;stroke-miterlimit:4;stroke-dasharray:none;stroke-opacity:1"
     id="path3669"
     sodipodi:nodetypes="ccccccccc" />
  <path
     d="M 108.11101,304.19461 L 949.62102,68.009086 L 950.38933,32.667204 L 931.95008,18.837771 L 860.49802,25.752488 L 20.744149,260.08454 L 18.439243,290.04831 L 38.41509,310.79246 L 108.11101,304.19461 z "
     style="fill:#c00;fill-opacity:1;fill-rule:evenodd;stroke:none;stroke-width:1px;stroke-linecap:butt;stroke-linejoin:miter;stroke-opacity:1"
     id="path4573" />
  <path
     d="M 44.661025,20.202599 L 929.53773,19.712615 C 941.91805,19.712615 953.16065,27.693521 953.16065,38.078586 L 953.05,286.43374 C 953.05,298.43369 945.39469,309.54993 925.80403,309.54993 L 50.435171,308.71281 C 19.205425,308.71281 16.868499,301.61394 16.868499,279.02123 L 17.151237,44.401438 C 17.151237,33.642926 19.838346,20.202599 44.661025,20.202599 z "
     style="fill:none;fill-opacity:1;fill-rule:evenodd;stroke:black;stroke-width:14.13917542;stroke-linecap:butt;stroke-linejoin:miter;stroke-miterlimit:4;stroke-dasharray:none;stroke-opacity:1"
     id="path1882" />
  <path
     d="M 83.117265,185.02567 L 83.117265,100.51389 L 102.49185,100.51389 L 102.49185,182.83397 C 102.49182,191.65924 104.99035,198.39504 109.98745,203.0414 C 114.98447,207.68782 121.16505,210.01101 128.52919,210.011 C 135.89323,210.01101 142.0738,207.68782 147.07094,203.0414 C 152.06792,198.39504 154.56645,191.65924 154.56653,182.83397 L 154.56653,100.51389 L 173.94112,100.51389 L 173.94112,185.02567 C 173.94102,198.35121 169.52841,209.06128 160.70328,217.15592 C 151.87797,225.25059 141.15329,229.29791 128.52919,229.29792 C 115.84654,229.29791 105.10724,225.25059 96.311271,217.15592 C 87.515251,209.06128 83.117254,198.35121 83.117265,185.02567 L 83.117265,185.02567 z M 203.13744,228.2459 L 203.13744,137.24671 L 221.46001,137.24671 L 221.46001,146.97784 L 221.81068,146.97784 C 227.59672,139.78916 235.48681,136.19479 245.48099,136.1947 C 251.85146,136.19479 256.90696,137.33447 260.64752,139.61374 C 264.38794,141.89319 267.89465,144.69856 271.16766,148.02985 C 278.35633,140.13984 287.94134,136.19479 299.9227,136.1947 C 306.99446,136.19479 313.81793,138.88326 320.39314,144.26013 C 326.96809,149.63717 330.25563,157.46882 330.25577,167.75511 L 330.25577,228.2459 L 311.9332,228.2459 L 311.9332,174.06719 C 311.93307,167.9305 310.20894,163.138 306.76079,159.68967 C 303.31241,156.24147 299.04592,154.51734 293.96129,154.51727 C 288.70113,154.51734 284.36157,156.24147 280.94262,159.68967 C 277.52349,163.138 275.81397,167.9305 275.81406,174.06719 L 275.81406,228.2459 L 257.57915,228.2459 L 257.57915,174.06719 C 257.57908,167.9305 255.85495,163.138 252.40675,159.68967 C 248.95842,156.24147 244.69193,154.51734 239.60725,154.51727 C 234.34713,154.51734 230.00758,156.24147 226.58858,159.68967 C 223.1695,163.138 221.45998,167.9305 221.46001,174.06719 L 221.46001,228.2459 L 203.13744,228.2459 z M 359.97809,206.24128 L 359.97809,100.51389 L 378.30067,100.51389 L 378.30067,204.75093 C 378.30064,208.959 380.58,211.06303 385.13876,211.06301 L 391.36317,211.06301 L 391.36317,228.2459 L 383.29773,228.2459 C 376.63495,228.2459 371.08266,226.62405 366.64085,223.38034 C 362.199,220.13664 359.97808,214.42362 359.97809,206.24128 L 359.97809,206.24128 z M 481.75162,189.67206 L 425.11821,189.67206 C 425.11819,197.15308 427.14916,202.76382 431.21113,206.50428 C 435.27303,210.24479 440.46004,212.11504 446.77216,212.11502 C 454.31154,212.11504 460.97429,209.19278 466.76042,203.34824 L 479.99826,214.65739 C 475.49791,219.91747 470.42779,223.67257 464.7879,225.9227 C 459.14788,228.17284 453.25953,229.29791 447.12283,229.29792 C 437.77156,229.29791 428.71256,226.27338 419.94581,220.2243 C 411.17902,214.17523 406.79563,201.79947 406.79564,183.09698 C 406.79563,165.38814 410.84296,153.14388 418.93763,146.36416 C 427.03226,139.58461 435.4922,136.19479 444.31746,136.1947 C 454.31154,136.19479 463.04909,139.65766 470.53014,146.58333 C 478.01105,153.50916 481.75154,162.84578 481.75162,174.5932 L 481.75162,189.67206 z M 425.11821,174.5932 L 463.51672,174.5932 C 463.22442,167.75517 461.29573,162.52433 457.73064,158.90066 C 454.16543,155.27713 449.69437,153.46533 444.31746,153.46525 C 438.88202,153.46533 434.36713,155.27713 430.77279,158.90066 C 427.17838,162.52433 425.29352,167.75517 425.11821,174.5932 L 425.11821,174.5932 z M 506.56455,228.2459 L 506.56455,137.24671 L 524.88713,137.24671 L 524.88713,228.2459 L 506.56455,228.2459 z M 506.56455,118.83647 L 506.56455,100.51389 L 524.88713,100.51389 L 524.88713,118.83647 L 506.56455,118.83647 z M 555.22313,137.24671 L 555.22313,109.63135 L 573.5457,109.63135 L 573.5457,137.24671 L 586.87121,137.24671 L 586.87121,151.27356 L 573.5457,151.27356 L 573.5457,204.22492 C 573.54567,208.78367 575.70814,211.06303 580.03312,211.06301 L 586.87121,211.06301 L 586.87121,228.2459 L 577.31542,228.2459 C 570.94486,228.2459 565.67019,226.31721 561.49138,222.45983 C 557.31253,218.60245 555.22312,213.07938 555.22313,205.89061 L 555.22313,151.27356 L 546.10568,151.27356 L 546.10568,137.24671 L 555.22313,137.24671 z M 608.96643,197.7375 L 608.96643,137.24671 L 627.28901,137.24671 L 627.28901,191.51309 C 627.28898,197.70831 628.9985,202.51542 632.41758,205.93444 C 635.83658,209.35351 640.17613,211.06303 645.43625,211.06301 C 650.52093,211.06303 654.77281,209.35351 658.19191,205.93444 C 661.61089,202.51542 663.32041,197.70831 663.32048,191.51309 L 663.32048,137.24671 L 681.64305,137.24671 L 681.64305,228.2459 L 663.32048,228.2459 L 663.32048,218.60244 L 662.96981,218.60244 C 657.30056,225.73276 649.46891,229.29791 639.47483,229.29792 C 632.28604,229.29791 625.40412,226.62405 618.82906,221.27631 C 612.25396,215.92859 608.96642,208.08232 608.96643,197.7375 L 608.96643,197.7375 z M 710.401,228.2459 L 710.401,137.24671 L 728.72358,137.24671 L 728.72358,146.97784 L 729.07425,146.97784 C 734.7434,139.78916 742.63349,136.19479 752.74456,136.1947 C 759.81637,136.19479 766.63984,138.88326 773.21499,144.26013 C 779.79,149.63717 783.07754,157.46882 783.07762,167.75511 L 783.07762,228.2459 L 764.75505,228.2459 L 764.75505,174.06719 C 764.75498,167.9305 763.04546,163.138 759.62648,159.68967 C 756.20738,156.24147 751.9555,154.51734 746.87082,154.51727 C 741.6107,154.51734 737.27115,156.24147 733.85215,159.68967 C 730.43307,163.138 728.72355,167.9305 728.72358,174.06719 L 728.72358,228.2459 L 710.401,228.2459 z M 862.94597,228.15823 L 862.94597,218.77778 C 856.57539,225.7912 848.74374,229.29791 839.451,229.29792 C 833.48955,229.29791 828.5071,228.1144 824.50364,225.74737 C 820.50012,223.38034 817.47558,220.88181 815.43002,218.25177 C 812.79997,214.86196 811.00278,211.26758 810.03845,207.46863 C 809.07409,203.66972 808.59192,195.45817 808.59193,182.83397 C 808.59192,170.20987 809.07409,161.99832 810.03845,158.19932 C 811.00278,154.40045 812.79997,150.77685 815.43002,147.32851 C 817.47558,144.757 820.50012,142.25847 824.50364,139.83291 C 828.5071,137.40752 833.48955,136.19479 839.451,136.1947 C 848.33462,136.19479 856.16627,139.78916 862.94597,146.97784 L 862.94597,137.24671 L 881.26855,137.24671 L 881.26855,226.14187 C 881.26846,239.81804 877.27958,249.89983 869.30189,256.38727 C 861.32406,262.87465 852.16278,266.11836 841.81803,266.1184 C 835.97347,266.11836 830.24585,264.71568 824.63514,261.91034 C 819.02438,259.10494 814.20265,255.4229 810.16995,250.8642 L 824.37213,239.55505 C 826.59303,241.77595 829.23767,243.70464 832.30607,245.34113 C 835.37441,246.97757 838.66195,247.7958 842.1687,247.79582 C 848.24695,247.7958 853.2294,246.1009 857.11606,242.71109 C 861.00261,239.32126 862.94591,234.47031 862.94597,228.15823 L 862.94597,228.15823 z M 826.9145,182.83397 C 826.91447,190.13966 827.10442,194.99061 827.48434,197.38683 C 827.86421,199.78311 828.87239,202.00403 830.50888,204.04958 C 831.7362,205.68607 833.548,207.26409 835.94429,208.78365 C 838.3405,210.30324 841.37965,211.06303 845.06174,211.06301 C 848.62685,211.06303 851.59294,210.30324 853.96002,208.78365 C 856.327,207.26409 858.15341,205.68607 859.43926,204.04958 C 861.01722,202.00403 861.99618,199.78311 862.37613,197.38683 C 862.75596,194.99061 862.94591,190.13966 862.94597,182.83397 C 862.94591,175.52837 862.75596,170.67743 862.37613,168.28112 C 861.99618,165.88492 861.01722,163.63479 859.43926,161.53069 C 858.15341,159.95274 856.327,158.38933 853.96002,156.84047 C 851.59294,155.29174 848.62685,154.51734 845.06174,154.51727 C 841.37965,154.51734 838.3405,155.29174 835.94429,156.84047 C 833.548,158.38933 831.7362,159.95274 830.50888,161.53069 C 828.87239,163.63479 827.86421,165.88492 827.48434,168.28112 C 827.10442,170.67743 826.91447,175.52837 826.9145,182.83397 L 826.9145,182.83397 z "
     style="font-size:179.54368591px;font-style:normal;font-variant:normal;font-weight:normal;font-stretch:normal;text-align:center;line-height:100%;letter-spacing:5px;writing-mode:lr-tb;text-anchor:middle;fill:black;fill-opacity:1;stroke:none;stroke-width:1px;stroke-linecap:butt;stroke-linejoin:miter;stroke-opacity:1;font-family:DIN 1451 Mittelschrift"
     id="text3655" />
</svg>
