<?xml version="1.0" encoding="UTF-8" standalone="no"?>
<!-- Created with Inkscape (http://www.inkscape.org/) -->
<svg
   xmlns:svg="http://www.w3.org/2000/svg"
   xmlns="http://www.w3.org/2000/svg"
   version="1.0"
   width="590"
   height="350"
   id="svg2">
  <defs
     id="defs13" />
  <rect
     width="568.74304"
     height="341.24585"
     rx="22.25"
     ry="22.25"
     x="10.628479"
     y="4.3770752"
     style="fill:white;stroke:black;stroke-width:2;stroke-miterlimit:4;stroke-dasharray:none;stroke-opacity:1"
     id="rect4" />
  <rect
     width="544.57147"
     height="317.07425"
     rx="18"
     ry="18"
     x="22.714264"
     y="16.462875"
     style="fill:#093;fill-opacity:1;stroke:none"
     id="rect6" />
  <path
     d="M 73.644866,272.33377 L 73.644866,77.666246 L 198.16795,77.666246 L 198.16795,105.59041 L 103.17234,105.59041 L 103.17234,161.03793 L 184.13906,161.03793 L 184.13906,187.35879 L 103.17234,187.35879 L 103.17234,244.54321 L 198.16795,244.54321 L 198.16795,272.33377 L 73.644866,272.33377 z "
     style="font-size:273.63012695px;font-style:normal;font-variant:normal;font-weight:normal;font-stretch:normal;text-align:center;line-height:100%;writing-mode:lr-tb;text-anchor:middle;fill:white;fill-opacity:1;stroke:none;stroke-width:1px;stroke-linecap:butt;stroke-linejoin:miter;stroke-opacity:1;font-family:DIN 1451 Mittelschrift"
     id="text4547" />
  <path
     d="M 306.28366,184.86508 L 306.28366,160.28113 L 315.90347,160.28113 C 325.16692,160.28124 332.49311,157.67588 337.88206,152.46503 C 343.27085,147.25443 345.96528,140.64081 345.96537,132.62417 C 345.96528,124.69689 343.15951,118.01647 337.54804,112.58291 C 331.93641,107.14966 325.25599,104.43296 317.50677,104.43279 C 311.62794,104.43296 306.06093,106.39255 300.80571,110.31156 C 295.55041,114.2309 292.16567,120.10967 290.65147,127.94788 L 262.7273,127.94788 C 263.79616,114.2309 269.54132,102.22842 279.96279,91.940398 C 290.38422,81.652738 302.54258,76.508817 316.4379,76.508621 C 333.80693,76.508817 347.72446,82.231707 358.19055,93.677308 C 368.65643,105.12327 373.88943,117.9274 373.88954,132.08974 C 373.88943,139.57195 372.41973,146.8536 369.48046,153.93472 C 366.54097,161.01608 361.06303,167.1398 353.04662,172.30589 C 361.24117,177.56125 367.11994,184.01898 370.68294,191.67911 C 374.24571,199.33941 376.02716,207.08869 376.02728,214.92699 C 376.02716,233.09778 370.32654,247.57201 358.92539,258.34974 C 347.52405,269.12749 333.53971,274.51636 316.97234,274.51636 C 303.78959,274.51636 291.92072,270.26316 281.36568,261.75675 C 270.8106,253.25037 264.24152,240.84706 261.65843,224.5468 L 289.5826,224.5468 C 292.16567,231.22726 295.63948,236.59386 300.00406,240.64661 C 304.36856,244.69943 310.55908,246.72583 318.57564,246.7258 C 326.32486,246.72583 333.18342,243.98686 339.15134,238.50888 C 345.1191,233.03097 348.10302,225.4821 348.10311,215.86225 C 348.10302,206.15343 345.14137,198.56002 339.21815,193.082 C 333.29476,187.60414 326.23579,184.86517 318.0412,184.86508 L 306.28366,184.86508 z M 409.89082,182.72735 L 462.13173,78.245531 L 493.2625,78.245531 L 452.24471,160.54834 L 452.77914,160.54834 C 457.14362,158.85608 462.08713,158.0099 467.60968,158.00978 C 479.90157,158.0099 490.72384,162.3299 500.07653,170.9698 C 509.42901,179.60991 514.1053,193.37157 514.10542,212.25482 C 514.1053,234.612 508.13746,250.5782 496.20189,260.15345 C 484.26611,269.72873 471.08342,274.51636 456.65379,274.51636 C 443.02567,274.51636 430.57783,269.23883 419.31022,258.68376 C 408.04256,248.12871 402.40874,233.67675 402.40875,215.32781 C 402.40874,203.57034 404.90276,192.70353 409.89082,182.72735 L 409.89082,182.72735 z M 458.25709,182.72735 C 450.50774,182.72744 443.91639,185.3328 438.48303,190.54344 C 433.04958,195.75425 430.33288,203.79302 430.33292,214.65977 C 430.33288,236.03716 439.64093,246.72583 458.25709,246.7258 C 464.67022,246.72583 470.92754,244.29861 477.02908,239.44414 C 483.13044,234.58974 486.18116,226.32829 486.18126,214.65977 C 486.18116,203.79302 483.44219,195.75425 477.96433,190.54344 C 472.48631,185.3328 465.91723,182.72744 458.25709,182.72735 L 458.25709,182.72735 z "
     style="font-size:273.63012695px;font-style:normal;font-variant:normal;font-weight:normal;font-stretch:normal;text-align:center;line-height:100%;letter-spacing:3px;writing-mode:lr-tb;text-anchor:middle;fill:white;fill-opacity:1;stroke:none;stroke-width:1px;stroke-linecap:butt;stroke-linejoin:miter;stroke-opacity:1;font-family:DIN 1451 Mittelschrift"
     id="text4555" />
</svg>
