<?xml version="1.0" encoding="UTF-8" standalone="no"?>
<!-- Created with Inkscape (http://www.inkscape.org/) -->

<svg
   xmlns:dc="http://purl.org/dc/elements/1.1/"
   xmlns:cc="http://creativecommons.org/ns#"
   xmlns:rdf="http://www.w3.org/1999/02/22-rdf-syntax-ns#"
   xmlns:svg="http://www.w3.org/2000/svg"
   xmlns="http://www.w3.org/2000/svg"
   xmlns:sodipodi="http://sodipodi.sourceforge.net/DTD/sodipodi-0.dtd"
   xmlns:inkscape="http://www.inkscape.org/namespaces/inkscape"
   version="1.0"
   width="600"
   height="760"
   id="svg1961"
   inkscape:version="0.48.1 r9760"
   sodipodi:docname="Zeichen_466.svg">
  <metadata
     id="metadata27">
    <rdf:RDF>
      <cc:Work
         rdf:about="">
        <dc:format>image/svg+xml</dc:format>
        <dc:type
           rdf:resource="http://purl.org/dc/dcmitype/StillImage" />
        <dc:title></dc:title>
      </cc:Work>
    </rdf:RDF>
  </metadata>
  <sodipodi:namedview
     pagecolor="#ffffff"
     bordercolor="#666666"
     borderopacity="1"
     objecttolerance="10"
     gridtolerance="10"
     guidetolerance="10"
     inkscape:pageopacity="0"
     inkscape:pageshadow="2"
     inkscape:window-width="790"
     inkscape:window-height="687"
     id="namedview25"
     showgrid="false"
     inkscape:zoom="0.50273454"
     inkscape:cx="227.68888"
     inkscape:cy="330.28943"
     inkscape:window-x="0"
     inkscape:window-y="0"
     inkscape:window-maximized="0"
     inkscape:current-layer="svg1961" />
  <defs
     id="defs1963" />
  <path
     d="M 27.311835,758.83044 C 13.950556,758.83044 4.0081595,742.12576 4.0081595,734.48598 C 4.2583161,566.53664 3.869198,27.192473 3.869198,27.192473 C 3.869198,16.454096 16.602209,1.7411971 29.367238,1.7411971 C 196.55794,1.941236 404.79296,0.5604711 571.96585,1.2605022 C 582.50202,1.2605022 596.1308,13.123675 596.1308,28.263066 C 596.1308,28.263066 595.44353,733.61923 595.44353,733.61923 C 595.44353,744.54417 583.18655,758.93923 571.73789,758.93923 C 571.73789,758.93923 27.311835,758.83044 27.311835,758.83044 z "
     style="fill:#fffefe;fill-rule:evenodd;stroke:black;stroke-opacity:1"
     id="path46" />
  <path
     d="M 34.220568,747.35363 C 21.806484,747.35363 15.860177,737.55243 15.208032,728.38641 C 15.208032,566.90918 15.211855,194.74772 15.211855,33.270485 C 15.211855,23.814959 19.938831,13.160066 34.008994,13.160066 C 34.008994,13.160066 567.3724,13.001711 567.3724,13.001711 C 568.60111,12.672478 584.00577,14.763344 584.00577,30.180449 C 584.00577,30.180449 583.77397,729.11732 583.77397,729.11732 C 583.77397,741.6024 574.00903,747.19528 568.96946,747.19528 C 568.96946,747.19528 195.84291,747.35363 34.220568,747.35363 z "
     style="fill:none;fill-rule:evenodd;stroke:black;stroke-width:10;stroke-miterlimit:4;stroke-dasharray:none;stroke-opacity:1"
     id="path50" />
  <path
     d="M 282.91359,487.90024 L 103.56381,287.27476 L 85.057221,301.08723 L 89.669136,257.0309 L 136.90052,261.51659 L 119.9973,274.21102 L 299.74412,448.88828 L 282.91359,487.90024 z "
     style="fill:none;fill-opacity:0.75;fill-rule:evenodd;stroke:black;stroke-width:5;stroke-linecap:butt;stroke-linejoin:miter;stroke-miterlimit:4;stroke-dasharray:none;stroke-opacity:1"
     id="path8159" />
  <path
     d="M 17.728419,162.54003 L 384.72063,16.415388 L 416.14856,16.601653 L 17.87235,211.60384 L 17.728419,162.54003 z "
     style="fill:black;fill-opacity:1;fill-rule:evenodd;stroke:none;stroke-width:1px;stroke-linecap:butt;stroke-linejoin:miter;stroke-opacity:1"
     id="path8153" />
  <path
     d="M 426.00964,16.609877 L 458.34759,16.852889 L 19.629514,279.42066 L 19.808435,230.81293 L 426.00964,16.609877 z "
     style="fill:black;fill-opacity:1;fill-rule:evenodd;stroke:none;stroke-width:1px;stroke-linecap:butt;stroke-linejoin:miter;stroke-opacity:1"
     id="path8155" />
  <path
     d="M 210.70122,136.16561 L 244.32647,138.1934 L 19.49902,269.01403 L 19.638868,240.82982 L 210.70122,136.16561 z "
     style="fill:white;fill-opacity:1;fill-rule:evenodd;stroke:none;stroke-width:1px;stroke-linecap:butt;stroke-linejoin:miter;stroke-opacity:1"
     id="path8157" />
  <path
     d="M 280.46362,743.2476 L 280.53682,487.02813 L 422.80215,143.41658 L 404.63846,90.095517 L 391.57574,100.10893 L 400.32396,60.193909 L 433.74065,65.962134 L 421.08088,76.70564 L 455.69345,138.57023 L 318.96442,498.16811 L 318.96442,743.39734 L 280.46362,743.2476 z "
     style="fill:black;fill-opacity:1;fill-rule:evenodd;stroke:none;stroke-width:1px;stroke-linecap:butt;stroke-linejoin:miter;stroke-opacity:1"
     id="path9931" />
  <path
     d="M 345.44879,182.8504 L 504.90779,182.8504 C 511.11327,183.02519 518.25948,190.98708 518.25948,195.32816 L 518.25948,262.58485 C 518.14296,268.14945 510.99675,274.59651 505.1991,274.71303 L 345.79836,274.71303 C 339.06851,274.7713 332.15535,270.36343 332.15535,262.23527 L 332.21361,196.37689 C 332.09709,190.96309 339.59288,182.8504 345.44879,182.8504 z "
     style="fill:#154889;fill-opacity:1;fill-rule:nonzero;stroke:white;stroke-width:5.93851088999999988;stroke-linecap:round;stroke-linejoin:miter;stroke-miterlimit:4;stroke-dashoffset:0;stroke-opacity:1"
     id="rect9933" />
  <path
     d="M 96.978484,341.29804 L 256.43748,341.29804 C 262.64296,341.47283 269.78917,349.43472 269.78917,353.7758 L 269.78917,421.03249 C 269.67265,426.59709 262.52644,433.04415 256.72879,433.16067 L 97.328054,433.16067 C 90.598204,433.21894 83.685044,428.81107 83.685044,420.68291 L 83.743304,354.82453 C 83.626784,349.41073 91.122574,341.29804 96.978484,341.29804 z "
     style="fill:#154889;fill-opacity:1;fill-rule:nonzero;stroke:white;stroke-width:5.93851088999999988;stroke-linecap:round;stroke-linejoin:miter;stroke-miterlimit:4;stroke-dashoffset:0;stroke-opacity:1"
     id="path9938" />
  <path
     d="M 220.16469,562.63126 L 379.62369,562.63126 C 385.82917,562.80605 392.97538,570.76794 392.97538,575.10902 L 392.97538,642.36571 C 392.85886,647.93031 385.71265,654.37737 379.915,654.49389 L 220.51426,654.49389 C 213.78441,654.55216 206.87125,650.14429 206.87125,642.01613 L 206.92951,576.15775 C 206.81299,570.74395 214.30878,562.63126 220.16469,562.63126 z "
     style="fill:#154889;fill-opacity:1;fill-rule:nonzero;stroke:white;stroke-width:5.93851088999999988;stroke-linecap:round;stroke-linejoin:miter;stroke-miterlimit:4;stroke-dashoffset:0;stroke-opacity:1"
     id="path9940" />
  <path
     d="M 349.65092,239.1308 L 349.65092,195.53734 L 359.64486,195.53734 L 359.64486,238.00026 C 359.64484,242.55257 360.93365,246.02708 363.51129,248.4238 C 366.08889,250.82054 369.27699,252.01891 373.07562,252.0189 C 376.87419,252.01891 380.06229,250.82054 382.63995,248.4238 C 385.21753,246.02708 386.50634,242.55257 386.50638,238.00026 L 386.50638,195.53734 L 396.50032,195.53734 L 396.50032,239.1308 C 396.50026,246.00447 394.22412,251.52901 389.67188,255.70445 C 385.11955,259.87989 379.58747,261.96761 373.07562,261.96762 C 366.53356,261.96761 360.99394,259.87989 356.45674,255.70445 C 351.91952,251.52901 349.65091,246.00447 349.65092,239.1308 L 349.65092,239.1308 z "
     style="font-size:92.61347961px;font-style:normal;font-variant:normal;font-weight:normal;font-stretch:normal;text-align:center;line-height:100%;writing-mode:lr-tb;text-anchor:middle;fill:white;fill-opacity:1;stroke:none;stroke-width:1px;stroke-linecap:butt;stroke-linejoin:miter;stroke-opacity:1;font-family:DIN 1451 Mittelschrift"
     id="text10829" />
  <path
     d="M 285.55525,642.09898 L 285.55525,633.20331 L 311.42531,600.84304 C 312.42378,599.57227 313.07431,598.40736 313.37691,597.34831 C 313.67946,596.28935 313.83074,595.2606 313.83077,594.26206 C 313.83074,591.96255 313.01379,589.82184 311.37993,587.83993 C 309.746,585.85813 307.52209,584.8672 304.70817,584.86714 C 302.13628,584.8672 299.93505,585.72197 298.1045,587.43145 C 296.27391,589.14105 295.25273,591.47843 295.04094,594.4436 L 285.55525,594.4436 C 285.5855,589.0881 287.41607,584.57219 291.04696,580.89586 C 294.67784,577.21965 298.98951,575.38152 303.982,575.38145 C 309.48881,575.38152 314.08037,577.23478 317.75667,580.94124 C 321.4329,584.64783 323.27104,589.11836 323.27108,594.35283 C 323.27104,598.83097 321.95484,602.70391 319.32249,605.97167 L 298.03642,632.65868 L 323.27108,632.65868 L 323.27108,642.09898 L 285.55525,642.09898 z "
     style="font-size:92.95068359px;font-style:normal;font-variant:normal;font-weight:normal;font-stretch:normal;text-align:center;line-height:100%;writing-mode:lr-tb;text-anchor:middle;fill:white;fill-opacity:1;stroke:none;stroke-width:1px;stroke-linecap:butt;stroke-linejoin:miter;stroke-opacity:1;font-family:DIN 1451 Mittelschrift"
     id="text10863" />
  <path
     d="M 408.31435,262.4192 L 408.31435,253.47018 L 434.33957,220.91582 C 435.34402,219.63744 435.99846,218.46554 436.30287,217.40014 C 436.60723,216.33482 436.75943,215.2999 436.75946,214.29537 C 436.75943,211.98207 435.93758,209.82852 434.29391,207.83473 C 432.65018,205.84104 430.41293,204.84417 427.58214,204.84411 C 424.99482,204.84417 422.7804,205.70406 420.93886,207.4238 C 419.0973,209.14365 418.06999,211.49505 417.85693,214.47801 L 408.31435,214.47801 C 408.34479,209.09038 410.18633,204.54739 413.839,200.84901 C 417.49165,197.15076 421.82918,195.3016 426.85161,195.30153 C 432.39145,195.3016 437.01055,197.16597 440.7089,200.89467 C 444.40718,204.62349 446.25634,209.12082 446.25638,214.38669 C 446.25634,218.89168 444.93225,222.78785 442.28411,226.07521 L 420.87038,252.92228 L 446.25638,252.92228 L 446.25638,262.4192 L 408.31435,262.4192 z "
     style="font-size:93.50815582px;font-style:normal;font-variant:normal;font-weight:normal;font-stretch:normal;text-align:center;line-height:100%;writing-mode:lr-tb;text-anchor:middle;fill:white;fill-opacity:1;stroke:none;stroke-width:1px;stroke-linecap:butt;stroke-linejoin:miter;stroke-opacity:1;font-family:DIN 1451 Mittelschrift"
     id="text10867" />
  <path
     d="M 457.88467,252.63128 L 457.88467,243.53059 L 480.42852,195.30153 L 491.19229,195.30153 L 468.41745,243.53059 L 485.97209,243.53059 L 485.97209,224.12809 L 495.62715,224.12809 L 495.62715,243.53059 L 501.03213,243.53059 L 501.03213,252.63128 L 495.62715,252.63128 L 495.62715,262.60971 L 485.97209,262.60971 L 485.97209,252.63128 L 457.88467,252.63128 z "
     style="font-size:94.61026764px;font-style:normal;font-variant:normal;font-weight:normal;font-stretch:normal;text-align:center;line-height:100%;writing-mode:lr-tb;text-anchor:middle;fill:white;fill-opacity:1;stroke:none;stroke-width:1px;stroke-linecap:butt;stroke-linejoin:miter;stroke-opacity:1;font-family:DIN 1451 Mittelschrift"
     id="text10873" />
  <path
     d="M 226.69661,619.36306 L 226.69661,575.76961 L 236.69054,575.76961 L 236.69054,618.23253 C 236.69052,622.78484 237.97933,626.25935 240.55697,628.65607 C 243.13457,631.05281 246.32268,632.25118 250.1213,632.25117 C 253.91987,632.25118 257.10798,631.05281 259.68564,628.65607 C 262.26321,626.25935 263.55202,622.78484 263.55207,618.23253 L 263.55207,575.76961 L 273.546,575.76961 L 273.546,619.36306 C 273.54595,626.23674 271.26981,631.76128 266.71757,635.93672 C 262.16524,640.11216 256.63315,642.19988 250.1213,642.19988 C 243.57925,642.19988 238.03963,640.11216 233.50243,635.93672 C 228.96521,631.76128 226.6966,626.23674 226.69661,619.36306 L 226.69661,619.36306 z "
     style="font-size:92.61347961px;font-style:normal;font-variant:normal;font-weight:normal;font-stretch:normal;text-align:center;line-height:100%;writing-mode:lr-tb;text-anchor:middle;fill:white;fill-opacity:1;stroke:none;stroke-width:1px;stroke-linecap:butt;stroke-linejoin:miter;stroke-opacity:1;font-family:DIN 1451 Mittelschrift"
     id="text10877" />
  <path
     d="M 335.4712,642.09898 L 335.4712,633.20331 L 361.34127,600.84304 C 362.33973,599.57227 362.99026,598.40736 363.29287,597.34831 C 363.59541,596.28935 363.7467,595.2606 363.74673,594.26206 C 363.7467,591.96255 362.92975,589.82184 361.29588,587.83993 C 359.66196,585.85813 357.43804,584.8672 354.62413,584.86714 C 352.05223,584.8672 349.85101,585.72197 348.02045,587.43145 C 346.18987,589.14105 345.16868,591.47843 344.95689,594.4436 L 335.4712,594.4436 C 335.50146,589.0881 337.33203,584.57219 340.96292,580.89586 C 344.59379,577.21965 348.90547,575.38152 353.89795,575.38145 C 359.40477,575.38152 363.99632,577.23478 367.67262,580.94124 C 371.34886,584.64783 373.18699,589.11836 373.18703,594.35283 C 373.18699,598.83097 371.8708,602.70391 369.23844,605.97167 L 347.95237,632.65868 L 373.18703,632.65868 L 373.18703,642.09898 L 335.4712,642.09898 z "
     style="font-size:92.95068359px;font-style:normal;font-variant:normal;font-weight:normal;font-stretch:normal;text-align:center;line-height:100%;writing-mode:lr-tb;text-anchor:middle;fill:white;fill-opacity:1;stroke:none;stroke-width:1px;stroke-linecap:butt;stroke-linejoin:miter;stroke-opacity:1;font-family:DIN 1451 Mittelschrift"
     id="text10885" />
  <path
     d="M 162.12605,420.25902 L 162.12605,411.36334 L 187.99611,379.00307 C 188.99458,377.73231 189.64511,376.5674 189.94771,375.50834 C 190.25026,374.44938 190.40154,373.42063 190.40158,372.42209 C 190.40154,370.12258 189.5846,367.98187 187.95073,365.99996 C 186.3168,364.01816 184.09289,363.02723 181.27897,363.02717 C 178.70708,363.02723 176.50585,363.882 174.6753,365.59149 C 172.84471,367.30108 171.82353,369.63846 171.61174,372.60364 L 162.12605,372.60364 C 162.1563,367.24813 163.98687,362.73222 167.61777,359.05589 C 171.24864,355.37969 175.56031,353.54155 180.5528,353.54148 C 186.05961,353.54155 190.65117,355.39481 194.32747,359.10128 C 198.0037,362.80787 199.84184,367.27839 199.84188,372.51286 C 199.84184,376.991 198.52564,380.86394 195.89329,384.1317 L 174.60722,410.81871 L 199.84188,410.81871 L 199.84188,420.25902 L 162.12605,420.25902 z "
     style="font-size:92.95068359px;font-style:normal;font-variant:normal;font-weight:normal;font-stretch:normal;text-align:center;line-height:100%;writing-mode:lr-tb;text-anchor:middle;fill:white;fill-opacity:1;stroke:none;stroke-width:1px;stroke-linecap:butt;stroke-linejoin:miter;stroke-opacity:1;font-family:DIN 1451 Mittelschrift"
     id="text10891" />
  <path
     d="M 103.26741,397.5231 L 103.26741,353.92964 L 113.26134,353.92964 L 113.26134,396.39256 C 113.26133,400.94487 114.55013,404.41938 117.12777,406.8161 C 119.70537,409.21285 122.89348,410.41121 126.6921,410.41121 C 130.49067,410.41121 133.67878,409.21285 136.25644,406.8161 C 138.83402,404.41938 140.12283,400.94487 140.12287,396.39256 L 140.12287,353.92964 L 150.1168,353.92964 L 150.1168,397.5231 C 150.11675,404.39677 147.84061,409.92132 143.28837,414.09675 C 138.73604,418.2722 133.20395,420.35992 126.6921,420.35992 C 120.15005,420.35992 114.61043,418.2722 110.07323,414.09675 C 105.53601,409.92132 103.2674,404.39677 103.26741,397.5231 L 103.26741,397.5231 z "
     style="font-size:92.61347961px;font-style:normal;font-variant:normal;font-weight:normal;font-stretch:normal;text-align:center;line-height:100%;writing-mode:lr-tb;text-anchor:middle;fill:white;fill-opacity:1;stroke:none;stroke-width:1px;stroke-linecap:butt;stroke-linejoin:miter;stroke-opacity:1;font-family:DIN 1451 Mittelschrift"
     id="text10895" />
  <path
     d="M 212.042,420.25902 L 212.042,411.36334 L 237.91207,379.00307 C 238.91053,377.73231 239.56106,376.5674 239.86367,375.50834 C 240.16621,374.44938 240.3175,373.42063 240.31753,372.42209 C 240.3175,370.12258 239.50055,367.98187 237.86668,365.99996 C 236.23276,364.01816 234.00884,363.02723 231.19493,363.02717 C 228.62303,363.02723 226.42181,363.882 224.59125,365.59149 C 222.76067,367.30108 221.73948,369.63846 221.52769,372.60364 L 212.042,372.60364 C 212.07226,367.24813 213.90283,362.73222 217.53372,359.05589 C 221.16459,355.37969 225.47627,353.54155 230.46875,353.54148 C 235.97557,353.54155 240.56712,355.39481 244.24343,359.10128 C 247.91966,362.80787 249.75779,367.27839 249.75783,372.51286 C 249.75779,376.991 248.4416,380.86394 245.80925,384.1317 L 224.52318,410.81871 L 249.75783,410.81871 L 249.75783,420.25902 L 212.042,420.25902 z "
     style="font-size:92.95068359px;font-style:normal;font-variant:normal;font-weight:normal;font-stretch:normal;text-align:center;line-height:100%;writing-mode:lr-tb;text-anchor:middle;fill:white;fill-opacity:1;stroke:none;stroke-width:1px;stroke-linecap:butt;stroke-linejoin:miter;stroke-opacity:1;font-family:DIN 1451 Mittelschrift"
     id="text10899" />
  <path
     d="M 85.970676,448.3996 L 98.468404,464.19621 L 266.93959,325.92596 L 254.20435,310.4676 L 85.970676,448.3996 z "
     style="fill:#c1121c;fill-opacity:1;fill-rule:evenodd;stroke:none;stroke-width:1px;stroke-linecap:butt;stroke-linejoin:miter;stroke-opacity:1"
     id="path9942" />
</svg>
