<?xml version="1.0" encoding="UTF-8" standalone="no"?>
<!-- Created with Inkscape (http://www.inkscape.org/) -->
<svg
   xmlns:svg="http://www.w3.org/2000/svg"
   xmlns="http://www.w3.org/2000/svg"
   version="1.0"
   width="480"
   height="720"
   id="svg2">
  <defs
     id="defs4" />
  <path
     d="M 31.041938,10.47049 L 451.05498,10.47049 C 461.871,11.253908 474.12732,22.205493 474.7219,35.106921 L 474.7219,684.89403 C 474.7219,696.50838 464.78213,709.53047 449.55706,709.53047 L 30.143193,709.53047 C 16.204067,709.53047 5.2779428,697.53917 5.2779428,684.5972 L 4.9501279,35.172001 C 4.9501279,21.115139 16.682662,10.47049 31.041938,10.47049 z "
     style="fill:#fc3;fill-opacity:1;fill-rule:evenodd;stroke:black;stroke-width:1.99081528;stroke-linecap:butt;stroke-linejoin:miter;stroke-miterlimit:4;stroke-dasharray:none;stroke-opacity:1"
     id="path3669" />
  <path
     d="M 393.83293,22.863531 L 84.477458,22.863531 L 34.852924,22.894381 C 23.07759,22.386051 16.356631,30.317428 16.799104,43.008806 L 16.799104,677.63128 C 16.845717,686.18762 20.531942,696.45785 32.506239,696.66592 L 447.46248,697.19039 C 459.43677,696.98228 463.1543,686.71209 463.2009,678.15573 L 463.2009,42.947106 C 463.64336,30.255727 456.92242,22.324344 445.14708,22.83268 L 393.83293,22.863531 z "
     style="fill:#fc3;fill-opacity:1;fill-rule:evenodd;stroke:black;stroke-width:13;stroke-linecap:butt;stroke-linejoin:miter;stroke-miterlimit:4;stroke-dasharray:none;stroke-opacity:1"
     id="path2774" />
  <path
     d="M 125.26543,212.86762 L 125.26543,120.32143 L 146.48193,120.32143 L 146.48193,210.46756 C 146.4819,220.13183 149.21796,227.508 154.69013,232.59609 C 160.16221,237.68423 166.93036,240.22829 174.99461,240.22827 C 183.05873,240.22829 189.82688,237.68423 195.29909,232.59609 C 200.77113,227.508 203.50719,220.13183 203.50728,210.46756 L 203.50728,120.32143 L 224.72379,120.32143 L 224.72379,212.86762 C 224.72367,227.46 219.89156,239.18826 210.22744,248.05245 C 200.56313,256.91667 188.81886,261.34877 174.99461,261.34877 C 161.10623,261.34877 149.34596,256.91667 139.71377,248.05245 C 130.08153,239.18826 125.26542,227.46 125.26543,212.86762 L 125.26543,212.86762 z "
     style="font-size:196.61265564px;font-style:normal;font-variant:normal;font-weight:normal;font-stretch:normal;text-align:center;line-height:100%;writing-mode:lr-tb;text-anchor:middle;fill:black;fill-opacity:1;stroke:none;stroke-width:1px;stroke-linecap:butt;stroke-linejoin:miter;stroke-opacity:1;font-family:DIN 1451 Mittelschrift"
     id="text5503" />
  <path
     d="M 167.96707,492.46194 L 221.16979,439.25922 L 221.44795,645.52387 C 221.44795,645.52387 258.01671,645.7837 258.01671,645.7837 L 258.16506,438.29494 L 312.36915,492.49904 L 312.36915,445.8238 L 240.23301,373.70621 L 240.23301,373.52076 L 240.1403,373.61348 L 240.08466,373.55785 L 240.08466,373.66911 L 167.96707,445.80526 L 167.96707,492.46194 z "
     style="fill:black;fill-opacity:1;fill-rule:evenodd;stroke:none;stroke-width:1px;stroke-linecap:butt;stroke-linejoin:miter;stroke-opacity:1"
     id="path1885" />
  <path
     d="M 304.80517,197.57126 L 304.80517,179.90684 L 311.71733,179.90684 C 318.37344,179.90692 323.63756,178.03488 327.5097,174.29071 C 331.38173,170.54671 333.31778,165.7946 333.31784,160.03437 C 333.31778,154.33834 331.30173,149.53823 327.2697,145.63403 C 323.23755,141.73005 318.43744,139.77801 312.86936,139.77789 C 308.64522,139.77801 304.64513,141.18604 300.86907,144.00199 C 297.09296,146.81817 294.6609,151.04227 293.5729,156.67429 L 273.50842,156.67429 C 274.27644,146.81817 278.40453,138.19397 285.89272,130.80168 C 293.38087,123.40964 302.11707,119.71355 312.10134,119.71341 C 324.58158,119.71355 334.58181,123.82565 342.10205,132.04971 C 349.62215,140.27402 353.38223,149.47423 353.38232,159.65036 C 353.38223,165.02658 352.32621,170.2587 350.21424,175.34673 C 348.10211,180.43493 344.16602,184.83503 338.40596,188.54704 C 344.29403,192.3232 348.51812,196.96331 351.07826,202.46737 C 353.63824,207.97156 354.91827,213.53968 354.91835,219.17177 C 354.91827,232.22811 350.82217,242.62834 342.63006,250.37251 C 334.4378,258.11669 324.38958,261.98878 312.48535,261.98878 C 303.01309,261.98878 294.4849,258.93271 286.90074,252.82057 C 279.31655,246.70843 274.59645,237.79623 272.74041,226.08393 L 292.80488,226.08393 C 294.6609,230.88408 297.15696,234.74016 300.29306,237.65221 C 303.4291,240.5643 307.8772,242.02033 313.63738,242.02031 C 319.20546,242.02033 324.13357,240.05228 328.42173,236.11617 C 332.70976,232.18011 334.85381,226.75598 334.85388,219.84378 C 334.85381,212.86767 332.72576,207.41154 328.46973,203.4754 C 324.21357,199.53937 319.14146,197.57132 313.25337,197.57126 L 304.80517,197.57126 z "
     style="font-size:196.61265564px;font-style:normal;font-variant:normal;font-weight:normal;font-stretch:normal;text-align:center;line-height:100%;writing-mode:lr-tb;text-anchor:middle;fill:black;fill-opacity:1;stroke:none;stroke-width:1px;stroke-linecap:butt;stroke-linejoin:miter;stroke-opacity:1;font-family:DIN 1451 Mittelschrift"
     id="text5511" />
</svg>
