<?xml version="1.0" standalone="no"?>
<!DOCTYPE svg PUBLIC "-//W3C//DTD SVG 1.1//EN" "http://www.w3.org/Graphics/SVG/1.1/DTD/svg11.dtd">
<svg width="1250" height="1600" version="1.1" xmlns="http://www.w3.org/2000/svg">
<path fill="white" stroke="black" stroke-width="1" d="M60 1600A60 60 0 0 1 0 1540L0 60A60 60 0 0 1 60 0L1190 0A60 60 0 0 1 1250 60L1250 1540A60 60 0 0 1 1190 1600L60 1600Z" />
<path fill="black" stroke="none" d="M60 1585A45 45 0 0 1 15 1540L15 60A45 45 0 0 1 60 15L1190 15A45 45 0 0 1 1235 60L1235 1540A45 45 0 0 1 1190 1585L60 1585Z" />
<path fill="white" stroke="none" d="M60 1565A25 25 0 0 1 35 1540L35 60A25 25 0 0 1 60 35L1190 35A25 25 0 0 1 1215 60L1215 1540A25 25 0 0 1 1190 1565L60 1565Z" />
<path fill="black" stroke="none" fill-rule="evenodd" d="M330 1307L374.999901076814 1295.38107550368A12 12 0 0 1 389.562333240056 1310.21130036681A12 12 0 0 1 387.971231041917 1313.67641756549L300 1445L212.028768958083 1313.67641756549A12 12 0 0 1 221.203668302975 1295.02645182795A12 12 0 0 1 225.000098923186 1295.38107550368L270 1307L270 335L330 335L330 1307ZM706.21 551.37L666.175569991376 527.767210594255A12 12 0 0 1 666.364928025417 506.983463493818A12 12 0 0 1 669.940215048071 505.658334778895L825 475L794.341665221105 630.059784951929A12 12 0 0 1 774.666514435722 636.759668650358A12 12 0 0 1 772.232895775189 633.824610426056L748.63 593.79L702.573593128807 639.853593128807A60 60 0 0 0 685 682.28L685.000253458107 717.262839121096A200 200 0 0 0 624.999746541894 717.262839121096L625 682.28A120 120 0 0 1 660.147186257614 597.427186257614L706.21 551.37ZM685 1265L625 1265L624.999746541894 1112.7371608789A200 200 0 0 0 685.000253458107 1112.7371608789L685 1265ZM920 293L875.000098923186 304.618924496316A12 12 0 0 1 860.437666759944 289.788699633188A12 12 0 0 1 862.028768958083 286.323582434515L950 155L1037.97123104192 286.323582434515A12 12 0 0 1 1028.79633169702 304.973548172046A12 12 0 0 1 1024.99990107681 304.618924496316L980 293L980 1265L920 1265L920 293Z" />
<path fill="#003399" stroke="none" fill-rule="evenodd" d="M774.462603412499 767.254656973872A190 190 0 0 0 467.317477942278 885.415022155614A190 190 0 0 0 507.254656973873 1034.4626034125L545.788033128441 995.923141549625A57.14 57.14 0 0 1 533.041622262223 964.996498703822L561.8667075076 964.996912775655A28.57 28.57 0 0 0 566.184336373604 975.526735314156L616.794201511648 924.915825117699A28.57 28.57 0 0 0 568.076516765261 916.237006479679A28.57 28.57 0 0 0 564.239443500001 922.140391737324L536.36 922.14L536.36 815L643.5 815L643.5 843.57L563.15 843.57L563.144138506528 888.683994423946A51.79 51.79 0 0 1 639.465227819818 902.257550109781L668.5 873.21L668.51 870.36A57.14 57.14 0 0 1 728.437291477251 813.288022583576L774.46 767.25ZM802.745343026128 795.537396587501A190 190 0 0 1 684.584977844386 1102.68252205772A190 190 0 0 1 535.537396587501 1062.74534302613L582.043822002624 1016.23317800401A57.14 57.14 0 0 0 647.07 959.64L647.07 951.13L668.5 929.78L668.51 959.64A57.14 57.14 0 0 0 754.22 1009.12469157224A57.14 57.14 0 0 0 782.79 959.64L782.79 870.36A57.14 57.14 0 0 0 767.178123601681 831.112139547186L802.75 795.54ZM697.07 901.21L746.960210070693 851.330553167711A28.57 28.57 0 0 1 754.22 870.36L754.22 959.64A28.57 28.57 0 0 1 711.365 984.382345786121A28.57 28.57 0 0 1 697.08 959.64L697.07 901.21Z" />
<path fill="#cc0000" stroke="none" d="M802.745343026128 795.537396587501A190 190 0 0 0 774.462603412499 767.254656973872L507.254656973873 1034.4626034125A190 190 0 0 0 535.537396587501 1062.74534302613L802.75 795.54Z" />
</svg>
