<?xml version="1.0" standalone="no"?>
<!DOCTYPE svg PUBLIC "-//W3C//DTD SVG 1.1//EN" "http://www.w3.org/Graphics/SVG/1.1/DTD/svg11.dtd">
<svg width="1250" height="1600" version="1.1" xmlns="http://www.w3.org/2000/svg">
<path fill="white" stroke="black" stroke-width="1" d="M60 1600A60 60 0 0 1 0 1540L0 60A60 60 0 0 1 60 0L1190 0A60 60 0 0 1 1250 60L1250 1540A60 60 0 0 1 1190 1600L60 1600Z" />
<path fill="black" stroke="none" d="M60 1585A45 45 0 0 1 15 1540L15 60A45 45 0 0 1 60 15L1190 15A45 45 0 0 1 1235 60L1235 1540A45 45 0 0 1 1190 1585L60 1585Z" />
<path fill="white" stroke="none" d="M60 1565A25 25 0 0 1 35 1540L35 60A25 25 0 0 1 60 35L1190 35A25 25 0 0 1 1215 60L1215 1540A25 25 0 0 1 1190 1565L60 1565Z" />
<path fill="black" stroke="none" fill-rule="evenodd" d="M370 293L414.999901076814 304.618924496316A12 12 0 0 0 429.562333240056 289.788699633188A12 12 0 0 0 427.971231041917 286.323582434515L340 155L252.028768958083 286.323582434515A12 12 0 0 0 261.203668302975 304.973548172046A12 12 0 0 0 265.000098923186 304.618924496316L310 293L310.001957767403 456.843430147957A245 245 0 0 1 369.998042232597 456.843430147957L370 293ZM310 1445L370 1445L369.998042232597 943.156569852043A245 245 0 0 1 310.001957767403 943.156569852043L310 1445ZM710 293L754.999901076814 304.618924496316A12 12 0 0 0 769.562333240056 289.788699633188A12 12 0 0 0 767.971231041917 286.323582434515L680 155L592.028768958084 286.323582434515A12 12 0 0 0 601.203668302975 304.973548172046A12 12 0 0 0 605.000098923186 304.618924496316L650 293L650.001957767403 786.843430147957A245 245 0 0 1 709.998042232597 786.843430147957L710 293ZM650 1445L710 1445L709.998042232597 1273.15656985204A245 245 0 0 1 650.001957767403 1273.15656985204L650 1445ZM888.79 581.37L928.824430008624 557.767210594255A12 12 0 0 0 928.635071974583 536.983463493818A12 12 0 0 0 925.059784951929 535.658334778895L770 505L800.658334778895 660.059784951929A12 12 0 0 0 820.333485564278 666.759668650358A12 12 0 0 0 822.767104224811 663.824610426056L846.37 623.79L972.426406871193 749.853593128807A60 60 0 0 1 990 792.28L990 1445L1050 1445L1050 792.28A120 120 0 0 0 1014.85281374239 707.427186257614L888.79 581.37Z" />
<path fill="#003399" stroke="none" fill-rule="evenodd" d="M484.612625183551 521.15037423153A230 230 0 0 0 112.805368035389 664.186605767323A230 230 0 0 0 161.15037423153 844.612625183551L202.969702453889 802.790681543315A73.5 73.5 0 0 1 180.32 749.72L180.33 749.72A67.01 67.01 0 0 1 208.465190211202 695.138966079005L208.46287297443 695.139315715428A62.69 62.69 0 0 1 184.65 645.96A69.17 69.17 0 0 1 288.405 586.05702282023A69.17 69.17 0 0 1 322.99 645.96L323 645.96A62.69 62.69 0 0 1 299.18712702557 695.139315715428L299.184809788798 695.138966079005A67.01 67.01 0 0 1 305.513136750408 700.252672116599L353.26 652.5L353.26 645.96A69.17 69.17 0 0 1 428.690639595562 577.07391075221L484.61 521.15ZM219.23 645.96A34.59 34.59 0 0 0 271.115 675.915818716904A34.59 34.59 0 0 0 271.115 616.004181283096A34.59 34.59 0 0 0 219.23 645.96M227.439296043833 778.321513225301A38.91 38.91 0 0 1 242.240714938297 712.572883591592A38.91 38.91 0 0 1 282.421513225301 723.339296043833L227.44 778.32ZM518.84962576847 555.387374816449A230 230 0 0 1 375.813394232677 927.19463196461A230 230 0 0 1 195.387374816449 878.84962576847L251.045925860988 823.167631089581A73.5 73.5 0 0 0 327.32 749.72A67.01 67.01 0 0 0 327.263883648502 746.978182284904L353.26 720.98L353.26 754.04A69.17 69.17 0 0 0 457.015 813.94297717977A69.17 69.17 0 0 0 491.6 754.04L491.6 645.96A69.17 69.17 0 0 0 474.162406971505 600.044349411834L518.85 555.39ZM387.84 686.39L387.84 754.04A34.59 34.59 0 0 0 439.725 783.995818716904A34.59 34.59 0 0 0 457.02 754.04L457.02 645.96A34.59 34.59 0 0 0 449.638157833683 624.601529846513L387.84 686.39Z" />
<path fill="#cc0000" stroke="none" d="M518.84962576847 555.387374816449A230 230 0 0 0 484.612625183551 521.15037423153L161.15037423153 844.612625183551A230 230 0 0 0 195.387374816449 878.84962576847L518.85 555.39Z" />
<path fill="#003399" stroke="none" fill-rule="evenodd" d="M824.612625183551 851.15037423153A230 230 0 0 0 452.80536803539 994.186605767323A230 230 0 0 0 501.15037423153 1174.61262518355L547.794580880193 1127.96203186888A69.17 69.17 0 0 1 532.364597687749 1090.52423198011L567.253476117881 1090.52567073538A34.59 34.59 0 0 0 572.480874874448 1103.27423781997L633.754771798667 1042.00683902069A34.59 34.59 0 0 0 574.771757609744 1031.49930185972A34.59 34.59 0 0 0 570.126172581905 1038.64659258642L536.38 1038.65L536.38 908.95L666.08 908.95L666.08 943.53L568.81 943.53L568.808548812015 998.13783762188A62.69 62.69 0 0 1 661.192582197806 1014.56815633099L696.35 979.41L696.35 975.96A69.17 69.17 0 0 1 768.894115356693 906.872343754041L824.61 851.15ZM858.84962576847 885.387374816449A230 230 0 0 1 715.813394232677 1257.19463196461A230 230 0 0 1 535.387374816449 1208.84962576847L591.683501363694 1152.54805254703A69.17 69.17 0 0 0 670.4 1084.04L670.41 1073.74L696.35 1047.89L696.35 1084.04A69.17 69.17 0 0 0 800.105 1143.94297717977A69.17 69.17 0 0 0 834.69 1084.04L834.69 975.96A69.17 69.17 0 0 0 815.791268980193 928.449070571909L858.85 885.39ZM730.93 1013.31L791.320495846877 952.920848234901A34.59 34.59 0 0 1 800.11 975.96L800.11 1084.04A34.59 34.59 0 0 1 748.225 1113.9958187169A34.59 34.59 0 0 1 730.93 1084.04L730.93 1013.31Z" />
<path fill="#cc0000" stroke="none" d="M858.84962576847 885.387374816449A230 230 0 0 0 824.612625183551 851.15037423153L501.15037423153 1174.61262518355A230 230 0 0 0 535.387374816449 1208.84962576847L858.85 885.39Z" />
</svg>
