<?xml version="1.0" standalone="no"?>
<!DOCTYPE svg PUBLIC "-//W3C//DTD SVG 1.1//EN" "http://www.w3.org/Graphics/SVG/1.1/DTD/svg11.dtd">
<svg width="1250" height="1600" version="1.1" xmlns="http://www.w3.org/2000/svg">
<path fill="white" stroke="black" stroke-width="1" d="M60 1600A60 60 0 0 1 0 1540L0 60A60 60 0 0 1 60 0L1190 0A60 60 0 0 1 1250 60L1250 1540A60 60 0 0 1 1190 1600L60 1600Z" />
<path fill="black" stroke="none" d="M60 1585A45 45 0 0 1 15 1540L15 60A45 45 0 0 1 60 15L1190 15A45 45 0 0 1 1235 60L1235 1540A45 45 0 0 1 1190 1585L60 1585Z" />
<path fill="white" stroke="none" d="M60 1565A25 25 0 0 1 35 1540L35 60A25 25 0 0 1 60 35L1190 35A25 25 0 0 1 1215 60L1215 1540A25 25 0 0 1 1190 1565L60 1565Z" />
<path fill="black" stroke="none" fill-rule="evenodd" d="M335 1307L379.999901076814 1295.38107550368A12 12 0 0 1 394.562333240056 1310.21130036681A12 12 0 0 1 392.971231041917 1313.67641756549L305 1445L217.028768958083 1313.67641756549A12 12 0 0 1 226.203668302975 1295.02645182795A12 12 0 0 1 230.000098923186 1295.38107550368L275 1307L275 335L335 335L335 1307ZM615 293L570.000098923186 304.618924496316A12 12 0 0 1 555.437666759944 289.788699633188A12 12 0 0 1 557.028768958084 286.323582434515L645 155L732.971231041917 286.323582434515A12 12 0 0 1 723.796331697025 304.973548172046A12 12 0 0 1 719.999901076814 304.618924496316L675 293L674.668899709422 432.212850796539A200 200 0 0 0 615.331100290578 432.212850796539L615 293ZM855 1120.15L855 1205L650.147186257614 1000.14281374239A120 120 0 0 1 615 915.29L615.331100290578 827.787149203461A200 200 0 0 0 674.668899709422 827.787149203461L675 915.29A60 60 0 0 0 692.573593128807 957.716406871193L855 1120.15ZM915 293L870.000098923186 304.618924496316A12 12 0 0 1 855.437666759944 289.788699633188A12 12 0 0 1 857.028768958083 286.323582434515L945 155L1032.97123104192 286.323582434515A12 12 0 0 1 1023.79633169702 304.973548172046A12 12 0 0 1 1019.99990107681 304.618924496316L975 293L975 1445L915 1445L915 293Z" />
<circle fill="#003399" stroke="none" cx="645" cy="630" r="190" />
<path fill="white" stroke="none" fill-rule="evenodd" d="M526.36 637.14L526.36 530L633.5 530L633.5 558.57L553.15 558.57L553.144138506528 603.683994423946A51.79 51.79 0 0 1 636.528763121811 636.753870108144A51.79 51.79 0 0 1 637.08 644.29L637.07 674.64A57.14 57.14 0 0 1 551.36 724.124691572243A57.14 57.14 0 0 1 523.041622262223 679.996498703822L551.8667075076 679.996912775655A28.57 28.57 0 0 0 598.600868795775 696.265067824424A28.57 28.57 0 0 0 608.5 674.64L608.5 649.64A28.57 28.57 0 0 0 565.645 624.897654213879A28.57 28.57 0 0 0 554.239443500001 637.140391737324L526.36 637.14ZM658.5 674.64L658.51 585.36A57.14 57.14 0 0 1 744.22 535.875308427757A57.14 57.14 0 0 1 772.79 585.36L772.79 674.64A57.14 57.14 0 0 1 687.08 724.124691572243A57.14 57.14 0 0 1 658.51 674.64ZM687.07 674.64L687.08 585.36A28.57 28.57 0 0 1 729.935 560.617654213879A28.57 28.57 0 0 1 744.22 585.36L744.22 674.64A28.57 28.57 0 0 1 701.365 699.382345786121A28.57 28.57 0 0 1 687.08 674.64L687.07 674.64Z" />
</svg>
