<?xml version="1.0" standalone="no"?>
<!DOCTYPE svg PUBLIC "-//W3C//DTD SVG 1.1//EN" "http://www.w3.org/Graphics/SVG/1.1/DTD/svg11.dtd">
<svg width="1250" height="1600" version="1.1" xmlns="http://www.w3.org/2000/svg">
<path fill="white" stroke="black" stroke-width="1" d="M60 1600A60 60 0 0 1 0 1540L0 60A60 60 0 0 1 60 0L1190 0A60 60 0 0 1 1250 60L1250 1540A60 60 0 0 1 1190 1600L60 1600Z" />
<path fill="black" stroke="none" d="M60 1585A45 45 0 0 1 15 1540L15 60A45 45 0 0 1 60 15L1190 15A45 45 0 0 1 1235 60L1235 1540A45 45 0 0 1 1190 1585L60 1585Z" />
<path fill="white" stroke="none" d="M60 1565A25 25 0 0 1 35 1540L35 60A25 25 0 0 1 60 35L1190 35A25 25 0 0 1 1215 60L1215 1540A25 25 0 0 1 1190 1565L60 1565Z" />
<path fill="black" stroke="none" fill-rule="evenodd" d="M285 293L240.000098923186 304.618924496316A12 12 0 0 1 225.437666759944 289.788699633188A12 12 0 0 1 227.028768958083 286.323582434515L315 155L402.971231041917 286.323582434515A12 12 0 0 1 393.796331697025 304.973548172046A12 12 0 0 1 389.999901076814 304.618924496316L345 293L344.777348005845 321.816304934441A245 245 0 0 0 285.222651994155 321.816304934441L285 293ZM565 1165.15L565 1250L320.147186257614 1005.14281374239A120 120 0 0 1 285 920.29L285.222651994155 808.183695065559A245 245 0 0 0 344.777348005845 808.183695065559L345 920.29A60 60 0 0 0 362.573593128807 962.716406871193L565 1165.15ZM670 293L625.000098923186 304.618924496316A12 12 0 0 1 610.437666759944 289.788699633188A12 12 0 0 1 612.028768958084 286.323582434515L700 155L787.971231041917 286.323582434515A12 12 0 0 1 778.796331697025 304.973548172046A12 12 0 0 1 774.999901076814 304.618924496316L730 293L729.777348005845 666.816304934441A245 245 0 0 0 670.222651994155 666.816304934441L670 293ZM730 1445L670 1445L670.222651994155 1153.18369506556A245 245 0 0 0 729.777348005845 1153.18369506556L730 1445ZM1015 293L970.000098923186 304.618924496316A12 12 0 0 1 955.437666759944 289.788699633188A12 12 0 0 1 957.028768958083 286.323582434515L1045 155L1132.97123104192 286.323582434515A12 12 0 0 1 1123.79633169702 304.973548172046A12 12 0 0 1 1119.99990107681 304.618924496316L1075 293L1075 1445L1015 1445L1015 293Z" />
<circle fill="#003399" stroke="none" cx="315" cy="565" r="230" />
<path fill="white" stroke="none" fill-rule="evenodd" d="M183.465190211202 560.138966079005A67.01 67.01 0 0 0 155.33 614.72L155.32 614.72A73.5 73.5 0 0 0 265.57 678.372867178156A73.5 73.5 0 0 0 302.32 614.72A67.01 67.01 0 0 0 274.184809788798 560.138966079005L274.18712702557 560.139315715428A62.69 62.69 0 0 0 298 510.96L297.99 510.96A69.17 69.17 0 0 0 194.235 451.05702282023A69.17 69.17 0 0 0 159.65 510.96A62.69 62.69 0 0 0 183.46287297443 560.139315715428ZM189.91 614.72A38.91 38.91 0 0 0 248.275 648.417048461252A38.91 38.91 0 0 0 248.275 581.022951538748A38.91 38.91 0 0 0 189.91 614.72M194.23 510.96A34.59 34.59 0 0 0 246.115 540.915818716904A34.59 34.59 0 0 0 246.115 481.004181283096A34.59 34.59 0 0 0 194.23 510.96ZM328.26 619.04L328.26 510.96A69.17 69.17 0 0 1 432.015 451.05702282023A69.17 69.17 0 0 1 466.6 510.96L466.6 619.04A69.17 69.17 0 0 1 362.845 678.94297717977A69.17 69.17 0 0 1 328.26 619.04ZM362.84 619.04L362.84 510.96A34.59 34.59 0 0 1 414.725 481.004181283096A34.59 34.59 0 0 1 432.02 510.96L432.02 619.04A34.59 34.59 0 0 1 380.135 648.995818716904A34.59 34.59 0 0 1 362.84 619.04Z" />
<circle fill="#003399" stroke="none" cx="700" cy="910" r="230" />
<path fill="white" stroke="none" fill-rule="evenodd" d="M556.38 918.65L556.38 788.95L686.08 788.95L686.08 823.53L588.81 823.53L588.808548812015 878.13783762188A62.69 62.69 0 0 1 689.742746864382 918.167775962146A62.69 62.69 0 0 1 690.41 927.29L690.4 964.04A69.17 69.17 0 0 1 586.645 1023.94297717977A69.17 69.17 0 0 1 552.364597687749 970.524231980108L587.253476117881 970.525670735384A34.59 34.59 0 0 0 643.835017558483 990.221697446511A34.59 34.59 0 0 0 655.82 964.04L655.82 933.78A34.59 34.59 0 0 0 603.935 903.824181283096A34.59 34.59 0 0 0 590.126172581905 918.646592586421L556.38 918.65ZM716.35 964.04L716.35 855.96A69.17 69.17 0 0 1 820.105 796.05702282023A69.17 69.17 0 0 1 854.69 855.96L854.69 964.04A69.17 69.17 0 0 1 750.935 1023.94297717977A69.17 69.17 0 0 1 716.35 964.04ZM750.93 964.04L750.93 855.96A34.59 34.59 0 0 1 802.815 826.004181283096A34.59 34.59 0 0 1 820.11 855.96L820.11 964.04A34.59 34.59 0 0 1 768.225 993.995818716904A34.59 34.59 0 0 1 750.93 964.04Z" />
</svg>
