<?xml version="1.0" standalone="no"?>
<!DOCTYPE svg PUBLIC "-//W3C//DTD SVG 1.1//EN" "http://www.w3.org/Graphics/SVG/1.1/DTD/svg11.dtd">
<svg width="1250" height="1600" version="1.1" xmlns="http://www.w3.org/2000/svg">
<path fill="white" stroke="black" stroke-width="1" d="M60 1600A60 60 0 0 1 0 1540L0 60A60 60 0 0 1 60 0L1190 0A60 60 0 0 1 1250 60L1250 1540A60 60 0 0 1 1190 1600L60 1600Z" />
<path fill="black" stroke="none" d="M60 1585A45 45 0 0 1 15 1540L15 60A45 45 0 0 1 60 15L1190 15A45 45 0 0 1 1235 60L1235 1540A45 45 0 0 1 1190 1585L60 1585Z" />
<path fill="white" stroke="none" d="M60 1565A25 25 0 0 1 35 1540L35 60A25 25 0 0 1 60 35L1190 35A25 25 0 0 1 1215 60L1215 1540A25 25 0 0 1 1190 1565L60 1565Z" />
<path fill="black" stroke="none" fill-rule="evenodd" d="M160 293L115.000098923186 304.618924496316A12 12 0 0 1 100.437666759944 289.788699633188A12 12 0 0 1 102.028768958083 286.323582434515L190 155L277.971231041917 286.323582434515A12 12 0 0 1 268.796331697025 304.973548172046A12 12 0 0 1 264.999901076814 304.618924496316L220 293L220 365A600 600 0 0 0 277.054732272454 620.363341637486L277.071730309888 620.365316853056A200 200 0 0 0 227.16459126428 655.081401819308L227.165036955405 655.080517429064A660 660 0 0 1 160 365L160 293ZM538.13 900.13L665.283559156423 989.229770839215A410 410 0 0 1 840 1325L840 1445L780 1445L780 1325A350 350 0 0 0 630.851818792069 1038.36687754567L500.549822075967 947.058647264191A200 200 0 0 0 538.131730399418 900.12693907687L538.13 900.13ZM410 293L365.000098923186 304.618924496316A12 12 0 0 1 350.437666759944 289.788699633188A12 12 0 0 1 352.028768958084 286.323582434515L440 155L527.971231041916 286.323582434515A12 12 0 0 1 518.796331697025 304.973548172046A12 12 0 0 1 514.999901076814 304.618924496316L470 293L470 365A350 350 0 0 0 619.148181207931 651.633122454328L808.749144007901 784.491826228981A660 660 0 0 1 1090 1325L1090 1445L1030 1445L1030 1325A600 600 0 0 0 774.317403643546 833.628932935437L584.716440843577 700.770229160785A410 410 0 0 1 410 365L410 293ZM665 1535L695 1535A750 750 0 0 0 653.333920395435 1288.49836264797L653.333356815817 1288.49993450592A30 30 0 0 0 602.294254391238 1278.75262597005A30 30 0 0 0 596.666643184183 1288.49993450592L596.666079604565 1288.49836264797A750 750 0 0 0 555 1535L585 1535A720 720 0 0 1 624.999436420383 1298.35842814205L625.000563579617 1298.35842814205A720 720 0 0 1 665 1535ZM585 65L555 65A750 750 0 0 0 596.666079604565 311.501637352034L596.666643184183 311.500065494081A30 30 0 0 0 647.705745608762 321.247374029946A30 30 0 0 0 653.333356815817 311.500065494081L653.333920395435 311.501637352034A750 750 0 0 0 695 65L665 65A720 720 0 0 1 625.000563579618 301.641571857953L624.999436420382 301.641571857953A720 720 0 0 1 585 65Z" />
<circle fill="#cc0000" stroke="none" cx="365" cy="800" r="190" />
<circle fill="white" stroke="none" cx="365" cy="800" r="140" />
<path fill="black" stroke="none" fill-rule="evenodd" d="M264.25 800L236.165901143386 750.545222962749A138 138 0 0 0 236.165901143386 849.454777037251L264.25 800ZM465.75 800L493.834098856614 750.545222962749A138 138 0 0 1 493.834098856614 849.454777037251L465.75 800ZM289.44 895.71L289.44 870.08L341.005050166053 771.675252831362A27.35 27.35 0 0 0 344.13 758.98L344.13 743.6A13.67 13.67 0 0 0 323.625 731.761432730267A13.67 13.67 0 0 0 316.79 743.6L316.78 758.98L289.44 758.98L289.44 743.6A41.02 41.02 0 0 1 350.97 708.075637936762A41.02 41.02 0 0 1 371.48 743.6L371.47 758.98A54.69 54.69 0 0 1 365.387229301597 784.046578538403L321.91 868.37L371.48 868.37L371.48 895.71L289.44 895.71ZM389.97 895.71L389.97 837.45L401.62 837.45L401.626522757461 843.284019830815A12.38 12.38 0 0 1 423.057185449728 842.562981294892A12.38 12.38 0 0 1 423.082019548461 842.603006513693L423.072088394483 842.594419237136A13.84 13.84 0 0 1 446.947351099295 844.741191413267A13.84 13.84 0 0 1 448.23 850.56L448.23 895.71L436.58 895.71L436.58 854.2A5.83 5.83 0 0 0 427.835 849.151071895937A5.83 5.83 0 0 0 424.92 854.2L424.93 895.71L413.27 895.71L413.28 854.2A5.83 5.83 0 0 0 404.535 849.151071895937A5.83 5.83 0 0 0 401.62 854.2L401.62 895.71L389.97 895.71Z" />
</svg>
