<?xml version="1.0" standalone="no"?>
<!DOCTYPE svg PUBLIC "-//W3C//DTD SVG 1.1//EN" "http://www.w3.org/Graphics/SVG/1.1/DTD/svg11.dtd">
<svg width="1250" height="1600" version="1.1" xmlns="http://www.w3.org/2000/svg">
<path fill="white" stroke="black" stroke-width="1" d="M60 1600A60 60 0 0 1 0 1540L0 60A60 60 0 0 1 60 0L1190 0A60 60 0 0 1 1250 60L1250 1540A60 60 0 0 1 1190 1600L60 1600Z" />
<path fill="black" stroke="none" d="M60 1585A45 45 0 0 1 15 1540L15 60A45 45 0 0 1 60 15L1190 15A45 45 0 0 1 1235 60L1235 1540A45 45 0 0 1 1190 1585L60 1585Z" />
<path fill="white" stroke="none" d="M60 1565A25 25 0 0 1 35 1540L35 60A25 25 0 0 1 60 35L1190 35A25 25 0 0 1 1215 60L1215 1540A25 25 0 0 1 1190 1565L60 1565Z" />
<path fill="black" stroke="none" fill-rule="evenodd" d="M290 293L245.000098923186 304.618924496316A12 12 0 0 1 230.437666759944 289.788699633188A12 12 0 0 1 232.028768958083 286.323582434515L320 155L407.971231041917 286.323582434515A12 12 0 0 1 398.796331697025 304.973548172046A12 12 0 0 1 394.999901076814 304.618924496316L350 293L349.777348005845 401.816304934441A245 245 0 0 0 290.222651994155 401.816304934441L290 293ZM350 890L350 1445L290 1445L290.222651994155 888.183695065559A245 245 0 0 0 349.777348005845 888.183695065559L350 890ZM630 293L585.000098923186 304.618924496316A12 12 0 0 1 570.437666759944 289.788699633188A12 12 0 0 1 572.028768958084 286.323582434515L660 155L747.971231041917 286.323582434515A12 12 0 0 1 738.796331697025 304.973548172046A12 12 0 0 1 734.999901076814 304.618924496316L690 293L689.777348005845 831.816304934441A245 245 0 0 0 630.222651994155 831.816304934441L630 293ZM690 1320L690 1445L630 1445L630.222651994155 1318.18369506556A245 245 0 0 0 689.777348005845 1318.18369506556L690 1320ZM970 293L925.000098923186 304.618924496316A12 12 0 0 1 910.437666759944 289.788699633188A12 12 0 0 1 912.028768958083 286.323582434515L1000 155L1087.97123104192 286.323582434515A12 12 0 0 1 1078.79633169702 304.973548172046A12 12 0 0 1 1074.99990107681 304.618924496316L1030 293L1030 1445L970 1445L970 293Z" />
<circle fill="#003399" stroke="none" cx="320" cy="645" r="230" />
<path fill="white" stroke="none" fill-rule="evenodd" d="M188.465190211202 640.138966079005A67.01 67.01 0 0 0 160.33 694.72L160.32 694.72A73.5 73.5 0 0 0 270.57 758.372867178156A73.5 73.5 0 0 0 307.32 694.72A67.01 67.01 0 0 0 279.184809788798 640.138966079005L279.18712702557 640.139315715428A62.69 62.69 0 0 0 303 590.96L302.99 590.96A69.17 69.17 0 0 0 199.235 531.05702282023A69.17 69.17 0 0 0 164.65 590.96A62.69 62.69 0 0 0 188.46287297443 640.139315715428ZM194.91 694.72A38.91 38.91 0 0 0 253.275 728.417048461252A38.91 38.91 0 0 0 253.275 661.022951538748A38.91 38.91 0 0 0 194.91 694.72M199.23 590.96A34.59 34.59 0 0 0 251.115 620.915818716904A34.59 34.59 0 0 0 251.115 561.004181283096A34.59 34.59 0 0 0 199.23 590.96ZM333.26 699.04L333.26 590.96A69.17 69.17 0 0 1 437.015 531.05702282023A69.17 69.17 0 0 1 471.6 590.96L471.6 699.04A69.17 69.17 0 0 1 367.845 758.94297717977A69.17 69.17 0 0 1 333.26 699.04ZM367.84 699.04L367.84 590.96A34.59 34.59 0 0 1 419.725 561.004181283096A34.59 34.59 0 0 1 437.02 590.96L437.02 699.04A34.59 34.59 0 0 1 385.135 728.995818716904A34.59 34.59 0 0 1 367.84 699.04Z" />
<circle fill="#003399" stroke="none" cx="660" cy="1075" r="230" />
<path fill="white" stroke="none" fill-rule="evenodd" d="M516.38 1083.65L516.38 953.95L646.08 953.95L646.08 988.53L548.81 988.53L548.808548812015 1043.13783762188A62.69 62.69 0 0 1 649.742746864382 1083.16777596215A62.69 62.69 0 0 1 650.41 1092.29L650.4 1129.04A69.17 69.17 0 0 1 546.645 1188.94297717977A69.17 69.17 0 0 1 512.364597687749 1135.52423198011L547.253476117881 1135.52567073538A34.59 34.59 0 0 0 603.835017558483 1155.22169744651A34.59 34.59 0 0 0 615.82 1129.04L615.82 1098.78A34.59 34.59 0 0 0 563.935 1068.8241812831A34.59 34.59 0 0 0 550.126172581905 1083.64659258642L516.38 1083.65ZM676.35 1129.04L676.35 1020.96A69.17 69.17 0 0 1 780.105 961.05702282023A69.17 69.17 0 0 1 814.69 1020.96L814.69 1129.04A69.17 69.17 0 0 1 710.935 1188.94297717977A69.17 69.17 0 0 1 676.35 1129.04ZM710.93 1129.04L710.93 1020.96A34.59 34.59 0 0 1 762.815 991.004181283096A34.59 34.59 0 0 1 780.11 1020.96L780.11 1129.04A34.59 34.59 0 0 1 728.225 1158.9958187169A34.59 34.59 0 0 1 710.93 1129.04Z" />
</svg>
