<?xml version="1.0" encoding="UTF-8" standalone="no"?>
<!-- Created with Inkscape (http://www.inkscape.org/) -->
<svg
   xmlns:svg="http://www.w3.org/2000/svg"
   xmlns="http://www.w3.org/2000/svg"
   version="1.0"
   width="450"
   height="720"
   id="svg1961">
  <defs
     id="defs1963" />
  <path
     d="M 437.6773,5.9699461 L 12.222551,6.1689006 C 7.8796633,6.1689006 3.8096038,8.2065655 3.8096038,14.822939 L 6.2898774,707.44493 C 6.2560661,711.2006 7.6560342,713.98789 13.120757,714.03005 L 435.21696,713.93349 C 440.83336,713.76611 443.63479,710.35565 443.72276,703.81904 L 446.1904,14.723472 C 446.1904,8.1070882 442.02016,5.9699461 437.6773,5.9699461 z "
     style="fill:white;fill-opacity:1;fill-rule:evenodd;stroke:black;stroke-width:3.19399548px;stroke-linecap:butt;stroke-linejoin:miter;stroke-opacity:1"
     id="path19080" />
  <path
     d="M -383.15951,327.05217 L -385.24892,327.05217 M -385.24892,327.05217 L -389.84563,326.21641 M -389.84563,326.21641 L -394.44234,324.96276 M -394.44234,324.96276 L -399.03905,323.29123 M -399.03905,323.29123 L -403.21787,321.20182 M -403.21787,321.20182 L -406.97882,318.69452 M -406.97882,318.69452 L -410.73976,315.35146 M -410.73976,315.35146 L -413.66494,312.0084 M -413.66494,312.0084 L -416.17223,308.24745 M -416.17223,308.24745 L -418.67953,304.06863 M -418.67953,304.06863 L -420.35106,299.47192 M -420.35106,299.47192 L -421.18682,294.87521 M -421.18682,294.87521 L -422.02259,290.2785 M -422.02259,290.2785 L -422.02259,287.77121 L -422.02259,-219.12041 L -422.02259,-221.20982 M -422.02259,-221.20982 L -421.18682,-225.80653 M -421.18682,-225.80653 L -420.35106,-230.40324 M -420.35106,-230.40324 L -418.67953,-234.99995 M -418.67953,-234.99995 L -416.17223,-239.17877 M -416.17223,-239.17877 L -413.66494,-242.93972 M -413.66494,-242.93972 L -410.73976,-246.70066 M -410.73976,-246.70066 L -406.97882,-249.62584 M -406.97882,-249.62584 L -403.21787,-252.13313 M -403.21787,-252.13313 L -399.03905,-254.64043 M -399.03905,-254.64043 L -394.44234,-256.31196 M -394.44234,-256.31196 L -389.84563,-257.14772 L -385.24892,-257.98349 M -385.24892,-257.98349 L -383.15951,-257.98349 L 123.73211,-257.98349 L 126.2394,-257.98349 M 126.2394,-257.98349 L 130.83611,-257.14772 L 135.43282,-256.31196 M 135.43282,-256.31196 L 140.02953,-254.64043 M 140.02953,-254.64043 L 144.20835,-252.13313 M 144.20835,-252.13313 L 147.9693,-249.62584 M 147.9693,-249.62584 L 151.31236,-246.70066 M 151.31236,-246.70066 L 154.65542,-242.93972 M 154.65542,-242.93972 L 157.16272,-239.17877 M 157.16272,-239.17877 L 159.25213,-234.99995 M 159.25213,-234.99995 L 160.92366,-230.40324 M 160.92366,-230.40324 L 162.17731,-225.80653 M 162.17731,-225.80653 L 163.01307,-221.20982 M 163.01307,-221.20982 L 163.01307,-219.12041 L 163.01307,287.77121 L 163.01307,290.2785 M 163.01307,290.2785 L 162.17731,294.87521 M 162.17731,294.87521 L 160.92366,299.47192 M 160.92366,299.47192 L 159.25213,304.06863 M 159.25213,304.06863 L 157.16272,308.24745 M 157.16272,308.24745 L 154.65542,312.0084 M 154.65542,312.0084 L 151.31236,315.35146 L 147.9693,318.69452 M 147.9693,318.69452 L 144.20835,321.20182 M 144.20835,321.20182 L 140.02953,323.29123 M 140.02953,323.29123 L 135.43282,324.96276 M 135.43282,324.96276 L 130.83611,326.21641 M 130.83611,326.21641 L 126.2394,327.05217 M 126.2394,327.05217 L 123.73211,327.05217 M 123.73211,327.05217 L -383.15951,327.05217"
     id="path48" />
  <path
     d="M 289.31608,525.98836 L 289.31608,458.25138 C 287.41523,394.90899 195.45651,346.33118 151.47359,313.71094 C 114.60653,282.54304 70.657247,228.77338 69.992245,174.11057 L 69.992245,114.00593"
     style="fill:none;fill-opacity:0.75;fill-rule:evenodd;stroke:black;stroke-width:21.64923096;stroke-linecap:butt;stroke-linejoin:miter;stroke-miterlimit:4;stroke-dasharray:none;stroke-opacity:1"
     id="path15460" />
  <path
     d="M 430.23278,16.018642 L 19.670574,16.211938 C 15.479706,16.211938 11.552112,18.191766 11.552112,24.620345 L 13.945562,697.58314 C 13.912932,701.23221 15.263907,703.9404 20.537332,703.98136 L 427.85857,703.88753 C 433.27836,703.7249 435.98173,700.41124 436.06663,694.06017 L 438.44789,24.523697 C 438.44789,18.095113 434.42363,16.018642 430.23278,16.018642 z "
     style="fill:none;fill-opacity:0.75;fill-rule:evenodd;stroke:black;stroke-width:6;stroke-linecap:butt;stroke-linejoin:miter;stroke-miterlimit:4;stroke-dasharray:none;stroke-opacity:1"
     id="path14548" />
  <path
     d="M 205.8374,29.648042 L 216.33186,111.45714 C 219.98903,125.11262 229.37044,124.06718 233.02759,111.21863 L 245.43014,29.886555"
     style="fill:none;fill-opacity:0.75;fill-rule:evenodd;stroke:black;stroke-width:9.27824211;stroke-linecap:butt;stroke-linejoin:miter;stroke-miterlimit:4;stroke-dasharray:none;stroke-opacity:1"
     id="path15446" />
  <path
     d="M 205.5989,559.88015 L 216.09336,478.07104 C 219.75051,464.41557 229.13192,465.46101 232.78909,478.30956 L 245.19164,559.64163"
     style="fill:none;fill-opacity:0.75;fill-rule:evenodd;stroke:black;stroke-width:9.27824211;stroke-linecap:butt;stroke-linejoin:miter;stroke-miterlimit:4;stroke-dasharray:none;stroke-opacity:1"
     id="path15448" />
  <path
     d="M 13.597956,574.64449 L 434.33046,574.64449"
     style="fill:none;fill-opacity:0.75;fill-rule:evenodd;stroke:black;stroke-width:8;stroke-linecap:butt;stroke-linejoin:miter;stroke-miterlimit:4;stroke-dasharray:none;stroke-opacity:1"
     id="path15450" />
  <path
     d="M 113.76593,671.34543 L 113.76593,662.18788 L 140.39758,628.87496 C 141.42544,627.56678 142.09513,626.36758 142.40664,625.27735 C 142.71809,624.18721 142.87383,623.12817 142.87386,622.10024 C 142.87383,619.73303 142.03283,617.5293 140.35086,615.48905 C 138.66884,613.4489 136.37945,612.4288 133.4827,612.42874 C 130.83509,612.4288 128.56906,613.30874 126.68462,615.06855 C 124.80014,616.82847 123.7489,619.23466 123.53087,622.28713 L 113.76593,622.28713 C 113.79708,616.77396 115.68154,612.12511 119.41932,608.34055 C 123.15708,604.55612 127.59569,602.66387 132.73514,602.66381 C 138.40408,602.66387 143.1308,604.5717 146.91533,608.38727 C 150.69979,612.20298 152.59203,616.80511 152.59208,622.19368 C 152.59203,626.80365 151.23709,630.79061 148.52725,634.15456 L 126.61454,661.62721 L 152.59208,661.62721 L 152.59208,671.34543 L 113.76593,671.34543 z M 189.22227,651.76883 L 189.22227,622.84779 C 189.22224,619.57729 188.34231,617.02315 186.58247,615.18535 C 184.82257,613.34767 182.50983,612.4288 179.64422,612.42874 C 176.74743,612.4288 174.4269,613.34767 172.68262,615.18535 C 170.93831,617.02315 170.06616,619.57729 170.06618,622.84779 L 170.06618,651.76883 C 170.06616,655.07055 170.93831,657.63248 172.68262,659.45463 C 174.4269,661.27681 176.74743,662.18789 179.64422,662.18788 C 182.50983,662.18789 184.82257,661.27681 186.58247,659.45463 C 188.34231,657.63248 189.22224,655.07055 189.22227,651.76883 L 189.22227,651.76883 z M 160.30124,652.3295 L 160.30124,622.28713 C 160.30123,616.02641 162.26356,611.19067 166.18823,607.77989 C 170.11288,604.36923 174.59821,602.66387 179.64422,602.66381 C 184.65905,602.66387 189.13658,604.36923 193.07685,607.77989 C 197.01705,611.19067 198.98717,616.02641 198.98721,622.28713 L 198.98721,652.3295 C 198.98717,658.59028 197.01705,663.41824 193.07685,666.81338 C 189.13658,670.20852 184.65905,671.90609 179.64422,671.90609 C 174.59821,671.90609 170.11288,670.20852 166.18823,666.81338 C 162.26356,663.41824 160.30123,658.59028 160.30124,652.3295 L 160.30124,652.3295 z M 235.19691,651.76883 L 235.19691,622.84779 C 235.19688,619.57729 234.31694,617.02315 232.55711,615.18535 C 230.79721,613.34767 228.48446,612.4288 225.61886,612.42874 C 222.72206,612.4288 220.40153,613.34767 218.65725,615.18535 C 216.91294,617.02315 216.0408,619.57729 216.04081,622.84779 L 216.04081,651.76883 C 216.0408,655.07055 216.91294,657.63248 218.65725,659.45463 C 220.40153,661.27681 222.72206,662.18789 225.61886,662.18788 C 228.48446,662.18789 230.79721,661.27681 232.55711,659.45463 C 234.31694,657.63248 235.19688,655.07055 235.19691,651.76883 L 235.19691,651.76883 z M 206.27587,652.3295 L 206.27587,622.28713 C 206.27587,616.02641 208.2382,611.19067 212.16287,607.77989 C 216.08752,604.36923 220.57285,602.66387 225.61886,602.66381 C 230.63368,602.66387 235.11122,604.36923 239.05149,607.77989 C 242.99169,611.19067 244.96181,616.02641 244.96185,622.28713 L 244.96185,652.3295 C 244.96181,658.59028 242.99169,663.41824 239.05149,666.81338 C 235.11122,670.20852 230.63368,671.90609 225.61886,671.90609 C 220.57285,671.90609 216.08752,670.20852 212.16287,666.81338 C 208.2382,663.41824 206.27587,658.59028 206.27587,652.3295 L 206.27587,652.3295 z "
     style="font-size:95.68704987px;font-style:normal;font-variant:normal;font-weight:normal;font-stretch:normal;text-align:center;line-height:100%;writing-mode:lr-tb;text-anchor:middle;fill:black;fill-opacity:1;stroke:none;stroke-width:1px;stroke-linecap:butt;stroke-linejoin:miter;stroke-opacity:1;font-family:DIN 1451 Mittelschrift"
     id="text15452" />
  <path
     d="M 266.03037,671.04947 L 266.03037,622.55183 L 275.79531,622.55183 L 275.79531,627.738 L 275.9822,627.738 C 279.06584,623.90682 283.27084,621.99122 288.59719,621.99117 C 291.9923,621.99122 294.68661,622.5986 296.68013,623.81333 C 298.67357,625.02816 300.54246,626.52326 302.28679,628.29866 C 306.11797,624.09371 311.22625,621.99122 317.61167,621.99117 C 321.38053,621.99122 325.01707,623.42403 328.5213,626.28961 C 332.0254,629.15528 333.77748,633.32912 333.77755,638.81116 L 333.77755,671.04947 L 324.01261,671.04947 L 324.01261,642.17515 C 324.01255,638.90463 323.09368,636.35049 321.256,634.51271 C 319.4182,632.67501 317.14439,631.75614 314.43456,631.75611 C 311.63118,631.75614 309.31843,632.67501 307.49632,634.51271 C 305.6741,636.35049 304.76302,638.90463 304.76307,642.17515 L 304.76307,671.04947 L 295.04485,671.04947 L 295.04485,642.17515 C 295.04482,638.90463 294.12595,636.35049 292.28824,634.51271 C 290.45047,632.67501 288.17666,631.75614 285.4668,631.75611 C 282.66345,631.75614 280.3507,632.67501 278.52856,634.51271 C 276.70637,636.35049 275.79529,638.90463 275.79531,642.17515 L 275.79531,671.04947 L 266.03037,671.04947 z "
     style="font-size:95.68704987px;font-style:normal;font-variant:normal;font-weight:normal;font-stretch:normal;text-align:center;line-height:100%;writing-mode:lr-tb;text-anchor:middle;fill:black;fill-opacity:1;stroke:none;stroke-width:1px;stroke-linecap:butt;stroke-linejoin:miter;stroke-opacity:1;font-family:DIN 1451 Mittelschrift"
     id="text15456" />
  <path
     d="M 380.85116,525.90653 L 380.85116,458.16955 C 378.95032,394.82714 320.38309,324.30638 276.40017,291.68614 C 239.53312,260.51822 162.19236,228.69153 161.52736,174.02873 L 161.52736,113.92408"
     style="fill:none;fill-opacity:0.75;fill-rule:evenodd;stroke:black;stroke-width:21.64923096;stroke-linecap:butt;stroke-linejoin:miter;stroke-miterlimit:4;stroke-dasharray:none;stroke-opacity:1"
     id="path16347" />
  <path
     d="M 105.8575,110.72148 L 70.171689,57.811595 L 34.511662,110.74726 C 32.892641,113.51364 34.373228,119.54159 40.261615,118.92097 L 58.233445,114.25396 L 82.109931,114.25396 L 100.08176,118.89518 C 104.84681,119.24459 107.59831,114.86459 105.8575,110.72148 z "
     style="fill:black;fill-opacity:1;fill-rule:evenodd;stroke:none;stroke-width:1px;stroke-linecap:butt;stroke-linejoin:miter;stroke-opacity:1"
     id="path5472" />
  <path
     d="M 197.5363,110.94608 L 161.85049,58.036193 L 126.19046,110.97186 C 124.57144,113.73824 126.05202,119.76619 131.94041,119.14556 L 149.91224,114.47856 L 173.78872,114.47856 L 191.76056,119.11978 C 196.5256,119.46919 199.2771,115.08919 197.5363,110.94608 z "
     style="fill:black;fill-opacity:1;fill-rule:evenodd;stroke:none;stroke-width:1px;stroke-linecap:butt;stroke-linejoin:miter;stroke-opacity:1"
     id="path16397" />
</svg>
